%TF.GenerationSoftware,KiCad,Pcbnew,9.0.6*%
%TF.CreationDate,2026-01-02T10:14:10+05:30*%
%TF.ProjectId,Main_Controller,4d61696e-5f43-46f6-9e74-726f6c6c6572,rev?*%
%TF.SameCoordinates,Original*%
%TF.FileFunction,Copper,L1,Top*%
%TF.FilePolarity,Positive*%
%FSLAX46Y46*%
G04 Gerber Fmt 4.6, Leading zero omitted, Abs format (unit mm)*
G04 Created by KiCad (PCBNEW 9.0.6) date 2026-01-02 10:14:10*
%MOMM*%
%LPD*%
G01*
G04 APERTURE LIST*
G04 Aperture macros list*
%AMRoundRect*
0 Rectangle with rounded corners*
0 $1 Rounding radius*
0 $2 $3 $4 $5 $6 $7 $8 $9 X,Y pos of 4 corners*
0 Add a 4 corners polygon primitive as box body*
4,1,4,$2,$3,$4,$5,$6,$7,$8,$9,$2,$3,0*
0 Add four circle primitives for the rounded corners*
1,1,$1+$1,$2,$3*
1,1,$1+$1,$4,$5*
1,1,$1+$1,$6,$7*
1,1,$1+$1,$8,$9*
0 Add four rect primitives between the rounded corners*
20,1,$1+$1,$2,$3,$4,$5,0*
20,1,$1+$1,$4,$5,$6,$7,0*
20,1,$1+$1,$6,$7,$8,$9,0*
20,1,$1+$1,$8,$9,$2,$3,0*%
%AMFreePoly0*
4,1,23,0.500000,-0.750000,0.000000,-0.750000,0.000000,-0.745722,-0.065263,-0.745722,-0.191342,-0.711940,-0.304381,-0.646677,-0.396677,-0.554381,-0.461940,-0.441342,-0.495722,-0.315263,-0.495722,-0.250000,-0.500000,-0.250000,-0.500000,0.250000,-0.495722,0.250000,-0.495722,0.315263,-0.461940,0.441342,-0.396677,0.554381,-0.304381,0.646677,-0.191342,0.711940,-0.065263,0.745722,0.000000,0.745722,
0.000000,0.750000,0.500000,0.750000,0.500000,-0.750000,0.500000,-0.750000,$1*%
%AMFreePoly1*
4,1,23,0.000000,0.745722,0.065263,0.745722,0.191342,0.711940,0.304381,0.646677,0.396677,0.554381,0.461940,0.441342,0.495722,0.315263,0.495722,0.250000,0.500000,0.250000,0.500000,-0.250000,0.495722,-0.250000,0.495722,-0.315263,0.461940,-0.441342,0.396677,-0.554381,0.304381,-0.646677,0.191342,-0.711940,0.065263,-0.745722,0.000000,-0.745722,0.000000,-0.750000,-0.500000,-0.750000,
-0.500000,0.750000,0.000000,0.750000,0.000000,0.745722,0.000000,0.745722,$1*%
%AMFreePoly2*
4,1,14,0.603536,0.603536,0.605000,0.600000,0.605000,-0.600000,0.603536,-0.603536,0.600000,-0.605000,-0.600000,-0.605000,-0.603536,-0.603536,-0.605000,-0.600000,-0.605000,0.000000,-0.603536,0.003536,-0.003536,0.603536,0.000000,0.605000,0.600000,0.605000,0.603536,0.603536,0.603536,0.603536,$1*%
G04 Aperture macros list end*
%TA.AperFunction,ComponentPad*%
%ADD10C,1.700000*%
%TD*%
%TA.AperFunction,ComponentPad*%
%ADD11R,1.700000X1.700000*%
%TD*%
%TA.AperFunction,SMDPad,CuDef*%
%ADD12RoundRect,0.200000X0.275000X-0.200000X0.275000X0.200000X-0.275000X0.200000X-0.275000X-0.200000X0*%
%TD*%
%TA.AperFunction,SMDPad,CuDef*%
%ADD13RoundRect,0.200000X-0.275000X0.200000X-0.275000X-0.200000X0.275000X-0.200000X0.275000X0.200000X0*%
%TD*%
%TA.AperFunction,SMDPad,CuDef*%
%ADD14RoundRect,0.200000X0.200000X0.275000X-0.200000X0.275000X-0.200000X-0.275000X0.200000X-0.275000X0*%
%TD*%
%TA.AperFunction,SMDPad,CuDef*%
%ADD15RoundRect,0.150000X-0.150000X0.587500X-0.150000X-0.587500X0.150000X-0.587500X0.150000X0.587500X0*%
%TD*%
%TA.AperFunction,SMDPad,CuDef*%
%ADD16RoundRect,0.150000X-0.587500X-0.150000X0.587500X-0.150000X0.587500X0.150000X-0.587500X0.150000X0*%
%TD*%
%TA.AperFunction,SMDPad,CuDef*%
%ADD17RoundRect,0.200000X-0.200000X-0.275000X0.200000X-0.275000X0.200000X0.275000X-0.200000X0.275000X0*%
%TD*%
%TA.AperFunction,SMDPad,CuDef*%
%ADD18RoundRect,0.225000X-0.250000X0.225000X-0.250000X-0.225000X0.250000X-0.225000X0.250000X0.225000X0*%
%TD*%
%TA.AperFunction,SMDPad,CuDef*%
%ADD19RoundRect,0.225000X0.250000X-0.225000X0.250000X0.225000X-0.250000X0.225000X-0.250000X-0.225000X0*%
%TD*%
%TA.AperFunction,SMDPad,CuDef*%
%ADD20RoundRect,0.150000X-0.512500X-0.150000X0.512500X-0.150000X0.512500X0.150000X-0.512500X0.150000X0*%
%TD*%
%TA.AperFunction,ComponentPad*%
%ADD21RoundRect,0.250000X-0.620000X-0.845000X0.620000X-0.845000X0.620000X0.845000X-0.620000X0.845000X0*%
%TD*%
%TA.AperFunction,ComponentPad*%
%ADD22O,1.740000X2.190000*%
%TD*%
%TA.AperFunction,SMDPad,CuDef*%
%ADD23RoundRect,0.218750X0.218750X0.256250X-0.218750X0.256250X-0.218750X-0.256250X0.218750X-0.256250X0*%
%TD*%
%TA.AperFunction,ComponentPad*%
%ADD24C,0.800000*%
%TD*%
%TA.AperFunction,ComponentPad*%
%ADD25C,6.400000*%
%TD*%
%TA.AperFunction,SMDPad,CuDef*%
%ADD26FreePoly0,270.000000*%
%TD*%
%TA.AperFunction,SMDPad,CuDef*%
%ADD27FreePoly1,270.000000*%
%TD*%
%TA.AperFunction,SMDPad,CuDef*%
%ADD28RoundRect,0.225000X-0.225000X-0.250000X0.225000X-0.250000X0.225000X0.250000X-0.225000X0.250000X0*%
%TD*%
%TA.AperFunction,SMDPad,CuDef*%
%ADD29R,0.475000X0.250000*%
%TD*%
%TA.AperFunction,SMDPad,CuDef*%
%ADD30R,0.250000X0.475000*%
%TD*%
%TA.AperFunction,SMDPad,CuDef*%
%ADD31RoundRect,0.150000X-0.150000X-0.350000X0.150000X-0.350000X0.150000X0.350000X-0.150000X0.350000X0*%
%TD*%
%TA.AperFunction,SMDPad,CuDef*%
%ADD32RoundRect,0.075000X-0.075000X-0.500000X0.075000X-0.500000X0.075000X0.500000X-0.075000X0.500000X0*%
%TD*%
%TA.AperFunction,HeatsinkPad*%
%ADD33O,1.000000X2.100000*%
%TD*%
%TA.AperFunction,HeatsinkPad*%
%ADD34O,1.000000X1.800000*%
%TD*%
%TA.AperFunction,SMDPad,CuDef*%
%ADD35RoundRect,0.137500X-0.662500X-0.137500X0.662500X-0.137500X0.662500X0.137500X-0.662500X0.137500X0*%
%TD*%
%TA.AperFunction,SMDPad,CuDef*%
%ADD36RoundRect,0.150000X-0.350000X0.150000X-0.350000X-0.150000X0.350000X-0.150000X0.350000X0.150000X0*%
%TD*%
%TA.AperFunction,SMDPad,CuDef*%
%ADD37RoundRect,0.075000X-0.500000X0.075000X-0.500000X-0.075000X0.500000X-0.075000X0.500000X0.075000X0*%
%TD*%
%TA.AperFunction,HeatsinkPad*%
%ADD38O,2.100000X1.000000*%
%TD*%
%TA.AperFunction,HeatsinkPad*%
%ADD39O,1.800000X1.000000*%
%TD*%
%TA.AperFunction,SMDPad,CuDef*%
%ADD40RoundRect,0.150000X-0.150000X0.825000X-0.150000X-0.825000X0.150000X-0.825000X0.150000X0.825000X0*%
%TD*%
%TA.AperFunction,SMDPad,CuDef*%
%ADD41R,0.800000X0.400000*%
%TD*%
%TA.AperFunction,SMDPad,CuDef*%
%ADD42R,0.400000X0.800000*%
%TD*%
%TA.AperFunction,SMDPad,CuDef*%
%ADD43R,1.200000X1.200000*%
%TD*%
%TA.AperFunction,SMDPad,CuDef*%
%ADD44FreePoly2,0.000000*%
%TD*%
%TA.AperFunction,SMDPad,CuDef*%
%ADD45R,0.800000X0.800000*%
%TD*%
%TA.AperFunction,SMDPad,CuDef*%
%ADD46RoundRect,0.150000X0.150000X-0.512500X0.150000X0.512500X-0.150000X0.512500X-0.150000X-0.512500X0*%
%TD*%
%TA.AperFunction,SMDPad,CuDef*%
%ADD47RoundRect,0.250000X-0.650000X1.000000X-0.650000X-1.000000X0.650000X-1.000000X0.650000X1.000000X0*%
%TD*%
%TA.AperFunction,SMDPad,CuDef*%
%ADD48RoundRect,0.225000X0.225000X0.250000X-0.225000X0.250000X-0.225000X-0.250000X0.225000X-0.250000X0*%
%TD*%
%TA.AperFunction,SMDPad,CuDef*%
%ADD49RoundRect,0.375000X0.625000X0.375000X-0.625000X0.375000X-0.625000X-0.375000X0.625000X-0.375000X0*%
%TD*%
%TA.AperFunction,SMDPad,CuDef*%
%ADD50RoundRect,0.500000X0.500000X1.400000X-0.500000X1.400000X-0.500000X-1.400000X0.500000X-1.400000X0*%
%TD*%
%TA.AperFunction,ViaPad*%
%ADD51C,0.450000*%
%TD*%
%TA.AperFunction,Conductor*%
%ADD52C,0.300000*%
%TD*%
%TA.AperFunction,Conductor*%
%ADD53C,0.750000*%
%TD*%
%TA.AperFunction,Conductor*%
%ADD54C,0.500000*%
%TD*%
%TA.AperFunction,Conductor*%
%ADD55C,0.400000*%
%TD*%
%TA.AperFunction,Conductor*%
%ADD56C,0.250000*%
%TD*%
%TA.AperFunction,Conductor*%
%ADD57C,0.200000*%
%TD*%
%TA.AperFunction,Conductor*%
%ADD58C,0.150000*%
%TD*%
G04 APERTURE END LIST*
D10*
%TO.P,J5,6,Pin_6*%
%TO.N,+5V*%
X122100000Y-106615000D03*
%TO.P,J5,5,Pin_5*%
%TO.N,/VRy*%
X122100000Y-104075000D03*
%TO.P,J5,4,Pin_4*%
%TO.N,/VRx*%
X122100000Y-101535000D03*
%TO.P,J5,3,Pin_3*%
%TO.N,+5V*%
X122100000Y-98995000D03*
%TO.P,J5,2,Pin_2*%
%TO.N,/SW*%
X122100000Y-96455000D03*
D11*
%TO.P,J5,1,Pin_1*%
%TO.N,GND*%
X122100000Y-93915000D03*
%TD*%
D12*
%TO.P,R30,1*%
%TO.N,/VRy_ADC*%
X130700000Y-105425000D03*
%TO.P,R30,2*%
%TO.N,+3V3*%
X130700000Y-103775000D03*
%TD*%
D13*
%TO.P,R29,1*%
%TO.N,/VRy*%
X125700000Y-103775000D03*
%TO.P,R29,2*%
%TO.N,+5V*%
X125700000Y-105425000D03*
%TD*%
D14*
%TO.P,R28,1*%
%TO.N,/VRx_ADC*%
X130125000Y-98000000D03*
%TO.P,R28,2*%
%TO.N,+3V3*%
X128475000Y-98000000D03*
%TD*%
D12*
%TO.P,R27,1*%
%TO.N,/VRx*%
X125700000Y-101325000D03*
%TO.P,R27,2*%
%TO.N,+5V*%
X125700000Y-99675000D03*
%TD*%
D14*
%TO.P,R26,1*%
%TO.N,/SW_3V3*%
X129525000Y-92700000D03*
%TO.P,R26,2*%
%TO.N,+3V3*%
X127875000Y-92700000D03*
%TD*%
D13*
%TO.P,R25,1*%
%TO.N,/SW*%
X125700000Y-96475000D03*
%TO.P,R25,2*%
%TO.N,+5V*%
X125700000Y-98125000D03*
%TD*%
D15*
%TO.P,Q3,1,G*%
%TO.N,+3V3*%
X129150000Y-104062500D03*
%TO.P,Q3,2,S*%
%TO.N,/VRy*%
X127250000Y-104062500D03*
%TO.P,Q3,3,D*%
%TO.N,/VRy_ADC*%
X128200000Y-105937500D03*
%TD*%
D16*
%TO.P,Q2,1,G*%
%TO.N,+3V3*%
X127662500Y-99650000D03*
%TO.P,Q2,2,S*%
%TO.N,/VRx*%
X127662500Y-101550000D03*
%TO.P,Q2,3,D*%
%TO.N,/VRx_ADC*%
X129537500Y-100600000D03*
%TD*%
%TO.P,Q1,1,G*%
%TO.N,+3V3*%
X127562500Y-94450000D03*
%TO.P,Q1,2,S*%
%TO.N,/SW*%
X127562500Y-96350000D03*
%TO.P,Q1,3,D*%
%TO.N,/SW_3V3*%
X129437500Y-95400000D03*
%TD*%
D17*
%TO.P,R20,1*%
%TO.N,+5V*%
X173200000Y-118400000D03*
%TO.P,R20,2*%
%TO.N,/5V_LED*%
X174850000Y-118400000D03*
%TD*%
D14*
%TO.P,R13,1*%
%TO.N,/CC1*%
X163425000Y-120435000D03*
%TO.P,R13,2*%
%TO.N,GND*%
X161775000Y-120435000D03*
%TD*%
D18*
%TO.P,C5,1*%
%TO.N,+5V*%
X151700000Y-114400000D03*
%TO.P,C5,2*%
%TO.N,GND*%
X151700000Y-115950000D03*
%TD*%
%TO.P,C6,1*%
%TO.N,GND*%
X159500000Y-77600000D03*
%TO.P,C6,2*%
%TO.N,/EN*%
X159500000Y-79150000D03*
%TD*%
D17*
%TO.P,R23,1*%
%TO.N,/STATUS*%
X173200000Y-115300000D03*
%TO.P,R23,2*%
%TO.N,/STATUS_A*%
X174850000Y-115300000D03*
%TD*%
D19*
%TO.P,C20,1*%
%TO.N,/BTN_4*%
X129500000Y-81885000D03*
%TO.P,C20,2*%
%TO.N,GND*%
X129500000Y-80335000D03*
%TD*%
D18*
%TO.P,C12,1*%
%TO.N,+3V3*%
X159000000Y-114425000D03*
%TO.P,C12,2*%
%TO.N,GND*%
X159000000Y-115975000D03*
%TD*%
D20*
%TO.P,U4,1,IN*%
%TO.N,+5V*%
X154962500Y-114250000D03*
%TO.P,U4,2,GND*%
%TO.N,GND*%
X154962500Y-115200000D03*
%TO.P,U4,3,EN*%
%TO.N,+5V*%
X154962500Y-116150000D03*
%TO.P,U4,4,NC*%
%TO.N,unconnected-(U4-NC-Pad4)*%
X157237500Y-116150000D03*
%TO.P,U4,5,OUT*%
%TO.N,+3V3*%
X157237500Y-114250000D03*
%TD*%
D21*
%TO.P,J1,1,Pin_1*%
%TO.N,+VBAT*%
X144915000Y-126720000D03*
D22*
%TO.P,J1,2,Pin_2*%
X147455000Y-126720000D03*
%TO.P,J1,3,Pin_3*%
%TO.N,GND*%
X149995000Y-126720000D03*
%TO.P,J1,4,Pin_4*%
X152535000Y-126720000D03*
%TD*%
D23*
%TO.P,D4,1,K*%
%TO.N,GND*%
X177787500Y-115300000D03*
%TO.P,D4,2,A*%
%TO.N,/STATUS_A*%
X176212500Y-115300000D03*
%TD*%
D11*
%TO.P,J3,1,Pin_1*%
%TO.N,/PUL_B*%
X178000000Y-80100000D03*
D10*
%TO.P,J3,2,Pin_2*%
%TO.N,/PUL_B-*%
X178000000Y-82640000D03*
%TO.P,J3,3,Pin_3*%
%TO.N,/DIR_B*%
X178000000Y-85180000D03*
%TO.P,J3,4,Pin_4*%
%TO.N,/DIR_B-*%
X178000000Y-87720000D03*
%TO.P,J3,5,Pin_5*%
%TO.N,/EN_B*%
X178000000Y-90260000D03*
%TO.P,J3,6,Pin_6*%
%TO.N,/EN_B-*%
X178000000Y-92800000D03*
%TD*%
D24*
%TO.P,H3,MP,MP*%
%TO.N,GND*%
X122600000Y-125000000D03*
X123302944Y-123302944D03*
X123302944Y-126697056D03*
X125000000Y-122600000D03*
D25*
X125000000Y-125000000D03*
D24*
X125000000Y-127400000D03*
X126697056Y-123302944D03*
X126697056Y-126697056D03*
X127400000Y-125000000D03*
%TD*%
D19*
%TO.P,C23,1*%
%TO.N,/BTN_1*%
X132000000Y-81875000D03*
%TO.P,C23,2*%
%TO.N,GND*%
X132000000Y-80325000D03*
%TD*%
D17*
%TO.P,R10,1*%
%TO.N,/DIR_ENB_R*%
X160675000Y-87077500D03*
%TO.P,R10,2*%
%TO.N,/DIR_ENB*%
X162325000Y-87077500D03*
%TD*%
D19*
%TO.P,C1,1*%
%TO.N,+3V3*%
X141000000Y-79475000D03*
%TO.P,C1,2*%
%TO.N,GND*%
X141000000Y-77925000D03*
%TD*%
D18*
%TO.P,C10,1*%
%TO.N,+VBUS*%
X159600000Y-126050000D03*
%TO.P,C10,2*%
%TO.N,GND*%
X159600000Y-127600000D03*
%TD*%
D19*
%TO.P,C3,1*%
%TO.N,+3V3*%
X138000000Y-79475000D03*
%TO.P,C3,2*%
%TO.N,GND*%
X138000000Y-77925000D03*
%TD*%
D17*
%TO.P,R8,1*%
%TO.N,/EN_ENA_R*%
X160675000Y-93200000D03*
%TO.P,R8,2*%
%TO.N,/EN_ENA*%
X162325000Y-93200000D03*
%TD*%
D13*
%TO.P,R5,1*%
%TO.N,+3V3*%
X138300000Y-83875000D03*
%TO.P,R5,2*%
%TO.N,/DIS_SCL*%
X138300000Y-85525000D03*
%TD*%
D17*
%TO.P,R21,1*%
%TO.N,+3V3*%
X173200000Y-116800000D03*
%TO.P,R21,2*%
%TO.N,/3V3_LED*%
X174850000Y-116800000D03*
%TD*%
D26*
%TO.P,JP1,1,A*%
%TO.N,GND*%
X131600000Y-72550000D03*
D27*
%TO.P,JP1,2,B*%
%TO.N,/BOOT_SEL*%
X131600000Y-73850000D03*
%TD*%
D28*
%TO.P,C18,1*%
%TO.N,+3V3*%
X135350000Y-99320000D03*
%TO.P,C18,2*%
%TO.N,GND*%
X136900000Y-99320000D03*
%TD*%
D17*
%TO.P,R11,1*%
%TO.N,/EN_ENB_R*%
X160675000Y-88600000D03*
%TO.P,R11,2*%
%TO.N,/EN_ENB*%
X162325000Y-88600000D03*
%TD*%
D20*
%TO.P,U6,1,IN*%
%TO.N,+5V*%
X154962500Y-110850000D03*
%TO.P,U6,2,GND*%
%TO.N,GND*%
X154962500Y-111800000D03*
%TO.P,U6,3,EN*%
%TO.N,+5V*%
X154962500Y-112750000D03*
%TO.P,U6,4,NC*%
%TO.N,unconnected-(U6-NC-Pad4)*%
X157237500Y-112750000D03*
%TO.P,U6,5,OUT*%
%TO.N,+3V3*%
X157237500Y-110850000D03*
%TD*%
D29*
%TO.P,U8,1,SDO*%
%TO.N,GND*%
X151162500Y-100750000D03*
%TO.P,U8,2,ASDX*%
%TO.N,unconnected-(U8-ASDX-Pad2)*%
X151162500Y-100250000D03*
%TO.P,U8,3,ASCX*%
%TO.N,unconnected-(U8-ASCX-Pad3)*%
X151162500Y-99750000D03*
%TO.P,U8,4,INT1*%
%TO.N,/IMU2_INT1*%
X151162500Y-99250000D03*
D30*
%TO.P,U8,5,VDDIO*%
%TO.N,+3V3*%
X150500000Y-99087500D03*
%TO.P,U8,6,GNDIO*%
%TO.N,GND*%
X150000000Y-99087500D03*
%TO.P,U8,7,GND*%
X149500000Y-99087500D03*
D29*
%TO.P,U8,8,VDD*%
%TO.N,+3V3*%
X148837500Y-99250000D03*
%TO.P,U8,9,INT2*%
%TO.N,/IMU2_INT2*%
X148837500Y-99750000D03*
%TO.P,U8,10,OSCB*%
%TO.N,unconnected-(U8-OSCB-Pad10)*%
X148837500Y-100250000D03*
%TO.P,U8,11,OSDO*%
%TO.N,unconnected-(U8-OSDO-Pad11)*%
X148837500Y-100750000D03*
D30*
%TO.P,U8,12,CSB*%
%TO.N,+3V3*%
X149500000Y-100912500D03*
%TO.P,U8,13,SCX*%
%TO.N,/IMU2_SCL*%
X150000000Y-100912500D03*
%TO.P,U8,14,SDX*%
%TO.N,/IMU2_SDA*%
X150500000Y-100912500D03*
%TD*%
D18*
%TO.P,C22,1*%
%TO.N,/BTN_3*%
X131100000Y-88025000D03*
%TO.P,C22,2*%
%TO.N,GND*%
X131100000Y-89575000D03*
%TD*%
D31*
%TO.P,J6,A1,GND*%
%TO.N,GND*%
X131850000Y-122295000D03*
%TO.P,J6,A4,VBUS*%
%TO.N,unconnected-(J6-VBUS-PadA4)_2*%
X132650000Y-122295000D03*
D32*
%TO.P,J6,A5,CC1*%
%TO.N,/IMU2_INT1*%
X133800000Y-122370000D03*
%TO.P,J6,A6,D+*%
%TO.N,/IMU2_SDA*%
X134800000Y-122370000D03*
%TO.P,J6,A7,D-*%
%TO.N,/IMU2_SCL*%
X135300000Y-122370000D03*
%TO.P,J6,A8,SBU1*%
%TO.N,/IMU2_INT2*%
X136300000Y-122370000D03*
D31*
%TO.P,J6,A9,VBUS*%
%TO.N,unconnected-(J6-VBUS-PadA4)_1*%
X137450000Y-122295000D03*
%TO.P,J6,A12,GND*%
%TO.N,GND*%
X138250000Y-122295000D03*
%TO.P,J6,B1,GND*%
X138250000Y-122295000D03*
%TO.P,J6,B4,VBUS*%
%TO.N,unconnected-(J6-VBUS-PadA4)*%
X137450000Y-122295000D03*
D32*
%TO.P,J6,B5,CC2*%
%TO.N,/IMU2_INT1*%
X136800000Y-122370000D03*
%TO.P,J6,B6,D+*%
%TO.N,/IMU2_SDA*%
X135800000Y-122370000D03*
%TO.P,J6,B7,D-*%
%TO.N,/IMU2_SCL*%
X134300000Y-122370000D03*
%TO.P,J6,B8,SBU2*%
%TO.N,/IMU2_INT2*%
X133300000Y-122370000D03*
D31*
%TO.P,J6,B9,VBUS*%
%TO.N,unconnected-(J6-VBUS-PadA4)_3*%
X132650000Y-122295000D03*
%TO.P,J6,B12,GND*%
%TO.N,GND*%
X131850000Y-122295000D03*
D33*
%TO.P,J6,S1,SHIELD*%
X130730000Y-122945000D03*
D34*
X130730000Y-127125000D03*
D33*
X139370000Y-122945000D03*
D34*
X139370000Y-127125000D03*
%TD*%
D17*
%TO.P,R7,1*%
%TO.N,/DIR_ENA_R*%
X160675000Y-91700000D03*
%TO.P,R7,2*%
%TO.N,/DIR_ENA*%
X162325000Y-91700000D03*
%TD*%
D24*
%TO.P,H2,MP,MP*%
%TO.N,GND*%
X172600000Y-75000000D03*
X173302944Y-73302944D03*
X173302944Y-76697056D03*
X175000000Y-72600000D03*
D25*
X175000000Y-75000000D03*
D24*
X175000000Y-77400000D03*
X176697056Y-73302944D03*
X176697056Y-76697056D03*
X177400000Y-75000000D03*
%TD*%
D18*
%TO.P,C19,1*%
%TO.N,+3V3*%
X129500000Y-88050000D03*
%TO.P,C19,2*%
%TO.N,GND*%
X129500000Y-89600000D03*
%TD*%
D35*
%TO.P,U3,1*%
%TO.N,/PUL_ENB*%
X166250000Y-85555000D03*
%TO.P,U3,2*%
%TO.N,GND*%
X166250000Y-86825000D03*
%TO.P,U3,3*%
%TO.N,/DIR_ENB*%
X166250000Y-88095000D03*
%TO.P,U3,4*%
%TO.N,GND*%
X166250000Y-89365000D03*
%TO.P,U3,5*%
%TO.N,/EN_ENB*%
X166250000Y-90635000D03*
%TO.P,U3,6*%
%TO.N,GND*%
X166250000Y-91905000D03*
%TO.P,U3,7*%
%TO.N,unconnected-(U3-Pad7)*%
X166250000Y-93175000D03*
%TO.P,U3,8*%
%TO.N,unconnected-(U3-Pad8)*%
X166250000Y-94445000D03*
%TO.P,U3,9*%
%TO.N,unconnected-(U3-Pad9)*%
X172750000Y-94445000D03*
%TO.P,U3,10*%
%TO.N,unconnected-(U3-Pad10)*%
X172750000Y-93175000D03*
%TO.P,U3,11*%
%TO.N,GND*%
X172750000Y-91905000D03*
%TO.P,U3,12*%
%TO.N,/EN_B-*%
X172750000Y-90635000D03*
%TO.P,U3,13*%
%TO.N,GND*%
X172750000Y-89365000D03*
%TO.P,U3,14*%
%TO.N,/DIR_B-*%
X172750000Y-88095000D03*
%TO.P,U3,15*%
%TO.N,GND*%
X172750000Y-86825000D03*
%TO.P,U3,16*%
%TO.N,/PUL_B-*%
X172750000Y-85555000D03*
%TD*%
D17*
%TO.P,R9,1*%
%TO.N,/PUL_ENB_R*%
X160675000Y-85555000D03*
%TO.P,R9,2*%
%TO.N,/PUL_ENB*%
X162325000Y-85555000D03*
%TD*%
D28*
%TO.P,C15,1*%
%TO.N,+5V*%
X124625000Y-107100000D03*
%TO.P,C15,2*%
%TO.N,GND*%
X126175000Y-107100000D03*
%TD*%
D36*
%TO.P,J7,A1,GND*%
%TO.N,GND*%
X127655000Y-111600000D03*
%TO.P,J7,A4,VBUS*%
%TO.N,+3V3*%
X127655000Y-112400000D03*
D37*
%TO.P,J7,A5,CC1*%
%TO.N,unconnected-(J7-CC1-PadA5)*%
X127580000Y-113550000D03*
%TO.P,J7,A6,D+*%
%TO.N,/CAND_P*%
X127580000Y-114550000D03*
%TO.P,J7,A7,D-*%
%TO.N,/CAND_N*%
X127580000Y-115050000D03*
%TO.P,J7,A8,SBU1*%
%TO.N,unconnected-(J7-SBU1-PadA8)*%
X127580000Y-116050000D03*
D36*
%TO.P,J7,A9,VBUS*%
%TO.N,+3V3*%
X127655000Y-117200000D03*
%TO.P,J7,A12,GND*%
%TO.N,GND*%
X127655000Y-118000000D03*
%TO.P,J7,B1,GND*%
X127655000Y-118000000D03*
%TO.P,J7,B4,VBUS*%
%TO.N,+3V3*%
X127655000Y-117200000D03*
D37*
%TO.P,J7,B5,CC2*%
%TO.N,unconnected-(J7-CC2-PadB5)*%
X127580000Y-116550000D03*
%TO.P,J7,B6,D+*%
%TO.N,/CAND_P*%
X127580000Y-115550000D03*
%TO.P,J7,B7,D-*%
%TO.N,/CAND_N*%
X127580000Y-114050000D03*
%TO.P,J7,B8,SBU2*%
%TO.N,unconnected-(J7-SBU2-PadB8)*%
X127580000Y-113050000D03*
D36*
%TO.P,J7,B9,VBUS*%
%TO.N,+3V3*%
X127655000Y-112400000D03*
%TO.P,J7,B12,GND*%
%TO.N,GND*%
X127655000Y-111600000D03*
D38*
%TO.P,J7,S1,SHIELD*%
X127005000Y-110480000D03*
D39*
X122825000Y-110480000D03*
D38*
X127005000Y-119120000D03*
D39*
X122825000Y-119120000D03*
%TD*%
D23*
%TO.P,D5,1,K*%
%TO.N,GND*%
X177787500Y-113800000D03*
%TO.P,D5,2,A*%
%TO.N,/LOW_BAT_C*%
X176212500Y-113800000D03*
%TD*%
D17*
%TO.P,R24,1*%
%TO.N,/LOW_BAT*%
X173200000Y-113800000D03*
%TO.P,R24,2*%
%TO.N,/LOW_BAT_C*%
X174850000Y-113800000D03*
%TD*%
D23*
%TO.P,D2,1,K*%
%TO.N,GND*%
X177787500Y-118400000D03*
%TO.P,D2,2,A*%
%TO.N,/5V_LED*%
X176212500Y-118400000D03*
%TD*%
D40*
%TO.P,U9,1,D*%
%TO.N,/CAN_TX*%
X138080000Y-101425000D03*
%TO.P,U9,2,GND*%
%TO.N,GND*%
X136810000Y-101425000D03*
%TO.P,U9,3,VCC*%
%TO.N,+3V3*%
X135540000Y-101425000D03*
%TO.P,U9,4,R*%
%TO.N,/CAN_RX*%
X134270000Y-101425000D03*
%TO.P,U9,5,NC*%
%TO.N,unconnected-(U9-NC-Pad5)*%
X134270000Y-106375000D03*
%TO.P,U9,6,CANL*%
%TO.N,/CAND_N*%
X135540000Y-106375000D03*
%TO.P,U9,7,CANH*%
%TO.N,/CAND_P*%
X136810000Y-106375000D03*
%TO.P,U9,8,NC*%
%TO.N,unconnected-(U9-NC-Pad8)*%
X138080000Y-106375000D03*
%TD*%
D19*
%TO.P,C13,1*%
%TO.N,+3V3*%
X147500000Y-98775000D03*
%TO.P,C13,2*%
%TO.N,GND*%
X147500000Y-97225000D03*
%TD*%
D36*
%TO.P,J8,A1,GND*%
%TO.N,GND*%
X127555000Y-81800000D03*
%TO.P,J8,A4,VBUS*%
%TO.N,+3V3*%
X127555000Y-82600000D03*
D37*
%TO.P,J8,A5,CC1*%
%TO.N,/BTN_1*%
X127480000Y-83750000D03*
%TO.P,J8,A6,D+*%
%TO.N,/DIS_SDA*%
X127480000Y-84750000D03*
%TO.P,J8,A7,D-*%
%TO.N,/DIS_SCL*%
X127480000Y-85250000D03*
%TO.P,J8,A8,SBU1*%
%TO.N,/BTN_2*%
X127480000Y-86250000D03*
D36*
%TO.P,J8,A9,VBUS*%
%TO.N,+3V3*%
X127555000Y-87400000D03*
%TO.P,J8,A12,GND*%
%TO.N,GND*%
X127555000Y-88200000D03*
%TO.P,J8,B1,GND*%
X127555000Y-88200000D03*
%TO.P,J8,B4,VBUS*%
%TO.N,+3V3*%
X127555000Y-87400000D03*
D37*
%TO.P,J8,B5,CC2*%
%TO.N,/BTN_3*%
X127480000Y-86750000D03*
%TO.P,J8,B6,D+*%
%TO.N,/DIS_SDA*%
X127480000Y-85750000D03*
%TO.P,J8,B7,D-*%
%TO.N,/DIS_SCL*%
X127480000Y-84250000D03*
%TO.P,J8,B8,SBU2*%
%TO.N,/BTN_4*%
X127480000Y-83250000D03*
D36*
%TO.P,J8,B9,VBUS*%
%TO.N,+3V3*%
X127555000Y-82600000D03*
%TO.P,J8,B12,GND*%
%TO.N,GND*%
X127555000Y-81800000D03*
D38*
%TO.P,J8,S1,SHIELD*%
X126905000Y-80680000D03*
D39*
X122725000Y-80680000D03*
D38*
X126905000Y-89320000D03*
D39*
X122725000Y-89320000D03*
%TD*%
D24*
%TO.P,H4,MP,MP*%
%TO.N,GND*%
X172600000Y-125000000D03*
X173302944Y-123302944D03*
X173302944Y-126697056D03*
X175000000Y-122600000D03*
D25*
X175000000Y-125000000D03*
D24*
X175000000Y-127400000D03*
X176697056Y-123302944D03*
X176697056Y-126697056D03*
X177400000Y-125000000D03*
%TD*%
D17*
%TO.P,R22,1*%
%TO.N,/CAND_N*%
X135325000Y-109320000D03*
%TO.P,R22,2*%
%TO.N,/CAND_P*%
X136975000Y-109320000D03*
%TD*%
D41*
%TO.P,U5,1,GND*%
%TO.N,GND*%
X143000000Y-79050000D03*
%TO.P,U5,2,GND__1*%
X143000000Y-79900000D03*
%TO.P,U5,3,3V3*%
%TO.N,+3V3*%
X143000000Y-80750000D03*
%TO.P,U5,4,IO0*%
%TO.N,/BOOT_SEL*%
X143000000Y-81600000D03*
%TO.P,U5,5,IO1*%
%TO.N,unconnected-(U5-IO1-Pad5)*%
X143000000Y-82450000D03*
%TO.P,U5,6,IO2*%
%TO.N,unconnected-(U5-IO2-Pad6)*%
X143000000Y-83300000D03*
%TO.P,U5,7,IO3*%
%TO.N,unconnected-(U5-IO3-Pad7)*%
X143000000Y-84150000D03*
%TO.P,U5,8,IO4*%
%TO.N,/BTN_4*%
X143000000Y-85000000D03*
%TO.P,U5,9,IO5*%
%TO.N,/BTN_1*%
X143000000Y-85850000D03*
%TO.P,U5,10,IO6*%
%TO.N,/DIS_SCL*%
X143000000Y-86700000D03*
%TO.P,U5,11,IO7*%
%TO.N,/DIS_SDA*%
X143000000Y-87550000D03*
%TO.P,U5,12,IO8*%
%TO.N,/BTN_2*%
X143000000Y-88400000D03*
%TO.P,U5,13,IO9*%
%TO.N,/BTN_3*%
X143000000Y-89250000D03*
%TO.P,U5,14,IO10*%
%TO.N,/CAN_RX*%
X143000000Y-90100000D03*
%TO.P,U5,15,IO11*%
%TO.N,/CAN_TX*%
X143000000Y-90950000D03*
D42*
%TO.P,U5,16,IO12*%
%TO.N,unconnected-(U5-IO12-Pad16)*%
X144050000Y-92000000D03*
%TO.P,U5,17,IO13*%
%TO.N,unconnected-(U5-IO13-Pad17)*%
X144900000Y-92000000D03*
%TO.P,U5,18,IO14*%
%TO.N,/SW_3V3*%
X145750000Y-92000000D03*
%TO.P,U5,19,IO15*%
%TO.N,/VRx_ADC*%
X146600000Y-92000000D03*
%TO.P,U5,20,IO16*%
%TO.N,/VRy_ADC*%
X147450000Y-92000000D03*
%TO.P,U5,21,IO17*%
%TO.N,unconnected-(U5-IO17-Pad21)*%
X148300000Y-92000000D03*
%TO.P,U5,22,IO18*%
%TO.N,/BAT_SENSE*%
X149150000Y-92000000D03*
%TO.P,U5,23,IO19*%
%TO.N,/USB_D_N*%
X150000000Y-92000000D03*
%TO.P,U5,24,IO20*%
%TO.N,/USB_D_P*%
X150850000Y-92000000D03*
%TO.P,U5,25,IO21*%
%TO.N,unconnected-(U5-IO21-Pad25)*%
X151700000Y-92000000D03*
%TO.P,U5,26,IO26*%
%TO.N,/STATUS*%
X152550000Y-92000000D03*
%TO.P,U5,27,IO47*%
%TO.N,unconnected-(U5-IO47-Pad27)*%
X153400000Y-92000000D03*
%TO.P,U5,28,IO33*%
%TO.N,/LOW_BAT*%
X154250000Y-92000000D03*
%TO.P,U5,29,IO34*%
%TO.N,unconnected-(U5-IO34-Pad29)*%
X155100000Y-92000000D03*
%TO.P,U5,30,IO48*%
%TO.N,unconnected-(U5-IO48-Pad30)*%
X155950000Y-92000000D03*
D41*
%TO.P,U5,31,IO35*%
%TO.N,/EN_ENA_R*%
X157000000Y-90950000D03*
%TO.P,U5,32,IO36*%
%TO.N,/DIR_ENA_R*%
X157000000Y-90100000D03*
%TO.P,U5,33,IO37*%
%TO.N,/PUL_ENA_R*%
X157000000Y-89250000D03*
%TO.P,U5,34,IO38*%
%TO.N,/EN_ENB_R*%
X157000000Y-88400000D03*
%TO.P,U5,35,IO39*%
%TO.N,/DIR_ENB_R*%
X157000000Y-87550000D03*
%TO.P,U5,36,IO40*%
%TO.N,/PUL_ENB_R*%
X157000000Y-86700000D03*
%TO.P,U5,37,IO41*%
%TO.N,unconnected-(U5-IO41-Pad37)*%
X157000000Y-85850000D03*
%TO.P,U5,38,IO42*%
%TO.N,unconnected-(U5-IO42-Pad38)*%
X157000000Y-85000000D03*
%TO.P,U5,39,TXD0*%
%TO.N,unconnected-(U5-TXD0-Pad39)*%
X157000000Y-84150000D03*
%TO.P,U5,40,RXD0*%
%TO.N,unconnected-(U5-RXD0-Pad40)*%
X157000000Y-83300000D03*
%TO.P,U5,41,IO45*%
%TO.N,unconnected-(U5-IO45-Pad41)*%
X157000000Y-82450000D03*
%TO.P,U5,42,GND__2*%
%TO.N,GND*%
X157000000Y-81600000D03*
%TO.P,U5,43,GND__3*%
X157000000Y-80750000D03*
%TO.P,U5,44,IO46*%
%TO.N,unconnected-(U5-IO46-Pad44)*%
X157000000Y-79900000D03*
%TO.P,U5,45,EN*%
%TO.N,/EN*%
X157000000Y-79050000D03*
D42*
%TO.P,U5,46,GND__4*%
%TO.N,GND*%
X155950000Y-78000000D03*
%TO.P,U5,47,GND__5*%
X155100000Y-78000000D03*
%TO.P,U5,48,GND__6*%
X154250000Y-78000000D03*
%TO.P,U5,49,GND__7*%
X153400000Y-78000000D03*
%TO.P,U5,50,GND__8*%
X152550000Y-78000000D03*
%TO.P,U5,51,GND__9*%
X151700000Y-78000000D03*
%TO.P,U5,52,GND__10*%
X150850000Y-78000000D03*
%TO.P,U5,53,GND__11*%
X150000000Y-78000000D03*
%TO.P,U5,54,GND__12*%
X149150000Y-78000000D03*
%TO.P,U5,55,GND__13*%
X148300000Y-78000000D03*
%TO.P,U5,56,GND__14*%
X147450000Y-78000000D03*
%TO.P,U5,57,GND__15*%
X146600000Y-78000000D03*
%TO.P,U5,58,GND__16*%
X145750000Y-78000000D03*
%TO.P,U5,59,GND__17*%
X144900000Y-78000000D03*
%TO.P,U5,60,GND__18*%
X144050000Y-78000000D03*
D43*
%TO.P,U5,61,GND__19*%
X150000000Y-85000000D03*
D44*
%TO.P,U5,61_1,GND__20*%
X148350000Y-83350000D03*
D43*
%TO.P,U5,61_2,GND__21*%
X150000000Y-83350000D03*
%TO.P,U5,61_3,GND__22*%
X151650000Y-83350000D03*
%TO.P,U5,61_4,GND__23*%
X151650000Y-85000000D03*
%TO.P,U5,61_5,GND__24*%
X151650000Y-86650000D03*
%TO.P,U5,61_6,GND__25*%
X150000000Y-86650000D03*
%TO.P,U5,61_7,GND__26*%
X148350000Y-86650000D03*
%TO.P,U5,61_8,GND__27*%
X148350000Y-85000000D03*
D45*
%TO.P,U5,62,GND__28*%
X143000000Y-78000000D03*
%TO.P,U5,63,GND__29*%
X143000000Y-92000000D03*
%TO.P,U5,64,GND__30*%
X157000000Y-92000000D03*
%TO.P,U5,65,GND__31*%
X157000000Y-78000000D03*
%TD*%
D46*
%TO.P,U7,1,I/O1*%
%TO.N,/USBD_N*%
X164550000Y-117772500D03*
%TO.P,U7,2,GND*%
%TO.N,GND*%
X165500000Y-117772500D03*
%TO.P,U7,3,I/O2*%
%TO.N,/USBD_P*%
X166450000Y-117772500D03*
%TO.P,U7,4,I/O2*%
%TO.N,/USB_D_P*%
X166450000Y-115497500D03*
%TO.P,U7,5,VBUS*%
%TO.N,+VBUS*%
X165500000Y-115497500D03*
%TO.P,U7,6,I/O1*%
%TO.N,/USB_D_N*%
X164550000Y-115497500D03*
%TD*%
D19*
%TO.P,C7,1*%
%TO.N,+5V*%
X153200000Y-110875000D03*
%TO.P,C7,2*%
%TO.N,GND*%
X153200000Y-109325000D03*
%TD*%
D17*
%TO.P,R12,1*%
%TO.N,/CC2*%
X169575000Y-120435000D03*
%TO.P,R12,2*%
%TO.N,GND*%
X171225000Y-120435000D03*
%TD*%
D12*
%TO.P,R4,1*%
%TO.N,+3V3*%
X138300000Y-88525000D03*
%TO.P,R4,2*%
%TO.N,/DIS_SDA*%
X138300000Y-86875000D03*
%TD*%
D47*
%TO.P,D1,1,K*%
%TO.N,+5V*%
X156900000Y-121225000D03*
%TO.P,D1,2,A*%
%TO.N,+VBUS*%
X156900000Y-125225000D03*
%TD*%
D17*
%TO.P,R6,1*%
%TO.N,/PUL_ENA_R*%
X160675000Y-90200000D03*
%TO.P,R6,2*%
%TO.N,/PUL_ENA*%
X162325000Y-90200000D03*
%TD*%
D18*
%TO.P,C21,1*%
%TO.N,/BTN_2*%
X133200000Y-88025000D03*
%TO.P,C21,2*%
%TO.N,GND*%
X133200000Y-89575000D03*
%TD*%
D35*
%TO.P,U2,1*%
%TO.N,/PUL_ENA*%
X166250000Y-97055000D03*
%TO.P,U2,2*%
%TO.N,GND*%
X166250000Y-98325000D03*
%TO.P,U2,3*%
%TO.N,/DIR_ENA*%
X166250000Y-99595000D03*
%TO.P,U2,4*%
%TO.N,GND*%
X166250000Y-100865000D03*
%TO.P,U2,5*%
%TO.N,/EN_ENA*%
X166250000Y-102135000D03*
%TO.P,U2,6*%
%TO.N,GND*%
X166250000Y-103405000D03*
%TO.P,U2,7*%
%TO.N,unconnected-(U2-Pad7)*%
X166250000Y-104675000D03*
%TO.P,U2,8*%
%TO.N,unconnected-(U2-Pad8)*%
X166250000Y-105945000D03*
%TO.P,U2,9*%
%TO.N,unconnected-(U2-Pad9)*%
X172750000Y-105945000D03*
%TO.P,U2,10*%
%TO.N,unconnected-(U2-Pad10)*%
X172750000Y-104675000D03*
%TO.P,U2,11*%
%TO.N,GND*%
X172750000Y-103405000D03*
%TO.P,U2,12*%
%TO.N,/EN_A-*%
X172750000Y-102135000D03*
%TO.P,U2,13*%
%TO.N,GND*%
X172750000Y-100865000D03*
%TO.P,U2,14*%
%TO.N,/DIR_A-*%
X172750000Y-99595000D03*
%TO.P,U2,15*%
%TO.N,GND*%
X172750000Y-98325000D03*
%TO.P,U2,16*%
%TO.N,/PUL_A-*%
X172750000Y-97055000D03*
%TD*%
D11*
%TO.P,J2,1,Pin_1*%
%TO.N,/PUL_A*%
X178000000Y-96345000D03*
D10*
%TO.P,J2,2,Pin_2*%
%TO.N,/PUL_A-*%
X178000000Y-98885000D03*
%TO.P,J2,3,Pin_3*%
%TO.N,/DIR_A*%
X178000000Y-101425000D03*
%TO.P,J2,4,Pin_4*%
%TO.N,/DIR_A-*%
X178000000Y-103965000D03*
%TO.P,J2,5,Pin_5*%
%TO.N,/EN_A*%
X178000000Y-106505000D03*
%TO.P,J2,6,Pin_6*%
%TO.N,/EN_A-*%
X178000000Y-109045000D03*
%TD*%
D24*
%TO.P,H1,MP,MP*%
%TO.N,GND*%
X122600000Y-75000000D03*
X123302944Y-73302944D03*
X123302944Y-76697056D03*
X125000000Y-72600000D03*
D25*
X125000000Y-75000000D03*
D24*
X125000000Y-77400000D03*
X126697056Y-73302944D03*
X126697056Y-76697056D03*
X127400000Y-75000000D03*
%TD*%
D12*
%TO.P,R2,1*%
%TO.N,/BAT_SENSE*%
X142300000Y-123325000D03*
%TO.P,R2,2*%
%TO.N,GND*%
X142300000Y-121675000D03*
%TD*%
D23*
%TO.P,D3,1,K*%
%TO.N,GND*%
X177787500Y-116800000D03*
%TO.P,D3,2,A*%
%TO.N,/3V3_LED*%
X176212500Y-116800000D03*
%TD*%
D14*
%TO.P,R3,1*%
%TO.N,+3V3*%
X162825000Y-79150000D03*
%TO.P,R3,2*%
%TO.N,/EN*%
X161175000Y-79150000D03*
%TD*%
D18*
%TO.P,C11,1*%
%TO.N,+5V*%
X153300000Y-114425000D03*
%TO.P,C11,2*%
%TO.N,GND*%
X153300000Y-115975000D03*
%TD*%
D19*
%TO.P,C8,1*%
%TO.N,+3V3*%
X159000000Y-110675000D03*
%TO.P,C8,2*%
%TO.N,GND*%
X159000000Y-109125000D03*
%TD*%
D18*
%TO.P,C16,1*%
%TO.N,+3V3*%
X129480000Y-117875000D03*
%TO.P,C16,2*%
%TO.N,GND*%
X129480000Y-119425000D03*
%TD*%
D19*
%TO.P,C9,1*%
%TO.N,+VBUS*%
X159600000Y-124600000D03*
%TO.P,C9,2*%
%TO.N,GND*%
X159600000Y-123050000D03*
%TD*%
D31*
%TO.P,J4,A1,GND*%
%TO.N,GND*%
X162800000Y-122260000D03*
%TO.P,J4,A4,VBUS*%
%TO.N,+VBUS*%
X163600000Y-122260000D03*
D32*
%TO.P,J4,A5,CC1*%
%TO.N,/CC1*%
X164750000Y-122335000D03*
%TO.P,J4,A6,D+*%
%TO.N,/USBD_P*%
X165750000Y-122335000D03*
%TO.P,J4,A7,D-*%
%TO.N,/USBD_N*%
X166250000Y-122335000D03*
%TO.P,J4,A8,SBU1*%
%TO.N,unconnected-(J4-SBU1-PadA8)*%
X167250000Y-122335000D03*
D31*
%TO.P,J4,A9,VBUS*%
%TO.N,+VBUS*%
X168400000Y-122260000D03*
%TO.P,J4,A12,GND*%
%TO.N,GND*%
X169200000Y-122260000D03*
%TO.P,J4,B1,GND*%
X169200000Y-122260000D03*
%TO.P,J4,B4,VBUS*%
%TO.N,+VBUS*%
X168400000Y-122260000D03*
D32*
%TO.P,J4,B5,CC2*%
%TO.N,/CC2*%
X167750000Y-122335000D03*
%TO.P,J4,B6,D+*%
%TO.N,/USBD_P*%
X166750000Y-122335000D03*
%TO.P,J4,B7,D-*%
%TO.N,/USBD_N*%
X165250000Y-122335000D03*
%TO.P,J4,B8,SBU2*%
%TO.N,unconnected-(J4-SBU2-PadB8)*%
X164250000Y-122335000D03*
D31*
%TO.P,J4,B9,VBUS*%
%TO.N,+VBUS*%
X163600000Y-122260000D03*
%TO.P,J4,B12,GND*%
%TO.N,GND*%
X162800000Y-122260000D03*
D33*
%TO.P,J4,S1,SHIELD*%
X161680000Y-122910000D03*
D34*
X161680000Y-127090000D03*
D33*
X170320000Y-122910000D03*
D34*
X170320000Y-127090000D03*
%TD*%
D19*
%TO.P,C4,1*%
%TO.N,+VBAT*%
X151700000Y-119000000D03*
%TO.P,C4,2*%
%TO.N,GND*%
X151700000Y-117450000D03*
%TD*%
D12*
%TO.P,R1,1*%
%TO.N,+VBAT*%
X142300000Y-126425000D03*
%TO.P,R1,2*%
%TO.N,/BAT_SENSE*%
X142300000Y-124775000D03*
%TD*%
D48*
%TO.P,C14,1*%
%TO.N,+3V3*%
X150575000Y-97200000D03*
%TO.P,C14,2*%
%TO.N,GND*%
X149025000Y-97200000D03*
%TD*%
D19*
%TO.P,C17,1*%
%TO.N,+3V3*%
X129480000Y-111825000D03*
%TO.P,C17,2*%
%TO.N,GND*%
X129480000Y-110275000D03*
%TD*%
%TO.P,C2,1*%
%TO.N,+3V3*%
X139500000Y-79475000D03*
%TO.P,C2,2*%
%TO.N,GND*%
X139500000Y-77925000D03*
%TD*%
D49*
%TO.P,U1,1,VI*%
%TO.N,+VBAT*%
X149450000Y-119000000D03*
%TO.P,U1,2,GND*%
%TO.N,GND*%
X149450000Y-116700000D03*
D50*
X143150000Y-116700000D03*
D49*
%TO.P,U1,3,VO*%
%TO.N,+5V*%
X149450000Y-114400000D03*
%TD*%
D51*
%TO.N,GND*%
X133450000Y-95000000D03*
X133400000Y-97600000D03*
X133350000Y-99950000D03*
X125600000Y-91050000D03*
X127500000Y-90900000D03*
X131150000Y-91750000D03*
X131200000Y-93150000D03*
X131200000Y-94500000D03*
X124650000Y-92600000D03*
X124650000Y-93850000D03*
X124650000Y-94850000D03*
X130700000Y-108250000D03*
X129600000Y-106750000D03*
X131100000Y-106750000D03*
%TO.N,+3V3*%
X126800000Y-92800000D03*
X127500000Y-97800000D03*
X130100000Y-102700000D03*
X160400000Y-114650000D03*
X132500000Y-109950000D03*
X126000000Y-83100000D03*
X125450000Y-84466667D03*
X159000000Y-111900000D03*
X125450000Y-83650000D03*
X161100000Y-109850000D03*
X161100000Y-111900000D03*
X159000000Y-112600000D03*
X151750000Y-97300000D03*
X125450000Y-86100000D03*
X160400000Y-111900000D03*
X160400000Y-113950000D03*
X159700000Y-111900000D03*
X139500000Y-80450000D03*
X150600000Y-96100000D03*
X161100000Y-111200000D03*
X132500000Y-109412500D03*
X132500000Y-108875000D03*
X160400000Y-113250000D03*
X151750000Y-98100000D03*
X160400000Y-111200000D03*
X160400000Y-109150000D03*
X137950000Y-80450000D03*
X161100000Y-109150000D03*
X171200000Y-116400000D03*
X161100000Y-113250000D03*
X132500000Y-108337500D03*
X161100000Y-113950000D03*
X146150000Y-99750000D03*
X163800000Y-79150000D03*
X159700000Y-112600000D03*
X146850000Y-99750000D03*
X137200000Y-83850000D03*
X141000000Y-80450000D03*
X125450000Y-85283333D03*
X146150000Y-99050000D03*
X135350000Y-97650000D03*
X148500000Y-101800000D03*
X126000000Y-86800000D03*
X137150000Y-88550000D03*
X161100000Y-110550000D03*
X136900000Y-79500000D03*
X161100000Y-112600000D03*
X161100000Y-114650000D03*
X135350000Y-98250000D03*
X132500000Y-107800000D03*
X159700000Y-113300000D03*
X160400000Y-110550000D03*
X160400000Y-109850000D03*
X160400000Y-112600000D03*
X159000000Y-113300000D03*
%TO.N,GND*%
X147010000Y-91000000D03*
X161975000Y-82000000D03*
X178700000Y-116100000D03*
X171400000Y-98300000D03*
X170500000Y-78690000D03*
X170500000Y-79880000D03*
X155900000Y-82015000D03*
X154500000Y-107500000D03*
X171400000Y-91900000D03*
X169000000Y-82285000D03*
X169500000Y-103460000D03*
X170500000Y-81070000D03*
X133100000Y-80600000D03*
X141800000Y-72585000D03*
X152700000Y-117000000D03*
X141800000Y-71990000D03*
X169000000Y-75595000D03*
X170500000Y-78095000D03*
X159600000Y-128600000D03*
X148512499Y-96050000D03*
X166250000Y-116625000D03*
X178700000Y-114566667D03*
X158200000Y-73675000D03*
X134200000Y-90000000D03*
X169000000Y-79905000D03*
X167500000Y-75000000D03*
X145225000Y-91000000D03*
X140900000Y-95400000D03*
X130100000Y-120400000D03*
X167500000Y-86700000D03*
X144000000Y-85645000D03*
X148350000Y-85000000D03*
X169500000Y-102270000D03*
X156500000Y-100500000D03*
X151650000Y-85000000D03*
X129100000Y-79300000D03*
X124000000Y-84980000D03*
X141800000Y-73180000D03*
X144000000Y-80290000D03*
X136865000Y-125900000D03*
X148350000Y-82200000D03*
X151770000Y-91000000D03*
X137460000Y-125900000D03*
X158200000Y-72485000D03*
X171400000Y-86800000D03*
X146380000Y-79100000D03*
X144000000Y-89215000D03*
X143100000Y-95400000D03*
X169500000Y-99295000D03*
X143325000Y-122300000D03*
X155900000Y-83800000D03*
X123300000Y-117260000D03*
X169000000Y-72025000D03*
X165980000Y-127000000D03*
X158200000Y-73080000D03*
X141800000Y-73775000D03*
X123500000Y-91600000D03*
X155900000Y-90345000D03*
X156500000Y-107500000D03*
X160000000Y-119400000D03*
X170500000Y-81665000D03*
X153555000Y-91000000D03*
X141800000Y-95400000D03*
X155500000Y-107500000D03*
X123300000Y-113095000D03*
X158600000Y-123000000D03*
X144000000Y-91000000D03*
X170500000Y-76165000D03*
X131000000Y-125000000D03*
X143100000Y-94300000D03*
X161800000Y-100000000D03*
X170500000Y-73190000D03*
X141750000Y-93250000D03*
X144000000Y-86835000D03*
X178700000Y-116866667D03*
X149390000Y-91000000D03*
X148165000Y-79100000D03*
X162570000Y-82000000D03*
X159595000Y-82000000D03*
X169000000Y-78715000D03*
X131600000Y-71300000D03*
X150545000Y-79100000D03*
X167500000Y-73215000D03*
X155500000Y-103500000D03*
X169500000Y-87595000D03*
X161800000Y-97800000D03*
X155900000Y-79100000D03*
X169500000Y-100485000D03*
X155900000Y-86180000D03*
X159700000Y-122100000D03*
X167500000Y-91900000D03*
X124000000Y-83195000D03*
X170500000Y-74975000D03*
X169500000Y-107500000D03*
X166575000Y-127000000D03*
X162500000Y-102750000D03*
X170500000Y-80475000D03*
X155500000Y-105500000D03*
X164195000Y-127000000D03*
X151650000Y-83350000D03*
X169000000Y-72620000D03*
X124000000Y-84385000D03*
X144000000Y-87430000D03*
X124000000Y-85575000D03*
X139600000Y-95400000D03*
X156700000Y-111700000D03*
X144000000Y-85050000D03*
X163600000Y-127000000D03*
X155900000Y-87965000D03*
X167500000Y-73810000D03*
X150000000Y-83350000D03*
X144000000Y-82075000D03*
X135675000Y-125900000D03*
X155340000Y-91000000D03*
X147200000Y-116200000D03*
X153520000Y-79100000D03*
X154710000Y-79100000D03*
X164750000Y-116650000D03*
X130100000Y-90600000D03*
X171400000Y-89300000D03*
X155900000Y-84395000D03*
X160810000Y-84000000D03*
X167500000Y-80500000D03*
X158000000Y-109000000D03*
X170500000Y-74380000D03*
X169500000Y-88785000D03*
X172200000Y-120400000D03*
X168360000Y-127000000D03*
X156600000Y-93250000D03*
X151650000Y-86650000D03*
X158500000Y-108200000D03*
X167500000Y-81690000D03*
X158200000Y-80800000D03*
X141750000Y-92000000D03*
X136900000Y-98250000D03*
X133100000Y-80000000D03*
X169500000Y-90570000D03*
X144630000Y-91000000D03*
X167500000Y-78120000D03*
X156500000Y-105500000D03*
X178700000Y-118400000D03*
X144000000Y-79695000D03*
X144000000Y-89810000D03*
X148350000Y-87800000D03*
X151140000Y-79100000D03*
X169500000Y-88190000D03*
X155900000Y-86775000D03*
X144000000Y-88620000D03*
X170500000Y-72595000D03*
X151300000Y-101700000D03*
X158500000Y-107500000D03*
X124800000Y-110500000D03*
X169000000Y-78120000D03*
X176000000Y-111500000D03*
X124000000Y-82600000D03*
X124000000Y-86765000D03*
X169500000Y-101675000D03*
X141800000Y-71395000D03*
X130000000Y-72500000D03*
X154500000Y-106500000D03*
X138400000Y-91600000D03*
X148100000Y-117000000D03*
X143325000Y-121625000D03*
X158250000Y-92700000D03*
X167500000Y-82285000D03*
X149850000Y-109150000D03*
X151900000Y-101700000D03*
X157700000Y-93250000D03*
X152500000Y-107500000D03*
X167500000Y-74405000D03*
X138400000Y-92200000D03*
X161900000Y-119400000D03*
X155900000Y-89155000D03*
X158200000Y-70700000D03*
X152700000Y-85000000D03*
X160600000Y-123000000D03*
X155900000Y-83205000D03*
X144000000Y-79100000D03*
X160400000Y-96200000D03*
X155900000Y-80825000D03*
X156500000Y-101500000D03*
X159000000Y-94600000D03*
X141800000Y-94300000D03*
X122200000Y-91600000D03*
X130000000Y-79300000D03*
X160600000Y-77600000D03*
X147924997Y-96050000D03*
X139500000Y-97500000D03*
X167500000Y-78715000D03*
X167500000Y-77525000D03*
X164000000Y-104000000D03*
X149985000Y-91000000D03*
X123300000Y-114285000D03*
X178500000Y-111500000D03*
X158200000Y-75460000D03*
X159595000Y-83000000D03*
X149100000Y-96050000D03*
X162000000Y-84000000D03*
X155900000Y-88560000D03*
X164790000Y-127000000D03*
X158200000Y-71890000D03*
X144000000Y-82670000D03*
X147605000Y-91000000D03*
X151650000Y-82200000D03*
X169500000Y-98700000D03*
X154745000Y-91000000D03*
X158200000Y-74865000D03*
X157500000Y-107500000D03*
X169000000Y-77525000D03*
X172500000Y-110500000D03*
X129500000Y-90600000D03*
X144000000Y-84455000D03*
X123300000Y-114880000D03*
X154115000Y-79100000D03*
X144000000Y-80885000D03*
X141800000Y-75560000D03*
X152700000Y-117700000D03*
X150800000Y-109100000D03*
X155900000Y-85585000D03*
X129500000Y-120400000D03*
X155900000Y-84990000D03*
X169000000Y-75000000D03*
X169000000Y-80500000D03*
X146415000Y-91000000D03*
X139000000Y-125000000D03*
X155900000Y-81420000D03*
X165385000Y-127000000D03*
X154150000Y-109050000D03*
X146975000Y-79100000D03*
X161380000Y-82000000D03*
X154500000Y-105500000D03*
X170500000Y-72000000D03*
X148760000Y-79100000D03*
X169500000Y-102865000D03*
X169000000Y-76190000D03*
X155900000Y-79635000D03*
X157150000Y-93250000D03*
X157500000Y-106500000D03*
X148100000Y-116200000D03*
X167500000Y-81095000D03*
X170500000Y-73785000D03*
X132700000Y-125900000D03*
X144000000Y-83265000D03*
X169000000Y-81095000D03*
X152925000Y-79100000D03*
X169000000Y-73810000D03*
X167500000Y-75595000D03*
X169500000Y-89380000D03*
X148350000Y-83350000D03*
X136270000Y-125900000D03*
X141800000Y-70800000D03*
X150000000Y-86650000D03*
X150600000Y-122800000D03*
X154100000Y-109650000D03*
X159025000Y-84000000D03*
X144595000Y-79100000D03*
X147200000Y-117000000D03*
X150000000Y-82200000D03*
X155900000Y-82610000D03*
X141000000Y-77000000D03*
X170500000Y-79285000D03*
X139600000Y-96500000D03*
X169500000Y-91165000D03*
X153500000Y-117700000D03*
X167500000Y-76785000D03*
X139500000Y-77000000D03*
X152700000Y-83350000D03*
X155900000Y-80230000D03*
X171400000Y-103400000D03*
X169500000Y-99890000D03*
X141800000Y-74965000D03*
X169500000Y-87000000D03*
X124900000Y-119100000D03*
X143775000Y-123175000D03*
X155900000Y-91000000D03*
X160800000Y-120400000D03*
X162570000Y-83000000D03*
X160785000Y-83000000D03*
X152300000Y-109050000D03*
X170500000Y-82260000D03*
X148350000Y-86650000D03*
X150580000Y-91000000D03*
X160215000Y-84000000D03*
X152000000Y-122800000D03*
X152300000Y-109650000D03*
X167500000Y-72620000D03*
X148795000Y-91000000D03*
X137000000Y-77900000D03*
X153600000Y-122800000D03*
X149355000Y-79100000D03*
X155900000Y-89750000D03*
X169000000Y-79310000D03*
X158500000Y-77600000D03*
X151735000Y-79100000D03*
X157285208Y-111919453D03*
X152700000Y-86650000D03*
X158200000Y-81600000D03*
X167500000Y-72025000D03*
X148950000Y-109150000D03*
X128900000Y-90600000D03*
X144000000Y-90405000D03*
X169500000Y-89975000D03*
X171200000Y-121400000D03*
X156500000Y-106500000D03*
X167500000Y-100800000D03*
X160190000Y-83000000D03*
X169500000Y-91760000D03*
X153500000Y-106500000D03*
X167500000Y-79905000D03*
X141800000Y-74370000D03*
X158200000Y-74270000D03*
X147570000Y-79100000D03*
X169000000Y-73215000D03*
X159600000Y-108200000D03*
X143775000Y-123775000D03*
X133200000Y-72500000D03*
X144000000Y-81480000D03*
X153500000Y-107500000D03*
X155500000Y-106500000D03*
X169000000Y-76785000D03*
X178700000Y-115333333D03*
X128900000Y-120400000D03*
X147300000Y-86650000D03*
X141900000Y-77900000D03*
X140900000Y-94300000D03*
X154150000Y-91000000D03*
X123300000Y-115475000D03*
X151175000Y-91000000D03*
X150000000Y-87800000D03*
X156500000Y-102500000D03*
X167500000Y-76190000D03*
X140800000Y-97500000D03*
X161975000Y-83000000D03*
X133890000Y-125900000D03*
X123300000Y-112500000D03*
X124000000Y-87360000D03*
X151650000Y-109050000D03*
X143775000Y-124450000D03*
X152365000Y-91000000D03*
X124000000Y-83790000D03*
X148200000Y-91000000D03*
X152330000Y-79100000D03*
X160785000Y-82000000D03*
X123300000Y-116665000D03*
X156050000Y-93250000D03*
X167500000Y-79310000D03*
X143050000Y-93250000D03*
X167170000Y-127000000D03*
X155305000Y-79100000D03*
X140900000Y-96500000D03*
X171000000Y-109000000D03*
X135080000Y-125900000D03*
X155900000Y-87370000D03*
X150000000Y-85000000D03*
X161380000Y-83000000D03*
X147300000Y-85000000D03*
X167500000Y-98300000D03*
X169000000Y-74405000D03*
X167765000Y-127000000D03*
X144000000Y-88025000D03*
X159000000Y-82000000D03*
X178700000Y-113800000D03*
X133295000Y-125900000D03*
X170500000Y-76760000D03*
X169500000Y-101080000D03*
X159800000Y-120800000D03*
X162595000Y-84000000D03*
X136900000Y-97650000D03*
X171400000Y-100800000D03*
X124000000Y-86170000D03*
X159600000Y-76600000D03*
X145190000Y-79100000D03*
X149950000Y-79100000D03*
X160190000Y-82000000D03*
X145820000Y-91000000D03*
X134200000Y-89400000D03*
X158200000Y-71295000D03*
X144000000Y-86240000D03*
X169000000Y-81690000D03*
X151650000Y-87800000D03*
X145785000Y-79100000D03*
X123300000Y-116070000D03*
X134485000Y-125900000D03*
X159000000Y-83000000D03*
X158250000Y-93250000D03*
X144000000Y-83860000D03*
X156500000Y-103500000D03*
X170500000Y-77500000D03*
X155500000Y-104500000D03*
X156500000Y-104500000D03*
X123300000Y-113690000D03*
X167500000Y-89300000D03*
X139600000Y-94300000D03*
X159620000Y-84000000D03*
X167500000Y-103400000D03*
X152960000Y-91000000D03*
X138000000Y-77000000D03*
X153500000Y-117000000D03*
X178700000Y-117633333D03*
X161405000Y-84000000D03*
X147300000Y-83350000D03*
X170500000Y-75570000D03*
X143325000Y-121025000D03*
%TO.N,+5V*%
X156200000Y-118000000D03*
X151600000Y-111800000D03*
X148400000Y-111000000D03*
X151600000Y-113400000D03*
X148400000Y-111800000D03*
X172100000Y-118400000D03*
X151600000Y-111000000D03*
X150000000Y-111800000D03*
X154600000Y-118000000D03*
X155400000Y-117200000D03*
X157800000Y-117200000D03*
X152400000Y-113400000D03*
X151600000Y-112600000D03*
X153200000Y-113400000D03*
X154600000Y-117200000D03*
X157000000Y-118800000D03*
X157800000Y-118000000D03*
X152400000Y-111800000D03*
X157800000Y-118800000D03*
X147600000Y-111000000D03*
X156200000Y-118800000D03*
X154600000Y-118800000D03*
X150800000Y-112600000D03*
X149200000Y-112600000D03*
X155400000Y-118800000D03*
X147600000Y-111800000D03*
X150000000Y-112600000D03*
X156200000Y-117200000D03*
X157000000Y-117200000D03*
X149200000Y-111800000D03*
X150800000Y-111800000D03*
X152400000Y-112600000D03*
X155400000Y-118000000D03*
X147600000Y-112600000D03*
X153200000Y-112600000D03*
X148400000Y-112600000D03*
X150800000Y-111000000D03*
X149200000Y-111000000D03*
X157000000Y-118000000D03*
X150000000Y-111000000D03*
%TO.N,+VBUS*%
X165500000Y-125000000D03*
X165500000Y-114300000D03*
%TO.N,/IMU2_INT1*%
X136900000Y-123600000D03*
X133900000Y-123600000D03*
%TD*%
D52*
%TO.N,/VRx*%
X127647500Y-101535000D02*
X127662500Y-101550000D01*
X122100000Y-101535000D02*
X127647500Y-101535000D01*
%TO.N,/SW*%
X127457500Y-96455000D02*
X127562500Y-96350000D01*
X122100000Y-96455000D02*
X127457500Y-96455000D01*
%TO.N,/VRy*%
X126962500Y-103775000D02*
X127250000Y-104062500D01*
X125700000Y-103775000D02*
X126962500Y-103775000D01*
X125400000Y-104075000D02*
X125700000Y-103775000D01*
X122100000Y-104075000D02*
X125400000Y-104075000D01*
%TO.N,/SW_3V3*%
X129437500Y-92787500D02*
X129525000Y-92700000D01*
X129437500Y-95400000D02*
X129437500Y-92787500D01*
X131000000Y-95400000D02*
X129437500Y-95400000D01*
X132400000Y-96800000D02*
X131000000Y-95400000D01*
X133400000Y-102900000D02*
X132400000Y-101900000D01*
X139100000Y-102900000D02*
X133400000Y-102900000D01*
X141700000Y-97800000D02*
X141700000Y-100300000D01*
X132400000Y-101900000D02*
X132400000Y-96800000D01*
X145750000Y-93750000D02*
X141700000Y-97800000D01*
X141700000Y-100300000D02*
X139100000Y-102900000D01*
X145750000Y-92000000D02*
X145750000Y-93750000D01*
%TO.N,/VRx_ADC*%
X142700000Y-100800000D02*
X139600000Y-103900000D01*
X142700000Y-98400000D02*
X142700000Y-100800000D01*
X139600000Y-103900000D02*
X132837500Y-103900000D01*
X146600000Y-94500000D02*
X142700000Y-98400000D01*
X146600000Y-92000000D02*
X146600000Y-94500000D01*
X132837500Y-103900000D02*
X129537500Y-100600000D01*
X130125000Y-98000000D02*
X130125000Y-100012500D01*
X130125000Y-100012500D02*
X129537500Y-100600000D01*
%TO.N,/VRy_ADC*%
X132675000Y-105425000D02*
X133200000Y-104900000D01*
X130700000Y-105425000D02*
X132675000Y-105425000D01*
X128712500Y-105425000D02*
X130700000Y-105425000D01*
X128200000Y-105937500D02*
X128712500Y-105425000D01*
D53*
%TO.N,+3V3*%
X171600000Y-116800000D02*
X171200000Y-116400000D01*
X173200000Y-116800000D02*
X171600000Y-116800000D01*
D54*
%TO.N,GND*%
X156700000Y-111700000D02*
X156600000Y-111800000D01*
X157254757Y-111900000D02*
X156800000Y-111900000D01*
X157268505Y-111902750D02*
X157257507Y-111902750D01*
X156800000Y-111900000D02*
X156700000Y-111800000D01*
X157257507Y-111902750D02*
X157254757Y-111900000D01*
X156600000Y-111800000D02*
X154962500Y-111800000D01*
X156700000Y-111800000D02*
X156700000Y-111700000D01*
X157285208Y-111919453D02*
X157268505Y-111902750D01*
D53*
%TO.N,+5V*%
X173200000Y-118400000D02*
X172100000Y-118400000D01*
D52*
%TO.N,/EN*%
X157000000Y-79050000D02*
X159400000Y-79050000D01*
X159500000Y-79150000D02*
X161175000Y-79150000D01*
X159400000Y-79050000D02*
X159500000Y-79150000D01*
D55*
%TO.N,+VBUS*%
X165500000Y-115497500D02*
X165500000Y-114300000D01*
D52*
%TO.N,/BTN_4*%
X128650000Y-83250000D02*
X129500000Y-82400000D01*
X129500000Y-81885000D02*
X130215000Y-81885000D01*
X142500000Y-85000000D02*
X143000000Y-85000000D01*
X133300000Y-79200000D02*
X136200000Y-82100000D01*
X130600000Y-79900000D02*
X131300000Y-79200000D01*
X127480000Y-83250000D02*
X128650000Y-83250000D01*
X139600000Y-82100000D02*
X142500000Y-85000000D01*
X130600000Y-81500000D02*
X130600000Y-79900000D01*
X130215000Y-81885000D02*
X130600000Y-81500000D01*
X131300000Y-79200000D02*
X133300000Y-79200000D01*
X129500000Y-82400000D02*
X129500000Y-81885000D01*
X136200000Y-82100000D02*
X139600000Y-82100000D01*
%TO.N,/BTN_2*%
X132600000Y-86400000D02*
X133200000Y-87000000D01*
X127480000Y-86250000D02*
X128950000Y-86250000D01*
X133200000Y-88025000D02*
X134025000Y-88025000D01*
X134025000Y-88025000D02*
X135900000Y-89900000D01*
X128950000Y-86250000D02*
X129100000Y-86400000D01*
X133200000Y-87000000D02*
X133200000Y-88025000D01*
X140700000Y-88400000D02*
X143000000Y-88400000D01*
X129100000Y-86400000D02*
X132600000Y-86400000D01*
X135900000Y-89900000D02*
X139200000Y-89900000D01*
X139200000Y-89900000D02*
X140700000Y-88400000D01*
%TO.N,/BTN_3*%
X132800000Y-90900000D02*
X139400000Y-90900000D01*
X128450000Y-86750000D02*
X128700000Y-87000000D01*
X130800000Y-87000000D02*
X131100000Y-87300000D01*
X128700000Y-87000000D02*
X130800000Y-87000000D01*
X132150000Y-90250000D02*
X132800000Y-90900000D01*
X131825000Y-88025000D02*
X132100000Y-88300000D01*
X132100000Y-88300000D02*
X132100000Y-88350000D01*
X131100000Y-87300000D02*
X131100000Y-88025000D01*
X127480000Y-86750000D02*
X128450000Y-86750000D01*
X141050000Y-89250000D02*
X143000000Y-89250000D01*
X131100000Y-88025000D02*
X131825000Y-88025000D01*
X132150000Y-88400000D02*
X132150000Y-90250000D01*
X132100000Y-88350000D02*
X132150000Y-88400000D01*
X139400000Y-90900000D02*
X141050000Y-89250000D01*
%TO.N,/BTN_1*%
X141950000Y-85850000D02*
X139000000Y-82900000D01*
X132000000Y-82800000D02*
X132000000Y-81875000D01*
X129168905Y-83750000D02*
X129618905Y-83300000D01*
X134500000Y-82900000D02*
X133475000Y-81875000D01*
X127480000Y-83750000D02*
X129168905Y-83750000D01*
X133475000Y-81875000D02*
X132000000Y-81875000D01*
X129618905Y-83300000D02*
X131500000Y-83300000D01*
X139000000Y-82900000D02*
X134500000Y-82900000D01*
X143000000Y-85850000D02*
X141950000Y-85850000D01*
X131500000Y-83300000D02*
X132000000Y-82800000D01*
D53*
%TO.N,/5V_LED*%
X174850000Y-118400000D02*
X176212500Y-118400000D01*
%TO.N,/3V3_LED*%
X174850000Y-116800000D02*
X176212500Y-116800000D01*
D52*
%TO.N,/STATUS_A*%
X174850000Y-115300000D02*
X176212500Y-115300000D01*
%TO.N,/LOW_BAT_C*%
X174850000Y-113800000D02*
X176212500Y-113800000D01*
D54*
%TO.N,/EN_A-*%
X174950000Y-107550000D02*
X176445000Y-109045000D01*
X172750000Y-102135000D02*
X174235000Y-102135000D01*
X174950000Y-102850000D02*
X174950000Y-107550000D01*
X176445000Y-109045000D02*
X178000000Y-109045000D01*
X174235000Y-102135000D02*
X174950000Y-102850000D01*
%TO.N,/DIR_A-*%
X176700000Y-103950000D02*
X177985000Y-103950000D01*
X177985000Y-103950000D02*
X178000000Y-103965000D01*
X176050000Y-103300000D02*
X176700000Y-103950000D01*
X172750000Y-99595000D02*
X174395000Y-99595000D01*
X174395000Y-99595000D02*
X176050000Y-101250000D01*
X176050000Y-101250000D02*
X176050000Y-103300000D01*
%TO.N,/PUL_A-*%
X174455000Y-97055000D02*
X176285000Y-98885000D01*
X172750000Y-97055000D02*
X174455000Y-97055000D01*
X176285000Y-98885000D02*
X178000000Y-98885000D01*
%TO.N,/DIR_B-*%
X172750000Y-88095000D02*
X174305000Y-88095000D01*
X174305000Y-88095000D02*
X174680000Y-87720000D01*
X174680000Y-87720000D02*
X178000000Y-87720000D01*
%TO.N,/PUL_B-*%
X172750000Y-85555000D02*
X172750000Y-83450000D01*
X173560000Y-82640000D02*
X178000000Y-82640000D01*
X172750000Y-83450000D02*
X173560000Y-82640000D01*
%TO.N,/EN_B-*%
X176600000Y-92800000D02*
X178000000Y-92800000D01*
X174435000Y-90635000D02*
X176600000Y-92800000D01*
X172750000Y-90635000D02*
X174435000Y-90635000D01*
D52*
%TO.N,/CC2*%
X167750000Y-120850000D02*
X168165000Y-120435000D01*
X168165000Y-120435000D02*
X169575000Y-120435000D01*
X167750000Y-122335000D02*
X167750000Y-120850000D01*
%TO.N,/CC1*%
X164335000Y-120435000D02*
X163425000Y-120435000D01*
X164750000Y-122335000D02*
X164750000Y-120850000D01*
X164750000Y-120850000D02*
X164335000Y-120435000D01*
D56*
%TO.N,/IMU2_INT1*%
X150000000Y-104800000D02*
X149300000Y-104800000D01*
X136800000Y-123500000D02*
X136800000Y-122370000D01*
D57*
X133900000Y-123600000D02*
X133900000Y-123500000D01*
X133800000Y-123400000D02*
X133800000Y-122370000D01*
X133900000Y-123500000D02*
X133800000Y-123400000D01*
D56*
X152300000Y-99250000D02*
X152650000Y-99600000D01*
X152650000Y-102150000D02*
X150000000Y-104800000D01*
X149300000Y-104800000D02*
X136800000Y-117300000D01*
X151162500Y-99250000D02*
X152300000Y-99250000D01*
X152650000Y-99600000D02*
X152650000Y-102150000D01*
X136900000Y-123600000D02*
X136800000Y-123500000D01*
X136800000Y-117300000D02*
X136800000Y-122370000D01*
%TO.N,/IMU2_INT2*%
X147750000Y-100150000D02*
X147750000Y-102350000D01*
X135500000Y-124250000D02*
X133800000Y-124250000D01*
X133300000Y-116800000D02*
X133300000Y-122370000D01*
X148150000Y-99750000D02*
X147750000Y-100150000D01*
X136300000Y-123450000D02*
X135500000Y-124250000D01*
X147750000Y-102350000D02*
X133300000Y-116800000D01*
X133800000Y-124250000D02*
X133300000Y-123750000D01*
X136300000Y-122370000D02*
X136300000Y-123450000D01*
X133300000Y-123750000D02*
X133300000Y-122370000D01*
X148837500Y-99750000D02*
X148150000Y-99750000D01*
%TO.N,/IMU2_SDA*%
X135800000Y-122370000D02*
X135800000Y-121600000D01*
X150500000Y-100912500D02*
X150500000Y-102150000D01*
X134800000Y-117850000D02*
X134800000Y-122370000D01*
X135550000Y-121350000D02*
X134950000Y-121350000D01*
X135800000Y-121600000D02*
X135550000Y-121350000D01*
X150500000Y-102150000D02*
X134800000Y-117850000D01*
X134800000Y-121500000D02*
X134800000Y-122370000D01*
X134950000Y-121350000D02*
X134800000Y-121500000D01*
%TO.N,/IMU2_SCL*%
X135300000Y-123100000D02*
X135050000Y-123350000D01*
X135050000Y-123350000D02*
X134550000Y-123350000D01*
X134300000Y-122370000D02*
X134300000Y-117000000D01*
X150000000Y-101300000D02*
X150000000Y-100912500D01*
X134300000Y-117000000D02*
X150000000Y-101300000D01*
X134300000Y-123100000D02*
X134300000Y-122370000D01*
X134550000Y-123350000D02*
X134300000Y-123100000D01*
X135300000Y-122370000D02*
X135300000Y-123100000D01*
D52*
%TO.N,/DIS_SDA*%
X126300000Y-85500000D02*
X126300000Y-85000000D01*
X140375000Y-86875000D02*
X141050000Y-87550000D01*
X143000000Y-87550000D02*
X141050000Y-87550000D01*
X127480000Y-85750000D02*
X126550000Y-85750000D01*
X138300000Y-86875000D02*
X140375000Y-86875000D01*
X137475000Y-86875000D02*
X138300000Y-86875000D01*
X126300000Y-85000000D02*
X126550000Y-84750000D01*
X126550000Y-84750000D02*
X127480000Y-84750000D01*
X126550000Y-85750000D02*
X126300000Y-85500000D01*
X127480000Y-85750000D02*
X136350000Y-85750000D01*
X136350000Y-85750000D02*
X137475000Y-86875000D01*
%TO.N,/DIS_SCL*%
X128800000Y-84400000D02*
X128800000Y-85000000D01*
X131200000Y-84900000D02*
X136800000Y-84900000D01*
X137425000Y-85525000D02*
X138300000Y-85525000D01*
X127480000Y-84250000D02*
X130550000Y-84250000D01*
X130550000Y-84250000D02*
X131200000Y-84900000D01*
X128550000Y-85250000D02*
X127480000Y-85250000D01*
X128800000Y-85000000D02*
X128550000Y-85250000D01*
X127480000Y-84250000D02*
X128650000Y-84250000D01*
X141600000Y-86700000D02*
X143000000Y-86700000D01*
X140425000Y-85525000D02*
X141600000Y-86700000D01*
X138300000Y-85525000D02*
X140425000Y-85525000D01*
X136800000Y-84900000D02*
X137425000Y-85525000D01*
X128650000Y-84250000D02*
X128800000Y-84400000D01*
%TO.N,/BOOT_SEL*%
X141700000Y-81600000D02*
X143000000Y-81600000D01*
X141300000Y-81200000D02*
X141700000Y-81600000D01*
X131600000Y-76000000D02*
X136800000Y-81200000D01*
X136800000Y-81200000D02*
X141300000Y-81200000D01*
X131600000Y-73850000D02*
X131600000Y-76000000D01*
%TO.N,/BAT_SENSE*%
X142300000Y-124775000D02*
X142300000Y-124100000D01*
X140900000Y-123600000D02*
X140900000Y-114700000D01*
X154600000Y-101900000D02*
X154600000Y-98900000D01*
X149150000Y-93450000D02*
X149150000Y-92000000D01*
X154600000Y-98900000D02*
X149150000Y-93450000D01*
X140900000Y-114700000D02*
X142600000Y-113000000D01*
X143500000Y-113000000D02*
X154600000Y-101900000D01*
X142300000Y-124100000D02*
X141400000Y-124100000D01*
X142300000Y-124100000D02*
X142300000Y-123325000D01*
X142600000Y-113000000D02*
X143500000Y-113000000D01*
X141400000Y-124100000D02*
X140900000Y-123600000D01*
%TO.N,/PUL_ENA_R*%
X159600000Y-90200000D02*
X158650000Y-89250000D01*
X160675000Y-90200000D02*
X159600000Y-90200000D01*
X158650000Y-89250000D02*
X157000000Y-89250000D01*
%TO.N,/PUL_ENA*%
X164600000Y-91200000D02*
X164600000Y-96600000D01*
X164600000Y-96600000D02*
X165055000Y-97055000D01*
X165055000Y-97055000D02*
X166250000Y-97055000D01*
X163600000Y-90200000D02*
X164600000Y-91200000D01*
X162325000Y-90200000D02*
X163600000Y-90200000D01*
%TO.N,/DIR_ENA*%
X164400000Y-99600000D02*
X164405000Y-99595000D01*
X164405000Y-99595000D02*
X166250000Y-99595000D01*
X163200000Y-91700000D02*
X163900000Y-92400000D01*
X163900000Y-92400000D02*
X163900000Y-99100000D01*
X163900000Y-99100000D02*
X164400000Y-99600000D01*
X162325000Y-91700000D02*
X163200000Y-91700000D01*
%TO.N,/DIR_ENA_R*%
X159800000Y-91700000D02*
X158200000Y-90100000D01*
X158200000Y-90100000D02*
X157000000Y-90100000D01*
X160675000Y-91700000D02*
X159800000Y-91700000D01*
%TO.N,/EN_ENA*%
X163685000Y-102135000D02*
X166250000Y-102135000D01*
X162500000Y-100950000D02*
X163685000Y-102135000D01*
X162500000Y-93375000D02*
X162500000Y-100950000D01*
X162325000Y-93200000D02*
X162500000Y-93375000D01*
%TO.N,/EN_ENA_R*%
X157650000Y-90950000D02*
X157000000Y-90950000D01*
X159900000Y-93200000D02*
X157650000Y-90950000D01*
X160675000Y-93200000D02*
X159900000Y-93200000D01*
%TO.N,/PUL_ENB_R*%
X157000000Y-86700000D02*
X157800000Y-86700000D01*
X158945000Y-85555000D02*
X160675000Y-85555000D01*
X157800000Y-86700000D02*
X158945000Y-85555000D01*
%TO.N,/PUL_ENB*%
X162325000Y-85555000D02*
X166250000Y-85555000D01*
%TO.N,/DIR_ENB_R*%
X157000000Y-87550000D02*
X158350000Y-87550000D01*
X158822500Y-87077500D02*
X160675000Y-87077500D01*
X158350000Y-87550000D02*
X158822500Y-87077500D01*
%TO.N,/DIR_ENB*%
X162325000Y-87077500D02*
X163877500Y-87077500D01*
X163877500Y-87077500D02*
X164895000Y-88095000D01*
X164895000Y-88095000D02*
X166250000Y-88095000D01*
%TO.N,/EN_ENB*%
X162325000Y-88600000D02*
X163200000Y-88600000D01*
X165235000Y-90635000D02*
X166250000Y-90635000D01*
X163200000Y-88600000D02*
X165235000Y-90635000D01*
%TO.N,/EN_ENB_R*%
X158900000Y-88400000D02*
X159100000Y-88600000D01*
X159100000Y-88600000D02*
X160675000Y-88600000D01*
X157000000Y-88400000D02*
X158900000Y-88400000D01*
%TO.N,/VRy_ADC*%
X143700000Y-99000000D02*
X143700000Y-101300000D01*
X143700000Y-101300000D02*
X140100000Y-104900000D01*
X147450000Y-95250000D02*
X143700000Y-99000000D01*
X147450000Y-92000000D02*
X147450000Y-95250000D01*
X140100000Y-104900000D02*
X133200000Y-104900000D01*
%TO.N,/STATUS*%
X160200000Y-99600000D02*
X160200000Y-103900000D01*
X171600000Y-115300000D02*
X173200000Y-115300000D01*
X160200000Y-103900000D02*
X171600000Y-115300000D01*
X155900000Y-95300000D02*
X160200000Y-99600000D01*
X155000000Y-95300000D02*
X155900000Y-95300000D01*
X152550000Y-92000000D02*
X152550000Y-92850000D01*
X152550000Y-92850000D02*
X155000000Y-95300000D01*
%TO.N,/LOW_BAT*%
X172000000Y-113800000D02*
X173200000Y-113800000D01*
X156500000Y-94300000D02*
X161100000Y-98900000D01*
X154250000Y-92000000D02*
X154250000Y-92850000D01*
X154250000Y-92850000D02*
X155700000Y-94300000D01*
X161100000Y-98900000D02*
X161100000Y-102900000D01*
X161100000Y-102900000D02*
X172000000Y-113800000D01*
X155700000Y-94300000D02*
X156500000Y-94300000D01*
D56*
%TO.N,/USB_D_N*%
X155110000Y-97010000D02*
X157990000Y-99890000D01*
X165295000Y-112184914D02*
X165295000Y-113405000D01*
X157990000Y-99890000D02*
X157990000Y-104879914D01*
X150220000Y-93420000D02*
X153810000Y-97010000D01*
X150220000Y-92820001D02*
X150220000Y-93420000D01*
X153810000Y-97010000D02*
X155110000Y-97010000D01*
X164550000Y-114150000D02*
X164550000Y-115497500D01*
X165295000Y-113405000D02*
X164550000Y-114150000D01*
X157990000Y-104879914D02*
X165295000Y-112184914D01*
X150000000Y-92600001D02*
X150220000Y-92820001D01*
X150000000Y-92000000D02*
X150000000Y-92600001D01*
%TO.N,/USB_D_P*%
X153979828Y-96600000D02*
X155279828Y-96600000D01*
X150850000Y-92000000D02*
X150850000Y-92600001D01*
X158400000Y-104710086D02*
X165705000Y-112015086D01*
X165705000Y-113405000D02*
X166450000Y-114150000D01*
X150630000Y-92820001D02*
X150630000Y-93250172D01*
X155279828Y-96600000D02*
X158400000Y-99720172D01*
X150850000Y-92600001D02*
X150630000Y-92820001D01*
X165705000Y-112015086D02*
X165705000Y-113405000D01*
X166450000Y-114150000D02*
X166450000Y-115497500D01*
X150630000Y-93250172D02*
X153979828Y-96600000D01*
X158400000Y-99720172D02*
X158400000Y-104710086D01*
D52*
%TO.N,/CAN_RX*%
X143000000Y-90100000D02*
X141500002Y-90100000D01*
X134270000Y-97330002D02*
X134270000Y-101425000D01*
X141500002Y-90100000D02*
X134270000Y-97330002D01*
%TO.N,/CAN_TX*%
X138080000Y-101425000D02*
X138080000Y-94520000D01*
X141650000Y-90950000D02*
X143000000Y-90950000D01*
X138080000Y-94520000D02*
X141650000Y-90950000D01*
D56*
%TO.N,/USBD_N*%
X165295000Y-121427499D02*
X165250000Y-121472499D01*
X165250000Y-123150000D02*
X165500000Y-123400000D01*
X166250000Y-123150000D02*
X166250000Y-122335000D01*
X165250000Y-122335000D02*
X165250000Y-123150000D01*
X164550000Y-118766251D02*
X165295000Y-119511251D01*
X165250000Y-121472499D02*
X165250000Y-122335000D01*
X166000000Y-123400000D02*
X166250000Y-123150000D01*
X165295000Y-119511251D02*
X165295000Y-121427499D01*
X165500000Y-123400000D02*
X166000000Y-123400000D01*
X164550000Y-117772500D02*
X164550000Y-118766251D01*
%TO.N,/USBD_P*%
X166450000Y-118766251D02*
X165705000Y-119511251D01*
X166400000Y-121300000D02*
X166750000Y-121650000D01*
X165750000Y-121650000D02*
X166100000Y-121300000D01*
X165705000Y-119511251D02*
X165705000Y-121427499D01*
X166750000Y-121650000D02*
X166750000Y-122335000D01*
X165750000Y-122335000D02*
X165750000Y-121650000D01*
X165750000Y-121472499D02*
X165750000Y-122335000D01*
X165705000Y-121427499D02*
X165750000Y-121472499D01*
X166100000Y-121300000D02*
X166400000Y-121300000D01*
X166450000Y-117772500D02*
X166450000Y-118766251D01*
D58*
%TO.N,/CAND_N*%
X135325000Y-110032501D02*
X135325000Y-109320000D01*
X128492501Y-114100000D02*
X134217156Y-114100000D01*
X134217156Y-114100000D02*
X135950000Y-112367156D01*
X135950000Y-110657501D02*
X135325000Y-110032501D01*
X126750000Y-114050000D02*
X127580000Y-114050000D01*
X127580000Y-115050000D02*
X126750000Y-115050000D01*
X128442501Y-114050000D02*
X128492501Y-114100000D01*
X126500000Y-114800000D02*
X126500000Y-114300000D01*
X127580000Y-114050000D02*
X128442501Y-114050000D01*
X135325000Y-109320000D02*
X135325000Y-108607499D01*
X135325000Y-108607499D02*
X135950000Y-107982499D01*
X135540000Y-106872710D02*
X135540000Y-106375000D01*
X135950000Y-112367156D02*
X135950000Y-110657501D01*
X135950000Y-107282710D02*
X135540000Y-106872710D01*
X126750000Y-115050000D02*
X126500000Y-114800000D01*
X135950000Y-107982499D02*
X135950000Y-107282710D01*
X126500000Y-114300000D02*
X126750000Y-114050000D01*
%TO.N,/CAND_P*%
X127580000Y-114550000D02*
X128350000Y-114550000D01*
X128350000Y-114550000D02*
X128600000Y-114800000D01*
X128442501Y-114550000D02*
X128492501Y-114500000D01*
X134382844Y-114500000D02*
X136350000Y-112532844D01*
X128600000Y-114800000D02*
X128600000Y-115300000D01*
X128600000Y-115300000D02*
X128350000Y-115550000D01*
X136975000Y-110032501D02*
X136975000Y-109320000D01*
X136350000Y-107982499D02*
X136350000Y-107300000D01*
X127580000Y-114550000D02*
X128442501Y-114550000D01*
X136810000Y-106840000D02*
X136810000Y-106375000D01*
X128350000Y-115550000D02*
X127580000Y-115550000D01*
X128492501Y-114500000D02*
X134382844Y-114500000D01*
X136350000Y-107300000D02*
X136810000Y-106840000D01*
X136350000Y-110657501D02*
X136975000Y-110032501D01*
X136350000Y-112532844D02*
X136350000Y-110657501D01*
X136975000Y-109320000D02*
X136975000Y-108607499D01*
X136975000Y-108607499D02*
X136350000Y-107982499D01*
%TD*%
%TA.AperFunction,Conductor*%
%TO.N,+3V3*%
G36*
X164121674Y-78621674D02*
G01*
X164278326Y-78778326D01*
X164300000Y-78830652D01*
X164300000Y-79519348D01*
X164278326Y-79571674D01*
X164121674Y-79728326D01*
X164069348Y-79750000D01*
X162630652Y-79750000D01*
X162578326Y-79728326D01*
X162421674Y-79571674D01*
X162400000Y-79519348D01*
X162400000Y-78830652D01*
X162421674Y-78778326D01*
X162578326Y-78621674D01*
X162630652Y-78600000D01*
X164069348Y-78600000D01*
X164121674Y-78621674D01*
G37*
%TD.AperFunction*%
%TD*%
%TA.AperFunction,Conductor*%
%TO.N,+3V3*%
G36*
X138671674Y-83471674D02*
G01*
X138778326Y-83578326D01*
X138800000Y-83630652D01*
X138800000Y-84119348D01*
X138778326Y-84171674D01*
X138671674Y-84278326D01*
X138619348Y-84300000D01*
X136980652Y-84300000D01*
X136928326Y-84278326D01*
X136821674Y-84171674D01*
X136800000Y-84119348D01*
X136800000Y-83630652D01*
X136821674Y-83578326D01*
X136928326Y-83471674D01*
X136980652Y-83450000D01*
X138619348Y-83450000D01*
X138671674Y-83471674D01*
G37*
%TD.AperFunction*%
%TD*%
%TA.AperFunction,Conductor*%
%TO.N,+5V*%
G36*
X156217183Y-110318907D02*
G01*
X156228996Y-110328996D01*
X156271004Y-110371004D01*
X156298781Y-110425521D01*
X156300000Y-110441008D01*
X156300000Y-111058992D01*
X156281093Y-111117183D01*
X156271004Y-111128996D01*
X156128996Y-111271004D01*
X156074479Y-111298781D01*
X156058992Y-111300000D01*
X155518740Y-111300000D01*
X155511583Y-111299741D01*
X155508261Y-111299500D01*
X155508260Y-111299500D01*
X154416740Y-111299500D01*
X154382673Y-111304463D01*
X154348604Y-111309427D01*
X154243518Y-111360801D01*
X154160801Y-111443518D01*
X154109427Y-111548604D01*
X154109427Y-111548607D01*
X154099500Y-111616740D01*
X154099500Y-111983260D01*
X154106118Y-112028682D01*
X154109427Y-112051395D01*
X154153098Y-112140725D01*
X154160802Y-112156483D01*
X154243517Y-112239198D01*
X154266636Y-112250500D01*
X154348604Y-112290572D01*
X154348605Y-112290572D01*
X154348607Y-112290573D01*
X154416740Y-112300500D01*
X154416743Y-112300500D01*
X155508258Y-112300500D01*
X155508260Y-112300500D01*
X155508261Y-112300499D01*
X155511583Y-112300259D01*
X155518740Y-112300000D01*
X156108992Y-112300000D01*
X156116589Y-112302468D01*
X156124479Y-112301219D01*
X156145134Y-112311743D01*
X156167183Y-112318907D01*
X156178996Y-112328996D01*
X156271004Y-112421004D01*
X156298781Y-112475521D01*
X156300000Y-112491008D01*
X156300000Y-116600000D01*
X156700000Y-117000000D01*
X157858992Y-117000000D01*
X157917183Y-117018907D01*
X157928996Y-117028996D01*
X158171004Y-117271004D01*
X158198781Y-117325521D01*
X158200000Y-117341008D01*
X158200000Y-122158992D01*
X158181093Y-122217183D01*
X158171004Y-122228996D01*
X157928996Y-122471004D01*
X157874479Y-122498781D01*
X157858992Y-122500000D01*
X154641008Y-122500000D01*
X154582817Y-122481093D01*
X154571004Y-122471004D01*
X154228996Y-122128996D01*
X154201219Y-122074479D01*
X154200000Y-122058992D01*
X154200000Y-116041008D01*
X154218907Y-115982817D01*
X154228996Y-115971004D01*
X154371004Y-115828996D01*
X154425521Y-115801219D01*
X154441008Y-115800000D01*
X155699999Y-115800000D01*
X155700000Y-115800000D01*
X155800000Y-115700000D01*
X155800000Y-115506151D01*
X155810058Y-115462673D01*
X155815573Y-115451393D01*
X155825500Y-115383260D01*
X155825500Y-115016740D01*
X155815573Y-114948607D01*
X155810058Y-114937327D01*
X155800000Y-114893848D01*
X155800000Y-114700001D01*
X155800000Y-114700000D01*
X155700000Y-114600000D01*
X155699999Y-114600000D01*
X153999999Y-114600000D01*
X153728995Y-114871004D01*
X153674479Y-114898781D01*
X153658992Y-114900000D01*
X150899999Y-114900000D01*
X150628995Y-115171004D01*
X150574479Y-115198781D01*
X150558992Y-115200000D01*
X147341008Y-115200000D01*
X147282817Y-115181093D01*
X147271004Y-115171004D01*
X147028996Y-114928996D01*
X147001219Y-114874479D01*
X147000000Y-114858992D01*
X147000000Y-110641008D01*
X147018907Y-110582817D01*
X147028996Y-110571004D01*
X147271004Y-110328996D01*
X147325521Y-110301219D01*
X147341008Y-110300000D01*
X156158992Y-110300000D01*
X156217183Y-110318907D01*
G37*
%TD.AperFunction*%
%TD*%
%TA.AperFunction,Conductor*%
%TO.N,+3V3*%
G36*
X128021674Y-82321674D02*
G01*
X128078326Y-82378326D01*
X128100000Y-82430652D01*
X128100000Y-82769348D01*
X128078326Y-82821674D01*
X128021674Y-82878326D01*
X127969348Y-82900000D01*
X126900000Y-82900000D01*
X125900000Y-83900000D01*
X125900000Y-86100000D01*
X126900000Y-87100000D01*
X128019348Y-87100000D01*
X128071674Y-87121674D01*
X128175000Y-87225000D01*
X128550000Y-87600000D01*
X129869348Y-87600000D01*
X129921674Y-87621674D01*
X130028326Y-87728326D01*
X130050000Y-87780652D01*
X130050000Y-88319348D01*
X130028326Y-88371674D01*
X129921674Y-88478326D01*
X129869348Y-88500000D01*
X128880652Y-88500000D01*
X128828326Y-88478326D01*
X128050000Y-87700000D01*
X127002558Y-87700000D01*
X126950232Y-87678326D01*
X126938472Y-87663000D01*
X126865516Y-87536637D01*
X126865515Y-87536635D01*
X126758365Y-87429485D01*
X126758362Y-87429483D01*
X126627139Y-87353721D01*
X126627130Y-87353717D01*
X126480768Y-87314500D01*
X126480766Y-87314500D01*
X126329234Y-87314500D01*
X126206152Y-87347479D01*
X126187002Y-87350000D01*
X125880652Y-87350000D01*
X125828326Y-87328326D01*
X125021674Y-86521674D01*
X125000000Y-86469348D01*
X125000000Y-83030652D01*
X125021674Y-82978326D01*
X125478326Y-82521674D01*
X125530652Y-82500000D01*
X125950468Y-82500000D01*
X126002793Y-82521674D01*
X126051633Y-82570513D01*
X126051635Y-82570515D01*
X126182865Y-82646281D01*
X126329231Y-82685499D01*
X126329232Y-82685500D01*
X126329234Y-82685500D01*
X126480768Y-82685500D01*
X126480768Y-82685499D01*
X126627135Y-82646281D01*
X126758365Y-82570515D01*
X126865515Y-82463365D01*
X126938472Y-82336999D01*
X126983405Y-82302521D01*
X127002558Y-82300000D01*
X127969348Y-82300000D01*
X128021674Y-82321674D01*
G37*
%TD.AperFunction*%
%TD*%
%TA.AperFunction,Conductor*%
%TO.N,+3V3*%
G36*
X161271674Y-108771674D02*
G01*
X161478326Y-108978326D01*
X161500000Y-109030652D01*
X161500000Y-114619348D01*
X161478326Y-114671674D01*
X161271674Y-114878326D01*
X161219348Y-114900000D01*
X156680652Y-114900000D01*
X156628326Y-114878326D01*
X156571674Y-114821674D01*
X156550000Y-114769348D01*
X156550000Y-114030652D01*
X156571674Y-113978326D01*
X156678326Y-113871674D01*
X156730652Y-113850000D01*
X158150000Y-113850000D01*
X158500000Y-113500000D01*
X158500000Y-111500000D01*
X158300000Y-111300000D01*
X156830652Y-111300000D01*
X156778326Y-111278326D01*
X156571674Y-111071674D01*
X156550000Y-111019348D01*
X156550000Y-110430652D01*
X156571674Y-110378326D01*
X156778326Y-110171674D01*
X156830652Y-110150000D01*
X159850000Y-110150000D01*
X160000000Y-110000000D01*
X160000000Y-109030652D01*
X160021674Y-108978326D01*
X160228326Y-108771674D01*
X160280652Y-108750000D01*
X161219348Y-108750000D01*
X161271674Y-108771674D01*
G37*
%TD.AperFunction*%
%TD*%
%TA.AperFunction,Conductor*%
%TO.N,+VBAT*%
G36*
X150517183Y-118018907D02*
G01*
X150528995Y-118028996D01*
X150999999Y-118499999D01*
X151000000Y-118500000D01*
X153058992Y-118500000D01*
X153117183Y-118518907D01*
X153128996Y-118528996D01*
X153371004Y-118771004D01*
X153398781Y-118825521D01*
X153400000Y-118841008D01*
X153400000Y-121608992D01*
X153381093Y-121667183D01*
X153371004Y-121678996D01*
X153078996Y-121971004D01*
X153024479Y-121998781D01*
X153008992Y-122000000D01*
X150000000Y-122000000D01*
X149000000Y-123000000D01*
X149000000Y-123000001D01*
X149000000Y-124558992D01*
X148981093Y-124617183D01*
X148971004Y-124628995D01*
X148500000Y-125099999D01*
X148500000Y-129600500D01*
X148481093Y-129658691D01*
X148431593Y-129694655D01*
X148401000Y-129699500D01*
X141599000Y-129699500D01*
X141540809Y-129680593D01*
X141504845Y-129631093D01*
X141500000Y-129600500D01*
X141500000Y-126241008D01*
X141518907Y-126182817D01*
X141528996Y-126171004D01*
X141871004Y-125828996D01*
X141925521Y-125801219D01*
X141941008Y-125800000D01*
X143599999Y-125800000D01*
X143600000Y-125800000D01*
X145000000Y-124400000D01*
X145000000Y-121041008D01*
X145018907Y-120982817D01*
X145028996Y-120971004D01*
X147971004Y-118028996D01*
X148025521Y-118001219D01*
X148041008Y-118000000D01*
X150458992Y-118000000D01*
X150517183Y-118018907D01*
G37*
%TD.AperFunction*%
%TD*%
%TA.AperFunction,Conductor*%
%TO.N,+3V3*%
G36*
X132871674Y-107521674D02*
G01*
X132978326Y-107628326D01*
X133000000Y-107680652D01*
X133000000Y-110319348D01*
X132978326Y-110371674D01*
X130671674Y-112678326D01*
X130619348Y-112700000D01*
X126800000Y-112700000D01*
X126000000Y-113500000D01*
X126000000Y-116000000D01*
X126950000Y-116950000D01*
X129769348Y-116950000D01*
X129821674Y-116971674D01*
X129978326Y-117128326D01*
X130000000Y-117180652D01*
X130000000Y-118169348D01*
X129978326Y-118221674D01*
X129871674Y-118328326D01*
X129819348Y-118350000D01*
X128830652Y-118350000D01*
X128778326Y-118328326D01*
X128521674Y-118071674D01*
X128500000Y-118019348D01*
X128500000Y-117700000D01*
X128300000Y-117500000D01*
X127102558Y-117500000D01*
X127050232Y-117478326D01*
X127038472Y-117463000D01*
X126965516Y-117336637D01*
X126965515Y-117336635D01*
X126858365Y-117229485D01*
X126856358Y-117228326D01*
X126727139Y-117153721D01*
X126727130Y-117153717D01*
X126580768Y-117114500D01*
X126580766Y-117114500D01*
X126429234Y-117114500D01*
X126429232Y-117114500D01*
X126282869Y-117153717D01*
X126282860Y-117153721D01*
X126151636Y-117229484D01*
X126147790Y-117232436D01*
X126146603Y-117230890D01*
X126100469Y-117250000D01*
X125280652Y-117250000D01*
X125228326Y-117228326D01*
X124521674Y-116521674D01*
X124500000Y-116469348D01*
X124500000Y-113030652D01*
X124521674Y-112978326D01*
X125178326Y-112321674D01*
X125230652Y-112300000D01*
X126050468Y-112300000D01*
X126102793Y-112321674D01*
X126151633Y-112370513D01*
X126151635Y-112370515D01*
X126282865Y-112446281D01*
X126429231Y-112485499D01*
X126429232Y-112485500D01*
X126429234Y-112485500D01*
X126580768Y-112485500D01*
X126580768Y-112485499D01*
X126727135Y-112446281D01*
X126858365Y-112370515D01*
X126965515Y-112263365D01*
X127038472Y-112136999D01*
X127083405Y-112102521D01*
X127102558Y-112100000D01*
X128300000Y-112100000D01*
X129028326Y-111371674D01*
X129080652Y-111350000D01*
X130600000Y-111350000D01*
X132000000Y-109950000D01*
X132000000Y-107680652D01*
X132021674Y-107628326D01*
X132128326Y-107521674D01*
X132180652Y-107500000D01*
X132819348Y-107500000D01*
X132871674Y-107521674D01*
G37*
%TD.AperFunction*%
%TD*%
%TA.AperFunction,Conductor*%
%TO.N,+3V3*%
G36*
X135721674Y-97321674D02*
G01*
X135828326Y-97428326D01*
X135850000Y-97480652D01*
X135850000Y-102269348D01*
X135828326Y-102321674D01*
X135771674Y-102378326D01*
X135719348Y-102400000D01*
X135330652Y-102400000D01*
X135278326Y-102378326D01*
X135221674Y-102321674D01*
X135200000Y-102269348D01*
X135200000Y-100050000D01*
X134871674Y-99721674D01*
X134850000Y-99669348D01*
X134850000Y-97480652D01*
X134871674Y-97428326D01*
X134978326Y-97321674D01*
X135030652Y-97300000D01*
X135669348Y-97300000D01*
X135721674Y-97321674D01*
G37*
%TD.AperFunction*%
%TD*%
%TA.AperFunction,Conductor*%
%TO.N,+VBUS*%
G36*
X163817183Y-121818907D02*
G01*
X163828996Y-121828996D01*
X163870504Y-121870504D01*
X163898281Y-121925021D01*
X163899500Y-121940508D01*
X163899500Y-122862129D01*
X163899523Y-122862353D01*
X163900000Y-122872061D01*
X163900000Y-123000000D01*
X164900000Y-124000000D01*
X167099999Y-124000000D01*
X167100000Y-124000000D01*
X168100000Y-123000000D01*
X168100000Y-122872072D01*
X168100477Y-122862363D01*
X168100500Y-122862129D01*
X168100500Y-121940508D01*
X168102968Y-121932910D01*
X168101719Y-121925021D01*
X168112243Y-121904365D01*
X168119407Y-121882317D01*
X168129496Y-121870504D01*
X168171004Y-121828996D01*
X168225521Y-121801219D01*
X168241008Y-121800000D01*
X168558992Y-121800000D01*
X168617183Y-121818907D01*
X168628996Y-121828996D01*
X168670504Y-121870504D01*
X168698281Y-121925021D01*
X168699500Y-121940508D01*
X168699500Y-122643260D01*
X168699741Y-122646586D01*
X168700000Y-122653742D01*
X168700000Y-122758992D01*
X168681093Y-122817183D01*
X168671003Y-122828996D01*
X168578691Y-122921307D01*
X168558193Y-122937037D01*
X168536634Y-122949485D01*
X168429485Y-123056634D01*
X168417036Y-123078195D01*
X168410521Y-123089478D01*
X168400000Y-123100000D01*
X168400000Y-123107702D01*
X168386737Y-123130675D01*
X168353719Y-123187863D01*
X168352382Y-123192853D01*
X168314500Y-123334234D01*
X168314500Y-123485766D01*
X168353719Y-123632135D01*
X168386737Y-123689324D01*
X168400000Y-123738821D01*
X168400000Y-125558992D01*
X168381093Y-125617183D01*
X168371004Y-125628996D01*
X168028996Y-125971004D01*
X167974479Y-125998781D01*
X167958992Y-126000000D01*
X161811532Y-126000000D01*
X161792218Y-125998098D01*
X161748995Y-125989500D01*
X161748993Y-125989500D01*
X161611007Y-125989500D01*
X161611004Y-125989500D01*
X161567782Y-125998098D01*
X161548468Y-126000000D01*
X160499999Y-126000000D01*
X160028995Y-126471004D01*
X159974479Y-126498781D01*
X159958992Y-126500000D01*
X155391008Y-126500000D01*
X155332817Y-126481093D01*
X155321004Y-126471004D01*
X155028996Y-126178996D01*
X155001219Y-126124479D01*
X155000000Y-126108992D01*
X155000000Y-124291008D01*
X155018907Y-124232817D01*
X155028996Y-124221004D01*
X155321004Y-123928996D01*
X155375521Y-123901219D01*
X155391008Y-123900000D01*
X160658992Y-123900000D01*
X160717183Y-123918907D01*
X160728995Y-123928996D01*
X160999999Y-124199999D01*
X161000000Y-124200000D01*
X163299999Y-124200000D01*
X163300000Y-124200000D01*
X163500000Y-124000000D01*
X163500000Y-123874887D01*
X163518907Y-123816696D01*
X163528990Y-123804889D01*
X163570515Y-123763365D01*
X163584686Y-123738821D01*
X163646279Y-123632139D01*
X163646279Y-123632137D01*
X163646281Y-123632135D01*
X163685500Y-123485766D01*
X163685500Y-123334234D01*
X163646281Y-123187865D01*
X163646279Y-123187862D01*
X163646279Y-123187860D01*
X163570518Y-123056639D01*
X163570516Y-123056637D01*
X163570515Y-123056635D01*
X163463365Y-122949485D01*
X163453834Y-122943982D01*
X163349499Y-122883743D01*
X163335652Y-122868364D01*
X163318907Y-122856198D01*
X163315637Y-122846134D01*
X163308559Y-122838273D01*
X163300000Y-122798007D01*
X163300000Y-122653742D01*
X163300259Y-122646586D01*
X163300500Y-122643260D01*
X163300500Y-121940508D01*
X163319407Y-121882317D01*
X163329496Y-121870504D01*
X163371004Y-121828996D01*
X163425521Y-121801219D01*
X163441008Y-121800000D01*
X163758992Y-121800000D01*
X163817183Y-121818907D01*
G37*
%TD.AperFunction*%
%TD*%
%TA.AperFunction,Conductor*%
%TO.N,+3V3*%
G36*
X150521674Y-95521674D02*
G01*
X152478326Y-97478326D01*
X152500000Y-97530652D01*
X152500000Y-97969348D01*
X152478326Y-98021674D01*
X151771674Y-98728326D01*
X151719348Y-98750000D01*
X150750000Y-98750000D01*
X150650000Y-98850000D01*
X150650000Y-100219348D01*
X150628326Y-100271674D01*
X150521674Y-100378326D01*
X150469348Y-100400000D01*
X149800000Y-100400000D01*
X149650000Y-100550000D01*
X149650000Y-101219348D01*
X149628326Y-101271674D01*
X148571674Y-102328326D01*
X148519348Y-102350000D01*
X148230652Y-102350000D01*
X148178326Y-102328326D01*
X148121674Y-102271674D01*
X148100000Y-102219348D01*
X148100000Y-101380652D01*
X148121674Y-101328326D01*
X148328326Y-101121674D01*
X148380652Y-101100000D01*
X149100000Y-101100000D01*
X149250000Y-100950000D01*
X149250000Y-99980652D01*
X149271674Y-99928326D01*
X149578326Y-99621674D01*
X149630652Y-99600000D01*
X150200000Y-99600000D01*
X150300000Y-99500000D01*
X150300000Y-98350000D01*
X149871674Y-97921674D01*
X149850000Y-97869348D01*
X149850000Y-95780652D01*
X149871674Y-95728326D01*
X150078326Y-95521674D01*
X150130652Y-95500000D01*
X150469348Y-95500000D01*
X150521674Y-95521674D01*
G37*
%TD.AperFunction*%
%TD*%
%TA.AperFunction,Conductor*%
%TO.N,+5V*%
G36*
X126117183Y-97718907D02*
G01*
X126128996Y-97728996D01*
X126171004Y-97771004D01*
X126198781Y-97825521D01*
X126200000Y-97841008D01*
X126200000Y-99958992D01*
X126197531Y-99966589D01*
X126198781Y-99974479D01*
X126188256Y-99995134D01*
X126181093Y-100017183D01*
X126171004Y-100028996D01*
X126128996Y-100071004D01*
X126074479Y-100098781D01*
X126058992Y-100100000D01*
X121100000Y-100100000D01*
X120800000Y-100400000D01*
X120800000Y-105400000D01*
X121000000Y-105600000D01*
X122658992Y-105600000D01*
X122717183Y-105618907D01*
X122728995Y-105628996D01*
X122799999Y-105699999D01*
X122800000Y-105700000D01*
X124599999Y-105700000D01*
X124600000Y-105700000D01*
X125271004Y-105028996D01*
X125325521Y-105001219D01*
X125341008Y-105000000D01*
X126058992Y-105000000D01*
X126117183Y-105018907D01*
X126128996Y-105028996D01*
X126271004Y-105171004D01*
X126298781Y-105225521D01*
X126300000Y-105241008D01*
X126300000Y-105658992D01*
X126281093Y-105717183D01*
X126271004Y-105728996D01*
X126128996Y-105871004D01*
X126074479Y-105898781D01*
X126058992Y-105900000D01*
X125400000Y-105900000D01*
X125200000Y-106100000D01*
X125200000Y-106100001D01*
X125200000Y-107258992D01*
X125181093Y-107317183D01*
X125171004Y-107328996D01*
X125028996Y-107471004D01*
X124974479Y-107498781D01*
X124958992Y-107500000D01*
X120399500Y-107500000D01*
X120341309Y-107481093D01*
X120305345Y-107431593D01*
X120300500Y-107401000D01*
X120300500Y-97799000D01*
X120319407Y-97740809D01*
X120368907Y-97704845D01*
X120399500Y-97700000D01*
X126058992Y-97700000D01*
X126117183Y-97718907D01*
G37*
%TD.AperFunction*%
%TD*%
%TA.AperFunction,Conductor*%
%TO.N,+3V3*%
G36*
X138671674Y-88121674D02*
G01*
X138778326Y-88228326D01*
X138800000Y-88280652D01*
X138800000Y-88769348D01*
X138778326Y-88821674D01*
X138671674Y-88928326D01*
X138619348Y-88950000D01*
X136830652Y-88950000D01*
X136778326Y-88928326D01*
X136671674Y-88821674D01*
X136650000Y-88769348D01*
X136650000Y-88280652D01*
X136671674Y-88228326D01*
X136778326Y-88121674D01*
X136830652Y-88100000D01*
X138619348Y-88100000D01*
X138671674Y-88121674D01*
G37*
%TD.AperFunction*%
%TD*%
%TA.AperFunction,Conductor*%
%TO.N,+3V3*%
G36*
X141571674Y-78921674D02*
G01*
X141778326Y-79128326D01*
X141800000Y-79180652D01*
X141800000Y-79800000D01*
X142500000Y-80500000D01*
X143319348Y-80500000D01*
X143371674Y-80521674D01*
X143428326Y-80578326D01*
X143450000Y-80630652D01*
X143450000Y-80869348D01*
X143428326Y-80921674D01*
X143371674Y-80978326D01*
X143319348Y-81000000D01*
X141780652Y-81000000D01*
X141728326Y-80978326D01*
X141500000Y-80750000D01*
X137080652Y-80750000D01*
X137028326Y-80728326D01*
X136321674Y-80021674D01*
X136300000Y-79969348D01*
X136300000Y-79180652D01*
X136321674Y-79128326D01*
X136528326Y-78921674D01*
X136580652Y-78900000D01*
X141519348Y-78900000D01*
X141571674Y-78921674D01*
G37*
%TD.AperFunction*%
%TD*%
%TA.AperFunction,Conductor*%
%TO.N,+3V3*%
G36*
X148221674Y-98271674D02*
G01*
X149078326Y-99128326D01*
X149100000Y-99180652D01*
X149100000Y-99319348D01*
X149078326Y-99371674D01*
X149071674Y-99378326D01*
X149019348Y-99400000D01*
X147800000Y-99400000D01*
X147224998Y-99975001D01*
X147178248Y-100026003D01*
X147126913Y-100049930D01*
X147123698Y-100050000D01*
X145930652Y-100050000D01*
X145878326Y-100028326D01*
X145721674Y-99871674D01*
X145700000Y-99819348D01*
X145700000Y-98580652D01*
X145721674Y-98528326D01*
X145978326Y-98271674D01*
X146030652Y-98250000D01*
X148169348Y-98250000D01*
X148221674Y-98271674D01*
G37*
%TD.AperFunction*%
%TD*%
%TA.AperFunction,Conductor*%
%TO.N,GND*%
G36*
X130017510Y-105845185D02*
G01*
X130050241Y-105875867D01*
X130102848Y-105947148D01*
X130102849Y-105947148D01*
X130102850Y-105947150D01*
X130212118Y-106027793D01*
X130242200Y-106038319D01*
X130340299Y-106072646D01*
X130370730Y-106075500D01*
X130370734Y-106075500D01*
X131029270Y-106075500D01*
X131059699Y-106072646D01*
X131074074Y-106067615D01*
X131104532Y-106056959D01*
X131145487Y-106050000D01*
X131626000Y-106050000D01*
X131693039Y-106069685D01*
X131738794Y-106122489D01*
X131750000Y-106174000D01*
X131750000Y-107640789D01*
X131747617Y-107664982D01*
X131744500Y-107680650D01*
X131744500Y-109792806D01*
X131724815Y-109859845D01*
X131708181Y-109880487D01*
X130530487Y-111058181D01*
X130469164Y-111091666D01*
X130442806Y-111094500D01*
X129080650Y-111094500D01*
X128982882Y-111113947D01*
X128982876Y-111113949D01*
X128936182Y-111133290D01*
X128931575Y-111134938D01*
X128847657Y-111191009D01*
X128847656Y-111191010D01*
X128230487Y-111808181D01*
X128169164Y-111841666D01*
X128142806Y-111844500D01*
X127178399Y-111844500D01*
X127111360Y-111824815D01*
X127065605Y-111772011D01*
X127058626Y-111752599D01*
X127041281Y-111687865D01*
X127036451Y-111679500D01*
X127031129Y-111670281D01*
X126965515Y-111556635D01*
X126858365Y-111449485D01*
X126792750Y-111411602D01*
X126727136Y-111373719D01*
X126638613Y-111350000D01*
X126580766Y-111334500D01*
X126429234Y-111334500D01*
X126282863Y-111373719D01*
X126151635Y-111449485D01*
X126151632Y-111449487D01*
X126044487Y-111556632D01*
X126044485Y-111556635D01*
X125968719Y-111687863D01*
X125929500Y-111834234D01*
X125929500Y-111920500D01*
X125909815Y-111987539D01*
X125857011Y-112033294D01*
X125805500Y-112044500D01*
X125230650Y-112044500D01*
X125132882Y-112063947D01*
X125132876Y-112063949D01*
X125086182Y-112083290D01*
X125081575Y-112084938D01*
X124997657Y-112141009D01*
X124997656Y-112141010D01*
X124338093Y-112800574D01*
X124334221Y-112807819D01*
X124285621Y-112880553D01*
X124263950Y-112932872D01*
X124263947Y-112932882D01*
X124244500Y-113030649D01*
X124244500Y-113030652D01*
X124244500Y-116469348D01*
X124244500Y-116469350D01*
X124244499Y-116469350D01*
X124263947Y-116567117D01*
X124263948Y-116567118D01*
X124263949Y-116567123D01*
X124283290Y-116613816D01*
X124284939Y-116618426D01*
X124341009Y-116702342D01*
X124341010Y-116702343D01*
X125050572Y-117411904D01*
X125057805Y-117415770D01*
X125130551Y-117464377D01*
X125182877Y-117486051D01*
X125182881Y-117486051D01*
X125182882Y-117486052D01*
X125280649Y-117505500D01*
X125280652Y-117505500D01*
X125805500Y-117505500D01*
X125872539Y-117525185D01*
X125918294Y-117577989D01*
X125929500Y-117629500D01*
X125929500Y-117765766D01*
X125939033Y-117801344D01*
X125968719Y-117912136D01*
X126001676Y-117969218D01*
X126044485Y-118043365D01*
X126151635Y-118150515D01*
X126282865Y-118226281D01*
X126429234Y-118265500D01*
X126429236Y-118265500D01*
X126580764Y-118265500D01*
X126580766Y-118265500D01*
X126727135Y-118226281D01*
X126858365Y-118150515D01*
X126965515Y-118043365D01*
X127041281Y-117912135D01*
X127058625Y-117847405D01*
X127094989Y-117787747D01*
X127157835Y-117757217D01*
X127178399Y-117755500D01*
X128120500Y-117755500D01*
X128187539Y-117775185D01*
X128233294Y-117827989D01*
X128244500Y-117879500D01*
X128244500Y-118019348D01*
X128244500Y-118019350D01*
X128244499Y-118019350D01*
X128263947Y-118117117D01*
X128263948Y-118117118D01*
X128263949Y-118117123D01*
X128283290Y-118163816D01*
X128284939Y-118168426D01*
X128341009Y-118252342D01*
X128341010Y-118252343D01*
X128600574Y-118511906D01*
X128607814Y-118515776D01*
X128651791Y-118545160D01*
X128670582Y-118560582D01*
X128760000Y-118650000D01*
X132800500Y-118650000D01*
X132867539Y-118669685D01*
X132913294Y-118722489D01*
X132924500Y-118774000D01*
X132924500Y-121420500D01*
X132904815Y-121487539D01*
X132852011Y-121533294D01*
X132800500Y-121544500D01*
X132468482Y-121544500D01*
X132387519Y-121557323D01*
X132374696Y-121559354D01*
X132261658Y-121616950D01*
X132261657Y-121616951D01*
X132261652Y-121616954D01*
X132171954Y-121706652D01*
X132171951Y-121706657D01*
X132171950Y-121706658D01*
X132164370Y-121721535D01*
X132114352Y-121819698D01*
X132099500Y-121913475D01*
X132099500Y-122676517D01*
X132103007Y-122698658D01*
X132110733Y-122747443D01*
X132110734Y-122747444D01*
X132106747Y-122778291D01*
X132104757Y-122809320D01*
X132102307Y-122812643D01*
X132101778Y-122816738D01*
X132081753Y-122840524D01*
X132063298Y-122865560D01*
X132058836Y-122867747D01*
X132056781Y-122870189D01*
X132032446Y-122882701D01*
X132026491Y-122884971D01*
X131937865Y-122908719D01*
X131886573Y-122938332D01*
X131877324Y-122941860D01*
X131857752Y-122943404D01*
X131833138Y-122950000D01*
X131824999Y-122950000D01*
X131575000Y-123199999D01*
X131575000Y-123200000D01*
X131575000Y-123700000D01*
X131900000Y-124025000D01*
X132973638Y-124025000D01*
X133040677Y-124044685D01*
X133061319Y-124061319D01*
X133650000Y-124650000D01*
X135650000Y-124650000D01*
X136138681Y-124161319D01*
X136200004Y-124127834D01*
X136226362Y-124125000D01*
X138075000Y-124125000D01*
X138175000Y-124025000D01*
X138525000Y-123675000D01*
X138525000Y-123175000D01*
X138300000Y-122950000D01*
X138266862Y-122950000D01*
X138222677Y-122941861D01*
X138213430Y-122938334D01*
X138162135Y-122908719D01*
X138073494Y-122884968D01*
X138067555Y-122882703D01*
X138044601Y-122865255D01*
X138019986Y-122850252D01*
X138017131Y-122844375D01*
X138011930Y-122840422D01*
X138002052Y-122813334D01*
X137989457Y-122787405D01*
X137989415Y-122778678D01*
X137987994Y-122774780D01*
X137989367Y-122768680D01*
X137989267Y-122747443D01*
X137996993Y-122698662D01*
X138000500Y-122676519D01*
X138000499Y-121913482D01*
X138000499Y-121913481D01*
X138000499Y-121913477D01*
X138000316Y-121911151D01*
X138000499Y-121910280D01*
X138000499Y-121908610D01*
X138000850Y-121908610D01*
X138014683Y-121842774D01*
X138036250Y-121813749D01*
X138363681Y-121486319D01*
X138425004Y-121452834D01*
X138451362Y-121450000D01*
X140375500Y-121450000D01*
X140442539Y-121469685D01*
X140488294Y-121522489D01*
X140499500Y-121574000D01*
X140499500Y-123547273D01*
X140499500Y-123652727D01*
X140512294Y-123700475D01*
X140526793Y-123754589D01*
X140543506Y-123783536D01*
X140579520Y-123845913D01*
X141079518Y-124345910D01*
X141079520Y-124345913D01*
X141154087Y-124420480D01*
X141197845Y-124445743D01*
X141206493Y-124453123D01*
X141219635Y-124473237D01*
X141236214Y-124490624D01*
X141239296Y-124503328D01*
X141244710Y-124511614D01*
X141244819Y-124526092D01*
X141250000Y-124547446D01*
X141250000Y-126196526D01*
X141248473Y-126215923D01*
X141246808Y-126226435D01*
X141244500Y-126241008D01*
X141244500Y-129575500D01*
X141224815Y-129642539D01*
X141172011Y-129688294D01*
X141120500Y-129699500D01*
X125002706Y-129699500D01*
X124997297Y-129699382D01*
X124595818Y-129681853D01*
X124585042Y-129680910D01*
X124189314Y-129628811D01*
X124178660Y-129626933D01*
X123788960Y-129540538D01*
X123778512Y-129537738D01*
X123397840Y-129417713D01*
X123387674Y-129414013D01*
X123018903Y-129261263D01*
X123009099Y-129256691D01*
X122655057Y-129072388D01*
X122645689Y-129066980D01*
X122309040Y-128852511D01*
X122300179Y-128846306D01*
X121983512Y-128603319D01*
X121975225Y-128596365D01*
X121680943Y-128326705D01*
X121673294Y-128319056D01*
X121403634Y-128024774D01*
X121396680Y-128016487D01*
X121153693Y-127699820D01*
X121147488Y-127690959D01*
X120933019Y-127354310D01*
X120927611Y-127344942D01*
X120743308Y-126990900D01*
X120738736Y-126981096D01*
X120585982Y-126612315D01*
X120582286Y-126602159D01*
X120505827Y-126359662D01*
X120462260Y-126221483D01*
X120459461Y-126211039D01*
X120444715Y-126144525D01*
X120373064Y-125821331D01*
X120371188Y-125810685D01*
X120319087Y-125414937D01*
X120318147Y-125404202D01*
X120300618Y-125002702D01*
X120300500Y-124997293D01*
X120300500Y-107879500D01*
X120320185Y-107812461D01*
X120372989Y-107766706D01*
X120424500Y-107755500D01*
X124108589Y-107755500D01*
X124161306Y-107768954D01*
X124161465Y-107768528D01*
X124165429Y-107770006D01*
X124168013Y-107770666D01*
X124169772Y-107771626D01*
X124169774Y-107771628D01*
X124297886Y-107819412D01*
X124354515Y-107825500D01*
X124895484Y-107825499D01*
X124952114Y-107819412D01*
X125080226Y-107771628D01*
X125189687Y-107689687D01*
X125238096Y-107625018D01*
X125249677Y-107611654D01*
X125351666Y-107509666D01*
X125351670Y-107509662D01*
X125365290Y-107494928D01*
X125375379Y-107483115D01*
X125424088Y-107396135D01*
X125442995Y-107337944D01*
X125455500Y-107258992D01*
X125455500Y-106695862D01*
X125475185Y-106628823D01*
X125491819Y-106608181D01*
X125713681Y-106386319D01*
X125775004Y-106352834D01*
X125801362Y-106350000D01*
X127148638Y-106350000D01*
X127215677Y-106369685D01*
X127236319Y-106386319D01*
X127800000Y-106950000D01*
X128400000Y-106950000D01*
X128404098Y-106945902D01*
X128465420Y-106912415D01*
X128472347Y-106911114D01*
X128475304Y-106910646D01*
X128475307Y-106910644D01*
X128475309Y-106910644D01*
X128514819Y-106890511D01*
X128588342Y-106853050D01*
X128678050Y-106763342D01*
X128735646Y-106650304D01*
X128735646Y-106650302D01*
X128735647Y-106650301D01*
X128750499Y-106556524D01*
X128750500Y-106556519D01*
X128750499Y-106004755D01*
X128759144Y-105975312D01*
X128765667Y-105945328D01*
X128769420Y-105940314D01*
X128770183Y-105937717D01*
X128786819Y-105917074D01*
X128842076Y-105861818D01*
X128903399Y-105828334D01*
X128929756Y-105825500D01*
X129950471Y-105825500D01*
X130017510Y-105845185D01*
G37*
%TD.AperFunction*%
%TA.AperFunction,Conductor*%
G36*
X142243039Y-70320185D02*
G01*
X142288794Y-70372989D01*
X142300000Y-70424500D01*
X142300000Y-77275000D01*
X157700000Y-77275000D01*
X157700000Y-70424500D01*
X157719685Y-70357461D01*
X157772489Y-70311706D01*
X157824000Y-70300500D01*
X174952405Y-70300500D01*
X174997294Y-70300500D01*
X175002702Y-70300617D01*
X175404202Y-70318147D01*
X175414937Y-70319087D01*
X175810693Y-70371189D01*
X175821331Y-70373064D01*
X176211043Y-70459462D01*
X176221483Y-70462260D01*
X176602168Y-70582289D01*
X176612315Y-70585982D01*
X176981102Y-70738739D01*
X176990893Y-70743305D01*
X177344942Y-70927611D01*
X177354310Y-70933019D01*
X177690959Y-71147488D01*
X177699820Y-71153693D01*
X178016487Y-71396680D01*
X178024774Y-71403634D01*
X178319056Y-71673294D01*
X178326705Y-71680943D01*
X178596365Y-71975225D01*
X178603319Y-71983512D01*
X178846306Y-72300179D01*
X178852511Y-72309040D01*
X179066980Y-72645689D01*
X179072388Y-72655057D01*
X179256691Y-73009099D01*
X179261263Y-73018903D01*
X179414013Y-73387674D01*
X179417713Y-73397840D01*
X179537738Y-73778512D01*
X179540538Y-73788960D01*
X179626933Y-74178660D01*
X179628811Y-74189314D01*
X179680910Y-74585042D01*
X179681853Y-74595818D01*
X179699382Y-74997297D01*
X179699500Y-75002706D01*
X179699500Y-78726000D01*
X179679815Y-78793039D01*
X179627011Y-78838794D01*
X179575500Y-78850000D01*
X176499999Y-78850000D01*
X171650000Y-83699999D01*
X171650000Y-83700000D01*
X171650000Y-85900000D01*
X171850000Y-86100000D01*
X173598638Y-86100000D01*
X173628078Y-86108644D01*
X173658065Y-86115168D01*
X173663080Y-86118922D01*
X173665677Y-86119685D01*
X173686319Y-86136319D01*
X173813681Y-86263681D01*
X173847166Y-86325004D01*
X173850000Y-86351362D01*
X173850000Y-87148638D01*
X173830315Y-87215677D01*
X173813681Y-87236319D01*
X173586319Y-87463681D01*
X173524996Y-87497166D01*
X173498638Y-87500000D01*
X171849999Y-87500000D01*
X171650000Y-87699999D01*
X171650000Y-87700000D01*
X171650000Y-88500000D01*
X171850000Y-88700000D01*
X173498638Y-88700000D01*
X173565677Y-88719685D01*
X173586319Y-88736319D01*
X173813681Y-88963681D01*
X173847166Y-89025004D01*
X173850000Y-89051362D01*
X173850000Y-89648638D01*
X173830315Y-89715677D01*
X173813681Y-89736319D01*
X173586319Y-89963681D01*
X173524996Y-89997166D01*
X173498638Y-90000000D01*
X171949999Y-90000000D01*
X171650000Y-90299999D01*
X171650000Y-90300000D01*
X171650000Y-91000000D01*
X171950000Y-91300000D01*
X173598638Y-91300000D01*
X173628078Y-91308644D01*
X173658065Y-91315168D01*
X173663080Y-91318922D01*
X173665677Y-91319685D01*
X173686319Y-91336319D01*
X173813681Y-91463681D01*
X173847166Y-91525004D01*
X173850000Y-91551362D01*
X173850000Y-92248638D01*
X173830315Y-92315677D01*
X173813681Y-92336319D01*
X173586319Y-92563681D01*
X173524996Y-92597166D01*
X173498638Y-92600000D01*
X171849999Y-92600000D01*
X171650000Y-92799999D01*
X171650000Y-92800000D01*
X171650000Y-97400000D01*
X171950000Y-97700000D01*
X173498638Y-97700000D01*
X173565677Y-97719685D01*
X173586319Y-97736319D01*
X173813681Y-97963681D01*
X173847166Y-98025004D01*
X173850000Y-98051362D01*
X173850000Y-98648638D01*
X173830315Y-98715677D01*
X173813681Y-98736319D01*
X173586319Y-98963681D01*
X173524996Y-98997166D01*
X173498638Y-99000000D01*
X171849999Y-99000000D01*
X171650000Y-99199999D01*
X171650000Y-99200000D01*
X171650000Y-100000000D01*
X171850000Y-100200000D01*
X173498638Y-100200000D01*
X173565677Y-100219685D01*
X173586319Y-100236319D01*
X173813681Y-100463681D01*
X173847166Y-100525004D01*
X173850000Y-100551362D01*
X173850000Y-101148638D01*
X173830315Y-101215677D01*
X173813681Y-101236319D01*
X173586319Y-101463681D01*
X173524996Y-101497166D01*
X173498638Y-101500000D01*
X171849999Y-101500000D01*
X171650000Y-101699999D01*
X171650000Y-101700000D01*
X171650000Y-102500000D01*
X171950000Y-102800000D01*
X173548638Y-102800000D01*
X173615677Y-102819685D01*
X173636319Y-102836319D01*
X173863681Y-103063681D01*
X173897166Y-103125004D01*
X173900000Y-103151362D01*
X173900000Y-103598638D01*
X173880315Y-103665677D01*
X173863681Y-103686319D01*
X173586319Y-103963681D01*
X173524996Y-103997166D01*
X173498638Y-104000000D01*
X171899999Y-104000000D01*
X171700000Y-104199999D01*
X171700000Y-104495738D01*
X171699618Y-104505461D01*
X171699500Y-104506961D01*
X171699500Y-104843034D01*
X171699617Y-104844508D01*
X171700000Y-104854242D01*
X171700000Y-105765738D01*
X171699618Y-105775461D01*
X171699500Y-105776961D01*
X171699500Y-106113034D01*
X171699617Y-106114508D01*
X171700000Y-106124242D01*
X171700000Y-106250000D01*
X172000000Y-106550000D01*
X172698638Y-106550000D01*
X172765677Y-106569685D01*
X172786318Y-106586318D01*
X175400000Y-109200000D01*
X175425000Y-109225000D01*
X176400000Y-110200000D01*
X179575500Y-110200000D01*
X179642539Y-110219685D01*
X179688294Y-110272489D01*
X179699500Y-110324000D01*
X179699500Y-124997293D01*
X179699382Y-125002702D01*
X179681853Y-125404181D01*
X179680910Y-125414957D01*
X179628811Y-125810685D01*
X179626933Y-125821339D01*
X179540538Y-126211039D01*
X179537738Y-126221487D01*
X179417713Y-126602159D01*
X179414013Y-126612325D01*
X179261263Y-126981096D01*
X179256691Y-126990900D01*
X179072388Y-127344942D01*
X179066980Y-127354310D01*
X178852511Y-127690959D01*
X178846306Y-127699820D01*
X178603319Y-128016487D01*
X178596365Y-128024774D01*
X178326705Y-128319056D01*
X178319056Y-128326705D01*
X178024774Y-128596365D01*
X178016487Y-128603319D01*
X177699820Y-128846306D01*
X177690959Y-128852511D01*
X177354310Y-129066980D01*
X177344942Y-129072388D01*
X176990900Y-129256691D01*
X176981096Y-129261263D01*
X176612325Y-129414013D01*
X176602159Y-129417713D01*
X176221487Y-129537738D01*
X176211039Y-129540538D01*
X175821339Y-129626933D01*
X175810685Y-129628811D01*
X175414957Y-129680910D01*
X175404181Y-129681853D01*
X175002703Y-129699382D01*
X174997294Y-129699500D01*
X148879500Y-129699500D01*
X148812461Y-129679815D01*
X148766706Y-129627011D01*
X148755500Y-129575500D01*
X148755500Y-125257193D01*
X148775185Y-125190154D01*
X148791819Y-125169512D01*
X148964038Y-124997293D01*
X149151670Y-124809661D01*
X149165283Y-124794935D01*
X149175372Y-124783123D01*
X149175378Y-124783116D01*
X149224088Y-124696135D01*
X149242995Y-124637944D01*
X149255500Y-124558992D01*
X149255500Y-124291008D01*
X154744500Y-124291008D01*
X154744500Y-126109003D01*
X154745286Y-126129023D01*
X154746506Y-126144525D01*
X154746507Y-126144528D01*
X154773565Y-126240471D01*
X154782666Y-126258334D01*
X154801337Y-126294980D01*
X154801340Y-126294984D01*
X154801342Y-126294988D01*
X154817004Y-126316546D01*
X154848326Y-126359658D01*
X155140337Y-126651669D01*
X155155067Y-126665286D01*
X155155072Y-126665290D01*
X155166885Y-126675379D01*
X155253865Y-126724088D01*
X155253867Y-126724089D01*
X155261082Y-126726433D01*
X155312056Y-126742995D01*
X155391008Y-126755500D01*
X155391009Y-126755500D01*
X159959003Y-126755500D01*
X159979023Y-126754713D01*
X159979030Y-126754712D01*
X159979041Y-126754712D01*
X159994528Y-126753493D01*
X160090473Y-126726434D01*
X160090475Y-126726433D01*
X160090476Y-126726433D01*
X160108866Y-126717062D01*
X160144989Y-126698657D01*
X160209661Y-126651670D01*
X160569512Y-126291819D01*
X160630835Y-126258334D01*
X160657193Y-126255500D01*
X161548457Y-126255500D01*
X161548468Y-126255500D01*
X161573508Y-126254270D01*
X161592822Y-126252368D01*
X161617631Y-126248688D01*
X161624193Y-126247382D01*
X161648383Y-126245000D01*
X161711615Y-126245000D01*
X161735806Y-126247383D01*
X161742372Y-126248689D01*
X161762083Y-126251612D01*
X161767157Y-126252365D01*
X161767159Y-126252365D01*
X161767178Y-126252368D01*
X161784738Y-126254097D01*
X161786471Y-126254268D01*
X161786473Y-126254268D01*
X161786492Y-126254270D01*
X161811532Y-126255500D01*
X161811543Y-126255500D01*
X167959003Y-126255500D01*
X167979023Y-126254713D01*
X167979030Y-126254712D01*
X167979041Y-126254712D01*
X167994528Y-126253493D01*
X168090471Y-126226435D01*
X168144988Y-126198658D01*
X168209662Y-126151670D01*
X168551670Y-125809662D01*
X168565290Y-125794928D01*
X168575379Y-125783115D01*
X168624088Y-125696135D01*
X168642995Y-125637944D01*
X168655500Y-125558992D01*
X168655500Y-124104566D01*
X168675185Y-124037527D01*
X168727989Y-123991772D01*
X168797147Y-123981828D01*
X168811583Y-123984789D01*
X168814234Y-123985500D01*
X168814238Y-123985500D01*
X168965764Y-123985500D01*
X168965766Y-123985500D01*
X169112135Y-123946281D01*
X169243365Y-123870515D01*
X169350515Y-123763365D01*
X169426281Y-123632135D01*
X169465500Y-123485766D01*
X169465500Y-123334234D01*
X169426281Y-123187865D01*
X169350515Y-123056635D01*
X169243365Y-122949485D01*
X169112135Y-122873719D01*
X169047406Y-122856375D01*
X169023873Y-122842030D01*
X168998751Y-122830704D01*
X168994464Y-122824105D01*
X168987745Y-122820009D01*
X168975703Y-122795219D01*
X168960693Y-122772109D01*
X168959062Y-122760961D01*
X168957217Y-122757162D01*
X168955501Y-122737199D01*
X168955500Y-122736991D01*
X168955500Y-122653742D01*
X168955333Y-122644501D01*
X168955074Y-122637345D01*
X168955013Y-122636228D01*
X168955001Y-122633666D01*
X168955010Y-122633633D01*
X168955000Y-122633067D01*
X168955000Y-121940496D01*
X168954213Y-121920477D01*
X168954212Y-121920459D01*
X168952993Y-121904972D01*
X168952990Y-121904962D01*
X168952431Y-121901826D01*
X168951014Y-121891308D01*
X168950499Y-121885673D01*
X168950499Y-121878482D01*
X168948945Y-121868670D01*
X168948572Y-121864589D01*
X168954564Y-121834162D01*
X168958538Y-121803410D01*
X168961463Y-121799131D01*
X168962073Y-121796036D01*
X168967293Y-121790605D01*
X168984373Y-121765625D01*
X169538681Y-121211319D01*
X169600004Y-121177834D01*
X169626362Y-121175000D01*
X169975000Y-121175000D01*
X170400000Y-120750000D01*
X170400000Y-120000000D01*
X170100000Y-119700000D01*
X167626362Y-119700000D01*
X167559323Y-119680315D01*
X167538681Y-119663681D01*
X167036319Y-119161319D01*
X167002834Y-119099996D01*
X167000000Y-119073638D01*
X167000000Y-118327742D01*
X167000383Y-118318008D01*
X167000498Y-118316528D01*
X167000500Y-118316519D01*
X167000499Y-117228482D01*
X166985646Y-117134696D01*
X166928050Y-117021658D01*
X166928046Y-117021654D01*
X166928045Y-117021652D01*
X166838347Y-116931954D01*
X166838344Y-116931952D01*
X166838342Y-116931950D01*
X166761517Y-116892805D01*
X166725301Y-116874352D01*
X166631524Y-116859500D01*
X166268482Y-116859500D01*
X166187519Y-116872323D01*
X166174696Y-116874354D01*
X166061658Y-116931950D01*
X166061657Y-116931951D01*
X166061652Y-116931954D01*
X165971954Y-117021652D01*
X165971951Y-117021657D01*
X165971950Y-117021658D01*
X165967419Y-117030551D01*
X165914352Y-117134698D01*
X165899500Y-117228475D01*
X165899500Y-118316518D01*
X165899617Y-118317991D01*
X165900000Y-118327727D01*
X165900000Y-118473638D01*
X165880315Y-118540677D01*
X165863681Y-118561319D01*
X165786319Y-118638681D01*
X165724996Y-118672166D01*
X165698638Y-118675000D01*
X165276362Y-118675000D01*
X165209323Y-118655315D01*
X165188681Y-118638681D01*
X165136319Y-118586319D01*
X165102834Y-118524996D01*
X165100000Y-118498638D01*
X165100000Y-118327742D01*
X165100383Y-118318008D01*
X165100498Y-118316528D01*
X165100500Y-118316519D01*
X165100499Y-117228482D01*
X165085646Y-117134696D01*
X165028050Y-117021658D01*
X165028046Y-117021654D01*
X165028045Y-117021652D01*
X164938347Y-116931954D01*
X164938344Y-116931952D01*
X164938342Y-116931950D01*
X164861517Y-116892805D01*
X164825301Y-116874352D01*
X164731524Y-116859500D01*
X164368482Y-116859500D01*
X164287519Y-116872323D01*
X164274696Y-116874354D01*
X164161658Y-116931950D01*
X164161657Y-116931951D01*
X164161652Y-116931954D01*
X164071954Y-117021652D01*
X164071951Y-117021657D01*
X164071950Y-117021658D01*
X164067419Y-117030551D01*
X164014352Y-117134698D01*
X163999500Y-117228475D01*
X163999500Y-118316518D01*
X163999617Y-118317991D01*
X164000000Y-118327727D01*
X164000000Y-118673638D01*
X163980315Y-118740677D01*
X163963681Y-118761319D01*
X163636319Y-119088681D01*
X163574996Y-119122166D01*
X163548638Y-119125000D01*
X162999999Y-119125000D01*
X162600000Y-119524999D01*
X162600000Y-121225000D01*
X163034004Y-121659004D01*
X163067489Y-121720327D01*
X163069228Y-121763127D01*
X163067050Y-121779403D01*
X163064354Y-121784696D01*
X163049500Y-121878481D01*
X163049500Y-121910593D01*
X163048405Y-121918779D01*
X163048163Y-121919322D01*
X163047973Y-121921737D01*
X163045000Y-121940505D01*
X163045000Y-122633067D01*
X163044999Y-122633666D01*
X163044986Y-122636228D01*
X163044926Y-122637345D01*
X163044667Y-122644501D01*
X163044500Y-122653742D01*
X163044500Y-122736991D01*
X163044499Y-122737199D01*
X163034563Y-122770441D01*
X163024815Y-122803639D01*
X163024579Y-122803843D01*
X163024490Y-122804142D01*
X162998148Y-122826745D01*
X162972011Y-122849394D01*
X162971570Y-122849552D01*
X162971466Y-122849642D01*
X162971230Y-122849674D01*
X162952592Y-122856375D01*
X162887865Y-122873719D01*
X162887863Y-122873719D01*
X162887863Y-122873720D01*
X162756635Y-122949485D01*
X162756632Y-122949487D01*
X162649487Y-123056632D01*
X162649485Y-123056635D01*
X162573719Y-123187863D01*
X162556425Y-123252406D01*
X162534500Y-123334234D01*
X162534500Y-123485766D01*
X162559900Y-123580562D01*
X162573720Y-123632137D01*
X162573720Y-123632138D01*
X162646676Y-123758500D01*
X162663149Y-123826400D01*
X162640297Y-123892427D01*
X162585376Y-123935617D01*
X162539289Y-123944500D01*
X161157193Y-123944500D01*
X161090154Y-123924815D01*
X161069516Y-123908185D01*
X160909660Y-123748330D01*
X160894935Y-123734717D01*
X160894932Y-123734714D01*
X160883289Y-123724770D01*
X160883123Y-123724628D01*
X160883116Y-123724622D01*
X160883114Y-123724620D01*
X160883113Y-123724620D01*
X160796140Y-123675914D01*
X160796131Y-123675910D01*
X160737945Y-123657005D01*
X160671663Y-123646507D01*
X160658992Y-123644500D01*
X155391008Y-123644500D01*
X155390997Y-123644500D01*
X155370976Y-123645286D01*
X155355474Y-123646506D01*
X155318248Y-123657005D01*
X155259529Y-123673565D01*
X155259527Y-123673565D01*
X155259527Y-123673566D01*
X155205019Y-123701337D01*
X155205009Y-123701344D01*
X155140341Y-123748326D01*
X154848330Y-124040337D01*
X154834713Y-124055067D01*
X154824623Y-124066882D01*
X154775910Y-124153867D01*
X154757005Y-124212054D01*
X154744500Y-124291008D01*
X149255500Y-124291008D01*
X149255500Y-123157194D01*
X149275185Y-123090155D01*
X149291819Y-123069513D01*
X150069513Y-122291819D01*
X150130836Y-122258334D01*
X150157194Y-122255500D01*
X153009003Y-122255500D01*
X153029023Y-122254713D01*
X153029030Y-122254712D01*
X153029041Y-122254712D01*
X153044528Y-122253493D01*
X153140471Y-122226435D01*
X153194988Y-122198658D01*
X153259662Y-122151670D01*
X153551670Y-121859662D01*
X153565290Y-121844928D01*
X153575379Y-121833115D01*
X153624088Y-121746135D01*
X153642995Y-121687944D01*
X153655500Y-121608992D01*
X153655500Y-118841008D01*
X153654712Y-118820959D01*
X153653493Y-118805472D01*
X153626435Y-118709529D01*
X153606134Y-118669685D01*
X153598662Y-118655019D01*
X153598660Y-118655016D01*
X153598658Y-118655012D01*
X153575164Y-118622675D01*
X153551673Y-118590341D01*
X153309662Y-118348330D01*
X153294932Y-118334713D01*
X153286752Y-118327727D01*
X153283115Y-118324621D01*
X153219327Y-118288899D01*
X153196132Y-118275910D01*
X153137945Y-118257005D01*
X153098468Y-118250752D01*
X153058992Y-118244500D01*
X153058991Y-118244500D01*
X151157194Y-118244500D01*
X151090155Y-118224815D01*
X151069513Y-118208181D01*
X150709661Y-117848330D01*
X150694948Y-117834729D01*
X150694947Y-117834728D01*
X150694935Y-117834717D01*
X150683123Y-117824628D01*
X150683116Y-117824622D01*
X150683114Y-117824620D01*
X150683113Y-117824620D01*
X150596140Y-117775914D01*
X150596131Y-117775910D01*
X150537945Y-117757005D01*
X150471663Y-117746507D01*
X150458992Y-117744500D01*
X148041008Y-117744500D01*
X148040997Y-117744500D01*
X148020976Y-117745286D01*
X148005474Y-117746506D01*
X147973584Y-117755500D01*
X147909529Y-117773565D01*
X147909527Y-117773565D01*
X147909527Y-117773566D01*
X147855019Y-117801337D01*
X147855009Y-117801344D01*
X147790341Y-117848326D01*
X144848330Y-120790337D01*
X144834713Y-120805067D01*
X144824623Y-120816882D01*
X144775910Y-120903867D01*
X144757005Y-120962054D01*
X144744500Y-121041008D01*
X144744500Y-124242806D01*
X144724815Y-124309845D01*
X144708181Y-124330487D01*
X143674987Y-125363681D01*
X143648059Y-125378384D01*
X143622241Y-125394977D01*
X143616040Y-125395868D01*
X143613664Y-125397166D01*
X143587306Y-125400000D01*
X143376362Y-125400000D01*
X143309323Y-125380315D01*
X143288681Y-125363681D01*
X143161319Y-125236319D01*
X143127834Y-125174996D01*
X143125000Y-125148638D01*
X143125000Y-122775000D01*
X142850000Y-122500000D01*
X141801362Y-122500000D01*
X141734323Y-122480315D01*
X141713681Y-122463681D01*
X141336819Y-122086819D01*
X141303334Y-122025496D01*
X141300500Y-121999138D01*
X141300500Y-114917255D01*
X141320185Y-114850216D01*
X141336819Y-114829574D01*
X142729574Y-113436819D01*
X142790897Y-113403334D01*
X142817255Y-113400500D01*
X143552725Y-113400500D01*
X143552727Y-113400500D01*
X143654588Y-113373207D01*
X143745913Y-113320480D01*
X146534701Y-110531691D01*
X146596023Y-110498207D01*
X146665715Y-110503191D01*
X146721648Y-110545063D01*
X146746065Y-110610527D01*
X146744856Y-110638763D01*
X146744500Y-110641011D01*
X146744500Y-114859003D01*
X146745286Y-114879023D01*
X146746506Y-114894525D01*
X146746507Y-114894528D01*
X146773565Y-114990471D01*
X146783005Y-115008999D01*
X146801337Y-115044980D01*
X146801340Y-115044984D01*
X146801342Y-115044988D01*
X146806197Y-115051670D01*
X146848326Y-115109658D01*
X147090337Y-115351669D01*
X147105067Y-115365286D01*
X147105072Y-115365290D01*
X147116885Y-115375379D01*
X147182135Y-115411919D01*
X147203867Y-115424089D01*
X147211082Y-115426433D01*
X147262056Y-115442995D01*
X147341008Y-115455500D01*
X147341009Y-115455500D01*
X150559003Y-115455500D01*
X150579023Y-115454713D01*
X150579030Y-115454712D01*
X150579041Y-115454712D01*
X150594528Y-115453493D01*
X150690473Y-115426434D01*
X150690475Y-115426433D01*
X150690476Y-115426433D01*
X150709116Y-115416935D01*
X150744989Y-115398657D01*
X150809661Y-115351670D01*
X150969512Y-115191819D01*
X151030835Y-115158334D01*
X151057193Y-115155500D01*
X153659003Y-115155500D01*
X153679023Y-115154713D01*
X153679030Y-115154712D01*
X153679041Y-115154712D01*
X153694528Y-115153493D01*
X153790473Y-115126434D01*
X153790475Y-115126433D01*
X153790476Y-115126433D01*
X153808866Y-115117062D01*
X153844989Y-115098657D01*
X153909661Y-115051670D01*
X154069512Y-114891819D01*
X154130835Y-114858334D01*
X154157193Y-114855500D01*
X155430292Y-114855500D01*
X155457926Y-114863614D01*
X155486251Y-114868845D01*
X155491035Y-114873336D01*
X155497331Y-114875185D01*
X155516188Y-114896947D01*
X155537192Y-114916664D01*
X155540531Y-114925041D01*
X155543086Y-114927989D01*
X155550565Y-114949327D01*
X155551058Y-114951292D01*
X155551074Y-114951432D01*
X155561132Y-114994911D01*
X155564096Y-115003263D01*
X155565535Y-115008999D01*
X155565449Y-115011134D01*
X155567965Y-115021286D01*
X155568703Y-115026349D01*
X155570000Y-115044235D01*
X155570000Y-115355762D01*
X155568702Y-115373654D01*
X155567963Y-115378722D01*
X155562125Y-115402290D01*
X155561132Y-115405087D01*
X155561129Y-115405097D01*
X155551101Y-115448448D01*
X155516814Y-115509326D01*
X155455056Y-115542002D01*
X155430292Y-115544500D01*
X154440997Y-115544500D01*
X154420976Y-115545286D01*
X154405474Y-115546506D01*
X154357500Y-115560036D01*
X154309529Y-115573565D01*
X154309527Y-115573565D01*
X154309527Y-115573566D01*
X154255019Y-115601337D01*
X154255009Y-115601344D01*
X154190341Y-115648326D01*
X154048330Y-115790337D01*
X154034713Y-115805067D01*
X154024623Y-115816882D01*
X153975910Y-115903867D01*
X153957005Y-115962054D01*
X153944500Y-116041008D01*
X153944500Y-122059003D01*
X153945286Y-122079023D01*
X153946506Y-122094525D01*
X153946507Y-122094528D01*
X153973565Y-122190471D01*
X153983196Y-122209374D01*
X154001337Y-122244980D01*
X154001340Y-122244984D01*
X154001342Y-122244988D01*
X154017004Y-122266546D01*
X154048326Y-122309658D01*
X154390337Y-122651669D01*
X154405067Y-122665286D01*
X154405072Y-122665290D01*
X154416885Y-122675379D01*
X154503865Y-122724088D01*
X154503867Y-122724089D01*
X154511082Y-122726433D01*
X154562056Y-122742995D01*
X154641008Y-122755500D01*
X154641009Y-122755500D01*
X157859003Y-122755500D01*
X157879023Y-122754713D01*
X157879030Y-122754712D01*
X157879041Y-122754712D01*
X157894528Y-122753493D01*
X157990471Y-122726435D01*
X158044988Y-122698658D01*
X158109662Y-122651670D01*
X158351670Y-122409662D01*
X158365290Y-122394928D01*
X158375379Y-122383115D01*
X158424088Y-122296135D01*
X158442995Y-122237944D01*
X158455500Y-122158992D01*
X158455500Y-117341008D01*
X158454712Y-117320959D01*
X158453493Y-117305472D01*
X158453490Y-117305462D01*
X158452423Y-117299482D01*
X158453234Y-117299337D01*
X158450000Y-117275936D01*
X158450000Y-116900000D01*
X158261319Y-116711319D01*
X158227834Y-116649996D01*
X158225000Y-116623638D01*
X158225000Y-115476362D01*
X158233644Y-115446921D01*
X158240168Y-115416935D01*
X158243922Y-115411919D01*
X158244685Y-115409323D01*
X158261319Y-115388681D01*
X158413681Y-115236319D01*
X158475004Y-115202834D01*
X158501362Y-115200000D01*
X163875500Y-115200000D01*
X163942539Y-115219685D01*
X163988294Y-115272489D01*
X163999500Y-115324000D01*
X163999500Y-116041518D01*
X163999617Y-116042991D01*
X164000000Y-116052727D01*
X164000000Y-116200000D01*
X164200000Y-116400000D01*
X164292428Y-116400000D01*
X164311827Y-116401527D01*
X164368481Y-116410500D01*
X164731518Y-116410499D01*
X164788176Y-116401525D01*
X164807572Y-116400000D01*
X165242428Y-116400000D01*
X165261827Y-116401527D01*
X165318481Y-116410500D01*
X165681518Y-116410499D01*
X165738176Y-116401525D01*
X165757572Y-116400000D01*
X166192428Y-116400000D01*
X166211827Y-116401527D01*
X166268481Y-116410500D01*
X166631518Y-116410499D01*
X166688176Y-116401525D01*
X166707572Y-116400000D01*
X170426000Y-116400000D01*
X170493039Y-116419685D01*
X170538794Y-116472489D01*
X170550000Y-116524000D01*
X170550000Y-116700000D01*
X171363681Y-117513681D01*
X171397166Y-117575004D01*
X171400000Y-117601362D01*
X171400000Y-118750000D01*
X171800000Y-119150000D01*
X176650000Y-119150000D01*
X177000000Y-118800000D01*
X177000000Y-113300000D01*
X176750000Y-113050000D01*
X171867755Y-113050000D01*
X171800716Y-113030315D01*
X171780074Y-113013681D01*
X165645877Y-106879484D01*
X165641538Y-106871538D01*
X165634291Y-106866113D01*
X165625056Y-106841353D01*
X165612392Y-106818161D01*
X165613037Y-106809131D01*
X165609874Y-106800649D01*
X165615490Y-106774828D01*
X165617376Y-106748469D01*
X165623194Y-106739414D01*
X165624726Y-106732376D01*
X165645872Y-106704126D01*
X165763682Y-106586316D01*
X165825004Y-106552834D01*
X165851362Y-106550000D01*
X167050000Y-106550000D01*
X167300000Y-106300000D01*
X167300000Y-106124256D01*
X167300383Y-106114522D01*
X167300498Y-106113042D01*
X167300500Y-106113033D01*
X167300499Y-105776968D01*
X167300499Y-105776967D01*
X167300499Y-105776962D01*
X167300382Y-105775475D01*
X167300000Y-105765752D01*
X167300000Y-104854256D01*
X167300383Y-104844522D01*
X167300498Y-104843042D01*
X167300500Y-104843033D01*
X167300499Y-104506968D01*
X167300499Y-104506967D01*
X167300499Y-104506962D01*
X167300382Y-104505475D01*
X167300000Y-104495752D01*
X167300000Y-104350000D01*
X167100000Y-104150000D01*
X166954262Y-104150000D01*
X166944539Y-104149618D01*
X166943038Y-104149500D01*
X165556963Y-104149500D01*
X165555476Y-104149618D01*
X165545753Y-104150000D01*
X165199999Y-104150000D01*
X165000000Y-104349999D01*
X165000000Y-105934245D01*
X164980315Y-106001284D01*
X164927511Y-106047039D01*
X164858353Y-106056983D01*
X164794797Y-106027958D01*
X164788319Y-106021926D01*
X161536819Y-102770426D01*
X161503334Y-102709103D01*
X161500500Y-102682745D01*
X161500500Y-98847275D01*
X161500500Y-98847273D01*
X161473207Y-98745413D01*
X161420480Y-98654087D01*
X161345913Y-98579520D01*
X156745913Y-93979520D01*
X156700250Y-93953156D01*
X156654589Y-93926793D01*
X156603657Y-93913146D01*
X156552727Y-93899500D01*
X156552726Y-93899500D01*
X155917254Y-93899500D01*
X155850215Y-93879815D01*
X155829573Y-93863181D01*
X155486319Y-93519926D01*
X155452834Y-93458603D01*
X155450000Y-93432245D01*
X155450000Y-92774000D01*
X155452550Y-92765314D01*
X155451262Y-92756353D01*
X155462240Y-92732312D01*
X155469685Y-92706961D01*
X155476525Y-92701033D01*
X155480287Y-92692797D01*
X155502521Y-92678507D01*
X155522489Y-92661206D01*
X155533003Y-92658918D01*
X155539065Y-92655023D01*
X155574000Y-92650000D01*
X155714158Y-92650000D01*
X155724336Y-92650500D01*
X155725326Y-92650500D01*
X156175664Y-92650500D01*
X156185842Y-92650000D01*
X156300000Y-92650000D01*
X156450000Y-92500000D01*
X156450000Y-91601362D01*
X156458644Y-91571921D01*
X156465168Y-91541935D01*
X156468922Y-91536919D01*
X156469685Y-91534323D01*
X156486319Y-91513681D01*
X156513681Y-91486319D01*
X156575004Y-91452834D01*
X156601362Y-91450000D01*
X157532245Y-91450000D01*
X157599284Y-91469685D01*
X157619926Y-91486319D01*
X159575179Y-93441571D01*
X159575189Y-93441582D01*
X159579519Y-93445912D01*
X159579520Y-93445913D01*
X159654087Y-93520480D01*
X159678737Y-93534711D01*
X159704417Y-93554417D01*
X160150000Y-94000000D01*
X161975500Y-94000000D01*
X162042539Y-94019685D01*
X162088294Y-94072489D01*
X162099500Y-94124000D01*
X162099500Y-100897273D01*
X162099500Y-101002727D01*
X162105522Y-101025203D01*
X162126793Y-101104589D01*
X162152887Y-101149784D01*
X162179520Y-101195913D01*
X163439087Y-102455480D01*
X163463737Y-102469711D01*
X163489417Y-102489417D01*
X163800000Y-102800000D01*
X167000000Y-102800000D01*
X167300000Y-102500000D01*
X167300000Y-102314256D01*
X167300383Y-102304522D01*
X167300498Y-102303042D01*
X167300500Y-102303033D01*
X167300499Y-101966968D01*
X167300499Y-101966962D01*
X167300382Y-101965475D01*
X167300000Y-101955752D01*
X167300000Y-101700000D01*
X167100000Y-101500000D01*
X165451362Y-101500000D01*
X165384323Y-101480315D01*
X165363681Y-101463681D01*
X165136319Y-101236319D01*
X165102834Y-101174996D01*
X165100000Y-101148638D01*
X165100000Y-100551362D01*
X165119685Y-100484323D01*
X165136319Y-100463681D01*
X165363681Y-100236319D01*
X165425004Y-100202834D01*
X165451362Y-100200000D01*
X167100000Y-100200000D01*
X167300000Y-100000000D01*
X167300000Y-99774256D01*
X167300383Y-99764522D01*
X167300498Y-99763042D01*
X167300500Y-99763033D01*
X167300499Y-99426968D01*
X167300499Y-99426962D01*
X167300382Y-99425475D01*
X167300000Y-99415752D01*
X167300000Y-99200000D01*
X167100000Y-99000000D01*
X165451362Y-99000000D01*
X165384323Y-98980315D01*
X165363681Y-98963681D01*
X165136319Y-98736319D01*
X165102834Y-98674996D01*
X165100000Y-98648638D01*
X165100000Y-98051362D01*
X165119685Y-97984323D01*
X165136319Y-97963681D01*
X165363681Y-97736319D01*
X165425004Y-97702834D01*
X165451362Y-97700000D01*
X167000000Y-97700000D01*
X167300000Y-97400000D01*
X167300000Y-97234256D01*
X167300383Y-97224522D01*
X167300498Y-97223042D01*
X167300500Y-97223033D01*
X167300499Y-96886968D01*
X167300499Y-96886962D01*
X167300382Y-96885475D01*
X167300000Y-96875752D01*
X167300000Y-94624256D01*
X167300383Y-94614522D01*
X167300498Y-94613042D01*
X167300500Y-94613033D01*
X167300499Y-94276968D01*
X167300499Y-94276962D01*
X167300382Y-94275475D01*
X167300000Y-94265752D01*
X167300000Y-93354256D01*
X167300383Y-93344522D01*
X167300498Y-93343042D01*
X167300500Y-93343033D01*
X167300499Y-93006968D01*
X167300499Y-93006962D01*
X167300382Y-93005475D01*
X167300000Y-92995752D01*
X167300000Y-92800000D01*
X167100000Y-92600000D01*
X165451362Y-92600000D01*
X165384323Y-92580315D01*
X165363681Y-92563681D01*
X165136319Y-92336319D01*
X165102834Y-92274996D01*
X165100000Y-92248638D01*
X165100000Y-91551362D01*
X165108644Y-91521921D01*
X165115168Y-91491935D01*
X165118922Y-91486919D01*
X165119685Y-91484323D01*
X165136319Y-91463681D01*
X165263681Y-91336319D01*
X165325004Y-91302834D01*
X165351362Y-91300000D01*
X167000000Y-91300000D01*
X167300000Y-91000000D01*
X167300000Y-90814256D01*
X167300383Y-90804522D01*
X167300498Y-90803042D01*
X167300500Y-90803033D01*
X167300499Y-90466968D01*
X167300499Y-90466962D01*
X167300382Y-90465475D01*
X167300000Y-90455752D01*
X167300000Y-90300000D01*
X167000000Y-90000000D01*
X165451362Y-90000000D01*
X165384323Y-89980315D01*
X165363681Y-89963681D01*
X165136319Y-89736319D01*
X165102834Y-89674996D01*
X165100000Y-89648638D01*
X165100000Y-89051362D01*
X165119685Y-88984323D01*
X165136319Y-88963681D01*
X165363681Y-88736319D01*
X165425004Y-88702834D01*
X165451362Y-88700000D01*
X167100000Y-88700000D01*
X167300000Y-88500000D01*
X167300000Y-88274256D01*
X167300383Y-88264522D01*
X167300498Y-88263042D01*
X167300500Y-88263033D01*
X167300499Y-87926968D01*
X167300499Y-87926962D01*
X167300382Y-87925475D01*
X167300000Y-87915752D01*
X167300000Y-87700000D01*
X167100000Y-87500000D01*
X165451362Y-87500000D01*
X165384323Y-87480315D01*
X165363681Y-87463681D01*
X165136319Y-87236319D01*
X165102834Y-87174996D01*
X165100000Y-87148638D01*
X165100000Y-86351362D01*
X165108644Y-86321921D01*
X165115168Y-86291935D01*
X165118922Y-86286919D01*
X165119685Y-86284323D01*
X165136319Y-86263681D01*
X165263681Y-86136319D01*
X165325004Y-86102834D01*
X165351362Y-86100000D01*
X167100000Y-86100000D01*
X167300000Y-85900000D01*
X167300000Y-85734256D01*
X167300383Y-85724522D01*
X167300498Y-85723042D01*
X167300500Y-85723033D01*
X167300499Y-85386968D01*
X167300499Y-85386962D01*
X167300382Y-85385475D01*
X167300000Y-85375752D01*
X167300000Y-85200000D01*
X167100000Y-85000000D01*
X165300000Y-85000000D01*
X165299999Y-85000000D01*
X165181819Y-85118181D01*
X165120496Y-85151666D01*
X165094138Y-85154500D01*
X163205862Y-85154500D01*
X163138823Y-85134815D01*
X163118181Y-85118181D01*
X162800000Y-84800000D01*
X160200000Y-84800000D01*
X160199999Y-84800000D01*
X159881819Y-85118181D01*
X159820496Y-85151666D01*
X159794138Y-85154500D01*
X159005339Y-85154500D01*
X159005323Y-85154499D01*
X158997727Y-85154499D01*
X158892274Y-85154499D01*
X158863384Y-85162240D01*
X158798899Y-85179518D01*
X158798900Y-85179519D01*
X158790412Y-85181793D01*
X158790410Y-85181794D01*
X158699085Y-85234521D01*
X158019926Y-85913681D01*
X157992998Y-85928384D01*
X157967180Y-85944977D01*
X157960979Y-85945868D01*
X157958603Y-85947166D01*
X157932245Y-85950000D01*
X157774500Y-85950000D01*
X157707461Y-85930315D01*
X157661706Y-85877511D01*
X157650500Y-85826000D01*
X157650500Y-85624336D01*
X157650000Y-85614158D01*
X157650000Y-85235841D01*
X157650500Y-85225673D01*
X157650500Y-84774336D01*
X157650000Y-84764158D01*
X157650000Y-84385841D01*
X157650500Y-84375673D01*
X157650500Y-83924336D01*
X157650000Y-83914158D01*
X157650000Y-83535841D01*
X157650500Y-83525673D01*
X157650500Y-83074336D01*
X157650000Y-83064158D01*
X157650000Y-82685841D01*
X157650500Y-82675673D01*
X157650500Y-82238877D01*
X157650500Y-82225326D01*
X157650000Y-82222812D01*
X157650000Y-82150000D01*
X157603156Y-82103156D01*
X157580601Y-82069399D01*
X157556995Y-82053626D01*
X157538205Y-82038205D01*
X157500000Y-82000000D01*
X157435842Y-82000000D01*
X157425664Y-81999500D01*
X157424674Y-81999500D01*
X156575326Y-81999500D01*
X156575323Y-81999500D01*
X156502264Y-82014032D01*
X156502260Y-82014034D01*
X156419398Y-82069399D01*
X156411070Y-82081862D01*
X156411068Y-82081867D01*
X156396843Y-82103156D01*
X156350000Y-82150000D01*
X156350000Y-82222812D01*
X156349500Y-82225326D01*
X156349500Y-82238875D01*
X156349500Y-82675673D01*
X156350000Y-82685841D01*
X156350000Y-83064158D01*
X156349500Y-83074336D01*
X156349500Y-83525673D01*
X156350000Y-83535841D01*
X156350000Y-83914158D01*
X156349500Y-83924336D01*
X156349500Y-84375673D01*
X156350000Y-84385841D01*
X156350000Y-84764158D01*
X156349500Y-84774336D01*
X156349500Y-85225673D01*
X156350000Y-85235841D01*
X156350000Y-85614158D01*
X156349500Y-85624336D01*
X156349500Y-86075673D01*
X156350000Y-86085841D01*
X156350000Y-86464158D01*
X156349500Y-86474336D01*
X156349500Y-86925673D01*
X156350000Y-86935841D01*
X156350000Y-87314158D01*
X156349500Y-87324336D01*
X156349500Y-87775673D01*
X156350000Y-87785841D01*
X156350000Y-88164158D01*
X156349500Y-88174336D01*
X156349500Y-88625673D01*
X156350000Y-88635841D01*
X156350000Y-89014158D01*
X156349500Y-89024336D01*
X156349500Y-89475673D01*
X156350000Y-89485841D01*
X156350000Y-89864158D01*
X156349500Y-89874336D01*
X156349500Y-90325673D01*
X156350000Y-90335841D01*
X156350000Y-90714158D01*
X156349500Y-90724336D01*
X156349500Y-91149138D01*
X156340855Y-91178578D01*
X156334332Y-91208565D01*
X156330577Y-91213580D01*
X156329815Y-91216177D01*
X156313181Y-91236819D01*
X156236819Y-91313181D01*
X156175496Y-91346666D01*
X156149138Y-91349500D01*
X155724336Y-91349500D01*
X155714158Y-91350000D01*
X155335842Y-91350000D01*
X155325664Y-91349500D01*
X155324674Y-91349500D01*
X154875326Y-91349500D01*
X154874336Y-91349500D01*
X154864158Y-91350000D01*
X154485842Y-91350000D01*
X154475664Y-91349500D01*
X154474674Y-91349500D01*
X154025326Y-91349500D01*
X154024336Y-91349500D01*
X154014158Y-91350000D01*
X153635842Y-91350000D01*
X153625664Y-91349500D01*
X153624674Y-91349500D01*
X153175326Y-91349500D01*
X153174336Y-91349500D01*
X153164158Y-91350000D01*
X152785842Y-91350000D01*
X152775664Y-91349500D01*
X152774674Y-91349500D01*
X152325326Y-91349500D01*
X152324336Y-91349500D01*
X152314158Y-91350000D01*
X151935842Y-91350000D01*
X151925664Y-91349500D01*
X151924674Y-91349500D01*
X151475326Y-91349500D01*
X151474336Y-91349500D01*
X151464158Y-91350000D01*
X151085842Y-91350000D01*
X151075664Y-91349500D01*
X151074674Y-91349500D01*
X150625326Y-91349500D01*
X150624336Y-91349500D01*
X150614158Y-91350000D01*
X150235842Y-91350000D01*
X150225664Y-91349500D01*
X150224674Y-91349500D01*
X149775326Y-91349500D01*
X149774336Y-91349500D01*
X149764158Y-91350000D01*
X149385842Y-91350000D01*
X149375664Y-91349500D01*
X149374674Y-91349500D01*
X148925326Y-91349500D01*
X148924336Y-91349500D01*
X148914158Y-91350000D01*
X148535842Y-91350000D01*
X148525664Y-91349500D01*
X148524674Y-91349500D01*
X148075326Y-91349500D01*
X148074336Y-91349500D01*
X148064158Y-91350000D01*
X147685842Y-91350000D01*
X147675664Y-91349500D01*
X147674674Y-91349500D01*
X147225326Y-91349500D01*
X147224336Y-91349500D01*
X147214158Y-91350000D01*
X146835842Y-91350000D01*
X146825664Y-91349500D01*
X146824674Y-91349500D01*
X146375326Y-91349500D01*
X146374336Y-91349500D01*
X146364158Y-91350000D01*
X145985842Y-91350000D01*
X145975664Y-91349500D01*
X145974674Y-91349500D01*
X145525326Y-91349500D01*
X145524336Y-91349500D01*
X145514158Y-91350000D01*
X145135842Y-91350000D01*
X145125664Y-91349500D01*
X145124674Y-91349500D01*
X144675326Y-91349500D01*
X144674336Y-91349500D01*
X144664158Y-91350000D01*
X144285842Y-91350000D01*
X144275664Y-91349500D01*
X144274674Y-91349500D01*
X143825326Y-91349500D01*
X143824000Y-91349500D01*
X143756961Y-91329815D01*
X143711206Y-91277011D01*
X143700000Y-91225500D01*
X143700000Y-80909210D01*
X143702383Y-80885016D01*
X143705500Y-80869347D01*
X143705500Y-80630650D01*
X143702383Y-80614982D01*
X143700000Y-80590789D01*
X143700000Y-80450000D01*
X143500000Y-80250000D01*
X143359211Y-80250000D01*
X143335018Y-80247617D01*
X143319349Y-80244500D01*
X143319348Y-80244500D01*
X142657194Y-80244500D01*
X142590155Y-80224815D01*
X142569513Y-80208181D01*
X142091819Y-79730487D01*
X142058334Y-79669164D01*
X142055500Y-79642806D01*
X142055500Y-79180649D01*
X142036052Y-79082882D01*
X142036051Y-79082881D01*
X142036051Y-79082877D01*
X142014377Y-79030551D01*
X142014377Y-79030550D01*
X141958992Y-78947660D01*
X141911718Y-78900386D01*
X141911716Y-78900383D01*
X141835669Y-78824336D01*
X156349500Y-78824336D01*
X156349500Y-79275673D01*
X156350000Y-79285841D01*
X156350000Y-79664158D01*
X156349500Y-79674336D01*
X156349500Y-80125673D01*
X156350000Y-80135841D01*
X156350000Y-80250000D01*
X156500000Y-80400000D01*
X157450000Y-80400000D01*
X157538207Y-80311792D01*
X157546843Y-80303156D01*
X157580601Y-80280601D01*
X157603156Y-80246843D01*
X157650000Y-80200000D01*
X157650000Y-80135841D01*
X157650500Y-80125673D01*
X157650500Y-79674336D01*
X157650000Y-79664158D01*
X157650000Y-79574500D01*
X157669685Y-79507461D01*
X157722489Y-79461706D01*
X157774000Y-79450500D01*
X158626000Y-79450500D01*
X158693039Y-79470185D01*
X158738794Y-79522989D01*
X158750000Y-79574500D01*
X158750000Y-79650000D01*
X159050000Y-79950000D01*
X159100000Y-80000000D01*
X162590789Y-80000000D01*
X162614982Y-80002383D01*
X162630651Y-80005500D01*
X162630652Y-80005500D01*
X164069349Y-80005500D01*
X164085018Y-80002383D01*
X164109211Y-80000000D01*
X164500000Y-80000000D01*
X164600000Y-79900000D01*
X164600000Y-78900000D01*
X164600000Y-78550000D01*
X164400000Y-78350000D01*
X164109211Y-78350000D01*
X164085018Y-78347617D01*
X164069349Y-78344500D01*
X164069348Y-78344500D01*
X162630652Y-78344500D01*
X162630651Y-78344500D01*
X162614982Y-78347617D01*
X162590789Y-78350000D01*
X159049999Y-78350000D01*
X158786819Y-78613181D01*
X158725496Y-78646666D01*
X158699138Y-78649500D01*
X157650862Y-78649500D01*
X157583823Y-78629815D01*
X157563181Y-78613181D01*
X157500000Y-78550000D01*
X156500000Y-78550000D01*
X156499999Y-78550000D01*
X156350000Y-78699999D01*
X156350000Y-78814158D01*
X156349500Y-78824336D01*
X141835669Y-78824336D01*
X141749426Y-78738094D01*
X141742187Y-78734224D01*
X141669449Y-78685623D01*
X141669448Y-78685622D01*
X141669446Y-78685621D01*
X141617127Y-78663950D01*
X141617117Y-78663947D01*
X141519350Y-78644500D01*
X141519348Y-78644500D01*
X136580652Y-78644500D01*
X136580651Y-78644500D01*
X136564982Y-78647617D01*
X136540789Y-78650000D01*
X134867754Y-78650000D01*
X134800715Y-78630315D01*
X134780073Y-78613681D01*
X132036819Y-75870426D01*
X132003334Y-75809103D01*
X132000500Y-75782745D01*
X132000500Y-74686973D01*
X132020185Y-74619934D01*
X132072989Y-74574179D01*
X132092401Y-74567199D01*
X132109123Y-74562719D01*
X132154452Y-74543942D01*
X132170734Y-74537199D01*
X132170737Y-74537197D01*
X132170743Y-74537195D01*
X132284757Y-74471369D01*
X132337673Y-74430765D01*
X132430765Y-74337673D01*
X132471369Y-74284757D01*
X132537195Y-74170743D01*
X132562719Y-74109123D01*
X132596794Y-73981956D01*
X132605500Y-73915826D01*
X132605500Y-73350000D01*
X132605500Y-73349997D01*
X132605499Y-73349995D01*
X132586052Y-73252228D01*
X132586051Y-73252227D01*
X132586051Y-73252224D01*
X132530666Y-73169334D01*
X132530665Y-73169333D01*
X132447778Y-73113950D01*
X132447771Y-73113947D01*
X132350003Y-73094500D01*
X132350000Y-73094500D01*
X130850000Y-73094500D01*
X130849997Y-73094500D01*
X130752228Y-73113947D01*
X130752221Y-73113950D01*
X130669334Y-73169333D01*
X130669333Y-73169334D01*
X130613950Y-73252221D01*
X130613947Y-73252228D01*
X130594500Y-73349995D01*
X130594500Y-73915826D01*
X130603205Y-73981952D01*
X130637282Y-74109126D01*
X130662800Y-74170734D01*
X130662808Y-74170750D01*
X130728626Y-74284749D01*
X130728637Y-74284765D01*
X130769233Y-74337671D01*
X130769239Y-74337678D01*
X130862321Y-74430760D01*
X130862327Y-74430765D01*
X130915243Y-74471369D01*
X130915250Y-74471373D01*
X131029249Y-74537191D01*
X131029265Y-74537199D01*
X131070337Y-74554211D01*
X131090877Y-74562719D01*
X131107595Y-74567198D01*
X131167254Y-74603563D01*
X131197783Y-74666410D01*
X131199500Y-74686973D01*
X131199500Y-76052726D01*
X131226793Y-76154589D01*
X131253156Y-76200250D01*
X131279520Y-76245913D01*
X131279521Y-76245914D01*
X131279522Y-76245915D01*
X132063681Y-77030073D01*
X132097166Y-77091396D01*
X132100000Y-77117754D01*
X132100000Y-77748638D01*
X132080315Y-77815677D01*
X132063681Y-77836319D01*
X130200000Y-79699999D01*
X130200000Y-79835348D01*
X130199500Y-79842975D01*
X130199500Y-80749138D01*
X130179815Y-80816177D01*
X130163181Y-80836819D01*
X129926319Y-81073681D01*
X129864996Y-81107166D01*
X129838638Y-81110000D01*
X128939999Y-81110000D01*
X128041818Y-82008181D01*
X127980495Y-82041666D01*
X127954137Y-82044500D01*
X127078399Y-82044500D01*
X127011360Y-82024815D01*
X126965605Y-81972011D01*
X126958626Y-81952599D01*
X126941281Y-81887865D01*
X126865515Y-81756635D01*
X126758365Y-81649485D01*
X126673521Y-81600500D01*
X126627136Y-81573719D01*
X126548783Y-81552725D01*
X126480766Y-81534500D01*
X126329234Y-81534500D01*
X126182863Y-81573719D01*
X126051635Y-81649485D01*
X126051632Y-81649487D01*
X125944487Y-81756632D01*
X125944485Y-81756635D01*
X125868719Y-81887863D01*
X125829500Y-82034234D01*
X125829500Y-82120500D01*
X125809815Y-82187539D01*
X125757011Y-82233294D01*
X125705500Y-82244500D01*
X125530650Y-82244500D01*
X125432882Y-82263947D01*
X125432876Y-82263949D01*
X125386182Y-82283290D01*
X125381575Y-82284938D01*
X125297657Y-82341009D01*
X125297656Y-82341010D01*
X124838093Y-82800574D01*
X124834221Y-82807819D01*
X124785621Y-82880553D01*
X124763950Y-82932872D01*
X124763947Y-82932882D01*
X124744500Y-83030649D01*
X124744500Y-83030652D01*
X124744500Y-86469348D01*
X124744500Y-86469350D01*
X124744499Y-86469350D01*
X124763947Y-86567117D01*
X124763948Y-86567118D01*
X124763949Y-86567123D01*
X124779436Y-86604511D01*
X124783290Y-86613816D01*
X124784939Y-86618426D01*
X124841009Y-86702342D01*
X124841010Y-86702343D01*
X125649225Y-87510557D01*
X125649630Y-87510754D01*
X125653810Y-87513100D01*
X125730551Y-87564377D01*
X125782877Y-87586051D01*
X125784235Y-87586321D01*
X125792657Y-87591049D01*
X125812120Y-87610975D01*
X125833811Y-87628454D01*
X125836197Y-87635625D01*
X125841478Y-87641031D01*
X125847078Y-87668317D01*
X125855876Y-87694748D01*
X125854675Y-87705324D01*
X125855527Y-87709474D01*
X125853653Y-87714321D01*
X125851730Y-87731267D01*
X125829500Y-87814232D01*
X125829500Y-87814234D01*
X125829500Y-87965766D01*
X125835390Y-87987747D01*
X125868719Y-88112136D01*
X125898755Y-88164158D01*
X125944485Y-88243365D01*
X126051635Y-88350515D01*
X126182865Y-88426281D01*
X126329234Y-88465500D01*
X126329236Y-88465500D01*
X126480764Y-88465500D01*
X126480766Y-88465500D01*
X126627135Y-88426281D01*
X126758365Y-88350515D01*
X126865515Y-88243365D01*
X126941281Y-88112135D01*
X126958625Y-88047405D01*
X126994989Y-87987747D01*
X127057835Y-87957217D01*
X127078399Y-87955500D01*
X127892806Y-87955500D01*
X127959845Y-87975185D01*
X127980487Y-87991819D01*
X128650575Y-88661907D01*
X128657813Y-88665776D01*
X128671654Y-88675024D01*
X128690446Y-88690446D01*
X128800000Y-88800000D01*
X131398638Y-88800000D01*
X131465677Y-88819685D01*
X131486319Y-88836319D01*
X131713181Y-89063181D01*
X131746666Y-89124504D01*
X131749500Y-89150858D01*
X131749500Y-90197273D01*
X131749500Y-90302727D01*
X131763146Y-90353657D01*
X131776793Y-90404589D01*
X131789739Y-90427011D01*
X131829520Y-90495913D01*
X132554087Y-91220480D01*
X132633174Y-91266141D01*
X132643106Y-91271876D01*
X132645412Y-91273207D01*
X132747273Y-91300500D01*
X132747275Y-91300500D01*
X139433747Y-91300500D01*
X139500786Y-91320185D01*
X139546541Y-91372989D01*
X139556485Y-91442147D01*
X139527460Y-91505703D01*
X139521428Y-91512181D01*
X133949522Y-97084086D01*
X133949518Y-97084092D01*
X133896793Y-97175413D01*
X133888733Y-97205498D01*
X133888732Y-97205500D01*
X133869500Y-97277275D01*
X133869500Y-100232745D01*
X133849815Y-100299784D01*
X133833181Y-100320426D01*
X133791954Y-100361652D01*
X133791951Y-100361657D01*
X133791950Y-100361658D01*
X133785058Y-100375185D01*
X133734352Y-100474698D01*
X133719500Y-100568475D01*
X133719500Y-102281517D01*
X133729730Y-102346104D01*
X133720774Y-102415397D01*
X133675777Y-102468849D01*
X133609026Y-102489488D01*
X133541712Y-102470763D01*
X133519575Y-102453182D01*
X132836819Y-101770426D01*
X132803334Y-101709103D01*
X132800500Y-101682745D01*
X132800500Y-96747275D01*
X132800499Y-96747271D01*
X132791236Y-96712701D01*
X132782955Y-96681793D01*
X132773207Y-96645412D01*
X132720480Y-96554087D01*
X131245913Y-95079520D01*
X131176431Y-95039404D01*
X131154589Y-95026793D01*
X131098102Y-95011658D01*
X131052727Y-94999500D01*
X131052726Y-94999500D01*
X130600862Y-94999500D01*
X130571421Y-94990855D01*
X130541435Y-94984332D01*
X130536419Y-94980577D01*
X130533823Y-94979815D01*
X130513181Y-94963181D01*
X130386319Y-94836319D01*
X130352834Y-94774996D01*
X130350000Y-94748638D01*
X130350000Y-92050000D01*
X130050000Y-91750000D01*
X128019235Y-91750000D01*
X127995042Y-91747617D01*
X127979373Y-91744500D01*
X127979372Y-91744500D01*
X126520628Y-91744500D01*
X126520626Y-91744500D01*
X126422858Y-91763947D01*
X126422848Y-91763950D01*
X126393269Y-91776202D01*
X126388663Y-91777849D01*
X126304745Y-91833921D01*
X126304744Y-91833922D01*
X126031005Y-92107662D01*
X126027133Y-92114907D01*
X125978538Y-92187633D01*
X125978533Y-92187642D01*
X125963949Y-92222852D01*
X125963947Y-92222858D01*
X125944500Y-92320625D01*
X125944500Y-92320628D01*
X125944500Y-94579372D01*
X125947115Y-94592520D01*
X125947617Y-94595040D01*
X125950000Y-94619234D01*
X125950000Y-95348638D01*
X125941355Y-95378078D01*
X125934832Y-95408065D01*
X125931077Y-95413080D01*
X125930315Y-95415677D01*
X125913681Y-95436319D01*
X125886319Y-95463681D01*
X125824996Y-95497166D01*
X125798638Y-95500000D01*
X125349999Y-95500000D01*
X124831819Y-96018181D01*
X124770496Y-96051666D01*
X124744138Y-96054500D01*
X123207042Y-96054500D01*
X123140003Y-96034815D01*
X123096557Y-95986794D01*
X123041233Y-95878213D01*
X123011158Y-95836819D01*
X122939414Y-95738072D01*
X122816928Y-95615586D01*
X122676788Y-95513768D01*
X122522445Y-95435127D01*
X122357701Y-95381598D01*
X122357699Y-95381597D01*
X122357698Y-95381597D01*
X122226271Y-95360781D01*
X122186611Y-95354500D01*
X122013389Y-95354500D01*
X121973728Y-95360781D01*
X121842302Y-95381597D01*
X121842299Y-95381598D01*
X121700995Y-95427511D01*
X121677552Y-95435128D01*
X121523211Y-95513768D01*
X121476562Y-95547661D01*
X121383072Y-95615586D01*
X121383070Y-95615588D01*
X121383069Y-95615588D01*
X121260588Y-95738069D01*
X121260588Y-95738070D01*
X121260586Y-95738072D01*
X121251920Y-95750000D01*
X121158768Y-95878211D01*
X121080128Y-96032552D01*
X121026597Y-96197302D01*
X120999500Y-96368389D01*
X120999500Y-96541610D01*
X121021702Y-96681793D01*
X121026598Y-96712701D01*
X121080127Y-96877445D01*
X121158768Y-97031788D01*
X121260586Y-97171928D01*
X121260588Y-97171930D01*
X121321477Y-97232819D01*
X121354962Y-97294142D01*
X121349978Y-97363834D01*
X121308106Y-97419767D01*
X121242642Y-97444184D01*
X121233796Y-97444500D01*
X120424500Y-97444500D01*
X120357461Y-97424815D01*
X120311706Y-97372011D01*
X120300500Y-97320500D01*
X120300500Y-75002706D01*
X120300618Y-74997297D01*
X120302227Y-74960438D01*
X120318147Y-74595795D01*
X120319087Y-74585064D01*
X120371189Y-74189302D01*
X120373063Y-74178672D01*
X120459463Y-73788950D01*
X120462261Y-73778512D01*
X120582291Y-73397823D01*
X120585979Y-73387691D01*
X120738742Y-73018888D01*
X120743300Y-73009114D01*
X120927617Y-72655045D01*
X120933012Y-72645700D01*
X121147495Y-72309029D01*
X121153685Y-72300189D01*
X121396687Y-71983503D01*
X121403625Y-71975234D01*
X121673304Y-71680932D01*
X121680932Y-71673304D01*
X121975234Y-71403625D01*
X121983503Y-71396687D01*
X122300189Y-71153685D01*
X122309029Y-71147495D01*
X122645700Y-70933012D01*
X122655045Y-70927617D01*
X123009114Y-70743300D01*
X123018888Y-70738742D01*
X123387691Y-70585979D01*
X123397823Y-70582291D01*
X123778521Y-70462258D01*
X123788950Y-70459463D01*
X124178672Y-70373063D01*
X124189302Y-70371189D01*
X124585064Y-70319087D01*
X124595795Y-70318147D01*
X124997297Y-70300617D01*
X125002706Y-70300500D01*
X125047595Y-70300500D01*
X142176000Y-70300500D01*
X142243039Y-70320185D01*
G37*
%TD.AperFunction*%
%TA.AperFunction,Conductor*%
G36*
X155502526Y-111555080D02*
G01*
X155509500Y-111555333D01*
X155518740Y-111555500D01*
X155518762Y-111555500D01*
X156026000Y-111555500D01*
X156034685Y-111558050D01*
X156043647Y-111556762D01*
X156067687Y-111567740D01*
X156093039Y-111575185D01*
X156098966Y-111582025D01*
X156107203Y-111585787D01*
X156121492Y-111608021D01*
X156138794Y-111627989D01*
X156141081Y-111638503D01*
X156144977Y-111644565D01*
X156150000Y-111679500D01*
X156150000Y-111920500D01*
X156130315Y-111987539D01*
X156077511Y-112033294D01*
X156026000Y-112044500D01*
X155518740Y-112044500D01*
X155509500Y-112044667D01*
X155509481Y-112044667D01*
X155509463Y-112044668D01*
X155502523Y-112044919D01*
X155500634Y-112044437D01*
X155498049Y-112045000D01*
X154479000Y-112045000D01*
X154411961Y-112025315D01*
X154366206Y-111972511D01*
X154355000Y-111921000D01*
X154355000Y-111679000D01*
X154374685Y-111611961D01*
X154427489Y-111566206D01*
X154479000Y-111555000D01*
X155498064Y-111555000D01*
X155502526Y-111555080D01*
G37*
%TD.AperFunction*%
%TA.AperFunction,Conductor*%
G36*
X154970140Y-97405185D02*
G01*
X154990782Y-97421819D01*
X157578181Y-100009218D01*
X157611666Y-100070541D01*
X157614500Y-100096899D01*
X157614500Y-104929350D01*
X157617528Y-104940650D01*
X157617529Y-104940653D01*
X157640090Y-105024853D01*
X157640091Y-105024854D01*
X157646322Y-105035646D01*
X157688978Y-105109529D01*
X157689526Y-105110477D01*
X160861868Y-108282819D01*
X160895353Y-108344142D01*
X160890369Y-108413834D01*
X160848497Y-108469767D01*
X160783033Y-108494184D01*
X160774187Y-108494500D01*
X160280650Y-108494500D01*
X160182882Y-108513947D01*
X160182876Y-108513949D01*
X160136182Y-108533290D01*
X160131575Y-108534938D01*
X160047657Y-108591009D01*
X160047656Y-108591010D01*
X159838093Y-108800574D01*
X159834221Y-108807819D01*
X159785621Y-108880553D01*
X159763950Y-108932872D01*
X159763947Y-108932882D01*
X159744500Y-109030649D01*
X159744500Y-109770500D01*
X159724815Y-109837539D01*
X159672011Y-109883294D01*
X159620500Y-109894500D01*
X156830650Y-109894500D01*
X156732882Y-109913947D01*
X156732876Y-109913949D01*
X156686182Y-109933290D01*
X156681575Y-109934938D01*
X156597659Y-109991008D01*
X156501365Y-110087302D01*
X156440041Y-110120786D01*
X156370350Y-110115802D01*
X156353097Y-110107811D01*
X156296135Y-110075912D01*
X156296132Y-110075911D01*
X156296132Y-110075910D01*
X156237945Y-110057005D01*
X156171663Y-110046507D01*
X156158992Y-110044500D01*
X147341008Y-110044500D01*
X147340995Y-110044500D01*
X147325413Y-110045112D01*
X147257652Y-110028074D01*
X147209860Y-109977107D01*
X147197210Y-109908392D01*
X147223718Y-109843746D01*
X147232865Y-109833527D01*
X148823566Y-108242826D01*
X154835703Y-102230687D01*
X154835708Y-102230684D01*
X154845911Y-102220480D01*
X154845913Y-102220480D01*
X154920480Y-102145913D01*
X154973207Y-102054587D01*
X154976428Y-102042568D01*
X154978746Y-102033918D01*
X154986975Y-102003206D01*
X155000501Y-101952727D01*
X155000501Y-101847273D01*
X155000501Y-101839678D01*
X155000500Y-101839660D01*
X155000500Y-98847276D01*
X155000499Y-98847269D01*
X154990803Y-98811082D01*
X154973207Y-98745412D01*
X154920480Y-98654087D01*
X153863574Y-97597181D01*
X153830089Y-97535858D01*
X153835073Y-97466166D01*
X153876945Y-97410233D01*
X153942409Y-97385816D01*
X153951255Y-97385500D01*
X154903101Y-97385500D01*
X154970140Y-97405185D01*
G37*
%TD.AperFunction*%
%TA.AperFunction,Conductor*%
G36*
X137515677Y-97319685D02*
G01*
X137536319Y-97336319D01*
X137643181Y-97443181D01*
X137676666Y-97504504D01*
X137679500Y-97530862D01*
X137679500Y-100232745D01*
X137659815Y-100299784D01*
X137643181Y-100320426D01*
X137601954Y-100361652D01*
X137601951Y-100361657D01*
X137601950Y-100361658D01*
X137595058Y-100375185D01*
X137544352Y-100474698D01*
X137529500Y-100568475D01*
X137529500Y-102281518D01*
X137541313Y-102356104D01*
X137532357Y-102425397D01*
X137487360Y-102478849D01*
X137420608Y-102499487D01*
X137418839Y-102499500D01*
X136210814Y-102499500D01*
X136143775Y-102479815D01*
X136098020Y-102427011D01*
X136088076Y-102357853D01*
X136089197Y-102351308D01*
X136105500Y-102269350D01*
X136105500Y-97495862D01*
X136114144Y-97466421D01*
X136120668Y-97436435D01*
X136124422Y-97431419D01*
X136125185Y-97428823D01*
X136141819Y-97408181D01*
X136213681Y-97336319D01*
X136275004Y-97302834D01*
X136301362Y-97300000D01*
X137448638Y-97300000D01*
X137515677Y-97319685D01*
G37*
%TD.AperFunction*%
%TA.AperFunction,Conductor*%
G36*
X143315677Y-91469685D02*
G01*
X143336319Y-91486319D01*
X143513681Y-91663681D01*
X143547166Y-91725004D01*
X143550000Y-91751362D01*
X143550000Y-92550000D01*
X143650000Y-92650000D01*
X143814158Y-92650000D01*
X143824336Y-92650500D01*
X143825326Y-92650500D01*
X144275664Y-92650500D01*
X144285842Y-92650000D01*
X144664158Y-92650000D01*
X144674336Y-92650500D01*
X145099138Y-92650500D01*
X145128578Y-92659144D01*
X145158565Y-92665668D01*
X145163580Y-92669422D01*
X145166177Y-92670185D01*
X145186819Y-92686819D01*
X145313181Y-92813181D01*
X145346666Y-92874504D01*
X145349500Y-92900862D01*
X145349500Y-93532745D01*
X145329815Y-93599784D01*
X145313181Y-93620426D01*
X141379522Y-97554084D01*
X141379520Y-97554087D01*
X141326791Y-97645413D01*
X141303995Y-97730499D01*
X141303994Y-97730503D01*
X141299500Y-97747272D01*
X141299500Y-100082745D01*
X141279815Y-100149784D01*
X141263181Y-100170426D01*
X138970426Y-102463181D01*
X138943498Y-102477884D01*
X138917680Y-102494477D01*
X138911479Y-102495368D01*
X138909103Y-102496666D01*
X138882745Y-102499500D01*
X138741161Y-102499500D01*
X138674122Y-102479815D01*
X138628367Y-102427011D01*
X138618423Y-102357853D01*
X138618688Y-102356102D01*
X138630499Y-102281524D01*
X138630500Y-102281519D01*
X138630499Y-100568482D01*
X138615646Y-100474696D01*
X138558050Y-100361658D01*
X138558046Y-100361654D01*
X138558045Y-100361652D01*
X138516819Y-100320426D01*
X138483334Y-100259103D01*
X138480500Y-100232745D01*
X138480500Y-94737255D01*
X138500185Y-94670216D01*
X138516819Y-94649574D01*
X141680074Y-91486319D01*
X141741397Y-91452834D01*
X141767755Y-91450000D01*
X143248638Y-91450000D01*
X143315677Y-91469685D01*
G37*
%TD.AperFunction*%
%TA.AperFunction,Conductor*%
G36*
X152040677Y-100644685D02*
G01*
X152061319Y-100661319D01*
X152238181Y-100838181D01*
X152271666Y-100899504D01*
X152274500Y-100925862D01*
X152274500Y-101874138D01*
X152254815Y-101941177D01*
X152238181Y-101961819D01*
X152011319Y-102188681D01*
X151949996Y-102222166D01*
X151923638Y-102225000D01*
X151076362Y-102225000D01*
X151046921Y-102216355D01*
X151016935Y-102209832D01*
X151011919Y-102206077D01*
X151009323Y-102205315D01*
X150988681Y-102188681D01*
X150961319Y-102161319D01*
X150927834Y-102099996D01*
X150925000Y-102073638D01*
X150925000Y-100749500D01*
X150944685Y-100682461D01*
X150997489Y-100636706D01*
X151049000Y-100625500D01*
X151425664Y-100625500D01*
X151435842Y-100625000D01*
X151973638Y-100625000D01*
X152040677Y-100644685D01*
G37*
%TD.AperFunction*%
%TA.AperFunction,Conductor*%
G36*
X149365677Y-95619685D02*
G01*
X149386319Y-95636319D01*
X149558181Y-95808181D01*
X149591666Y-95869504D01*
X149594500Y-95895862D01*
X149594500Y-97869348D01*
X149594500Y-97869350D01*
X149594499Y-97869350D01*
X149613947Y-97967117D01*
X149613948Y-97967118D01*
X149613949Y-97967123D01*
X149633290Y-98013816D01*
X149634939Y-98018426D01*
X149691009Y-98102342D01*
X149691010Y-98102343D01*
X150008181Y-98419513D01*
X150041666Y-98480836D01*
X150044500Y-98507194D01*
X150044500Y-99220500D01*
X150024815Y-99287539D01*
X149972011Y-99333294D01*
X149920500Y-99344500D01*
X149630650Y-99344500D01*
X149532882Y-99363947D01*
X149532876Y-99363949D01*
X149528974Y-99365565D01*
X149526952Y-99366403D01*
X149457483Y-99373872D01*
X149395004Y-99342597D01*
X149359352Y-99282508D01*
X149355500Y-99251842D01*
X149355500Y-99180649D01*
X149336052Y-99082882D01*
X149336051Y-99082881D01*
X149336051Y-99082877D01*
X149316708Y-99036179D01*
X149315060Y-99031572D01*
X149258990Y-98947657D01*
X149258989Y-98947656D01*
X148399426Y-98088094D01*
X148392187Y-98084224D01*
X148319449Y-98035623D01*
X148319448Y-98035622D01*
X148319446Y-98035621D01*
X148267127Y-98013950D01*
X148267117Y-98013947D01*
X148169350Y-97994500D01*
X148169348Y-97994500D01*
X146824000Y-97994500D01*
X146756961Y-97974815D01*
X146711206Y-97922011D01*
X146700000Y-97870500D01*
X146700000Y-96617755D01*
X146719685Y-96550716D01*
X146736319Y-96530074D01*
X147630074Y-95636319D01*
X147691397Y-95602834D01*
X147717755Y-95600000D01*
X149298638Y-95600000D01*
X149365677Y-95619685D01*
G37*
%TD.AperFunction*%
%TA.AperFunction,Conductor*%
G36*
X134249284Y-88819685D02*
G01*
X134269926Y-88836319D01*
X134463681Y-89030074D01*
X134497166Y-89091397D01*
X134500000Y-89117755D01*
X134500000Y-90298638D01*
X134480315Y-90365677D01*
X134463681Y-90386319D01*
X134386819Y-90463181D01*
X134325496Y-90496666D01*
X134299138Y-90499500D01*
X133017255Y-90499500D01*
X132950216Y-90479815D01*
X132929574Y-90463181D01*
X132586819Y-90120426D01*
X132553334Y-90059103D01*
X132550500Y-90032745D01*
X132550500Y-89000862D01*
X132559144Y-88971421D01*
X132565668Y-88941435D01*
X132569422Y-88936419D01*
X132570185Y-88933823D01*
X132586819Y-88913181D01*
X132663681Y-88836319D01*
X132725004Y-88802834D01*
X132751362Y-88800000D01*
X134182245Y-88800000D01*
X134249284Y-88819685D01*
G37*
%TD.AperFunction*%
%TA.AperFunction,Conductor*%
G36*
X133149784Y-79620185D02*
G01*
X133170426Y-79636819D01*
X133363681Y-79830074D01*
X133397166Y-79891397D01*
X133400000Y-79917755D01*
X133400000Y-80948638D01*
X133391355Y-80978078D01*
X133384832Y-81008065D01*
X133381077Y-81013080D01*
X133380315Y-81015677D01*
X133363681Y-81036319D01*
X133286319Y-81113681D01*
X133224996Y-81147166D01*
X133198638Y-81150000D01*
X131301362Y-81150000D01*
X131234323Y-81130315D01*
X131213681Y-81113681D01*
X131036819Y-80936819D01*
X131003334Y-80875496D01*
X131000500Y-80849138D01*
X131000500Y-80117255D01*
X131020185Y-80050216D01*
X131036819Y-80029574D01*
X131429574Y-79636819D01*
X131490897Y-79603334D01*
X131517255Y-79600500D01*
X133082745Y-79600500D01*
X133149784Y-79620185D01*
G37*
%TD.AperFunction*%
%TD*%
%TA.AperFunction,Conductor*%
%TO.N,+3V3*%
G36*
X128714586Y-97314586D02*
G01*
X128885414Y-97485414D01*
X128900000Y-97520628D01*
X128900000Y-99579372D01*
X128885414Y-99614586D01*
X128514586Y-99985414D01*
X128479372Y-100000000D01*
X127020628Y-100000000D01*
X126985414Y-99985414D01*
X126814586Y-99814586D01*
X126800000Y-99779372D01*
X126800000Y-97620628D01*
X126814586Y-97585414D01*
X127085414Y-97314586D01*
X127120628Y-97300000D01*
X128679372Y-97300000D01*
X128714586Y-97314586D01*
G37*
%TD.AperFunction*%
%TD*%
%TA.AperFunction,Conductor*%
%TO.N,+3V3*%
G36*
X130414586Y-102214586D02*
G01*
X130685414Y-102485414D01*
X130700000Y-102520628D01*
X130700000Y-102900000D01*
X131185414Y-103385414D01*
X131200000Y-103420627D01*
X131200000Y-104079372D01*
X131185414Y-104114586D01*
X131014586Y-104285414D01*
X130979372Y-104300000D01*
X129800000Y-104300000D01*
X129500000Y-104600000D01*
X129500000Y-104679372D01*
X129485414Y-104714586D01*
X129414586Y-104785414D01*
X129379372Y-104800000D01*
X128920628Y-104800000D01*
X128885414Y-104785414D01*
X128814586Y-104714586D01*
X128800000Y-104679372D01*
X128800000Y-102420628D01*
X128814586Y-102385414D01*
X128985414Y-102214586D01*
X129020628Y-102200000D01*
X130379372Y-102200000D01*
X130414586Y-102214586D01*
G37*
%TD.AperFunction*%
%TD*%
%TA.AperFunction,Conductor*%
%TO.N,+3V3*%
G36*
X128014586Y-92014586D02*
G01*
X128285414Y-92285414D01*
X128300000Y-92320628D01*
X128300000Y-94579372D01*
X128285414Y-94614586D01*
X128114586Y-94785414D01*
X128079372Y-94800000D01*
X126420628Y-94800000D01*
X126385414Y-94785414D01*
X126214586Y-94614586D01*
X126200000Y-94579372D01*
X126200000Y-92320628D01*
X126214586Y-92285414D01*
X126485414Y-92014586D01*
X126520628Y-92000000D01*
X127979372Y-92000000D01*
X128014586Y-92014586D01*
G37*
%TD.AperFunction*%
%TD*%
M02*
