%TF.GenerationSoftware,KiCad,Pcbnew,9.0.6*%
%TF.CreationDate,2026-01-02T10:14:10+05:30*%
%TF.ProjectId,Main_Controller,4d61696e-5f43-46f6-9e74-726f6c6c6572,rev?*%
%TF.SameCoordinates,Original*%
%TF.FileFunction,Soldermask,Bot*%
%TF.FilePolarity,Negative*%
%FSLAX46Y46*%
G04 Gerber Fmt 4.6, Leading zero omitted, Abs format (unit mm)*
G04 Created by KiCad (PCBNEW 9.0.6) date 2026-01-02 10:14:10*
%MOMM*%
%LPD*%
G01*
G04 APERTURE LIST*
G04 Aperture macros list*
%AMRoundRect*
0 Rectangle with rounded corners*
0 $1 Rounding radius*
0 $2 $3 $4 $5 $6 $7 $8 $9 X,Y pos of 4 corners*
0 Add a 4 corners polygon primitive as box body*
4,1,4,$2,$3,$4,$5,$6,$7,$8,$9,$2,$3,0*
0 Add four circle primitives for the rounded corners*
1,1,$1+$1,$2,$3*
1,1,$1+$1,$4,$5*
1,1,$1+$1,$6,$7*
1,1,$1+$1,$8,$9*
0 Add four rect primitives between the rounded corners*
20,1,$1+$1,$2,$3,$4,$5,0*
20,1,$1+$1,$4,$5,$6,$7,0*
20,1,$1+$1,$6,$7,$8,$9,0*
20,1,$1+$1,$8,$9,$2,$3,0*%
G04 Aperture macros list end*
%ADD10C,1.718000*%
%ADD11RoundRect,0.009000X-0.850000X-0.850000X0.850000X-0.850000X0.850000X0.850000X-0.850000X0.850000X0*%
%ADD12RoundRect,0.252586X-0.626414X-0.851414X0.626414X-0.851414X0.626414X0.851414X-0.626414X0.851414X0*%
%ADD13O,1.758000X2.208000*%
%ADD14C,0.818000*%
%ADD15C,6.418000*%
%ADD16C,0.668000*%
%ADD17O,1.018000X2.118000*%
%ADD18O,1.018000X1.818000*%
%ADD19O,2.118000X1.018000*%
%ADD20O,1.818000X1.018000*%
G04 APERTURE END LIST*
D10*
%TO.C,J5*%
X122100000Y-106615000D03*
X122100000Y-104075000D03*
X122100000Y-101535000D03*
X122100000Y-98995000D03*
X122100000Y-96455000D03*
D11*
X122100000Y-93915000D03*
%TD*%
D12*
%TO.C,J1*%
X144915000Y-126720000D03*
D13*
X147455000Y-126720000D03*
X149995000Y-126720000D03*
X152535000Y-126720000D03*
%TD*%
D11*
%TO.C,J3*%
X178000000Y-80100000D03*
D10*
X178000000Y-82640000D03*
X178000000Y-85180000D03*
X178000000Y-87720000D03*
X178000000Y-90260000D03*
X178000000Y-92800000D03*
%TD*%
D14*
%TO.C,H3*%
X122600000Y-125000000D03*
X123302944Y-123302944D03*
X123302944Y-126697056D03*
X125000000Y-122600000D03*
D15*
X125000000Y-125000000D03*
D14*
X125000000Y-127400000D03*
X126697056Y-123302944D03*
X126697056Y-126697056D03*
X127400000Y-125000000D03*
%TD*%
D16*
%TO.C,J6*%
X132160000Y-123445000D03*
X137940000Y-123445000D03*
D17*
X130730000Y-122945000D03*
D18*
X130730000Y-127125000D03*
D17*
X139370000Y-122945000D03*
D18*
X139370000Y-127125000D03*
%TD*%
D14*
%TO.C,H2*%
X172600000Y-75000000D03*
X173302944Y-73302944D03*
X173302944Y-76697056D03*
X175000000Y-72600000D03*
D15*
X175000000Y-75000000D03*
D14*
X175000000Y-77400000D03*
X176697056Y-73302944D03*
X176697056Y-76697056D03*
X177400000Y-75000000D03*
%TD*%
D16*
%TO.C,J7*%
X126505000Y-111910000D03*
X126505000Y-117690000D03*
D19*
X127005000Y-110480000D03*
D20*
X122825000Y-110480000D03*
D19*
X127005000Y-119120000D03*
D20*
X122825000Y-119120000D03*
%TD*%
D16*
%TO.C,J8*%
X126405000Y-82110000D03*
X126405000Y-87890000D03*
D19*
X126905000Y-80680000D03*
D20*
X122725000Y-80680000D03*
D19*
X126905000Y-89320000D03*
D20*
X122725000Y-89320000D03*
%TD*%
D14*
%TO.C,H4*%
X172600000Y-125000000D03*
X173302944Y-123302944D03*
X173302944Y-126697056D03*
X175000000Y-122600000D03*
D15*
X175000000Y-125000000D03*
D14*
X175000000Y-127400000D03*
X176697056Y-123302944D03*
X176697056Y-126697056D03*
X177400000Y-125000000D03*
%TD*%
D11*
%TO.C,J2*%
X178000000Y-96345000D03*
D10*
X178000000Y-98885000D03*
X178000000Y-101425000D03*
X178000000Y-103965000D03*
X178000000Y-106505000D03*
X178000000Y-109045000D03*
%TD*%
D14*
%TO.C,H1*%
X122600000Y-75000000D03*
X123302944Y-73302944D03*
X123302944Y-76697056D03*
X125000000Y-72600000D03*
D15*
X125000000Y-75000000D03*
D14*
X125000000Y-77400000D03*
X126697056Y-73302944D03*
X126697056Y-76697056D03*
X127400000Y-75000000D03*
%TD*%
D16*
%TO.C,J4*%
X163110000Y-123410000D03*
X168890000Y-123410000D03*
D17*
X161680000Y-122910000D03*
D18*
X161680000Y-127090000D03*
D17*
X170320000Y-122910000D03*
D18*
X170320000Y-127090000D03*
%TD*%
M02*
