%TF.GenerationSoftware,KiCad,Pcbnew,9.0.6*%
%TF.CreationDate,2026-01-02T10:14:10+05:30*%
%TF.ProjectId,Main_Controller,4d61696e-5f43-46f6-9e74-726f6c6c6572,rev?*%
%TF.SameCoordinates,Original*%
%TF.FileFunction,Legend,Top*%
%TF.FilePolarity,Positive*%
%FSLAX46Y46*%
G04 Gerber Fmt 4.6, Leading zero omitted, Abs format (unit mm)*
G04 Created by KiCad (PCBNEW 9.0.6) date 2026-01-02 10:14:10*
%MOMM*%
%LPD*%
G01*
G04 APERTURE LIST*
%ADD10C,0.150000*%
%ADD11C,0.120000*%
%ADD12C,0.127000*%
%ADD13C,0.200000*%
G04 APERTURE END LIST*
D10*
X124141666Y-91054819D02*
X124141666Y-91769104D01*
X124141666Y-91769104D02*
X124094047Y-91911961D01*
X124094047Y-91911961D02*
X123998809Y-92007200D01*
X123998809Y-92007200D02*
X123855952Y-92054819D01*
X123855952Y-92054819D02*
X123760714Y-92054819D01*
X125094047Y-91054819D02*
X124617857Y-91054819D01*
X124617857Y-91054819D02*
X124570238Y-91531009D01*
X124570238Y-91531009D02*
X124617857Y-91483390D01*
X124617857Y-91483390D02*
X124713095Y-91435771D01*
X124713095Y-91435771D02*
X124951190Y-91435771D01*
X124951190Y-91435771D02*
X125046428Y-91483390D01*
X125046428Y-91483390D02*
X125094047Y-91531009D01*
X125094047Y-91531009D02*
X125141666Y-91626247D01*
X125141666Y-91626247D02*
X125141666Y-91864342D01*
X125141666Y-91864342D02*
X125094047Y-91959580D01*
X125094047Y-91959580D02*
X125046428Y-92007200D01*
X125046428Y-92007200D02*
X124951190Y-92054819D01*
X124951190Y-92054819D02*
X124713095Y-92054819D01*
X124713095Y-92054819D02*
X124617857Y-92007200D01*
X124617857Y-92007200D02*
X124570238Y-91959580D01*
X132704819Y-105142857D02*
X132228628Y-105476190D01*
X132704819Y-105714285D02*
X131704819Y-105714285D01*
X131704819Y-105714285D02*
X131704819Y-105333333D01*
X131704819Y-105333333D02*
X131752438Y-105238095D01*
X131752438Y-105238095D02*
X131800057Y-105190476D01*
X131800057Y-105190476D02*
X131895295Y-105142857D01*
X131895295Y-105142857D02*
X132038152Y-105142857D01*
X132038152Y-105142857D02*
X132133390Y-105190476D01*
X132133390Y-105190476D02*
X132181009Y-105238095D01*
X132181009Y-105238095D02*
X132228628Y-105333333D01*
X132228628Y-105333333D02*
X132228628Y-105714285D01*
X131704819Y-104809523D02*
X131704819Y-104190476D01*
X131704819Y-104190476D02*
X132085771Y-104523809D01*
X132085771Y-104523809D02*
X132085771Y-104380952D01*
X132085771Y-104380952D02*
X132133390Y-104285714D01*
X132133390Y-104285714D02*
X132181009Y-104238095D01*
X132181009Y-104238095D02*
X132276247Y-104190476D01*
X132276247Y-104190476D02*
X132514342Y-104190476D01*
X132514342Y-104190476D02*
X132609580Y-104238095D01*
X132609580Y-104238095D02*
X132657200Y-104285714D01*
X132657200Y-104285714D02*
X132704819Y-104380952D01*
X132704819Y-104380952D02*
X132704819Y-104666666D01*
X132704819Y-104666666D02*
X132657200Y-104761904D01*
X132657200Y-104761904D02*
X132609580Y-104809523D01*
X131704819Y-103571428D02*
X131704819Y-103476190D01*
X131704819Y-103476190D02*
X131752438Y-103380952D01*
X131752438Y-103380952D02*
X131800057Y-103333333D01*
X131800057Y-103333333D02*
X131895295Y-103285714D01*
X131895295Y-103285714D02*
X132085771Y-103238095D01*
X132085771Y-103238095D02*
X132323866Y-103238095D01*
X132323866Y-103238095D02*
X132514342Y-103285714D01*
X132514342Y-103285714D02*
X132609580Y-103333333D01*
X132609580Y-103333333D02*
X132657200Y-103380952D01*
X132657200Y-103380952D02*
X132704819Y-103476190D01*
X132704819Y-103476190D02*
X132704819Y-103571428D01*
X132704819Y-103571428D02*
X132657200Y-103666666D01*
X132657200Y-103666666D02*
X132609580Y-103714285D01*
X132609580Y-103714285D02*
X132514342Y-103761904D01*
X132514342Y-103761904D02*
X132323866Y-103809523D01*
X132323866Y-103809523D02*
X132085771Y-103809523D01*
X132085771Y-103809523D02*
X131895295Y-103761904D01*
X131895295Y-103761904D02*
X131800057Y-103714285D01*
X131800057Y-103714285D02*
X131752438Y-103666666D01*
X131752438Y-103666666D02*
X131704819Y-103571428D01*
X124754819Y-104942857D02*
X124278628Y-105276190D01*
X124754819Y-105514285D02*
X123754819Y-105514285D01*
X123754819Y-105514285D02*
X123754819Y-105133333D01*
X123754819Y-105133333D02*
X123802438Y-105038095D01*
X123802438Y-105038095D02*
X123850057Y-104990476D01*
X123850057Y-104990476D02*
X123945295Y-104942857D01*
X123945295Y-104942857D02*
X124088152Y-104942857D01*
X124088152Y-104942857D02*
X124183390Y-104990476D01*
X124183390Y-104990476D02*
X124231009Y-105038095D01*
X124231009Y-105038095D02*
X124278628Y-105133333D01*
X124278628Y-105133333D02*
X124278628Y-105514285D01*
X123850057Y-104561904D02*
X123802438Y-104514285D01*
X123802438Y-104514285D02*
X123754819Y-104419047D01*
X123754819Y-104419047D02*
X123754819Y-104180952D01*
X123754819Y-104180952D02*
X123802438Y-104085714D01*
X123802438Y-104085714D02*
X123850057Y-104038095D01*
X123850057Y-104038095D02*
X123945295Y-103990476D01*
X123945295Y-103990476D02*
X124040533Y-103990476D01*
X124040533Y-103990476D02*
X124183390Y-104038095D01*
X124183390Y-104038095D02*
X124754819Y-104609523D01*
X124754819Y-104609523D02*
X124754819Y-103990476D01*
X124754819Y-103514285D02*
X124754819Y-103323809D01*
X124754819Y-103323809D02*
X124707200Y-103228571D01*
X124707200Y-103228571D02*
X124659580Y-103180952D01*
X124659580Y-103180952D02*
X124516723Y-103085714D01*
X124516723Y-103085714D02*
X124326247Y-103038095D01*
X124326247Y-103038095D02*
X123945295Y-103038095D01*
X123945295Y-103038095D02*
X123850057Y-103085714D01*
X123850057Y-103085714D02*
X123802438Y-103133333D01*
X123802438Y-103133333D02*
X123754819Y-103228571D01*
X123754819Y-103228571D02*
X123754819Y-103419047D01*
X123754819Y-103419047D02*
X123802438Y-103514285D01*
X123802438Y-103514285D02*
X123850057Y-103561904D01*
X123850057Y-103561904D02*
X123945295Y-103609523D01*
X123945295Y-103609523D02*
X124183390Y-103609523D01*
X124183390Y-103609523D02*
X124278628Y-103561904D01*
X124278628Y-103561904D02*
X124326247Y-103514285D01*
X124326247Y-103514285D02*
X124373866Y-103419047D01*
X124373866Y-103419047D02*
X124373866Y-103228571D01*
X124373866Y-103228571D02*
X124326247Y-103133333D01*
X124326247Y-103133333D02*
X124278628Y-103085714D01*
X124278628Y-103085714D02*
X124183390Y-103038095D01*
X131954819Y-98692857D02*
X131478628Y-99026190D01*
X131954819Y-99264285D02*
X130954819Y-99264285D01*
X130954819Y-99264285D02*
X130954819Y-98883333D01*
X130954819Y-98883333D02*
X131002438Y-98788095D01*
X131002438Y-98788095D02*
X131050057Y-98740476D01*
X131050057Y-98740476D02*
X131145295Y-98692857D01*
X131145295Y-98692857D02*
X131288152Y-98692857D01*
X131288152Y-98692857D02*
X131383390Y-98740476D01*
X131383390Y-98740476D02*
X131431009Y-98788095D01*
X131431009Y-98788095D02*
X131478628Y-98883333D01*
X131478628Y-98883333D02*
X131478628Y-99264285D01*
X131050057Y-98311904D02*
X131002438Y-98264285D01*
X131002438Y-98264285D02*
X130954819Y-98169047D01*
X130954819Y-98169047D02*
X130954819Y-97930952D01*
X130954819Y-97930952D02*
X131002438Y-97835714D01*
X131002438Y-97835714D02*
X131050057Y-97788095D01*
X131050057Y-97788095D02*
X131145295Y-97740476D01*
X131145295Y-97740476D02*
X131240533Y-97740476D01*
X131240533Y-97740476D02*
X131383390Y-97788095D01*
X131383390Y-97788095D02*
X131954819Y-98359523D01*
X131954819Y-98359523D02*
X131954819Y-97740476D01*
X131383390Y-97169047D02*
X131335771Y-97264285D01*
X131335771Y-97264285D02*
X131288152Y-97311904D01*
X131288152Y-97311904D02*
X131192914Y-97359523D01*
X131192914Y-97359523D02*
X131145295Y-97359523D01*
X131145295Y-97359523D02*
X131050057Y-97311904D01*
X131050057Y-97311904D02*
X131002438Y-97264285D01*
X131002438Y-97264285D02*
X130954819Y-97169047D01*
X130954819Y-97169047D02*
X130954819Y-96978571D01*
X130954819Y-96978571D02*
X131002438Y-96883333D01*
X131002438Y-96883333D02*
X131050057Y-96835714D01*
X131050057Y-96835714D02*
X131145295Y-96788095D01*
X131145295Y-96788095D02*
X131192914Y-96788095D01*
X131192914Y-96788095D02*
X131288152Y-96835714D01*
X131288152Y-96835714D02*
X131335771Y-96883333D01*
X131335771Y-96883333D02*
X131383390Y-96978571D01*
X131383390Y-96978571D02*
X131383390Y-97169047D01*
X131383390Y-97169047D02*
X131431009Y-97264285D01*
X131431009Y-97264285D02*
X131478628Y-97311904D01*
X131478628Y-97311904D02*
X131573866Y-97359523D01*
X131573866Y-97359523D02*
X131764342Y-97359523D01*
X131764342Y-97359523D02*
X131859580Y-97311904D01*
X131859580Y-97311904D02*
X131907200Y-97264285D01*
X131907200Y-97264285D02*
X131954819Y-97169047D01*
X131954819Y-97169047D02*
X131954819Y-96978571D01*
X131954819Y-96978571D02*
X131907200Y-96883333D01*
X131907200Y-96883333D02*
X131859580Y-96835714D01*
X131859580Y-96835714D02*
X131764342Y-96788095D01*
X131764342Y-96788095D02*
X131573866Y-96788095D01*
X131573866Y-96788095D02*
X131478628Y-96835714D01*
X131478628Y-96835714D02*
X131431009Y-96883333D01*
X131431009Y-96883333D02*
X131383390Y-96978571D01*
X124804819Y-101142857D02*
X124328628Y-101476190D01*
X124804819Y-101714285D02*
X123804819Y-101714285D01*
X123804819Y-101714285D02*
X123804819Y-101333333D01*
X123804819Y-101333333D02*
X123852438Y-101238095D01*
X123852438Y-101238095D02*
X123900057Y-101190476D01*
X123900057Y-101190476D02*
X123995295Y-101142857D01*
X123995295Y-101142857D02*
X124138152Y-101142857D01*
X124138152Y-101142857D02*
X124233390Y-101190476D01*
X124233390Y-101190476D02*
X124281009Y-101238095D01*
X124281009Y-101238095D02*
X124328628Y-101333333D01*
X124328628Y-101333333D02*
X124328628Y-101714285D01*
X123900057Y-100761904D02*
X123852438Y-100714285D01*
X123852438Y-100714285D02*
X123804819Y-100619047D01*
X123804819Y-100619047D02*
X123804819Y-100380952D01*
X123804819Y-100380952D02*
X123852438Y-100285714D01*
X123852438Y-100285714D02*
X123900057Y-100238095D01*
X123900057Y-100238095D02*
X123995295Y-100190476D01*
X123995295Y-100190476D02*
X124090533Y-100190476D01*
X124090533Y-100190476D02*
X124233390Y-100238095D01*
X124233390Y-100238095D02*
X124804819Y-100809523D01*
X124804819Y-100809523D02*
X124804819Y-100190476D01*
X123804819Y-99857142D02*
X123804819Y-99190476D01*
X123804819Y-99190476D02*
X124804819Y-99619047D01*
X128707142Y-91754819D02*
X128373809Y-91278628D01*
X128135714Y-91754819D02*
X128135714Y-90754819D01*
X128135714Y-90754819D02*
X128516666Y-90754819D01*
X128516666Y-90754819D02*
X128611904Y-90802438D01*
X128611904Y-90802438D02*
X128659523Y-90850057D01*
X128659523Y-90850057D02*
X128707142Y-90945295D01*
X128707142Y-90945295D02*
X128707142Y-91088152D01*
X128707142Y-91088152D02*
X128659523Y-91183390D01*
X128659523Y-91183390D02*
X128611904Y-91231009D01*
X128611904Y-91231009D02*
X128516666Y-91278628D01*
X128516666Y-91278628D02*
X128135714Y-91278628D01*
X129088095Y-90850057D02*
X129135714Y-90802438D01*
X129135714Y-90802438D02*
X129230952Y-90754819D01*
X129230952Y-90754819D02*
X129469047Y-90754819D01*
X129469047Y-90754819D02*
X129564285Y-90802438D01*
X129564285Y-90802438D02*
X129611904Y-90850057D01*
X129611904Y-90850057D02*
X129659523Y-90945295D01*
X129659523Y-90945295D02*
X129659523Y-91040533D01*
X129659523Y-91040533D02*
X129611904Y-91183390D01*
X129611904Y-91183390D02*
X129040476Y-91754819D01*
X129040476Y-91754819D02*
X129659523Y-91754819D01*
X130516666Y-90754819D02*
X130326190Y-90754819D01*
X130326190Y-90754819D02*
X130230952Y-90802438D01*
X130230952Y-90802438D02*
X130183333Y-90850057D01*
X130183333Y-90850057D02*
X130088095Y-90992914D01*
X130088095Y-90992914D02*
X130040476Y-91183390D01*
X130040476Y-91183390D02*
X130040476Y-91564342D01*
X130040476Y-91564342D02*
X130088095Y-91659580D01*
X130088095Y-91659580D02*
X130135714Y-91707200D01*
X130135714Y-91707200D02*
X130230952Y-91754819D01*
X130230952Y-91754819D02*
X130421428Y-91754819D01*
X130421428Y-91754819D02*
X130516666Y-91707200D01*
X130516666Y-91707200D02*
X130564285Y-91659580D01*
X130564285Y-91659580D02*
X130611904Y-91564342D01*
X130611904Y-91564342D02*
X130611904Y-91326247D01*
X130611904Y-91326247D02*
X130564285Y-91231009D01*
X130564285Y-91231009D02*
X130516666Y-91183390D01*
X130516666Y-91183390D02*
X130421428Y-91135771D01*
X130421428Y-91135771D02*
X130230952Y-91135771D01*
X130230952Y-91135771D02*
X130135714Y-91183390D01*
X130135714Y-91183390D02*
X130088095Y-91231009D01*
X130088095Y-91231009D02*
X130040476Y-91326247D01*
X126254819Y-94942857D02*
X125778628Y-95276190D01*
X126254819Y-95514285D02*
X125254819Y-95514285D01*
X125254819Y-95514285D02*
X125254819Y-95133333D01*
X125254819Y-95133333D02*
X125302438Y-95038095D01*
X125302438Y-95038095D02*
X125350057Y-94990476D01*
X125350057Y-94990476D02*
X125445295Y-94942857D01*
X125445295Y-94942857D02*
X125588152Y-94942857D01*
X125588152Y-94942857D02*
X125683390Y-94990476D01*
X125683390Y-94990476D02*
X125731009Y-95038095D01*
X125731009Y-95038095D02*
X125778628Y-95133333D01*
X125778628Y-95133333D02*
X125778628Y-95514285D01*
X125350057Y-94561904D02*
X125302438Y-94514285D01*
X125302438Y-94514285D02*
X125254819Y-94419047D01*
X125254819Y-94419047D02*
X125254819Y-94180952D01*
X125254819Y-94180952D02*
X125302438Y-94085714D01*
X125302438Y-94085714D02*
X125350057Y-94038095D01*
X125350057Y-94038095D02*
X125445295Y-93990476D01*
X125445295Y-93990476D02*
X125540533Y-93990476D01*
X125540533Y-93990476D02*
X125683390Y-94038095D01*
X125683390Y-94038095D02*
X126254819Y-94609523D01*
X126254819Y-94609523D02*
X126254819Y-93990476D01*
X125254819Y-93085714D02*
X125254819Y-93561904D01*
X125254819Y-93561904D02*
X125731009Y-93609523D01*
X125731009Y-93609523D02*
X125683390Y-93561904D01*
X125683390Y-93561904D02*
X125635771Y-93466666D01*
X125635771Y-93466666D02*
X125635771Y-93228571D01*
X125635771Y-93228571D02*
X125683390Y-93133333D01*
X125683390Y-93133333D02*
X125731009Y-93085714D01*
X125731009Y-93085714D02*
X125826247Y-93038095D01*
X125826247Y-93038095D02*
X126064342Y-93038095D01*
X126064342Y-93038095D02*
X126159580Y-93085714D01*
X126159580Y-93085714D02*
X126207200Y-93133333D01*
X126207200Y-93133333D02*
X126254819Y-93228571D01*
X126254819Y-93228571D02*
X126254819Y-93466666D01*
X126254819Y-93466666D02*
X126207200Y-93561904D01*
X126207200Y-93561904D02*
X126159580Y-93609523D01*
X128800057Y-107995238D02*
X128752438Y-108090476D01*
X128752438Y-108090476D02*
X128657200Y-108185714D01*
X128657200Y-108185714D02*
X128514342Y-108328571D01*
X128514342Y-108328571D02*
X128466723Y-108423809D01*
X128466723Y-108423809D02*
X128466723Y-108519047D01*
X128704819Y-108471428D02*
X128657200Y-108566666D01*
X128657200Y-108566666D02*
X128561961Y-108661904D01*
X128561961Y-108661904D02*
X128371485Y-108709523D01*
X128371485Y-108709523D02*
X128038152Y-108709523D01*
X128038152Y-108709523D02*
X127847676Y-108661904D01*
X127847676Y-108661904D02*
X127752438Y-108566666D01*
X127752438Y-108566666D02*
X127704819Y-108471428D01*
X127704819Y-108471428D02*
X127704819Y-108280952D01*
X127704819Y-108280952D02*
X127752438Y-108185714D01*
X127752438Y-108185714D02*
X127847676Y-108090476D01*
X127847676Y-108090476D02*
X128038152Y-108042857D01*
X128038152Y-108042857D02*
X128371485Y-108042857D01*
X128371485Y-108042857D02*
X128561961Y-108090476D01*
X128561961Y-108090476D02*
X128657200Y-108185714D01*
X128657200Y-108185714D02*
X128704819Y-108280952D01*
X128704819Y-108280952D02*
X128704819Y-108471428D01*
X127704819Y-107709523D02*
X127704819Y-107090476D01*
X127704819Y-107090476D02*
X128085771Y-107423809D01*
X128085771Y-107423809D02*
X128085771Y-107280952D01*
X128085771Y-107280952D02*
X128133390Y-107185714D01*
X128133390Y-107185714D02*
X128181009Y-107138095D01*
X128181009Y-107138095D02*
X128276247Y-107090476D01*
X128276247Y-107090476D02*
X128514342Y-107090476D01*
X128514342Y-107090476D02*
X128609580Y-107138095D01*
X128609580Y-107138095D02*
X128657200Y-107185714D01*
X128657200Y-107185714D02*
X128704819Y-107280952D01*
X128704819Y-107280952D02*
X128704819Y-107566666D01*
X128704819Y-107566666D02*
X128657200Y-107661904D01*
X128657200Y-107661904D02*
X128609580Y-107709523D01*
X131504761Y-101200057D02*
X131409523Y-101152438D01*
X131409523Y-101152438D02*
X131314285Y-101057200D01*
X131314285Y-101057200D02*
X131171428Y-100914342D01*
X131171428Y-100914342D02*
X131076190Y-100866723D01*
X131076190Y-100866723D02*
X130980952Y-100866723D01*
X131028571Y-101104819D02*
X130933333Y-101057200D01*
X130933333Y-101057200D02*
X130838095Y-100961961D01*
X130838095Y-100961961D02*
X130790476Y-100771485D01*
X130790476Y-100771485D02*
X130790476Y-100438152D01*
X130790476Y-100438152D02*
X130838095Y-100247676D01*
X130838095Y-100247676D02*
X130933333Y-100152438D01*
X130933333Y-100152438D02*
X131028571Y-100104819D01*
X131028571Y-100104819D02*
X131219047Y-100104819D01*
X131219047Y-100104819D02*
X131314285Y-100152438D01*
X131314285Y-100152438D02*
X131409523Y-100247676D01*
X131409523Y-100247676D02*
X131457142Y-100438152D01*
X131457142Y-100438152D02*
X131457142Y-100771485D01*
X131457142Y-100771485D02*
X131409523Y-100961961D01*
X131409523Y-100961961D02*
X131314285Y-101057200D01*
X131314285Y-101057200D02*
X131219047Y-101104819D01*
X131219047Y-101104819D02*
X131028571Y-101104819D01*
X131838095Y-100200057D02*
X131885714Y-100152438D01*
X131885714Y-100152438D02*
X131980952Y-100104819D01*
X131980952Y-100104819D02*
X132219047Y-100104819D01*
X132219047Y-100104819D02*
X132314285Y-100152438D01*
X132314285Y-100152438D02*
X132361904Y-100200057D01*
X132361904Y-100200057D02*
X132409523Y-100295295D01*
X132409523Y-100295295D02*
X132409523Y-100390533D01*
X132409523Y-100390533D02*
X132361904Y-100533390D01*
X132361904Y-100533390D02*
X131790476Y-101104819D01*
X131790476Y-101104819D02*
X132409523Y-101104819D01*
X131554761Y-96200057D02*
X131459523Y-96152438D01*
X131459523Y-96152438D02*
X131364285Y-96057200D01*
X131364285Y-96057200D02*
X131221428Y-95914342D01*
X131221428Y-95914342D02*
X131126190Y-95866723D01*
X131126190Y-95866723D02*
X131030952Y-95866723D01*
X131078571Y-96104819D02*
X130983333Y-96057200D01*
X130983333Y-96057200D02*
X130888095Y-95961961D01*
X130888095Y-95961961D02*
X130840476Y-95771485D01*
X130840476Y-95771485D02*
X130840476Y-95438152D01*
X130840476Y-95438152D02*
X130888095Y-95247676D01*
X130888095Y-95247676D02*
X130983333Y-95152438D01*
X130983333Y-95152438D02*
X131078571Y-95104819D01*
X131078571Y-95104819D02*
X131269047Y-95104819D01*
X131269047Y-95104819D02*
X131364285Y-95152438D01*
X131364285Y-95152438D02*
X131459523Y-95247676D01*
X131459523Y-95247676D02*
X131507142Y-95438152D01*
X131507142Y-95438152D02*
X131507142Y-95771485D01*
X131507142Y-95771485D02*
X131459523Y-95961961D01*
X131459523Y-95961961D02*
X131364285Y-96057200D01*
X131364285Y-96057200D02*
X131269047Y-96104819D01*
X131269047Y-96104819D02*
X131078571Y-96104819D01*
X132459523Y-96104819D02*
X131888095Y-96104819D01*
X132173809Y-96104819D02*
X132173809Y-95104819D01*
X132173809Y-95104819D02*
X132078571Y-95247676D01*
X132078571Y-95247676D02*
X131983333Y-95342914D01*
X131983333Y-95342914D02*
X131888095Y-95390533D01*
X168957142Y-118729819D02*
X168623809Y-118253628D01*
X168385714Y-118729819D02*
X168385714Y-117729819D01*
X168385714Y-117729819D02*
X168766666Y-117729819D01*
X168766666Y-117729819D02*
X168861904Y-117777438D01*
X168861904Y-117777438D02*
X168909523Y-117825057D01*
X168909523Y-117825057D02*
X168957142Y-117920295D01*
X168957142Y-117920295D02*
X168957142Y-118063152D01*
X168957142Y-118063152D02*
X168909523Y-118158390D01*
X168909523Y-118158390D02*
X168861904Y-118206009D01*
X168861904Y-118206009D02*
X168766666Y-118253628D01*
X168766666Y-118253628D02*
X168385714Y-118253628D01*
X169338095Y-117825057D02*
X169385714Y-117777438D01*
X169385714Y-117777438D02*
X169480952Y-117729819D01*
X169480952Y-117729819D02*
X169719047Y-117729819D01*
X169719047Y-117729819D02*
X169814285Y-117777438D01*
X169814285Y-117777438D02*
X169861904Y-117825057D01*
X169861904Y-117825057D02*
X169909523Y-117920295D01*
X169909523Y-117920295D02*
X169909523Y-118015533D01*
X169909523Y-118015533D02*
X169861904Y-118158390D01*
X169861904Y-118158390D02*
X169290476Y-118729819D01*
X169290476Y-118729819D02*
X169909523Y-118729819D01*
X170528571Y-117729819D02*
X170623809Y-117729819D01*
X170623809Y-117729819D02*
X170719047Y-117777438D01*
X170719047Y-117777438D02*
X170766666Y-117825057D01*
X170766666Y-117825057D02*
X170814285Y-117920295D01*
X170814285Y-117920295D02*
X170861904Y-118110771D01*
X170861904Y-118110771D02*
X170861904Y-118348866D01*
X170861904Y-118348866D02*
X170814285Y-118539342D01*
X170814285Y-118539342D02*
X170766666Y-118634580D01*
X170766666Y-118634580D02*
X170719047Y-118682200D01*
X170719047Y-118682200D02*
X170623809Y-118729819D01*
X170623809Y-118729819D02*
X170528571Y-118729819D01*
X170528571Y-118729819D02*
X170433333Y-118682200D01*
X170433333Y-118682200D02*
X170385714Y-118634580D01*
X170385714Y-118634580D02*
X170338095Y-118539342D01*
X170338095Y-118539342D02*
X170290476Y-118348866D01*
X170290476Y-118348866D02*
X170290476Y-118110771D01*
X170290476Y-118110771D02*
X170338095Y-117920295D01*
X170338095Y-117920295D02*
X170385714Y-117825057D01*
X170385714Y-117825057D02*
X170433333Y-117777438D01*
X170433333Y-117777438D02*
X170528571Y-117729819D01*
X160832142Y-119104819D02*
X160498809Y-118628628D01*
X160260714Y-119104819D02*
X160260714Y-118104819D01*
X160260714Y-118104819D02*
X160641666Y-118104819D01*
X160641666Y-118104819D02*
X160736904Y-118152438D01*
X160736904Y-118152438D02*
X160784523Y-118200057D01*
X160784523Y-118200057D02*
X160832142Y-118295295D01*
X160832142Y-118295295D02*
X160832142Y-118438152D01*
X160832142Y-118438152D02*
X160784523Y-118533390D01*
X160784523Y-118533390D02*
X160736904Y-118581009D01*
X160736904Y-118581009D02*
X160641666Y-118628628D01*
X160641666Y-118628628D02*
X160260714Y-118628628D01*
X161784523Y-119104819D02*
X161213095Y-119104819D01*
X161498809Y-119104819D02*
X161498809Y-118104819D01*
X161498809Y-118104819D02*
X161403571Y-118247676D01*
X161403571Y-118247676D02*
X161308333Y-118342914D01*
X161308333Y-118342914D02*
X161213095Y-118390533D01*
X162117857Y-118104819D02*
X162736904Y-118104819D01*
X162736904Y-118104819D02*
X162403571Y-118485771D01*
X162403571Y-118485771D02*
X162546428Y-118485771D01*
X162546428Y-118485771D02*
X162641666Y-118533390D01*
X162641666Y-118533390D02*
X162689285Y-118581009D01*
X162689285Y-118581009D02*
X162736904Y-118676247D01*
X162736904Y-118676247D02*
X162736904Y-118914342D01*
X162736904Y-118914342D02*
X162689285Y-119009580D01*
X162689285Y-119009580D02*
X162641666Y-119057200D01*
X162641666Y-119057200D02*
X162546428Y-119104819D01*
X162546428Y-119104819D02*
X162260714Y-119104819D01*
X162260714Y-119104819D02*
X162165476Y-119057200D01*
X162165476Y-119057200D02*
X162117857Y-119009580D01*
X152084580Y-112766666D02*
X152132200Y-112814285D01*
X152132200Y-112814285D02*
X152179819Y-112957142D01*
X152179819Y-112957142D02*
X152179819Y-113052380D01*
X152179819Y-113052380D02*
X152132200Y-113195237D01*
X152132200Y-113195237D02*
X152036961Y-113290475D01*
X152036961Y-113290475D02*
X151941723Y-113338094D01*
X151941723Y-113338094D02*
X151751247Y-113385713D01*
X151751247Y-113385713D02*
X151608390Y-113385713D01*
X151608390Y-113385713D02*
X151417914Y-113338094D01*
X151417914Y-113338094D02*
X151322676Y-113290475D01*
X151322676Y-113290475D02*
X151227438Y-113195237D01*
X151227438Y-113195237D02*
X151179819Y-113052380D01*
X151179819Y-113052380D02*
X151179819Y-112957142D01*
X151179819Y-112957142D02*
X151227438Y-112814285D01*
X151227438Y-112814285D02*
X151275057Y-112766666D01*
X151179819Y-111861904D02*
X151179819Y-112338094D01*
X151179819Y-112338094D02*
X151656009Y-112385713D01*
X151656009Y-112385713D02*
X151608390Y-112338094D01*
X151608390Y-112338094D02*
X151560771Y-112242856D01*
X151560771Y-112242856D02*
X151560771Y-112004761D01*
X151560771Y-112004761D02*
X151608390Y-111909523D01*
X151608390Y-111909523D02*
X151656009Y-111861904D01*
X151656009Y-111861904D02*
X151751247Y-111814285D01*
X151751247Y-111814285D02*
X151989342Y-111814285D01*
X151989342Y-111814285D02*
X152084580Y-111861904D01*
X152084580Y-111861904D02*
X152132200Y-111909523D01*
X152132200Y-111909523D02*
X152179819Y-112004761D01*
X152179819Y-112004761D02*
X152179819Y-112242856D01*
X152179819Y-112242856D02*
X152132200Y-112338094D01*
X152132200Y-112338094D02*
X152084580Y-112385713D01*
X159884580Y-81266666D02*
X159932200Y-81314285D01*
X159932200Y-81314285D02*
X159979819Y-81457142D01*
X159979819Y-81457142D02*
X159979819Y-81552380D01*
X159979819Y-81552380D02*
X159932200Y-81695237D01*
X159932200Y-81695237D02*
X159836961Y-81790475D01*
X159836961Y-81790475D02*
X159741723Y-81838094D01*
X159741723Y-81838094D02*
X159551247Y-81885713D01*
X159551247Y-81885713D02*
X159408390Y-81885713D01*
X159408390Y-81885713D02*
X159217914Y-81838094D01*
X159217914Y-81838094D02*
X159122676Y-81790475D01*
X159122676Y-81790475D02*
X159027438Y-81695237D01*
X159027438Y-81695237D02*
X158979819Y-81552380D01*
X158979819Y-81552380D02*
X158979819Y-81457142D01*
X158979819Y-81457142D02*
X159027438Y-81314285D01*
X159027438Y-81314285D02*
X159075057Y-81266666D01*
X158979819Y-80409523D02*
X158979819Y-80599999D01*
X158979819Y-80599999D02*
X159027438Y-80695237D01*
X159027438Y-80695237D02*
X159075057Y-80742856D01*
X159075057Y-80742856D02*
X159217914Y-80838094D01*
X159217914Y-80838094D02*
X159408390Y-80885713D01*
X159408390Y-80885713D02*
X159789342Y-80885713D01*
X159789342Y-80885713D02*
X159884580Y-80838094D01*
X159884580Y-80838094D02*
X159932200Y-80790475D01*
X159932200Y-80790475D02*
X159979819Y-80695237D01*
X159979819Y-80695237D02*
X159979819Y-80504761D01*
X159979819Y-80504761D02*
X159932200Y-80409523D01*
X159932200Y-80409523D02*
X159884580Y-80361904D01*
X159884580Y-80361904D02*
X159789342Y-80314285D01*
X159789342Y-80314285D02*
X159551247Y-80314285D01*
X159551247Y-80314285D02*
X159456009Y-80361904D01*
X159456009Y-80361904D02*
X159408390Y-80409523D01*
X159408390Y-80409523D02*
X159360771Y-80504761D01*
X159360771Y-80504761D02*
X159360771Y-80695237D01*
X159360771Y-80695237D02*
X159408390Y-80790475D01*
X159408390Y-80790475D02*
X159456009Y-80838094D01*
X159456009Y-80838094D02*
X159551247Y-80885713D01*
X170207142Y-115704819D02*
X169873809Y-115228628D01*
X169635714Y-115704819D02*
X169635714Y-114704819D01*
X169635714Y-114704819D02*
X170016666Y-114704819D01*
X170016666Y-114704819D02*
X170111904Y-114752438D01*
X170111904Y-114752438D02*
X170159523Y-114800057D01*
X170159523Y-114800057D02*
X170207142Y-114895295D01*
X170207142Y-114895295D02*
X170207142Y-115038152D01*
X170207142Y-115038152D02*
X170159523Y-115133390D01*
X170159523Y-115133390D02*
X170111904Y-115181009D01*
X170111904Y-115181009D02*
X170016666Y-115228628D01*
X170016666Y-115228628D02*
X169635714Y-115228628D01*
X170588095Y-114800057D02*
X170635714Y-114752438D01*
X170635714Y-114752438D02*
X170730952Y-114704819D01*
X170730952Y-114704819D02*
X170969047Y-114704819D01*
X170969047Y-114704819D02*
X171064285Y-114752438D01*
X171064285Y-114752438D02*
X171111904Y-114800057D01*
X171111904Y-114800057D02*
X171159523Y-114895295D01*
X171159523Y-114895295D02*
X171159523Y-114990533D01*
X171159523Y-114990533D02*
X171111904Y-115133390D01*
X171111904Y-115133390D02*
X170540476Y-115704819D01*
X170540476Y-115704819D02*
X171159523Y-115704819D01*
X171492857Y-114704819D02*
X172111904Y-114704819D01*
X172111904Y-114704819D02*
X171778571Y-115085771D01*
X171778571Y-115085771D02*
X171921428Y-115085771D01*
X171921428Y-115085771D02*
X172016666Y-115133390D01*
X172016666Y-115133390D02*
X172064285Y-115181009D01*
X172064285Y-115181009D02*
X172111904Y-115276247D01*
X172111904Y-115276247D02*
X172111904Y-115514342D01*
X172111904Y-115514342D02*
X172064285Y-115609580D01*
X172064285Y-115609580D02*
X172016666Y-115657200D01*
X172016666Y-115657200D02*
X171921428Y-115704819D01*
X171921428Y-115704819D02*
X171635714Y-115704819D01*
X171635714Y-115704819D02*
X171540476Y-115657200D01*
X171540476Y-115657200D02*
X171492857Y-115609580D01*
X129959580Y-78267857D02*
X130007200Y-78315476D01*
X130007200Y-78315476D02*
X130054819Y-78458333D01*
X130054819Y-78458333D02*
X130054819Y-78553571D01*
X130054819Y-78553571D02*
X130007200Y-78696428D01*
X130007200Y-78696428D02*
X129911961Y-78791666D01*
X129911961Y-78791666D02*
X129816723Y-78839285D01*
X129816723Y-78839285D02*
X129626247Y-78886904D01*
X129626247Y-78886904D02*
X129483390Y-78886904D01*
X129483390Y-78886904D02*
X129292914Y-78839285D01*
X129292914Y-78839285D02*
X129197676Y-78791666D01*
X129197676Y-78791666D02*
X129102438Y-78696428D01*
X129102438Y-78696428D02*
X129054819Y-78553571D01*
X129054819Y-78553571D02*
X129054819Y-78458333D01*
X129054819Y-78458333D02*
X129102438Y-78315476D01*
X129102438Y-78315476D02*
X129150057Y-78267857D01*
X129150057Y-77886904D02*
X129102438Y-77839285D01*
X129102438Y-77839285D02*
X129054819Y-77744047D01*
X129054819Y-77744047D02*
X129054819Y-77505952D01*
X129054819Y-77505952D02*
X129102438Y-77410714D01*
X129102438Y-77410714D02*
X129150057Y-77363095D01*
X129150057Y-77363095D02*
X129245295Y-77315476D01*
X129245295Y-77315476D02*
X129340533Y-77315476D01*
X129340533Y-77315476D02*
X129483390Y-77363095D01*
X129483390Y-77363095D02*
X130054819Y-77934523D01*
X130054819Y-77934523D02*
X130054819Y-77315476D01*
X129054819Y-76696428D02*
X129054819Y-76601190D01*
X129054819Y-76601190D02*
X129102438Y-76505952D01*
X129102438Y-76505952D02*
X129150057Y-76458333D01*
X129150057Y-76458333D02*
X129245295Y-76410714D01*
X129245295Y-76410714D02*
X129435771Y-76363095D01*
X129435771Y-76363095D02*
X129673866Y-76363095D01*
X129673866Y-76363095D02*
X129864342Y-76410714D01*
X129864342Y-76410714D02*
X129959580Y-76458333D01*
X129959580Y-76458333D02*
X130007200Y-76505952D01*
X130007200Y-76505952D02*
X130054819Y-76601190D01*
X130054819Y-76601190D02*
X130054819Y-76696428D01*
X130054819Y-76696428D02*
X130007200Y-76791666D01*
X130007200Y-76791666D02*
X129959580Y-76839285D01*
X129959580Y-76839285D02*
X129864342Y-76886904D01*
X129864342Y-76886904D02*
X129673866Y-76934523D01*
X129673866Y-76934523D02*
X129435771Y-76934523D01*
X129435771Y-76934523D02*
X129245295Y-76886904D01*
X129245295Y-76886904D02*
X129150057Y-76839285D01*
X129150057Y-76839285D02*
X129102438Y-76791666D01*
X129102438Y-76791666D02*
X129054819Y-76696428D01*
X160789580Y-115842857D02*
X160837200Y-115890476D01*
X160837200Y-115890476D02*
X160884819Y-116033333D01*
X160884819Y-116033333D02*
X160884819Y-116128571D01*
X160884819Y-116128571D02*
X160837200Y-116271428D01*
X160837200Y-116271428D02*
X160741961Y-116366666D01*
X160741961Y-116366666D02*
X160646723Y-116414285D01*
X160646723Y-116414285D02*
X160456247Y-116461904D01*
X160456247Y-116461904D02*
X160313390Y-116461904D01*
X160313390Y-116461904D02*
X160122914Y-116414285D01*
X160122914Y-116414285D02*
X160027676Y-116366666D01*
X160027676Y-116366666D02*
X159932438Y-116271428D01*
X159932438Y-116271428D02*
X159884819Y-116128571D01*
X159884819Y-116128571D02*
X159884819Y-116033333D01*
X159884819Y-116033333D02*
X159932438Y-115890476D01*
X159932438Y-115890476D02*
X159980057Y-115842857D01*
X160884819Y-114890476D02*
X160884819Y-115461904D01*
X160884819Y-115176190D02*
X159884819Y-115176190D01*
X159884819Y-115176190D02*
X160027676Y-115271428D01*
X160027676Y-115271428D02*
X160122914Y-115366666D01*
X160122914Y-115366666D02*
X160170533Y-115461904D01*
X159980057Y-114509523D02*
X159932438Y-114461904D01*
X159932438Y-114461904D02*
X159884819Y-114366666D01*
X159884819Y-114366666D02*
X159884819Y-114128571D01*
X159884819Y-114128571D02*
X159932438Y-114033333D01*
X159932438Y-114033333D02*
X159980057Y-113985714D01*
X159980057Y-113985714D02*
X160075295Y-113938095D01*
X160075295Y-113938095D02*
X160170533Y-113938095D01*
X160170533Y-113938095D02*
X160313390Y-113985714D01*
X160313390Y-113985714D02*
X160884819Y-114557142D01*
X160884819Y-114557142D02*
X160884819Y-113938095D01*
X155363095Y-117479819D02*
X155363095Y-118289342D01*
X155363095Y-118289342D02*
X155410714Y-118384580D01*
X155410714Y-118384580D02*
X155458333Y-118432200D01*
X155458333Y-118432200D02*
X155553571Y-118479819D01*
X155553571Y-118479819D02*
X155744047Y-118479819D01*
X155744047Y-118479819D02*
X155839285Y-118432200D01*
X155839285Y-118432200D02*
X155886904Y-118384580D01*
X155886904Y-118384580D02*
X155934523Y-118289342D01*
X155934523Y-118289342D02*
X155934523Y-117479819D01*
X156839285Y-117813152D02*
X156839285Y-118479819D01*
X156601190Y-117432200D02*
X156363095Y-118146485D01*
X156363095Y-118146485D02*
X156982142Y-118146485D01*
X148391666Y-122054819D02*
X148391666Y-122769104D01*
X148391666Y-122769104D02*
X148344047Y-122911961D01*
X148344047Y-122911961D02*
X148248809Y-123007200D01*
X148248809Y-123007200D02*
X148105952Y-123054819D01*
X148105952Y-123054819D02*
X148010714Y-123054819D01*
X149391666Y-123054819D02*
X148820238Y-123054819D01*
X149105952Y-123054819D02*
X149105952Y-122054819D01*
X149105952Y-122054819D02*
X149010714Y-122197676D01*
X149010714Y-122197676D02*
X148915476Y-122292914D01*
X148915476Y-122292914D02*
X148820238Y-122340533D01*
X174111905Y-111479819D02*
X174111905Y-110479819D01*
X174111905Y-110479819D02*
X174350000Y-110479819D01*
X174350000Y-110479819D02*
X174492857Y-110527438D01*
X174492857Y-110527438D02*
X174588095Y-110622676D01*
X174588095Y-110622676D02*
X174635714Y-110717914D01*
X174635714Y-110717914D02*
X174683333Y-110908390D01*
X174683333Y-110908390D02*
X174683333Y-111051247D01*
X174683333Y-111051247D02*
X174635714Y-111241723D01*
X174635714Y-111241723D02*
X174588095Y-111336961D01*
X174588095Y-111336961D02*
X174492857Y-111432200D01*
X174492857Y-111432200D02*
X174350000Y-111479819D01*
X174350000Y-111479819D02*
X174111905Y-111479819D01*
X175540476Y-110813152D02*
X175540476Y-111479819D01*
X175302381Y-110432200D02*
X175064286Y-111146485D01*
X175064286Y-111146485D02*
X175683333Y-111146485D01*
X174791666Y-78829819D02*
X174791666Y-79544104D01*
X174791666Y-79544104D02*
X174744047Y-79686961D01*
X174744047Y-79686961D02*
X174648809Y-79782200D01*
X174648809Y-79782200D02*
X174505952Y-79829819D01*
X174505952Y-79829819D02*
X174410714Y-79829819D01*
X175172619Y-78829819D02*
X175791666Y-78829819D01*
X175791666Y-78829819D02*
X175458333Y-79210771D01*
X175458333Y-79210771D02*
X175601190Y-79210771D01*
X175601190Y-79210771D02*
X175696428Y-79258390D01*
X175696428Y-79258390D02*
X175744047Y-79306009D01*
X175744047Y-79306009D02*
X175791666Y-79401247D01*
X175791666Y-79401247D02*
X175791666Y-79639342D01*
X175791666Y-79639342D02*
X175744047Y-79734580D01*
X175744047Y-79734580D02*
X175696428Y-79782200D01*
X175696428Y-79782200D02*
X175601190Y-79829819D01*
X175601190Y-79829819D02*
X175315476Y-79829819D01*
X175315476Y-79829819D02*
X175220238Y-79782200D01*
X175220238Y-79782200D02*
X175172619Y-79734580D01*
X132559580Y-78717857D02*
X132607200Y-78765476D01*
X132607200Y-78765476D02*
X132654819Y-78908333D01*
X132654819Y-78908333D02*
X132654819Y-79003571D01*
X132654819Y-79003571D02*
X132607200Y-79146428D01*
X132607200Y-79146428D02*
X132511961Y-79241666D01*
X132511961Y-79241666D02*
X132416723Y-79289285D01*
X132416723Y-79289285D02*
X132226247Y-79336904D01*
X132226247Y-79336904D02*
X132083390Y-79336904D01*
X132083390Y-79336904D02*
X131892914Y-79289285D01*
X131892914Y-79289285D02*
X131797676Y-79241666D01*
X131797676Y-79241666D02*
X131702438Y-79146428D01*
X131702438Y-79146428D02*
X131654819Y-79003571D01*
X131654819Y-79003571D02*
X131654819Y-78908333D01*
X131654819Y-78908333D02*
X131702438Y-78765476D01*
X131702438Y-78765476D02*
X131750057Y-78717857D01*
X131750057Y-78336904D02*
X131702438Y-78289285D01*
X131702438Y-78289285D02*
X131654819Y-78194047D01*
X131654819Y-78194047D02*
X131654819Y-77955952D01*
X131654819Y-77955952D02*
X131702438Y-77860714D01*
X131702438Y-77860714D02*
X131750057Y-77813095D01*
X131750057Y-77813095D02*
X131845295Y-77765476D01*
X131845295Y-77765476D02*
X131940533Y-77765476D01*
X131940533Y-77765476D02*
X132083390Y-77813095D01*
X132083390Y-77813095D02*
X132654819Y-78384523D01*
X132654819Y-78384523D02*
X132654819Y-77765476D01*
X131654819Y-77432142D02*
X131654819Y-76813095D01*
X131654819Y-76813095D02*
X132035771Y-77146428D01*
X132035771Y-77146428D02*
X132035771Y-77003571D01*
X132035771Y-77003571D02*
X132083390Y-76908333D01*
X132083390Y-76908333D02*
X132131009Y-76860714D01*
X132131009Y-76860714D02*
X132226247Y-76813095D01*
X132226247Y-76813095D02*
X132464342Y-76813095D01*
X132464342Y-76813095D02*
X132559580Y-76860714D01*
X132559580Y-76860714D02*
X132607200Y-76908333D01*
X132607200Y-76908333D02*
X132654819Y-77003571D01*
X132654819Y-77003571D02*
X132654819Y-77289285D01*
X132654819Y-77289285D02*
X132607200Y-77384523D01*
X132607200Y-77384523D02*
X132559580Y-77432142D01*
X159579819Y-87342857D02*
X159103628Y-87676190D01*
X159579819Y-87914285D02*
X158579819Y-87914285D01*
X158579819Y-87914285D02*
X158579819Y-87533333D01*
X158579819Y-87533333D02*
X158627438Y-87438095D01*
X158627438Y-87438095D02*
X158675057Y-87390476D01*
X158675057Y-87390476D02*
X158770295Y-87342857D01*
X158770295Y-87342857D02*
X158913152Y-87342857D01*
X158913152Y-87342857D02*
X159008390Y-87390476D01*
X159008390Y-87390476D02*
X159056009Y-87438095D01*
X159056009Y-87438095D02*
X159103628Y-87533333D01*
X159103628Y-87533333D02*
X159103628Y-87914285D01*
X159579819Y-86390476D02*
X159579819Y-86961904D01*
X159579819Y-86676190D02*
X158579819Y-86676190D01*
X158579819Y-86676190D02*
X158722676Y-86771428D01*
X158722676Y-86771428D02*
X158817914Y-86866666D01*
X158817914Y-86866666D02*
X158865533Y-86961904D01*
X158579819Y-85771428D02*
X158579819Y-85676190D01*
X158579819Y-85676190D02*
X158627438Y-85580952D01*
X158627438Y-85580952D02*
X158675057Y-85533333D01*
X158675057Y-85533333D02*
X158770295Y-85485714D01*
X158770295Y-85485714D02*
X158960771Y-85438095D01*
X158960771Y-85438095D02*
X159198866Y-85438095D01*
X159198866Y-85438095D02*
X159389342Y-85485714D01*
X159389342Y-85485714D02*
X159484580Y-85533333D01*
X159484580Y-85533333D02*
X159532200Y-85580952D01*
X159532200Y-85580952D02*
X159579819Y-85676190D01*
X159579819Y-85676190D02*
X159579819Y-85771428D01*
X159579819Y-85771428D02*
X159532200Y-85866666D01*
X159532200Y-85866666D02*
X159484580Y-85914285D01*
X159484580Y-85914285D02*
X159389342Y-85961904D01*
X159389342Y-85961904D02*
X159198866Y-86009523D01*
X159198866Y-86009523D02*
X158960771Y-86009523D01*
X158960771Y-86009523D02*
X158770295Y-85961904D01*
X158770295Y-85961904D02*
X158675057Y-85914285D01*
X158675057Y-85914285D02*
X158627438Y-85866666D01*
X158627438Y-85866666D02*
X158579819Y-85771428D01*
X141434580Y-81991666D02*
X141482200Y-82039285D01*
X141482200Y-82039285D02*
X141529819Y-82182142D01*
X141529819Y-82182142D02*
X141529819Y-82277380D01*
X141529819Y-82277380D02*
X141482200Y-82420237D01*
X141482200Y-82420237D02*
X141386961Y-82515475D01*
X141386961Y-82515475D02*
X141291723Y-82563094D01*
X141291723Y-82563094D02*
X141101247Y-82610713D01*
X141101247Y-82610713D02*
X140958390Y-82610713D01*
X140958390Y-82610713D02*
X140767914Y-82563094D01*
X140767914Y-82563094D02*
X140672676Y-82515475D01*
X140672676Y-82515475D02*
X140577438Y-82420237D01*
X140577438Y-82420237D02*
X140529819Y-82277380D01*
X140529819Y-82277380D02*
X140529819Y-82182142D01*
X140529819Y-82182142D02*
X140577438Y-82039285D01*
X140577438Y-82039285D02*
X140625057Y-81991666D01*
X141529819Y-81039285D02*
X141529819Y-81610713D01*
X141529819Y-81324999D02*
X140529819Y-81324999D01*
X140529819Y-81324999D02*
X140672676Y-81420237D01*
X140672676Y-81420237D02*
X140767914Y-81515475D01*
X140767914Y-81515475D02*
X140815533Y-81610713D01*
X158409580Y-128867857D02*
X158457200Y-128915476D01*
X158457200Y-128915476D02*
X158504819Y-129058333D01*
X158504819Y-129058333D02*
X158504819Y-129153571D01*
X158504819Y-129153571D02*
X158457200Y-129296428D01*
X158457200Y-129296428D02*
X158361961Y-129391666D01*
X158361961Y-129391666D02*
X158266723Y-129439285D01*
X158266723Y-129439285D02*
X158076247Y-129486904D01*
X158076247Y-129486904D02*
X157933390Y-129486904D01*
X157933390Y-129486904D02*
X157742914Y-129439285D01*
X157742914Y-129439285D02*
X157647676Y-129391666D01*
X157647676Y-129391666D02*
X157552438Y-129296428D01*
X157552438Y-129296428D02*
X157504819Y-129153571D01*
X157504819Y-129153571D02*
X157504819Y-129058333D01*
X157504819Y-129058333D02*
X157552438Y-128915476D01*
X157552438Y-128915476D02*
X157600057Y-128867857D01*
X158504819Y-127915476D02*
X158504819Y-128486904D01*
X158504819Y-128201190D02*
X157504819Y-128201190D01*
X157504819Y-128201190D02*
X157647676Y-128296428D01*
X157647676Y-128296428D02*
X157742914Y-128391666D01*
X157742914Y-128391666D02*
X157790533Y-128486904D01*
X157504819Y-127296428D02*
X157504819Y-127201190D01*
X157504819Y-127201190D02*
X157552438Y-127105952D01*
X157552438Y-127105952D02*
X157600057Y-127058333D01*
X157600057Y-127058333D02*
X157695295Y-127010714D01*
X157695295Y-127010714D02*
X157885771Y-126963095D01*
X157885771Y-126963095D02*
X158123866Y-126963095D01*
X158123866Y-126963095D02*
X158314342Y-127010714D01*
X158314342Y-127010714D02*
X158409580Y-127058333D01*
X158409580Y-127058333D02*
X158457200Y-127105952D01*
X158457200Y-127105952D02*
X158504819Y-127201190D01*
X158504819Y-127201190D02*
X158504819Y-127296428D01*
X158504819Y-127296428D02*
X158457200Y-127391666D01*
X158457200Y-127391666D02*
X158409580Y-127439285D01*
X158409580Y-127439285D02*
X158314342Y-127486904D01*
X158314342Y-127486904D02*
X158123866Y-127534523D01*
X158123866Y-127534523D02*
X157885771Y-127534523D01*
X157885771Y-127534523D02*
X157695295Y-127486904D01*
X157695295Y-127486904D02*
X157600057Y-127439285D01*
X157600057Y-127439285D02*
X157552438Y-127391666D01*
X157552438Y-127391666D02*
X157504819Y-127296428D01*
X138359580Y-82216666D02*
X138407200Y-82264285D01*
X138407200Y-82264285D02*
X138454819Y-82407142D01*
X138454819Y-82407142D02*
X138454819Y-82502380D01*
X138454819Y-82502380D02*
X138407200Y-82645237D01*
X138407200Y-82645237D02*
X138311961Y-82740475D01*
X138311961Y-82740475D02*
X138216723Y-82788094D01*
X138216723Y-82788094D02*
X138026247Y-82835713D01*
X138026247Y-82835713D02*
X137883390Y-82835713D01*
X137883390Y-82835713D02*
X137692914Y-82788094D01*
X137692914Y-82788094D02*
X137597676Y-82740475D01*
X137597676Y-82740475D02*
X137502438Y-82645237D01*
X137502438Y-82645237D02*
X137454819Y-82502380D01*
X137454819Y-82502380D02*
X137454819Y-82407142D01*
X137454819Y-82407142D02*
X137502438Y-82264285D01*
X137502438Y-82264285D02*
X137550057Y-82216666D01*
X137454819Y-81883332D02*
X137454819Y-81264285D01*
X137454819Y-81264285D02*
X137835771Y-81597618D01*
X137835771Y-81597618D02*
X137835771Y-81454761D01*
X137835771Y-81454761D02*
X137883390Y-81359523D01*
X137883390Y-81359523D02*
X137931009Y-81311904D01*
X137931009Y-81311904D02*
X138026247Y-81264285D01*
X138026247Y-81264285D02*
X138264342Y-81264285D01*
X138264342Y-81264285D02*
X138359580Y-81311904D01*
X138359580Y-81311904D02*
X138407200Y-81359523D01*
X138407200Y-81359523D02*
X138454819Y-81454761D01*
X138454819Y-81454761D02*
X138454819Y-81740475D01*
X138454819Y-81740475D02*
X138407200Y-81835713D01*
X138407200Y-81835713D02*
X138359580Y-81883332D01*
X161033333Y-95329819D02*
X160700000Y-94853628D01*
X160461905Y-95329819D02*
X160461905Y-94329819D01*
X160461905Y-94329819D02*
X160842857Y-94329819D01*
X160842857Y-94329819D02*
X160938095Y-94377438D01*
X160938095Y-94377438D02*
X160985714Y-94425057D01*
X160985714Y-94425057D02*
X161033333Y-94520295D01*
X161033333Y-94520295D02*
X161033333Y-94663152D01*
X161033333Y-94663152D02*
X160985714Y-94758390D01*
X160985714Y-94758390D02*
X160938095Y-94806009D01*
X160938095Y-94806009D02*
X160842857Y-94853628D01*
X160842857Y-94853628D02*
X160461905Y-94853628D01*
X161604762Y-94758390D02*
X161509524Y-94710771D01*
X161509524Y-94710771D02*
X161461905Y-94663152D01*
X161461905Y-94663152D02*
X161414286Y-94567914D01*
X161414286Y-94567914D02*
X161414286Y-94520295D01*
X161414286Y-94520295D02*
X161461905Y-94425057D01*
X161461905Y-94425057D02*
X161509524Y-94377438D01*
X161509524Y-94377438D02*
X161604762Y-94329819D01*
X161604762Y-94329819D02*
X161795238Y-94329819D01*
X161795238Y-94329819D02*
X161890476Y-94377438D01*
X161890476Y-94377438D02*
X161938095Y-94425057D01*
X161938095Y-94425057D02*
X161985714Y-94520295D01*
X161985714Y-94520295D02*
X161985714Y-94567914D01*
X161985714Y-94567914D02*
X161938095Y-94663152D01*
X161938095Y-94663152D02*
X161890476Y-94710771D01*
X161890476Y-94710771D02*
X161795238Y-94758390D01*
X161795238Y-94758390D02*
X161604762Y-94758390D01*
X161604762Y-94758390D02*
X161509524Y-94806009D01*
X161509524Y-94806009D02*
X161461905Y-94853628D01*
X161461905Y-94853628D02*
X161414286Y-94948866D01*
X161414286Y-94948866D02*
X161414286Y-95139342D01*
X161414286Y-95139342D02*
X161461905Y-95234580D01*
X161461905Y-95234580D02*
X161509524Y-95282200D01*
X161509524Y-95282200D02*
X161604762Y-95329819D01*
X161604762Y-95329819D02*
X161795238Y-95329819D01*
X161795238Y-95329819D02*
X161890476Y-95282200D01*
X161890476Y-95282200D02*
X161938095Y-95234580D01*
X161938095Y-95234580D02*
X161985714Y-95139342D01*
X161985714Y-95139342D02*
X161985714Y-94948866D01*
X161985714Y-94948866D02*
X161938095Y-94853628D01*
X161938095Y-94853628D02*
X161890476Y-94806009D01*
X161890476Y-94806009D02*
X161795238Y-94758390D01*
X140354819Y-84691666D02*
X139878628Y-85024999D01*
X140354819Y-85263094D02*
X139354819Y-85263094D01*
X139354819Y-85263094D02*
X139354819Y-84882142D01*
X139354819Y-84882142D02*
X139402438Y-84786904D01*
X139402438Y-84786904D02*
X139450057Y-84739285D01*
X139450057Y-84739285D02*
X139545295Y-84691666D01*
X139545295Y-84691666D02*
X139688152Y-84691666D01*
X139688152Y-84691666D02*
X139783390Y-84739285D01*
X139783390Y-84739285D02*
X139831009Y-84786904D01*
X139831009Y-84786904D02*
X139878628Y-84882142D01*
X139878628Y-84882142D02*
X139878628Y-85263094D01*
X139354819Y-83786904D02*
X139354819Y-84263094D01*
X139354819Y-84263094D02*
X139831009Y-84310713D01*
X139831009Y-84310713D02*
X139783390Y-84263094D01*
X139783390Y-84263094D02*
X139735771Y-84167856D01*
X139735771Y-84167856D02*
X139735771Y-83929761D01*
X139735771Y-83929761D02*
X139783390Y-83834523D01*
X139783390Y-83834523D02*
X139831009Y-83786904D01*
X139831009Y-83786904D02*
X139926247Y-83739285D01*
X139926247Y-83739285D02*
X140164342Y-83739285D01*
X140164342Y-83739285D02*
X140259580Y-83786904D01*
X140259580Y-83786904D02*
X140307200Y-83834523D01*
X140307200Y-83834523D02*
X140354819Y-83929761D01*
X140354819Y-83929761D02*
X140354819Y-84167856D01*
X140354819Y-84167856D02*
X140307200Y-84263094D01*
X140307200Y-84263094D02*
X140259580Y-84310713D01*
X168907142Y-117179819D02*
X168573809Y-116703628D01*
X168335714Y-117179819D02*
X168335714Y-116179819D01*
X168335714Y-116179819D02*
X168716666Y-116179819D01*
X168716666Y-116179819D02*
X168811904Y-116227438D01*
X168811904Y-116227438D02*
X168859523Y-116275057D01*
X168859523Y-116275057D02*
X168907142Y-116370295D01*
X168907142Y-116370295D02*
X168907142Y-116513152D01*
X168907142Y-116513152D02*
X168859523Y-116608390D01*
X168859523Y-116608390D02*
X168811904Y-116656009D01*
X168811904Y-116656009D02*
X168716666Y-116703628D01*
X168716666Y-116703628D02*
X168335714Y-116703628D01*
X169288095Y-116275057D02*
X169335714Y-116227438D01*
X169335714Y-116227438D02*
X169430952Y-116179819D01*
X169430952Y-116179819D02*
X169669047Y-116179819D01*
X169669047Y-116179819D02*
X169764285Y-116227438D01*
X169764285Y-116227438D02*
X169811904Y-116275057D01*
X169811904Y-116275057D02*
X169859523Y-116370295D01*
X169859523Y-116370295D02*
X169859523Y-116465533D01*
X169859523Y-116465533D02*
X169811904Y-116608390D01*
X169811904Y-116608390D02*
X169240476Y-117179819D01*
X169240476Y-117179819D02*
X169859523Y-117179819D01*
X170811904Y-117179819D02*
X170240476Y-117179819D01*
X170526190Y-117179819D02*
X170526190Y-116179819D01*
X170526190Y-116179819D02*
X170430952Y-116322676D01*
X170430952Y-116322676D02*
X170335714Y-116417914D01*
X170335714Y-116417914D02*
X170240476Y-116465533D01*
X133729819Y-74033333D02*
X134444104Y-74033333D01*
X134444104Y-74033333D02*
X134586961Y-74080952D01*
X134586961Y-74080952D02*
X134682200Y-74176190D01*
X134682200Y-74176190D02*
X134729819Y-74319047D01*
X134729819Y-74319047D02*
X134729819Y-74414285D01*
X134729819Y-73557142D02*
X133729819Y-73557142D01*
X133729819Y-73557142D02*
X133729819Y-73176190D01*
X133729819Y-73176190D02*
X133777438Y-73080952D01*
X133777438Y-73080952D02*
X133825057Y-73033333D01*
X133825057Y-73033333D02*
X133920295Y-72985714D01*
X133920295Y-72985714D02*
X134063152Y-72985714D01*
X134063152Y-72985714D02*
X134158390Y-73033333D01*
X134158390Y-73033333D02*
X134206009Y-73080952D01*
X134206009Y-73080952D02*
X134253628Y-73176190D01*
X134253628Y-73176190D02*
X134253628Y-73557142D01*
X134729819Y-72033333D02*
X134729819Y-72604761D01*
X134729819Y-72319047D02*
X133729819Y-72319047D01*
X133729819Y-72319047D02*
X133872676Y-72414285D01*
X133872676Y-72414285D02*
X133967914Y-72509523D01*
X133967914Y-72509523D02*
X134015533Y-72604761D01*
X135482142Y-97134580D02*
X135434523Y-97182200D01*
X135434523Y-97182200D02*
X135291666Y-97229819D01*
X135291666Y-97229819D02*
X135196428Y-97229819D01*
X135196428Y-97229819D02*
X135053571Y-97182200D01*
X135053571Y-97182200D02*
X134958333Y-97086961D01*
X134958333Y-97086961D02*
X134910714Y-96991723D01*
X134910714Y-96991723D02*
X134863095Y-96801247D01*
X134863095Y-96801247D02*
X134863095Y-96658390D01*
X134863095Y-96658390D02*
X134910714Y-96467914D01*
X134910714Y-96467914D02*
X134958333Y-96372676D01*
X134958333Y-96372676D02*
X135053571Y-96277438D01*
X135053571Y-96277438D02*
X135196428Y-96229819D01*
X135196428Y-96229819D02*
X135291666Y-96229819D01*
X135291666Y-96229819D02*
X135434523Y-96277438D01*
X135434523Y-96277438D02*
X135482142Y-96325057D01*
X136434523Y-97229819D02*
X135863095Y-97229819D01*
X136148809Y-97229819D02*
X136148809Y-96229819D01*
X136148809Y-96229819D02*
X136053571Y-96372676D01*
X136053571Y-96372676D02*
X135958333Y-96467914D01*
X135958333Y-96467914D02*
X135863095Y-96515533D01*
X137005952Y-96658390D02*
X136910714Y-96610771D01*
X136910714Y-96610771D02*
X136863095Y-96563152D01*
X136863095Y-96563152D02*
X136815476Y-96467914D01*
X136815476Y-96467914D02*
X136815476Y-96420295D01*
X136815476Y-96420295D02*
X136863095Y-96325057D01*
X136863095Y-96325057D02*
X136910714Y-96277438D01*
X136910714Y-96277438D02*
X137005952Y-96229819D01*
X137005952Y-96229819D02*
X137196428Y-96229819D01*
X137196428Y-96229819D02*
X137291666Y-96277438D01*
X137291666Y-96277438D02*
X137339285Y-96325057D01*
X137339285Y-96325057D02*
X137386904Y-96420295D01*
X137386904Y-96420295D02*
X137386904Y-96467914D01*
X137386904Y-96467914D02*
X137339285Y-96563152D01*
X137339285Y-96563152D02*
X137291666Y-96610771D01*
X137291666Y-96610771D02*
X137196428Y-96658390D01*
X137196428Y-96658390D02*
X137005952Y-96658390D01*
X137005952Y-96658390D02*
X136910714Y-96706009D01*
X136910714Y-96706009D02*
X136863095Y-96753628D01*
X136863095Y-96753628D02*
X136815476Y-96848866D01*
X136815476Y-96848866D02*
X136815476Y-97039342D01*
X136815476Y-97039342D02*
X136863095Y-97134580D01*
X136863095Y-97134580D02*
X136910714Y-97182200D01*
X136910714Y-97182200D02*
X137005952Y-97229819D01*
X137005952Y-97229819D02*
X137196428Y-97229819D01*
X137196428Y-97229819D02*
X137291666Y-97182200D01*
X137291666Y-97182200D02*
X137339285Y-97134580D01*
X137339285Y-97134580D02*
X137386904Y-97039342D01*
X137386904Y-97039342D02*
X137386904Y-96848866D01*
X137386904Y-96848866D02*
X137339285Y-96753628D01*
X137339285Y-96753628D02*
X137291666Y-96706009D01*
X137291666Y-96706009D02*
X137196428Y-96658390D01*
X164304819Y-88742857D02*
X163828628Y-89076190D01*
X164304819Y-89314285D02*
X163304819Y-89314285D01*
X163304819Y-89314285D02*
X163304819Y-88933333D01*
X163304819Y-88933333D02*
X163352438Y-88838095D01*
X163352438Y-88838095D02*
X163400057Y-88790476D01*
X163400057Y-88790476D02*
X163495295Y-88742857D01*
X163495295Y-88742857D02*
X163638152Y-88742857D01*
X163638152Y-88742857D02*
X163733390Y-88790476D01*
X163733390Y-88790476D02*
X163781009Y-88838095D01*
X163781009Y-88838095D02*
X163828628Y-88933333D01*
X163828628Y-88933333D02*
X163828628Y-89314285D01*
X164304819Y-87790476D02*
X164304819Y-88361904D01*
X164304819Y-88076190D02*
X163304819Y-88076190D01*
X163304819Y-88076190D02*
X163447676Y-88171428D01*
X163447676Y-88171428D02*
X163542914Y-88266666D01*
X163542914Y-88266666D02*
X163590533Y-88361904D01*
X164304819Y-86838095D02*
X164304819Y-87409523D01*
X164304819Y-87123809D02*
X163304819Y-87123809D01*
X163304819Y-87123809D02*
X163447676Y-87219047D01*
X163447676Y-87219047D02*
X163542914Y-87314285D01*
X163542914Y-87314285D02*
X163590533Y-87409523D01*
X155338095Y-108854819D02*
X155338095Y-109664342D01*
X155338095Y-109664342D02*
X155385714Y-109759580D01*
X155385714Y-109759580D02*
X155433333Y-109807200D01*
X155433333Y-109807200D02*
X155528571Y-109854819D01*
X155528571Y-109854819D02*
X155719047Y-109854819D01*
X155719047Y-109854819D02*
X155814285Y-109807200D01*
X155814285Y-109807200D02*
X155861904Y-109759580D01*
X155861904Y-109759580D02*
X155909523Y-109664342D01*
X155909523Y-109664342D02*
X155909523Y-108854819D01*
X156814285Y-108854819D02*
X156623809Y-108854819D01*
X156623809Y-108854819D02*
X156528571Y-108902438D01*
X156528571Y-108902438D02*
X156480952Y-108950057D01*
X156480952Y-108950057D02*
X156385714Y-109092914D01*
X156385714Y-109092914D02*
X156338095Y-109283390D01*
X156338095Y-109283390D02*
X156338095Y-109664342D01*
X156338095Y-109664342D02*
X156385714Y-109759580D01*
X156385714Y-109759580D02*
X156433333Y-109807200D01*
X156433333Y-109807200D02*
X156528571Y-109854819D01*
X156528571Y-109854819D02*
X156719047Y-109854819D01*
X156719047Y-109854819D02*
X156814285Y-109807200D01*
X156814285Y-109807200D02*
X156861904Y-109759580D01*
X156861904Y-109759580D02*
X156909523Y-109664342D01*
X156909523Y-109664342D02*
X156909523Y-109426247D01*
X156909523Y-109426247D02*
X156861904Y-109331009D01*
X156861904Y-109331009D02*
X156814285Y-109283390D01*
X156814285Y-109283390D02*
X156719047Y-109235771D01*
X156719047Y-109235771D02*
X156528571Y-109235771D01*
X156528571Y-109235771D02*
X156433333Y-109283390D01*
X156433333Y-109283390D02*
X156385714Y-109331009D01*
X156385714Y-109331009D02*
X156338095Y-109426247D01*
X149246095Y-102429819D02*
X149246095Y-103239342D01*
X149246095Y-103239342D02*
X149293714Y-103334580D01*
X149293714Y-103334580D02*
X149341333Y-103382200D01*
X149341333Y-103382200D02*
X149436571Y-103429819D01*
X149436571Y-103429819D02*
X149627047Y-103429819D01*
X149627047Y-103429819D02*
X149722285Y-103382200D01*
X149722285Y-103382200D02*
X149769904Y-103334580D01*
X149769904Y-103334580D02*
X149817523Y-103239342D01*
X149817523Y-103239342D02*
X149817523Y-102429819D01*
X150436571Y-102858390D02*
X150341333Y-102810771D01*
X150341333Y-102810771D02*
X150293714Y-102763152D01*
X150293714Y-102763152D02*
X150246095Y-102667914D01*
X150246095Y-102667914D02*
X150246095Y-102620295D01*
X150246095Y-102620295D02*
X150293714Y-102525057D01*
X150293714Y-102525057D02*
X150341333Y-102477438D01*
X150341333Y-102477438D02*
X150436571Y-102429819D01*
X150436571Y-102429819D02*
X150627047Y-102429819D01*
X150627047Y-102429819D02*
X150722285Y-102477438D01*
X150722285Y-102477438D02*
X150769904Y-102525057D01*
X150769904Y-102525057D02*
X150817523Y-102620295D01*
X150817523Y-102620295D02*
X150817523Y-102667914D01*
X150817523Y-102667914D02*
X150769904Y-102763152D01*
X150769904Y-102763152D02*
X150722285Y-102810771D01*
X150722285Y-102810771D02*
X150627047Y-102858390D01*
X150627047Y-102858390D02*
X150436571Y-102858390D01*
X150436571Y-102858390D02*
X150341333Y-102906009D01*
X150341333Y-102906009D02*
X150293714Y-102953628D01*
X150293714Y-102953628D02*
X150246095Y-103048866D01*
X150246095Y-103048866D02*
X150246095Y-103239342D01*
X150246095Y-103239342D02*
X150293714Y-103334580D01*
X150293714Y-103334580D02*
X150341333Y-103382200D01*
X150341333Y-103382200D02*
X150436571Y-103429819D01*
X150436571Y-103429819D02*
X150627047Y-103429819D01*
X150627047Y-103429819D02*
X150722285Y-103382200D01*
X150722285Y-103382200D02*
X150769904Y-103334580D01*
X150769904Y-103334580D02*
X150817523Y-103239342D01*
X150817523Y-103239342D02*
X150817523Y-103048866D01*
X150817523Y-103048866D02*
X150769904Y-102953628D01*
X150769904Y-102953628D02*
X150722285Y-102906009D01*
X150722285Y-102906009D02*
X150627047Y-102858390D01*
X131584580Y-86592857D02*
X131632200Y-86640476D01*
X131632200Y-86640476D02*
X131679819Y-86783333D01*
X131679819Y-86783333D02*
X131679819Y-86878571D01*
X131679819Y-86878571D02*
X131632200Y-87021428D01*
X131632200Y-87021428D02*
X131536961Y-87116666D01*
X131536961Y-87116666D02*
X131441723Y-87164285D01*
X131441723Y-87164285D02*
X131251247Y-87211904D01*
X131251247Y-87211904D02*
X131108390Y-87211904D01*
X131108390Y-87211904D02*
X130917914Y-87164285D01*
X130917914Y-87164285D02*
X130822676Y-87116666D01*
X130822676Y-87116666D02*
X130727438Y-87021428D01*
X130727438Y-87021428D02*
X130679819Y-86878571D01*
X130679819Y-86878571D02*
X130679819Y-86783333D01*
X130679819Y-86783333D02*
X130727438Y-86640476D01*
X130727438Y-86640476D02*
X130775057Y-86592857D01*
X130775057Y-86211904D02*
X130727438Y-86164285D01*
X130727438Y-86164285D02*
X130679819Y-86069047D01*
X130679819Y-86069047D02*
X130679819Y-85830952D01*
X130679819Y-85830952D02*
X130727438Y-85735714D01*
X130727438Y-85735714D02*
X130775057Y-85688095D01*
X130775057Y-85688095D02*
X130870295Y-85640476D01*
X130870295Y-85640476D02*
X130965533Y-85640476D01*
X130965533Y-85640476D02*
X131108390Y-85688095D01*
X131108390Y-85688095D02*
X131679819Y-86259523D01*
X131679819Y-86259523D02*
X131679819Y-85640476D01*
X130775057Y-85259523D02*
X130727438Y-85211904D01*
X130727438Y-85211904D02*
X130679819Y-85116666D01*
X130679819Y-85116666D02*
X130679819Y-84878571D01*
X130679819Y-84878571D02*
X130727438Y-84783333D01*
X130727438Y-84783333D02*
X130775057Y-84735714D01*
X130775057Y-84735714D02*
X130870295Y-84688095D01*
X130870295Y-84688095D02*
X130965533Y-84688095D01*
X130965533Y-84688095D02*
X131108390Y-84735714D01*
X131108390Y-84735714D02*
X131679819Y-85307142D01*
X131679819Y-85307142D02*
X131679819Y-84688095D01*
X134716666Y-120004819D02*
X134716666Y-120719104D01*
X134716666Y-120719104D02*
X134669047Y-120861961D01*
X134669047Y-120861961D02*
X134573809Y-120957200D01*
X134573809Y-120957200D02*
X134430952Y-121004819D01*
X134430952Y-121004819D02*
X134335714Y-121004819D01*
X135621428Y-120004819D02*
X135430952Y-120004819D01*
X135430952Y-120004819D02*
X135335714Y-120052438D01*
X135335714Y-120052438D02*
X135288095Y-120100057D01*
X135288095Y-120100057D02*
X135192857Y-120242914D01*
X135192857Y-120242914D02*
X135145238Y-120433390D01*
X135145238Y-120433390D02*
X135145238Y-120814342D01*
X135145238Y-120814342D02*
X135192857Y-120909580D01*
X135192857Y-120909580D02*
X135240476Y-120957200D01*
X135240476Y-120957200D02*
X135335714Y-121004819D01*
X135335714Y-121004819D02*
X135526190Y-121004819D01*
X135526190Y-121004819D02*
X135621428Y-120957200D01*
X135621428Y-120957200D02*
X135669047Y-120909580D01*
X135669047Y-120909580D02*
X135716666Y-120814342D01*
X135716666Y-120814342D02*
X135716666Y-120576247D01*
X135716666Y-120576247D02*
X135669047Y-120481009D01*
X135669047Y-120481009D02*
X135621428Y-120433390D01*
X135621428Y-120433390D02*
X135526190Y-120385771D01*
X135526190Y-120385771D02*
X135335714Y-120385771D01*
X135335714Y-120385771D02*
X135240476Y-120433390D01*
X135240476Y-120433390D02*
X135192857Y-120481009D01*
X135192857Y-120481009D02*
X135145238Y-120576247D01*
X159704819Y-91841666D02*
X159228628Y-92174999D01*
X159704819Y-92413094D02*
X158704819Y-92413094D01*
X158704819Y-92413094D02*
X158704819Y-92032142D01*
X158704819Y-92032142D02*
X158752438Y-91936904D01*
X158752438Y-91936904D02*
X158800057Y-91889285D01*
X158800057Y-91889285D02*
X158895295Y-91841666D01*
X158895295Y-91841666D02*
X159038152Y-91841666D01*
X159038152Y-91841666D02*
X159133390Y-91889285D01*
X159133390Y-91889285D02*
X159181009Y-91936904D01*
X159181009Y-91936904D02*
X159228628Y-92032142D01*
X159228628Y-92032142D02*
X159228628Y-92413094D01*
X158704819Y-91508332D02*
X158704819Y-90841666D01*
X158704819Y-90841666D02*
X159704819Y-91270237D01*
X130009580Y-86492857D02*
X130057200Y-86540476D01*
X130057200Y-86540476D02*
X130104819Y-86683333D01*
X130104819Y-86683333D02*
X130104819Y-86778571D01*
X130104819Y-86778571D02*
X130057200Y-86921428D01*
X130057200Y-86921428D02*
X129961961Y-87016666D01*
X129961961Y-87016666D02*
X129866723Y-87064285D01*
X129866723Y-87064285D02*
X129676247Y-87111904D01*
X129676247Y-87111904D02*
X129533390Y-87111904D01*
X129533390Y-87111904D02*
X129342914Y-87064285D01*
X129342914Y-87064285D02*
X129247676Y-87016666D01*
X129247676Y-87016666D02*
X129152438Y-86921428D01*
X129152438Y-86921428D02*
X129104819Y-86778571D01*
X129104819Y-86778571D02*
X129104819Y-86683333D01*
X129104819Y-86683333D02*
X129152438Y-86540476D01*
X129152438Y-86540476D02*
X129200057Y-86492857D01*
X130104819Y-85540476D02*
X130104819Y-86111904D01*
X130104819Y-85826190D02*
X129104819Y-85826190D01*
X129104819Y-85826190D02*
X129247676Y-85921428D01*
X129247676Y-85921428D02*
X129342914Y-86016666D01*
X129342914Y-86016666D02*
X129390533Y-86111904D01*
X130104819Y-85064285D02*
X130104819Y-84873809D01*
X130104819Y-84873809D02*
X130057200Y-84778571D01*
X130057200Y-84778571D02*
X130009580Y-84730952D01*
X130009580Y-84730952D02*
X129866723Y-84635714D01*
X129866723Y-84635714D02*
X129676247Y-84588095D01*
X129676247Y-84588095D02*
X129295295Y-84588095D01*
X129295295Y-84588095D02*
X129200057Y-84635714D01*
X129200057Y-84635714D02*
X129152438Y-84683333D01*
X129152438Y-84683333D02*
X129104819Y-84778571D01*
X129104819Y-84778571D02*
X129104819Y-84969047D01*
X129104819Y-84969047D02*
X129152438Y-85064285D01*
X129152438Y-85064285D02*
X129200057Y-85111904D01*
X129200057Y-85111904D02*
X129295295Y-85159523D01*
X129295295Y-85159523D02*
X129533390Y-85159523D01*
X129533390Y-85159523D02*
X129628628Y-85111904D01*
X129628628Y-85111904D02*
X129676247Y-85064285D01*
X129676247Y-85064285D02*
X129723866Y-84969047D01*
X129723866Y-84969047D02*
X129723866Y-84778571D01*
X129723866Y-84778571D02*
X129676247Y-84683333D01*
X129676247Y-84683333D02*
X129628628Y-84635714D01*
X129628628Y-84635714D02*
X129533390Y-84588095D01*
X168738095Y-83354819D02*
X168738095Y-84164342D01*
X168738095Y-84164342D02*
X168785714Y-84259580D01*
X168785714Y-84259580D02*
X168833333Y-84307200D01*
X168833333Y-84307200D02*
X168928571Y-84354819D01*
X168928571Y-84354819D02*
X169119047Y-84354819D01*
X169119047Y-84354819D02*
X169214285Y-84307200D01*
X169214285Y-84307200D02*
X169261904Y-84259580D01*
X169261904Y-84259580D02*
X169309523Y-84164342D01*
X169309523Y-84164342D02*
X169309523Y-83354819D01*
X169690476Y-83354819D02*
X170309523Y-83354819D01*
X170309523Y-83354819D02*
X169976190Y-83735771D01*
X169976190Y-83735771D02*
X170119047Y-83735771D01*
X170119047Y-83735771D02*
X170214285Y-83783390D01*
X170214285Y-83783390D02*
X170261904Y-83831009D01*
X170261904Y-83831009D02*
X170309523Y-83926247D01*
X170309523Y-83926247D02*
X170309523Y-84164342D01*
X170309523Y-84164342D02*
X170261904Y-84259580D01*
X170261904Y-84259580D02*
X170214285Y-84307200D01*
X170214285Y-84307200D02*
X170119047Y-84354819D01*
X170119047Y-84354819D02*
X169833333Y-84354819D01*
X169833333Y-84354819D02*
X169738095Y-84307200D01*
X169738095Y-84307200D02*
X169690476Y-84259580D01*
X161458333Y-84479819D02*
X161125000Y-84003628D01*
X160886905Y-84479819D02*
X160886905Y-83479819D01*
X160886905Y-83479819D02*
X161267857Y-83479819D01*
X161267857Y-83479819D02*
X161363095Y-83527438D01*
X161363095Y-83527438D02*
X161410714Y-83575057D01*
X161410714Y-83575057D02*
X161458333Y-83670295D01*
X161458333Y-83670295D02*
X161458333Y-83813152D01*
X161458333Y-83813152D02*
X161410714Y-83908390D01*
X161410714Y-83908390D02*
X161363095Y-83956009D01*
X161363095Y-83956009D02*
X161267857Y-84003628D01*
X161267857Y-84003628D02*
X160886905Y-84003628D01*
X161934524Y-84479819D02*
X162125000Y-84479819D01*
X162125000Y-84479819D02*
X162220238Y-84432200D01*
X162220238Y-84432200D02*
X162267857Y-84384580D01*
X162267857Y-84384580D02*
X162363095Y-84241723D01*
X162363095Y-84241723D02*
X162410714Y-84051247D01*
X162410714Y-84051247D02*
X162410714Y-83670295D01*
X162410714Y-83670295D02*
X162363095Y-83575057D01*
X162363095Y-83575057D02*
X162315476Y-83527438D01*
X162315476Y-83527438D02*
X162220238Y-83479819D01*
X162220238Y-83479819D02*
X162029762Y-83479819D01*
X162029762Y-83479819D02*
X161934524Y-83527438D01*
X161934524Y-83527438D02*
X161886905Y-83575057D01*
X161886905Y-83575057D02*
X161839286Y-83670295D01*
X161839286Y-83670295D02*
X161839286Y-83908390D01*
X161839286Y-83908390D02*
X161886905Y-84003628D01*
X161886905Y-84003628D02*
X161934524Y-84051247D01*
X161934524Y-84051247D02*
X162029762Y-84098866D01*
X162029762Y-84098866D02*
X162220238Y-84098866D01*
X162220238Y-84098866D02*
X162315476Y-84051247D01*
X162315476Y-84051247D02*
X162363095Y-84003628D01*
X162363095Y-84003628D02*
X162410714Y-83908390D01*
X124897722Y-109134580D02*
X124850103Y-109182200D01*
X124850103Y-109182200D02*
X124707246Y-109229819D01*
X124707246Y-109229819D02*
X124612008Y-109229819D01*
X124612008Y-109229819D02*
X124469151Y-109182200D01*
X124469151Y-109182200D02*
X124373913Y-109086961D01*
X124373913Y-109086961D02*
X124326294Y-108991723D01*
X124326294Y-108991723D02*
X124278675Y-108801247D01*
X124278675Y-108801247D02*
X124278675Y-108658390D01*
X124278675Y-108658390D02*
X124326294Y-108467914D01*
X124326294Y-108467914D02*
X124373913Y-108372676D01*
X124373913Y-108372676D02*
X124469151Y-108277438D01*
X124469151Y-108277438D02*
X124612008Y-108229819D01*
X124612008Y-108229819D02*
X124707246Y-108229819D01*
X124707246Y-108229819D02*
X124850103Y-108277438D01*
X124850103Y-108277438D02*
X124897722Y-108325057D01*
X125850103Y-109229819D02*
X125278675Y-109229819D01*
X125564389Y-109229819D02*
X125564389Y-108229819D01*
X125564389Y-108229819D02*
X125469151Y-108372676D01*
X125469151Y-108372676D02*
X125373913Y-108467914D01*
X125373913Y-108467914D02*
X125278675Y-108515533D01*
X126754865Y-108229819D02*
X126278675Y-108229819D01*
X126278675Y-108229819D02*
X126231056Y-108706009D01*
X126231056Y-108706009D02*
X126278675Y-108658390D01*
X126278675Y-108658390D02*
X126373913Y-108610771D01*
X126373913Y-108610771D02*
X126612008Y-108610771D01*
X126612008Y-108610771D02*
X126707246Y-108658390D01*
X126707246Y-108658390D02*
X126754865Y-108706009D01*
X126754865Y-108706009D02*
X126802484Y-108801247D01*
X126802484Y-108801247D02*
X126802484Y-109039342D01*
X126802484Y-109039342D02*
X126754865Y-109134580D01*
X126754865Y-109134580D02*
X126707246Y-109182200D01*
X126707246Y-109182200D02*
X126612008Y-109229819D01*
X126612008Y-109229819D02*
X126373913Y-109229819D01*
X126373913Y-109229819D02*
X126278675Y-109182200D01*
X126278675Y-109182200D02*
X126231056Y-109134580D01*
X129945180Y-114466666D02*
X129230895Y-114466666D01*
X129230895Y-114466666D02*
X129088038Y-114419047D01*
X129088038Y-114419047D02*
X128992800Y-114323809D01*
X128992800Y-114323809D02*
X128945180Y-114180952D01*
X128945180Y-114180952D02*
X128945180Y-114085714D01*
X129945180Y-114847619D02*
X129945180Y-115514285D01*
X129945180Y-115514285D02*
X128945180Y-115085714D01*
X174161905Y-110154819D02*
X174161905Y-109154819D01*
X174161905Y-109154819D02*
X174400000Y-109154819D01*
X174400000Y-109154819D02*
X174542857Y-109202438D01*
X174542857Y-109202438D02*
X174638095Y-109297676D01*
X174638095Y-109297676D02*
X174685714Y-109392914D01*
X174685714Y-109392914D02*
X174733333Y-109583390D01*
X174733333Y-109583390D02*
X174733333Y-109726247D01*
X174733333Y-109726247D02*
X174685714Y-109916723D01*
X174685714Y-109916723D02*
X174638095Y-110011961D01*
X174638095Y-110011961D02*
X174542857Y-110107200D01*
X174542857Y-110107200D02*
X174400000Y-110154819D01*
X174400000Y-110154819D02*
X174161905Y-110154819D01*
X175638095Y-109154819D02*
X175161905Y-109154819D01*
X175161905Y-109154819D02*
X175114286Y-109631009D01*
X175114286Y-109631009D02*
X175161905Y-109583390D01*
X175161905Y-109583390D02*
X175257143Y-109535771D01*
X175257143Y-109535771D02*
X175495238Y-109535771D01*
X175495238Y-109535771D02*
X175590476Y-109583390D01*
X175590476Y-109583390D02*
X175638095Y-109631009D01*
X175638095Y-109631009D02*
X175685714Y-109726247D01*
X175685714Y-109726247D02*
X175685714Y-109964342D01*
X175685714Y-109964342D02*
X175638095Y-110059580D01*
X175638095Y-110059580D02*
X175590476Y-110107200D01*
X175590476Y-110107200D02*
X175495238Y-110154819D01*
X175495238Y-110154819D02*
X175257143Y-110154819D01*
X175257143Y-110154819D02*
X175161905Y-110107200D01*
X175161905Y-110107200D02*
X175114286Y-110059580D01*
X170207142Y-114229819D02*
X169873809Y-113753628D01*
X169635714Y-114229819D02*
X169635714Y-113229819D01*
X169635714Y-113229819D02*
X170016666Y-113229819D01*
X170016666Y-113229819D02*
X170111904Y-113277438D01*
X170111904Y-113277438D02*
X170159523Y-113325057D01*
X170159523Y-113325057D02*
X170207142Y-113420295D01*
X170207142Y-113420295D02*
X170207142Y-113563152D01*
X170207142Y-113563152D02*
X170159523Y-113658390D01*
X170159523Y-113658390D02*
X170111904Y-113706009D01*
X170111904Y-113706009D02*
X170016666Y-113753628D01*
X170016666Y-113753628D02*
X169635714Y-113753628D01*
X170588095Y-113325057D02*
X170635714Y-113277438D01*
X170635714Y-113277438D02*
X170730952Y-113229819D01*
X170730952Y-113229819D02*
X170969047Y-113229819D01*
X170969047Y-113229819D02*
X171064285Y-113277438D01*
X171064285Y-113277438D02*
X171111904Y-113325057D01*
X171111904Y-113325057D02*
X171159523Y-113420295D01*
X171159523Y-113420295D02*
X171159523Y-113515533D01*
X171159523Y-113515533D02*
X171111904Y-113658390D01*
X171111904Y-113658390D02*
X170540476Y-114229819D01*
X170540476Y-114229819D02*
X171159523Y-114229819D01*
X172016666Y-113563152D02*
X172016666Y-114229819D01*
X171778571Y-113182200D02*
X171540476Y-113896485D01*
X171540476Y-113896485D02*
X172159523Y-113896485D01*
X177561905Y-122079819D02*
X177561905Y-121079819D01*
X177561905Y-121079819D02*
X177800000Y-121079819D01*
X177800000Y-121079819D02*
X177942857Y-121127438D01*
X177942857Y-121127438D02*
X178038095Y-121222676D01*
X178038095Y-121222676D02*
X178085714Y-121317914D01*
X178085714Y-121317914D02*
X178133333Y-121508390D01*
X178133333Y-121508390D02*
X178133333Y-121651247D01*
X178133333Y-121651247D02*
X178085714Y-121841723D01*
X178085714Y-121841723D02*
X178038095Y-121936961D01*
X178038095Y-121936961D02*
X177942857Y-122032200D01*
X177942857Y-122032200D02*
X177800000Y-122079819D01*
X177800000Y-122079819D02*
X177561905Y-122079819D01*
X178514286Y-121175057D02*
X178561905Y-121127438D01*
X178561905Y-121127438D02*
X178657143Y-121079819D01*
X178657143Y-121079819D02*
X178895238Y-121079819D01*
X178895238Y-121079819D02*
X178990476Y-121127438D01*
X178990476Y-121127438D02*
X179038095Y-121175057D01*
X179038095Y-121175057D02*
X179085714Y-121270295D01*
X179085714Y-121270295D02*
X179085714Y-121365533D01*
X179085714Y-121365533D02*
X179038095Y-121508390D01*
X179038095Y-121508390D02*
X178466667Y-122079819D01*
X178466667Y-122079819D02*
X179085714Y-122079819D01*
X139029819Y-104661904D02*
X139839342Y-104661904D01*
X139839342Y-104661904D02*
X139934580Y-104614285D01*
X139934580Y-104614285D02*
X139982200Y-104566666D01*
X139982200Y-104566666D02*
X140029819Y-104471428D01*
X140029819Y-104471428D02*
X140029819Y-104280952D01*
X140029819Y-104280952D02*
X139982200Y-104185714D01*
X139982200Y-104185714D02*
X139934580Y-104138095D01*
X139934580Y-104138095D02*
X139839342Y-104090476D01*
X139839342Y-104090476D02*
X139029819Y-104090476D01*
X140029819Y-103566666D02*
X140029819Y-103376190D01*
X140029819Y-103376190D02*
X139982200Y-103280952D01*
X139982200Y-103280952D02*
X139934580Y-103233333D01*
X139934580Y-103233333D02*
X139791723Y-103138095D01*
X139791723Y-103138095D02*
X139601247Y-103090476D01*
X139601247Y-103090476D02*
X139220295Y-103090476D01*
X139220295Y-103090476D02*
X139125057Y-103138095D01*
X139125057Y-103138095D02*
X139077438Y-103185714D01*
X139077438Y-103185714D02*
X139029819Y-103280952D01*
X139029819Y-103280952D02*
X139029819Y-103471428D01*
X139029819Y-103471428D02*
X139077438Y-103566666D01*
X139077438Y-103566666D02*
X139125057Y-103614285D01*
X139125057Y-103614285D02*
X139220295Y-103661904D01*
X139220295Y-103661904D02*
X139458390Y-103661904D01*
X139458390Y-103661904D02*
X139553628Y-103614285D01*
X139553628Y-103614285D02*
X139601247Y-103566666D01*
X139601247Y-103566666D02*
X139648866Y-103471428D01*
X139648866Y-103471428D02*
X139648866Y-103280952D01*
X139648866Y-103280952D02*
X139601247Y-103185714D01*
X139601247Y-103185714D02*
X139553628Y-103138095D01*
X139553628Y-103138095D02*
X139458390Y-103090476D01*
X146084580Y-98642857D02*
X146132200Y-98690476D01*
X146132200Y-98690476D02*
X146179819Y-98833333D01*
X146179819Y-98833333D02*
X146179819Y-98928571D01*
X146179819Y-98928571D02*
X146132200Y-99071428D01*
X146132200Y-99071428D02*
X146036961Y-99166666D01*
X146036961Y-99166666D02*
X145941723Y-99214285D01*
X145941723Y-99214285D02*
X145751247Y-99261904D01*
X145751247Y-99261904D02*
X145608390Y-99261904D01*
X145608390Y-99261904D02*
X145417914Y-99214285D01*
X145417914Y-99214285D02*
X145322676Y-99166666D01*
X145322676Y-99166666D02*
X145227438Y-99071428D01*
X145227438Y-99071428D02*
X145179819Y-98928571D01*
X145179819Y-98928571D02*
X145179819Y-98833333D01*
X145179819Y-98833333D02*
X145227438Y-98690476D01*
X145227438Y-98690476D02*
X145275057Y-98642857D01*
X146179819Y-97690476D02*
X146179819Y-98261904D01*
X146179819Y-97976190D02*
X145179819Y-97976190D01*
X145179819Y-97976190D02*
X145322676Y-98071428D01*
X145322676Y-98071428D02*
X145417914Y-98166666D01*
X145417914Y-98166666D02*
X145465533Y-98261904D01*
X145179819Y-97357142D02*
X145179819Y-96738095D01*
X145179819Y-96738095D02*
X145560771Y-97071428D01*
X145560771Y-97071428D02*
X145560771Y-96928571D01*
X145560771Y-96928571D02*
X145608390Y-96833333D01*
X145608390Y-96833333D02*
X145656009Y-96785714D01*
X145656009Y-96785714D02*
X145751247Y-96738095D01*
X145751247Y-96738095D02*
X145989342Y-96738095D01*
X145989342Y-96738095D02*
X146084580Y-96785714D01*
X146084580Y-96785714D02*
X146132200Y-96833333D01*
X146132200Y-96833333D02*
X146179819Y-96928571D01*
X146179819Y-96928571D02*
X146179819Y-97214285D01*
X146179819Y-97214285D02*
X146132200Y-97309523D01*
X146132200Y-97309523D02*
X146084580Y-97357142D01*
X130095180Y-83141666D02*
X129380895Y-83141666D01*
X129380895Y-83141666D02*
X129238038Y-83094047D01*
X129238038Y-83094047D02*
X129142800Y-82998809D01*
X129142800Y-82998809D02*
X129095180Y-82855952D01*
X129095180Y-82855952D02*
X129095180Y-82760714D01*
X129666609Y-83760714D02*
X129714228Y-83665476D01*
X129714228Y-83665476D02*
X129761847Y-83617857D01*
X129761847Y-83617857D02*
X129857085Y-83570238D01*
X129857085Y-83570238D02*
X129904704Y-83570238D01*
X129904704Y-83570238D02*
X129999942Y-83617857D01*
X129999942Y-83617857D02*
X130047561Y-83665476D01*
X130047561Y-83665476D02*
X130095180Y-83760714D01*
X130095180Y-83760714D02*
X130095180Y-83951190D01*
X130095180Y-83951190D02*
X130047561Y-84046428D01*
X130047561Y-84046428D02*
X129999942Y-84094047D01*
X129999942Y-84094047D02*
X129904704Y-84141666D01*
X129904704Y-84141666D02*
X129857085Y-84141666D01*
X129857085Y-84141666D02*
X129761847Y-84094047D01*
X129761847Y-84094047D02*
X129714228Y-84046428D01*
X129714228Y-84046428D02*
X129666609Y-83951190D01*
X129666609Y-83951190D02*
X129666609Y-83760714D01*
X129666609Y-83760714D02*
X129618990Y-83665476D01*
X129618990Y-83665476D02*
X129571371Y-83617857D01*
X129571371Y-83617857D02*
X129476133Y-83570238D01*
X129476133Y-83570238D02*
X129285657Y-83570238D01*
X129285657Y-83570238D02*
X129190419Y-83617857D01*
X129190419Y-83617857D02*
X129142800Y-83665476D01*
X129142800Y-83665476D02*
X129095180Y-83760714D01*
X129095180Y-83760714D02*
X129095180Y-83951190D01*
X129095180Y-83951190D02*
X129142800Y-84046428D01*
X129142800Y-84046428D02*
X129190419Y-84094047D01*
X129190419Y-84094047D02*
X129285657Y-84141666D01*
X129285657Y-84141666D02*
X129476133Y-84141666D01*
X129476133Y-84141666D02*
X129571371Y-84094047D01*
X129571371Y-84094047D02*
X129618990Y-84046428D01*
X129618990Y-84046428D02*
X129666609Y-83951190D01*
X138607142Y-109754819D02*
X138273809Y-109278628D01*
X138035714Y-109754819D02*
X138035714Y-108754819D01*
X138035714Y-108754819D02*
X138416666Y-108754819D01*
X138416666Y-108754819D02*
X138511904Y-108802438D01*
X138511904Y-108802438D02*
X138559523Y-108850057D01*
X138559523Y-108850057D02*
X138607142Y-108945295D01*
X138607142Y-108945295D02*
X138607142Y-109088152D01*
X138607142Y-109088152D02*
X138559523Y-109183390D01*
X138559523Y-109183390D02*
X138511904Y-109231009D01*
X138511904Y-109231009D02*
X138416666Y-109278628D01*
X138416666Y-109278628D02*
X138035714Y-109278628D01*
X138988095Y-108850057D02*
X139035714Y-108802438D01*
X139035714Y-108802438D02*
X139130952Y-108754819D01*
X139130952Y-108754819D02*
X139369047Y-108754819D01*
X139369047Y-108754819D02*
X139464285Y-108802438D01*
X139464285Y-108802438D02*
X139511904Y-108850057D01*
X139511904Y-108850057D02*
X139559523Y-108945295D01*
X139559523Y-108945295D02*
X139559523Y-109040533D01*
X139559523Y-109040533D02*
X139511904Y-109183390D01*
X139511904Y-109183390D02*
X138940476Y-109754819D01*
X138940476Y-109754819D02*
X139559523Y-109754819D01*
X139940476Y-108850057D02*
X139988095Y-108802438D01*
X139988095Y-108802438D02*
X140083333Y-108754819D01*
X140083333Y-108754819D02*
X140321428Y-108754819D01*
X140321428Y-108754819D02*
X140416666Y-108802438D01*
X140416666Y-108802438D02*
X140464285Y-108850057D01*
X140464285Y-108850057D02*
X140511904Y-108945295D01*
X140511904Y-108945295D02*
X140511904Y-109040533D01*
X140511904Y-109040533D02*
X140464285Y-109183390D01*
X140464285Y-109183390D02*
X139892857Y-109754819D01*
X139892857Y-109754819D02*
X140511904Y-109754819D01*
X139613095Y-72779819D02*
X139613095Y-73589342D01*
X139613095Y-73589342D02*
X139660714Y-73684580D01*
X139660714Y-73684580D02*
X139708333Y-73732200D01*
X139708333Y-73732200D02*
X139803571Y-73779819D01*
X139803571Y-73779819D02*
X139994047Y-73779819D01*
X139994047Y-73779819D02*
X140089285Y-73732200D01*
X140089285Y-73732200D02*
X140136904Y-73684580D01*
X140136904Y-73684580D02*
X140184523Y-73589342D01*
X140184523Y-73589342D02*
X140184523Y-72779819D01*
X141136904Y-72779819D02*
X140660714Y-72779819D01*
X140660714Y-72779819D02*
X140613095Y-73256009D01*
X140613095Y-73256009D02*
X140660714Y-73208390D01*
X140660714Y-73208390D02*
X140755952Y-73160771D01*
X140755952Y-73160771D02*
X140994047Y-73160771D01*
X140994047Y-73160771D02*
X141089285Y-73208390D01*
X141089285Y-73208390D02*
X141136904Y-73256009D01*
X141136904Y-73256009D02*
X141184523Y-73351247D01*
X141184523Y-73351247D02*
X141184523Y-73589342D01*
X141184523Y-73589342D02*
X141136904Y-73684580D01*
X141136904Y-73684580D02*
X141089285Y-73732200D01*
X141089285Y-73732200D02*
X140994047Y-73779819D01*
X140994047Y-73779819D02*
X140755952Y-73779819D01*
X140755952Y-73779819D02*
X140660714Y-73732200D01*
X140660714Y-73732200D02*
X140613095Y-73684580D01*
X162554819Y-117396904D02*
X163364342Y-117396904D01*
X163364342Y-117396904D02*
X163459580Y-117349285D01*
X163459580Y-117349285D02*
X163507200Y-117301666D01*
X163507200Y-117301666D02*
X163554819Y-117206428D01*
X163554819Y-117206428D02*
X163554819Y-117015952D01*
X163554819Y-117015952D02*
X163507200Y-116920714D01*
X163507200Y-116920714D02*
X163459580Y-116873095D01*
X163459580Y-116873095D02*
X163364342Y-116825476D01*
X163364342Y-116825476D02*
X162554819Y-116825476D01*
X162554819Y-116444523D02*
X162554819Y-115777857D01*
X162554819Y-115777857D02*
X163554819Y-116206428D01*
X152129580Y-110266666D02*
X152177200Y-110314285D01*
X152177200Y-110314285D02*
X152224819Y-110457142D01*
X152224819Y-110457142D02*
X152224819Y-110552380D01*
X152224819Y-110552380D02*
X152177200Y-110695237D01*
X152177200Y-110695237D02*
X152081961Y-110790475D01*
X152081961Y-110790475D02*
X151986723Y-110838094D01*
X151986723Y-110838094D02*
X151796247Y-110885713D01*
X151796247Y-110885713D02*
X151653390Y-110885713D01*
X151653390Y-110885713D02*
X151462914Y-110838094D01*
X151462914Y-110838094D02*
X151367676Y-110790475D01*
X151367676Y-110790475D02*
X151272438Y-110695237D01*
X151272438Y-110695237D02*
X151224819Y-110552380D01*
X151224819Y-110552380D02*
X151224819Y-110457142D01*
X151224819Y-110457142D02*
X151272438Y-110314285D01*
X151272438Y-110314285D02*
X151320057Y-110266666D01*
X151224819Y-109933332D02*
X151224819Y-109266666D01*
X151224819Y-109266666D02*
X152224819Y-109695237D01*
X173457142Y-121054819D02*
X173123809Y-120578628D01*
X172885714Y-121054819D02*
X172885714Y-120054819D01*
X172885714Y-120054819D02*
X173266666Y-120054819D01*
X173266666Y-120054819D02*
X173361904Y-120102438D01*
X173361904Y-120102438D02*
X173409523Y-120150057D01*
X173409523Y-120150057D02*
X173457142Y-120245295D01*
X173457142Y-120245295D02*
X173457142Y-120388152D01*
X173457142Y-120388152D02*
X173409523Y-120483390D01*
X173409523Y-120483390D02*
X173361904Y-120531009D01*
X173361904Y-120531009D02*
X173266666Y-120578628D01*
X173266666Y-120578628D02*
X172885714Y-120578628D01*
X174409523Y-121054819D02*
X173838095Y-121054819D01*
X174123809Y-121054819D02*
X174123809Y-120054819D01*
X174123809Y-120054819D02*
X174028571Y-120197676D01*
X174028571Y-120197676D02*
X173933333Y-120292914D01*
X173933333Y-120292914D02*
X173838095Y-120340533D01*
X174790476Y-120150057D02*
X174838095Y-120102438D01*
X174838095Y-120102438D02*
X174933333Y-120054819D01*
X174933333Y-120054819D02*
X175171428Y-120054819D01*
X175171428Y-120054819D02*
X175266666Y-120102438D01*
X175266666Y-120102438D02*
X175314285Y-120150057D01*
X175314285Y-120150057D02*
X175361904Y-120245295D01*
X175361904Y-120245295D02*
X175361904Y-120340533D01*
X175361904Y-120340533D02*
X175314285Y-120483390D01*
X175314285Y-120483390D02*
X174742857Y-121054819D01*
X174742857Y-121054819D02*
X175361904Y-121054819D01*
X140254819Y-87866666D02*
X139778628Y-88199999D01*
X140254819Y-88438094D02*
X139254819Y-88438094D01*
X139254819Y-88438094D02*
X139254819Y-88057142D01*
X139254819Y-88057142D02*
X139302438Y-87961904D01*
X139302438Y-87961904D02*
X139350057Y-87914285D01*
X139350057Y-87914285D02*
X139445295Y-87866666D01*
X139445295Y-87866666D02*
X139588152Y-87866666D01*
X139588152Y-87866666D02*
X139683390Y-87914285D01*
X139683390Y-87914285D02*
X139731009Y-87961904D01*
X139731009Y-87961904D02*
X139778628Y-88057142D01*
X139778628Y-88057142D02*
X139778628Y-88438094D01*
X139588152Y-87009523D02*
X140254819Y-87009523D01*
X139207200Y-87247618D02*
X139921485Y-87485713D01*
X139921485Y-87485713D02*
X139921485Y-86866666D01*
X154754819Y-121688094D02*
X153754819Y-121688094D01*
X153754819Y-121688094D02*
X153754819Y-121449999D01*
X153754819Y-121449999D02*
X153802438Y-121307142D01*
X153802438Y-121307142D02*
X153897676Y-121211904D01*
X153897676Y-121211904D02*
X153992914Y-121164285D01*
X153992914Y-121164285D02*
X154183390Y-121116666D01*
X154183390Y-121116666D02*
X154326247Y-121116666D01*
X154326247Y-121116666D02*
X154516723Y-121164285D01*
X154516723Y-121164285D02*
X154611961Y-121211904D01*
X154611961Y-121211904D02*
X154707200Y-121307142D01*
X154707200Y-121307142D02*
X154754819Y-121449999D01*
X154754819Y-121449999D02*
X154754819Y-121688094D01*
X154754819Y-120164285D02*
X154754819Y-120735713D01*
X154754819Y-120449999D02*
X153754819Y-120449999D01*
X153754819Y-120449999D02*
X153897676Y-120545237D01*
X153897676Y-120545237D02*
X153992914Y-120640475D01*
X153992914Y-120640475D02*
X154040533Y-120735713D01*
X164304819Y-90591666D02*
X163828628Y-90924999D01*
X164304819Y-91163094D02*
X163304819Y-91163094D01*
X163304819Y-91163094D02*
X163304819Y-90782142D01*
X163304819Y-90782142D02*
X163352438Y-90686904D01*
X163352438Y-90686904D02*
X163400057Y-90639285D01*
X163400057Y-90639285D02*
X163495295Y-90591666D01*
X163495295Y-90591666D02*
X163638152Y-90591666D01*
X163638152Y-90591666D02*
X163733390Y-90639285D01*
X163733390Y-90639285D02*
X163781009Y-90686904D01*
X163781009Y-90686904D02*
X163828628Y-90782142D01*
X163828628Y-90782142D02*
X163828628Y-91163094D01*
X163304819Y-89734523D02*
X163304819Y-89924999D01*
X163304819Y-89924999D02*
X163352438Y-90020237D01*
X163352438Y-90020237D02*
X163400057Y-90067856D01*
X163400057Y-90067856D02*
X163542914Y-90163094D01*
X163542914Y-90163094D02*
X163733390Y-90210713D01*
X163733390Y-90210713D02*
X164114342Y-90210713D01*
X164114342Y-90210713D02*
X164209580Y-90163094D01*
X164209580Y-90163094D02*
X164257200Y-90115475D01*
X164257200Y-90115475D02*
X164304819Y-90020237D01*
X164304819Y-90020237D02*
X164304819Y-89829761D01*
X164304819Y-89829761D02*
X164257200Y-89734523D01*
X164257200Y-89734523D02*
X164209580Y-89686904D01*
X164209580Y-89686904D02*
X164114342Y-89639285D01*
X164114342Y-89639285D02*
X163876247Y-89639285D01*
X163876247Y-89639285D02*
X163781009Y-89686904D01*
X163781009Y-89686904D02*
X163733390Y-89734523D01*
X163733390Y-89734523D02*
X163685771Y-89829761D01*
X163685771Y-89829761D02*
X163685771Y-90020237D01*
X163685771Y-90020237D02*
X163733390Y-90115475D01*
X163733390Y-90115475D02*
X163781009Y-90163094D01*
X163781009Y-90163094D02*
X163876247Y-90210713D01*
X133659580Y-92392857D02*
X133707200Y-92440476D01*
X133707200Y-92440476D02*
X133754819Y-92583333D01*
X133754819Y-92583333D02*
X133754819Y-92678571D01*
X133754819Y-92678571D02*
X133707200Y-92821428D01*
X133707200Y-92821428D02*
X133611961Y-92916666D01*
X133611961Y-92916666D02*
X133516723Y-92964285D01*
X133516723Y-92964285D02*
X133326247Y-93011904D01*
X133326247Y-93011904D02*
X133183390Y-93011904D01*
X133183390Y-93011904D02*
X132992914Y-92964285D01*
X132992914Y-92964285D02*
X132897676Y-92916666D01*
X132897676Y-92916666D02*
X132802438Y-92821428D01*
X132802438Y-92821428D02*
X132754819Y-92678571D01*
X132754819Y-92678571D02*
X132754819Y-92583333D01*
X132754819Y-92583333D02*
X132802438Y-92440476D01*
X132802438Y-92440476D02*
X132850057Y-92392857D01*
X132850057Y-92011904D02*
X132802438Y-91964285D01*
X132802438Y-91964285D02*
X132754819Y-91869047D01*
X132754819Y-91869047D02*
X132754819Y-91630952D01*
X132754819Y-91630952D02*
X132802438Y-91535714D01*
X132802438Y-91535714D02*
X132850057Y-91488095D01*
X132850057Y-91488095D02*
X132945295Y-91440476D01*
X132945295Y-91440476D02*
X133040533Y-91440476D01*
X133040533Y-91440476D02*
X133183390Y-91488095D01*
X133183390Y-91488095D02*
X133754819Y-92059523D01*
X133754819Y-92059523D02*
X133754819Y-91440476D01*
X133754819Y-90488095D02*
X133754819Y-91059523D01*
X133754819Y-90773809D02*
X132754819Y-90773809D01*
X132754819Y-90773809D02*
X132897676Y-90869047D01*
X132897676Y-90869047D02*
X132992914Y-90964285D01*
X132992914Y-90964285D02*
X133040533Y-91059523D01*
X163038095Y-99004819D02*
X163038095Y-99814342D01*
X163038095Y-99814342D02*
X163085714Y-99909580D01*
X163085714Y-99909580D02*
X163133333Y-99957200D01*
X163133333Y-99957200D02*
X163228571Y-100004819D01*
X163228571Y-100004819D02*
X163419047Y-100004819D01*
X163419047Y-100004819D02*
X163514285Y-99957200D01*
X163514285Y-99957200D02*
X163561904Y-99909580D01*
X163561904Y-99909580D02*
X163609523Y-99814342D01*
X163609523Y-99814342D02*
X163609523Y-99004819D01*
X164038095Y-99100057D02*
X164085714Y-99052438D01*
X164085714Y-99052438D02*
X164180952Y-99004819D01*
X164180952Y-99004819D02*
X164419047Y-99004819D01*
X164419047Y-99004819D02*
X164514285Y-99052438D01*
X164514285Y-99052438D02*
X164561904Y-99100057D01*
X164561904Y-99100057D02*
X164609523Y-99195295D01*
X164609523Y-99195295D02*
X164609523Y-99290533D01*
X164609523Y-99290533D02*
X164561904Y-99433390D01*
X164561904Y-99433390D02*
X163990476Y-100004819D01*
X163990476Y-100004819D02*
X164609523Y-100004819D01*
X175191666Y-95754819D02*
X175191666Y-96469104D01*
X175191666Y-96469104D02*
X175144047Y-96611961D01*
X175144047Y-96611961D02*
X175048809Y-96707200D01*
X175048809Y-96707200D02*
X174905952Y-96754819D01*
X174905952Y-96754819D02*
X174810714Y-96754819D01*
X175620238Y-95850057D02*
X175667857Y-95802438D01*
X175667857Y-95802438D02*
X175763095Y-95754819D01*
X175763095Y-95754819D02*
X176001190Y-95754819D01*
X176001190Y-95754819D02*
X176096428Y-95802438D01*
X176096428Y-95802438D02*
X176144047Y-95850057D01*
X176144047Y-95850057D02*
X176191666Y-95945295D01*
X176191666Y-95945295D02*
X176191666Y-96040533D01*
X176191666Y-96040533D02*
X176144047Y-96183390D01*
X176144047Y-96183390D02*
X175572619Y-96754819D01*
X175572619Y-96754819D02*
X176191666Y-96754819D01*
X141279819Y-122616666D02*
X140803628Y-122949999D01*
X141279819Y-123188094D02*
X140279819Y-123188094D01*
X140279819Y-123188094D02*
X140279819Y-122807142D01*
X140279819Y-122807142D02*
X140327438Y-122711904D01*
X140327438Y-122711904D02*
X140375057Y-122664285D01*
X140375057Y-122664285D02*
X140470295Y-122616666D01*
X140470295Y-122616666D02*
X140613152Y-122616666D01*
X140613152Y-122616666D02*
X140708390Y-122664285D01*
X140708390Y-122664285D02*
X140756009Y-122711904D01*
X140756009Y-122711904D02*
X140803628Y-122807142D01*
X140803628Y-122807142D02*
X140803628Y-123188094D01*
X140375057Y-122235713D02*
X140327438Y-122188094D01*
X140327438Y-122188094D02*
X140279819Y-122092856D01*
X140279819Y-122092856D02*
X140279819Y-121854761D01*
X140279819Y-121854761D02*
X140327438Y-121759523D01*
X140327438Y-121759523D02*
X140375057Y-121711904D01*
X140375057Y-121711904D02*
X140470295Y-121664285D01*
X140470295Y-121664285D02*
X140565533Y-121664285D01*
X140565533Y-121664285D02*
X140708390Y-121711904D01*
X140708390Y-121711904D02*
X141279819Y-122283332D01*
X141279819Y-122283332D02*
X141279819Y-121664285D01*
X177686905Y-120679819D02*
X177686905Y-119679819D01*
X177686905Y-119679819D02*
X177925000Y-119679819D01*
X177925000Y-119679819D02*
X178067857Y-119727438D01*
X178067857Y-119727438D02*
X178163095Y-119822676D01*
X178163095Y-119822676D02*
X178210714Y-119917914D01*
X178210714Y-119917914D02*
X178258333Y-120108390D01*
X178258333Y-120108390D02*
X178258333Y-120251247D01*
X178258333Y-120251247D02*
X178210714Y-120441723D01*
X178210714Y-120441723D02*
X178163095Y-120536961D01*
X178163095Y-120536961D02*
X178067857Y-120632200D01*
X178067857Y-120632200D02*
X177925000Y-120679819D01*
X177925000Y-120679819D02*
X177686905Y-120679819D01*
X178591667Y-119679819D02*
X179210714Y-119679819D01*
X179210714Y-119679819D02*
X178877381Y-120060771D01*
X178877381Y-120060771D02*
X179020238Y-120060771D01*
X179020238Y-120060771D02*
X179115476Y-120108390D01*
X179115476Y-120108390D02*
X179163095Y-120156009D01*
X179163095Y-120156009D02*
X179210714Y-120251247D01*
X179210714Y-120251247D02*
X179210714Y-120489342D01*
X179210714Y-120489342D02*
X179163095Y-120584580D01*
X179163095Y-120584580D02*
X179115476Y-120632200D01*
X179115476Y-120632200D02*
X179020238Y-120679819D01*
X179020238Y-120679819D02*
X178734524Y-120679819D01*
X178734524Y-120679819D02*
X178639286Y-120632200D01*
X178639286Y-120632200D02*
X178591667Y-120584580D01*
X161833333Y-81034819D02*
X161500000Y-80558628D01*
X161261905Y-81034819D02*
X161261905Y-80034819D01*
X161261905Y-80034819D02*
X161642857Y-80034819D01*
X161642857Y-80034819D02*
X161738095Y-80082438D01*
X161738095Y-80082438D02*
X161785714Y-80130057D01*
X161785714Y-80130057D02*
X161833333Y-80225295D01*
X161833333Y-80225295D02*
X161833333Y-80368152D01*
X161833333Y-80368152D02*
X161785714Y-80463390D01*
X161785714Y-80463390D02*
X161738095Y-80511009D01*
X161738095Y-80511009D02*
X161642857Y-80558628D01*
X161642857Y-80558628D02*
X161261905Y-80558628D01*
X162166667Y-80034819D02*
X162785714Y-80034819D01*
X162785714Y-80034819D02*
X162452381Y-80415771D01*
X162452381Y-80415771D02*
X162595238Y-80415771D01*
X162595238Y-80415771D02*
X162690476Y-80463390D01*
X162690476Y-80463390D02*
X162738095Y-80511009D01*
X162738095Y-80511009D02*
X162785714Y-80606247D01*
X162785714Y-80606247D02*
X162785714Y-80844342D01*
X162785714Y-80844342D02*
X162738095Y-80939580D01*
X162738095Y-80939580D02*
X162690476Y-80987200D01*
X162690476Y-80987200D02*
X162595238Y-81034819D01*
X162595238Y-81034819D02*
X162309524Y-81034819D01*
X162309524Y-81034819D02*
X162214286Y-80987200D01*
X162214286Y-80987200D02*
X162166667Y-80939580D01*
X153659580Y-113192857D02*
X153707200Y-113240476D01*
X153707200Y-113240476D02*
X153754819Y-113383333D01*
X153754819Y-113383333D02*
X153754819Y-113478571D01*
X153754819Y-113478571D02*
X153707200Y-113621428D01*
X153707200Y-113621428D02*
X153611961Y-113716666D01*
X153611961Y-113716666D02*
X153516723Y-113764285D01*
X153516723Y-113764285D02*
X153326247Y-113811904D01*
X153326247Y-113811904D02*
X153183390Y-113811904D01*
X153183390Y-113811904D02*
X152992914Y-113764285D01*
X152992914Y-113764285D02*
X152897676Y-113716666D01*
X152897676Y-113716666D02*
X152802438Y-113621428D01*
X152802438Y-113621428D02*
X152754819Y-113478571D01*
X152754819Y-113478571D02*
X152754819Y-113383333D01*
X152754819Y-113383333D02*
X152802438Y-113240476D01*
X152802438Y-113240476D02*
X152850057Y-113192857D01*
X153754819Y-112240476D02*
X153754819Y-112811904D01*
X153754819Y-112526190D02*
X152754819Y-112526190D01*
X152754819Y-112526190D02*
X152897676Y-112621428D01*
X152897676Y-112621428D02*
X152992914Y-112716666D01*
X152992914Y-112716666D02*
X153040533Y-112811904D01*
X153754819Y-111288095D02*
X153754819Y-111859523D01*
X153754819Y-111573809D02*
X152754819Y-111573809D01*
X152754819Y-111573809D02*
X152897676Y-111669047D01*
X152897676Y-111669047D02*
X152992914Y-111764285D01*
X152992914Y-111764285D02*
X153040533Y-111859523D01*
X159409580Y-107391666D02*
X159457200Y-107439285D01*
X159457200Y-107439285D02*
X159504819Y-107582142D01*
X159504819Y-107582142D02*
X159504819Y-107677380D01*
X159504819Y-107677380D02*
X159457200Y-107820237D01*
X159457200Y-107820237D02*
X159361961Y-107915475D01*
X159361961Y-107915475D02*
X159266723Y-107963094D01*
X159266723Y-107963094D02*
X159076247Y-108010713D01*
X159076247Y-108010713D02*
X158933390Y-108010713D01*
X158933390Y-108010713D02*
X158742914Y-107963094D01*
X158742914Y-107963094D02*
X158647676Y-107915475D01*
X158647676Y-107915475D02*
X158552438Y-107820237D01*
X158552438Y-107820237D02*
X158504819Y-107677380D01*
X158504819Y-107677380D02*
X158504819Y-107582142D01*
X158504819Y-107582142D02*
X158552438Y-107439285D01*
X158552438Y-107439285D02*
X158600057Y-107391666D01*
X158933390Y-106820237D02*
X158885771Y-106915475D01*
X158885771Y-106915475D02*
X158838152Y-106963094D01*
X158838152Y-106963094D02*
X158742914Y-107010713D01*
X158742914Y-107010713D02*
X158695295Y-107010713D01*
X158695295Y-107010713D02*
X158600057Y-106963094D01*
X158600057Y-106963094D02*
X158552438Y-106915475D01*
X158552438Y-106915475D02*
X158504819Y-106820237D01*
X158504819Y-106820237D02*
X158504819Y-106629761D01*
X158504819Y-106629761D02*
X158552438Y-106534523D01*
X158552438Y-106534523D02*
X158600057Y-106486904D01*
X158600057Y-106486904D02*
X158695295Y-106439285D01*
X158695295Y-106439285D02*
X158742914Y-106439285D01*
X158742914Y-106439285D02*
X158838152Y-106486904D01*
X158838152Y-106486904D02*
X158885771Y-106534523D01*
X158885771Y-106534523D02*
X158933390Y-106629761D01*
X158933390Y-106629761D02*
X158933390Y-106820237D01*
X158933390Y-106820237D02*
X158981009Y-106915475D01*
X158981009Y-106915475D02*
X159028628Y-106963094D01*
X159028628Y-106963094D02*
X159123866Y-107010713D01*
X159123866Y-107010713D02*
X159314342Y-107010713D01*
X159314342Y-107010713D02*
X159409580Y-106963094D01*
X159409580Y-106963094D02*
X159457200Y-106915475D01*
X159457200Y-106915475D02*
X159504819Y-106820237D01*
X159504819Y-106820237D02*
X159504819Y-106629761D01*
X159504819Y-106629761D02*
X159457200Y-106534523D01*
X159457200Y-106534523D02*
X159409580Y-106486904D01*
X159409580Y-106486904D02*
X159314342Y-106439285D01*
X159314342Y-106439285D02*
X159123866Y-106439285D01*
X159123866Y-106439285D02*
X159028628Y-106486904D01*
X159028628Y-106486904D02*
X158981009Y-106534523D01*
X158981009Y-106534523D02*
X158933390Y-106629761D01*
X131269580Y-119292857D02*
X131317200Y-119340476D01*
X131317200Y-119340476D02*
X131364819Y-119483333D01*
X131364819Y-119483333D02*
X131364819Y-119578571D01*
X131364819Y-119578571D02*
X131317200Y-119721428D01*
X131317200Y-119721428D02*
X131221961Y-119816666D01*
X131221961Y-119816666D02*
X131126723Y-119864285D01*
X131126723Y-119864285D02*
X130936247Y-119911904D01*
X130936247Y-119911904D02*
X130793390Y-119911904D01*
X130793390Y-119911904D02*
X130602914Y-119864285D01*
X130602914Y-119864285D02*
X130507676Y-119816666D01*
X130507676Y-119816666D02*
X130412438Y-119721428D01*
X130412438Y-119721428D02*
X130364819Y-119578571D01*
X130364819Y-119578571D02*
X130364819Y-119483333D01*
X130364819Y-119483333D02*
X130412438Y-119340476D01*
X130412438Y-119340476D02*
X130460057Y-119292857D01*
X131364819Y-118340476D02*
X131364819Y-118911904D01*
X131364819Y-118626190D02*
X130364819Y-118626190D01*
X130364819Y-118626190D02*
X130507676Y-118721428D01*
X130507676Y-118721428D02*
X130602914Y-118816666D01*
X130602914Y-118816666D02*
X130650533Y-118911904D01*
X130364819Y-117483333D02*
X130364819Y-117673809D01*
X130364819Y-117673809D02*
X130412438Y-117769047D01*
X130412438Y-117769047D02*
X130460057Y-117816666D01*
X130460057Y-117816666D02*
X130602914Y-117911904D01*
X130602914Y-117911904D02*
X130793390Y-117959523D01*
X130793390Y-117959523D02*
X131174342Y-117959523D01*
X131174342Y-117959523D02*
X131269580Y-117911904D01*
X131269580Y-117911904D02*
X131317200Y-117864285D01*
X131317200Y-117864285D02*
X131364819Y-117769047D01*
X131364819Y-117769047D02*
X131364819Y-117578571D01*
X131364819Y-117578571D02*
X131317200Y-117483333D01*
X131317200Y-117483333D02*
X131269580Y-117435714D01*
X131269580Y-117435714D02*
X131174342Y-117388095D01*
X131174342Y-117388095D02*
X130936247Y-117388095D01*
X130936247Y-117388095D02*
X130841009Y-117435714D01*
X130841009Y-117435714D02*
X130793390Y-117483333D01*
X130793390Y-117483333D02*
X130745771Y-117578571D01*
X130745771Y-117578571D02*
X130745771Y-117769047D01*
X130745771Y-117769047D02*
X130793390Y-117864285D01*
X130793390Y-117864285D02*
X130841009Y-117911904D01*
X130841009Y-117911904D02*
X130936247Y-117959523D01*
X160009580Y-120916666D02*
X160057200Y-120964285D01*
X160057200Y-120964285D02*
X160104819Y-121107142D01*
X160104819Y-121107142D02*
X160104819Y-121202380D01*
X160104819Y-121202380D02*
X160057200Y-121345237D01*
X160057200Y-121345237D02*
X159961961Y-121440475D01*
X159961961Y-121440475D02*
X159866723Y-121488094D01*
X159866723Y-121488094D02*
X159676247Y-121535713D01*
X159676247Y-121535713D02*
X159533390Y-121535713D01*
X159533390Y-121535713D02*
X159342914Y-121488094D01*
X159342914Y-121488094D02*
X159247676Y-121440475D01*
X159247676Y-121440475D02*
X159152438Y-121345237D01*
X159152438Y-121345237D02*
X159104819Y-121202380D01*
X159104819Y-121202380D02*
X159104819Y-121107142D01*
X159104819Y-121107142D02*
X159152438Y-120964285D01*
X159152438Y-120964285D02*
X159200057Y-120916666D01*
X160104819Y-120440475D02*
X160104819Y-120249999D01*
X160104819Y-120249999D02*
X160057200Y-120154761D01*
X160057200Y-120154761D02*
X160009580Y-120107142D01*
X160009580Y-120107142D02*
X159866723Y-120011904D01*
X159866723Y-120011904D02*
X159676247Y-119964285D01*
X159676247Y-119964285D02*
X159295295Y-119964285D01*
X159295295Y-119964285D02*
X159200057Y-120011904D01*
X159200057Y-120011904D02*
X159152438Y-120059523D01*
X159152438Y-120059523D02*
X159104819Y-120154761D01*
X159104819Y-120154761D02*
X159104819Y-120345237D01*
X159104819Y-120345237D02*
X159152438Y-120440475D01*
X159152438Y-120440475D02*
X159200057Y-120488094D01*
X159200057Y-120488094D02*
X159295295Y-120535713D01*
X159295295Y-120535713D02*
X159533390Y-120535713D01*
X159533390Y-120535713D02*
X159628628Y-120488094D01*
X159628628Y-120488094D02*
X159676247Y-120440475D01*
X159676247Y-120440475D02*
X159723866Y-120345237D01*
X159723866Y-120345237D02*
X159723866Y-120154761D01*
X159723866Y-120154761D02*
X159676247Y-120059523D01*
X159676247Y-120059523D02*
X159628628Y-120011904D01*
X159628628Y-120011904D02*
X159533390Y-119964285D01*
X166841666Y-119969819D02*
X166841666Y-120684104D01*
X166841666Y-120684104D02*
X166794047Y-120826961D01*
X166794047Y-120826961D02*
X166698809Y-120922200D01*
X166698809Y-120922200D02*
X166555952Y-120969819D01*
X166555952Y-120969819D02*
X166460714Y-120969819D01*
X167746428Y-120303152D02*
X167746428Y-120969819D01*
X167508333Y-119922200D02*
X167270238Y-120636485D01*
X167270238Y-120636485D02*
X167889285Y-120636485D01*
X152059580Y-121091666D02*
X152107200Y-121139285D01*
X152107200Y-121139285D02*
X152154819Y-121282142D01*
X152154819Y-121282142D02*
X152154819Y-121377380D01*
X152154819Y-121377380D02*
X152107200Y-121520237D01*
X152107200Y-121520237D02*
X152011961Y-121615475D01*
X152011961Y-121615475D02*
X151916723Y-121663094D01*
X151916723Y-121663094D02*
X151726247Y-121710713D01*
X151726247Y-121710713D02*
X151583390Y-121710713D01*
X151583390Y-121710713D02*
X151392914Y-121663094D01*
X151392914Y-121663094D02*
X151297676Y-121615475D01*
X151297676Y-121615475D02*
X151202438Y-121520237D01*
X151202438Y-121520237D02*
X151154819Y-121377380D01*
X151154819Y-121377380D02*
X151154819Y-121282142D01*
X151154819Y-121282142D02*
X151202438Y-121139285D01*
X151202438Y-121139285D02*
X151250057Y-121091666D01*
X151488152Y-120234523D02*
X152154819Y-120234523D01*
X151107200Y-120472618D02*
X151821485Y-120710713D01*
X151821485Y-120710713D02*
X151821485Y-120091666D01*
X141324819Y-125766666D02*
X140848628Y-126099999D01*
X141324819Y-126338094D02*
X140324819Y-126338094D01*
X140324819Y-126338094D02*
X140324819Y-125957142D01*
X140324819Y-125957142D02*
X140372438Y-125861904D01*
X140372438Y-125861904D02*
X140420057Y-125814285D01*
X140420057Y-125814285D02*
X140515295Y-125766666D01*
X140515295Y-125766666D02*
X140658152Y-125766666D01*
X140658152Y-125766666D02*
X140753390Y-125814285D01*
X140753390Y-125814285D02*
X140801009Y-125861904D01*
X140801009Y-125861904D02*
X140848628Y-125957142D01*
X140848628Y-125957142D02*
X140848628Y-126338094D01*
X141324819Y-124814285D02*
X141324819Y-125385713D01*
X141324819Y-125099999D02*
X140324819Y-125099999D01*
X140324819Y-125099999D02*
X140467676Y-125195237D01*
X140467676Y-125195237D02*
X140562914Y-125290475D01*
X140562914Y-125290475D02*
X140610533Y-125385713D01*
X149157142Y-95034580D02*
X149109523Y-95082200D01*
X149109523Y-95082200D02*
X148966666Y-95129819D01*
X148966666Y-95129819D02*
X148871428Y-95129819D01*
X148871428Y-95129819D02*
X148728571Y-95082200D01*
X148728571Y-95082200D02*
X148633333Y-94986961D01*
X148633333Y-94986961D02*
X148585714Y-94891723D01*
X148585714Y-94891723D02*
X148538095Y-94701247D01*
X148538095Y-94701247D02*
X148538095Y-94558390D01*
X148538095Y-94558390D02*
X148585714Y-94367914D01*
X148585714Y-94367914D02*
X148633333Y-94272676D01*
X148633333Y-94272676D02*
X148728571Y-94177438D01*
X148728571Y-94177438D02*
X148871428Y-94129819D01*
X148871428Y-94129819D02*
X148966666Y-94129819D01*
X148966666Y-94129819D02*
X149109523Y-94177438D01*
X149109523Y-94177438D02*
X149157142Y-94225057D01*
X150109523Y-95129819D02*
X149538095Y-95129819D01*
X149823809Y-95129819D02*
X149823809Y-94129819D01*
X149823809Y-94129819D02*
X149728571Y-94272676D01*
X149728571Y-94272676D02*
X149633333Y-94367914D01*
X149633333Y-94367914D02*
X149538095Y-94415533D01*
X150966666Y-94463152D02*
X150966666Y-95129819D01*
X150728571Y-94082200D02*
X150490476Y-94796485D01*
X150490476Y-94796485D02*
X151109523Y-94796485D01*
X131559580Y-111552277D02*
X131607200Y-111599896D01*
X131607200Y-111599896D02*
X131654819Y-111742753D01*
X131654819Y-111742753D02*
X131654819Y-111837991D01*
X131654819Y-111837991D02*
X131607200Y-111980848D01*
X131607200Y-111980848D02*
X131511961Y-112076086D01*
X131511961Y-112076086D02*
X131416723Y-112123705D01*
X131416723Y-112123705D02*
X131226247Y-112171324D01*
X131226247Y-112171324D02*
X131083390Y-112171324D01*
X131083390Y-112171324D02*
X130892914Y-112123705D01*
X130892914Y-112123705D02*
X130797676Y-112076086D01*
X130797676Y-112076086D02*
X130702438Y-111980848D01*
X130702438Y-111980848D02*
X130654819Y-111837991D01*
X130654819Y-111837991D02*
X130654819Y-111742753D01*
X130654819Y-111742753D02*
X130702438Y-111599896D01*
X130702438Y-111599896D02*
X130750057Y-111552277D01*
X131654819Y-110599896D02*
X131654819Y-111171324D01*
X131654819Y-110885610D02*
X130654819Y-110885610D01*
X130654819Y-110885610D02*
X130797676Y-110980848D01*
X130797676Y-110980848D02*
X130892914Y-111076086D01*
X130892914Y-111076086D02*
X130940533Y-111171324D01*
X130654819Y-110266562D02*
X130654819Y-109599896D01*
X130654819Y-109599896D02*
X131654819Y-110028467D01*
X139909580Y-82166666D02*
X139957200Y-82214285D01*
X139957200Y-82214285D02*
X140004819Y-82357142D01*
X140004819Y-82357142D02*
X140004819Y-82452380D01*
X140004819Y-82452380D02*
X139957200Y-82595237D01*
X139957200Y-82595237D02*
X139861961Y-82690475D01*
X139861961Y-82690475D02*
X139766723Y-82738094D01*
X139766723Y-82738094D02*
X139576247Y-82785713D01*
X139576247Y-82785713D02*
X139433390Y-82785713D01*
X139433390Y-82785713D02*
X139242914Y-82738094D01*
X139242914Y-82738094D02*
X139147676Y-82690475D01*
X139147676Y-82690475D02*
X139052438Y-82595237D01*
X139052438Y-82595237D02*
X139004819Y-82452380D01*
X139004819Y-82452380D02*
X139004819Y-82357142D01*
X139004819Y-82357142D02*
X139052438Y-82214285D01*
X139052438Y-82214285D02*
X139100057Y-82166666D01*
X139100057Y-81785713D02*
X139052438Y-81738094D01*
X139052438Y-81738094D02*
X139004819Y-81642856D01*
X139004819Y-81642856D02*
X139004819Y-81404761D01*
X139004819Y-81404761D02*
X139052438Y-81309523D01*
X139052438Y-81309523D02*
X139100057Y-81261904D01*
X139100057Y-81261904D02*
X139195295Y-81214285D01*
X139195295Y-81214285D02*
X139290533Y-81214285D01*
X139290533Y-81214285D02*
X139433390Y-81261904D01*
X139433390Y-81261904D02*
X140004819Y-81833332D01*
X140004819Y-81833332D02*
X140004819Y-81214285D01*
X140013095Y-116054819D02*
X140013095Y-116864342D01*
X140013095Y-116864342D02*
X140060714Y-116959580D01*
X140060714Y-116959580D02*
X140108333Y-117007200D01*
X140108333Y-117007200D02*
X140203571Y-117054819D01*
X140203571Y-117054819D02*
X140394047Y-117054819D01*
X140394047Y-117054819D02*
X140489285Y-117007200D01*
X140489285Y-117007200D02*
X140536904Y-116959580D01*
X140536904Y-116959580D02*
X140584523Y-116864342D01*
X140584523Y-116864342D02*
X140584523Y-116054819D01*
X141584523Y-117054819D02*
X141013095Y-117054819D01*
X141298809Y-117054819D02*
X141298809Y-116054819D01*
X141298809Y-116054819D02*
X141203571Y-116197676D01*
X141203571Y-116197676D02*
X141108333Y-116292914D01*
X141108333Y-116292914D02*
X141013095Y-116340533D01*
D11*
%TO.C,J5*%
X123430000Y-95185000D02*
X123430000Y-107945000D01*
X123430000Y-92585000D02*
X123430000Y-93915000D01*
X122100000Y-92585000D02*
X123430000Y-92585000D01*
X120770000Y-107945000D02*
X123430000Y-107945000D01*
X120770000Y-95185000D02*
X123430000Y-95185000D01*
X120770000Y-95185000D02*
X120770000Y-107945000D01*
%TO.C,R30*%
X130177500Y-104837258D02*
X130177500Y-104362742D01*
X131222500Y-104837258D02*
X131222500Y-104362742D01*
%TO.C,R29*%
X126222500Y-104362742D02*
X126222500Y-104837258D01*
X125177500Y-104362742D02*
X125177500Y-104837258D01*
%TO.C,R28*%
X129537258Y-98522500D02*
X129062742Y-98522500D01*
X129537258Y-97477500D02*
X129062742Y-97477500D01*
%TO.C,R27*%
X125177500Y-100737258D02*
X125177500Y-100262742D01*
X126222500Y-100737258D02*
X126222500Y-100262742D01*
%TO.C,R26*%
X128937258Y-93222500D02*
X128462742Y-93222500D01*
X128937258Y-92177500D02*
X128462742Y-92177500D01*
%TO.C,R25*%
X126222500Y-97062742D02*
X126222500Y-97537258D01*
X125177500Y-97062742D02*
X125177500Y-97537258D01*
%TO.C,Q3*%
X129760000Y-104240000D02*
X129760000Y-105760000D01*
X129710000Y-104240000D02*
X129760000Y-104240000D01*
X127810000Y-104240000D02*
X128590000Y-104240000D01*
X126640000Y-104240000D02*
X126690000Y-104240000D01*
X129760000Y-105760000D02*
X128760000Y-105760000D01*
X127640000Y-105760000D02*
X126640000Y-105760000D01*
X126640000Y-105760000D02*
X126640000Y-104240000D01*
X128580000Y-103700000D02*
X128250000Y-103940000D01*
X128250000Y-103460000D01*
X128580000Y-103700000D01*
G36*
X128580000Y-103700000D02*
G01*
X128250000Y-103940000D01*
X128250000Y-103460000D01*
X128580000Y-103700000D01*
G37*
%TO.C,Q2*%
X127840000Y-99040000D02*
X129360000Y-99040000D01*
X127840000Y-99090000D02*
X127840000Y-99040000D01*
X127840000Y-100990000D02*
X127840000Y-100210000D01*
X127840000Y-102160000D02*
X127840000Y-102110000D01*
X129360000Y-99040000D02*
X129360000Y-100040000D01*
X129360000Y-101160000D02*
X129360000Y-102160000D01*
X129360000Y-102160000D02*
X127840000Y-102160000D01*
X127540000Y-100550000D02*
X127060000Y-100550000D01*
X127300000Y-100220000D01*
X127540000Y-100550000D01*
G36*
X127540000Y-100550000D02*
G01*
X127060000Y-100550000D01*
X127300000Y-100220000D01*
X127540000Y-100550000D01*
G37*
%TO.C,Q1*%
X127740000Y-93840000D02*
X129260000Y-93840000D01*
X127740000Y-93890000D02*
X127740000Y-93840000D01*
X127740000Y-95790000D02*
X127740000Y-95010000D01*
X127740000Y-96960000D02*
X127740000Y-96910000D01*
X129260000Y-93840000D02*
X129260000Y-94840000D01*
X129260000Y-95960000D02*
X129260000Y-96960000D01*
X129260000Y-96960000D02*
X127740000Y-96960000D01*
X127440000Y-95350000D02*
X126960000Y-95350000D01*
X127200000Y-95020000D01*
X127440000Y-95350000D01*
G36*
X127440000Y-95350000D02*
G01*
X126960000Y-95350000D01*
X127200000Y-95020000D01*
X127440000Y-95350000D01*
G37*
%TO.C,R20*%
X173787742Y-117877500D02*
X174262258Y-117877500D01*
X173787742Y-118922500D02*
X174262258Y-118922500D01*
%TO.C,R13*%
X162837258Y-119912500D02*
X162362742Y-119912500D01*
X162837258Y-120957500D02*
X162362742Y-120957500D01*
%TO.C,C5*%
X151190000Y-115034420D02*
X151190000Y-115315580D01*
X152210000Y-115034420D02*
X152210000Y-115315580D01*
%TO.C,C6*%
X158990000Y-78234420D02*
X158990000Y-78515580D01*
X160010000Y-78234420D02*
X160010000Y-78515580D01*
%TO.C,R23*%
X173787742Y-114777500D02*
X174262258Y-114777500D01*
X173787742Y-115822500D02*
X174262258Y-115822500D01*
%TO.C,C20*%
X128990000Y-81250580D02*
X128990000Y-80969420D01*
X130010000Y-81250580D02*
X130010000Y-80969420D01*
%TO.C,C12*%
X158490000Y-115059420D02*
X158490000Y-115340580D01*
X159510000Y-115059420D02*
X159510000Y-115340580D01*
%TO.C,U4*%
X155190000Y-113640000D02*
X157010000Y-113640000D01*
X155190000Y-113690000D02*
X155190000Y-113640000D01*
X155190000Y-116760000D02*
X155190000Y-116710000D01*
X157010000Y-113640000D02*
X157010000Y-113690000D01*
X157010000Y-114810000D02*
X157010000Y-115590000D01*
X157010000Y-116710000D02*
X157010000Y-116760000D01*
X157010000Y-116760000D02*
X155190000Y-116760000D01*
X154650000Y-113690000D02*
X154410000Y-113360000D01*
X154890000Y-113360000D01*
X154650000Y-113690000D01*
G36*
X154650000Y-113690000D02*
G01*
X154410000Y-113360000D01*
X154890000Y-113360000D01*
X154650000Y-113690000D01*
G37*
%TO.C,J1*%
X143245000Y-124720000D02*
X143245000Y-128720000D01*
X143535000Y-123690000D02*
X143535000Y-129710000D01*
X143535000Y-129710000D02*
X153915000Y-129710000D01*
X144115000Y-123690000D02*
X144115000Y-124290000D01*
X144115000Y-124290000D02*
X145715000Y-124290000D01*
X144915000Y-128710000D02*
X145165000Y-128180000D01*
X144915000Y-128710000D02*
X152535000Y-128710000D01*
X144915000Y-129710000D02*
X144915000Y-128710000D01*
X145165000Y-128180000D02*
X152285000Y-128180000D01*
X145165000Y-129710000D02*
X145165000Y-128710000D01*
X145715000Y-124290000D02*
X145715000Y-123690000D01*
X146655000Y-123690000D02*
X146655000Y-124290000D01*
X146655000Y-124290000D02*
X148255000Y-124290000D01*
X148255000Y-124290000D02*
X148255000Y-123690000D01*
X149195000Y-123690000D02*
X149195000Y-124290000D01*
X149195000Y-124290000D02*
X150795000Y-124290000D01*
X150795000Y-124290000D02*
X150795000Y-123690000D01*
X151735000Y-123690000D02*
X151735000Y-124290000D01*
X151735000Y-124290000D02*
X153335000Y-124290000D01*
X152285000Y-128180000D02*
X152535000Y-128710000D01*
X152285000Y-129710000D02*
X152285000Y-128710000D01*
X152535000Y-128710000D02*
X152535000Y-129710000D01*
X153335000Y-124290000D02*
X153335000Y-123690000D01*
X153915000Y-123690000D02*
X143535000Y-123690000D01*
X153915000Y-129710000D02*
X153915000Y-123690000D01*
%TO.C,D4*%
X176200000Y-116035000D02*
X178485000Y-116035000D01*
X178485000Y-114565000D02*
X176200000Y-114565000D01*
X178485000Y-116035000D02*
X178485000Y-114565000D01*
%TO.C,J3*%
X176670000Y-81370000D02*
X176670000Y-94130000D01*
X176670000Y-81370000D02*
X179330000Y-81370000D01*
X176670000Y-94130000D02*
X179330000Y-94130000D01*
X178000000Y-78770000D02*
X179330000Y-78770000D01*
X179330000Y-78770000D02*
X179330000Y-80100000D01*
X179330000Y-81370000D02*
X179330000Y-94130000D01*
%TO.C,C23*%
X131490000Y-81240580D02*
X131490000Y-80959420D01*
X132510000Y-81240580D02*
X132510000Y-80959420D01*
%TO.C,R10*%
X161262742Y-86555000D02*
X161737258Y-86555000D01*
X161262742Y-87600000D02*
X161737258Y-87600000D01*
%TO.C,C1*%
X140490000Y-78840580D02*
X140490000Y-78559420D01*
X141510000Y-78840580D02*
X141510000Y-78559420D01*
%TO.C,C10*%
X159090000Y-126684420D02*
X159090000Y-126965580D01*
X160110000Y-126684420D02*
X160110000Y-126965580D01*
%TO.C,C3*%
X137490000Y-78840580D02*
X137490000Y-78559420D01*
X138510000Y-78840580D02*
X138510000Y-78559420D01*
%TO.C,R8*%
X161262742Y-92677500D02*
X161737258Y-92677500D01*
X161262742Y-93722500D02*
X161737258Y-93722500D01*
%TO.C,R5*%
X137777500Y-84462742D02*
X137777500Y-84937258D01*
X138822500Y-84462742D02*
X138822500Y-84937258D01*
%TO.C,R21*%
X173787742Y-116277500D02*
X174262258Y-116277500D01*
X173787742Y-117322500D02*
X174262258Y-117322500D01*
%TO.C,JP1*%
X130600000Y-73900000D02*
X130600000Y-72500000D01*
X131300000Y-71800000D02*
X131900000Y-71800000D01*
X131900000Y-74600000D02*
X131300000Y-74600000D01*
X132600000Y-72500000D02*
X132600000Y-73900000D01*
X130600000Y-72500000D02*
G75*
G02*
X131300000Y-71800000I699999J1D01*
G01*
X131300000Y-74600000D02*
G75*
G02*
X130600000Y-73900000I0J700000D01*
G01*
X131900000Y-71800000D02*
G75*
G02*
X132600000Y-72500000I1J-699999D01*
G01*
X132600000Y-73900000D02*
G75*
G02*
X131900000Y-74600000I-700000J0D01*
G01*
%TO.C,C18*%
X135984420Y-98810000D02*
X136265580Y-98810000D01*
X135984420Y-99830000D02*
X136265580Y-99830000D01*
%TO.C,R11*%
X161262742Y-88077500D02*
X161737258Y-88077500D01*
X161262742Y-89122500D02*
X161737258Y-89122500D01*
%TO.C,U6*%
X155190000Y-110240000D02*
X157010000Y-110240000D01*
X155190000Y-110290000D02*
X155190000Y-110240000D01*
X155190000Y-113360000D02*
X155190000Y-113310000D01*
X157010000Y-110240000D02*
X157010000Y-110290000D01*
X157010000Y-111410000D02*
X157010000Y-112190000D01*
X157010000Y-113310000D02*
X157010000Y-113360000D01*
X157010000Y-113360000D02*
X155190000Y-113360000D01*
X154650000Y-110290000D02*
X154410000Y-109960000D01*
X154890000Y-109960000D01*
X154650000Y-110290000D01*
G36*
X154650000Y-110290000D02*
G01*
X154410000Y-109960000D01*
X154890000Y-109960000D01*
X154650000Y-110290000D01*
G37*
D12*
%TO.C,U8*%
X148500000Y-98805000D02*
X148500000Y-98750000D01*
X148500000Y-101250000D02*
X148500000Y-101195000D01*
X149055000Y-98750000D02*
X148500000Y-98750000D01*
X149055000Y-101250000D02*
X148500000Y-101250000D01*
X151500000Y-98750000D02*
X150945000Y-98750000D01*
X151500000Y-98805000D02*
X151500000Y-98750000D01*
X151500000Y-101250000D02*
X150945000Y-101250000D01*
X151500000Y-101250000D02*
X151500000Y-101195000D01*
D10*
X152075000Y-100900000D02*
G75*
G02*
X151925000Y-100900000I-75000J0D01*
G01*
X151925000Y-100900000D02*
G75*
G02*
X152075000Y-100900000I75000J0D01*
G01*
D11*
%TO.C,C22*%
X130590000Y-88659420D02*
X130590000Y-88940580D01*
X131610000Y-88659420D02*
X131610000Y-88940580D01*
%TO.C,J6*%
X130380000Y-125950000D02*
X130380000Y-124250000D01*
X139720000Y-125950000D02*
X139720000Y-124250000D01*
%TO.C,R7*%
X161262742Y-91177500D02*
X161737258Y-91177500D01*
X161262742Y-92222500D02*
X161737258Y-92222500D01*
%TO.C,C19*%
X128990000Y-88684420D02*
X128990000Y-88965580D01*
X130010000Y-88684420D02*
X130010000Y-88965580D01*
%TO.C,U3*%
X167115000Y-84740000D02*
X171885000Y-84740000D01*
X167115000Y-85020000D02*
X167115000Y-84740000D01*
X167115000Y-95260000D02*
X167115000Y-94980000D01*
X171885000Y-84740000D02*
X171885000Y-85020000D01*
X171885000Y-94980000D02*
X171885000Y-95260000D01*
X171885000Y-95260000D02*
X167115000Y-95260000D01*
X166250000Y-85010000D02*
X165910000Y-84540000D01*
X166590000Y-84540000D01*
X166250000Y-85010000D01*
G36*
X166250000Y-85010000D02*
G01*
X165910000Y-84540000D01*
X166590000Y-84540000D01*
X166250000Y-85010000D01*
G37*
%TO.C,R9*%
X161262742Y-85032500D02*
X161737258Y-85032500D01*
X161262742Y-86077500D02*
X161737258Y-86077500D01*
%TO.C,C15*%
X125259420Y-106590000D02*
X125540580Y-106590000D01*
X125259420Y-107610000D02*
X125540580Y-107610000D01*
%TO.C,J7*%
X124000000Y-110130000D02*
X125700000Y-110130000D01*
X124000000Y-119470000D02*
X125700000Y-119470000D01*
%TO.C,D5*%
X176200000Y-114535000D02*
X178485000Y-114535000D01*
X178485000Y-113065000D02*
X176200000Y-113065000D01*
X178485000Y-114535000D02*
X178485000Y-113065000D01*
%TO.C,R24*%
X173787742Y-113277500D02*
X174262258Y-113277500D01*
X173787742Y-114322500D02*
X174262258Y-114322500D01*
%TO.C,D2*%
X176200000Y-119135000D02*
X178485000Y-119135000D01*
X178485000Y-117665000D02*
X176200000Y-117665000D01*
X178485000Y-119135000D02*
X178485000Y-117665000D01*
%TO.C,U9*%
X133615000Y-101840000D02*
X133710000Y-101840000D01*
X133615000Y-105960000D02*
X133615000Y-101840000D01*
X133710000Y-105960000D02*
X133615000Y-105960000D01*
X138640000Y-101840000D02*
X138735000Y-101840000D01*
X138735000Y-101840000D02*
X138735000Y-105960000D01*
X138735000Y-105960000D02*
X138640000Y-105960000D01*
X138975000Y-101540000D02*
X138645000Y-101300000D01*
X138975000Y-101060000D01*
X138975000Y-101540000D01*
G36*
X138975000Y-101540000D02*
G01*
X138645000Y-101300000D01*
X138975000Y-101060000D01*
X138975000Y-101540000D01*
G37*
%TO.C,C13*%
X146990000Y-98140580D02*
X146990000Y-97859420D01*
X148010000Y-98140580D02*
X148010000Y-97859420D01*
%TO.C,J8*%
X123900000Y-80330000D02*
X125600000Y-80330000D01*
X123900000Y-89670000D02*
X125600000Y-89670000D01*
%TO.C,R22*%
X135912742Y-108797500D02*
X136387258Y-108797500D01*
X135912742Y-109842500D02*
X136387258Y-109842500D01*
D12*
%TO.C,U5*%
X142300000Y-72225000D02*
X157700000Y-72225000D01*
X142300000Y-77275000D02*
X142300000Y-72225000D01*
X157700000Y-72225000D02*
X157700000Y-77275000D01*
X157700000Y-92725000D02*
X142300000Y-92725000D01*
D13*
X141650000Y-79050000D02*
G75*
G02*
X141450000Y-79050000I-100000J0D01*
G01*
X141450000Y-79050000D02*
G75*
G02*
X141650000Y-79050000I100000J0D01*
G01*
D11*
%TO.C,U7*%
X163940000Y-115725000D02*
X163990000Y-115725000D01*
X163940000Y-117545000D02*
X163940000Y-115725000D01*
X163990000Y-117545000D02*
X163940000Y-117545000D01*
X167010000Y-115725000D02*
X167060000Y-115725000D01*
X167060000Y-115725000D02*
X167060000Y-117545000D01*
X167060000Y-117545000D02*
X167010000Y-117545000D01*
X163990000Y-118085000D02*
X163660000Y-118325000D01*
X163660000Y-117845000D01*
X163990000Y-118085000D01*
G36*
X163990000Y-118085000D02*
G01*
X163660000Y-118325000D01*
X163660000Y-117845000D01*
X163990000Y-118085000D01*
G37*
%TO.C,C7*%
X152690000Y-110240580D02*
X152690000Y-109959420D01*
X153710000Y-110240580D02*
X153710000Y-109959420D01*
%TO.C,R12*%
X170162742Y-119912500D02*
X170637258Y-119912500D01*
X170162742Y-120957500D02*
X170637258Y-120957500D01*
%TO.C,R4*%
X137777500Y-87937258D02*
X137777500Y-87462742D01*
X138822500Y-87937258D02*
X138822500Y-87462742D01*
%TO.C,D1*%
X155250000Y-119715000D02*
X155250000Y-125225000D01*
X158550000Y-119715000D02*
X155250000Y-119715000D01*
X158550000Y-119715000D02*
X158550000Y-125225000D01*
%TO.C,R6*%
X161262742Y-89677500D02*
X161737258Y-89677500D01*
X161262742Y-90722500D02*
X161737258Y-90722500D01*
%TO.C,C21*%
X132690000Y-88659420D02*
X132690000Y-88940580D01*
X133710000Y-88659420D02*
X133710000Y-88940580D01*
%TO.C,U2*%
X167115000Y-96240000D02*
X171885000Y-96240000D01*
X167115000Y-96520000D02*
X167115000Y-96240000D01*
X167115000Y-106760000D02*
X167115000Y-106480000D01*
X171885000Y-96240000D02*
X171885000Y-96520000D01*
X171885000Y-106480000D02*
X171885000Y-106760000D01*
X171885000Y-106760000D02*
X167115000Y-106760000D01*
X166250000Y-96510000D02*
X165910000Y-96040000D01*
X166590000Y-96040000D01*
X166250000Y-96510000D01*
G36*
X166250000Y-96510000D02*
G01*
X165910000Y-96040000D01*
X166590000Y-96040000D01*
X166250000Y-96510000D01*
G37*
%TO.C,J2*%
X176670000Y-97615000D02*
X176670000Y-110375000D01*
X176670000Y-97615000D02*
X179330000Y-97615000D01*
X176670000Y-110375000D02*
X179330000Y-110375000D01*
X178000000Y-95015000D02*
X179330000Y-95015000D01*
X179330000Y-95015000D02*
X179330000Y-96345000D01*
X179330000Y-97615000D02*
X179330000Y-110375000D01*
%TO.C,R2*%
X141777500Y-122737258D02*
X141777500Y-122262742D01*
X142822500Y-122737258D02*
X142822500Y-122262742D01*
%TO.C,D3*%
X176200000Y-117535000D02*
X178485000Y-117535000D01*
X178485000Y-116065000D02*
X176200000Y-116065000D01*
X178485000Y-117535000D02*
X178485000Y-116065000D01*
%TO.C,R3*%
X162237258Y-78627500D02*
X161762742Y-78627500D01*
X162237258Y-79672500D02*
X161762742Y-79672500D01*
%TO.C,C11*%
X152790000Y-115059420D02*
X152790000Y-115340580D01*
X153810000Y-115059420D02*
X153810000Y-115340580D01*
%TO.C,C8*%
X158490000Y-110040580D02*
X158490000Y-109759420D01*
X159510000Y-110040580D02*
X159510000Y-109759420D01*
%TO.C,C16*%
X128970000Y-118509420D02*
X128970000Y-118790580D01*
X129990000Y-118509420D02*
X129990000Y-118790580D01*
%TO.C,C9*%
X159090000Y-123965580D02*
X159090000Y-123684420D01*
X160110000Y-123965580D02*
X160110000Y-123684420D01*
%TO.C,J4*%
X161330000Y-125915000D02*
X161330000Y-124215000D01*
X170670000Y-125915000D02*
X170670000Y-124215000D01*
%TO.C,C4*%
X151190000Y-118365580D02*
X151190000Y-118084420D01*
X152210000Y-118365580D02*
X152210000Y-118084420D01*
%TO.C,R1*%
X141777500Y-125837258D02*
X141777500Y-125362742D01*
X142822500Y-125837258D02*
X142822500Y-125362742D01*
%TO.C,C14*%
X149940580Y-96690000D02*
X149659420Y-96690000D01*
X149940580Y-97710000D02*
X149659420Y-97710000D01*
%TO.C,C17*%
X128970000Y-111190580D02*
X128970000Y-110909420D01*
X129990000Y-111190580D02*
X129990000Y-110909420D01*
%TO.C,C2*%
X138990000Y-78840580D02*
X138990000Y-78559420D01*
X140010000Y-78840580D02*
X140010000Y-78559420D01*
%TO.C,U1*%
X144390000Y-113290000D02*
X144390000Y-114550000D01*
X144390000Y-120110000D02*
X144390000Y-118850000D01*
X148150000Y-113290000D02*
X144390000Y-113290000D01*
X148150000Y-120110000D02*
X144390000Y-120110000D01*
X149670000Y-120340000D02*
X149190000Y-120340000D01*
X149430000Y-120010000D01*
X149670000Y-120340000D01*
G36*
X149670000Y-120340000D02*
G01*
X149190000Y-120340000D01*
X149430000Y-120010000D01*
X149670000Y-120340000D01*
G37*
%TD*%
M02*
