%TF.GenerationSoftware,KiCad,Pcbnew,9.0.6*%
%TF.CreationDate,2026-01-02T10:14:10+05:30*%
%TF.ProjectId,Main_Controller,4d61696e-5f43-46f6-9e74-726f6c6c6572,rev?*%
%TF.SameCoordinates,Original*%
%TF.FileFunction,Soldermask,Top*%
%TF.FilePolarity,Negative*%
%FSLAX46Y46*%
G04 Gerber Fmt 4.6, Leading zero omitted, Abs format (unit mm)*
G04 Created by KiCad (PCBNEW 9.0.6) date 2026-01-02 10:14:10*
%MOMM*%
%LPD*%
G01*
G04 APERTURE LIST*
G04 Aperture macros list*
%AMRoundRect*
0 Rectangle with rounded corners*
0 $1 Rounding radius*
0 $2 $3 $4 $5 $6 $7 $8 $9 X,Y pos of 4 corners*
0 Add a 4 corners polygon primitive as box body*
4,1,4,$2,$3,$4,$5,$6,$7,$8,$9,$2,$3,0*
0 Add four circle primitives for the rounded corners*
1,1,$1+$1,$2,$3*
1,1,$1+$1,$4,$5*
1,1,$1+$1,$6,$7*
1,1,$1+$1,$8,$9*
0 Add four rect primitives between the rounded corners*
20,1,$1+$1,$2,$3,$4,$5,0*
20,1,$1+$1,$4,$5,$6,$7,0*
20,1,$1+$1,$6,$7,$8,$9,0*
20,1,$1+$1,$8,$9,$2,$3,0*%
%AMFreePoly0*
4,1,43,0.506364,0.756364,0.509000,0.750000,0.509000,-0.750000,0.506364,-0.756364,0.500000,-0.759000,0.000000,-0.759000,-0.006364,-0.756364,-0.007044,-0.754722,-0.065263,-0.754722,-0.067592,-0.754415,-0.193671,-0.720633,-0.195842,-0.719734,-0.308881,-0.654471,-0.310745,-0.653041,-0.403041,-0.560745,-0.404471,-0.558881,-0.469734,-0.445842,-0.470633,-0.443671,-0.504415,-0.317592,-0.504722,-0.315263,
-0.504722,-0.257044,-0.506364,-0.256364,-0.509000,-0.250000,-0.509000,0.250000,-0.506364,0.256364,-0.504722,0.257044,-0.504722,0.315263,-0.504415,0.317592,-0.470633,0.443671,-0.469734,0.445842,-0.404471,0.558881,-0.403041,0.560745,-0.310745,0.653041,-0.308881,0.654471,-0.195842,0.719734,-0.193671,0.720633,-0.067592,0.754415,-0.065263,0.754722,-0.007044,0.754722,-0.006364,0.756364,
0.000000,0.759000,0.500000,0.759000,0.506364,0.756364,0.506364,0.756364,$1*%
%AMFreePoly1*
4,1,43,0.006364,0.756364,0.007044,0.754722,0.065263,0.754722,0.067592,0.754415,0.193671,0.720633,0.195842,0.719734,0.308881,0.654471,0.310745,0.653041,0.403041,0.560745,0.404471,0.558881,0.469734,0.445842,0.470633,0.443671,0.504415,0.317592,0.504722,0.315263,0.504722,0.257044,0.506364,0.256364,0.509000,0.250000,0.509000,-0.250000,0.506364,-0.256364,0.504722,-0.257044,
0.504722,-0.315263,0.504415,-0.317592,0.470633,-0.443671,0.469734,-0.445842,0.404471,-0.558881,0.403041,-0.560745,0.310745,-0.653041,0.308881,-0.654471,0.195842,-0.719734,0.193671,-0.720633,0.067592,-0.754415,0.065263,-0.754722,0.007044,-0.754722,0.006364,-0.756364,0.000000,-0.759000,-0.500000,-0.759000,-0.506364,-0.756364,-0.509000,-0.750000,-0.509000,0.750000,-0.506364,0.756364,
-0.500000,0.759000,0.000000,0.759000,0.006364,0.756364,0.006364,0.756364,$1*%
G04 Aperture macros list end*
%ADD10C,0.010000*%
%ADD11C,1.718000*%
%ADD12RoundRect,0.009000X-0.850000X-0.850000X0.850000X-0.850000X0.850000X0.850000X-0.850000X0.850000X0*%
%ADD13RoundRect,0.204500X0.279500X-0.204500X0.279500X0.204500X-0.279500X0.204500X-0.279500X-0.204500X0*%
%ADD14RoundRect,0.204500X-0.279500X0.204500X-0.279500X-0.204500X0.279500X-0.204500X0.279500X0.204500X0*%
%ADD15RoundRect,0.204500X0.204500X0.279500X-0.204500X0.279500X-0.204500X-0.279500X0.204500X-0.279500X0*%
%ADD16RoundRect,0.154500X-0.154500X0.592000X-0.154500X-0.592000X0.154500X-0.592000X0.154500X0.592000X0*%
%ADD17RoundRect,0.154500X-0.592000X-0.154500X0.592000X-0.154500X0.592000X0.154500X-0.592000X0.154500X0*%
%ADD18RoundRect,0.204500X-0.204500X-0.279500X0.204500X-0.279500X0.204500X0.279500X-0.204500X0.279500X0*%
%ADD19RoundRect,0.229500X-0.254500X0.229500X-0.254500X-0.229500X0.254500X-0.229500X0.254500X0.229500X0*%
%ADD20RoundRect,0.229500X0.254500X-0.229500X0.254500X0.229500X-0.254500X0.229500X-0.254500X-0.229500X0*%
%ADD21RoundRect,0.154500X-0.517000X-0.154500X0.517000X-0.154500X0.517000X0.154500X-0.517000X0.154500X0*%
%ADD22RoundRect,0.252586X-0.626414X-0.851414X0.626414X-0.851414X0.626414X0.851414X-0.626414X0.851414X0*%
%ADD23O,1.758000X2.208000*%
%ADD24RoundRect,0.223250X0.223250X0.260750X-0.223250X0.260750X-0.223250X-0.260750X0.223250X-0.260750X0*%
%ADD25C,0.818000*%
%ADD26C,6.418000*%
%ADD27FreePoly0,270.000000*%
%ADD28FreePoly1,270.000000*%
%ADD29RoundRect,0.229500X-0.229500X-0.254500X0.229500X-0.254500X0.229500X0.254500X-0.229500X0.254500X0*%
%ADD30RoundRect,0.102000X0.237500X0.125000X-0.237500X0.125000X-0.237500X-0.125000X0.237500X-0.125000X0*%
%ADD31RoundRect,0.102000X0.125000X0.237500X-0.125000X0.237500X-0.125000X-0.237500X0.125000X-0.237500X0*%
%ADD32C,0.668000*%
%ADD33RoundRect,0.154500X-0.154500X-0.354500X0.154500X-0.354500X0.154500X0.354500X-0.154500X0.354500X0*%
%ADD34RoundRect,0.079500X-0.079500X-0.504500X0.079500X-0.504500X0.079500X0.504500X-0.079500X0.504500X0*%
%ADD35O,1.018000X2.118000*%
%ADD36O,1.018000X1.818000*%
%ADD37RoundRect,0.142000X-0.667000X-0.142000X0.667000X-0.142000X0.667000X0.142000X-0.667000X0.142000X0*%
%ADD38RoundRect,0.154500X-0.354500X0.154500X-0.354500X-0.154500X0.354500X-0.154500X0.354500X0.154500X0*%
%ADD39RoundRect,0.079500X-0.504500X0.079500X-0.504500X-0.079500X0.504500X-0.079500X0.504500X0.079500X0*%
%ADD40O,2.118000X1.018000*%
%ADD41O,1.818000X1.018000*%
%ADD42RoundRect,0.154500X-0.154500X0.829500X-0.154500X-0.829500X0.154500X-0.829500X0.154500X0.829500X0*%
%ADD43RoundRect,0.102000X-0.400000X-0.200000X0.400000X-0.200000X0.400000X0.200000X-0.400000X0.200000X0*%
%ADD44RoundRect,0.102000X-0.200000X-0.400000X0.200000X-0.400000X0.200000X0.400000X-0.200000X0.400000X0*%
%ADD45RoundRect,0.102000X-0.600000X-0.600000X0.600000X-0.600000X0.600000X0.600000X-0.600000X0.600000X0*%
%ADD46RoundRect,0.102000X-0.400000X-0.400000X0.400000X-0.400000X0.400000X0.400000X-0.400000X0.400000X0*%
%ADD47RoundRect,0.154500X0.154500X-0.517000X0.154500X0.517000X-0.154500X0.517000X-0.154500X-0.517000X0*%
%ADD48RoundRect,0.252500X-0.656500X1.006500X-0.656500X-1.006500X0.656500X-1.006500X0.656500X1.006500X0*%
%ADD49RoundRect,0.229500X0.229500X0.254500X-0.229500X0.254500X-0.229500X-0.254500X0.229500X-0.254500X0*%
%ADD50RoundRect,0.379500X0.629500X0.379500X-0.629500X0.379500X-0.629500X-0.379500X0.629500X-0.379500X0*%
%ADD51RoundRect,0.504500X0.504500X1.404500X-0.504500X1.404500X-0.504500X-1.404500X0.504500X-1.404500X0*%
G04 APERTURE END LIST*
%TO.C,JP1*%
G36*
X132350000Y-73050000D02*
G01*
X130850000Y-73050000D01*
X130850000Y-73350000D01*
X132350000Y-73350000D01*
X132350000Y-73050000D01*
G37*
D10*
%TO.C,U5*%
X149050000Y-84050000D02*
X147650000Y-84050000D01*
X147650000Y-83300000D01*
X148300000Y-82650000D01*
X149050000Y-82650000D01*
X149050000Y-84050000D01*
G36*
X149050000Y-84050000D02*
G01*
X147650000Y-84050000D01*
X147650000Y-83300000D01*
X148300000Y-82650000D01*
X149050000Y-82650000D01*
X149050000Y-84050000D01*
G37*
%TD*%
D11*
%TO.C,J5*%
X122100000Y-106615000D03*
X122100000Y-104075000D03*
X122100000Y-101535000D03*
X122100000Y-98995000D03*
X122100000Y-96455000D03*
D12*
X122100000Y-93915000D03*
%TD*%
D13*
%TO.C,R30*%
X130700000Y-105425000D03*
X130700000Y-103775000D03*
%TD*%
D14*
%TO.C,R29*%
X125700000Y-103775000D03*
X125700000Y-105425000D03*
%TD*%
D15*
%TO.C,R28*%
X130125000Y-98000000D03*
X128475000Y-98000000D03*
%TD*%
D13*
%TO.C,R27*%
X125700000Y-101325000D03*
X125700000Y-99675000D03*
%TD*%
D15*
%TO.C,R26*%
X129525000Y-92700000D03*
X127875000Y-92700000D03*
%TD*%
D14*
%TO.C,R25*%
X125700000Y-96475000D03*
X125700000Y-98125000D03*
%TD*%
D16*
%TO.C,Q3*%
X129150000Y-104062500D03*
X127250000Y-104062500D03*
X128200000Y-105937500D03*
%TD*%
D17*
%TO.C,Q2*%
X127662500Y-99650000D03*
X127662500Y-101550000D03*
X129537500Y-100600000D03*
%TD*%
%TO.C,Q1*%
X127562500Y-94450000D03*
X127562500Y-96350000D03*
X129437500Y-95400000D03*
%TD*%
D18*
%TO.C,R20*%
X173200000Y-118400000D03*
X174850000Y-118400000D03*
%TD*%
D15*
%TO.C,R13*%
X163425000Y-120435000D03*
X161775000Y-120435000D03*
%TD*%
D19*
%TO.C,C5*%
X151700000Y-114400000D03*
X151700000Y-115950000D03*
%TD*%
%TO.C,C6*%
X159500000Y-77600000D03*
X159500000Y-79150000D03*
%TD*%
D18*
%TO.C,R23*%
X173200000Y-115300000D03*
X174850000Y-115300000D03*
%TD*%
D20*
%TO.C,C20*%
X129500000Y-81885000D03*
X129500000Y-80335000D03*
%TD*%
D19*
%TO.C,C12*%
X159000000Y-114425000D03*
X159000000Y-115975000D03*
%TD*%
D21*
%TO.C,U4*%
X154962500Y-114250000D03*
X154962500Y-115200000D03*
X154962500Y-116150000D03*
X157237500Y-116150000D03*
X157237500Y-114250000D03*
%TD*%
D22*
%TO.C,J1*%
X144915000Y-126720000D03*
D23*
X147455000Y-126720000D03*
X149995000Y-126720000D03*
X152535000Y-126720000D03*
%TD*%
D24*
%TO.C,D4*%
X177787500Y-115300000D03*
X176212500Y-115300000D03*
%TD*%
D12*
%TO.C,J3*%
X178000000Y-80100000D03*
D11*
X178000000Y-82640000D03*
X178000000Y-85180000D03*
X178000000Y-87720000D03*
X178000000Y-90260000D03*
X178000000Y-92800000D03*
%TD*%
D25*
%TO.C,H3*%
X122600000Y-125000000D03*
X123302944Y-123302944D03*
X123302944Y-126697056D03*
X125000000Y-122600000D03*
D26*
X125000000Y-125000000D03*
D25*
X125000000Y-127400000D03*
X126697056Y-123302944D03*
X126697056Y-126697056D03*
X127400000Y-125000000D03*
%TD*%
D20*
%TO.C,C23*%
X132000000Y-81875000D03*
X132000000Y-80325000D03*
%TD*%
D18*
%TO.C,R10*%
X160675000Y-87077500D03*
X162325000Y-87077500D03*
%TD*%
D20*
%TO.C,C1*%
X141000000Y-79475000D03*
X141000000Y-77925000D03*
%TD*%
D19*
%TO.C,C10*%
X159600000Y-126050000D03*
X159600000Y-127600000D03*
%TD*%
D20*
%TO.C,C3*%
X138000000Y-79475000D03*
X138000000Y-77925000D03*
%TD*%
D18*
%TO.C,R8*%
X160675000Y-93200000D03*
X162325000Y-93200000D03*
%TD*%
D14*
%TO.C,R5*%
X138300000Y-83875000D03*
X138300000Y-85525000D03*
%TD*%
D18*
%TO.C,R21*%
X173200000Y-116800000D03*
X174850000Y-116800000D03*
%TD*%
D27*
%TO.C,JP1*%
X131600000Y-72550000D03*
D28*
X131600000Y-73850000D03*
%TD*%
D29*
%TO.C,C18*%
X135350000Y-99320000D03*
X136900000Y-99320000D03*
%TD*%
D18*
%TO.C,R11*%
X160675000Y-88600000D03*
X162325000Y-88600000D03*
%TD*%
D21*
%TO.C,U6*%
X154962500Y-110850000D03*
X154962500Y-111800000D03*
X154962500Y-112750000D03*
X157237500Y-112750000D03*
X157237500Y-110850000D03*
%TD*%
D30*
%TO.C,U8*%
X151162500Y-100750000D03*
X151162500Y-100250000D03*
X151162500Y-99750000D03*
X151162500Y-99250000D03*
D31*
X150500000Y-99087500D03*
X150000000Y-99087500D03*
X149500000Y-99087500D03*
D30*
X148837500Y-99250000D03*
X148837500Y-99750000D03*
X148837500Y-100250000D03*
X148837500Y-100750000D03*
D31*
X149500000Y-100912500D03*
X150000000Y-100912500D03*
X150500000Y-100912500D03*
%TD*%
D19*
%TO.C,C22*%
X131100000Y-88025000D03*
X131100000Y-89575000D03*
%TD*%
D32*
%TO.C,J6*%
X132160000Y-123445000D03*
X137940000Y-123445000D03*
D33*
X131850000Y-122295000D03*
X132650000Y-122295000D03*
D34*
X133800000Y-122370000D03*
X134800000Y-122370000D03*
X135300000Y-122370000D03*
X136300000Y-122370000D03*
D33*
X137450000Y-122295000D03*
X138250000Y-122295000D03*
X138250000Y-122295000D03*
X137450000Y-122295000D03*
D34*
X136800000Y-122370000D03*
X135800000Y-122370000D03*
X134300000Y-122370000D03*
X133300000Y-122370000D03*
D33*
X132650000Y-122295000D03*
X131850000Y-122295000D03*
D35*
X130730000Y-122945000D03*
D36*
X130730000Y-127125000D03*
D35*
X139370000Y-122945000D03*
D36*
X139370000Y-127125000D03*
%TD*%
D18*
%TO.C,R7*%
X160675000Y-91700000D03*
X162325000Y-91700000D03*
%TD*%
D25*
%TO.C,H2*%
X172600000Y-75000000D03*
X173302944Y-73302944D03*
X173302944Y-76697056D03*
X175000000Y-72600000D03*
D26*
X175000000Y-75000000D03*
D25*
X175000000Y-77400000D03*
X176697056Y-73302944D03*
X176697056Y-76697056D03*
X177400000Y-75000000D03*
%TD*%
D19*
%TO.C,C19*%
X129500000Y-88050000D03*
X129500000Y-89600000D03*
%TD*%
D37*
%TO.C,U3*%
X166250000Y-85555000D03*
X166250000Y-86825000D03*
X166250000Y-88095000D03*
X166250000Y-89365000D03*
X166250000Y-90635000D03*
X166250000Y-91905000D03*
X166250000Y-93175000D03*
X166250000Y-94445000D03*
X172750000Y-94445000D03*
X172750000Y-93175000D03*
X172750000Y-91905000D03*
X172750000Y-90635000D03*
X172750000Y-89365000D03*
X172750000Y-88095000D03*
X172750000Y-86825000D03*
X172750000Y-85555000D03*
%TD*%
D18*
%TO.C,R9*%
X160675000Y-85555000D03*
X162325000Y-85555000D03*
%TD*%
D29*
%TO.C,C15*%
X124625000Y-107100000D03*
X126175000Y-107100000D03*
%TD*%
D32*
%TO.C,J7*%
X126505000Y-111910000D03*
X126505000Y-117690000D03*
D38*
X127655000Y-111600000D03*
X127655000Y-112400000D03*
D39*
X127580000Y-113550000D03*
X127580000Y-114550000D03*
X127580000Y-115050000D03*
X127580000Y-116050000D03*
D38*
X127655000Y-117200000D03*
X127655000Y-118000000D03*
X127655000Y-118000000D03*
X127655000Y-117200000D03*
D39*
X127580000Y-116550000D03*
X127580000Y-115550000D03*
X127580000Y-114050000D03*
X127580000Y-113050000D03*
D38*
X127655000Y-112400000D03*
X127655000Y-111600000D03*
D40*
X127005000Y-110480000D03*
D41*
X122825000Y-110480000D03*
D40*
X127005000Y-119120000D03*
D41*
X122825000Y-119120000D03*
%TD*%
D24*
%TO.C,D5*%
X177787500Y-113800000D03*
X176212500Y-113800000D03*
%TD*%
D18*
%TO.C,R24*%
X173200000Y-113800000D03*
X174850000Y-113800000D03*
%TD*%
D24*
%TO.C,D2*%
X177787500Y-118400000D03*
X176212500Y-118400000D03*
%TD*%
D42*
%TO.C,U9*%
X138080000Y-101425000D03*
X136810000Y-101425000D03*
X135540000Y-101425000D03*
X134270000Y-101425000D03*
X134270000Y-106375000D03*
X135540000Y-106375000D03*
X136810000Y-106375000D03*
X138080000Y-106375000D03*
%TD*%
D20*
%TO.C,C13*%
X147500000Y-98775000D03*
X147500000Y-97225000D03*
%TD*%
D32*
%TO.C,J8*%
X126405000Y-82110000D03*
X126405000Y-87890000D03*
D38*
X127555000Y-81800000D03*
X127555000Y-82600000D03*
D39*
X127480000Y-83750000D03*
X127480000Y-84750000D03*
X127480000Y-85250000D03*
X127480000Y-86250000D03*
D38*
X127555000Y-87400000D03*
X127555000Y-88200000D03*
X127555000Y-88200000D03*
X127555000Y-87400000D03*
D39*
X127480000Y-86750000D03*
X127480000Y-85750000D03*
X127480000Y-84250000D03*
X127480000Y-83250000D03*
D38*
X127555000Y-82600000D03*
X127555000Y-81800000D03*
D40*
X126905000Y-80680000D03*
D41*
X122725000Y-80680000D03*
D40*
X126905000Y-89320000D03*
D41*
X122725000Y-89320000D03*
%TD*%
D25*
%TO.C,H4*%
X172600000Y-125000000D03*
X173302944Y-123302944D03*
X173302944Y-126697056D03*
X175000000Y-122600000D03*
D26*
X175000000Y-125000000D03*
D25*
X175000000Y-127400000D03*
X176697056Y-123302944D03*
X176697056Y-126697056D03*
X177400000Y-125000000D03*
%TD*%
D18*
%TO.C,R22*%
X135325000Y-109320000D03*
X136975000Y-109320000D03*
%TD*%
D43*
%TO.C,U5*%
X143000000Y-79050000D03*
X143000000Y-79900000D03*
X143000000Y-80750000D03*
X143000000Y-81600000D03*
X143000000Y-82450000D03*
X143000000Y-83300000D03*
X143000000Y-84150000D03*
X143000000Y-85000000D03*
X143000000Y-85850000D03*
X143000000Y-86700000D03*
X143000000Y-87550000D03*
X143000000Y-88400000D03*
X143000000Y-89250000D03*
X143000000Y-90100000D03*
X143000000Y-90950000D03*
D44*
X144050000Y-92000000D03*
X144900000Y-92000000D03*
X145750000Y-92000000D03*
X146600000Y-92000000D03*
X147450000Y-92000000D03*
X148300000Y-92000000D03*
X149150000Y-92000000D03*
X150000000Y-92000000D03*
X150850000Y-92000000D03*
X151700000Y-92000000D03*
X152550000Y-92000000D03*
X153400000Y-92000000D03*
X154250000Y-92000000D03*
X155100000Y-92000000D03*
X155950000Y-92000000D03*
D43*
X157000000Y-90950000D03*
X157000000Y-90100000D03*
X157000000Y-89250000D03*
X157000000Y-88400000D03*
X157000000Y-87550000D03*
X157000000Y-86700000D03*
X157000000Y-85850000D03*
X157000000Y-85000000D03*
X157000000Y-84150000D03*
X157000000Y-83300000D03*
X157000000Y-82450000D03*
X157000000Y-81600000D03*
X157000000Y-80750000D03*
X157000000Y-79900000D03*
X157000000Y-79050000D03*
D44*
X155950000Y-78000000D03*
X155100000Y-78000000D03*
X154250000Y-78000000D03*
X153400000Y-78000000D03*
X152550000Y-78000000D03*
X151700000Y-78000000D03*
X150850000Y-78000000D03*
X150000000Y-78000000D03*
X149150000Y-78000000D03*
X148300000Y-78000000D03*
X147450000Y-78000000D03*
X146600000Y-78000000D03*
X145750000Y-78000000D03*
X144900000Y-78000000D03*
X144050000Y-78000000D03*
D45*
X150000000Y-85000000D03*
X150000000Y-83350000D03*
X151650000Y-83350000D03*
X151650000Y-85000000D03*
X151650000Y-86650000D03*
X150000000Y-86650000D03*
X148350000Y-86650000D03*
X148350000Y-85000000D03*
D46*
X143000000Y-78000000D03*
X143000000Y-92000000D03*
X157000000Y-92000000D03*
X157000000Y-78000000D03*
%TD*%
D47*
%TO.C,U7*%
X164550000Y-117772500D03*
X165500000Y-117772500D03*
X166450000Y-117772500D03*
X166450000Y-115497500D03*
X165500000Y-115497500D03*
X164550000Y-115497500D03*
%TD*%
D20*
%TO.C,C7*%
X153200000Y-110875000D03*
X153200000Y-109325000D03*
%TD*%
D18*
%TO.C,R12*%
X169575000Y-120435000D03*
X171225000Y-120435000D03*
%TD*%
D13*
%TO.C,R4*%
X138300000Y-88525000D03*
X138300000Y-86875000D03*
%TD*%
D48*
%TO.C,D1*%
X156900000Y-121225000D03*
X156900000Y-125225000D03*
%TD*%
D18*
%TO.C,R6*%
X160675000Y-90200000D03*
X162325000Y-90200000D03*
%TD*%
D19*
%TO.C,C21*%
X133200000Y-88025000D03*
X133200000Y-89575000D03*
%TD*%
D37*
%TO.C,U2*%
X166250000Y-97055000D03*
X166250000Y-98325000D03*
X166250000Y-99595000D03*
X166250000Y-100865000D03*
X166250000Y-102135000D03*
X166250000Y-103405000D03*
X166250000Y-104675000D03*
X166250000Y-105945000D03*
X172750000Y-105945000D03*
X172750000Y-104675000D03*
X172750000Y-103405000D03*
X172750000Y-102135000D03*
X172750000Y-100865000D03*
X172750000Y-99595000D03*
X172750000Y-98325000D03*
X172750000Y-97055000D03*
%TD*%
D12*
%TO.C,J2*%
X178000000Y-96345000D03*
D11*
X178000000Y-98885000D03*
X178000000Y-101425000D03*
X178000000Y-103965000D03*
X178000000Y-106505000D03*
X178000000Y-109045000D03*
%TD*%
D25*
%TO.C,H1*%
X122600000Y-75000000D03*
X123302944Y-73302944D03*
X123302944Y-76697056D03*
X125000000Y-72600000D03*
D26*
X125000000Y-75000000D03*
D25*
X125000000Y-77400000D03*
X126697056Y-73302944D03*
X126697056Y-76697056D03*
X127400000Y-75000000D03*
%TD*%
D13*
%TO.C,R2*%
X142300000Y-123325000D03*
X142300000Y-121675000D03*
%TD*%
D24*
%TO.C,D3*%
X177787500Y-116800000D03*
X176212500Y-116800000D03*
%TD*%
D15*
%TO.C,R3*%
X162825000Y-79150000D03*
X161175000Y-79150000D03*
%TD*%
D19*
%TO.C,C11*%
X153300000Y-114425000D03*
X153300000Y-115975000D03*
%TD*%
D20*
%TO.C,C8*%
X159000000Y-110675000D03*
X159000000Y-109125000D03*
%TD*%
D19*
%TO.C,C16*%
X129480000Y-117875000D03*
X129480000Y-119425000D03*
%TD*%
D20*
%TO.C,C9*%
X159600000Y-124600000D03*
X159600000Y-123050000D03*
%TD*%
D32*
%TO.C,J4*%
X163110000Y-123410000D03*
X168890000Y-123410000D03*
D33*
X162800000Y-122260000D03*
X163600000Y-122260000D03*
D34*
X164750000Y-122335000D03*
X165750000Y-122335000D03*
X166250000Y-122335000D03*
X167250000Y-122335000D03*
D33*
X168400000Y-122260000D03*
X169200000Y-122260000D03*
X169200000Y-122260000D03*
X168400000Y-122260000D03*
D34*
X167750000Y-122335000D03*
X166750000Y-122335000D03*
X165250000Y-122335000D03*
X164250000Y-122335000D03*
D33*
X163600000Y-122260000D03*
X162800000Y-122260000D03*
D35*
X161680000Y-122910000D03*
D36*
X161680000Y-127090000D03*
D35*
X170320000Y-122910000D03*
D36*
X170320000Y-127090000D03*
%TD*%
D20*
%TO.C,C4*%
X151700000Y-119000000D03*
X151700000Y-117450000D03*
%TD*%
D13*
%TO.C,R1*%
X142300000Y-126425000D03*
X142300000Y-124775000D03*
%TD*%
D49*
%TO.C,C14*%
X150575000Y-97200000D03*
X149025000Y-97200000D03*
%TD*%
D20*
%TO.C,C17*%
X129480000Y-111825000D03*
X129480000Y-110275000D03*
%TD*%
%TO.C,C2*%
X139500000Y-79475000D03*
X139500000Y-77925000D03*
%TD*%
D50*
%TO.C,U1*%
X149450000Y-119000000D03*
X149450000Y-116700000D03*
D51*
X143150000Y-116700000D03*
D50*
X149450000Y-114400000D03*
%TD*%
M02*
