M48
; DRILL file {KiCad 9.0.6} date 2026-01-02T10:14:17+0530
; FORMAT={-:-/ absolute / metric / decimal}
; #@! TF.CreationDate,2026-01-02T10:14:17+05:30
; #@! TF.GenerationSoftware,Kicad,Pcbnew,9.0.6
; #@! TF.FileFunction,Plated,1,4,PTH
FMAT,2
METRIC
; #@! TA.AperFunction,Plated,PTH,ViaDrill
T1C0.300
; #@! TA.AperFunction,Plated,PTH,ComponentDrill
T2C0.500
; #@! TA.AperFunction,Plated,PTH,ComponentDrill
T3C0.600
; #@! TA.AperFunction,Plated,PTH,ComponentDrill
T4C1.000
; #@! TA.AperFunction,Plated,PTH,ComponentDrill
T5C1.190
; #@! TA.AperFunction,Plated,PTH,ComponentDrill
T6C3.200
%
G90
G05
T1
X122.2Y-91.6
X123.3Y-112.5
X123.3Y-113.095
X123.3Y-113.69
X123.3Y-114.285
X123.3Y-114.88
X123.3Y-115.475
X123.3Y-116.07
X123.3Y-116.665
X123.3Y-117.26
X123.5Y-91.6
X124.0Y-82.6
X124.0Y-83.195
X124.0Y-83.79
X124.0Y-84.385
X124.0Y-84.98
X124.0Y-85.575
X124.0Y-86.17
X124.0Y-86.765
X124.0Y-87.36
X124.65Y-92.6
X124.65Y-93.85
X124.65Y-94.85
X124.8Y-110.5
X124.9Y-119.1
X125.45Y-83.65
X125.45Y-84.467
X125.45Y-85.283
X125.45Y-86.1
X125.6Y-91.05
X126.0Y-83.1
X126.0Y-86.8
X126.8Y-92.8
X127.5Y-90.9
X127.5Y-97.8
X128.9Y-90.6
X128.9Y-120.4
X129.1Y-79.3
X129.5Y-90.6
X129.5Y-120.4
X129.6Y-106.75
X130.0Y-72.5
X130.0Y-79.3
X130.1Y-90.6
X130.1Y-102.7
X130.1Y-120.4
X130.7Y-108.25
X131.0Y-125.0
X131.1Y-106.75
X131.15Y-91.75
X131.2Y-93.15
X131.2Y-94.5
X131.6Y-71.3
X132.5Y-107.8
X132.5Y-108.337
X132.5Y-108.875
X132.5Y-109.412
X132.5Y-109.95
X132.7Y-125.9
X133.1Y-80.0
X133.1Y-80.6
X133.2Y-72.5
X133.295Y-125.9
X133.35Y-99.95
X133.4Y-97.6
X133.45Y-95.0
X133.89Y-125.9
X133.9Y-123.6
X134.2Y-89.4
X134.2Y-90.0
X134.485Y-125.9
X135.08Y-125.9
X135.35Y-97.65
X135.35Y-98.25
X135.675Y-125.9
X136.27Y-125.9
X136.865Y-125.9
X136.9Y-79.5
X136.9Y-97.65
X136.9Y-98.25
X136.9Y-123.6
X137.0Y-77.9
X137.15Y-88.55
X137.2Y-83.85
X137.46Y-125.9
X137.95Y-80.45
X138.0Y-77.0
X138.4Y-91.6
X138.4Y-92.2
X139.0Y-125.0
X139.5Y-77.0
X139.5Y-80.45
X139.5Y-97.5
X139.6Y-94.3
X139.6Y-95.4
X139.6Y-96.5
X140.8Y-97.5
X140.9Y-94.3
X140.9Y-95.4
X140.9Y-96.5
X141.0Y-77.0
X141.0Y-80.45
X141.75Y-92.0
X141.75Y-93.25
X141.8Y-70.8
X141.8Y-71.395
X141.8Y-71.99
X141.8Y-72.585
X141.8Y-73.18
X141.8Y-73.775
X141.8Y-74.37
X141.8Y-74.965
X141.8Y-75.56
X141.8Y-94.3
X141.8Y-95.4
X141.9Y-77.9
X143.05Y-93.25
X143.1Y-94.3
X143.1Y-95.4
X143.325Y-121.025
X143.325Y-121.625
X143.325Y-122.3
X143.775Y-123.175
X143.775Y-123.775
X143.775Y-124.45
X144.0Y-79.1
X144.0Y-79.695
X144.0Y-80.29
X144.0Y-80.885
X144.0Y-81.48
X144.0Y-82.075
X144.0Y-82.67
X144.0Y-83.265
X144.0Y-83.86
X144.0Y-84.455
X144.0Y-85.05
X144.0Y-85.645
X144.0Y-86.24
X144.0Y-86.835
X144.0Y-87.43
X144.0Y-88.025
X144.0Y-88.62
X144.0Y-89.215
X144.0Y-89.81
X144.0Y-90.405
X144.0Y-91.0
X144.595Y-79.1
X144.63Y-91.0
X145.19Y-79.1
X145.225Y-91.0
X145.785Y-79.1
X145.82Y-91.0
X146.15Y-99.05
X146.15Y-99.75
X146.38Y-79.1
X146.415Y-91.0
X146.85Y-99.75
X146.975Y-79.1
X147.01Y-91.0
X147.2Y-116.2
X147.2Y-117.0
X147.3Y-83.35
X147.3Y-85.0
X147.3Y-86.65
X147.57Y-79.1
X147.6Y-111.0
X147.6Y-111.8
X147.6Y-112.6
X147.605Y-91.0
X147.925Y-96.05
X148.1Y-116.2
X148.1Y-117.0
X148.165Y-79.1
X148.2Y-91.0
X148.35Y-82.2
X148.35Y-83.35
X148.35Y-85.0
X148.35Y-86.65
X148.35Y-87.8
X148.4Y-111.0
X148.4Y-111.8
X148.4Y-112.6
X148.5Y-101.8
X148.512Y-96.05
X148.76Y-79.1
X148.795Y-91.0
X148.95Y-109.15
X149.1Y-96.05
X149.2Y-111.0
X149.2Y-111.8
X149.2Y-112.6
X149.355Y-79.1
X149.39Y-91.0
X149.85Y-109.15
X149.95Y-79.1
X149.985Y-91.0
X150.0Y-82.2
X150.0Y-83.35
X150.0Y-85.0
X150.0Y-86.65
X150.0Y-87.8
X150.0Y-111.0
X150.0Y-111.8
X150.0Y-112.6
X150.545Y-79.1
X150.58Y-91.0
X150.6Y-96.1
X150.6Y-122.8
X150.8Y-109.1
X150.8Y-111.0
X150.8Y-111.8
X150.8Y-112.6
X151.14Y-79.1
X151.175Y-91.0
X151.3Y-101.7
X151.6Y-111.0
X151.6Y-111.8
X151.6Y-112.6
X151.6Y-113.4
X151.65Y-82.2
X151.65Y-83.35
X151.65Y-85.0
X151.65Y-86.65
X151.65Y-87.8
X151.65Y-109.05
X151.735Y-79.1
X151.75Y-97.3
X151.75Y-98.1
X151.77Y-91.0
X151.9Y-101.7
X152.0Y-122.8
X152.3Y-109.05
X152.3Y-109.65
X152.33Y-79.1
X152.365Y-91.0
X152.4Y-111.8
X152.4Y-112.6
X152.4Y-113.4
X152.5Y-107.5
X152.7Y-83.35
X152.7Y-85.0
X152.7Y-86.65
X152.7Y-117.0
X152.7Y-117.7
X152.925Y-79.1
X152.96Y-91.0
X153.2Y-112.6
X153.2Y-113.4
X153.5Y-106.5
X153.5Y-107.5
X153.5Y-117.0
X153.5Y-117.7
X153.52Y-79.1
X153.555Y-91.0
X153.6Y-122.8
X154.1Y-109.65
X154.115Y-79.1
X154.15Y-91.0
X154.15Y-109.05
X154.5Y-105.5
X154.5Y-106.5
X154.5Y-107.5
X154.6Y-117.2
X154.6Y-118.0
X154.6Y-118.8
X154.71Y-79.1
X154.745Y-91.0
X155.305Y-79.1
X155.34Y-91.0
X155.4Y-117.2
X155.4Y-118.0
X155.4Y-118.8
X155.5Y-103.5
X155.5Y-104.5
X155.5Y-105.5
X155.5Y-106.5
X155.5Y-107.5
X155.9Y-79.1
X155.9Y-79.635
X155.9Y-80.23
X155.9Y-80.825
X155.9Y-81.42
X155.9Y-82.015
X155.9Y-82.61
X155.9Y-83.205
X155.9Y-83.8
X155.9Y-84.395
X155.9Y-84.99
X155.9Y-85.585
X155.9Y-86.18
X155.9Y-86.775
X155.9Y-87.37
X155.9Y-87.965
X155.9Y-88.56
X155.9Y-89.155
X155.9Y-89.75
X155.9Y-90.345
X155.9Y-91.0
X156.05Y-93.25
X156.2Y-117.2
X156.2Y-118.0
X156.2Y-118.8
X156.5Y-100.5
X156.5Y-101.5
X156.5Y-102.5
X156.5Y-103.5
X156.5Y-104.5
X156.5Y-105.5
X156.5Y-106.5
X156.5Y-107.5
X156.6Y-93.25
X156.7Y-111.7
X157.0Y-117.2
X157.0Y-118.0
X157.0Y-118.8
X157.15Y-93.25
X157.285Y-111.919
X157.5Y-106.5
X157.5Y-107.5
X157.7Y-93.25
X157.8Y-117.2
X157.8Y-118.0
X157.8Y-118.8
X158.0Y-109.0
X158.2Y-70.7
X158.2Y-71.295
X158.2Y-71.89
X158.2Y-72.485
X158.2Y-73.08
X158.2Y-73.675
X158.2Y-74.27
X158.2Y-74.865
X158.2Y-75.46
X158.2Y-80.8
X158.2Y-81.6
X158.25Y-92.7
X158.25Y-93.25
X158.5Y-77.6
X158.5Y-107.5
X158.5Y-108.2
X158.6Y-123.0
X159.0Y-82.0
X159.0Y-83.0
X159.0Y-94.6
X159.0Y-111.9
X159.0Y-112.6
X159.0Y-113.3
X159.025Y-84.0
X159.595Y-82.0
X159.595Y-83.0
X159.6Y-76.6
X159.6Y-108.2
X159.6Y-128.6
X159.62Y-84.0
X159.7Y-111.9
X159.7Y-112.6
X159.7Y-113.3
X159.7Y-122.1
X159.8Y-120.8
X160.0Y-119.4
X160.19Y-82.0
X160.19Y-83.0
X160.215Y-84.0
X160.4Y-96.2
X160.4Y-109.15
X160.4Y-109.85
X160.4Y-110.55
X160.4Y-111.2
X160.4Y-111.9
X160.4Y-112.6
X160.4Y-113.25
X160.4Y-113.95
X160.4Y-114.65
X160.6Y-77.6
X160.6Y-123.0
X160.785Y-82.0
X160.785Y-83.0
X160.8Y-120.4
X160.81Y-84.0
X161.1Y-109.15
X161.1Y-109.85
X161.1Y-110.55
X161.1Y-111.2
X161.1Y-111.9
X161.1Y-112.6
X161.1Y-113.25
X161.1Y-113.95
X161.1Y-114.65
X161.38Y-82.0
X161.38Y-83.0
X161.405Y-84.0
X161.8Y-97.8
X161.8Y-100.0
X161.9Y-119.4
X161.975Y-82.0
X161.975Y-83.0
X162.0Y-84.0
X162.5Y-102.75
X162.57Y-82.0
X162.57Y-83.0
X162.595Y-84.0
X163.6Y-127.0
X163.8Y-79.15
X164.0Y-104.0
X164.195Y-127.0
X164.75Y-116.65
X164.79Y-127.0
X165.385Y-127.0
X165.5Y-114.3
X165.5Y-125.0
X165.98Y-127.0
X166.25Y-116.625
X166.575Y-127.0
X167.17Y-127.0
X167.5Y-72.025
X167.5Y-72.62
X167.5Y-73.215
X167.5Y-73.81
X167.5Y-74.405
X167.5Y-75.0
X167.5Y-75.595
X167.5Y-76.19
X167.5Y-76.785
X167.5Y-77.525
X167.5Y-78.12
X167.5Y-78.715
X167.5Y-79.31
X167.5Y-79.905
X167.5Y-80.5
X167.5Y-81.095
X167.5Y-81.69
X167.5Y-82.285
X167.5Y-86.7
X167.5Y-89.3
X167.5Y-91.9
X167.5Y-98.3
X167.5Y-100.8
X167.5Y-103.4
X167.765Y-127.0
X168.36Y-127.0
X169.0Y-72.025
X169.0Y-72.62
X169.0Y-73.215
X169.0Y-73.81
X169.0Y-74.405
X169.0Y-75.0
X169.0Y-75.595
X169.0Y-76.19
X169.0Y-76.785
X169.0Y-77.525
X169.0Y-78.12
X169.0Y-78.715
X169.0Y-79.31
X169.0Y-79.905
X169.0Y-80.5
X169.0Y-81.095
X169.0Y-81.69
X169.0Y-82.285
X169.5Y-87.0
X169.5Y-87.595
X169.5Y-88.19
X169.5Y-88.785
X169.5Y-89.38
X169.5Y-89.975
X169.5Y-90.57
X169.5Y-91.165
X169.5Y-91.76
X169.5Y-98.7
X169.5Y-99.295
X169.5Y-99.89
X169.5Y-100.485
X169.5Y-101.08
X169.5Y-101.675
X169.5Y-102.27
X169.5Y-102.865
X169.5Y-103.46
X169.5Y-107.5
X170.5Y-72.0
X170.5Y-72.595
X170.5Y-73.19
X170.5Y-73.785
X170.5Y-74.38
X170.5Y-74.975
X170.5Y-75.57
X170.5Y-76.165
X170.5Y-76.76
X170.5Y-77.5
X170.5Y-78.095
X170.5Y-78.69
X170.5Y-79.285
X170.5Y-79.88
X170.5Y-80.475
X170.5Y-81.07
X170.5Y-81.665
X170.5Y-82.26
X171.0Y-109.0
X171.2Y-116.4
X171.2Y-121.4
X171.4Y-86.8
X171.4Y-89.3
X171.4Y-91.9
X171.4Y-98.3
X171.4Y-100.8
X171.4Y-103.4
X172.1Y-118.4
X172.2Y-120.4
X172.5Y-110.5
X176.0Y-111.5
X178.5Y-111.5
X178.7Y-113.8
X178.7Y-114.567
X178.7Y-115.333
X178.7Y-116.1
X178.7Y-116.867
X178.7Y-117.633
X178.7Y-118.4
T2
X122.6Y-75.0
X122.6Y-125.0
X123.303Y-73.303
X123.303Y-76.697
X123.303Y-123.303
X123.303Y-126.697
X125.0Y-72.6
X125.0Y-77.4
X125.0Y-122.6
X125.0Y-127.4
X126.697Y-73.303
X126.697Y-76.697
X126.697Y-123.303
X126.697Y-126.697
X127.4Y-75.0
X127.4Y-125.0
X172.6Y-75.0
X172.6Y-125.0
X173.303Y-73.303
X173.303Y-76.697
X173.303Y-123.303
X173.303Y-126.697
X175.0Y-72.6
X175.0Y-77.4
X175.0Y-122.6
X175.0Y-127.4
X176.697Y-73.303
X176.697Y-76.697
X176.697Y-123.303
X176.697Y-126.697
X177.4Y-75.0
X177.4Y-125.0
T4
X122.1Y-93.915
X122.1Y-96.455
X122.1Y-98.995
X122.1Y-101.535
X122.1Y-104.075
X122.1Y-106.615
X178.0Y-80.1
X178.0Y-82.64
X178.0Y-85.18
X178.0Y-87.72
X178.0Y-90.26
X178.0Y-92.8
X178.0Y-96.345
X178.0Y-98.885
X178.0Y-101.425
X178.0Y-103.965
X178.0Y-106.505
X178.0Y-109.045
T5
X144.915Y-126.72
X147.455Y-126.72
X149.995Y-126.72
X152.535Y-126.72
T6
X125.0Y-75.0
X125.0Y-125.0
X175.0Y-75.0
X175.0Y-125.0
T3
G00X123.125Y-80.68
M15
G01X122.325Y-80.68
M16
G05
G00X123.125Y-89.32
M15
G01X122.325Y-89.32
M16
G05
G00X123.225Y-110.48
M15
G01X122.425Y-110.48
M16
G05
G00X123.225Y-119.12
M15
G01X122.425Y-119.12
M16
G05
G00X127.455Y-80.68
M15
G01X126.355Y-80.68
M16
G05
G00X127.455Y-89.32
M15
G01X126.355Y-89.32
M16
G05
G00X127.555Y-110.48
M15
G01X126.455Y-110.48
M16
G05
G00X127.555Y-119.12
M15
G01X126.455Y-119.12
M16
G05
G00X130.73Y-122.395
M15
G01X130.73Y-123.495
M16
G05
G00X130.73Y-126.725
M15
G01X130.73Y-127.525
M16
G05
G00X139.37Y-122.395
M15
G01X139.37Y-123.495
M16
G05
G00X139.37Y-126.725
M15
G01X139.37Y-127.525
M16
G05
G00X161.68Y-122.36
M15
G01X161.68Y-123.46
M16
G05
G00X161.68Y-126.69
M15
G01X161.68Y-127.49
M16
G05
G00X170.32Y-122.36
M15
G01X170.32Y-123.46
M16
G05
G00X170.32Y-126.69
M15
G01X170.32Y-127.49
M16
G05
M30
