%TF.GenerationSoftware,KiCad,Pcbnew,9.0.6*%
%TF.CreationDate,2025-12-31T10:36:15+05:30*%
%TF.ProjectId,WheelChair_Controller,57686565-6c43-4686-9169-725f436f6e74,rev?*%
%TF.SameCoordinates,Original*%
%TF.FileFunction,Copper,L1,Top*%
%TF.FilePolarity,Positive*%
%FSLAX46Y46*%
G04 Gerber Fmt 4.6, Leading zero omitted, Abs format (unit mm)*
G04 Created by KiCad (PCBNEW 9.0.6) date 2025-12-31 10:36:15*
%MOMM*%
%LPD*%
G01*
G04 APERTURE LIST*
G04 Aperture macros list*
%AMRoundRect*
0 Rectangle with rounded corners*
0 $1 Rounding radius*
0 $2 $3 $4 $5 $6 $7 $8 $9 X,Y pos of 4 corners*
0 Add a 4 corners polygon primitive as box body*
4,1,4,$2,$3,$4,$5,$6,$7,$8,$9,$2,$3,0*
0 Add four circle primitives for the rounded corners*
1,1,$1+$1,$2,$3*
1,1,$1+$1,$4,$5*
1,1,$1+$1,$6,$7*
1,1,$1+$1,$8,$9*
0 Add four rect primitives between the rounded corners*
20,1,$1+$1,$2,$3,$4,$5,0*
20,1,$1+$1,$4,$5,$6,$7,0*
20,1,$1+$1,$6,$7,$8,$9,0*
20,1,$1+$1,$8,$9,$2,$3,0*%
%AMOutline5P*
0 Free polygon, 5 corners , with rotation*
0 The origin of the aperture is its center*
0 number of corners: always 5*
0 $1 to $10 corner X, Y*
0 $11 Rotation angle, in degrees counterclockwise*
0 create outline with 5 corners*
4,1,5,$1,$2,$3,$4,$5,$6,$7,$8,$9,$10,$1,$2,$11*%
%AMOutline6P*
0 Free polygon, 6 corners , with rotation*
0 The origin of the aperture is its center*
0 number of corners: always 6*
0 $1 to $12 corner X, Y*
0 $13 Rotation angle, in degrees counterclockwise*
0 create outline with 6 corners*
4,1,6,$1,$2,$3,$4,$5,$6,$7,$8,$9,$10,$11,$12,$1,$2,$13*%
%AMOutline7P*
0 Free polygon, 7 corners , with rotation*
0 The origin of the aperture is its center*
0 number of corners: always 7*
0 $1 to $14 corner X, Y*
0 $15 Rotation angle, in degrees counterclockwise*
0 create outline with 7 corners*
4,1,7,$1,$2,$3,$4,$5,$6,$7,$8,$9,$10,$11,$12,$13,$14,$1,$2,$15*%
%AMOutline8P*
0 Free polygon, 8 corners , with rotation*
0 The origin of the aperture is its center*
0 number of corners: always 8*
0 $1 to $16 corner X, Y*
0 $17 Rotation angle, in degrees counterclockwise*
0 create outline with 8 corners*
4,1,8,$1,$2,$3,$4,$5,$6,$7,$8,$9,$10,$11,$12,$13,$14,$15,$16,$1,$2,$17*%
G04 Aperture macros list end*
%TA.AperFunction,ComponentPad*%
%ADD10C,0.700000*%
%TD*%
%TA.AperFunction,ComponentPad*%
%ADD11C,4.400000*%
%TD*%
%TA.AperFunction,SMDPad,CuDef*%
%ADD12RoundRect,0.125000X0.125000X-0.125000X0.125000X0.125000X-0.125000X0.125000X-0.125000X-0.125000X0*%
%TD*%
%TA.AperFunction,SMDPad,CuDef*%
%ADD13RoundRect,0.155000X0.155000X-0.212500X0.155000X0.212500X-0.155000X0.212500X-0.155000X-0.212500X0*%
%TD*%
%TA.AperFunction,SMDPad,CuDef*%
%ADD14RoundRect,0.150000X-0.150000X-0.350000X0.150000X-0.350000X0.150000X0.350000X-0.150000X0.350000X0*%
%TD*%
%TA.AperFunction,SMDPad,CuDef*%
%ADD15RoundRect,0.075000X-0.075000X-0.500000X0.075000X-0.500000X0.075000X0.500000X-0.075000X0.500000X0*%
%TD*%
%TA.AperFunction,HeatsinkPad*%
%ADD16O,1.000000X2.100000*%
%TD*%
%TA.AperFunction,HeatsinkPad*%
%ADD17O,1.000000X1.800000*%
%TD*%
%TA.AperFunction,SMDPad,CuDef*%
%ADD18R,0.400000X0.800000*%
%TD*%
%TA.AperFunction,SMDPad,CuDef*%
%ADD19R,0.800000X0.400000*%
%TD*%
%TA.AperFunction,HeatsinkPad*%
%ADD20Outline5P,-0.600000X0.204000X-0.204000X0.600000X0.600000X0.600000X0.600000X-0.600000X-0.600000X-0.600000X90.000000*%
%TD*%
%TA.AperFunction,HeatsinkPad*%
%ADD21R,1.200000X1.200000*%
%TD*%
%TA.AperFunction,SMDPad,CuDef*%
%ADD22R,0.800000X0.800000*%
%TD*%
%TA.AperFunction,SMDPad,CuDef*%
%ADD23RoundRect,0.150000X0.150000X-0.512500X0.150000X0.512500X-0.150000X0.512500X-0.150000X-0.512500X0*%
%TD*%
%TA.AperFunction,SMDPad,CuDef*%
%ADD24RoundRect,0.160000X0.160000X-0.222500X0.160000X0.222500X-0.160000X0.222500X-0.160000X-0.222500X0*%
%TD*%
%TA.AperFunction,SMDPad,CuDef*%
%ADD25RoundRect,0.160000X0.160000X-0.197500X0.160000X0.197500X-0.160000X0.197500X-0.160000X-0.197500X0*%
%TD*%
%TA.AperFunction,SMDPad,CuDef*%
%ADD26RoundRect,0.155000X0.212500X0.155000X-0.212500X0.155000X-0.212500X-0.155000X0.212500X-0.155000X0*%
%TD*%
%TA.AperFunction,SMDPad,CuDef*%
%ADD27RoundRect,0.160000X-0.197500X-0.160000X0.197500X-0.160000X0.197500X0.160000X-0.197500X0.160000X0*%
%TD*%
%TA.AperFunction,SMDPad,CuDef*%
%ADD28RoundRect,0.155000X-0.155000X0.212500X-0.155000X-0.212500X0.155000X-0.212500X0.155000X0.212500X0*%
%TD*%
%TA.AperFunction,SMDPad,CuDef*%
%ADD29RoundRect,0.160000X0.197500X0.160000X-0.197500X0.160000X-0.197500X-0.160000X0.197500X-0.160000X0*%
%TD*%
%TA.AperFunction,ComponentPad*%
%ADD30C,1.000000*%
%TD*%
%TA.AperFunction,SMDPad,CuDef*%
%ADD31RoundRect,0.150000X0.350000X-0.150000X0.350000X0.150000X-0.350000X0.150000X-0.350000X-0.150000X0*%
%TD*%
%TA.AperFunction,SMDPad,CuDef*%
%ADD32RoundRect,0.075000X0.500000X-0.075000X0.500000X0.075000X-0.500000X0.075000X-0.500000X-0.075000X0*%
%TD*%
%TA.AperFunction,HeatsinkPad*%
%ADD33O,2.100000X1.000000*%
%TD*%
%TA.AperFunction,HeatsinkPad*%
%ADD34O,1.800000X1.000000*%
%TD*%
%TA.AperFunction,SMDPad,CuDef*%
%ADD35RoundRect,0.160000X-0.160000X0.197500X-0.160000X-0.197500X0.160000X-0.197500X0.160000X0.197500X0*%
%TD*%
%TA.AperFunction,ComponentPad*%
%ADD36C,1.400000*%
%TD*%
%TA.AperFunction,SMDPad,CuDef*%
%ADD37RoundRect,0.150000X-0.825000X-0.150000X0.825000X-0.150000X0.825000X0.150000X-0.825000X0.150000X0*%
%TD*%
%TA.AperFunction,ViaPad*%
%ADD38C,0.600000*%
%TD*%
%TA.AperFunction,Conductor*%
%ADD39C,0.500000*%
%TD*%
%TA.AperFunction,Conductor*%
%ADD40C,0.200000*%
%TD*%
%TA.AperFunction,Conductor*%
%ADD41C,0.150000*%
%TD*%
%TA.AperFunction,Conductor*%
%ADD42C,0.250000*%
%TD*%
G04 APERTURE END LIST*
D10*
%TO.P,MH3,1,1*%
%TO.N,GND*%
X130850000Y-97000000D03*
X131333274Y-95833274D03*
X131333274Y-98166726D03*
X132500000Y-95350000D03*
D11*
X132500000Y-97000000D03*
D10*
X132500000Y-98650000D03*
X133666726Y-95833274D03*
X133666726Y-98166726D03*
X134150000Y-97000000D03*
%TD*%
D12*
%TO.P,STATUS,1,BA*%
%TO.N,/STATUS_LED3*%
X117100000Y-86847500D03*
%TO.P,STATUS,2,RA*%
%TO.N,/STATUS_LED1*%
X118000000Y-86847500D03*
%TO.P,STATUS,3,GA*%
%TO.N,/STATUS_LED2*%
X118000000Y-85947500D03*
%TO.P,STATUS,4,K*%
%TO.N,/STATUS*%
X117100000Y-85947500D03*
%TD*%
D13*
%TO.P,C1,1*%
%TO.N,+VBUS*%
X143750000Y-78067500D03*
%TO.P,C1,2*%
%TO.N,GND*%
X143750000Y-76932500D03*
%TD*%
D14*
%TO.P,CAN,A1,GND*%
%TO.N,GND*%
X138950000Y-93495000D03*
%TO.P,CAN,A4,VBUS*%
%TO.N,+3V3*%
X139750000Y-93495000D03*
D15*
%TO.P,CAN,A5,CC1*%
%TO.N,unconnected-(CAN1-CC1-PadA5)*%
X140900000Y-93570000D03*
%TO.P,CAN,A6,D+*%
%TO.N,/CAN+*%
X141900000Y-93570000D03*
%TO.P,CAN,A7,D-*%
%TO.N,/CAN-*%
X142400000Y-93570000D03*
%TO.P,CAN,A8,SBU1*%
%TO.N,unconnected-(CAN1-SBU1-PadA8)*%
X143400000Y-93570000D03*
D14*
%TO.P,CAN,A9,VBUS*%
%TO.N,+3V3*%
X144550000Y-93495000D03*
%TO.P,CAN,A12,GND*%
%TO.N,GND*%
X145350000Y-93495000D03*
%TO.P,CAN,B1,GND*%
X145350000Y-93495000D03*
%TO.P,CAN,B4,VBUS*%
%TO.N,+3V3*%
X144550000Y-93495000D03*
D15*
%TO.P,CAN,B5,CC2*%
%TO.N,unconnected-(CAN1-CC2-PadB5)*%
X143900000Y-93570000D03*
%TO.P,CAN,B6,D+*%
%TO.N,/CAN+*%
X142900000Y-93570000D03*
%TO.P,CAN,B7,D-*%
%TO.N,/CAN-*%
X141400000Y-93570000D03*
%TO.P,CAN,B8,SBU2*%
%TO.N,unconnected-(CAN1-SBU2-PadB8)*%
X140400000Y-93570000D03*
D14*
%TO.P,CAN,B9,VBUS*%
%TO.N,+3V3*%
X139750000Y-93495000D03*
%TO.P,CAN,B12,GND*%
%TO.N,GND*%
X138950000Y-93495000D03*
D16*
%TO.P,CAN,S1,SHIELD*%
X137830000Y-94145000D03*
D17*
X137830000Y-98325000D03*
D16*
X146470000Y-94145000D03*
D17*
X146470000Y-98325000D03*
%TD*%
D18*
%TO.P,ESP32,1,GND*%
%TO.N,GND*%
X123050000Y-81500000D03*
%TO.P,ESP32,2,GND*%
X123900000Y-81500000D03*
%TO.P,ESP32,3,3V3*%
%TO.N,+3V3*%
X124750000Y-81500000D03*
%TO.P,ESP32,4,IO0*%
%TO.N,/BOOT_SEL*%
X125600000Y-81500000D03*
%TO.P,ESP32,5,IO1*%
%TO.N,/STATUS_LED2*%
X126450000Y-81500000D03*
%TO.P,ESP32,6,IO2*%
%TO.N,/STATUS_LED1*%
X127300000Y-81500000D03*
%TO.P,ESP32,7,IO3*%
%TO.N,/STATUS_LED3*%
X128150000Y-81500000D03*
%TO.P,ESP32,8,IO4*%
%TO.N,unconnected-(U5-IO4-Pad8)*%
X129000000Y-81500000D03*
%TO.P,ESP32,9,IO5*%
%TO.N,unconnected-(U5-IO5-Pad9)*%
X129850000Y-81500000D03*
%TO.P,ESP32,10,IO6*%
%TO.N,/IMU2_SCL*%
X130700000Y-81500000D03*
%TO.P,ESP32,11,IO7*%
%TO.N,/IMU2_SDA*%
X131550000Y-81500000D03*
%TO.P,ESP32,12,IO8*%
%TO.N,/IMU2_INT2*%
X132400000Y-81500000D03*
%TO.P,ESP32,13,IO9*%
%TO.N,/IMU2_INT1*%
X133250000Y-81500000D03*
%TO.P,ESP32,14,IO10*%
%TO.N,/CAN_RX*%
X134100000Y-81500000D03*
%TO.P,ESP32,15,IO11*%
%TO.N,/CAN_TX*%
X134950000Y-81500000D03*
D19*
%TO.P,ESP32,16,IO12*%
%TO.N,unconnected-(U5-IO12-Pad16)*%
X136000000Y-80450000D03*
%TO.P,ESP32,17,IO13*%
%TO.N,unconnected-(U5-IO13-Pad17)*%
X136000000Y-79600000D03*
%TO.P,ESP32,18,IO14*%
%TO.N,unconnected-(U5-IO14-Pad18)*%
X136000000Y-78750000D03*
%TO.P,ESP32,19,IO15*%
%TO.N,unconnected-(U5-IO15-Pad19)*%
X136000000Y-77900000D03*
%TO.P,ESP32,20,IO16*%
%TO.N,unconnected-(U5-IO16-Pad20)*%
X136000000Y-77050000D03*
%TO.P,ESP32,21,IO17*%
%TO.N,unconnected-(U5-IO17-Pad21)*%
X136000000Y-76200000D03*
%TO.P,ESP32,22,IO18*%
%TO.N,unconnected-(U5-IO18-Pad22)*%
X136000000Y-75350000D03*
%TO.P,ESP32,23,USB_D-*%
%TO.N,/USB_D-*%
X136000000Y-74500000D03*
%TO.P,ESP32,24,USB_D+*%
%TO.N,/USB_D+*%
X136000000Y-73650000D03*
%TO.P,ESP32,25,IO21*%
%TO.N,unconnected-(U5-IO21-Pad25)*%
X136000000Y-72800000D03*
%TO.P,ESP32,26,IO26*%
%TO.N,/I2S_SCL*%
X136000000Y-71950000D03*
%TO.P,ESP32,27,IO47*%
%TO.N,/I2S_WS*%
X136000000Y-71100000D03*
%TO.P,ESP32,28,IO33*%
%TO.N,/I2S_L{slash}R*%
X136000000Y-70250000D03*
%TO.P,ESP32,29,IO34*%
%TO.N,/I2S_SD*%
X136000000Y-69400000D03*
%TO.P,ESP32,30,IO48*%
%TO.N,unconnected-(U5-IO48-Pad30)*%
X136000000Y-68550000D03*
D18*
%TO.P,ESP32,31,IO35*%
%TO.N,unconnected-(U5-IO35-Pad31)*%
X134950000Y-67500000D03*
%TO.P,ESP32,32,IO36*%
%TO.N,unconnected-(U5-IO36-Pad32)*%
X134100000Y-67500000D03*
%TO.P,ESP32,33,IO37*%
%TO.N,/IMU1_SCL*%
X133250000Y-67500000D03*
%TO.P,ESP32,34,IO38*%
%TO.N,/IMU1_SDA*%
X132400000Y-67500000D03*
%TO.P,ESP32,35,IO39*%
%TO.N,/IMU1_INT1*%
X131550000Y-67500000D03*
%TO.P,ESP32,36,IO40*%
%TO.N,/IMU1_INT2*%
X130700000Y-67500000D03*
%TO.P,ESP32,37,IO41*%
%TO.N,unconnected-(U5-IO41-Pad37)*%
X129850000Y-67500000D03*
%TO.P,ESP32,38,IO42*%
%TO.N,unconnected-(U5-IO42-Pad38)*%
X129000000Y-67500000D03*
%TO.P,ESP32,39,TXD0*%
%TO.N,unconnected-(U5-TXD0-Pad39)*%
X128150000Y-67500000D03*
%TO.P,ESP32,40,RXD0*%
%TO.N,unconnected-(U5-RXD0-Pad40)*%
X127300000Y-67500000D03*
%TO.P,ESP32,41,IO45*%
%TO.N,unconnected-(U5-IO45-Pad41)*%
X126450000Y-67500000D03*
%TO.P,ESP32,42,GND*%
%TO.N,GND*%
X125600000Y-67500000D03*
%TO.P,ESP32,43,GND*%
X124750000Y-67500000D03*
%TO.P,ESP32,44,IO46*%
%TO.N,unconnected-(U5-IO46-Pad44)*%
X123900000Y-67500000D03*
%TO.P,ESP32,45,EN*%
%TO.N,/EN*%
X123050000Y-67500000D03*
D19*
%TO.P,ESP32,46,GND*%
%TO.N,GND*%
X122000000Y-68550000D03*
%TO.P,ESP32,47,GND*%
X122000000Y-69400000D03*
%TO.P,ESP32,48,GND*%
X122000000Y-70250000D03*
%TO.P,ESP32,49,GND*%
X122000000Y-71100000D03*
%TO.P,ESP32,50,GND*%
X122000000Y-71950000D03*
%TO.P,ESP32,51,GND*%
X122000000Y-72800000D03*
%TO.P,ESP32,52,GND*%
X122000000Y-73650000D03*
%TO.P,ESP32,53,GND*%
X122000000Y-74500000D03*
%TO.P,ESP32,54,GND*%
X122000000Y-75350000D03*
%TO.P,ESP32,55,GND*%
X122000000Y-76200000D03*
%TO.P,ESP32,56,GND*%
X122000000Y-77050000D03*
%TO.P,ESP32,57,GND*%
X122000000Y-77900000D03*
%TO.P,ESP32,58,GND*%
X122000000Y-78750000D03*
%TO.P,ESP32,59,GND*%
X122000000Y-79600000D03*
%TO.P,ESP32,60,GND*%
X122000000Y-80450000D03*
D20*
%TO.P,ESP32,61,GND*%
X127350000Y-76150000D03*
D21*
X129000000Y-76150000D03*
X130650000Y-76150000D03*
X127350000Y-74500000D03*
X129000000Y-74500000D03*
X130650000Y-74500000D03*
X127350000Y-72850000D03*
X129000000Y-72850000D03*
X130650000Y-72850000D03*
D22*
%TO.P,ESP32,62,GND*%
X122000000Y-81500000D03*
%TO.P,ESP32,63,GND*%
X136000000Y-81500000D03*
%TO.P,ESP32,64,GND*%
X136000000Y-67500000D03*
%TO.P,ESP32,65,GND*%
X122000000Y-67500000D03*
%TD*%
D23*
%TO.P,U2,1,I/O1*%
%TO.N,/USBD-*%
X139050000Y-82637500D03*
%TO.P,U2,2,GND*%
%TO.N,GND*%
X140000000Y-82637500D03*
%TO.P,U2,3,I/O2*%
%TO.N,/USBD+*%
X140950000Y-82637500D03*
%TO.P,U2,4,I/O2*%
%TO.N,/USB_D+*%
X140950000Y-80362500D03*
%TO.P,U2,5,VBUS*%
%TO.N,+VBUS*%
X140000000Y-80362500D03*
%TO.P,U2,6,I/O1*%
%TO.N,/USB_D-*%
X139050000Y-80362500D03*
%TD*%
D24*
%TO.P,3V3,1,K*%
%TO.N,/PWR_RDY*%
X118100000Y-84572500D03*
%TO.P,3V3,2,A*%
%TO.N,+3V3*%
X118100000Y-83427500D03*
%TD*%
D14*
%TO.P,IMU,A1,GND*%
%TO.N,GND*%
X120050000Y-93495000D03*
%TO.P,IMU,A4,VBUS*%
%TO.N,unconnected-(IMU2-VBUS-PadA4)_3*%
X120850000Y-93495000D03*
D15*
%TO.P,IMU,A5,CC1*%
%TO.N,/IMU2_INT1*%
X122000000Y-93570000D03*
%TO.P,IMU,A6,D+*%
%TO.N,/IMU2_SDA*%
X123000000Y-93570000D03*
%TO.P,IMU,A7,D-*%
%TO.N,/IMU2_SCL*%
X123500000Y-93570000D03*
%TO.P,IMU,A8,SBU1*%
%TO.N,/IMU2_INT2*%
X124500000Y-93570000D03*
D14*
%TO.P,IMU,A9,VBUS*%
%TO.N,unconnected-(IMU2-VBUS-PadA4)*%
X125650000Y-93495000D03*
%TO.P,IMU,A12,GND*%
%TO.N,GND*%
X126450000Y-93495000D03*
%TO.P,IMU,B1,GND*%
X126450000Y-93495000D03*
%TO.P,IMU,B4,VBUS*%
%TO.N,unconnected-(IMU2-VBUS-PadA4)_2*%
X125650000Y-93495000D03*
D15*
%TO.P,IMU,B5,CC2*%
%TO.N,/IMU2_INT1*%
X125000000Y-93570000D03*
%TO.P,IMU,B6,D+*%
%TO.N,/IMU2_SDA*%
X124000000Y-93570000D03*
%TO.P,IMU,B7,D-*%
%TO.N,/IMU2_SCL*%
X122500000Y-93570000D03*
%TO.P,IMU,B8,SBU2*%
%TO.N,/IMU2_INT2*%
X121500000Y-93570000D03*
D14*
%TO.P,IMU,B9,VBUS*%
%TO.N,unconnected-(IMU2-VBUS-PadA4)_1*%
X120850000Y-93495000D03*
%TO.P,IMU,B12,GND*%
%TO.N,GND*%
X120050000Y-93495000D03*
D16*
%TO.P,IMU,S1,SHIELD*%
X118930000Y-94145000D03*
D17*
X118930000Y-98325000D03*
D16*
X127570000Y-94145000D03*
D17*
X127570000Y-98325000D03*
%TD*%
D25*
%TO.P,R6,1*%
%TO.N,/CAN-*%
X140400000Y-89597500D03*
%TO.P,R6,2*%
%TO.N,/CAN+*%
X140400000Y-88402500D03*
%TD*%
D26*
%TO.P,C7,1*%
%TO.N,+3V3*%
X124567500Y-83000000D03*
%TO.P,C7,2*%
%TO.N,GND*%
X123432500Y-83000000D03*
%TD*%
D13*
%TO.P,C9,1*%
%TO.N,+3V3*%
X147000000Y-73567500D03*
%TO.P,C9,2*%
%TO.N,GND*%
X147000000Y-72432500D03*
%TD*%
D27*
%TO.P,R7,1*%
%TO.N,+3V3*%
X122802500Y-90750000D03*
%TO.P,R7,2*%
%TO.N,/IMU2_SDA*%
X123997500Y-90750000D03*
%TD*%
D10*
%TO.P,MH1,1,1*%
%TO.N,GND*%
X116850000Y-68500000D03*
X117333274Y-67333274D03*
X117333274Y-69666726D03*
X118500000Y-66850000D03*
D11*
X118500000Y-68500000D03*
D10*
X118500000Y-70150000D03*
X119666726Y-67333274D03*
X119666726Y-69666726D03*
X120150000Y-68500000D03*
%TD*%
D13*
%TO.P,C2,1*%
%TO.N,+VBUS*%
X145000000Y-78067500D03*
%TO.P,C2,2*%
%TO.N,GND*%
X145000000Y-76932500D03*
%TD*%
D26*
%TO.P,C8,1*%
%TO.N,+3V3*%
X124567500Y-84000000D03*
%TO.P,C8,2*%
%TO.N,GND*%
X123432500Y-84000000D03*
%TD*%
D13*
%TO.P,C10,1*%
%TO.N,+3V3*%
X146000000Y-73567500D03*
%TO.P,C10,2*%
%TO.N,GND*%
X146000000Y-72432500D03*
%TD*%
D28*
%TO.P,C11,1*%
%TO.N,+3V3*%
X136150000Y-92432500D03*
%TO.P,C11,2*%
%TO.N,GND*%
X136150000Y-93567500D03*
%TD*%
D29*
%TO.P,R5,1*%
%TO.N,+3V3*%
X124297500Y-65900000D03*
%TO.P,R5,2*%
%TO.N,/EN*%
X123102500Y-65900000D03*
%TD*%
D30*
%TO.P,U4,1,L/R*%
%TO.N,/I2S_L{slash}R*%
X140690000Y-71460000D03*
%TO.P,U4,2,WS*%
%TO.N,/I2S_WS*%
X140690000Y-74000000D03*
%TO.P,U4,3,SCK*%
%TO.N,/I2S_SCL*%
X140690000Y-76540000D03*
%TO.P,U4,4,SD*%
%TO.N,/I2S_SD*%
X148310000Y-76540000D03*
%TO.P,U4,5,VDD*%
%TO.N,+3V3*%
X148310000Y-74000000D03*
%TO.P,U4,6,GND*%
%TO.N,GND*%
X148310000Y-71460000D03*
%TD*%
D10*
%TO.P,MH2,1,1*%
%TO.N,GND*%
X144850000Y-68500000D03*
X145333274Y-67333274D03*
X145333274Y-69666726D03*
X146500000Y-66850000D03*
D11*
X146500000Y-68500000D03*
D10*
X146500000Y-70150000D03*
X147666726Y-67333274D03*
X147666726Y-69666726D03*
X148150000Y-68500000D03*
%TD*%
D13*
%TO.P,C13,1*%
%TO.N,+3V3*%
X131600000Y-89567500D03*
%TO.P,C13,2*%
%TO.N,GND*%
X131600000Y-88432500D03*
%TD*%
D28*
%TO.P,C12,1*%
%TO.N,+3V3*%
X134900000Y-92432500D03*
%TO.P,C12,2*%
%TO.N,GND*%
X134900000Y-93567500D03*
%TD*%
D31*
%TO.P,USB,A1,GND*%
%TO.N,GND*%
X143745000Y-87700000D03*
%TO.P,USB,A4,VBUS*%
%TO.N,+VBUS*%
X143745000Y-86900000D03*
D32*
%TO.P,USB,A5,CC1*%
%TO.N,/USB_CC1*%
X143820000Y-85750000D03*
%TO.P,USB,A6,D+*%
%TO.N,/USBD+*%
X143820000Y-84750000D03*
%TO.P,USB,A7,D-*%
%TO.N,/USBD-*%
X143820000Y-84250000D03*
%TO.P,USB,A8,SBU1*%
%TO.N,unconnected-(USB1-SBU1-PadA8)*%
X143820000Y-83250000D03*
D31*
%TO.P,USB,A9,VBUS*%
%TO.N,+VBUS*%
X143745000Y-82100000D03*
%TO.P,USB,A12,GND*%
%TO.N,GND*%
X143745000Y-81300000D03*
%TO.P,USB,B1,GND*%
X143745000Y-81300000D03*
%TO.P,USB,B4,VBUS*%
%TO.N,+VBUS*%
X143745000Y-82100000D03*
D32*
%TO.P,USB,B5,CC2*%
%TO.N,/USB_CC2*%
X143820000Y-82750000D03*
%TO.P,USB,B6,D+*%
%TO.N,/USBD+*%
X143820000Y-83750000D03*
%TO.P,USB,B7,D-*%
%TO.N,/USBD-*%
X143820000Y-85250000D03*
%TO.P,USB,B8,SBU2*%
%TO.N,unconnected-(USB1-SBU2-PadB8)*%
X143820000Y-86250000D03*
D31*
%TO.P,USB,B9,VBUS*%
%TO.N,+VBUS*%
X143745000Y-86900000D03*
%TO.P,USB,B12,GND*%
%TO.N,GND*%
X143745000Y-87700000D03*
D33*
%TO.P,USB,S1,SHIELD*%
X144395000Y-88820000D03*
D34*
X148575000Y-88820000D03*
D33*
X144395000Y-80180000D03*
D34*
X148575000Y-80180000D03*
%TD*%
D35*
%TO.P,R2,1*%
%TO.N,GND*%
X116000000Y-83402500D03*
%TO.P,R2,2*%
%TO.N,/STATUS*%
X116000000Y-84597500D03*
%TD*%
D25*
%TO.P,R1,1*%
%TO.N,/PWR_RDY*%
X117100000Y-84597500D03*
%TO.P,R1,2*%
%TO.N,GND*%
X117100000Y-83402500D03*
%TD*%
D36*
%TO.P,BOOT__SEL,1,A*%
%TO.N,GND*%
X118000000Y-77250000D03*
%TO.P,BOOT__SEL,2,B*%
%TO.N,/BOOT_SEL*%
X118000000Y-74710000D03*
%TD*%
D35*
%TO.P,R4,1*%
%TO.N,/USB_CC1*%
X142200000Y-86502500D03*
%TO.P,R4,2*%
%TO.N,GND*%
X142200000Y-87697500D03*
%TD*%
D25*
%TO.P,R10,1*%
%TO.N,+3V3*%
X140500000Y-68297500D03*
%TO.P,R10,2*%
%TO.N,/IMU1_SDA*%
X140500000Y-67102500D03*
%TD*%
%TO.P,R9,1*%
%TO.N,+3V3*%
X139400000Y-68297500D03*
%TO.P,R9,2*%
%TO.N,/IMU1_SCL*%
X139400000Y-67102500D03*
%TD*%
%TO.P,R3,1*%
%TO.N,/USB_CC2*%
X142250000Y-82347500D03*
%TO.P,R3,2*%
%TO.N,GND*%
X142250000Y-81152500D03*
%TD*%
D37*
%TO.P,U3,1,D*%
%TO.N,/CAN_TX*%
X133425000Y-87095000D03*
%TO.P,U3,2,GND*%
%TO.N,GND*%
X133425000Y-88365000D03*
%TO.P,U3,3,VCC*%
%TO.N,+3V3*%
X133425000Y-89635000D03*
%TO.P,U3,4,R*%
%TO.N,/CAN_RX*%
X133425000Y-90905000D03*
%TO.P,U3,5,Vref*%
%TO.N,unconnected-(U3-Vref-Pad5)*%
X138375000Y-90905000D03*
%TO.P,U3,6,CANL*%
%TO.N,/CAN-*%
X138375000Y-89635000D03*
%TO.P,U3,7,CANH*%
%TO.N,/CAN+*%
X138375000Y-88365000D03*
%TO.P,U3,8,Rs*%
%TO.N,unconnected-(U3-Rs-Pad8)*%
X138375000Y-87095000D03*
%TD*%
D29*
%TO.P,R8,1*%
%TO.N,+3V3*%
X122797500Y-89750000D03*
%TO.P,R8,2*%
%TO.N,/IMU2_SCL*%
X121602500Y-89750000D03*
%TD*%
D38*
%TO.N,+3V3*%
X120000000Y-84200000D03*
X142500000Y-97500000D03*
X141500000Y-95500000D03*
X137400000Y-92200000D03*
X143500000Y-96500000D03*
X143500000Y-97500000D03*
X131600000Y-80000000D03*
X122100000Y-85000000D03*
X140500000Y-97500000D03*
X139400000Y-92200000D03*
X141500000Y-97500000D03*
X118900000Y-83400000D03*
X142500000Y-96500000D03*
X135800000Y-89900000D03*
X142500000Y-95500000D03*
X135800000Y-88900000D03*
X120000000Y-83400000D03*
X135800000Y-90900000D03*
X144500000Y-97500000D03*
X144500000Y-96500000D03*
X124200000Y-85000000D03*
X140500000Y-96500000D03*
X143500000Y-95500000D03*
X124000000Y-89700000D03*
X141500000Y-96500000D03*
X140500000Y-95500000D03*
X121000000Y-85000000D03*
X125300000Y-65900000D03*
X120000000Y-85000000D03*
X138400000Y-92200000D03*
X123200000Y-85000000D03*
X144500000Y-95500000D03*
%TO.N,GND*%
X129000000Y-78300000D03*
X133750000Y-74000000D03*
X132000000Y-93750000D03*
X148000000Y-96250000D03*
X130000000Y-70500000D03*
X116250000Y-80500000D03*
X116250000Y-94750000D03*
X129000000Y-70500000D03*
X116250000Y-74500000D03*
X148000000Y-94250000D03*
X116250000Y-89750000D03*
X119000000Y-96500000D03*
X130000000Y-71500000D03*
X124500000Y-98500000D03*
X137500000Y-82500000D03*
X129250000Y-96000000D03*
X148500000Y-85750000D03*
X127000000Y-71500000D03*
X131750000Y-69250000D03*
X116250000Y-73500000D03*
X127250000Y-96500000D03*
X137500000Y-84300000D03*
X127500000Y-68500000D03*
X120000000Y-96500000D03*
X116250000Y-70500000D03*
X127000000Y-70500000D03*
X120600000Y-73500000D03*
X119250000Y-92000000D03*
X126250000Y-96500000D03*
X128500000Y-68500000D03*
X149000000Y-95250000D03*
X130000000Y-77500000D03*
X120600000Y-72500000D03*
X130000000Y-93750000D03*
X133750000Y-74900000D03*
X116250000Y-76500000D03*
X117250000Y-95750000D03*
X116250000Y-93750000D03*
X116250000Y-88750000D03*
X116250000Y-95750000D03*
X125250000Y-96500000D03*
X146000000Y-90250000D03*
X129250000Y-98000000D03*
X120600000Y-74500000D03*
X128000000Y-70500000D03*
X148000000Y-92250000D03*
X136000000Y-95000000D03*
X140600000Y-86800000D03*
X124500000Y-97500000D03*
X116250000Y-90750000D03*
X146700000Y-71500000D03*
X120600000Y-75500000D03*
X131750000Y-77250000D03*
X136000000Y-97000000D03*
X136000000Y-96000000D03*
X135400000Y-87000000D03*
X120600000Y-78500000D03*
X117250000Y-96750000D03*
X131750000Y-76250000D03*
X124250000Y-96500000D03*
X123500000Y-98500000D03*
X131750000Y-72250000D03*
X116250000Y-79500000D03*
X120600000Y-81500000D03*
X130000000Y-78300000D03*
X127000000Y-77500000D03*
X128000000Y-77500000D03*
X129250000Y-95000000D03*
X120600000Y-79500000D03*
X116250000Y-92750000D03*
X129000000Y-71500000D03*
X129250000Y-97000000D03*
X129000000Y-69500000D03*
X148500000Y-84750000D03*
X131000000Y-93750000D03*
X117250000Y-94750000D03*
X120600000Y-80500000D03*
X133750000Y-73000000D03*
X117250000Y-71500000D03*
X116250000Y-81500000D03*
X149000000Y-93250000D03*
X143800000Y-66000000D03*
X131750000Y-71250000D03*
X120750000Y-66000000D03*
X128000000Y-78300000D03*
X117250000Y-93750000D03*
X149000000Y-94250000D03*
X116250000Y-78500000D03*
X137500000Y-85200000D03*
X117500000Y-79500000D03*
X136000000Y-98000000D03*
X136100000Y-87000000D03*
X118250000Y-71500000D03*
X133750000Y-78500000D03*
X123500000Y-97500000D03*
X131750000Y-78250000D03*
X148000000Y-90250000D03*
X132750000Y-69250000D03*
X131750000Y-74250000D03*
X148000000Y-93250000D03*
X137500000Y-83400000D03*
X116250000Y-77500000D03*
X120600000Y-71500000D03*
X148000000Y-91250000D03*
X148500000Y-82750000D03*
X133750000Y-76650000D03*
X133750000Y-80400000D03*
X148500000Y-83750000D03*
X148000000Y-97250000D03*
X129000000Y-77500000D03*
X145000000Y-90250000D03*
X122000000Y-96500000D03*
X116250000Y-72500000D03*
X122500000Y-98500000D03*
X144000000Y-90250000D03*
X117250000Y-72500000D03*
X133750000Y-79500000D03*
X131750000Y-75250000D03*
X137500000Y-81600000D03*
X127000000Y-78300000D03*
X135000000Y-95000000D03*
X116250000Y-71500000D03*
X121500000Y-97500000D03*
X118500000Y-79500000D03*
X126500000Y-68500000D03*
X120250000Y-92000000D03*
X131750000Y-70250000D03*
X130000000Y-89650000D03*
X120600000Y-70500000D03*
X148000000Y-95250000D03*
X133750000Y-75750000D03*
X118250000Y-72500000D03*
X116250000Y-75500000D03*
X147000000Y-90250000D03*
X133750000Y-77600000D03*
X128000000Y-71500000D03*
X120600000Y-76500000D03*
X122500000Y-97500000D03*
X128000000Y-69500000D03*
X131750000Y-73250000D03*
X120600000Y-77500000D03*
X121000000Y-96500000D03*
X116250000Y-91750000D03*
X143800000Y-67000000D03*
X130000000Y-90750000D03*
X127000000Y-69500000D03*
X121750000Y-66000000D03*
X121500000Y-98500000D03*
X133000000Y-93750000D03*
X149000000Y-92250000D03*
X119500000Y-71500000D03*
%TO.N,+VBUS*%
X146500000Y-81000000D03*
X148100000Y-78600000D03*
X146500000Y-80200000D03*
X148900000Y-78600000D03*
X147300000Y-78600000D03*
X146500000Y-79400000D03*
X146500000Y-78600000D03*
X146500000Y-82600000D03*
X146500000Y-83400000D03*
X146500000Y-81800000D03*
X140000000Y-79100000D03*
%TO.N,/IMU1_INT1*%
X131900000Y-66200000D03*
%TO.N,/IMU1_SDA*%
X141500000Y-67100000D03*
%TO.N,/IMU1_INT2*%
X130400000Y-66200000D03*
%TO.N,/IMU1_SCL*%
X138400000Y-67100000D03*
%TO.N,/IMU2_INT2*%
X124900000Y-91900000D03*
X122300000Y-95400000D03*
%TO.N,/BOOT_SEL*%
X125500000Y-83600000D03*
%TD*%
D39*
%TO.N,+3V3*%
X124750000Y-81500000D02*
X124750000Y-80550000D01*
X124750000Y-80550000D02*
X125900000Y-79400000D01*
X125900000Y-79400000D02*
X131000000Y-79400000D01*
X124297500Y-65900000D02*
X125300000Y-65900000D01*
X131000000Y-79400000D02*
X131600000Y-80000000D01*
D40*
%TO.N,/PWR_RDY*%
X117125000Y-84572500D02*
X117100000Y-84597500D01*
X118100000Y-84572500D02*
X117125000Y-84572500D01*
D39*
%TO.N,+VBUS*%
X140000000Y-80362500D02*
X140000000Y-79100000D01*
D40*
%TO.N,/CAN-*%
X141400000Y-92750000D02*
X141650000Y-92500000D01*
D41*
X142400000Y-92707499D02*
X142400000Y-93570000D01*
X139050000Y-89635000D02*
X139485000Y-89200000D01*
X140400000Y-89597500D02*
X140936251Y-89597500D01*
X140936251Y-89597500D02*
X141333751Y-89200000D01*
D40*
X141400000Y-93570000D02*
X141400000Y-92750000D01*
X142150000Y-92500000D02*
X141650000Y-92500000D01*
X142400000Y-93570000D02*
X142400000Y-92750000D01*
D41*
X139485000Y-89200000D02*
X139965000Y-89200000D01*
X138375000Y-89635000D02*
X139050000Y-89635000D01*
X139965000Y-89200000D02*
X140362500Y-89597500D01*
X142450000Y-89582844D02*
X142450000Y-89846417D01*
D40*
X142400000Y-92750000D02*
X142150000Y-92500000D01*
D41*
X142450000Y-89846417D02*
X142450000Y-90472538D01*
X142450000Y-90472538D02*
X142450000Y-92657499D01*
X142450000Y-92657499D02*
X142400000Y-92707499D01*
X142067156Y-89200000D02*
X142450000Y-89582844D01*
X140362500Y-89597500D02*
X140400000Y-89597500D01*
X141333751Y-89200000D02*
X142067156Y-89200000D01*
%TO.N,/CAN+*%
X142232844Y-88800000D02*
X142850000Y-89417156D01*
D40*
X142900000Y-94250000D02*
X142900000Y-93570000D01*
D41*
X142850000Y-92657499D02*
X142900000Y-92707499D01*
X139050000Y-88365000D02*
X139485000Y-88800000D01*
D40*
X142650000Y-94500000D02*
X142900000Y-94250000D01*
D41*
X140936251Y-88402500D02*
X141333751Y-88800000D01*
X140362500Y-88402500D02*
X140400000Y-88402500D01*
D40*
X141900000Y-93570000D02*
X141900000Y-94250000D01*
D41*
X139485000Y-88800000D02*
X139965000Y-88800000D01*
X142900000Y-92707499D02*
X142900000Y-93570000D01*
D40*
X141900000Y-94250000D02*
X142150000Y-94500000D01*
D41*
X140400000Y-88402500D02*
X140936251Y-88402500D01*
X139965000Y-88800000D02*
X140362500Y-88402500D01*
X142850000Y-89417156D02*
X142850000Y-92657499D01*
D40*
X142150000Y-94500000D02*
X142650000Y-94500000D01*
D41*
X138375000Y-88365000D02*
X139050000Y-88365000D01*
X141333751Y-88800000D02*
X142232844Y-88800000D01*
D40*
%TO.N,/IMU1_INT1*%
X131550000Y-66550000D02*
X131900000Y-66200000D01*
X131550000Y-67500000D02*
X131550000Y-66550000D01*
%TO.N,/IMU1_SDA*%
X141497500Y-67102500D02*
X140500000Y-67102500D01*
X139801000Y-65601000D02*
X133599000Y-65601000D01*
X140500000Y-66300000D02*
X139801000Y-65601000D01*
X140500000Y-67102500D02*
X140500000Y-66300000D01*
X132400000Y-66800000D02*
X132400000Y-67500000D01*
X133599000Y-65601000D02*
X132400000Y-66800000D01*
X141500000Y-67100000D02*
X141497500Y-67102500D01*
%TO.N,/IMU1_INT2*%
X130700000Y-66500000D02*
X130400000Y-66200000D01*
X130700000Y-67500000D02*
X130700000Y-66500000D01*
%TO.N,/IMU1_SCL*%
X139400000Y-67102500D02*
X139400000Y-66500000D01*
X138400000Y-67100000D02*
X138795000Y-67100000D01*
X133250000Y-66750000D02*
X133250000Y-67500000D01*
X138902000Y-66002000D02*
X133998000Y-66002000D01*
X133998000Y-66002000D02*
X133250000Y-66750000D01*
X139400000Y-66500000D02*
X138902000Y-66002000D01*
X138795000Y-67100000D02*
X138797500Y-67102500D01*
X138797500Y-67102500D02*
X139400000Y-67102500D01*
%TO.N,/IMU2_SDA*%
X124000000Y-92995001D02*
X124000000Y-93570000D01*
X124000000Y-90750000D02*
X124750000Y-90750000D01*
X128800000Y-84800000D02*
X131550000Y-82050000D01*
X123287888Y-92744000D02*
X123748999Y-92744000D01*
X124000000Y-93570000D02*
X124000000Y-90750000D01*
X123000000Y-93031888D02*
X123287888Y-92744000D01*
X128800000Y-86700000D02*
X128800000Y-84800000D01*
X131550000Y-82050000D02*
X131550000Y-81500000D01*
X124750000Y-90750000D02*
X128800000Y-86700000D01*
X123000000Y-93570000D02*
X123000000Y-93031888D01*
X123748999Y-92744000D02*
X124000000Y-92995001D01*
%TO.N,/IMU2_INT2*%
X132400000Y-82100000D02*
X132400000Y-81500000D01*
X129400000Y-87400000D02*
X129400000Y-85100000D01*
X129400000Y-85100000D02*
X132400000Y-82100000D01*
X124500000Y-93570000D02*
X124500000Y-92300000D01*
X121500000Y-93570000D02*
X121500000Y-94600000D01*
X124500000Y-92300000D02*
X129400000Y-87400000D01*
X121500000Y-94600000D02*
X122300000Y-95400000D01*
%TO.N,/IMU2_INT1*%
X133250000Y-82150000D02*
X133250000Y-81500000D01*
X130000000Y-85400000D02*
X133250000Y-82150000D01*
X122250000Y-94750000D02*
X124750000Y-94750000D01*
X124750000Y-94750000D02*
X125000000Y-94500000D01*
X125000000Y-94500000D02*
X125000000Y-93570000D01*
X122000000Y-93570000D02*
X122000000Y-94500000D01*
X122000000Y-94500000D02*
X122250000Y-94750000D01*
X130000000Y-87800000D02*
X130000000Y-85400000D01*
X125000000Y-92800000D02*
X130000000Y-87800000D01*
X125000000Y-93570000D02*
X125000000Y-92800000D01*
%TO.N,/IMU2_SCL*%
X128200000Y-84600000D02*
X130700000Y-82100000D01*
X122500000Y-93570000D02*
X122500000Y-92300000D01*
X122500000Y-93570000D02*
X122500000Y-94108112D01*
X128200000Y-86300000D02*
X128200000Y-84600000D01*
X125800000Y-88700000D02*
X128200000Y-86300000D01*
X122791888Y-94400000D02*
X123208112Y-94400000D01*
X121602500Y-91402500D02*
X121602500Y-89097500D01*
X122500000Y-92300000D02*
X121602500Y-91402500D01*
X123500000Y-94108112D02*
X123500000Y-93570000D01*
X121602500Y-89097500D02*
X122000000Y-88700000D01*
X123208112Y-94400000D02*
X123500000Y-94108112D01*
X130700000Y-82100000D02*
X130700000Y-81500000D01*
X122000000Y-88700000D02*
X125800000Y-88700000D01*
X122500000Y-94108112D02*
X122791888Y-94400000D01*
%TO.N,/BOOT_SEL*%
X125600000Y-83500000D02*
X125500000Y-83600000D01*
X125600000Y-81500000D02*
X125600000Y-83500000D01*
%TO.N,/STATUS*%
X116000000Y-85700000D02*
X116000000Y-84597500D01*
X117100000Y-85947500D02*
X116247500Y-85947500D01*
X116247500Y-85947500D02*
X116000000Y-85700000D01*
%TO.N,/USB_CC2*%
X142652500Y-82750000D02*
X142250000Y-82347500D01*
X143820000Y-82750000D02*
X142652500Y-82750000D01*
%TO.N,/USB_CC1*%
X143820000Y-85750000D02*
X142652500Y-85750000D01*
X142652500Y-85750000D02*
X142250000Y-86152500D01*
%TO.N,/EN*%
X123050000Y-67500000D02*
X123050000Y-65852500D01*
X123050000Y-65852500D02*
X123152500Y-65750000D01*
%TO.N,/STATUS_LED1*%
X126800000Y-84800000D02*
X124752500Y-86847500D01*
X124752500Y-86847500D02*
X118000000Y-86847500D01*
X126800000Y-82900000D02*
X126800000Y-84800000D01*
X127300000Y-81500000D02*
X127300000Y-82400000D01*
X127300000Y-82400000D02*
X126800000Y-82900000D01*
%TO.N,/STATUS_LED2*%
X124752500Y-85947500D02*
X118000000Y-85947500D01*
X126450000Y-81500000D02*
X126450000Y-82350000D01*
X126200000Y-84500000D02*
X124752500Y-85947500D01*
X126200000Y-82600000D02*
X126200000Y-84500000D01*
X126450000Y-82350000D02*
X126200000Y-82600000D01*
%TO.N,/STATUS_LED3*%
X128150000Y-81500000D02*
X128150000Y-82450000D01*
X119000000Y-87500000D02*
X118600000Y-87900000D01*
X127400000Y-83200000D02*
X127400000Y-85300000D01*
X127400000Y-85300000D02*
X125200000Y-87500000D01*
X117500000Y-87900000D02*
X117100000Y-87500000D01*
X117100000Y-87500000D02*
X117100000Y-86847500D01*
X125200000Y-87500000D02*
X119000000Y-87500000D01*
X128150000Y-82450000D02*
X127400000Y-83200000D01*
X118600000Y-87900000D02*
X117500000Y-87900000D01*
D42*
%TO.N,/USB_D-*%
X138790000Y-74569828D02*
X138790000Y-74701812D01*
X139795000Y-77824828D02*
X139795000Y-78312351D01*
X138790000Y-75163165D02*
X138610000Y-75343165D01*
X138790000Y-76371469D02*
X138790000Y-76819828D01*
X136600001Y-74500000D02*
X136820001Y-74280000D01*
X138239464Y-75763165D02*
X138419464Y-75943165D01*
X138419464Y-75343165D02*
X138239464Y-75523165D01*
X138610000Y-75943165D02*
X138790000Y-76123165D01*
X138790000Y-76819828D02*
X139795000Y-77824828D01*
X138790000Y-74701812D02*
X138790000Y-75163165D01*
X139050000Y-79057351D02*
X139050000Y-80362500D01*
X136000000Y-74500000D02*
X136600001Y-74500000D01*
X139795000Y-78312351D02*
X139050000Y-79057351D01*
X138790000Y-76123165D02*
X138790000Y-76371469D01*
X138239464Y-75523165D02*
X138239464Y-75763165D01*
X138500172Y-74280000D02*
X138790000Y-74569828D01*
X138610000Y-75343165D02*
X138419464Y-75343165D01*
X138419464Y-75943165D02*
X138610000Y-75943165D01*
X136820001Y-74280000D02*
X138500172Y-74280000D01*
%TO.N,/USBD-*%
X140299863Y-85179691D02*
X142438271Y-85179691D01*
X144578805Y-85250000D02*
X144800000Y-85028805D01*
X143820000Y-85250000D02*
X144578805Y-85250000D01*
X144800000Y-84400000D02*
X144650000Y-84250000D01*
X139795000Y-84674828D02*
X140299863Y-85179691D01*
X139795000Y-84145000D02*
X139795000Y-84674828D01*
X139050000Y-82637500D02*
X139050000Y-83400000D01*
X139050000Y-83400000D02*
X139795000Y-84145000D01*
X142508580Y-85250000D02*
X143820000Y-85250000D01*
X144800000Y-85028805D02*
X144800000Y-84400000D01*
X142438271Y-85179691D02*
X142508580Y-85250000D01*
X144650000Y-84250000D02*
X143820000Y-84250000D01*
%TO.N,/USB_D+*%
X138670000Y-73870000D02*
X139200000Y-74400000D01*
X136820001Y-73870000D02*
X138670000Y-73870000D01*
X139200000Y-76650000D02*
X140205000Y-77655000D01*
X140205000Y-77655000D02*
X140205000Y-78312351D01*
X136000000Y-73650000D02*
X136600001Y-73650000D01*
X140950000Y-79057351D02*
X140950000Y-80362500D01*
X136600001Y-73650000D02*
X136820001Y-73870000D01*
X139200000Y-74400000D02*
X139200000Y-76650000D01*
X140205000Y-78312351D02*
X140950000Y-79057351D01*
%TO.N,/USBD+*%
X142750000Y-84000000D02*
X143000000Y-83750000D01*
X140205000Y-84120000D02*
X140205000Y-84505000D01*
X142595170Y-84769691D02*
X142614861Y-84750000D01*
X140950000Y-83375000D02*
X140205000Y-84120000D01*
X142750000Y-84500000D02*
X142750000Y-84000000D01*
X140950000Y-82637500D02*
X140950000Y-83375000D01*
X143000000Y-84750000D02*
X142750000Y-84500000D01*
X143820000Y-84750000D02*
X143000000Y-84750000D01*
X142614861Y-84750000D02*
X143820000Y-84750000D01*
X143000000Y-83750000D02*
X143820000Y-83750000D01*
X140469691Y-84769691D02*
X142595170Y-84769691D01*
X140205000Y-84505000D02*
X140469691Y-84769691D01*
D40*
%TO.N,/CAN_RX*%
X133025000Y-90905000D02*
X131605000Y-90905000D01*
X131605000Y-90905000D02*
X130800000Y-90100000D01*
X130800000Y-85525000D02*
X134100000Y-82225000D01*
X134100000Y-82225000D02*
X134100000Y-81500000D01*
X130800000Y-90100000D02*
X130800000Y-85525000D01*
%TO.N,/CAN_TX*%
X135600000Y-84100000D02*
X135700000Y-84000000D01*
X131900000Y-85500000D02*
X132500000Y-84900000D01*
X135100000Y-82600000D02*
X134950000Y-82450000D01*
X133025000Y-87095000D02*
X132295000Y-87095000D01*
X135000000Y-84700000D02*
X135000000Y-84200000D01*
X135600000Y-83600000D02*
X135100000Y-83600000D01*
X133800000Y-84900000D02*
X133900000Y-85000000D01*
X135700000Y-83700000D02*
X135600000Y-83600000D01*
X135000000Y-83200000D02*
X135100000Y-83100000D01*
X135100000Y-83100000D02*
X135600000Y-83100000D01*
X134300000Y-85600000D02*
X134400000Y-85500000D01*
X134800000Y-84900000D02*
X135000000Y-84700000D01*
X134950000Y-82450000D02*
X134950000Y-81500000D01*
X135100000Y-83600000D02*
X135000000Y-83500000D01*
X134500000Y-84900000D02*
X134800000Y-84900000D01*
X135100000Y-84100000D02*
X135600000Y-84100000D01*
X133900000Y-85500000D02*
X134000000Y-85600000D01*
X134400000Y-85500000D02*
X134400000Y-85000000D01*
X135000000Y-83500000D02*
X135000000Y-83200000D01*
X133900000Y-85000000D02*
X133900000Y-85500000D01*
X135600000Y-83100000D02*
X135700000Y-83000000D01*
X132295000Y-87095000D02*
X131900000Y-86700000D01*
X132500000Y-84900000D02*
X133800000Y-84900000D01*
X134000000Y-85600000D02*
X134300000Y-85600000D01*
X135700000Y-82700000D02*
X135600000Y-82600000D01*
X135700000Y-83000000D02*
X135700000Y-82700000D01*
X131900000Y-86700000D02*
X131900000Y-85500000D01*
X135000000Y-84200000D02*
X135100000Y-84100000D01*
X134400000Y-85000000D02*
X134500000Y-84900000D01*
X135600000Y-82600000D02*
X135100000Y-82600000D01*
X135700000Y-84000000D02*
X135700000Y-83700000D01*
%TO.N,/I2S_WS*%
X136000000Y-71100000D02*
X137900000Y-71100000D01*
X140690000Y-73890000D02*
X140690000Y-74000000D01*
X137900000Y-71100000D02*
X140690000Y-73890000D01*
%TO.N,/I2S_SCL*%
X137850000Y-71950000D02*
X139700000Y-73800000D01*
X139700000Y-73800000D02*
X139700000Y-75550000D01*
X136000000Y-71950000D02*
X137850000Y-71950000D01*
X139700000Y-75550000D02*
X140690000Y-76540000D01*
%TO.N,/I2S_SD*%
X142500000Y-71700000D02*
X142500000Y-73600000D01*
X144150000Y-75250000D02*
X147020000Y-75250000D01*
X139300000Y-70000000D02*
X140800000Y-70000000D01*
X147020000Y-75250000D02*
X148310000Y-76540000D01*
X140800000Y-70000000D02*
X142500000Y-71700000D01*
X138700000Y-69400000D02*
X139300000Y-70000000D01*
X136000000Y-69400000D02*
X138700000Y-69400000D01*
X142500000Y-73600000D02*
X144150000Y-75250000D01*
%TO.N,/I2S_L{slash}R*%
X138250000Y-70250000D02*
X139460000Y-71460000D01*
X139460000Y-71460000D02*
X140690000Y-71460000D01*
X136000000Y-70250000D02*
X138250000Y-70250000D01*
%TD*%
%TA.AperFunction,Conductor*%
%TO.N,/CAN_TX*%
G36*
X134955222Y-81514744D02*
G01*
X134960470Y-81519992D01*
X135147392Y-81894771D01*
X135148018Y-81903704D01*
X135147387Y-81905225D01*
X135053234Y-82093532D01*
X135046469Y-82099400D01*
X135042769Y-82100000D01*
X134857231Y-82100000D01*
X134848958Y-82096573D01*
X134846766Y-82093532D01*
X134752612Y-81905225D01*
X134751977Y-81896293D01*
X134752602Y-81894782D01*
X134939530Y-81519991D01*
X134946289Y-81514118D01*
X134955222Y-81514744D01*
G37*
%TD.AperFunction*%
%TD*%
%TA.AperFunction,Conductor*%
%TO.N,/IMU2_SCL*%
G36*
X130705222Y-81514744D02*
G01*
X130710470Y-81519992D01*
X130897392Y-81894771D01*
X130898018Y-81903704D01*
X130897387Y-81905225D01*
X130803234Y-82093532D01*
X130796469Y-82099400D01*
X130792769Y-82100000D01*
X130607231Y-82100000D01*
X130598958Y-82096573D01*
X130596766Y-82093532D01*
X130502612Y-81905225D01*
X130501977Y-81896293D01*
X130502602Y-81894782D01*
X130689530Y-81519991D01*
X130696289Y-81514118D01*
X130705222Y-81514744D01*
G37*
%TD.AperFunction*%
%TD*%
%TA.AperFunction,Conductor*%
%TO.N,/IMU1_INT1*%
G36*
X131895209Y-66198063D02*
G01*
X131902671Y-66203014D01*
X131902704Y-66203064D01*
X132059210Y-66438231D01*
X132060941Y-66447017D01*
X132055952Y-66454453D01*
X132054529Y-66455263D01*
X131652398Y-66648111D01*
X131647339Y-66649261D01*
X131465827Y-66649261D01*
X131457554Y-66645834D01*
X131454127Y-66637561D01*
X131454641Y-66634130D01*
X131602674Y-66151543D01*
X131608376Y-66144641D01*
X131616102Y-66143494D01*
X131895209Y-66198063D01*
G37*
%TD.AperFunction*%
%TD*%
%TA.AperFunction,Conductor*%
%TO.N,/STATUS_LED2*%
G36*
X118181442Y-85710710D02*
G01*
X118190518Y-85714608D01*
X118492916Y-85844458D01*
X118499166Y-85850871D01*
X118500000Y-85855209D01*
X118500000Y-86039790D01*
X118496573Y-86048063D01*
X118492916Y-86050541D01*
X118181443Y-86184288D01*
X118172489Y-86184403D01*
X118167346Y-86180392D01*
X118003953Y-85954353D01*
X118001885Y-85945642D01*
X118003954Y-85940646D01*
X118167347Y-85714606D01*
X118174969Y-85709911D01*
X118181442Y-85710710D01*
G37*
%TD.AperFunction*%
%TD*%
%TA.AperFunction,Conductor*%
%TO.N,/IMU2_INT2*%
G36*
X121957949Y-94912576D02*
G01*
X122268713Y-95057953D01*
X122454373Y-95144806D01*
X122460414Y-95151416D01*
X122460013Y-95160362D01*
X122459164Y-95161872D01*
X122302015Y-95398734D01*
X122298734Y-95402015D01*
X122061872Y-95559164D01*
X122053084Y-95560883D01*
X122045655Y-95555883D01*
X122044806Y-95554373D01*
X121971997Y-95398734D01*
X121812576Y-95057951D01*
X121812176Y-95049007D01*
X121814900Y-95044724D01*
X121944723Y-94914901D01*
X121952995Y-94911475D01*
X121957949Y-94912576D01*
G37*
%TD.AperFunction*%
%TD*%
%TA.AperFunction,Conductor*%
%TO.N,/USB_D-*%
G36*
X139175473Y-79403427D02*
G01*
X139178000Y-79407200D01*
X139336510Y-79787625D01*
X139336529Y-79796580D01*
X139336152Y-79797403D01*
X139060442Y-80342842D01*
X139053651Y-80348680D01*
X139044722Y-80348006D01*
X139039558Y-80342842D01*
X138763847Y-79797403D01*
X138763173Y-79788474D01*
X138763483Y-79787639D01*
X138922000Y-79407199D01*
X138928345Y-79400881D01*
X138932800Y-79400000D01*
X139167200Y-79400000D01*
X139175473Y-79403427D01*
G37*
%TD.AperFunction*%
%TD*%
%TA.AperFunction,Conductor*%
%TO.N,/IMU2_INT1*%
G36*
X122010157Y-93607709D02*
G01*
X122011289Y-93610442D01*
X122143525Y-94095892D01*
X122143649Y-94101542D01*
X122102059Y-94285875D01*
X122096895Y-94293191D01*
X122090646Y-94295000D01*
X121909354Y-94295000D01*
X121901081Y-94291573D01*
X121897941Y-94285875D01*
X121856350Y-94101542D01*
X121856474Y-94095892D01*
X121988711Y-93610442D01*
X121994192Y-93603360D01*
X122003075Y-93602228D01*
X122010157Y-93607709D01*
G37*
%TD.AperFunction*%
%TD*%
%TA.AperFunction,Conductor*%
%TO.N,/IMU1_SCL*%
G36*
X139148622Y-66789236D02*
G01*
X139395033Y-67095093D01*
X139397555Y-67103685D01*
X139394968Y-67109853D01*
X139145667Y-67413793D01*
X139137771Y-67418016D01*
X139130751Y-67416494D01*
X139126094Y-67413793D01*
X139013133Y-67348272D01*
X138763330Y-67203381D01*
X138757893Y-67196266D01*
X138757500Y-67193260D01*
X138757500Y-67006811D01*
X138760927Y-66998538D01*
X138763419Y-66996639D01*
X139133736Y-66786400D01*
X139142621Y-66785297D01*
X139148622Y-66789236D01*
G37*
%TD.AperFunction*%
%TD*%
%TA.AperFunction,Conductor*%
%TO.N,/IMU2_SCL*%
G36*
X122647099Y-93560687D02*
G01*
X122651164Y-93568416D01*
X122699439Y-94041085D01*
X122699500Y-94042274D01*
X122699500Y-94092210D01*
X122710000Y-94145003D01*
X122710164Y-94146096D01*
X122713098Y-94174824D01*
X122710530Y-94183403D01*
X122709732Y-94184286D01*
X122582890Y-94311128D01*
X122574617Y-94314555D01*
X122566344Y-94311128D01*
X122564558Y-94308830D01*
X122469127Y-94148062D01*
X122467507Y-94141444D01*
X122498727Y-93579475D01*
X122502607Y-93571406D01*
X122509456Y-93568464D01*
X122638577Y-93557944D01*
X122647099Y-93560687D01*
G37*
%TD.AperFunction*%
%TD*%
%TA.AperFunction,Conductor*%
%TO.N,/USBD+*%
G36*
X143322276Y-83600681D02*
G01*
X143745576Y-83727418D01*
X143783565Y-83738792D01*
X143790507Y-83744447D01*
X143791417Y-83753356D01*
X143785762Y-83760298D01*
X143783565Y-83761208D01*
X143322281Y-83899317D01*
X143317633Y-83899737D01*
X143105408Y-83876156D01*
X143097564Y-83871837D01*
X143095000Y-83864528D01*
X143095000Y-83635471D01*
X143098427Y-83627198D01*
X143105406Y-83623843D01*
X143317637Y-83600262D01*
X143322276Y-83600681D01*
G37*
%TD.AperFunction*%
%TD*%
%TA.AperFunction,Conductor*%
%TO.N,+3V3*%
G36*
X136717183Y-88018907D02*
G01*
X136728996Y-88028996D01*
X136871004Y-88171004D01*
X136898781Y-88225521D01*
X136900000Y-88241008D01*
X136900000Y-91100000D01*
X137300000Y-91500000D01*
X139758992Y-91500000D01*
X139817183Y-91518907D01*
X139828996Y-91528996D01*
X139971004Y-91671004D01*
X139998781Y-91725521D01*
X140000000Y-91741008D01*
X140000000Y-94100000D01*
X140043068Y-94143069D01*
X140064527Y-94175184D01*
X140065483Y-94177493D01*
X140126373Y-94268620D01*
X140126376Y-94268624D01*
X140126379Y-94268626D01*
X140217503Y-94329514D01*
X140219811Y-94330470D01*
X140251930Y-94351931D01*
X140699999Y-94799999D01*
X140700000Y-94800000D01*
X142100151Y-94800000D01*
X142107779Y-94800500D01*
X142110438Y-94800500D01*
X142692221Y-94800500D01*
X142699849Y-94800000D01*
X143899999Y-94800000D01*
X143900000Y-94800000D01*
X144200000Y-94500000D01*
X144200000Y-94259180D01*
X144216686Y-94204177D01*
X144222484Y-94195500D01*
X144234515Y-94177495D01*
X144250500Y-94097133D01*
X144250499Y-93190506D01*
X144252967Y-93182909D01*
X144251718Y-93175019D01*
X144262241Y-93154365D01*
X144269406Y-93132316D01*
X144279490Y-93120509D01*
X144371004Y-93028996D01*
X144425521Y-93001219D01*
X144441007Y-93000000D01*
X144658992Y-93000000D01*
X144717183Y-93018907D01*
X144728996Y-93028996D01*
X144820504Y-93120504D01*
X144848281Y-93175021D01*
X144849500Y-93190507D01*
X144849500Y-93878260D01*
X144859427Y-93946393D01*
X144872157Y-93972432D01*
X144872158Y-93972434D01*
X144880727Y-94033017D01*
X144852051Y-94087066D01*
X144821110Y-94107374D01*
X144817863Y-94108719D01*
X144686639Y-94184481D01*
X144579481Y-94291639D01*
X144503720Y-94422860D01*
X144503719Y-94422865D01*
X144464500Y-94569234D01*
X144464500Y-94720766D01*
X144487556Y-94806814D01*
X144503720Y-94867139D01*
X144579481Y-94998360D01*
X144579483Y-94998362D01*
X144579485Y-94998365D01*
X144686635Y-95105515D01*
X144686637Y-95105516D01*
X144686639Y-95105518D01*
X144817861Y-95181279D01*
X144817862Y-95181279D01*
X144817865Y-95181281D01*
X144926624Y-95210422D01*
X144977937Y-95243745D01*
X144999864Y-95300866D01*
X145000000Y-95306048D01*
X145000000Y-98258992D01*
X144981093Y-98317183D01*
X144971004Y-98328996D01*
X144828996Y-98471004D01*
X144774479Y-98498781D01*
X144758992Y-98500000D01*
X140041008Y-98500000D01*
X139982817Y-98481093D01*
X139971004Y-98471004D01*
X139828996Y-98328996D01*
X139801219Y-98274479D01*
X139800000Y-98258992D01*
X139800000Y-94866289D01*
X139803373Y-94840666D01*
X139807272Y-94826114D01*
X139835500Y-94720766D01*
X139835500Y-94569234D01*
X139796281Y-94422865D01*
X139796279Y-94422862D01*
X139796279Y-94422860D01*
X139720518Y-94291639D01*
X139720516Y-94291637D01*
X139720515Y-94291635D01*
X139613365Y-94184485D01*
X139613362Y-94184483D01*
X139613360Y-94184481D01*
X139482134Y-94108717D01*
X139478893Y-94107375D01*
X139476983Y-94105743D01*
X139476516Y-94105474D01*
X139476566Y-94105387D01*
X139432369Y-94067636D01*
X139418089Y-94008140D01*
X139427840Y-93972438D01*
X139440573Y-93946393D01*
X139450500Y-93878260D01*
X139450500Y-93111740D01*
X139440573Y-93043607D01*
X139440212Y-93042868D01*
X139410059Y-92981188D01*
X139400000Y-92937708D01*
X139400000Y-92900001D01*
X139400000Y-92900000D01*
X139300000Y-92800000D01*
X139299999Y-92800000D01*
X139178186Y-92800000D01*
X139163914Y-92798966D01*
X139141009Y-92795629D01*
X139133260Y-92794500D01*
X138766740Y-92794500D01*
X138736086Y-92798966D01*
X138721814Y-92800000D01*
X134641008Y-92800000D01*
X134633410Y-92797531D01*
X134625521Y-92798781D01*
X134604865Y-92788256D01*
X134582817Y-92781093D01*
X134571004Y-92771004D01*
X134528996Y-92728996D01*
X134501219Y-92674479D01*
X134500000Y-92658992D01*
X134500000Y-92041007D01*
X134518907Y-91982816D01*
X134528990Y-91971009D01*
X134700000Y-91800000D01*
X134700000Y-90400000D01*
X134400000Y-90100000D01*
X134399999Y-90100000D01*
X131341008Y-90100000D01*
X131333410Y-90097531D01*
X131325521Y-90098781D01*
X131304865Y-90088256D01*
X131282817Y-90081093D01*
X131271004Y-90071004D01*
X131228996Y-90028996D01*
X131201219Y-89974479D01*
X131200000Y-89958992D01*
X131200000Y-89341008D01*
X131218907Y-89282817D01*
X131228996Y-89271004D01*
X131271004Y-89228996D01*
X131325521Y-89201219D01*
X131341008Y-89200000D01*
X134599999Y-89200000D01*
X134600000Y-89200000D01*
X134800000Y-89000000D01*
X134800000Y-88241008D01*
X134818907Y-88182817D01*
X134828996Y-88171004D01*
X134971004Y-88028996D01*
X135025521Y-88001219D01*
X135041008Y-88000000D01*
X136658992Y-88000000D01*
X136717183Y-88018907D01*
G37*
%TD.AperFunction*%
%TD*%
%TA.AperFunction,Conductor*%
%TO.N,/IMU1_SDA*%
G36*
X140767760Y-66787488D02*
G01*
X141134152Y-66999122D01*
X141139602Y-67006227D01*
X141140000Y-67009253D01*
X141140000Y-67195746D01*
X141136573Y-67204019D01*
X141134152Y-67205877D01*
X140767762Y-67417510D01*
X140758884Y-67418681D01*
X140752831Y-67414759D01*
X140581523Y-67204019D01*
X140504998Y-67109879D01*
X140502440Y-67101299D01*
X140504999Y-67095120D01*
X140577259Y-67006227D01*
X140752833Y-66790238D01*
X140760709Y-66785982D01*
X140767760Y-66787488D01*
G37*
%TD.AperFunction*%
%TD*%
%TA.AperFunction,Conductor*%
%TO.N,/CAN-*%
G36*
X142474995Y-92848427D02*
G01*
X142477755Y-92852806D01*
X142543075Y-93037854D01*
X142543331Y-93044823D01*
X142411289Y-93529557D01*
X142405808Y-93536639D01*
X142396925Y-93537771D01*
X142389843Y-93532290D01*
X142388711Y-93529557D01*
X142375086Y-93479540D01*
X142256668Y-93044819D01*
X142256923Y-93037857D01*
X142322245Y-92852805D01*
X142328230Y-92846145D01*
X142333278Y-92845000D01*
X142466722Y-92845000D01*
X142474995Y-92848427D01*
G37*
%TD.AperFunction*%
%TD*%
%TA.AperFunction,Conductor*%
%TO.N,/USB_CC1*%
G36*
X142420280Y-85855233D02*
G01*
X142550768Y-85985721D01*
X142554195Y-85993994D01*
X142554175Y-85994681D01*
X142520809Y-86561737D01*
X142516902Y-86569795D01*
X142508442Y-86572730D01*
X142506556Y-86572464D01*
X142204590Y-86504401D01*
X142197273Y-86499239D01*
X142196785Y-86498390D01*
X142019922Y-86158654D01*
X142019141Y-86149733D01*
X142023224Y-86143933D01*
X142404933Y-85854186D01*
X142413595Y-85851914D01*
X142420280Y-85855233D01*
G37*
%TD.AperFunction*%
%TD*%
%TA.AperFunction,Conductor*%
%TO.N,/USBD+*%
G36*
X143322276Y-84600681D02*
G01*
X143745576Y-84727418D01*
X143783565Y-84738792D01*
X143790507Y-84744447D01*
X143791417Y-84753356D01*
X143785762Y-84760298D01*
X143783565Y-84761208D01*
X143322281Y-84899317D01*
X143317633Y-84899737D01*
X143105408Y-84876156D01*
X143097564Y-84871837D01*
X143095000Y-84864528D01*
X143095000Y-84635471D01*
X143098427Y-84627198D01*
X143105406Y-84623843D01*
X143317637Y-84600262D01*
X143322276Y-84600681D01*
G37*
%TD.AperFunction*%
%TD*%
%TA.AperFunction,Conductor*%
%TO.N,/I2S_SCL*%
G36*
X140067500Y-75771717D02*
G01*
X140778378Y-76046069D01*
X140784862Y-76052244D01*
X140785644Y-76059248D01*
X140692224Y-76533009D01*
X140687261Y-76540462D01*
X140683009Y-76542224D01*
X140246096Y-76628378D01*
X140218184Y-76633882D01*
X140209248Y-76635644D01*
X140200468Y-76633882D01*
X140196069Y-76628378D01*
X139921717Y-75917500D01*
X139921935Y-75908547D01*
X139924356Y-75905017D01*
X140055015Y-75774358D01*
X140063287Y-75770932D01*
X140067500Y-75771717D01*
G37*
%TD.AperFunction*%
%TD*%
%TA.AperFunction,Conductor*%
%TO.N,/CAN-*%
G36*
X139526989Y-89129336D02*
G01*
X139531777Y-89136903D01*
X139531949Y-89138900D01*
X139531949Y-89271853D01*
X139530371Y-89277721D01*
X139353199Y-89583303D01*
X139346085Y-89588742D01*
X139343630Y-89589122D01*
X138384234Y-89634515D01*
X138375808Y-89631483D01*
X138372169Y-89624919D01*
X138365667Y-89589122D01*
X138321618Y-89346602D01*
X138323512Y-89337853D01*
X138331036Y-89333003D01*
X139518252Y-89127372D01*
X139526989Y-89129336D01*
G37*
%TD.AperFunction*%
%TD*%
%TA.AperFunction,Conductor*%
%TO.N,/CAN+*%
G36*
X142974995Y-92848427D02*
G01*
X142977755Y-92852806D01*
X143043075Y-93037854D01*
X143043331Y-93044823D01*
X142911289Y-93529557D01*
X142905808Y-93536639D01*
X142896925Y-93537771D01*
X142889843Y-93532290D01*
X142888711Y-93529557D01*
X142875086Y-93479540D01*
X142756668Y-93044819D01*
X142756923Y-93037857D01*
X142822245Y-92852805D01*
X142828230Y-92846145D01*
X142833278Y-92845000D01*
X142966722Y-92845000D01*
X142974995Y-92848427D01*
G37*
%TD.AperFunction*%
%TD*%
%TA.AperFunction,Conductor*%
%TO.N,/STATUS_LED1*%
G36*
X127305222Y-81514744D02*
G01*
X127310470Y-81519992D01*
X127497392Y-81894771D01*
X127498018Y-81903704D01*
X127497387Y-81905225D01*
X127403234Y-82093532D01*
X127396469Y-82099400D01*
X127392769Y-82100000D01*
X127207231Y-82100000D01*
X127198958Y-82096573D01*
X127196766Y-82093532D01*
X127102612Y-81905225D01*
X127101977Y-81896293D01*
X127102602Y-81894782D01*
X127289530Y-81519991D01*
X127296289Y-81514118D01*
X127305222Y-81514744D01*
G37*
%TD.AperFunction*%
%TD*%
%TA.AperFunction,Conductor*%
%TO.N,/USB_D-*%
G36*
X136404732Y-74301774D02*
G01*
X136592408Y-74372153D01*
X136598951Y-74378267D01*
X136600000Y-74383108D01*
X136600000Y-74616892D01*
X136596573Y-74625165D01*
X136592408Y-74627847D01*
X136404770Y-74698211D01*
X136395820Y-74697907D01*
X136395454Y-74697732D01*
X136019991Y-74510469D01*
X136014118Y-74503711D01*
X136014744Y-74494778D01*
X136019992Y-74489530D01*
X136395443Y-74302272D01*
X136404373Y-74301647D01*
X136404732Y-74301774D01*
G37*
%TD.AperFunction*%
%TD*%
%TA.AperFunction,Conductor*%
%TO.N,/I2S_WS*%
G36*
X140122874Y-73177574D02*
G01*
X140955671Y-73578434D01*
X140961640Y-73585110D01*
X140961139Y-73594050D01*
X140960338Y-73595457D01*
X140693405Y-73996651D01*
X140685969Y-74001641D01*
X140685927Y-74001649D01*
X140210137Y-74095468D01*
X140201358Y-74093706D01*
X140196632Y-74087232D01*
X140054766Y-73595457D01*
X139975889Y-73322029D01*
X139976889Y-73313132D01*
X139978854Y-73310519D01*
X140109530Y-73179843D01*
X140117802Y-73176417D01*
X140122874Y-73177574D01*
G37*
%TD.AperFunction*%
%TD*%
%TA.AperFunction,Conductor*%
%TO.N,/CAN-*%
G36*
X139845260Y-89127581D02*
G01*
X140436991Y-89237967D01*
X140444495Y-89242853D01*
X140446446Y-89250990D01*
X140401794Y-89591441D01*
X140397320Y-89599199D01*
X140395572Y-89600310D01*
X140090464Y-89758282D01*
X140081542Y-89759043D01*
X140074695Y-89753271D01*
X140074657Y-89753196D01*
X139832696Y-89277500D01*
X139831424Y-89272196D01*
X139831424Y-89139084D01*
X139834851Y-89130811D01*
X139843124Y-89127384D01*
X139845260Y-89127581D01*
G37*
%TD.AperFunction*%
%TD*%
%TA.AperFunction,Conductor*%
%TO.N,/CAN-*%
G36*
X141498919Y-92848427D02*
G01*
X141502059Y-92854125D01*
X141543649Y-93038457D01*
X141543525Y-93044107D01*
X141411289Y-93529557D01*
X141405808Y-93536639D01*
X141396925Y-93537771D01*
X141389843Y-93532290D01*
X141388711Y-93529557D01*
X141256474Y-93044107D01*
X141256350Y-93038457D01*
X141297941Y-92854125D01*
X141303105Y-92846809D01*
X141309354Y-92845000D01*
X141490646Y-92845000D01*
X141498919Y-92848427D01*
G37*
%TD.AperFunction*%
%TD*%
%TA.AperFunction,Conductor*%
%TO.N,/CAN-*%
G36*
X140631026Y-89258575D02*
G01*
X140955562Y-89470442D01*
X140957439Y-89471966D01*
X141053532Y-89568059D01*
X141056959Y-89576332D01*
X141053532Y-89584605D01*
X141052697Y-89585364D01*
X140696448Y-89878750D01*
X140687883Y-89881364D01*
X140680761Y-89878016D01*
X140405993Y-89604868D01*
X140402542Y-89596605D01*
X140404393Y-89590254D01*
X140614862Y-89262104D01*
X140622212Y-89256993D01*
X140631026Y-89258575D01*
G37*
%TD.AperFunction*%
%TD*%
%TA.AperFunction,Conductor*%
%TO.N,/EN*%
G36*
X123151042Y-66903427D02*
G01*
X123153234Y-66906468D01*
X123247387Y-67094774D01*
X123248022Y-67103706D01*
X123247392Y-67105228D01*
X123060470Y-67480007D01*
X123053711Y-67485881D01*
X123044778Y-67485255D01*
X123039530Y-67480007D01*
X122852607Y-67105228D01*
X122851981Y-67096295D01*
X122852607Y-67094785D01*
X122946766Y-66906468D01*
X122953531Y-66900600D01*
X122957231Y-66900000D01*
X123142769Y-66900000D01*
X123151042Y-66903427D01*
G37*
%TD.AperFunction*%
%TD*%
%TA.AperFunction,Conductor*%
%TO.N,+3V3*%
G36*
X124517183Y-89218907D02*
G01*
X124528996Y-89228996D01*
X124571004Y-89271004D01*
X124598781Y-89325521D01*
X124600000Y-89341008D01*
X124600000Y-89958992D01*
X124597531Y-89966589D01*
X124598781Y-89974479D01*
X124588256Y-89995134D01*
X124581093Y-90017183D01*
X124571004Y-90028996D01*
X124528996Y-90071004D01*
X124474479Y-90098781D01*
X124458992Y-90100000D01*
X123500000Y-90100000D01*
X123300000Y-90300000D01*
X123300000Y-90300001D01*
X123300000Y-90958992D01*
X123281093Y-91017183D01*
X123271004Y-91028996D01*
X123128996Y-91171004D01*
X123074479Y-91198781D01*
X123058992Y-91200000D01*
X122641008Y-91200000D01*
X122582817Y-91181093D01*
X122571004Y-91171004D01*
X122428996Y-91028996D01*
X122401219Y-90974479D01*
X122400000Y-90958992D01*
X122400000Y-89441008D01*
X122418907Y-89382817D01*
X122428996Y-89371004D01*
X122571004Y-89228996D01*
X122625521Y-89201219D01*
X122641008Y-89200000D01*
X124458992Y-89200000D01*
X124517183Y-89218907D01*
G37*
%TD.AperFunction*%
%TD*%
%TA.AperFunction,Conductor*%
%TO.N,/IMU1_SDA*%
G36*
X141437622Y-66810828D02*
G01*
X141443691Y-66817413D01*
X141444176Y-66819126D01*
X141500530Y-67097680D01*
X141500530Y-67102320D01*
X141444154Y-67380983D01*
X141439154Y-67388412D01*
X141430366Y-67390131D01*
X141428743Y-67389679D01*
X140913521Y-67205276D01*
X140906887Y-67199261D01*
X140905764Y-67194260D01*
X140905764Y-67010667D01*
X140909191Y-67002394D01*
X140913429Y-66999684D01*
X141428677Y-66810463D01*
X141437622Y-66810828D01*
G37*
%TD.AperFunction*%
%TD*%
%TA.AperFunction,Conductor*%
%TO.N,/PWR_RDY*%
G36*
X117353261Y-84272254D02*
G01*
X117733680Y-84469228D01*
X117739451Y-84476074D01*
X117740000Y-84479617D01*
X117740000Y-84666099D01*
X117736573Y-84674372D01*
X117734611Y-84675951D01*
X117382300Y-84901628D01*
X117373485Y-84903205D01*
X117367241Y-84899545D01*
X117168671Y-84675951D01*
X117105319Y-84604616D01*
X117102388Y-84596156D01*
X117104680Y-84589865D01*
X117338499Y-84275658D01*
X117346185Y-84271069D01*
X117353261Y-84272254D01*
G37*
%TD.AperFunction*%
%TD*%
%TA.AperFunction,Conductor*%
%TO.N,/STATUS*%
G36*
X116932654Y-85714608D02*
G01*
X117096045Y-85940646D01*
X117098114Y-85949358D01*
X117096045Y-85954354D01*
X116932654Y-86180391D01*
X116925030Y-86185088D01*
X116918556Y-86184288D01*
X116607084Y-86050541D01*
X116600834Y-86044128D01*
X116600000Y-86039790D01*
X116600000Y-85855209D01*
X116603427Y-85846936D01*
X116607084Y-85844458D01*
X116918557Y-85710710D01*
X116927510Y-85710596D01*
X116932654Y-85714608D01*
G37*
%TD.AperFunction*%
%TD*%
%TA.AperFunction,Conductor*%
%TO.N,/IMU2_SCL*%
G36*
X122598919Y-92848427D02*
G01*
X122602059Y-92854125D01*
X122643649Y-93038457D01*
X122643525Y-93044107D01*
X122511289Y-93529557D01*
X122505808Y-93536639D01*
X122496925Y-93537771D01*
X122489843Y-93532290D01*
X122488711Y-93529557D01*
X122356474Y-93044107D01*
X122356350Y-93038457D01*
X122397941Y-92854125D01*
X122403105Y-92846809D01*
X122409354Y-92845000D01*
X122590646Y-92845000D01*
X122598919Y-92848427D01*
G37*
%TD.AperFunction*%
%TD*%
%TA.AperFunction,Conductor*%
%TO.N,/CAN+*%
G36*
X140696448Y-88121248D02*
G01*
X141052697Y-88414635D01*
X141056905Y-88422540D01*
X141054291Y-88431105D01*
X141053532Y-88431940D01*
X140957439Y-88528033D01*
X140955562Y-88529557D01*
X140631105Y-88741373D01*
X140622304Y-88743026D01*
X140614912Y-88737972D01*
X140614861Y-88737893D01*
X140404394Y-88409746D01*
X140402812Y-88400932D01*
X140405991Y-88395134D01*
X140680762Y-88121981D01*
X140689045Y-88118580D01*
X140696448Y-88121248D01*
G37*
%TD.AperFunction*%
%TD*%
%TA.AperFunction,Conductor*%
%TO.N,/CAN+*%
G36*
X141910299Y-93611416D02*
G01*
X141911697Y-93614583D01*
X142043295Y-94095065D01*
X142042979Y-94102231D01*
X142003418Y-94208718D01*
X142000723Y-94212916D01*
X141873893Y-94339746D01*
X141865620Y-94343173D01*
X141857347Y-94339746D01*
X141854685Y-94335633D01*
X141775741Y-94128007D01*
X141775263Y-94121288D01*
X141888998Y-93615108D01*
X141894155Y-93607788D01*
X141902978Y-93606259D01*
X141910299Y-93611416D01*
G37*
%TD.AperFunction*%
%TD*%
%TA.AperFunction,Conductor*%
%TO.N,/IMU2_SDA*%
G36*
X124264449Y-90446258D02*
G01*
X124668502Y-90646775D01*
X124674388Y-90653521D01*
X124675000Y-90657254D01*
X124675000Y-90842745D01*
X124671573Y-90851018D01*
X124668501Y-90853225D01*
X124264452Y-91053740D01*
X124255518Y-91054348D01*
X124250309Y-91050805D01*
X124083598Y-90853225D01*
X124002865Y-90757544D01*
X124000150Y-90749012D01*
X124002866Y-90742455D01*
X124074756Y-90657254D01*
X124250310Y-90449193D01*
X124258263Y-90445081D01*
X124264449Y-90446258D01*
G37*
%TD.AperFunction*%
%TD*%
%TA.AperFunction,Conductor*%
%TO.N,/IMU2_SDA*%
G36*
X123080589Y-92827083D02*
G01*
X123082890Y-92828871D01*
X123209733Y-92955714D01*
X123213160Y-92963987D01*
X123213099Y-92965176D01*
X123210165Y-92993899D01*
X123210001Y-92994992D01*
X123199500Y-93047788D01*
X123199500Y-93097734D01*
X123199439Y-93098923D01*
X123151164Y-93571582D01*
X123146915Y-93579464D01*
X123138575Y-93582054D01*
X123009459Y-93571535D01*
X123001491Y-93567448D01*
X122998727Y-93560523D01*
X122973017Y-93097734D01*
X122967507Y-92998554D01*
X122969127Y-92991938D01*
X123064558Y-92831170D01*
X123071726Y-92825807D01*
X123080589Y-92827083D01*
G37*
%TD.AperFunction*%
%TD*%
%TA.AperFunction,Conductor*%
%TO.N,/I2S_L{slash}R*%
G36*
X136405219Y-70052609D02*
G01*
X136593532Y-70146766D01*
X136599400Y-70153531D01*
X136600000Y-70157231D01*
X136600000Y-70342769D01*
X136596573Y-70351042D01*
X136593532Y-70353234D01*
X136405225Y-70447387D01*
X136396293Y-70448022D01*
X136394771Y-70447392D01*
X136019992Y-70260470D01*
X136014118Y-70253711D01*
X136014744Y-70244778D01*
X136019992Y-70239530D01*
X136394773Y-70052606D01*
X136403704Y-70051981D01*
X136405219Y-70052609D01*
G37*
%TD.AperFunction*%
%TD*%
%TA.AperFunction,Conductor*%
%TO.N,+3V3*%
G36*
X125239631Y-65609354D02*
G01*
X125243535Y-65615960D01*
X125300530Y-65897680D01*
X125300530Y-65902320D01*
X125243535Y-66184039D01*
X125238535Y-66191468D01*
X125231104Y-66193379D01*
X124716501Y-66150886D01*
X124708538Y-66146790D01*
X124705764Y-66139226D01*
X124705764Y-65660773D01*
X124709191Y-65652500D01*
X124716499Y-65649113D01*
X125231104Y-65606620D01*
X125239631Y-65609354D01*
G37*
%TD.AperFunction*%
%TD*%
%TA.AperFunction,Conductor*%
%TO.N,+3V3*%
G36*
X131364807Y-79410001D02*
G01*
X131758734Y-79743833D01*
X131762830Y-79751796D01*
X131760919Y-79759227D01*
X131602015Y-79998734D01*
X131598734Y-80002015D01*
X131359227Y-80160919D01*
X131350439Y-80162638D01*
X131343833Y-80158734D01*
X131010001Y-79764807D01*
X131007267Y-79756280D01*
X131010653Y-79748971D01*
X131348971Y-79410653D01*
X131357243Y-79407227D01*
X131364807Y-79410001D01*
G37*
%TD.AperFunction*%
%TD*%
%TA.AperFunction,Conductor*%
%TO.N,/I2S_WS*%
G36*
X136405219Y-70902609D02*
G01*
X136593532Y-70996766D01*
X136599400Y-71003531D01*
X136600000Y-71007231D01*
X136600000Y-71192769D01*
X136596573Y-71201042D01*
X136593532Y-71203234D01*
X136405225Y-71297387D01*
X136396293Y-71298022D01*
X136394771Y-71297392D01*
X136019992Y-71110470D01*
X136014118Y-71103711D01*
X136014744Y-71094778D01*
X136019992Y-71089530D01*
X136394773Y-70902606D01*
X136403704Y-70901981D01*
X136405219Y-70902609D01*
G37*
%TD.AperFunction*%
%TD*%
%TA.AperFunction,Conductor*%
%TO.N,/USBD+*%
G36*
X140952905Y-82656184D02*
G01*
X140958237Y-82663054D01*
X141137036Y-83286556D01*
X141136022Y-83295453D01*
X141134989Y-83297009D01*
X140887437Y-83612116D01*
X140879632Y-83616505D01*
X140871009Y-83614088D01*
X140869964Y-83613161D01*
X140705116Y-83448313D01*
X140701869Y-83442086D01*
X140676106Y-83297009D01*
X140650753Y-83154241D01*
X140652177Y-83146283D01*
X140936896Y-82660362D01*
X140944034Y-82654958D01*
X140952905Y-82656184D01*
G37*
%TD.AperFunction*%
%TD*%
%TA.AperFunction,Conductor*%
%TO.N,/USBD-*%
G36*
X144534593Y-84123843D02*
G01*
X144542436Y-84128162D01*
X144545000Y-84135471D01*
X144545000Y-84364528D01*
X144541573Y-84372801D01*
X144534592Y-84376156D01*
X144322366Y-84399737D01*
X144317719Y-84399317D01*
X143856433Y-84261207D01*
X143849492Y-84255553D01*
X143848582Y-84246644D01*
X143854237Y-84239702D01*
X143856432Y-84238792D01*
X144317723Y-84100681D01*
X144322361Y-84100262D01*
X144534593Y-84123843D01*
G37*
%TD.AperFunction*%
%TD*%
%TA.AperFunction,Conductor*%
%TO.N,/I2S_SD*%
G36*
X136405219Y-69202609D02*
G01*
X136593532Y-69296766D01*
X136599400Y-69303531D01*
X136600000Y-69307231D01*
X136600000Y-69492769D01*
X136596573Y-69501042D01*
X136593532Y-69503234D01*
X136405225Y-69597387D01*
X136396293Y-69598022D01*
X136394771Y-69597392D01*
X136019992Y-69410470D01*
X136014118Y-69403711D01*
X136014744Y-69394778D01*
X136019992Y-69389530D01*
X136394773Y-69202606D01*
X136403704Y-69201981D01*
X136405219Y-69202609D01*
G37*
%TD.AperFunction*%
%TD*%
%TA.AperFunction,Conductor*%
%TO.N,/IMU2_INT2*%
G36*
X124598919Y-92848427D02*
G01*
X124602059Y-92854125D01*
X124643649Y-93038457D01*
X124643525Y-93044107D01*
X124511289Y-93529557D01*
X124505808Y-93536639D01*
X124496925Y-93537771D01*
X124489843Y-93532290D01*
X124488711Y-93529557D01*
X124356474Y-93044107D01*
X124356350Y-93038457D01*
X124397941Y-92854125D01*
X124403105Y-92846809D01*
X124409354Y-92845000D01*
X124590646Y-92845000D01*
X124598919Y-92848427D01*
G37*
%TD.AperFunction*%
%TD*%
%TA.AperFunction,Conductor*%
%TO.N,/IMU2_INT1*%
G36*
X125010157Y-93607709D02*
G01*
X125011289Y-93610442D01*
X125143525Y-94095892D01*
X125143649Y-94101542D01*
X125102059Y-94285875D01*
X125096895Y-94293191D01*
X125090646Y-94295000D01*
X124909354Y-94295000D01*
X124901081Y-94291573D01*
X124897941Y-94285875D01*
X124856350Y-94101542D01*
X124856474Y-94095892D01*
X124988711Y-93610442D01*
X124994192Y-93603360D01*
X125003075Y-93602228D01*
X125010157Y-93607709D01*
G37*
%TD.AperFunction*%
%TD*%
%TA.AperFunction,Conductor*%
%TO.N,+3V3*%
G36*
X124917183Y-81118907D02*
G01*
X124928996Y-81128996D01*
X124971004Y-81171004D01*
X124998781Y-81225521D01*
X125000000Y-81241008D01*
X125000000Y-83532241D01*
X124999500Y-83534108D01*
X124999500Y-83665892D01*
X125000000Y-83667758D01*
X125000000Y-85058992D01*
X124981093Y-85117183D01*
X124971004Y-85128996D01*
X124628996Y-85471004D01*
X124574479Y-85498781D01*
X124558992Y-85500000D01*
X119441008Y-85500000D01*
X119382817Y-85481093D01*
X119371004Y-85471004D01*
X119228996Y-85328996D01*
X119201219Y-85274479D01*
X119200000Y-85258992D01*
X119200000Y-84200001D01*
X119200000Y-84200000D01*
X118900000Y-83900000D01*
X118899999Y-83900000D01*
X117941008Y-83900000D01*
X117882817Y-83881093D01*
X117871004Y-83871004D01*
X117728996Y-83728996D01*
X117701219Y-83674479D01*
X117700000Y-83658992D01*
X117700000Y-83241008D01*
X117718907Y-83182817D01*
X117728996Y-83171004D01*
X117871004Y-83028996D01*
X117925521Y-83001219D01*
X117941008Y-83000000D01*
X120358992Y-83000000D01*
X120417183Y-83018907D01*
X120428996Y-83028996D01*
X120571004Y-83171004D01*
X120598781Y-83225521D01*
X120600000Y-83241008D01*
X120600000Y-84200000D01*
X121000000Y-84600000D01*
X123999999Y-84600000D01*
X124000000Y-84600000D01*
X124200000Y-84400000D01*
X124200000Y-82441007D01*
X124218907Y-82382816D01*
X124228990Y-82371009D01*
X124400000Y-82200000D01*
X124400000Y-81241008D01*
X124402468Y-81233410D01*
X124401219Y-81225521D01*
X124411743Y-81204865D01*
X124418907Y-81182817D01*
X124428996Y-81171004D01*
X124471004Y-81128996D01*
X124525521Y-81101219D01*
X124541008Y-81100000D01*
X124858992Y-81100000D01*
X124917183Y-81118907D01*
G37*
%TD.AperFunction*%
%TD*%
%TA.AperFunction,Conductor*%
%TO.N,/IMU2_INT2*%
G36*
X132405222Y-81514744D02*
G01*
X132410470Y-81519992D01*
X132597392Y-81894771D01*
X132598018Y-81903704D01*
X132597387Y-81905225D01*
X132503234Y-82093532D01*
X132496469Y-82099400D01*
X132492769Y-82100000D01*
X132307231Y-82100000D01*
X132298958Y-82096573D01*
X132296766Y-82093532D01*
X132202612Y-81905225D01*
X132201977Y-81896293D01*
X132202602Y-81894782D01*
X132389530Y-81519991D01*
X132396289Y-81514118D01*
X132405222Y-81514744D01*
G37*
%TD.AperFunction*%
%TD*%
%TA.AperFunction,Conductor*%
%TO.N,/USB_CC2*%
G36*
X143294107Y-82606474D02*
G01*
X143779557Y-82738711D01*
X143786639Y-82744192D01*
X143787771Y-82753075D01*
X143782290Y-82760157D01*
X143779557Y-82761289D01*
X143294107Y-82893525D01*
X143288457Y-82893649D01*
X143104125Y-82852058D01*
X143096809Y-82846894D01*
X143095000Y-82840645D01*
X143095000Y-82659354D01*
X143098427Y-82651081D01*
X143104124Y-82647941D01*
X143288457Y-82606350D01*
X143294107Y-82606474D01*
G37*
%TD.AperFunction*%
%TD*%
%TA.AperFunction,Conductor*%
%TO.N,/IMU1_INT2*%
G36*
X130691580Y-66145484D02*
G01*
X130696521Y-66152895D01*
X130797199Y-66655976D01*
X130795462Y-66664761D01*
X130788022Y-66669745D01*
X130785726Y-66669972D01*
X130603247Y-66669972D01*
X130597217Y-66668298D01*
X130243824Y-66455753D01*
X130238500Y-66448553D01*
X130239828Y-66439697D01*
X130240103Y-66439261D01*
X130397295Y-66203063D01*
X130404731Y-66198075D01*
X130404727Y-66198075D01*
X130682803Y-66143708D01*
X130691580Y-66145484D01*
G37*
%TD.AperFunction*%
%TD*%
%TA.AperFunction,Conductor*%
%TO.N,/STATUS_LED3*%
G36*
X117106852Y-86851453D02*
G01*
X117332891Y-87014846D01*
X117337588Y-87022469D01*
X117336788Y-87028943D01*
X117203042Y-87340416D01*
X117196629Y-87346666D01*
X117192291Y-87347500D01*
X117007709Y-87347500D01*
X116999436Y-87344073D01*
X116996958Y-87340416D01*
X116863211Y-87028943D01*
X116863096Y-87019989D01*
X116867105Y-87014848D01*
X117093146Y-86851453D01*
X117101858Y-86849385D01*
X117106852Y-86851453D01*
G37*
%TD.AperFunction*%
%TD*%
%TA.AperFunction,Conductor*%
%TO.N,/STATUS_LED3*%
G36*
X128155222Y-81514744D02*
G01*
X128160470Y-81519992D01*
X128347392Y-81894771D01*
X128348018Y-81903704D01*
X128347387Y-81905225D01*
X128253234Y-82093532D01*
X128246469Y-82099400D01*
X128242769Y-82100000D01*
X128057231Y-82100000D01*
X128048958Y-82096573D01*
X128046766Y-82093532D01*
X127952612Y-81905225D01*
X127951977Y-81896293D01*
X127952602Y-81894782D01*
X128139530Y-81519991D01*
X128146289Y-81514118D01*
X128155222Y-81514744D01*
G37*
%TD.AperFunction*%
%TD*%
%TA.AperFunction,Conductor*%
%TO.N,/CAN+*%
G36*
X140090388Y-88241677D02*
G01*
X140395574Y-88399690D01*
X140401344Y-88406536D01*
X140401794Y-88408558D01*
X140446446Y-88749009D01*
X140444124Y-88757657D01*
X140436991Y-88762032D01*
X139845270Y-88872417D01*
X139836508Y-88870565D01*
X139831622Y-88863061D01*
X139831424Y-88860915D01*
X139831424Y-88727803D01*
X139832696Y-88722499D01*
X139992381Y-88408558D01*
X140074658Y-88246800D01*
X140081462Y-88240981D01*
X140090388Y-88241677D01*
G37*
%TD.AperFunction*%
%TD*%
%TA.AperFunction,Conductor*%
%TO.N,+3V3*%
G36*
X143017183Y-67918907D02*
G01*
X143028996Y-67928996D01*
X143971004Y-68871004D01*
X143998781Y-68925521D01*
X144000000Y-68941008D01*
X144000000Y-70000000D01*
X144971005Y-70971005D01*
X144998781Y-71025520D01*
X145000000Y-71041007D01*
X145000000Y-72800000D01*
X145400000Y-73200000D01*
X149450500Y-73200000D01*
X149508691Y-73218907D01*
X149544655Y-73268407D01*
X149549500Y-73299000D01*
X149549500Y-74701000D01*
X149530593Y-74759191D01*
X149481093Y-74795155D01*
X149450500Y-74800000D01*
X144531231Y-74800000D01*
X144473040Y-74781093D01*
X144460958Y-74770733D01*
X144391761Y-74701000D01*
X143200000Y-73500000D01*
X143199994Y-73499994D01*
X143028996Y-73328995D01*
X143001219Y-73274479D01*
X143000000Y-73258992D01*
X143000000Y-71300001D01*
X143000000Y-71300000D01*
X141200000Y-69500000D01*
X141199999Y-69500000D01*
X139441008Y-69500000D01*
X139382817Y-69481093D01*
X139371004Y-69471004D01*
X139128996Y-69228996D01*
X139101219Y-69174479D01*
X139100000Y-69158992D01*
X139100000Y-68041008D01*
X139102468Y-68033410D01*
X139101219Y-68025521D01*
X139111743Y-68004865D01*
X139118907Y-67982817D01*
X139128996Y-67971004D01*
X139171004Y-67928996D01*
X139225521Y-67901219D01*
X139241008Y-67900000D01*
X142958992Y-67900000D01*
X143017183Y-67918907D01*
G37*
%TD.AperFunction*%
%TD*%
%TA.AperFunction,Conductor*%
%TO.N,/CAN_RX*%
G36*
X133066446Y-90787544D02*
G01*
X133391953Y-90893878D01*
X133398753Y-90899705D01*
X133399442Y-90908633D01*
X133393615Y-90915433D01*
X133391953Y-90916122D01*
X132547061Y-91192123D01*
X132538362Y-91191547D01*
X132156634Y-91008186D01*
X132150660Y-91001515D01*
X132150000Y-90997640D01*
X132150000Y-90812359D01*
X132153427Y-90804086D01*
X132156632Y-90801814D01*
X132538362Y-90618451D01*
X132547060Y-90617876D01*
X133066446Y-90787544D01*
G37*
%TD.AperFunction*%
%TD*%
%TA.AperFunction,Conductor*%
%TO.N,/CAN_TX*%
G36*
X133385858Y-87082653D02*
G01*
X133392653Y-87088484D01*
X133393334Y-87097413D01*
X133387502Y-87104209D01*
X133384855Y-87105169D01*
X132476262Y-87315635D01*
X132467429Y-87314164D01*
X132466747Y-87313704D01*
X132178257Y-87104209D01*
X132132844Y-87071230D01*
X132128164Y-87063598D01*
X132130253Y-87054890D01*
X132131441Y-87053498D01*
X132261532Y-86923407D01*
X132265335Y-86920869D01*
X132538602Y-86808066D01*
X132546703Y-86807763D01*
X133385858Y-87082653D01*
G37*
%TD.AperFunction*%
%TD*%
%TA.AperFunction,Conductor*%
%TO.N,/USB_D+*%
G36*
X136404732Y-73451774D02*
G01*
X136592408Y-73522153D01*
X136598951Y-73528267D01*
X136600000Y-73533108D01*
X136600000Y-73766892D01*
X136596573Y-73775165D01*
X136592408Y-73777847D01*
X136404770Y-73848211D01*
X136395820Y-73847907D01*
X136395454Y-73847732D01*
X136019991Y-73660469D01*
X136014118Y-73653711D01*
X136014744Y-73644778D01*
X136019992Y-73639530D01*
X136395443Y-73452272D01*
X136404373Y-73451647D01*
X136404732Y-73451774D01*
G37*
%TD.AperFunction*%
%TD*%
%TA.AperFunction,Conductor*%
%TO.N,/USB_CC1*%
G36*
X143294107Y-85606474D02*
G01*
X143779557Y-85738711D01*
X143786639Y-85744192D01*
X143787771Y-85753075D01*
X143782290Y-85760157D01*
X143779557Y-85761289D01*
X143294107Y-85893525D01*
X143288457Y-85893649D01*
X143104125Y-85852058D01*
X143096809Y-85846894D01*
X143095000Y-85840645D01*
X143095000Y-85659354D01*
X143098427Y-85651081D01*
X143104124Y-85647941D01*
X143288457Y-85606350D01*
X143294107Y-85606474D01*
G37*
%TD.AperFunction*%
%TD*%
%TA.AperFunction,Conductor*%
%TO.N,/CAN_RX*%
G36*
X134105222Y-81514744D02*
G01*
X134110470Y-81519992D01*
X134297392Y-81894771D01*
X134298018Y-81903704D01*
X134297387Y-81905225D01*
X134203234Y-82093532D01*
X134196469Y-82099400D01*
X134192769Y-82100000D01*
X134007231Y-82100000D01*
X133998958Y-82096573D01*
X133996766Y-82093532D01*
X133902612Y-81905225D01*
X133901977Y-81896293D01*
X133902602Y-81894782D01*
X134089530Y-81519991D01*
X134096289Y-81514118D01*
X134105222Y-81514744D01*
G37*
%TD.AperFunction*%
%TD*%
%TA.AperFunction,Conductor*%
%TO.N,/IMU1_INT2*%
G36*
X130801042Y-66903427D02*
G01*
X130803234Y-66906468D01*
X130897387Y-67094774D01*
X130898022Y-67103706D01*
X130897392Y-67105228D01*
X130710470Y-67480007D01*
X130703711Y-67485881D01*
X130694778Y-67485255D01*
X130689530Y-67480007D01*
X130502607Y-67105228D01*
X130501981Y-67096295D01*
X130502607Y-67094785D01*
X130596766Y-66906468D01*
X130603531Y-66900600D01*
X130607231Y-66900000D01*
X130792769Y-66900000D01*
X130801042Y-66903427D01*
G37*
%TD.AperFunction*%
%TD*%
%TA.AperFunction,Conductor*%
%TO.N,/IMU1_SCL*%
G36*
X133351042Y-66903427D02*
G01*
X133353234Y-66906468D01*
X133447387Y-67094774D01*
X133448022Y-67103706D01*
X133447392Y-67105228D01*
X133260470Y-67480007D01*
X133253711Y-67485881D01*
X133244778Y-67485255D01*
X133239530Y-67480007D01*
X133052607Y-67105228D01*
X133051981Y-67096295D01*
X133052607Y-67094785D01*
X133146766Y-66906468D01*
X133153531Y-66900600D01*
X133157231Y-66900000D01*
X133342769Y-66900000D01*
X133351042Y-66903427D01*
G37*
%TD.AperFunction*%
%TD*%
%TA.AperFunction,Conductor*%
%TO.N,/IMU1_SDA*%
G36*
X132501042Y-66903427D02*
G01*
X132503234Y-66906468D01*
X132597387Y-67094774D01*
X132598022Y-67103706D01*
X132597392Y-67105228D01*
X132410470Y-67480007D01*
X132403711Y-67485881D01*
X132394778Y-67485255D01*
X132389530Y-67480007D01*
X132202607Y-67105228D01*
X132201981Y-67096295D01*
X132202607Y-67094785D01*
X132296766Y-66906468D01*
X132303531Y-66900600D01*
X132307231Y-66900000D01*
X132492769Y-66900000D01*
X132501042Y-66903427D01*
G37*
%TD.AperFunction*%
%TD*%
%TA.AperFunction,Conductor*%
%TO.N,/IMU1_SCL*%
G36*
X138471307Y-66810435D02*
G01*
X138989054Y-66999691D01*
X138995647Y-67005750D01*
X138996736Y-67010680D01*
X138996736Y-67194247D01*
X138993309Y-67202520D01*
X138988962Y-67205269D01*
X138471243Y-67389705D01*
X138462300Y-67389253D01*
X138456295Y-67382609D01*
X138455852Y-67381013D01*
X138399469Y-67102318D01*
X138399469Y-67097680D01*
X138417070Y-67010680D01*
X138455828Y-66819104D01*
X138460827Y-66811677D01*
X138469615Y-66809958D01*
X138471307Y-66810435D01*
G37*
%TD.AperFunction*%
%TD*%
%TA.AperFunction,Conductor*%
%TO.N,/USBD-*%
G36*
X139062293Y-82662439D02*
G01*
X139062386Y-82662619D01*
X139336637Y-83203568D01*
X139337581Y-83211582D01*
X139280577Y-83449820D01*
X139277471Y-83455370D01*
X139112576Y-83620265D01*
X139104303Y-83623692D01*
X139096030Y-83620265D01*
X139094940Y-83619008D01*
X138851763Y-83294461D01*
X138849544Y-83285785D01*
X138849942Y-83284007D01*
X139040769Y-82664465D01*
X139046480Y-82657568D01*
X139055395Y-82656728D01*
X139062293Y-82662439D01*
G37*
%TD.AperFunction*%
%TD*%
%TA.AperFunction,Conductor*%
%TO.N,/I2S_SCL*%
G36*
X136405219Y-71752609D02*
G01*
X136593532Y-71846766D01*
X136599400Y-71853531D01*
X136600000Y-71857231D01*
X136600000Y-72042769D01*
X136596573Y-72051042D01*
X136593532Y-72053234D01*
X136405225Y-72147387D01*
X136396293Y-72148022D01*
X136394771Y-72147392D01*
X136019992Y-71960470D01*
X136014118Y-71953711D01*
X136014744Y-71944778D01*
X136019992Y-71939530D01*
X136394773Y-71752606D01*
X136403704Y-71751981D01*
X136405219Y-71752609D01*
G37*
%TD.AperFunction*%
%TD*%
%TA.AperFunction,Conductor*%
%TO.N,+3V3*%
G36*
X124964990Y-65648540D02*
G01*
X124972680Y-65653124D01*
X124975000Y-65660117D01*
X124975000Y-66139882D01*
X124971573Y-66148155D01*
X124964988Y-66151460D01*
X124502587Y-66218893D01*
X124493906Y-66216695D01*
X124490957Y-66213482D01*
X124300325Y-65906167D01*
X124298876Y-65897331D01*
X124300325Y-65893833D01*
X124490957Y-65586517D01*
X124498230Y-65581293D01*
X124502584Y-65581106D01*
X124964990Y-65648540D01*
G37*
%TD.AperFunction*%
%TD*%
%TA.AperFunction,Conductor*%
%TO.N,/IMU2_INT1*%
G36*
X133255222Y-81514744D02*
G01*
X133260470Y-81519992D01*
X133447392Y-81894771D01*
X133448018Y-81903704D01*
X133447387Y-81905225D01*
X133353234Y-82093532D01*
X133346469Y-82099400D01*
X133342769Y-82100000D01*
X133157231Y-82100000D01*
X133148958Y-82096573D01*
X133146766Y-82093532D01*
X133052612Y-81905225D01*
X133051977Y-81896293D01*
X133052602Y-81894782D01*
X133239530Y-81519991D01*
X133246289Y-81514118D01*
X133255222Y-81514744D01*
G37*
%TD.AperFunction*%
%TD*%
%TA.AperFunction,Conductor*%
%TO.N,/CAN-*%
G36*
X142498919Y-92848427D02*
G01*
X142502059Y-92854125D01*
X142543649Y-93038457D01*
X142543525Y-93044107D01*
X142411289Y-93529557D01*
X142405808Y-93536639D01*
X142396925Y-93537771D01*
X142389843Y-93532290D01*
X142388711Y-93529557D01*
X142256474Y-93044107D01*
X142256350Y-93038457D01*
X142297941Y-92854125D01*
X142303105Y-92846809D01*
X142309354Y-92845000D01*
X142490646Y-92845000D01*
X142498919Y-92848427D01*
G37*
%TD.AperFunction*%
%TD*%
%TA.AperFunction,Conductor*%
%TO.N,/STATUS_LED2*%
G36*
X126455222Y-81514744D02*
G01*
X126460470Y-81519992D01*
X126647392Y-81894771D01*
X126648018Y-81903704D01*
X126647387Y-81905225D01*
X126553234Y-82093532D01*
X126546469Y-82099400D01*
X126542769Y-82100000D01*
X126357231Y-82100000D01*
X126348958Y-82096573D01*
X126346766Y-82093532D01*
X126252612Y-81905225D01*
X126251977Y-81896293D01*
X126252602Y-81894782D01*
X126439530Y-81519991D01*
X126446289Y-81514118D01*
X126455222Y-81514744D01*
G37*
%TD.AperFunction*%
%TD*%
%TA.AperFunction,Conductor*%
%TO.N,/USB_D+*%
G36*
X141075473Y-79403427D02*
G01*
X141078000Y-79407200D01*
X141236510Y-79787625D01*
X141236529Y-79796580D01*
X141236152Y-79797403D01*
X140960442Y-80342842D01*
X140953651Y-80348680D01*
X140944722Y-80348006D01*
X140939558Y-80342842D01*
X140663847Y-79797403D01*
X140663173Y-79788474D01*
X140663483Y-79787639D01*
X140822000Y-79407199D01*
X140828345Y-79400881D01*
X140832800Y-79400000D01*
X141067200Y-79400000D01*
X141075473Y-79403427D01*
G37*
%TD.AperFunction*%
%TD*%
%TA.AperFunction,Conductor*%
%TO.N,/IMU2_INT1*%
G36*
X125098919Y-92848427D02*
G01*
X125102059Y-92854125D01*
X125143649Y-93038457D01*
X125143525Y-93044107D01*
X125011289Y-93529557D01*
X125005808Y-93536639D01*
X124996925Y-93537771D01*
X124989843Y-93532290D01*
X124988711Y-93529557D01*
X124856474Y-93044107D01*
X124856350Y-93038457D01*
X124897941Y-92854125D01*
X124903105Y-92846809D01*
X124909354Y-92845000D01*
X125090646Y-92845000D01*
X125098919Y-92848427D01*
G37*
%TD.AperFunction*%
%TD*%
%TA.AperFunction,Conductor*%
%TO.N,/IMU1_SCL*%
G36*
X139423779Y-66386700D02*
G01*
X139425453Y-66388813D01*
X139694393Y-66823070D01*
X139695835Y-66831908D01*
X139692320Y-66837884D01*
X139408277Y-67096318D01*
X139399851Y-67099351D01*
X139392873Y-67096619D01*
X139099611Y-66850020D01*
X139095484Y-66842073D01*
X139096951Y-66835316D01*
X139275474Y-66519063D01*
X139277383Y-66516550D01*
X139407234Y-66386699D01*
X139415506Y-66383273D01*
X139423779Y-66386700D01*
G37*
%TD.AperFunction*%
%TD*%
%TA.AperFunction,Conductor*%
%TO.N,/I2S_L{slash}R*%
G36*
X140417687Y-71052426D02*
G01*
X140686630Y-71453484D01*
X140688392Y-71462263D01*
X140686630Y-71466516D01*
X140417687Y-71867573D01*
X140410233Y-71872536D01*
X140403230Y-71871754D01*
X139706567Y-71563083D01*
X139700392Y-71556599D01*
X139699607Y-71552386D01*
X139699607Y-71367613D01*
X139703034Y-71359340D01*
X139706566Y-71356916D01*
X140403232Y-71048244D01*
X140412183Y-71048027D01*
X140417687Y-71052426D01*
G37*
%TD.AperFunction*%
%TD*%
%TA.AperFunction,Conductor*%
%TO.N,/IMU1_SDA*%
G36*
X140601018Y-66428427D02*
G01*
X140603225Y-66431499D01*
X140803740Y-66835547D01*
X140804348Y-66844481D01*
X140800805Y-66849690D01*
X140507545Y-67097133D01*
X140499012Y-67099849D01*
X140492455Y-67097133D01*
X140199194Y-66849690D01*
X140195081Y-66841736D01*
X140196258Y-66835551D01*
X140396775Y-66431499D01*
X140403522Y-66425612D01*
X140407255Y-66425000D01*
X140592745Y-66425000D01*
X140601018Y-66428427D01*
G37*
%TD.AperFunction*%
%TD*%
%TA.AperFunction,Conductor*%
%TO.N,/CAN+*%
G36*
X139343631Y-88410876D02*
G01*
X139351732Y-88414690D01*
X139353197Y-88416692D01*
X139495553Y-88662225D01*
X139530371Y-88722278D01*
X139531949Y-88728146D01*
X139531949Y-88861099D01*
X139528522Y-88869372D01*
X139520249Y-88872799D01*
X139518252Y-88872627D01*
X138331133Y-88667013D01*
X138323566Y-88662225D01*
X138321602Y-88653488D01*
X138321603Y-88653481D01*
X138372169Y-88375079D01*
X138377020Y-88367553D01*
X138384233Y-88365484D01*
X139343631Y-88410876D01*
G37*
%TD.AperFunction*%
%TD*%
%TA.AperFunction,Conductor*%
%TO.N,/STATUS_LED1*%
G36*
X118181442Y-86610710D02*
G01*
X118190518Y-86614608D01*
X118492916Y-86744458D01*
X118499166Y-86750871D01*
X118500000Y-86755209D01*
X118500000Y-86939790D01*
X118496573Y-86948063D01*
X118492916Y-86950541D01*
X118181443Y-87084288D01*
X118172489Y-87084403D01*
X118167346Y-87080392D01*
X118003953Y-86854353D01*
X118001885Y-86845642D01*
X118003954Y-86840646D01*
X118167347Y-86614606D01*
X118174969Y-86609911D01*
X118181442Y-86610710D01*
G37*
%TD.AperFunction*%
%TD*%
%TA.AperFunction,Conductor*%
%TO.N,+VBUS*%
G36*
X149508691Y-77718907D02*
G01*
X149544655Y-77768407D01*
X149549500Y-77799000D01*
X149549500Y-79301000D01*
X149530593Y-79359191D01*
X149481093Y-79395155D01*
X149450500Y-79400000D01*
X147700000Y-79400000D01*
X147500000Y-79600000D01*
X147500000Y-79600001D01*
X147500000Y-79973057D01*
X147498098Y-79992371D01*
X147474500Y-80111004D01*
X147474500Y-80248995D01*
X147498098Y-80367627D01*
X147500000Y-80386941D01*
X147500000Y-86658992D01*
X147481093Y-86717183D01*
X147471004Y-86728996D01*
X147328996Y-86871004D01*
X147274479Y-86898781D01*
X147258992Y-86900000D01*
X145223823Y-86900000D01*
X145174324Y-86886737D01*
X145117135Y-86853719D01*
X144970766Y-86814500D01*
X144819234Y-86814500D01*
X144729652Y-86838503D01*
X144672860Y-86853720D01*
X144541639Y-86929481D01*
X144541634Y-86929485D01*
X144434487Y-87036631D01*
X144401549Y-87093680D01*
X144385818Y-87114180D01*
X144328998Y-87171002D01*
X144274482Y-87198781D01*
X144258993Y-87200000D01*
X144138740Y-87200000D01*
X144131583Y-87199741D01*
X144128261Y-87199500D01*
X144128260Y-87199500D01*
X143440508Y-87199500D01*
X143432910Y-87197031D01*
X143425021Y-87198281D01*
X143404365Y-87187756D01*
X143382317Y-87180593D01*
X143370504Y-87170504D01*
X143328996Y-87128996D01*
X143301219Y-87074479D01*
X143300000Y-87058992D01*
X143300000Y-86741006D01*
X143318907Y-86682815D01*
X143328984Y-86671015D01*
X143370507Y-86629492D01*
X143425020Y-86601718D01*
X143440496Y-86600499D01*
X144347132Y-86600499D01*
X144427495Y-86584515D01*
X144518624Y-86523624D01*
X144518624Y-86523623D01*
X144526731Y-86518207D01*
X144528685Y-86521131D01*
X144567768Y-86501219D01*
X144583255Y-86500000D01*
X144699999Y-86500000D01*
X144700000Y-86500000D01*
X145100000Y-86100000D01*
X145100000Y-85179860D01*
X145103373Y-85154237D01*
X145125500Y-85071658D01*
X145125500Y-84985952D01*
X145125500Y-84357147D01*
X145108273Y-84292853D01*
X145108273Y-84292852D01*
X145108273Y-84292851D01*
X145103374Y-84274568D01*
X145100000Y-84248944D01*
X145100000Y-83100000D01*
X144601930Y-82601930D01*
X144580469Y-82569809D01*
X144579515Y-82567509D01*
X144579515Y-82567505D01*
X144518624Y-82476376D01*
X144427495Y-82415485D01*
X144412502Y-82412502D01*
X144400000Y-82400000D01*
X144349647Y-82400000D01*
X144347133Y-82399500D01*
X144344480Y-82399500D01*
X143440508Y-82399500D01*
X143382317Y-82380593D01*
X143370504Y-82370504D01*
X143328996Y-82328996D01*
X143301219Y-82274479D01*
X143300000Y-82258992D01*
X143300000Y-81941008D01*
X143302468Y-81933410D01*
X143301219Y-81925521D01*
X143311743Y-81904865D01*
X143318907Y-81882817D01*
X143328996Y-81871004D01*
X143370504Y-81829496D01*
X143425021Y-81801719D01*
X143440508Y-81800500D01*
X144128258Y-81800500D01*
X144128260Y-81800500D01*
X144128261Y-81800499D01*
X144131583Y-81800259D01*
X144138740Y-81800000D01*
X144283008Y-81800000D01*
X144341199Y-81818907D01*
X144368744Y-81849500D01*
X144434481Y-81963360D01*
X144434483Y-81963362D01*
X144434485Y-81963365D01*
X144541635Y-82070515D01*
X144541637Y-82070516D01*
X144541639Y-82070518D01*
X144672861Y-82146279D01*
X144672859Y-82146279D01*
X144672863Y-82146280D01*
X144672865Y-82146281D01*
X144819234Y-82185500D01*
X144819236Y-82185500D01*
X144970764Y-82185500D01*
X144970766Y-82185500D01*
X145117135Y-82146281D01*
X145117137Y-82146279D01*
X145117139Y-82146279D01*
X145248360Y-82070518D01*
X145248360Y-82070517D01*
X145248365Y-82070515D01*
X145355515Y-81963365D01*
X145431281Y-81832135D01*
X145447627Y-81771126D01*
X145473247Y-81726752D01*
X145700000Y-81500000D01*
X145700000Y-79400000D01*
X145500000Y-79200000D01*
X145499999Y-79200000D01*
X143441008Y-79200000D01*
X143382817Y-79181093D01*
X143371004Y-79171004D01*
X143228996Y-79028996D01*
X143201219Y-78974479D01*
X143200000Y-78958992D01*
X143200000Y-77941008D01*
X143218907Y-77882817D01*
X143228996Y-77871004D01*
X143371004Y-77728996D01*
X143425521Y-77701219D01*
X143441008Y-77700000D01*
X149450500Y-77700000D01*
X149508691Y-77718907D01*
G37*
%TD.AperFunction*%
%TD*%
%TA.AperFunction,Conductor*%
%TO.N,/CAN+*%
G36*
X142909751Y-93611880D02*
G01*
X142911001Y-93615109D01*
X143024735Y-94121286D01*
X143024256Y-94128009D01*
X142945315Y-94335631D01*
X142939172Y-94342146D01*
X142930221Y-94342409D01*
X142926106Y-94339746D01*
X142799276Y-94212916D01*
X142796581Y-94208718D01*
X142765375Y-94124720D01*
X142757019Y-94102229D01*
X142756704Y-94095067D01*
X142888303Y-93614581D01*
X142893792Y-93607509D01*
X142902677Y-93606390D01*
X142909751Y-93611880D01*
G37*
%TD.AperFunction*%
%TD*%
%TA.AperFunction,Conductor*%
%TO.N,/IMU2_SDA*%
G36*
X123970198Y-92829215D02*
G01*
X123972164Y-92831827D01*
X124060586Y-92991766D01*
X124061980Y-92998673D01*
X124001774Y-93560741D01*
X123997486Y-93568602D01*
X123990696Y-93571182D01*
X123861735Y-93577310D01*
X123853309Y-93574280D01*
X123849493Y-93566179D01*
X123823445Y-92964783D01*
X123826511Y-92956372D01*
X123826839Y-92956028D01*
X123953653Y-92829214D01*
X123961925Y-92825788D01*
X123970198Y-92829215D01*
G37*
%TD.AperFunction*%
%TD*%
%TA.AperFunction,Conductor*%
%TO.N,/PWR_RDY*%
G36*
X117822943Y-84259840D02*
G01*
X118094085Y-84564725D01*
X118097022Y-84573184D01*
X118094085Y-84580275D01*
X117822943Y-84885159D01*
X117814884Y-84889064D01*
X117808055Y-84887340D01*
X117465555Y-84675928D01*
X117460314Y-84668666D01*
X117460000Y-84665972D01*
X117460000Y-84479027D01*
X117463427Y-84470754D01*
X117465555Y-84469071D01*
X117808057Y-84257658D01*
X117816894Y-84256229D01*
X117822943Y-84259840D01*
G37*
%TD.AperFunction*%
%TD*%
%TA.AperFunction,Conductor*%
%TO.N,/IMU2_INT2*%
G36*
X121510157Y-93607709D02*
G01*
X121511289Y-93610442D01*
X121643525Y-94095892D01*
X121643649Y-94101542D01*
X121602059Y-94285875D01*
X121596895Y-94293191D01*
X121590646Y-94295000D01*
X121409354Y-94295000D01*
X121401081Y-94291573D01*
X121397941Y-94285875D01*
X121356350Y-94101542D01*
X121356474Y-94095892D01*
X121488711Y-93610442D01*
X121494192Y-93603360D01*
X121503075Y-93602228D01*
X121510157Y-93607709D01*
G37*
%TD.AperFunction*%
%TD*%
%TA.AperFunction,Conductor*%
%TO.N,/USBD+*%
G36*
X143322276Y-84600681D02*
G01*
X143745576Y-84727418D01*
X143783565Y-84738792D01*
X143790507Y-84744447D01*
X143791417Y-84753356D01*
X143785762Y-84760298D01*
X143783565Y-84761208D01*
X143322281Y-84899317D01*
X143317633Y-84899737D01*
X143105408Y-84876156D01*
X143097564Y-84871837D01*
X143095000Y-84864528D01*
X143095000Y-84635471D01*
X143098427Y-84627198D01*
X143105406Y-84623843D01*
X143317637Y-84600262D01*
X143322276Y-84600681D01*
G37*
%TD.AperFunction*%
%TD*%
%TA.AperFunction,Conductor*%
%TO.N,/I2S_SD*%
G36*
X147687500Y-75771717D02*
G01*
X148398378Y-76046069D01*
X148404862Y-76052244D01*
X148405644Y-76059248D01*
X148312224Y-76533009D01*
X148307261Y-76540462D01*
X148303009Y-76542224D01*
X147866096Y-76628378D01*
X147838184Y-76633882D01*
X147829248Y-76635644D01*
X147820468Y-76633882D01*
X147816069Y-76628378D01*
X147541717Y-75917500D01*
X147541935Y-75908547D01*
X147544356Y-75905017D01*
X147675015Y-75774358D01*
X147683287Y-75770932D01*
X147687500Y-75771717D01*
G37*
%TD.AperFunction*%
%TD*%
%TA.AperFunction,Conductor*%
%TO.N,/IMU2_SDA*%
G36*
X124098919Y-92848427D02*
G01*
X124102059Y-92854125D01*
X124143649Y-93038457D01*
X124143525Y-93044107D01*
X124011289Y-93529557D01*
X124005808Y-93536639D01*
X123996925Y-93537771D01*
X123989843Y-93532290D01*
X123988711Y-93529557D01*
X123856474Y-93044107D01*
X123856350Y-93038457D01*
X123897941Y-92854125D01*
X123903105Y-92846809D01*
X123909354Y-92845000D01*
X124090646Y-92845000D01*
X124098919Y-92848427D01*
G37*
%TD.AperFunction*%
%TD*%
%TA.AperFunction,Conductor*%
%TO.N,/IMU2_INT2*%
G36*
X124831527Y-91839678D02*
G01*
X124945317Y-91953468D01*
X124948744Y-91961741D01*
X124945317Y-91970014D01*
X124937044Y-91973441D01*
X124936517Y-91973429D01*
X124646155Y-91960346D01*
X124638045Y-91956550D01*
X124634994Y-91948131D01*
X124638790Y-91940021D01*
X124640879Y-91938499D01*
X124817459Y-91837787D01*
X124826342Y-91836666D01*
X124831527Y-91839678D01*
G37*
%TD.AperFunction*%
%TD*%
%TA.AperFunction,Conductor*%
%TO.N,/BOOT_SEL*%
G36*
X125698508Y-83026370D02*
G01*
X125701746Y-83032551D01*
X125792184Y-83530187D01*
X125790292Y-83538940D01*
X125782993Y-83543747D01*
X125504789Y-83600030D01*
X125496001Y-83598311D01*
X125495942Y-83598272D01*
X125259835Y-83439564D01*
X125254881Y-83432105D01*
X125256363Y-83423779D01*
X125496582Y-83028565D01*
X125503807Y-83023276D01*
X125506580Y-83022943D01*
X125690235Y-83022943D01*
X125698508Y-83026370D01*
G37*
%TD.AperFunction*%
%TD*%
%TA.AperFunction,Conductor*%
%TO.N,/IMU2_SDA*%
G36*
X131555243Y-81516361D02*
G01*
X131560718Y-81522123D01*
X131660362Y-81749347D01*
X131723452Y-81893214D01*
X131724109Y-81894711D01*
X131724293Y-81903664D01*
X131723642Y-81905056D01*
X131592867Y-82142430D01*
X131585873Y-82148022D01*
X131576973Y-82147032D01*
X131574346Y-82145057D01*
X131444343Y-82015054D01*
X131443566Y-82014196D01*
X131354809Y-81905869D01*
X131352216Y-81897298D01*
X131353396Y-81893218D01*
X131539543Y-81521580D01*
X131546311Y-81515720D01*
X131555243Y-81516361D01*
G37*
%TD.AperFunction*%
%TD*%
%TA.AperFunction,Conductor*%
%TO.N,/IMU2_SCL*%
G36*
X123490541Y-93568464D02*
G01*
X123498508Y-93572551D01*
X123501272Y-93579476D01*
X123532493Y-94141442D01*
X123530872Y-94148063D01*
X123435443Y-94308827D01*
X123428273Y-94314192D01*
X123419410Y-94312916D01*
X123417109Y-94311128D01*
X123290266Y-94184285D01*
X123286839Y-94176012D01*
X123286898Y-94174842D01*
X123289837Y-94146073D01*
X123289992Y-94145036D01*
X123300500Y-94092211D01*
X123300499Y-94042248D01*
X123300559Y-94041096D01*
X123348835Y-93568415D01*
X123353084Y-93560535D01*
X123361422Y-93557945D01*
X123490541Y-93568464D01*
G37*
%TD.AperFunction*%
%TD*%
%TA.AperFunction,Conductor*%
%TO.N,/STATUS*%
G36*
X116007545Y-84602866D02*
G01*
X116300805Y-84850309D01*
X116304918Y-84858263D01*
X116303740Y-84864452D01*
X116103225Y-85268501D01*
X116096478Y-85274388D01*
X116092745Y-85275000D01*
X115907255Y-85275000D01*
X115898982Y-85271573D01*
X115896775Y-85268501D01*
X115852608Y-85179503D01*
X115696258Y-84864450D01*
X115695651Y-84855518D01*
X115699192Y-84850311D01*
X115992455Y-84602865D01*
X116000988Y-84600150D01*
X116007545Y-84602866D01*
G37*
%TD.AperFunction*%
%TD*%
%TA.AperFunction,Conductor*%
%TO.N,/EN*%
G36*
X123109323Y-65905473D02*
G01*
X123345299Y-66129338D01*
X123393114Y-66174699D01*
X123396758Y-66182879D01*
X123394651Y-66189889D01*
X123154782Y-66533158D01*
X123153493Y-66535002D01*
X123145946Y-66539820D01*
X123143903Y-66540000D01*
X122957522Y-66540000D01*
X122949249Y-66536573D01*
X122946878Y-66533158D01*
X122858350Y-66339175D01*
X122766670Y-66138286D01*
X122766354Y-66129338D01*
X122770750Y-66123747D01*
X123094712Y-65904275D01*
X123103482Y-65902472D01*
X123109323Y-65905473D01*
G37*
%TD.AperFunction*%
%TD*%
%TA.AperFunction,Conductor*%
%TO.N,/USBD-*%
G36*
X144534593Y-85123843D02*
G01*
X144542436Y-85128162D01*
X144545000Y-85135471D01*
X144545000Y-85364528D01*
X144541573Y-85372801D01*
X144534592Y-85376156D01*
X144322366Y-85399737D01*
X144317719Y-85399317D01*
X143856433Y-85261207D01*
X143849492Y-85255553D01*
X143848582Y-85246644D01*
X143854237Y-85239702D01*
X143856432Y-85238792D01*
X144317723Y-85100681D01*
X144322361Y-85100262D01*
X144534593Y-85123843D01*
G37*
%TD.AperFunction*%
%TD*%
%TA.AperFunction,Conductor*%
%TO.N,/USBD-*%
G36*
X143322276Y-85100681D02*
G01*
X143745576Y-85227418D01*
X143783565Y-85238792D01*
X143790507Y-85244447D01*
X143791417Y-85253356D01*
X143785762Y-85260298D01*
X143783565Y-85261208D01*
X143322281Y-85399317D01*
X143317633Y-85399737D01*
X143105408Y-85376156D01*
X143097564Y-85371837D01*
X143095000Y-85364528D01*
X143095000Y-85135471D01*
X143098427Y-85127198D01*
X143105406Y-85123843D01*
X143317637Y-85100262D01*
X143322276Y-85100681D01*
G37*
%TD.AperFunction*%
%TD*%
%TA.AperFunction,Conductor*%
%TO.N,/USB_CC2*%
G36*
X142575341Y-82194169D02*
G01*
X142809490Y-82647473D01*
X142810795Y-82652842D01*
X142810795Y-82835205D01*
X142807368Y-82843478D01*
X142799095Y-82846905D01*
X142796399Y-82846590D01*
X142208918Y-82707458D01*
X142201657Y-82702217D01*
X142200029Y-82694440D01*
X142248149Y-82353522D01*
X142252698Y-82345811D01*
X142254410Y-82344741D01*
X142559633Y-82189114D01*
X142568558Y-82188410D01*
X142575341Y-82194169D01*
G37*
%TD.AperFunction*%
%TD*%
%TA.AperFunction,Conductor*%
%TO.N,/BOOT_SEL*%
G36*
X125605222Y-81514744D02*
G01*
X125610470Y-81519992D01*
X125797392Y-81894771D01*
X125798018Y-81903704D01*
X125797387Y-81905225D01*
X125703234Y-82093532D01*
X125696469Y-82099400D01*
X125692769Y-82100000D01*
X125507231Y-82100000D01*
X125498958Y-82096573D01*
X125496766Y-82093532D01*
X125402612Y-81905225D01*
X125401977Y-81896293D01*
X125402602Y-81894782D01*
X125589530Y-81519991D01*
X125596289Y-81514118D01*
X125605222Y-81514744D01*
G37*
%TD.AperFunction*%
%TD*%
%TA.AperFunction,Conductor*%
%TO.N,/IMU1_INT1*%
G36*
X131651042Y-66903427D02*
G01*
X131653234Y-66906468D01*
X131747387Y-67094774D01*
X131748022Y-67103706D01*
X131747392Y-67105228D01*
X131560470Y-67480007D01*
X131553711Y-67485881D01*
X131544778Y-67485255D01*
X131539530Y-67480007D01*
X131352607Y-67105228D01*
X131351981Y-67096295D01*
X131352607Y-67094785D01*
X131446766Y-66906468D01*
X131453531Y-66900600D01*
X131457231Y-66900000D01*
X131642769Y-66900000D01*
X131651042Y-66903427D01*
G37*
%TD.AperFunction*%
%TD*%
%TA.AperFunction,Conductor*%
%TO.N,/IMU2_SDA*%
G36*
X124004905Y-90754965D02*
G01*
X124207582Y-90918244D01*
X124310744Y-91001353D01*
X124315037Y-91009212D01*
X124313562Y-91016269D01*
X124103369Y-91384105D01*
X124096289Y-91389588D01*
X124093211Y-91390000D01*
X123906717Y-91390000D01*
X123898444Y-91386573D01*
X123896613Y-91384199D01*
X123683547Y-91019263D01*
X123682335Y-91010391D01*
X123686228Y-91004321D01*
X123990148Y-90755030D01*
X123998716Y-90752434D01*
X124004905Y-90754965D01*
G37*
%TD.AperFunction*%
%TD*%
%TA.AperFunction,Conductor*%
%TO.N,GND*%
G36*
X122544851Y-65469407D02*
G01*
X122580815Y-65518907D01*
X122580815Y-65580093D01*
X122575601Y-65592980D01*
X122554709Y-65635714D01*
X122544500Y-65705788D01*
X122544500Y-66094209D01*
X122544501Y-66094215D01*
X122554708Y-66164282D01*
X122554710Y-66164289D01*
X122571127Y-66197871D01*
X122578539Y-66218613D01*
X122579715Y-66223597D01*
X122579717Y-66223604D01*
X122657110Y-66393186D01*
X122723486Y-66538630D01*
X122740564Y-66576050D01*
X122749500Y-66617153D01*
X122749500Y-66818115D01*
X122739048Y-66862389D01*
X122668800Y-67002882D01*
X122662780Y-67016071D01*
X122662774Y-67016086D01*
X122662148Y-67017596D01*
X122661052Y-67020293D01*
X122661052Y-67020294D01*
X122661051Y-67020297D01*
X122660022Y-67026898D01*
X122660023Y-67026899D01*
X122659703Y-67028956D01*
X122649500Y-67080252D01*
X122649500Y-67094497D01*
X122648322Y-67102065D01*
X122646984Y-67110657D01*
X122646984Y-67110661D01*
X122647610Y-67119596D01*
X122648103Y-67122500D01*
X122649500Y-67139071D01*
X122649500Y-67919746D01*
X122649501Y-67919758D01*
X122661132Y-67978227D01*
X122661134Y-67978233D01*
X122687042Y-68017006D01*
X122705448Y-68044552D01*
X122771769Y-68088867D01*
X122816231Y-68097711D01*
X122830241Y-68100498D01*
X122830246Y-68100498D01*
X122830252Y-68100500D01*
X122830253Y-68100500D01*
X123269744Y-68100500D01*
X123269748Y-68100500D01*
X123269751Y-68100499D01*
X123269988Y-68100476D01*
X123279689Y-68100000D01*
X123670311Y-68100000D01*
X123680012Y-68100476D01*
X123680248Y-68100499D01*
X123680252Y-68100500D01*
X123680256Y-68100500D01*
X124119747Y-68100500D01*
X124119748Y-68100500D01*
X124178231Y-68088867D01*
X124244552Y-68044552D01*
X124288867Y-67978231D01*
X124300500Y-67919748D01*
X124300500Y-67080252D01*
X124300476Y-67080009D01*
X124300000Y-67070310D01*
X124300000Y-66599000D01*
X124318907Y-66540809D01*
X124368407Y-66504845D01*
X124399000Y-66500000D01*
X125951000Y-66500000D01*
X126009191Y-66518907D01*
X126045155Y-66568407D01*
X126050000Y-66599000D01*
X126050000Y-67070310D01*
X126049524Y-67080009D01*
X126049500Y-67080252D01*
X126049500Y-67919746D01*
X126049501Y-67919758D01*
X126061132Y-67978227D01*
X126061134Y-67978233D01*
X126087042Y-68017006D01*
X126105448Y-68044552D01*
X126171769Y-68088867D01*
X126216231Y-68097711D01*
X126230241Y-68100498D01*
X126230246Y-68100498D01*
X126230252Y-68100500D01*
X126230253Y-68100500D01*
X126669744Y-68100500D01*
X126669748Y-68100500D01*
X126669751Y-68100499D01*
X126669988Y-68100476D01*
X126679689Y-68100000D01*
X127070311Y-68100000D01*
X127080012Y-68100476D01*
X127080248Y-68100499D01*
X127080252Y-68100500D01*
X127080256Y-68100500D01*
X127519744Y-68100500D01*
X127519748Y-68100500D01*
X127519751Y-68100499D01*
X127519988Y-68100476D01*
X127529689Y-68100000D01*
X127920311Y-68100000D01*
X127930012Y-68100476D01*
X127930248Y-68100499D01*
X127930252Y-68100500D01*
X127930256Y-68100500D01*
X128369744Y-68100500D01*
X128369748Y-68100500D01*
X128369751Y-68100499D01*
X128369988Y-68100476D01*
X128379689Y-68100000D01*
X128770311Y-68100000D01*
X128780012Y-68100476D01*
X128780248Y-68100499D01*
X128780252Y-68100500D01*
X128780256Y-68100500D01*
X129219744Y-68100500D01*
X129219748Y-68100500D01*
X129219751Y-68100499D01*
X129219988Y-68100476D01*
X129229689Y-68100000D01*
X129620311Y-68100000D01*
X129630012Y-68100476D01*
X129630248Y-68100499D01*
X129630252Y-68100500D01*
X129630256Y-68100500D01*
X130069744Y-68100500D01*
X130069748Y-68100500D01*
X130069751Y-68100499D01*
X130069988Y-68100476D01*
X130079689Y-68100000D01*
X130470311Y-68100000D01*
X130480012Y-68100476D01*
X130480248Y-68100499D01*
X130480252Y-68100500D01*
X130480256Y-68100500D01*
X130919744Y-68100500D01*
X130919748Y-68100500D01*
X130919751Y-68100499D01*
X130919988Y-68100476D01*
X130929689Y-68100000D01*
X131320311Y-68100000D01*
X131330012Y-68100476D01*
X131330248Y-68100499D01*
X131330252Y-68100500D01*
X131330256Y-68100500D01*
X131769744Y-68100500D01*
X131769748Y-68100500D01*
X131769751Y-68100499D01*
X131769988Y-68100476D01*
X131779689Y-68100000D01*
X132170311Y-68100000D01*
X132180012Y-68100476D01*
X132180248Y-68100499D01*
X132180252Y-68100500D01*
X132180256Y-68100500D01*
X132619744Y-68100500D01*
X132619748Y-68100500D01*
X132619751Y-68100499D01*
X132619988Y-68100476D01*
X132629689Y-68100000D01*
X133020311Y-68100000D01*
X133030012Y-68100476D01*
X133030248Y-68100499D01*
X133030252Y-68100500D01*
X133030256Y-68100500D01*
X133469744Y-68100500D01*
X133469748Y-68100500D01*
X133469751Y-68100499D01*
X133469988Y-68100476D01*
X133479689Y-68100000D01*
X133870311Y-68100000D01*
X133880012Y-68100476D01*
X133880248Y-68100499D01*
X133880252Y-68100500D01*
X133880256Y-68100500D01*
X134319744Y-68100500D01*
X134319748Y-68100500D01*
X134319751Y-68100499D01*
X134319988Y-68100476D01*
X134329689Y-68100000D01*
X134720311Y-68100000D01*
X134730012Y-68100476D01*
X134730248Y-68100499D01*
X134730252Y-68100500D01*
X134730256Y-68100500D01*
X135169747Y-68100500D01*
X135169748Y-68100500D01*
X135228231Y-68088867D01*
X135294552Y-68044552D01*
X135338867Y-67978231D01*
X135350500Y-67919748D01*
X135350500Y-67080252D01*
X135350499Y-67080250D01*
X135350499Y-67080244D01*
X135344655Y-67050868D01*
X135339130Y-67023092D01*
X135341194Y-67005645D01*
X135338446Y-66988290D01*
X135344701Y-66976014D01*
X135346320Y-66962333D01*
X135366221Y-66933778D01*
X135471004Y-66828996D01*
X135525521Y-66801219D01*
X135541007Y-66800000D01*
X136458992Y-66800000D01*
X136517183Y-66818907D01*
X136528996Y-66828996D01*
X136571004Y-66871004D01*
X136598781Y-66925521D01*
X136600000Y-66941008D01*
X136600000Y-68058992D01*
X136597531Y-68066589D01*
X136598781Y-68074479D01*
X136588256Y-68095134D01*
X136581093Y-68117183D01*
X136571004Y-68128996D01*
X136566224Y-68133776D01*
X136511707Y-68161553D01*
X136476909Y-68160870D01*
X136419748Y-68149500D01*
X135580252Y-68149500D01*
X135580251Y-68149500D01*
X135580241Y-68149501D01*
X135521772Y-68161132D01*
X135521766Y-68161134D01*
X135455451Y-68205445D01*
X135455445Y-68205451D01*
X135411134Y-68271766D01*
X135411132Y-68271772D01*
X135399501Y-68330241D01*
X135399500Y-68330253D01*
X135399500Y-68769744D01*
X135399523Y-68769978D01*
X135400000Y-68779687D01*
X135400000Y-69170310D01*
X135399524Y-69180009D01*
X135399500Y-69180252D01*
X135399500Y-69619744D01*
X135399523Y-69619978D01*
X135400000Y-69629687D01*
X135400000Y-70020310D01*
X135399524Y-70030009D01*
X135399500Y-70030252D01*
X135399500Y-70469744D01*
X135399523Y-70469978D01*
X135400000Y-70479687D01*
X135400000Y-70870310D01*
X135399524Y-70880009D01*
X135399500Y-70880252D01*
X135399500Y-71319744D01*
X135399523Y-71319978D01*
X135400000Y-71329687D01*
X135400000Y-71720310D01*
X135399524Y-71730009D01*
X135399500Y-71730252D01*
X135399500Y-72169744D01*
X135399523Y-72169978D01*
X135400000Y-72179687D01*
X135400000Y-72570310D01*
X135399524Y-72580009D01*
X135399500Y-72580252D01*
X135399500Y-73019744D01*
X135399523Y-73019978D01*
X135400000Y-73029687D01*
X135400000Y-73420310D01*
X135399524Y-73430009D01*
X135399500Y-73430252D01*
X135399500Y-73869744D01*
X135399523Y-73869978D01*
X135400000Y-73879687D01*
X135400000Y-74270310D01*
X135399524Y-74280009D01*
X135399500Y-74280252D01*
X135399500Y-74719744D01*
X135399523Y-74719978D01*
X135400000Y-74729687D01*
X135400000Y-75120310D01*
X135399524Y-75130009D01*
X135399500Y-75130252D01*
X135399500Y-75569744D01*
X135399523Y-75569978D01*
X135400000Y-75579687D01*
X135400000Y-75970310D01*
X135399524Y-75980009D01*
X135399500Y-75980252D01*
X135399500Y-76419744D01*
X135399523Y-76419978D01*
X135400000Y-76429687D01*
X135400000Y-76820310D01*
X135399524Y-76830009D01*
X135399500Y-76830252D01*
X135399500Y-77269744D01*
X135399523Y-77269978D01*
X135400000Y-77279687D01*
X135400000Y-77670310D01*
X135399524Y-77680009D01*
X135399500Y-77680252D01*
X135399500Y-78119744D01*
X135399523Y-78119978D01*
X135400000Y-78129687D01*
X135400000Y-78520310D01*
X135399524Y-78530009D01*
X135399500Y-78530252D01*
X135399500Y-78969744D01*
X135399523Y-78969978D01*
X135400000Y-78979687D01*
X135400000Y-79370310D01*
X135399524Y-79380009D01*
X135399500Y-79380252D01*
X135399500Y-79819744D01*
X135399523Y-79819978D01*
X135400000Y-79829687D01*
X135400000Y-80220310D01*
X135399524Y-80230009D01*
X135399500Y-80230252D01*
X135399500Y-80669746D01*
X135399501Y-80669758D01*
X135411132Y-80728227D01*
X135411134Y-80728233D01*
X135444128Y-80777611D01*
X135455448Y-80794552D01*
X135521769Y-80838867D01*
X135566231Y-80847711D01*
X135580241Y-80850498D01*
X135580246Y-80850498D01*
X135580252Y-80850500D01*
X135580253Y-80850500D01*
X136419744Y-80850500D01*
X136419748Y-80850500D01*
X136419751Y-80850499D01*
X136419988Y-80850476D01*
X136429689Y-80850000D01*
X138455391Y-80850000D01*
X138513582Y-80868907D01*
X138549546Y-80918407D01*
X138553355Y-80934718D01*
X138557115Y-80960524D01*
X138559427Y-80976395D01*
X138607006Y-81073719D01*
X138610802Y-81081483D01*
X138693517Y-81164198D01*
X138731910Y-81182967D01*
X138798604Y-81215572D01*
X138798605Y-81215572D01*
X138798607Y-81215573D01*
X138866740Y-81225500D01*
X138866743Y-81225500D01*
X139233257Y-81225500D01*
X139233260Y-81225500D01*
X139301393Y-81215573D01*
X139406483Y-81164198D01*
X139454998Y-81115682D01*
X139509513Y-81087907D01*
X139569945Y-81097478D01*
X139595000Y-81115681D01*
X139643517Y-81164198D01*
X139681910Y-81182967D01*
X139748604Y-81215572D01*
X139748605Y-81215572D01*
X139748607Y-81215573D01*
X139816740Y-81225500D01*
X139816743Y-81225500D01*
X140183257Y-81225500D01*
X140183260Y-81225500D01*
X140251393Y-81215573D01*
X140356483Y-81164198D01*
X140404998Y-81115682D01*
X140459513Y-81087907D01*
X140519945Y-81097478D01*
X140545000Y-81115681D01*
X140593517Y-81164198D01*
X140631910Y-81182967D01*
X140698604Y-81215572D01*
X140698605Y-81215572D01*
X140698607Y-81215573D01*
X140766740Y-81225500D01*
X140766743Y-81225500D01*
X141133257Y-81225500D01*
X141133260Y-81225500D01*
X141201393Y-81215573D01*
X141306483Y-81164198D01*
X141389198Y-81081483D01*
X141440573Y-80976393D01*
X141450500Y-80908260D01*
X141450500Y-79816740D01*
X141440573Y-79748607D01*
X141435433Y-79738094D01*
X141427315Y-79714123D01*
X141426202Y-79708587D01*
X141283115Y-79365177D01*
X141275500Y-79327100D01*
X141275500Y-79014498D01*
X141264436Y-78973207D01*
X141264436Y-78973206D01*
X141253319Y-78931715D01*
X141253318Y-78931714D01*
X141253318Y-78931712D01*
X141210465Y-78857489D01*
X141210464Y-78857488D01*
X140778996Y-78426019D01*
X140751219Y-78371503D01*
X140750000Y-78356016D01*
X140750000Y-77323536D01*
X140768907Y-77265345D01*
X140818407Y-77229381D01*
X140829682Y-77226438D01*
X140894328Y-77213580D01*
X141021811Y-77160775D01*
X141136542Y-77084114D01*
X141234114Y-76986542D01*
X141310775Y-76871811D01*
X141363580Y-76744328D01*
X141390500Y-76608993D01*
X141390500Y-76471007D01*
X141363580Y-76335672D01*
X141326637Y-76246483D01*
X141310777Y-76208193D01*
X141310771Y-76208182D01*
X141234114Y-76093458D01*
X141136541Y-75995885D01*
X141021817Y-75919228D01*
X141021806Y-75919222D01*
X140894330Y-75866420D01*
X140894323Y-75866418D01*
X140877778Y-75863127D01*
X140860562Y-75858043D01*
X140854223Y-75855526D01*
X140852368Y-75854351D01*
X140812878Y-75839110D01*
X140812467Y-75838947D01*
X140789263Y-75819713D01*
X140765874Y-75800703D01*
X140765726Y-75800203D01*
X140765360Y-75799900D01*
X140763567Y-75792888D01*
X140750000Y-75746934D01*
X140750000Y-74783536D01*
X140768907Y-74725345D01*
X140818407Y-74689381D01*
X140829682Y-74686438D01*
X140894328Y-74673580D01*
X141021811Y-74620775D01*
X141136542Y-74544114D01*
X141234114Y-74446542D01*
X141310775Y-74331811D01*
X141363580Y-74204328D01*
X141390500Y-74068993D01*
X141390500Y-73931007D01*
X141363580Y-73795672D01*
X141310775Y-73668189D01*
X141310774Y-73668187D01*
X141310771Y-73668182D01*
X141234114Y-73553458D01*
X141136541Y-73455885D01*
X141062762Y-73406587D01*
X141060467Y-73405053D01*
X141044799Y-73393268D01*
X141037751Y-73389875D01*
X141031973Y-73386014D01*
X141031967Y-73386011D01*
X141021811Y-73379225D01*
X140980007Y-73361909D01*
X140974956Y-73359649D01*
X140806062Y-73278353D01*
X140761830Y-73236078D01*
X140750000Y-73189149D01*
X140750000Y-72243536D01*
X140768907Y-72185345D01*
X140818407Y-72149381D01*
X140829682Y-72146438D01*
X140894328Y-72133580D01*
X141021811Y-72080775D01*
X141136542Y-72004114D01*
X141234114Y-71906542D01*
X141310775Y-71791811D01*
X141363580Y-71664328D01*
X141390500Y-71528993D01*
X141390500Y-71391007D01*
X141363580Y-71255672D01*
X141363576Y-71255662D01*
X141362169Y-71251022D01*
X141364455Y-71250328D01*
X141360343Y-71198562D01*
X141392274Y-71146370D01*
X141448785Y-71122914D01*
X141508290Y-71137154D01*
X141526628Y-71151599D01*
X142170504Y-71795475D01*
X142198281Y-71849992D01*
X142199500Y-71865479D01*
X142199500Y-73639564D01*
X142219977Y-73715985D01*
X142219978Y-73715987D01*
X142219979Y-73715989D01*
X142254417Y-73775638D01*
X142259540Y-73784511D01*
X143909540Y-75434511D01*
X143909539Y-75434511D01*
X143965489Y-75490460D01*
X144034007Y-75530019D01*
X144034011Y-75530021D01*
X144110435Y-75550499D01*
X144110437Y-75550500D01*
X144110438Y-75550500D01*
X144189562Y-75550500D01*
X146854521Y-75550500D01*
X146912712Y-75569407D01*
X146924525Y-75579496D01*
X147343658Y-75998629D01*
X147366014Y-76032988D01*
X147543360Y-76492510D01*
X147550000Y-76528155D01*
X147550000Y-77395500D01*
X147531093Y-77453691D01*
X147481593Y-77489655D01*
X147451000Y-77494500D01*
X143441008Y-77494500D01*
X143430258Y-77494922D01*
X143424876Y-77495134D01*
X143411331Y-77496200D01*
X143409396Y-77496353D01*
X143409393Y-77496353D01*
X143409392Y-77496354D01*
X143332230Y-77518115D01*
X143332224Y-77518117D01*
X143277708Y-77545894D01*
X143225699Y-77583681D01*
X143083666Y-77725714D01*
X143072739Y-77737534D01*
X143062645Y-77749353D01*
X143062639Y-77749362D01*
X143023464Y-77819314D01*
X143004556Y-77877507D01*
X142994500Y-77941004D01*
X142994500Y-77941008D01*
X142994500Y-78958992D01*
X142994923Y-78969744D01*
X142995134Y-78975123D01*
X142996353Y-78990602D01*
X142996354Y-78990607D01*
X143018115Y-79067769D01*
X143018117Y-79067775D01*
X143045894Y-79122291D01*
X143083681Y-79174300D01*
X143083683Y-79174302D01*
X143083686Y-79174306D01*
X143225694Y-79316314D01*
X143225707Y-79316326D01*
X143225714Y-79316333D01*
X143237359Y-79327098D01*
X143237544Y-79327269D01*
X143249357Y-79337358D01*
X143319315Y-79376536D01*
X143377506Y-79395443D01*
X143390206Y-79397454D01*
X143441004Y-79405500D01*
X143441008Y-79405500D01*
X145373872Y-79405500D01*
X145381469Y-79407968D01*
X145389359Y-79406719D01*
X145410014Y-79417243D01*
X145432063Y-79424407D01*
X145443876Y-79434496D01*
X145465504Y-79456124D01*
X145493281Y-79510641D01*
X145494500Y-79526128D01*
X145494500Y-81156613D01*
X145475593Y-81214804D01*
X145426093Y-81250768D01*
X145364907Y-81250768D01*
X145325498Y-81226618D01*
X145248365Y-81149485D01*
X145248362Y-81149483D01*
X145248360Y-81149481D01*
X145117138Y-81073720D01*
X145117140Y-81073720D01*
X145060347Y-81058503D01*
X144970766Y-81034500D01*
X144819234Y-81034500D01*
X144729652Y-81058503D01*
X144672860Y-81073720D01*
X144541639Y-81149481D01*
X144434481Y-81256639D01*
X144358720Y-81387860D01*
X144358719Y-81387865D01*
X144323012Y-81521125D01*
X144321670Y-81523191D01*
X144321682Y-81525656D01*
X144305132Y-81548657D01*
X144289690Y-81572437D01*
X144287387Y-81573320D01*
X144285948Y-81575322D01*
X144260255Y-81583735D01*
X144232569Y-81594364D01*
X144227846Y-81594499D01*
X144227630Y-81594500D01*
X144138740Y-81594500D01*
X144131308Y-81594634D01*
X144124151Y-81594893D01*
X144122405Y-81594987D01*
X144119954Y-81594999D01*
X144119921Y-81594988D01*
X144119495Y-81595000D01*
X143440508Y-81595000D01*
X143429758Y-81595422D01*
X143424376Y-81595634D01*
X143408894Y-81596853D01*
X143404110Y-81597708D01*
X143403981Y-81596986D01*
X143385819Y-81599500D01*
X143361740Y-81599500D01*
X143327673Y-81604463D01*
X143293604Y-81609427D01*
X143188518Y-81660801D01*
X143105801Y-81743518D01*
X143105330Y-81744483D01*
X143104500Y-81745340D01*
X143101035Y-81750194D01*
X143100307Y-81749674D01*
X143062785Y-81788456D01*
X143016390Y-81800000D01*
X142523459Y-81800000D01*
X142509187Y-81798966D01*
X142497012Y-81797192D01*
X142444215Y-81789500D01*
X142444212Y-81789500D01*
X142055790Y-81789500D01*
X142055785Y-81789501D01*
X141990814Y-81798966D01*
X141976543Y-81800000D01*
X141256152Y-81800000D01*
X141212674Y-81789942D01*
X141201393Y-81784427D01*
X141133260Y-81774500D01*
X140766740Y-81774500D01*
X140732673Y-81779463D01*
X140698604Y-81784427D01*
X140593518Y-81835801D01*
X140510801Y-81918518D01*
X140459427Y-82023604D01*
X140456375Y-82044552D01*
X140452689Y-82069857D01*
X140449500Y-82091743D01*
X140449500Y-83103477D01*
X140448595Y-83113666D01*
X140448854Y-83113689D01*
X140448466Y-83118044D01*
X140448418Y-83190169D01*
X140448419Y-83190175D01*
X140473487Y-83331342D01*
X140465045Y-83391942D01*
X140446016Y-83418655D01*
X140057503Y-83807168D01*
X140002986Y-83834945D01*
X139942554Y-83825374D01*
X139917495Y-83807168D01*
X139544227Y-83433900D01*
X139535413Y-83416602D01*
X139522796Y-83401852D01*
X139521853Y-83389987D01*
X139516450Y-83379383D01*
X139517948Y-83340861D01*
X139535649Y-83266886D01*
X139538550Y-83258815D01*
X139538303Y-83258739D01*
X139540572Y-83251395D01*
X139540571Y-83251395D01*
X139540573Y-83251393D01*
X139550500Y-83183260D01*
X139550500Y-82091740D01*
X139540573Y-82023607D01*
X139538298Y-82018954D01*
X139498539Y-81937625D01*
X139489198Y-81918517D01*
X139406483Y-81835802D01*
X139406481Y-81835801D01*
X139301395Y-81784427D01*
X139274139Y-81780456D01*
X139233260Y-81774500D01*
X138866740Y-81774500D01*
X138832673Y-81779463D01*
X138798604Y-81784427D01*
X138693518Y-81835801D01*
X138610801Y-81918518D01*
X138559427Y-82023604D01*
X138556375Y-82044552D01*
X138549500Y-82091740D01*
X138549500Y-83183260D01*
X138555746Y-83226128D01*
X138559427Y-83251395D01*
X138595152Y-83324471D01*
X138610802Y-83356483D01*
X138693517Y-83439198D01*
X138693518Y-83439198D01*
X138693520Y-83439200D01*
X138700195Y-83443966D01*
X138698271Y-83446659D01*
X138731512Y-83478789D01*
X138739704Y-83499598D01*
X138746682Y-83525639D01*
X138746683Y-83525641D01*
X138746684Y-83525644D01*
X138789531Y-83599857D01*
X138789535Y-83599862D01*
X138921244Y-83731572D01*
X138921245Y-83731572D01*
X138926233Y-83736560D01*
X138930483Y-83742232D01*
X138939683Y-83753639D01*
X138940773Y-83754896D01*
X138942798Y-83757196D01*
X138956815Y-83767142D01*
X139440504Y-84250831D01*
X139468281Y-84305348D01*
X139469500Y-84320835D01*
X139469500Y-84631975D01*
X139469500Y-84717681D01*
X139483522Y-84770011D01*
X139491683Y-84800471D01*
X139534531Y-84874685D01*
X139534533Y-84874687D01*
X139534535Y-84874690D01*
X140100001Y-85440156D01*
X140100003Y-85440157D01*
X140100005Y-85440159D01*
X140174220Y-85483007D01*
X140174218Y-85483007D01*
X140174222Y-85483008D01*
X140174224Y-85483009D01*
X140257010Y-85505191D01*
X140342716Y-85505191D01*
X142232048Y-85505191D01*
X142290239Y-85524098D01*
X142326203Y-85573598D01*
X142326203Y-85634784D01*
X142290239Y-85684284D01*
X142283882Y-85688537D01*
X142280679Y-85690504D01*
X141934719Y-85953115D01*
X141918344Y-85963200D01*
X141827626Y-86007550D01*
X141742549Y-86092627D01*
X141695944Y-86187960D01*
X141689709Y-86200714D01*
X141680769Y-86262079D01*
X141679500Y-86270788D01*
X141679500Y-86734209D01*
X141679500Y-86734211D01*
X141679501Y-86734214D01*
X141680824Y-86743293D01*
X141689709Y-86804287D01*
X141728929Y-86884511D01*
X141742551Y-86912375D01*
X141827625Y-86997449D01*
X141935714Y-87050291D01*
X142005785Y-87060500D01*
X142394214Y-87060499D01*
X142459186Y-87051034D01*
X142473457Y-87050000D01*
X142954033Y-87050000D01*
X143012224Y-87068907D01*
X143048188Y-87118407D01*
X143051999Y-87134726D01*
X143054427Y-87151395D01*
X143099331Y-87243246D01*
X143105802Y-87256483D01*
X143188517Y-87339198D01*
X143241834Y-87365263D01*
X143293604Y-87390572D01*
X143293605Y-87390572D01*
X143293607Y-87390573D01*
X143361740Y-87400500D01*
X143404305Y-87400500D01*
X143419794Y-87401719D01*
X143440506Y-87405000D01*
X143440508Y-87405000D01*
X144119491Y-87405000D01*
X144119950Y-87405001D01*
X144122410Y-87405012D01*
X144124151Y-87405107D01*
X144131308Y-87405366D01*
X144138740Y-87405500D01*
X144227630Y-87405500D01*
X144227846Y-87405501D01*
X144256632Y-87415002D01*
X144285578Y-87424407D01*
X144285720Y-87424602D01*
X144285948Y-87424678D01*
X144303591Y-87449199D01*
X144321542Y-87473907D01*
X144321664Y-87474319D01*
X144321682Y-87474344D01*
X144321681Y-87474379D01*
X144323003Y-87478843D01*
X144351317Y-87584511D01*
X144358720Y-87612139D01*
X144434481Y-87743360D01*
X144434483Y-87743362D01*
X144434485Y-87743365D01*
X144541635Y-87850515D01*
X144541637Y-87850516D01*
X144541639Y-87850518D01*
X144672861Y-87926279D01*
X144672859Y-87926279D01*
X144672863Y-87926280D01*
X144672865Y-87926281D01*
X144819234Y-87965500D01*
X144819236Y-87965500D01*
X144970764Y-87965500D01*
X144970766Y-87965500D01*
X145117135Y-87926281D01*
X145117137Y-87926279D01*
X145117139Y-87926279D01*
X145248360Y-87850518D01*
X145248360Y-87850517D01*
X145248365Y-87850515D01*
X145355515Y-87743365D01*
X145389495Y-87684510D01*
X145431279Y-87612139D01*
X145431279Y-87612137D01*
X145431281Y-87612135D01*
X145470500Y-87465766D01*
X145470500Y-87314234D01*
X145447962Y-87230120D01*
X145451165Y-87169022D01*
X145489670Y-87121472D01*
X145543589Y-87105500D01*
X147258978Y-87105500D01*
X147258992Y-87105500D01*
X147275117Y-87104866D01*
X147290604Y-87103647D01*
X147367772Y-87081884D01*
X147422289Y-87054107D01*
X147474306Y-87016314D01*
X147616314Y-86874306D01*
X147619919Y-86870407D01*
X147627268Y-86862458D01*
X147630596Y-86858560D01*
X147637358Y-86850643D01*
X147676536Y-86780685D01*
X147695443Y-86722494D01*
X147705259Y-86660515D01*
X147705500Y-86658995D01*
X147705500Y-80386957D01*
X147705500Y-80386941D01*
X147704511Y-80366801D01*
X147702609Y-80347487D01*
X147699649Y-80327535D01*
X147681902Y-80238316D01*
X147680000Y-80219002D01*
X147680000Y-80140995D01*
X147681902Y-80121681D01*
X147690953Y-80076178D01*
X147699649Y-80032463D01*
X147702609Y-80012511D01*
X147704511Y-79993197D01*
X147705500Y-79973057D01*
X147705500Y-79726128D01*
X147707968Y-79718530D01*
X147706719Y-79710641D01*
X147717243Y-79689985D01*
X147724407Y-79667937D01*
X147734496Y-79656124D01*
X147756124Y-79634496D01*
X147810641Y-79606719D01*
X147826128Y-79605500D01*
X149450500Y-79605500D01*
X149508691Y-79624407D01*
X149544655Y-79673907D01*
X149549500Y-79704500D01*
X149549500Y-94997834D01*
X149549406Y-95002152D01*
X149532376Y-95392199D01*
X149531623Y-95400803D01*
X149480946Y-95785730D01*
X149479446Y-95794235D01*
X149395416Y-96173271D01*
X149393181Y-96181614D01*
X149276431Y-96551898D01*
X149273477Y-96560014D01*
X149124900Y-96918710D01*
X149121250Y-96926537D01*
X148941981Y-97270910D01*
X148937663Y-97278390D01*
X148729050Y-97605846D01*
X148724096Y-97612920D01*
X148487747Y-97920936D01*
X148482197Y-97927550D01*
X148219895Y-98213802D01*
X148213802Y-98219895D01*
X147936185Y-98474285D01*
X147927552Y-98482196D01*
X147920936Y-98487747D01*
X147612920Y-98724096D01*
X147605846Y-98729050D01*
X147278390Y-98937663D01*
X147270910Y-98941981D01*
X146926537Y-99121250D01*
X146918710Y-99124900D01*
X146560014Y-99273477D01*
X146551898Y-99276431D01*
X146181614Y-99393181D01*
X146173271Y-99395416D01*
X145794235Y-99479446D01*
X145785730Y-99480946D01*
X145400803Y-99531623D01*
X145392199Y-99532376D01*
X145002153Y-99549406D01*
X144997835Y-99549500D01*
X120002165Y-99549500D01*
X119997847Y-99549406D01*
X119607800Y-99532376D01*
X119599196Y-99531623D01*
X119214269Y-99480946D01*
X119205764Y-99479446D01*
X118826728Y-99395416D01*
X118818385Y-99393181D01*
X118448101Y-99276431D01*
X118439985Y-99273477D01*
X118081289Y-99124900D01*
X118073462Y-99121250D01*
X117729089Y-98941981D01*
X117721609Y-98937663D01*
X117394153Y-98729050D01*
X117387079Y-98724096D01*
X117079063Y-98487747D01*
X117072460Y-98482207D01*
X116786185Y-98219884D01*
X116780115Y-98213814D01*
X116517791Y-97927537D01*
X116512252Y-97920936D01*
X116275903Y-97612920D01*
X116270949Y-97605846D01*
X116062336Y-97278390D01*
X116058018Y-97270910D01*
X115878749Y-96926537D01*
X115875099Y-96918710D01*
X115726522Y-96560014D01*
X115723568Y-96551898D01*
X115606818Y-96181614D01*
X115604583Y-96173271D01*
X115536550Y-95866392D01*
X115520552Y-95794230D01*
X115519053Y-95785730D01*
X115468374Y-95400791D01*
X115467624Y-95392211D01*
X115450594Y-95002152D01*
X115450500Y-94997834D01*
X115450500Y-88299000D01*
X115469407Y-88240809D01*
X115518907Y-88204845D01*
X115549500Y-88200000D01*
X117450151Y-88200000D01*
X117457779Y-88200500D01*
X117460438Y-88200500D01*
X118639563Y-88200500D01*
X118639563Y-88200499D01*
X118715989Y-88180021D01*
X118784511Y-88140460D01*
X118840460Y-88084511D01*
X119095475Y-87829496D01*
X119149992Y-87801719D01*
X119165479Y-87800500D01*
X121201000Y-87800500D01*
X121259191Y-87819407D01*
X121295155Y-87868907D01*
X121300000Y-87899500D01*
X121300000Y-89178259D01*
X121281093Y-89236450D01*
X121244481Y-89267200D01*
X121192626Y-89292550D01*
X121107549Y-89377627D01*
X121071318Y-89451740D01*
X121054709Y-89485714D01*
X121045840Y-89546592D01*
X121044500Y-89555788D01*
X121044500Y-89944209D01*
X121044500Y-89944211D01*
X121044501Y-89944214D01*
X121054709Y-90014286D01*
X121107551Y-90122375D01*
X121192625Y-90207449D01*
X121246480Y-90233777D01*
X121290454Y-90276320D01*
X121302000Y-90322718D01*
X121302000Y-91206993D01*
X121300000Y-91213148D01*
X121300000Y-92742924D01*
X121281093Y-92801115D01*
X121231593Y-92837079D01*
X121170407Y-92837079D01*
X121157520Y-92831865D01*
X121101395Y-92804427D01*
X121074139Y-92800456D01*
X121033260Y-92794500D01*
X120666740Y-92794500D01*
X120632673Y-92799463D01*
X120598604Y-92804427D01*
X120493518Y-92855801D01*
X120410801Y-92938518D01*
X120359427Y-93043604D01*
X120354463Y-93077673D01*
X120349500Y-93111740D01*
X120349500Y-93878260D01*
X120359427Y-93946393D01*
X120359427Y-93946394D01*
X120360536Y-93954001D01*
X120358293Y-93954327D01*
X120357561Y-94004431D01*
X120320878Y-94053400D01*
X120289487Y-94068092D01*
X120137860Y-94108720D01*
X120006639Y-94184481D01*
X119899481Y-94291639D01*
X119823720Y-94422860D01*
X119819092Y-94440132D01*
X119784500Y-94569234D01*
X119784500Y-94720766D01*
X119801580Y-94784511D01*
X119823720Y-94867139D01*
X119899481Y-94998360D01*
X119899483Y-94998362D01*
X119899485Y-94998365D01*
X120006635Y-95105515D01*
X120006637Y-95105516D01*
X120006639Y-95105518D01*
X120137861Y-95181279D01*
X120137862Y-95181280D01*
X120137864Y-95181280D01*
X120137865Y-95181281D01*
X120171548Y-95190306D01*
X120215929Y-95215928D01*
X120250001Y-95250000D01*
X120250000Y-95250000D01*
X120350000Y-95350000D01*
X121659340Y-95350000D01*
X121682906Y-95357656D01*
X121707230Y-95362354D01*
X121711534Y-95366958D01*
X121717531Y-95368907D01*
X121749012Y-95407048D01*
X121794335Y-95503932D01*
X121826586Y-95572873D01*
X121832538Y-95589194D01*
X121833607Y-95593184D01*
X121833608Y-95593186D01*
X121844552Y-95612142D01*
X121848488Y-95619692D01*
X121858667Y-95641453D01*
X121865673Y-95655080D01*
X121866506Y-95656562D01*
X121866527Y-95656598D01*
X121868306Y-95659699D01*
X121868308Y-95659701D01*
X121870075Y-95661583D01*
X121883645Y-95679854D01*
X121899497Y-95707309D01*
X121899500Y-95707314D01*
X121992686Y-95800500D01*
X121992688Y-95800501D01*
X121992690Y-95800503D01*
X122106810Y-95866390D01*
X122106808Y-95866390D01*
X122106812Y-95866391D01*
X122106814Y-95866392D01*
X122234108Y-95900500D01*
X122234110Y-95900500D01*
X122365890Y-95900500D01*
X122365892Y-95900500D01*
X122493186Y-95866392D01*
X122493188Y-95866390D01*
X122493190Y-95866390D01*
X122607309Y-95800503D01*
X122607309Y-95800502D01*
X122607314Y-95800500D01*
X122700500Y-95707314D01*
X122716354Y-95679854D01*
X122766390Y-95593190D01*
X122766390Y-95593188D01*
X122766392Y-95593186D01*
X122800500Y-95465892D01*
X122800500Y-95334108D01*
X122766392Y-95206814D01*
X122761882Y-95199002D01*
X122749159Y-95139154D01*
X122774044Y-95083258D01*
X122827031Y-95052664D01*
X122847617Y-95050500D01*
X124792221Y-95050500D01*
X124799849Y-95050000D01*
X125690113Y-95050000D01*
X125748304Y-95068907D01*
X125760110Y-95078990D01*
X125786635Y-95105515D01*
X125786637Y-95105516D01*
X125786639Y-95105518D01*
X125917861Y-95181279D01*
X125917859Y-95181279D01*
X125917863Y-95181280D01*
X125917865Y-95181281D01*
X126064234Y-95220500D01*
X126064236Y-95220500D01*
X126215764Y-95220500D01*
X126215766Y-95220500D01*
X126362135Y-95181281D01*
X126362137Y-95181279D01*
X126362139Y-95181279D01*
X126493360Y-95105518D01*
X126493360Y-95105517D01*
X126493365Y-95105515D01*
X126600515Y-94998365D01*
X126676281Y-94867135D01*
X126715500Y-94720766D01*
X126715500Y-94569234D01*
X126676281Y-94422865D01*
X126676279Y-94422862D01*
X126676279Y-94422860D01*
X126600518Y-94291639D01*
X126600516Y-94291637D01*
X126600515Y-94291635D01*
X126493365Y-94184485D01*
X126493362Y-94184483D01*
X126493360Y-94184481D01*
X126362138Y-94108720D01*
X126362139Y-94108720D01*
X126210512Y-94068092D01*
X126159197Y-94034768D01*
X126137271Y-93977646D01*
X126140197Y-93954107D01*
X126139464Y-93954001D01*
X126140572Y-93946394D01*
X126140573Y-93946393D01*
X126150500Y-93878260D01*
X126150500Y-93111740D01*
X126150499Y-93111739D01*
X126150259Y-93108417D01*
X126150000Y-93101260D01*
X126150000Y-92115978D01*
X126168907Y-92057787D01*
X126178996Y-92045974D01*
X127820470Y-90404500D01*
X130095975Y-88128994D01*
X130150491Y-88101219D01*
X130165978Y-88100000D01*
X130200000Y-88100000D01*
X130400500Y-88100000D01*
X130458691Y-88118907D01*
X130494655Y-88168407D01*
X130499500Y-88199000D01*
X130499500Y-90139564D01*
X130519977Y-90215985D01*
X130519978Y-90215987D01*
X130519979Y-90215989D01*
X130551450Y-90270499D01*
X130559540Y-90284511D01*
X131364540Y-91089511D01*
X131364539Y-91089511D01*
X131420489Y-91145460D01*
X131489007Y-91185019D01*
X131489011Y-91185021D01*
X131565435Y-91205499D01*
X131565437Y-91205500D01*
X131565438Y-91205500D01*
X131644562Y-91205500D01*
X132070252Y-91205500D01*
X132113116Y-91215260D01*
X132449384Y-91376785D01*
X132463223Y-91380421D01*
X132481532Y-91387225D01*
X132498607Y-91395573D01*
X132566740Y-91405500D01*
X132566744Y-91405500D01*
X134283257Y-91405500D01*
X134283260Y-91405500D01*
X134351393Y-91395573D01*
X134352013Y-91395269D01*
X134352683Y-91395174D01*
X134358742Y-91393303D01*
X134359042Y-91394274D01*
X134359107Y-91394265D01*
X134364907Y-91390052D01*
X134388872Y-91390052D01*
X134412593Y-91386694D01*
X134418924Y-91390052D01*
X134426093Y-91390052D01*
X134445481Y-91404138D01*
X134466645Y-91415364D01*
X134469793Y-91421802D01*
X134475593Y-91426016D01*
X134482997Y-91448805D01*
X134493523Y-91470330D01*
X134494500Y-91484207D01*
X134494500Y-91673870D01*
X134475593Y-91732061D01*
X134465504Y-91743873D01*
X134383680Y-91825697D01*
X134372721Y-91837553D01*
X134362638Y-91849359D01*
X134362633Y-91849367D01*
X134323466Y-91919310D01*
X134323464Y-91919313D01*
X134304555Y-91977509D01*
X134294500Y-92041003D01*
X134294500Y-92041007D01*
X134294500Y-92658992D01*
X134295134Y-92675117D01*
X134296353Y-92690604D01*
X134303580Y-92716229D01*
X134318115Y-92767769D01*
X134318117Y-92767775D01*
X134345894Y-92822291D01*
X134383681Y-92874300D01*
X134383683Y-92874302D01*
X134383686Y-92874306D01*
X134425694Y-92916314D01*
X134425707Y-92916326D01*
X134425714Y-92916333D01*
X134437541Y-92927267D01*
X134449353Y-92937355D01*
X134449357Y-92937358D01*
X134519321Y-92976537D01*
X134525979Y-92978700D01*
X134532224Y-92981882D01*
X134566432Y-92995602D01*
X134587467Y-92997019D01*
X134641008Y-93005500D01*
X134641013Y-93005500D01*
X138721826Y-93005500D01*
X138736656Y-93004964D01*
X138750922Y-93003930D01*
X138750923Y-93003929D01*
X138750935Y-93003929D01*
X138765713Y-93002319D01*
X138774533Y-93001034D01*
X138788806Y-93000000D01*
X139111194Y-93000000D01*
X139123813Y-93000807D01*
X139124627Y-93000911D01*
X139134287Y-93002319D01*
X139142772Y-93003243D01*
X139143695Y-93003362D01*
X139170528Y-93016059D01*
X139197597Y-93028234D01*
X139198214Y-93029160D01*
X139199001Y-93029533D01*
X139201477Y-93034060D01*
X139224374Y-93068441D01*
X139225438Y-93071441D01*
X139234942Y-93090882D01*
X139245000Y-93134359D01*
X139245000Y-93856193D01*
X139243964Y-93870470D01*
X139243198Y-93875733D01*
X139237867Y-93896376D01*
X139229602Y-93918292D01*
X139229593Y-93918319D01*
X139219856Y-93953972D01*
X139217243Y-93964651D01*
X139217454Y-93983527D01*
X139199197Y-94041925D01*
X139150101Y-94078438D01*
X139144083Y-94080258D01*
X139037860Y-94108720D01*
X138906639Y-94184481D01*
X138799481Y-94291639D01*
X138723720Y-94422860D01*
X138719092Y-94440132D01*
X138684500Y-94569234D01*
X138684500Y-94720766D01*
X138701580Y-94784511D01*
X138723720Y-94867139D01*
X138799481Y-94998360D01*
X138799483Y-94998362D01*
X138799485Y-94998365D01*
X138906635Y-95105515D01*
X138906637Y-95105516D01*
X138906639Y-95105518D01*
X139037861Y-95181279D01*
X139037859Y-95181279D01*
X139037863Y-95181280D01*
X139037865Y-95181281D01*
X139184234Y-95220500D01*
X139184236Y-95220500D01*
X139335764Y-95220500D01*
X139335766Y-95220500D01*
X139469881Y-95184564D01*
X139530978Y-95187766D01*
X139578528Y-95226271D01*
X139594500Y-95280191D01*
X139594500Y-98258992D01*
X139594943Y-98270279D01*
X139595134Y-98275123D01*
X139596353Y-98290602D01*
X139596354Y-98290607D01*
X139618115Y-98367769D01*
X139618117Y-98367775D01*
X139645894Y-98422291D01*
X139683681Y-98474300D01*
X139683683Y-98474302D01*
X139683686Y-98474306D01*
X139825694Y-98616314D01*
X139825707Y-98616326D01*
X139825714Y-98616333D01*
X139837534Y-98627260D01*
X139837544Y-98627269D01*
X139849357Y-98637358D01*
X139919315Y-98676536D01*
X139977506Y-98695443D01*
X139990206Y-98697454D01*
X140041004Y-98705500D01*
X140041008Y-98705500D01*
X144758978Y-98705500D01*
X144758992Y-98705500D01*
X144775117Y-98704866D01*
X144790604Y-98703647D01*
X144867772Y-98681884D01*
X144922289Y-98654107D01*
X144974306Y-98616314D01*
X145116314Y-98474306D01*
X145127269Y-98462456D01*
X145137358Y-98450643D01*
X145176536Y-98380685D01*
X145195443Y-98322494D01*
X145200494Y-98290602D01*
X145205500Y-98258995D01*
X145205500Y-95306013D01*
X145205430Y-95300706D01*
X145205429Y-95300657D01*
X145205293Y-95295475D01*
X145204485Y-95291415D01*
X145211673Y-95230656D01*
X145253203Y-95185724D01*
X145260933Y-95181974D01*
X145262131Y-95181281D01*
X145262135Y-95181281D01*
X145393365Y-95105515D01*
X145500515Y-94998365D01*
X145576281Y-94867135D01*
X145615500Y-94720766D01*
X145615500Y-94569234D01*
X145576281Y-94422865D01*
X145576279Y-94422862D01*
X145576279Y-94422860D01*
X145500518Y-94291639D01*
X145500516Y-94291637D01*
X145500515Y-94291635D01*
X145393365Y-94184485D01*
X145393362Y-94184483D01*
X145393360Y-94184481D01*
X145262138Y-94108720D01*
X145262139Y-94108720D01*
X145155786Y-94080223D01*
X145136597Y-94067761D01*
X145115641Y-94058593D01*
X145111985Y-94051777D01*
X145104471Y-94046898D01*
X145084707Y-94005804D01*
X145083908Y-94002165D01*
X145075633Y-93943654D01*
X145059646Y-93891536D01*
X145058783Y-93887599D01*
X145058873Y-93886683D01*
X145057519Y-93880660D01*
X145056033Y-93870454D01*
X145055000Y-93856191D01*
X145055000Y-93190519D01*
X145055000Y-93190507D01*
X145054366Y-93174381D01*
X145053147Y-93158895D01*
X145053143Y-93158883D01*
X145052292Y-93154111D01*
X145053010Y-93153982D01*
X145050500Y-93135817D01*
X145050500Y-93111743D01*
X145050500Y-93111740D01*
X145040573Y-93043607D01*
X145033510Y-93029160D01*
X144989198Y-92938518D01*
X144989198Y-92938517D01*
X144906483Y-92855802D01*
X144880284Y-92842994D01*
X144801395Y-92804427D01*
X144774139Y-92800456D01*
X144733260Y-92794500D01*
X144366740Y-92794500D01*
X144332673Y-92799463D01*
X144298604Y-92804427D01*
X144219714Y-92842994D01*
X144159131Y-92851565D01*
X144121232Y-92836368D01*
X144082498Y-92810487D01*
X144082496Y-92810486D01*
X144082495Y-92810485D01*
X144002133Y-92794500D01*
X144002132Y-92794500D01*
X143797870Y-92794500D01*
X143797862Y-92794501D01*
X143717505Y-92810484D01*
X143717501Y-92810486D01*
X143704999Y-92818840D01*
X143646111Y-92835447D01*
X143595001Y-92818840D01*
X143582496Y-92810485D01*
X143582495Y-92810484D01*
X143502134Y-92794500D01*
X143297870Y-92794500D01*
X143297865Y-92794501D01*
X143293810Y-92795308D01*
X143233049Y-92788113D01*
X143188121Y-92746579D01*
X143176519Y-92712377D01*
X143175500Y-92705330D01*
X143175500Y-92652699D01*
X143168553Y-92635928D01*
X143133558Y-92551441D01*
X143133035Y-92550178D01*
X143125500Y-92512294D01*
X143125500Y-89362356D01*
X143091093Y-89279291D01*
X143083557Y-89261098D01*
X143083557Y-89261097D01*
X142388902Y-88566443D01*
X142388900Y-88566442D01*
X142388899Y-88566441D01*
X142369867Y-88558558D01*
X142369866Y-88558558D01*
X142287644Y-88524500D01*
X142287643Y-88524500D01*
X141488874Y-88524500D01*
X141430683Y-88505593D01*
X141418870Y-88495504D01*
X141201137Y-88277771D01*
X141183336Y-88256005D01*
X141160865Y-88237499D01*
X141092309Y-88168943D01*
X141089912Y-88167950D01*
X141086158Y-88166395D01*
X141076399Y-88162352D01*
X141051354Y-88147311D01*
X140936064Y-88052365D01*
X140903165Y-88000777D01*
X140900000Y-87975944D01*
X140900000Y-87800001D01*
X140900000Y-87800000D01*
X140899999Y-87800000D01*
X136701510Y-87800000D01*
X136686023Y-87798781D01*
X136658994Y-87794500D01*
X136658992Y-87794500D01*
X135041008Y-87794500D01*
X135030258Y-87794922D01*
X135024876Y-87795134D01*
X135011331Y-87796200D01*
X135009396Y-87796353D01*
X135009393Y-87796353D01*
X135009392Y-87796354D01*
X134932230Y-87818115D01*
X134932224Y-87818117D01*
X134877708Y-87845894D01*
X134825699Y-87883681D01*
X134683666Y-88025714D01*
X134672739Y-88037534D01*
X134662645Y-88049353D01*
X134662639Y-88049362D01*
X134623464Y-88119314D01*
X134604556Y-88177507D01*
X134594500Y-88241004D01*
X134594500Y-88873872D01*
X134592031Y-88881469D01*
X134593281Y-88889359D01*
X134582756Y-88910014D01*
X134575593Y-88932063D01*
X134565504Y-88943876D01*
X134543876Y-88965504D01*
X134489359Y-88993281D01*
X134473872Y-88994500D01*
X131341008Y-88994500D01*
X131330258Y-88994922D01*
X131324876Y-88995134D01*
X131311331Y-88996200D01*
X131309396Y-88996353D01*
X131309393Y-88996353D01*
X131309392Y-88996354D01*
X131227547Y-89019436D01*
X131226951Y-89017325D01*
X131174441Y-89020388D01*
X131122931Y-88987367D01*
X131100668Y-88930376D01*
X131100500Y-88924612D01*
X131100500Y-87699000D01*
X131119407Y-87640809D01*
X131168907Y-87604845D01*
X131199500Y-87600000D01*
X132723580Y-87600000D01*
X132730020Y-87596719D01*
X132745507Y-87595500D01*
X134283257Y-87595500D01*
X134283260Y-87595500D01*
X134351393Y-87585573D01*
X134456483Y-87534198D01*
X134539198Y-87451483D01*
X134590573Y-87346393D01*
X134600500Y-87278260D01*
X134600500Y-86911740D01*
X137199500Y-86911740D01*
X137199500Y-87278260D01*
X137204742Y-87314235D01*
X137209427Y-87346395D01*
X137256798Y-87443293D01*
X137260802Y-87451483D01*
X137343517Y-87534198D01*
X137374732Y-87549458D01*
X137448604Y-87585572D01*
X137448605Y-87585572D01*
X137448607Y-87585573D01*
X137516740Y-87595500D01*
X137516743Y-87595500D01*
X139233257Y-87595500D01*
X139233260Y-87595500D01*
X139301393Y-87585573D01*
X139406483Y-87534198D01*
X139489198Y-87451483D01*
X139540573Y-87346393D01*
X139550500Y-87278260D01*
X139550500Y-86911740D01*
X139540573Y-86843607D01*
X139527071Y-86815989D01*
X139515483Y-86792285D01*
X139489198Y-86738517D01*
X139406483Y-86655802D01*
X139405767Y-86655452D01*
X139301395Y-86604427D01*
X139274139Y-86600456D01*
X139233260Y-86594500D01*
X137516740Y-86594500D01*
X137482673Y-86599463D01*
X137448604Y-86604427D01*
X137343518Y-86655801D01*
X137260801Y-86738518D01*
X137209427Y-86843604D01*
X137206680Y-86862458D01*
X137199500Y-86911740D01*
X134600500Y-86911740D01*
X134600499Y-86911739D01*
X134600259Y-86908417D01*
X134600000Y-86901260D01*
X134600000Y-85765978D01*
X134618907Y-85707787D01*
X134628990Y-85695980D01*
X134640460Y-85684511D01*
X134648162Y-85671170D01*
X134680021Y-85615989D01*
X134682175Y-85607947D01*
X134694281Y-85580414D01*
X134698619Y-85573598D01*
X134764560Y-85469976D01*
X134955274Y-85170283D01*
X134980606Y-85146027D01*
X134979365Y-85144409D01*
X134984507Y-85140463D01*
X134984508Y-85140461D01*
X134984511Y-85140460D01*
X135040460Y-85084511D01*
X135240460Y-84884511D01*
X135268055Y-84836713D01*
X135283781Y-84816217D01*
X135716217Y-84383781D01*
X135736714Y-84368054D01*
X135784511Y-84340460D01*
X135810091Y-84314880D01*
X135840461Y-84284511D01*
X135913845Y-84211126D01*
X135940460Y-84184511D01*
X135958667Y-84152975D01*
X135980021Y-84115989D01*
X136000500Y-84039562D01*
X136000500Y-83660438D01*
X136000500Y-83657779D01*
X136000000Y-83650151D01*
X136000000Y-83049849D01*
X136000500Y-83042224D01*
X136000500Y-82660437D01*
X136000499Y-82660435D01*
X135984438Y-82600497D01*
X135980021Y-82584011D01*
X135977251Y-82579214D01*
X135940460Y-82515489D01*
X135884512Y-82459540D01*
X135784510Y-82359539D01*
X135784508Y-82359538D01*
X135769841Y-82351070D01*
X135769837Y-82351068D01*
X135765063Y-82348312D01*
X135715989Y-82319979D01*
X135671545Y-82308069D01*
X135664705Y-82305077D01*
X135654462Y-82295974D01*
X135634379Y-82284379D01*
X135378996Y-82028995D01*
X135351219Y-81974479D01*
X135350000Y-81958992D01*
X135350000Y-81929687D01*
X135350477Y-81919978D01*
X135350500Y-81919744D01*
X135350500Y-81913154D01*
X135351678Y-81897926D01*
X135352186Y-81894660D01*
X135353015Y-81889338D01*
X135352389Y-81880405D01*
X135352387Y-81880398D01*
X135351896Y-81877503D01*
X135350500Y-81860934D01*
X135350500Y-81080253D01*
X135350498Y-81080241D01*
X135347711Y-81066231D01*
X135338867Y-81021769D01*
X135294552Y-80955448D01*
X135294548Y-80955445D01*
X135228233Y-80911134D01*
X135228231Y-80911133D01*
X135228228Y-80911132D01*
X135228227Y-80911132D01*
X135169758Y-80899501D01*
X135169748Y-80899500D01*
X134730252Y-80899500D01*
X134730248Y-80899500D01*
X134730012Y-80899524D01*
X134720311Y-80900000D01*
X134329689Y-80900000D01*
X134319988Y-80899524D01*
X134319751Y-80899500D01*
X134319748Y-80899500D01*
X133880252Y-80899500D01*
X133880248Y-80899500D01*
X133880012Y-80899524D01*
X133870311Y-80900000D01*
X133479689Y-80900000D01*
X133469988Y-80899524D01*
X133469751Y-80899500D01*
X133469748Y-80899500D01*
X133030252Y-80899500D01*
X133030248Y-80899500D01*
X133030012Y-80899524D01*
X133020311Y-80900000D01*
X132629689Y-80900000D01*
X132619988Y-80899524D01*
X132619751Y-80899500D01*
X132619748Y-80899500D01*
X132199000Y-80899500D01*
X132140809Y-80880593D01*
X132104845Y-80831093D01*
X132100000Y-80800500D01*
X132100000Y-80076178D01*
X132100500Y-80068548D01*
X132100500Y-79934109D01*
X132086317Y-79881177D01*
X132066392Y-79806814D01*
X132066390Y-79806811D01*
X132066390Y-79806809D01*
X132000503Y-79692690D01*
X132000501Y-79692688D01*
X132000500Y-79692686D01*
X131907314Y-79599500D01*
X131907311Y-79599498D01*
X131902165Y-79595549D01*
X131902550Y-79595046D01*
X131895715Y-79589714D01*
X131895303Y-79590201D01*
X131497672Y-79253230D01*
X131497667Y-79253226D01*
X131497666Y-79253225D01*
X131491200Y-79249460D01*
X131471017Y-79233913D01*
X131276614Y-79039511D01*
X131276609Y-79039507D01*
X131173890Y-78980202D01*
X131173888Y-78980201D01*
X131147784Y-78973206D01*
X131147784Y-78973207D01*
X131059309Y-78949500D01*
X125840691Y-78949500D01*
X125745088Y-78975117D01*
X125745087Y-78975116D01*
X125726114Y-78980201D01*
X125623386Y-79039510D01*
X124389508Y-80273389D01*
X124389507Y-80273390D01*
X124330202Y-80376109D01*
X124330201Y-80376112D01*
X124323712Y-80400324D01*
X124323713Y-80400325D01*
X124299500Y-80490691D01*
X124299500Y-80969837D01*
X124285371Y-81020806D01*
X124280117Y-81029554D01*
X124272731Y-81037544D01*
X124262642Y-81049357D01*
X124223465Y-81119313D01*
X124221298Y-81125980D01*
X124218114Y-81132231D01*
X124217429Y-81133939D01*
X124204405Y-81166406D01*
X124203287Y-81182967D01*
X124202294Y-81191778D01*
X124194500Y-81241006D01*
X124194500Y-82073870D01*
X124175593Y-82132061D01*
X124165504Y-82143873D01*
X124083680Y-82225697D01*
X124072721Y-82237553D01*
X124062638Y-82249359D01*
X124062633Y-82249367D01*
X124023466Y-82319310D01*
X124023464Y-82319313D01*
X124004555Y-82377509D01*
X123994500Y-82441003D01*
X123994500Y-84273872D01*
X123992031Y-84281469D01*
X123993281Y-84289359D01*
X123982756Y-84310014D01*
X123975593Y-84332063D01*
X123965504Y-84343876D01*
X123943876Y-84365504D01*
X123889359Y-84393281D01*
X123873872Y-84394500D01*
X121126128Y-84394500D01*
X121067937Y-84375593D01*
X121056124Y-84365504D01*
X120834496Y-84143876D01*
X120806719Y-84089359D01*
X120805500Y-84073872D01*
X120805500Y-83241021D01*
X120805500Y-83241008D01*
X120804866Y-83224883D01*
X120803647Y-83209396D01*
X120781884Y-83132228D01*
X120754107Y-83077711D01*
X120735352Y-83051897D01*
X120716318Y-83025699D01*
X120716316Y-83025697D01*
X120716314Y-83025694D01*
X120574306Y-82883686D01*
X120574292Y-82883673D01*
X120574285Y-82883666D01*
X120562465Y-82872739D01*
X120562456Y-82872731D01*
X120550643Y-82862642D01*
X120480685Y-82823464D01*
X120422494Y-82804557D01*
X120422491Y-82804556D01*
X120422492Y-82804556D01*
X120358995Y-82794500D01*
X120358992Y-82794500D01*
X117941008Y-82794500D01*
X117930258Y-82794922D01*
X117924876Y-82795134D01*
X117911331Y-82796200D01*
X117909396Y-82796353D01*
X117909393Y-82796353D01*
X117909392Y-82796354D01*
X117832230Y-82818115D01*
X117832224Y-82818117D01*
X117777708Y-82845894D01*
X117725699Y-82883681D01*
X117583666Y-83025714D01*
X117572739Y-83037534D01*
X117562645Y-83049353D01*
X117562639Y-83049362D01*
X117523464Y-83119314D01*
X117504556Y-83177507D01*
X117494500Y-83241004D01*
X117494500Y-83651000D01*
X117475593Y-83709191D01*
X117426093Y-83745155D01*
X117395500Y-83750000D01*
X115641008Y-83750000D01*
X115633410Y-83747531D01*
X115625521Y-83748781D01*
X115604865Y-83738256D01*
X115582817Y-83731093D01*
X115571004Y-83721004D01*
X115479496Y-83629496D01*
X115451719Y-83574979D01*
X115450500Y-83559492D01*
X115450500Y-74621306D01*
X117099500Y-74621306D01*
X117099500Y-74798693D01*
X117119108Y-74897266D01*
X117128926Y-74946627D01*
X117134106Y-74972665D01*
X117134106Y-74972667D01*
X117201985Y-75136544D01*
X117201985Y-75136545D01*
X117227349Y-75174504D01*
X117300536Y-75284035D01*
X117425965Y-75409464D01*
X117573453Y-75508013D01*
X117737334Y-75575894D01*
X117911309Y-75610500D01*
X117911310Y-75610500D01*
X118088690Y-75610500D01*
X118088691Y-75610500D01*
X118262666Y-75575894D01*
X118426547Y-75508013D01*
X118574035Y-75409464D01*
X118699464Y-75284035D01*
X118798013Y-75136547D01*
X118865894Y-74972666D01*
X118900500Y-74798691D01*
X118900500Y-74621309D01*
X118865894Y-74447334D01*
X118798014Y-74283455D01*
X118798014Y-74283454D01*
X118699464Y-74135965D01*
X118574034Y-74010535D01*
X118426544Y-73911985D01*
X118262666Y-73844106D01*
X118088693Y-73809500D01*
X118088691Y-73809500D01*
X117911309Y-73809500D01*
X117911306Y-73809500D01*
X117737334Y-73844106D01*
X117737332Y-73844106D01*
X117573455Y-73911985D01*
X117573454Y-73911985D01*
X117425965Y-74010535D01*
X117300535Y-74135965D01*
X117201985Y-74283454D01*
X117201985Y-74283455D01*
X117134106Y-74447332D01*
X117134106Y-74447334D01*
X117099500Y-74621306D01*
X115450500Y-74621306D01*
X115450500Y-70002165D01*
X115450594Y-69997847D01*
X115454216Y-69914880D01*
X115467624Y-69607786D01*
X115468374Y-69599210D01*
X115519054Y-69214260D01*
X115520553Y-69205764D01*
X115526767Y-69177738D01*
X115604584Y-68826720D01*
X115606818Y-68818385D01*
X115619020Y-68779687D01*
X115723570Y-68448094D01*
X115726522Y-68439985D01*
X115771975Y-68330253D01*
X115875106Y-68081272D01*
X115878741Y-68073478D01*
X116058023Y-67729079D01*
X116062330Y-67721618D01*
X116270956Y-67394142D01*
X116275894Y-67387090D01*
X116512262Y-67079050D01*
X116517781Y-67072473D01*
X116780126Y-66786173D01*
X116786173Y-66780126D01*
X117072473Y-66517781D01*
X117079050Y-66512262D01*
X117387090Y-66275894D01*
X117394142Y-66270956D01*
X117721618Y-66062330D01*
X117729079Y-66058023D01*
X118073478Y-65878741D01*
X118081272Y-65875106D01*
X118439992Y-65726519D01*
X118448094Y-65723570D01*
X118818393Y-65606815D01*
X118826720Y-65604584D01*
X119205773Y-65520551D01*
X119214260Y-65519054D01*
X119599210Y-65468374D01*
X119607786Y-65467624D01*
X119997847Y-65450593D01*
X120002165Y-65450500D01*
X120059309Y-65450500D01*
X122486660Y-65450500D01*
X122544851Y-65469407D01*
G37*
%TD.AperFunction*%
%TA.AperFunction,Conductor*%
G36*
X145002152Y-65450593D02*
G01*
X145392211Y-65467624D01*
X145400791Y-65468374D01*
X145785735Y-65519054D01*
X145794230Y-65520552D01*
X146173273Y-65604583D01*
X146181614Y-65606818D01*
X146551898Y-65723568D01*
X146560014Y-65726522D01*
X146918718Y-65875103D01*
X146926530Y-65878745D01*
X147093937Y-65965892D01*
X147270910Y-66058018D01*
X147278390Y-66062336D01*
X147328428Y-66094214D01*
X147599584Y-66266960D01*
X147605846Y-66270949D01*
X147612919Y-66275902D01*
X147914500Y-66507314D01*
X147920936Y-66512252D01*
X147927537Y-66517791D01*
X148213814Y-66780115D01*
X148219884Y-66786185D01*
X148482207Y-67072460D01*
X148487747Y-67079063D01*
X148724096Y-67387079D01*
X148729050Y-67394153D01*
X148937663Y-67721609D01*
X148941981Y-67729089D01*
X149121250Y-68073462D01*
X149124900Y-68081289D01*
X149273477Y-68439985D01*
X149276431Y-68448101D01*
X149393181Y-68818385D01*
X149395416Y-68826728D01*
X149479446Y-69205764D01*
X149480946Y-69214269D01*
X149531623Y-69599196D01*
X149532376Y-69607800D01*
X149549406Y-69997847D01*
X149549500Y-70002165D01*
X149549500Y-72895500D01*
X149530593Y-72953691D01*
X149481093Y-72989655D01*
X149450500Y-72994500D01*
X145526128Y-72994500D01*
X145467937Y-72975593D01*
X145456124Y-72965504D01*
X145234496Y-72743876D01*
X145206719Y-72689359D01*
X145205500Y-72673872D01*
X145205500Y-71041020D01*
X145205500Y-71041007D01*
X145204866Y-71024882D01*
X145203647Y-71009395D01*
X145181884Y-70932227D01*
X145154108Y-70877712D01*
X145132956Y-70848599D01*
X145116319Y-70825700D01*
X145116317Y-70825698D01*
X145116315Y-70825695D01*
X144234496Y-69943876D01*
X144206719Y-69889359D01*
X144205500Y-69873872D01*
X144205500Y-68941021D01*
X144205500Y-68941008D01*
X144204866Y-68924883D01*
X144203647Y-68909396D01*
X144181884Y-68832228D01*
X144154107Y-68777711D01*
X144148329Y-68769758D01*
X144116318Y-68725699D01*
X144116316Y-68725697D01*
X144116314Y-68725694D01*
X143174306Y-67783686D01*
X143174292Y-67783673D01*
X143174285Y-67783666D01*
X143162465Y-67772739D01*
X143157545Y-67768537D01*
X143150643Y-67762642D01*
X143080685Y-67723464D01*
X143022494Y-67704557D01*
X143022491Y-67704556D01*
X143022492Y-67704556D01*
X142958995Y-67694500D01*
X142958992Y-67694500D01*
X142099000Y-67694500D01*
X142040809Y-67675593D01*
X142004845Y-67626093D01*
X142000000Y-67595500D01*
X142000000Y-67167758D01*
X142000500Y-67165892D01*
X142000500Y-67034108D01*
X142000000Y-67032241D01*
X142000000Y-65549500D01*
X142018907Y-65491309D01*
X142068407Y-65455345D01*
X142099000Y-65450500D01*
X144940691Y-65450500D01*
X144997835Y-65450500D01*
X145002152Y-65450593D01*
G37*
%TD.AperFunction*%
%TD*%
M02*
