M48
; DRILL file {KiCad 9.0.6} date 2025-12-31T10:36:24+0530
; FORMAT={-:-/ absolute / metric / decimal}
; #@! TF.CreationDate,2025-12-31T10:36:24+05:30
; #@! TF.GenerationSoftware,Kicad,Pcbnew,9.0.6
; #@! TF.FileFunction,Plated,1,4,PTH
FMAT,2
METRIC
; #@! TA.AperFunction,Plated,PTH,ViaDrill
T1C0.300
; #@! TA.AperFunction,Plated,PTH,ComponentDrill
T2C0.400
; #@! TA.AperFunction,Plated,PTH,ComponentDrill
T3C0.600
; #@! TA.AperFunction,Plated,PTH,ComponentDrill
T4C0.800
; #@! TA.AperFunction,Plated,PTH,ComponentDrill
T5C2.200
%
G90
G05
T1
X116.25Y-70.5
X116.25Y-71.5
X116.25Y-72.5
X116.25Y-73.5
X116.25Y-74.5
X116.25Y-75.5
X116.25Y-76.5
X116.25Y-77.5
X116.25Y-78.5
X116.25Y-79.5
X116.25Y-80.5
X116.25Y-81.5
X116.25Y-88.75
X116.25Y-89.75
X116.25Y-90.75
X116.25Y-91.75
X116.25Y-92.75
X116.25Y-93.75
X116.25Y-94.75
X116.25Y-95.75
X117.25Y-71.5
X117.25Y-72.5
X117.25Y-93.75
X117.25Y-94.75
X117.25Y-95.75
X117.25Y-96.75
X117.5Y-79.5
X118.25Y-71.5
X118.25Y-72.5
X118.5Y-79.5
X118.9Y-83.4
X119.0Y-96.5
X119.25Y-92.0
X119.5Y-71.5
X120.0Y-83.4
X120.0Y-84.2
X120.0Y-85.0
X120.0Y-96.5
X120.25Y-92.0
X120.6Y-70.5
X120.6Y-71.5
X120.6Y-72.5
X120.6Y-73.5
X120.6Y-74.5
X120.6Y-75.5
X120.6Y-76.5
X120.6Y-77.5
X120.6Y-78.5
X120.6Y-79.5
X120.6Y-80.5
X120.6Y-81.5
X120.75Y-66.0
X121.0Y-85.0
X121.0Y-96.5
X121.5Y-97.5
X121.5Y-98.5
X121.75Y-66.0
X122.0Y-96.5
X122.1Y-85.0
X122.3Y-95.4
X122.5Y-97.5
X122.5Y-98.5
X123.2Y-85.0
X123.5Y-97.5
X123.5Y-98.5
X124.0Y-89.7
X124.2Y-85.0
X124.25Y-96.5
X124.5Y-97.5
X124.5Y-98.5
X124.9Y-91.9
X125.25Y-96.5
X125.3Y-65.9
X125.5Y-83.6
X126.25Y-96.5
X126.5Y-68.5
X127.0Y-69.5
X127.0Y-70.5
X127.0Y-71.5
X127.0Y-77.5
X127.0Y-78.3
X127.25Y-96.5
X127.5Y-68.5
X128.0Y-69.5
X128.0Y-70.5
X128.0Y-71.5
X128.0Y-77.5
X128.0Y-78.3
X128.5Y-68.5
X129.0Y-69.5
X129.0Y-70.5
X129.0Y-71.5
X129.0Y-77.5
X129.0Y-78.3
X129.25Y-95.0
X129.25Y-96.0
X129.25Y-97.0
X129.25Y-98.0
X130.0Y-70.5
X130.0Y-71.5
X130.0Y-77.5
X130.0Y-78.3
X130.0Y-89.65
X130.0Y-90.75
X130.0Y-93.75
X130.4Y-66.2
X131.0Y-93.75
X131.6Y-80.0
X131.75Y-69.25
X131.75Y-70.25
X131.75Y-71.25
X131.75Y-72.25
X131.75Y-73.25
X131.75Y-74.25
X131.75Y-75.25
X131.75Y-76.25
X131.75Y-77.25
X131.75Y-78.25
X131.9Y-66.2
X132.0Y-93.75
X132.75Y-69.25
X133.0Y-93.75
X133.75Y-73.0
X133.75Y-74.0
X133.75Y-74.9
X133.75Y-75.75
X133.75Y-76.65
X133.75Y-77.6
X133.75Y-78.5
X133.75Y-79.5
X133.75Y-80.4
X135.0Y-95.0
X135.4Y-87.0
X135.8Y-88.9
X135.8Y-89.9
X135.8Y-90.9
X136.0Y-95.0
X136.0Y-96.0
X136.0Y-97.0
X136.0Y-98.0
X136.1Y-87.0
X137.4Y-92.2
X137.5Y-81.6
X137.5Y-82.5
X137.5Y-83.4
X137.5Y-84.3
X137.5Y-85.2
X138.4Y-67.1
X138.4Y-92.2
X139.4Y-92.2
X140.0Y-79.1
X140.5Y-95.5
X140.5Y-96.5
X140.5Y-97.5
X140.6Y-86.8
X141.5Y-67.1
X141.5Y-95.5
X141.5Y-96.5
X141.5Y-97.5
X142.5Y-95.5
X142.5Y-96.5
X142.5Y-97.5
X143.5Y-95.5
X143.5Y-96.5
X143.5Y-97.5
X143.8Y-66.0
X143.8Y-67.0
X144.0Y-90.25
X144.5Y-95.5
X144.5Y-96.5
X144.5Y-97.5
X145.0Y-90.25
X146.0Y-90.25
X146.5Y-78.6
X146.5Y-79.4
X146.5Y-80.2
X146.5Y-81.0
X146.5Y-81.8
X146.5Y-82.6
X146.5Y-83.4
X146.7Y-71.5
X147.0Y-90.25
X147.3Y-78.6
X148.0Y-90.25
X148.0Y-91.25
X148.0Y-92.25
X148.0Y-93.25
X148.0Y-94.25
X148.0Y-95.25
X148.0Y-96.25
X148.0Y-97.25
X148.1Y-78.6
X148.5Y-82.75
X148.5Y-83.75
X148.5Y-84.75
X148.5Y-85.75
X148.9Y-78.6
X149.0Y-92.25
X149.0Y-93.25
X149.0Y-94.25
X149.0Y-95.25
T2
X116.85Y-68.5
X117.333Y-67.333
X117.333Y-69.667
X118.5Y-66.85
X118.5Y-70.15
X119.667Y-67.333
X119.667Y-69.667
X120.15Y-68.5
X130.85Y-97.0
X131.333Y-95.833
X131.333Y-98.167
X132.5Y-95.35
X132.5Y-98.65
X133.667Y-95.833
X133.667Y-98.167
X134.15Y-97.0
X144.85Y-68.5
X145.333Y-67.333
X145.333Y-69.667
X146.5Y-66.85
X146.5Y-70.15
X147.667Y-67.333
X147.667Y-69.667
X148.15Y-68.5
T3
X140.69Y-71.46
X140.69Y-74.0
X140.69Y-76.54
X148.31Y-71.46
X148.31Y-74.0
X148.31Y-76.54
T4
X118.0Y-74.71
X118.0Y-77.25
T5
X118.5Y-68.5
X132.5Y-97.0
X146.5Y-68.5
T3
G00X118.93Y-93.595
M15
G01X118.93Y-94.695
M16
G05
G00X118.93Y-97.925
M15
G01X118.93Y-98.725
M16
G05
G00X127.57Y-93.595
M15
G01X127.57Y-94.695
M16
G05
G00X127.57Y-97.925
M15
G01X127.57Y-98.725
M16
G05
G00X137.83Y-93.595
M15
G01X137.83Y-94.695
M16
G05
G00X137.83Y-97.925
M15
G01X137.83Y-98.725
M16
G05
G00X143.845Y-80.18
M15
G01X144.945Y-80.18
M16
G05
G00X143.845Y-88.82
M15
G01X144.945Y-88.82
M16
G05
G00X146.47Y-93.595
M15
G01X146.47Y-94.695
M16
G05
G00X146.47Y-97.925
M15
G01X146.47Y-98.725
M16
G05
G00X148.175Y-80.18
M15
G01X148.975Y-80.18
M16
G05
G00X148.175Y-88.82
M15
G01X148.975Y-88.82
M16
G05
M30
