%TF.GenerationSoftware,KiCad,Pcbnew,9.0.6*%
%TF.CreationDate,2025-12-31T10:36:15+05:30*%
%TF.ProjectId,WheelChair_Controller,57686565-6c43-4686-9169-725f436f6e74,rev?*%
%TF.SameCoordinates,Original*%
%TF.FileFunction,Soldermask,Bot*%
%TF.FilePolarity,Negative*%
%FSLAX46Y46*%
G04 Gerber Fmt 4.6, Leading zero omitted, Abs format (unit mm)*
G04 Created by KiCad (PCBNEW 9.0.6) date 2025-12-31 10:36:15*
%MOMM*%
%LPD*%
G01*
G04 APERTURE LIST*
G04 APERTURE END LIST*
G36*
X118998858Y-97330133D02*
G01*
X119008316Y-97330133D01*
X119035563Y-97337433D01*
X119104099Y-97351066D01*
X119136448Y-97364465D01*
X119159610Y-97370672D01*
X119180377Y-97382662D01*
X119212722Y-97396060D01*
X119270816Y-97434877D01*
X119295257Y-97448988D01*
X119301946Y-97455677D01*
X119310481Y-97461380D01*
X119393619Y-97544518D01*
X119399321Y-97553052D01*
X119406012Y-97559743D01*
X119420124Y-97584186D01*
X119458939Y-97642277D01*
X119472335Y-97674618D01*
X119484328Y-97695390D01*
X119490535Y-97718555D01*
X119503933Y-97750900D01*
X119517563Y-97819426D01*
X119524867Y-97846684D01*
X119525791Y-97860795D01*
X119527110Y-97867422D01*
X119529758Y-97921311D01*
X119530000Y-97925000D01*
X119530000Y-98725000D01*
X119529758Y-98728691D01*
X119527110Y-98782577D01*
X119525791Y-98789203D01*
X119524867Y-98803316D01*
X119517562Y-98830576D01*
X119503933Y-98899099D01*
X119490535Y-98931441D01*
X119484328Y-98954610D01*
X119472334Y-98975383D01*
X119458939Y-99007722D01*
X119420128Y-99065805D01*
X119406012Y-99090257D01*
X119399319Y-99096949D01*
X119393619Y-99105481D01*
X119310481Y-99188619D01*
X119301949Y-99194319D01*
X119295257Y-99201012D01*
X119270805Y-99215128D01*
X119212722Y-99253939D01*
X119180383Y-99267334D01*
X119159610Y-99279328D01*
X119136441Y-99285535D01*
X119104099Y-99298933D01*
X119035569Y-99312564D01*
X119008316Y-99319867D01*
X118998858Y-99319867D01*
X118988788Y-99321870D01*
X118871212Y-99321870D01*
X118861142Y-99319867D01*
X118851684Y-99319867D01*
X118824432Y-99312564D01*
X118755900Y-99298933D01*
X118723555Y-99285535D01*
X118700390Y-99279328D01*
X118679618Y-99267335D01*
X118647277Y-99253939D01*
X118589186Y-99215124D01*
X118564743Y-99201012D01*
X118558052Y-99194321D01*
X118549518Y-99188619D01*
X118466380Y-99105481D01*
X118460677Y-99096946D01*
X118453988Y-99090257D01*
X118439877Y-99065816D01*
X118401060Y-99007722D01*
X118387662Y-98975377D01*
X118375672Y-98954610D01*
X118369465Y-98931448D01*
X118356066Y-98899099D01*
X118342433Y-98830562D01*
X118335133Y-98803316D01*
X118334208Y-98789210D01*
X118332889Y-98782577D01*
X118330241Y-98728686D01*
X118330000Y-98725000D01*
X118330000Y-97925000D01*
X118330241Y-97921316D01*
X118332889Y-97867422D01*
X118334208Y-97860787D01*
X118335133Y-97846684D01*
X118342432Y-97819440D01*
X118356066Y-97750900D01*
X118369466Y-97718548D01*
X118375672Y-97695390D01*
X118387660Y-97674624D01*
X118401060Y-97642277D01*
X118439881Y-97584175D01*
X118453988Y-97559743D01*
X118460675Y-97553055D01*
X118466380Y-97544518D01*
X118549518Y-97461380D01*
X118558055Y-97455675D01*
X118564743Y-97448988D01*
X118589175Y-97434881D01*
X118647277Y-97396060D01*
X118679624Y-97382660D01*
X118700390Y-97370672D01*
X118723548Y-97364466D01*
X118755900Y-97351066D01*
X118824437Y-97337433D01*
X118851684Y-97330133D01*
X118861142Y-97330133D01*
X118871212Y-97328130D01*
X118988788Y-97328130D01*
X118998858Y-97330133D01*
G37*
G36*
X127638858Y-97330133D02*
G01*
X127648316Y-97330133D01*
X127675563Y-97337433D01*
X127744099Y-97351066D01*
X127776448Y-97364465D01*
X127799610Y-97370672D01*
X127820377Y-97382662D01*
X127852722Y-97396060D01*
X127910816Y-97434877D01*
X127935257Y-97448988D01*
X127941946Y-97455677D01*
X127950481Y-97461380D01*
X128033619Y-97544518D01*
X128039321Y-97553052D01*
X128046012Y-97559743D01*
X128060124Y-97584186D01*
X128098939Y-97642277D01*
X128112335Y-97674618D01*
X128124328Y-97695390D01*
X128130535Y-97718555D01*
X128143933Y-97750900D01*
X128157563Y-97819426D01*
X128164867Y-97846684D01*
X128165791Y-97860795D01*
X128167110Y-97867422D01*
X128169758Y-97921311D01*
X128170000Y-97925000D01*
X128170000Y-98725000D01*
X128169758Y-98728691D01*
X128167110Y-98782577D01*
X128165791Y-98789203D01*
X128164867Y-98803316D01*
X128157562Y-98830576D01*
X128143933Y-98899099D01*
X128130535Y-98931441D01*
X128124328Y-98954610D01*
X128112334Y-98975383D01*
X128098939Y-99007722D01*
X128060128Y-99065805D01*
X128046012Y-99090257D01*
X128039319Y-99096949D01*
X128033619Y-99105481D01*
X127950481Y-99188619D01*
X127941949Y-99194319D01*
X127935257Y-99201012D01*
X127910805Y-99215128D01*
X127852722Y-99253939D01*
X127820383Y-99267334D01*
X127799610Y-99279328D01*
X127776441Y-99285535D01*
X127744099Y-99298933D01*
X127675569Y-99312564D01*
X127648316Y-99319867D01*
X127638858Y-99319867D01*
X127628788Y-99321870D01*
X127511212Y-99321870D01*
X127501142Y-99319867D01*
X127491684Y-99319867D01*
X127464432Y-99312564D01*
X127395900Y-99298933D01*
X127363555Y-99285535D01*
X127340390Y-99279328D01*
X127319618Y-99267335D01*
X127287277Y-99253939D01*
X127229186Y-99215124D01*
X127204743Y-99201012D01*
X127198052Y-99194321D01*
X127189518Y-99188619D01*
X127106380Y-99105481D01*
X127100677Y-99096946D01*
X127093988Y-99090257D01*
X127079877Y-99065816D01*
X127041060Y-99007722D01*
X127027662Y-98975377D01*
X127015672Y-98954610D01*
X127009465Y-98931448D01*
X126996066Y-98899099D01*
X126982433Y-98830562D01*
X126975133Y-98803316D01*
X126974208Y-98789210D01*
X126972889Y-98782577D01*
X126970241Y-98728686D01*
X126970000Y-98725000D01*
X126970000Y-97925000D01*
X126970241Y-97921316D01*
X126972889Y-97867422D01*
X126974208Y-97860787D01*
X126975133Y-97846684D01*
X126982432Y-97819440D01*
X126996066Y-97750900D01*
X127009466Y-97718548D01*
X127015672Y-97695390D01*
X127027660Y-97674624D01*
X127041060Y-97642277D01*
X127079881Y-97584175D01*
X127093988Y-97559743D01*
X127100675Y-97553055D01*
X127106380Y-97544518D01*
X127189518Y-97461380D01*
X127198055Y-97455675D01*
X127204743Y-97448988D01*
X127229175Y-97434881D01*
X127287277Y-97396060D01*
X127319624Y-97382660D01*
X127340390Y-97370672D01*
X127363548Y-97364466D01*
X127395900Y-97351066D01*
X127464437Y-97337433D01*
X127491684Y-97330133D01*
X127501142Y-97330133D01*
X127511212Y-97328130D01*
X127628788Y-97328130D01*
X127638858Y-97330133D01*
G37*
G36*
X137898858Y-97330133D02*
G01*
X137908316Y-97330133D01*
X137935563Y-97337433D01*
X138004099Y-97351066D01*
X138036448Y-97364465D01*
X138059610Y-97370672D01*
X138080377Y-97382662D01*
X138112722Y-97396060D01*
X138170816Y-97434877D01*
X138195257Y-97448988D01*
X138201946Y-97455677D01*
X138210481Y-97461380D01*
X138293619Y-97544518D01*
X138299321Y-97553052D01*
X138306012Y-97559743D01*
X138320124Y-97584186D01*
X138358939Y-97642277D01*
X138372335Y-97674618D01*
X138384328Y-97695390D01*
X138390535Y-97718555D01*
X138403933Y-97750900D01*
X138417563Y-97819426D01*
X138424867Y-97846684D01*
X138425791Y-97860795D01*
X138427110Y-97867422D01*
X138429758Y-97921311D01*
X138430000Y-97925000D01*
X138430000Y-98725000D01*
X138429758Y-98728691D01*
X138427110Y-98782577D01*
X138425791Y-98789203D01*
X138424867Y-98803316D01*
X138417562Y-98830576D01*
X138403933Y-98899099D01*
X138390535Y-98931441D01*
X138384328Y-98954610D01*
X138372334Y-98975383D01*
X138358939Y-99007722D01*
X138320128Y-99065805D01*
X138306012Y-99090257D01*
X138299319Y-99096949D01*
X138293619Y-99105481D01*
X138210481Y-99188619D01*
X138201949Y-99194319D01*
X138195257Y-99201012D01*
X138170805Y-99215128D01*
X138112722Y-99253939D01*
X138080383Y-99267334D01*
X138059610Y-99279328D01*
X138036441Y-99285535D01*
X138004099Y-99298933D01*
X137935569Y-99312564D01*
X137908316Y-99319867D01*
X137898858Y-99319867D01*
X137888788Y-99321870D01*
X137771212Y-99321870D01*
X137761142Y-99319867D01*
X137751684Y-99319867D01*
X137724432Y-99312564D01*
X137655900Y-99298933D01*
X137623555Y-99285535D01*
X137600390Y-99279328D01*
X137579618Y-99267335D01*
X137547277Y-99253939D01*
X137489186Y-99215124D01*
X137464743Y-99201012D01*
X137458052Y-99194321D01*
X137449518Y-99188619D01*
X137366380Y-99105481D01*
X137360677Y-99096946D01*
X137353988Y-99090257D01*
X137339877Y-99065816D01*
X137301060Y-99007722D01*
X137287662Y-98975377D01*
X137275672Y-98954610D01*
X137269465Y-98931448D01*
X137256066Y-98899099D01*
X137242433Y-98830562D01*
X137235133Y-98803316D01*
X137234208Y-98789210D01*
X137232889Y-98782577D01*
X137230241Y-98728686D01*
X137230000Y-98725000D01*
X137230000Y-97925000D01*
X137230241Y-97921316D01*
X137232889Y-97867422D01*
X137234208Y-97860787D01*
X137235133Y-97846684D01*
X137242432Y-97819440D01*
X137256066Y-97750900D01*
X137269466Y-97718548D01*
X137275672Y-97695390D01*
X137287660Y-97674624D01*
X137301060Y-97642277D01*
X137339881Y-97584175D01*
X137353988Y-97559743D01*
X137360675Y-97553055D01*
X137366380Y-97544518D01*
X137449518Y-97461380D01*
X137458055Y-97455675D01*
X137464743Y-97448988D01*
X137489175Y-97434881D01*
X137547277Y-97396060D01*
X137579624Y-97382660D01*
X137600390Y-97370672D01*
X137623548Y-97364466D01*
X137655900Y-97351066D01*
X137724437Y-97337433D01*
X137751684Y-97330133D01*
X137761142Y-97330133D01*
X137771212Y-97328130D01*
X137888788Y-97328130D01*
X137898858Y-97330133D01*
G37*
G36*
X146538858Y-97330133D02*
G01*
X146548316Y-97330133D01*
X146575563Y-97337433D01*
X146644099Y-97351066D01*
X146676448Y-97364465D01*
X146699610Y-97370672D01*
X146720377Y-97382662D01*
X146752722Y-97396060D01*
X146810816Y-97434877D01*
X146835257Y-97448988D01*
X146841946Y-97455677D01*
X146850481Y-97461380D01*
X146933619Y-97544518D01*
X146939321Y-97553052D01*
X146946012Y-97559743D01*
X146960124Y-97584186D01*
X146998939Y-97642277D01*
X147012335Y-97674618D01*
X147024328Y-97695390D01*
X147030535Y-97718555D01*
X147043933Y-97750900D01*
X147057563Y-97819426D01*
X147064867Y-97846684D01*
X147065791Y-97860795D01*
X147067110Y-97867422D01*
X147069758Y-97921311D01*
X147070000Y-97925000D01*
X147070000Y-98725000D01*
X147069758Y-98728691D01*
X147067110Y-98782577D01*
X147065791Y-98789203D01*
X147064867Y-98803316D01*
X147057562Y-98830576D01*
X147043933Y-98899099D01*
X147030535Y-98931441D01*
X147024328Y-98954610D01*
X147012334Y-98975383D01*
X146998939Y-99007722D01*
X146960128Y-99065805D01*
X146946012Y-99090257D01*
X146939319Y-99096949D01*
X146933619Y-99105481D01*
X146850481Y-99188619D01*
X146841949Y-99194319D01*
X146835257Y-99201012D01*
X146810805Y-99215128D01*
X146752722Y-99253939D01*
X146720383Y-99267334D01*
X146699610Y-99279328D01*
X146676441Y-99285535D01*
X146644099Y-99298933D01*
X146575569Y-99312564D01*
X146548316Y-99319867D01*
X146538858Y-99319867D01*
X146528788Y-99321870D01*
X146411212Y-99321870D01*
X146401142Y-99319867D01*
X146391684Y-99319867D01*
X146364432Y-99312564D01*
X146295900Y-99298933D01*
X146263555Y-99285535D01*
X146240390Y-99279328D01*
X146219618Y-99267335D01*
X146187277Y-99253939D01*
X146129186Y-99215124D01*
X146104743Y-99201012D01*
X146098052Y-99194321D01*
X146089518Y-99188619D01*
X146006380Y-99105481D01*
X146000677Y-99096946D01*
X145993988Y-99090257D01*
X145979877Y-99065816D01*
X145941060Y-99007722D01*
X145927662Y-98975377D01*
X145915672Y-98954610D01*
X145909465Y-98931448D01*
X145896066Y-98899099D01*
X145882433Y-98830562D01*
X145875133Y-98803316D01*
X145874208Y-98789210D01*
X145872889Y-98782577D01*
X145870241Y-98728686D01*
X145870000Y-98725000D01*
X145870000Y-97925000D01*
X145870241Y-97921316D01*
X145872889Y-97867422D01*
X145874208Y-97860787D01*
X145875133Y-97846684D01*
X145882432Y-97819440D01*
X145896066Y-97750900D01*
X145909466Y-97718548D01*
X145915672Y-97695390D01*
X145927660Y-97674624D01*
X145941060Y-97642277D01*
X145979881Y-97584175D01*
X145993988Y-97559743D01*
X146000675Y-97553055D01*
X146006380Y-97544518D01*
X146089518Y-97461380D01*
X146098055Y-97455675D01*
X146104743Y-97448988D01*
X146129175Y-97434881D01*
X146187277Y-97396060D01*
X146219624Y-97382660D01*
X146240390Y-97370672D01*
X146263548Y-97364466D01*
X146295900Y-97351066D01*
X146364437Y-97337433D01*
X146391684Y-97330133D01*
X146401142Y-97330133D01*
X146411212Y-97328130D01*
X146528788Y-97328130D01*
X146538858Y-97330133D01*
G37*
G36*
X132948708Y-94744194D02*
G01*
X133239311Y-94822061D01*
X133517264Y-94937193D01*
X133777812Y-95087620D01*
X134016495Y-95270768D01*
X134229232Y-95483505D01*
X134412380Y-95722188D01*
X134562807Y-95982736D01*
X134677939Y-96260689D01*
X134755806Y-96551292D01*
X134795076Y-96849573D01*
X134795076Y-97150427D01*
X134755806Y-97448708D01*
X134677939Y-97739311D01*
X134562807Y-98017264D01*
X134412380Y-98277812D01*
X134229232Y-98516495D01*
X134016495Y-98729232D01*
X133777812Y-98912380D01*
X133517264Y-99062807D01*
X133239311Y-99177939D01*
X132948708Y-99255806D01*
X132650427Y-99295076D01*
X132349573Y-99295076D01*
X132051292Y-99255806D01*
X131760689Y-99177939D01*
X131482736Y-99062807D01*
X131222188Y-98912380D01*
X130983505Y-98729232D01*
X130770768Y-98516495D01*
X130587620Y-98277812D01*
X130437193Y-98017264D01*
X130322061Y-97739311D01*
X130244194Y-97448708D01*
X130204924Y-97150427D01*
X130204924Y-96849573D01*
X130244194Y-96551292D01*
X130322061Y-96260689D01*
X130437193Y-95982736D01*
X130587620Y-95722188D01*
X130770768Y-95483505D01*
X130983505Y-95270768D01*
X131222188Y-95087620D01*
X131482736Y-94937193D01*
X131760689Y-94822061D01*
X132051292Y-94744194D01*
X132349573Y-94704924D01*
X132650427Y-94704924D01*
X132948708Y-94744194D01*
G37*
G36*
X118998858Y-93000133D02*
G01*
X119008316Y-93000133D01*
X119035563Y-93007433D01*
X119104099Y-93021066D01*
X119136448Y-93034465D01*
X119159610Y-93040672D01*
X119180377Y-93052662D01*
X119212722Y-93066060D01*
X119270816Y-93104877D01*
X119295257Y-93118988D01*
X119301946Y-93125677D01*
X119310481Y-93131380D01*
X119393619Y-93214518D01*
X119399321Y-93223052D01*
X119406012Y-93229743D01*
X119420124Y-93254186D01*
X119458939Y-93312277D01*
X119472335Y-93344618D01*
X119484328Y-93365390D01*
X119490535Y-93388555D01*
X119503933Y-93420900D01*
X119517563Y-93489426D01*
X119524867Y-93516684D01*
X119525791Y-93530795D01*
X119527110Y-93537422D01*
X119529758Y-93591311D01*
X119530000Y-93595000D01*
X119530000Y-94695000D01*
X119529758Y-94698691D01*
X119527110Y-94752577D01*
X119525791Y-94759203D01*
X119524867Y-94773316D01*
X119517562Y-94800576D01*
X119503933Y-94869099D01*
X119490535Y-94901441D01*
X119484328Y-94924610D01*
X119472334Y-94945383D01*
X119458939Y-94977722D01*
X119420128Y-95035805D01*
X119406012Y-95060257D01*
X119399319Y-95066949D01*
X119393619Y-95075481D01*
X119310481Y-95158619D01*
X119301949Y-95164319D01*
X119295257Y-95171012D01*
X119270805Y-95185128D01*
X119212722Y-95223939D01*
X119180383Y-95237334D01*
X119159610Y-95249328D01*
X119136441Y-95255535D01*
X119104099Y-95268933D01*
X119035569Y-95282564D01*
X119008316Y-95289867D01*
X118998858Y-95289867D01*
X118988788Y-95291870D01*
X118871212Y-95291870D01*
X118861142Y-95289867D01*
X118851684Y-95289867D01*
X118824432Y-95282564D01*
X118755900Y-95268933D01*
X118723555Y-95255535D01*
X118700390Y-95249328D01*
X118679618Y-95237335D01*
X118647277Y-95223939D01*
X118589186Y-95185124D01*
X118564743Y-95171012D01*
X118558052Y-95164321D01*
X118549518Y-95158619D01*
X118466380Y-95075481D01*
X118460677Y-95066946D01*
X118453988Y-95060257D01*
X118439877Y-95035816D01*
X118401060Y-94977722D01*
X118387662Y-94945377D01*
X118375672Y-94924610D01*
X118369465Y-94901448D01*
X118356066Y-94869099D01*
X118342433Y-94800562D01*
X118335133Y-94773316D01*
X118334208Y-94759210D01*
X118332889Y-94752577D01*
X118330241Y-94698686D01*
X118330000Y-94695000D01*
X118330000Y-93595000D01*
X118330241Y-93591316D01*
X118332889Y-93537422D01*
X118334208Y-93530787D01*
X118335133Y-93516684D01*
X118342432Y-93489440D01*
X118356066Y-93420900D01*
X118369466Y-93388548D01*
X118375672Y-93365390D01*
X118387660Y-93344624D01*
X118401060Y-93312277D01*
X118439881Y-93254175D01*
X118453988Y-93229743D01*
X118460675Y-93223055D01*
X118466380Y-93214518D01*
X118549518Y-93131380D01*
X118558055Y-93125675D01*
X118564743Y-93118988D01*
X118589175Y-93104881D01*
X118647277Y-93066060D01*
X118679624Y-93052660D01*
X118700390Y-93040672D01*
X118723548Y-93034466D01*
X118755900Y-93021066D01*
X118824437Y-93007433D01*
X118851684Y-93000133D01*
X118861142Y-93000133D01*
X118871212Y-92998130D01*
X118988788Y-92998130D01*
X118998858Y-93000133D01*
G37*
G36*
X127638858Y-93000133D02*
G01*
X127648316Y-93000133D01*
X127675563Y-93007433D01*
X127744099Y-93021066D01*
X127776448Y-93034465D01*
X127799610Y-93040672D01*
X127820377Y-93052662D01*
X127852722Y-93066060D01*
X127910816Y-93104877D01*
X127935257Y-93118988D01*
X127941946Y-93125677D01*
X127950481Y-93131380D01*
X128033619Y-93214518D01*
X128039321Y-93223052D01*
X128046012Y-93229743D01*
X128060124Y-93254186D01*
X128098939Y-93312277D01*
X128112335Y-93344618D01*
X128124328Y-93365390D01*
X128130535Y-93388555D01*
X128143933Y-93420900D01*
X128157563Y-93489426D01*
X128164867Y-93516684D01*
X128165791Y-93530795D01*
X128167110Y-93537422D01*
X128169758Y-93591311D01*
X128170000Y-93595000D01*
X128170000Y-94695000D01*
X128169758Y-94698691D01*
X128167110Y-94752577D01*
X128165791Y-94759203D01*
X128164867Y-94773316D01*
X128157562Y-94800576D01*
X128143933Y-94869099D01*
X128130535Y-94901441D01*
X128124328Y-94924610D01*
X128112334Y-94945383D01*
X128098939Y-94977722D01*
X128060128Y-95035805D01*
X128046012Y-95060257D01*
X128039319Y-95066949D01*
X128033619Y-95075481D01*
X127950481Y-95158619D01*
X127941949Y-95164319D01*
X127935257Y-95171012D01*
X127910805Y-95185128D01*
X127852722Y-95223939D01*
X127820383Y-95237334D01*
X127799610Y-95249328D01*
X127776441Y-95255535D01*
X127744099Y-95268933D01*
X127675569Y-95282564D01*
X127648316Y-95289867D01*
X127638858Y-95289867D01*
X127628788Y-95291870D01*
X127511212Y-95291870D01*
X127501142Y-95289867D01*
X127491684Y-95289867D01*
X127464432Y-95282564D01*
X127395900Y-95268933D01*
X127363555Y-95255535D01*
X127340390Y-95249328D01*
X127319618Y-95237335D01*
X127287277Y-95223939D01*
X127229186Y-95185124D01*
X127204743Y-95171012D01*
X127198052Y-95164321D01*
X127189518Y-95158619D01*
X127106380Y-95075481D01*
X127100677Y-95066946D01*
X127093988Y-95060257D01*
X127079877Y-95035816D01*
X127041060Y-94977722D01*
X127027662Y-94945377D01*
X127015672Y-94924610D01*
X127009465Y-94901448D01*
X126996066Y-94869099D01*
X126982433Y-94800562D01*
X126975133Y-94773316D01*
X126974208Y-94759210D01*
X126972889Y-94752577D01*
X126970241Y-94698686D01*
X126970000Y-94695000D01*
X126970000Y-93595000D01*
X126970241Y-93591316D01*
X126972889Y-93537422D01*
X126974208Y-93530787D01*
X126975133Y-93516684D01*
X126982432Y-93489440D01*
X126996066Y-93420900D01*
X127009466Y-93388548D01*
X127015672Y-93365390D01*
X127027660Y-93344624D01*
X127041060Y-93312277D01*
X127079881Y-93254175D01*
X127093988Y-93229743D01*
X127100675Y-93223055D01*
X127106380Y-93214518D01*
X127189518Y-93131380D01*
X127198055Y-93125675D01*
X127204743Y-93118988D01*
X127229175Y-93104881D01*
X127287277Y-93066060D01*
X127319624Y-93052660D01*
X127340390Y-93040672D01*
X127363548Y-93034466D01*
X127395900Y-93021066D01*
X127464437Y-93007433D01*
X127491684Y-93000133D01*
X127501142Y-93000133D01*
X127511212Y-92998130D01*
X127628788Y-92998130D01*
X127638858Y-93000133D01*
G37*
G36*
X137898858Y-93000133D02*
G01*
X137908316Y-93000133D01*
X137935563Y-93007433D01*
X138004099Y-93021066D01*
X138036448Y-93034465D01*
X138059610Y-93040672D01*
X138080377Y-93052662D01*
X138112722Y-93066060D01*
X138170816Y-93104877D01*
X138195257Y-93118988D01*
X138201946Y-93125677D01*
X138210481Y-93131380D01*
X138293619Y-93214518D01*
X138299321Y-93223052D01*
X138306012Y-93229743D01*
X138320124Y-93254186D01*
X138358939Y-93312277D01*
X138372335Y-93344618D01*
X138384328Y-93365390D01*
X138390535Y-93388555D01*
X138403933Y-93420900D01*
X138417563Y-93489426D01*
X138424867Y-93516684D01*
X138425791Y-93530795D01*
X138427110Y-93537422D01*
X138429758Y-93591311D01*
X138430000Y-93595000D01*
X138430000Y-94695000D01*
X138429758Y-94698691D01*
X138427110Y-94752577D01*
X138425791Y-94759203D01*
X138424867Y-94773316D01*
X138417562Y-94800576D01*
X138403933Y-94869099D01*
X138390535Y-94901441D01*
X138384328Y-94924610D01*
X138372334Y-94945383D01*
X138358939Y-94977722D01*
X138320128Y-95035805D01*
X138306012Y-95060257D01*
X138299319Y-95066949D01*
X138293619Y-95075481D01*
X138210481Y-95158619D01*
X138201949Y-95164319D01*
X138195257Y-95171012D01*
X138170805Y-95185128D01*
X138112722Y-95223939D01*
X138080383Y-95237334D01*
X138059610Y-95249328D01*
X138036441Y-95255535D01*
X138004099Y-95268933D01*
X137935569Y-95282564D01*
X137908316Y-95289867D01*
X137898858Y-95289867D01*
X137888788Y-95291870D01*
X137771212Y-95291870D01*
X137761142Y-95289867D01*
X137751684Y-95289867D01*
X137724432Y-95282564D01*
X137655900Y-95268933D01*
X137623555Y-95255535D01*
X137600390Y-95249328D01*
X137579618Y-95237335D01*
X137547277Y-95223939D01*
X137489186Y-95185124D01*
X137464743Y-95171012D01*
X137458052Y-95164321D01*
X137449518Y-95158619D01*
X137366380Y-95075481D01*
X137360677Y-95066946D01*
X137353988Y-95060257D01*
X137339877Y-95035816D01*
X137301060Y-94977722D01*
X137287662Y-94945377D01*
X137275672Y-94924610D01*
X137269465Y-94901448D01*
X137256066Y-94869099D01*
X137242433Y-94800562D01*
X137235133Y-94773316D01*
X137234208Y-94759210D01*
X137232889Y-94752577D01*
X137230241Y-94698686D01*
X137230000Y-94695000D01*
X137230000Y-93595000D01*
X137230241Y-93591316D01*
X137232889Y-93537422D01*
X137234208Y-93530787D01*
X137235133Y-93516684D01*
X137242432Y-93489440D01*
X137256066Y-93420900D01*
X137269466Y-93388548D01*
X137275672Y-93365390D01*
X137287660Y-93344624D01*
X137301060Y-93312277D01*
X137339881Y-93254175D01*
X137353988Y-93229743D01*
X137360675Y-93223055D01*
X137366380Y-93214518D01*
X137449518Y-93131380D01*
X137458055Y-93125675D01*
X137464743Y-93118988D01*
X137489175Y-93104881D01*
X137547277Y-93066060D01*
X137579624Y-93052660D01*
X137600390Y-93040672D01*
X137623548Y-93034466D01*
X137655900Y-93021066D01*
X137724437Y-93007433D01*
X137751684Y-93000133D01*
X137761142Y-93000133D01*
X137771212Y-92998130D01*
X137888788Y-92998130D01*
X137898858Y-93000133D01*
G37*
G36*
X146538858Y-93000133D02*
G01*
X146548316Y-93000133D01*
X146575563Y-93007433D01*
X146644099Y-93021066D01*
X146676448Y-93034465D01*
X146699610Y-93040672D01*
X146720377Y-93052662D01*
X146752722Y-93066060D01*
X146810816Y-93104877D01*
X146835257Y-93118988D01*
X146841946Y-93125677D01*
X146850481Y-93131380D01*
X146933619Y-93214518D01*
X146939321Y-93223052D01*
X146946012Y-93229743D01*
X146960124Y-93254186D01*
X146998939Y-93312277D01*
X147012335Y-93344618D01*
X147024328Y-93365390D01*
X147030535Y-93388555D01*
X147043933Y-93420900D01*
X147057563Y-93489426D01*
X147064867Y-93516684D01*
X147065791Y-93530795D01*
X147067110Y-93537422D01*
X147069758Y-93591311D01*
X147070000Y-93595000D01*
X147070000Y-94695000D01*
X147069758Y-94698691D01*
X147067110Y-94752577D01*
X147065791Y-94759203D01*
X147064867Y-94773316D01*
X147057562Y-94800576D01*
X147043933Y-94869099D01*
X147030535Y-94901441D01*
X147024328Y-94924610D01*
X147012334Y-94945383D01*
X146998939Y-94977722D01*
X146960128Y-95035805D01*
X146946012Y-95060257D01*
X146939319Y-95066949D01*
X146933619Y-95075481D01*
X146850481Y-95158619D01*
X146841949Y-95164319D01*
X146835257Y-95171012D01*
X146810805Y-95185128D01*
X146752722Y-95223939D01*
X146720383Y-95237334D01*
X146699610Y-95249328D01*
X146676441Y-95255535D01*
X146644099Y-95268933D01*
X146575569Y-95282564D01*
X146548316Y-95289867D01*
X146538858Y-95289867D01*
X146528788Y-95291870D01*
X146411212Y-95291870D01*
X146401142Y-95289867D01*
X146391684Y-95289867D01*
X146364432Y-95282564D01*
X146295900Y-95268933D01*
X146263555Y-95255535D01*
X146240390Y-95249328D01*
X146219618Y-95237335D01*
X146187277Y-95223939D01*
X146129186Y-95185124D01*
X146104743Y-95171012D01*
X146098052Y-95164321D01*
X146089518Y-95158619D01*
X146006380Y-95075481D01*
X146000677Y-95066946D01*
X145993988Y-95060257D01*
X145979877Y-95035816D01*
X145941060Y-94977722D01*
X145927662Y-94945377D01*
X145915672Y-94924610D01*
X145909465Y-94901448D01*
X145896066Y-94869099D01*
X145882433Y-94800562D01*
X145875133Y-94773316D01*
X145874208Y-94759210D01*
X145872889Y-94752577D01*
X145870241Y-94698686D01*
X145870000Y-94695000D01*
X145870000Y-93595000D01*
X145870241Y-93591316D01*
X145872889Y-93537422D01*
X145874208Y-93530787D01*
X145875133Y-93516684D01*
X145882432Y-93489440D01*
X145896066Y-93420900D01*
X145909466Y-93388548D01*
X145915672Y-93365390D01*
X145927660Y-93344624D01*
X145941060Y-93312277D01*
X145979881Y-93254175D01*
X145993988Y-93229743D01*
X146000675Y-93223055D01*
X146006380Y-93214518D01*
X146089518Y-93131380D01*
X146098055Y-93125675D01*
X146104743Y-93118988D01*
X146129175Y-93104881D01*
X146187277Y-93066060D01*
X146219624Y-93052660D01*
X146240390Y-93040672D01*
X146263548Y-93034466D01*
X146295900Y-93021066D01*
X146364437Y-93007433D01*
X146391684Y-93000133D01*
X146401142Y-93000133D01*
X146411212Y-92998130D01*
X146528788Y-92998130D01*
X146538858Y-93000133D01*
G37*
G36*
X120522640Y-94252351D02*
G01*
X120618724Y-94307825D01*
X120697175Y-94386276D01*
X120752649Y-94482360D01*
X120781364Y-94589526D01*
X120781364Y-94700474D01*
X120752649Y-94807640D01*
X120697175Y-94903724D01*
X120618724Y-94982175D01*
X120522640Y-95037649D01*
X120415474Y-95066364D01*
X120304526Y-95066364D01*
X120197360Y-95037649D01*
X120101276Y-94982175D01*
X120022825Y-94903724D01*
X119967351Y-94807640D01*
X119938636Y-94700474D01*
X119938636Y-94589526D01*
X119967351Y-94482360D01*
X120022825Y-94386276D01*
X120101276Y-94307825D01*
X120197360Y-94252351D01*
X120304526Y-94223636D01*
X120415474Y-94223636D01*
X120522640Y-94252351D01*
G37*
G36*
X126302640Y-94252351D02*
G01*
X126398724Y-94307825D01*
X126477175Y-94386276D01*
X126532649Y-94482360D01*
X126561364Y-94589526D01*
X126561364Y-94700474D01*
X126532649Y-94807640D01*
X126477175Y-94903724D01*
X126398724Y-94982175D01*
X126302640Y-95037649D01*
X126195474Y-95066364D01*
X126084526Y-95066364D01*
X125977360Y-95037649D01*
X125881276Y-94982175D01*
X125802825Y-94903724D01*
X125747351Y-94807640D01*
X125718636Y-94700474D01*
X125718636Y-94589526D01*
X125747351Y-94482360D01*
X125802825Y-94386276D01*
X125881276Y-94307825D01*
X125977360Y-94252351D01*
X126084526Y-94223636D01*
X126195474Y-94223636D01*
X126302640Y-94252351D01*
G37*
G36*
X139422640Y-94252351D02*
G01*
X139518724Y-94307825D01*
X139597175Y-94386276D01*
X139652649Y-94482360D01*
X139681364Y-94589526D01*
X139681364Y-94700474D01*
X139652649Y-94807640D01*
X139597175Y-94903724D01*
X139518724Y-94982175D01*
X139422640Y-95037649D01*
X139315474Y-95066364D01*
X139204526Y-95066364D01*
X139097360Y-95037649D01*
X139001276Y-94982175D01*
X138922825Y-94903724D01*
X138867351Y-94807640D01*
X138838636Y-94700474D01*
X138838636Y-94589526D01*
X138867351Y-94482360D01*
X138922825Y-94386276D01*
X139001276Y-94307825D01*
X139097360Y-94252351D01*
X139204526Y-94223636D01*
X139315474Y-94223636D01*
X139422640Y-94252351D01*
G37*
G36*
X145202640Y-94252351D02*
G01*
X145298724Y-94307825D01*
X145377175Y-94386276D01*
X145432649Y-94482360D01*
X145461364Y-94589526D01*
X145461364Y-94700474D01*
X145432649Y-94807640D01*
X145377175Y-94903724D01*
X145298724Y-94982175D01*
X145202640Y-95037649D01*
X145095474Y-95066364D01*
X144984526Y-95066364D01*
X144877360Y-95037649D01*
X144781276Y-94982175D01*
X144702825Y-94903724D01*
X144647351Y-94807640D01*
X144618636Y-94700474D01*
X144618636Y-94589526D01*
X144647351Y-94482360D01*
X144702825Y-94386276D01*
X144781276Y-94307825D01*
X144877360Y-94252351D01*
X144984526Y-94223636D01*
X145095474Y-94223636D01*
X145202640Y-94252351D01*
G37*
G36*
X144948686Y-88220241D02*
G01*
X145002577Y-88222889D01*
X145009210Y-88224208D01*
X145023316Y-88225133D01*
X145050562Y-88232433D01*
X145119099Y-88246066D01*
X145151448Y-88259465D01*
X145174610Y-88265672D01*
X145195377Y-88277662D01*
X145227722Y-88291060D01*
X145285816Y-88329877D01*
X145310257Y-88343988D01*
X145316946Y-88350677D01*
X145325481Y-88356380D01*
X145408619Y-88439518D01*
X145414321Y-88448052D01*
X145421012Y-88454743D01*
X145435124Y-88479186D01*
X145473939Y-88537277D01*
X145487335Y-88569618D01*
X145499328Y-88590390D01*
X145505535Y-88613555D01*
X145518933Y-88645900D01*
X145532565Y-88714433D01*
X145539867Y-88741684D01*
X145539867Y-88751141D01*
X145541870Y-88761211D01*
X145541870Y-88878788D01*
X145539867Y-88888857D01*
X145539867Y-88898316D01*
X145532564Y-88925569D01*
X145518933Y-88994099D01*
X145505535Y-89026441D01*
X145499328Y-89049610D01*
X145487334Y-89070383D01*
X145473939Y-89102722D01*
X145435128Y-89160805D01*
X145421012Y-89185257D01*
X145414319Y-89191949D01*
X145408619Y-89200481D01*
X145325481Y-89283619D01*
X145316949Y-89289319D01*
X145310257Y-89296012D01*
X145285805Y-89310128D01*
X145227722Y-89348939D01*
X145195383Y-89362334D01*
X145174610Y-89374328D01*
X145151441Y-89380535D01*
X145119099Y-89393933D01*
X145050576Y-89407562D01*
X145023316Y-89414867D01*
X145009203Y-89415791D01*
X145002577Y-89417110D01*
X144948691Y-89419758D01*
X144945000Y-89420000D01*
X144943768Y-89420000D01*
X143846232Y-89420000D01*
X143845000Y-89420000D01*
X143841308Y-89419758D01*
X143787422Y-89417110D01*
X143780795Y-89415791D01*
X143766684Y-89414867D01*
X143739426Y-89407563D01*
X143670900Y-89393933D01*
X143638555Y-89380535D01*
X143615390Y-89374328D01*
X143594618Y-89362335D01*
X143562277Y-89348939D01*
X143504186Y-89310124D01*
X143479743Y-89296012D01*
X143473052Y-89289321D01*
X143464518Y-89283619D01*
X143381380Y-89200481D01*
X143375677Y-89191946D01*
X143368988Y-89185257D01*
X143354877Y-89160816D01*
X143316060Y-89102722D01*
X143302662Y-89070377D01*
X143290672Y-89049610D01*
X143284465Y-89026448D01*
X143271066Y-88994099D01*
X143257433Y-88925563D01*
X143250133Y-88898316D01*
X143250133Y-88888858D01*
X143248130Y-88878788D01*
X143248130Y-88761211D01*
X143250133Y-88751140D01*
X143250133Y-88741684D01*
X143257433Y-88714439D01*
X143271066Y-88645900D01*
X143284466Y-88613548D01*
X143290672Y-88590390D01*
X143302660Y-88569624D01*
X143316060Y-88537277D01*
X143354881Y-88479175D01*
X143368988Y-88454743D01*
X143375675Y-88448055D01*
X143381380Y-88439518D01*
X143464518Y-88356380D01*
X143473055Y-88350675D01*
X143479743Y-88343988D01*
X143504175Y-88329881D01*
X143562277Y-88291060D01*
X143594624Y-88277660D01*
X143615390Y-88265672D01*
X143638548Y-88259466D01*
X143670900Y-88246066D01*
X143739440Y-88232432D01*
X143766684Y-88225133D01*
X143780787Y-88224208D01*
X143787422Y-88222889D01*
X143841313Y-88220241D01*
X143845000Y-88220000D01*
X144945000Y-88220000D01*
X144948686Y-88220241D01*
G37*
G36*
X148978686Y-88220241D02*
G01*
X149032577Y-88222889D01*
X149039210Y-88224208D01*
X149053316Y-88225133D01*
X149080562Y-88232433D01*
X149149099Y-88246066D01*
X149181448Y-88259465D01*
X149204610Y-88265672D01*
X149225377Y-88277662D01*
X149257722Y-88291060D01*
X149315816Y-88329877D01*
X149340257Y-88343988D01*
X149346946Y-88350677D01*
X149355481Y-88356380D01*
X149438619Y-88439518D01*
X149444321Y-88448052D01*
X149451012Y-88454743D01*
X149465124Y-88479186D01*
X149503939Y-88537277D01*
X149517335Y-88569618D01*
X149529328Y-88590390D01*
X149535535Y-88613555D01*
X149548933Y-88645900D01*
X149562565Y-88714433D01*
X149569867Y-88741684D01*
X149569867Y-88751141D01*
X149571870Y-88761211D01*
X149571870Y-88878788D01*
X149569867Y-88888857D01*
X149569867Y-88898316D01*
X149562564Y-88925569D01*
X149548933Y-88994099D01*
X149535535Y-89026441D01*
X149529328Y-89049610D01*
X149517334Y-89070383D01*
X149503939Y-89102722D01*
X149465128Y-89160805D01*
X149451012Y-89185257D01*
X149444319Y-89191949D01*
X149438619Y-89200481D01*
X149355481Y-89283619D01*
X149346949Y-89289319D01*
X149340257Y-89296012D01*
X149315805Y-89310128D01*
X149257722Y-89348939D01*
X149225383Y-89362334D01*
X149204610Y-89374328D01*
X149181441Y-89380535D01*
X149149099Y-89393933D01*
X149080576Y-89407562D01*
X149053316Y-89414867D01*
X149039203Y-89415791D01*
X149032577Y-89417110D01*
X148978691Y-89419758D01*
X148975000Y-89420000D01*
X148973768Y-89420000D01*
X148176232Y-89420000D01*
X148175000Y-89420000D01*
X148171308Y-89419758D01*
X148117422Y-89417110D01*
X148110795Y-89415791D01*
X148096684Y-89414867D01*
X148069426Y-89407563D01*
X148000900Y-89393933D01*
X147968555Y-89380535D01*
X147945390Y-89374328D01*
X147924618Y-89362335D01*
X147892277Y-89348939D01*
X147834186Y-89310124D01*
X147809743Y-89296012D01*
X147803052Y-89289321D01*
X147794518Y-89283619D01*
X147711380Y-89200481D01*
X147705677Y-89191946D01*
X147698988Y-89185257D01*
X147684877Y-89160816D01*
X147646060Y-89102722D01*
X147632662Y-89070377D01*
X147620672Y-89049610D01*
X147614465Y-89026448D01*
X147601066Y-88994099D01*
X147587433Y-88925563D01*
X147580133Y-88898316D01*
X147580133Y-88888858D01*
X147578130Y-88878788D01*
X147578130Y-88761211D01*
X147580133Y-88751140D01*
X147580133Y-88741684D01*
X147587433Y-88714439D01*
X147601066Y-88645900D01*
X147614466Y-88613548D01*
X147620672Y-88590390D01*
X147632660Y-88569624D01*
X147646060Y-88537277D01*
X147684881Y-88479175D01*
X147698988Y-88454743D01*
X147705675Y-88448055D01*
X147711380Y-88439518D01*
X147794518Y-88356380D01*
X147803055Y-88350675D01*
X147809743Y-88343988D01*
X147834175Y-88329881D01*
X147892277Y-88291060D01*
X147924624Y-88277660D01*
X147945390Y-88265672D01*
X147968548Y-88259466D01*
X148000900Y-88246066D01*
X148069440Y-88232432D01*
X148096684Y-88225133D01*
X148110787Y-88224208D01*
X148117422Y-88222889D01*
X148171313Y-88220241D01*
X148175000Y-88220000D01*
X148975000Y-88220000D01*
X148978686Y-88220241D01*
G37*
G36*
X145057640Y-86997351D02*
G01*
X145153724Y-87052825D01*
X145232175Y-87131276D01*
X145287649Y-87227360D01*
X145316364Y-87334526D01*
X145316364Y-87445474D01*
X145287649Y-87552640D01*
X145232175Y-87648724D01*
X145153724Y-87727175D01*
X145057640Y-87782649D01*
X144950474Y-87811364D01*
X144839526Y-87811364D01*
X144732360Y-87782649D01*
X144636276Y-87727175D01*
X144557825Y-87648724D01*
X144502351Y-87552640D01*
X144473636Y-87445474D01*
X144473636Y-87334526D01*
X144502351Y-87227360D01*
X144557825Y-87131276D01*
X144636276Y-87052825D01*
X144732360Y-86997351D01*
X144839526Y-86968636D01*
X144950474Y-86968636D01*
X145057640Y-86997351D01*
G37*
G36*
X142879047Y-85800805D02*
G01*
X142930408Y-85806764D01*
X142947954Y-85814511D01*
X142970671Y-85819030D01*
X142994991Y-85835280D01*
X143015793Y-85844465D01*
X143030000Y-85858672D01*
X143051777Y-85873223D01*
X143066327Y-85894999D01*
X143080534Y-85909206D01*
X143089718Y-85930006D01*
X143105970Y-85954329D01*
X143110489Y-85977048D01*
X143118235Y-85994591D01*
X143124192Y-86045940D01*
X143125000Y-86050000D01*
X143125000Y-86350000D01*
X143124192Y-86354059D01*
X143118235Y-86405408D01*
X143110489Y-86422950D01*
X143105970Y-86445671D01*
X143089716Y-86469995D01*
X143080534Y-86490793D01*
X143066329Y-86504997D01*
X143051777Y-86526777D01*
X143029997Y-86541329D01*
X143015793Y-86555534D01*
X142994995Y-86564716D01*
X142970671Y-86580970D01*
X142947950Y-86585489D01*
X142930408Y-86593235D01*
X142879061Y-86599192D01*
X142875000Y-86600000D01*
X141850000Y-86600000D01*
X141845941Y-86599192D01*
X141794591Y-86593235D01*
X141777048Y-86585489D01*
X141754329Y-86580970D01*
X141730006Y-86564718D01*
X141709206Y-86555534D01*
X141694999Y-86541327D01*
X141673223Y-86526777D01*
X141658672Y-86505000D01*
X141644465Y-86490793D01*
X141635280Y-86469991D01*
X141619030Y-86445671D01*
X141614511Y-86422954D01*
X141606764Y-86405408D01*
X141600805Y-86354049D01*
X141600000Y-86350000D01*
X141600000Y-86050000D01*
X141600804Y-86045953D01*
X141606764Y-85994591D01*
X141614511Y-85977043D01*
X141619030Y-85954329D01*
X141635278Y-85930010D01*
X141644465Y-85909206D01*
X141658674Y-85894996D01*
X141673223Y-85873223D01*
X141694996Y-85858674D01*
X141709206Y-85844465D01*
X141730010Y-85835278D01*
X141754329Y-85819030D01*
X141777043Y-85814511D01*
X141794591Y-85806764D01*
X141845952Y-85800805D01*
X141850000Y-85800000D01*
X142875000Y-85800000D01*
X142879047Y-85800805D01*
G37*
G36*
X145154047Y-85800805D02*
G01*
X145205408Y-85806764D01*
X145222954Y-85814511D01*
X145245671Y-85819030D01*
X145269991Y-85835280D01*
X145290793Y-85844465D01*
X145305000Y-85858672D01*
X145326777Y-85873223D01*
X145341327Y-85894999D01*
X145355534Y-85909206D01*
X145364718Y-85930006D01*
X145380970Y-85954329D01*
X145385489Y-85977048D01*
X145393235Y-85994591D01*
X145399192Y-86045940D01*
X145400000Y-86050000D01*
X145400000Y-86350000D01*
X145399192Y-86354059D01*
X145393235Y-86405408D01*
X145385489Y-86422950D01*
X145380970Y-86445671D01*
X145364716Y-86469995D01*
X145355534Y-86490793D01*
X145341329Y-86504997D01*
X145326777Y-86526777D01*
X145304997Y-86541329D01*
X145290793Y-86555534D01*
X145269995Y-86564716D01*
X145245671Y-86580970D01*
X145222950Y-86585489D01*
X145205408Y-86593235D01*
X145154061Y-86599192D01*
X145150000Y-86600000D01*
X144125000Y-86600000D01*
X144120941Y-86599192D01*
X144069591Y-86593235D01*
X144052048Y-86585489D01*
X144029329Y-86580970D01*
X144005006Y-86564718D01*
X143984206Y-86555534D01*
X143969999Y-86541327D01*
X143948223Y-86526777D01*
X143933672Y-86505000D01*
X143919465Y-86490793D01*
X143910280Y-86469991D01*
X143894030Y-86445671D01*
X143889511Y-86422954D01*
X143881764Y-86405408D01*
X143875805Y-86354049D01*
X143875000Y-86350000D01*
X143875000Y-86050000D01*
X143875804Y-86045953D01*
X143881764Y-85994591D01*
X143889511Y-85977043D01*
X143894030Y-85954329D01*
X143910278Y-85930010D01*
X143919465Y-85909206D01*
X143933674Y-85894996D01*
X143948223Y-85873223D01*
X143969996Y-85858674D01*
X143984206Y-85844465D01*
X144005010Y-85835278D01*
X144029329Y-85819030D01*
X144052043Y-85814511D01*
X144069591Y-85806764D01*
X144120952Y-85800805D01*
X144125000Y-85800000D01*
X145150000Y-85800000D01*
X145154047Y-85800805D01*
G37*
G36*
X140909046Y-85100804D02*
G01*
X140961553Y-85106896D01*
X140979494Y-85114818D01*
X141002584Y-85119411D01*
X141027304Y-85135928D01*
X141048619Y-85145340D01*
X141063176Y-85159897D01*
X141085312Y-85174688D01*
X141100102Y-85196823D01*
X141114659Y-85211380D01*
X141124069Y-85232693D01*
X141140589Y-85257416D01*
X141145182Y-85280507D01*
X141153103Y-85298446D01*
X141159192Y-85350942D01*
X141160000Y-85355000D01*
X141160000Y-85780000D01*
X141159192Y-85784058D01*
X141153103Y-85836553D01*
X141145182Y-85854490D01*
X141140589Y-85877584D01*
X141124068Y-85902308D01*
X141114659Y-85923619D01*
X141100104Y-85938173D01*
X141085312Y-85960312D01*
X141063173Y-85975104D01*
X141048619Y-85989659D01*
X141027308Y-85999068D01*
X141002584Y-86015589D01*
X140979490Y-86020182D01*
X140961553Y-86028103D01*
X140909058Y-86034192D01*
X140905000Y-86035000D01*
X140595000Y-86035000D01*
X140590942Y-86034192D01*
X140538446Y-86028103D01*
X140520507Y-86020182D01*
X140497416Y-86015589D01*
X140472693Y-85999069D01*
X140451380Y-85989659D01*
X140436823Y-85975102D01*
X140414688Y-85960312D01*
X140399897Y-85938176D01*
X140385340Y-85923619D01*
X140375928Y-85902304D01*
X140359411Y-85877584D01*
X140354818Y-85854494D01*
X140346896Y-85836553D01*
X140340804Y-85784046D01*
X140340000Y-85780000D01*
X140340000Y-85355000D01*
X140340804Y-85350954D01*
X140346896Y-85298446D01*
X140354818Y-85280503D01*
X140359411Y-85257416D01*
X140375927Y-85232697D01*
X140385340Y-85211380D01*
X140399899Y-85196820D01*
X140414688Y-85174688D01*
X140436820Y-85159899D01*
X140451380Y-85145340D01*
X140472697Y-85135927D01*
X140497416Y-85119411D01*
X140520503Y-85114818D01*
X140538446Y-85106896D01*
X140590954Y-85100804D01*
X140595000Y-85100000D01*
X140905000Y-85100000D01*
X140909046Y-85100804D01*
G37*
G36*
X145154047Y-84850805D02*
G01*
X145205408Y-84856764D01*
X145222954Y-84864511D01*
X145245671Y-84869030D01*
X145269991Y-84885280D01*
X145290793Y-84894465D01*
X145305000Y-84908672D01*
X145326777Y-84923223D01*
X145341327Y-84944999D01*
X145355534Y-84959206D01*
X145364718Y-84980006D01*
X145380970Y-85004329D01*
X145385489Y-85027048D01*
X145393235Y-85044591D01*
X145399192Y-85095940D01*
X145400000Y-85100000D01*
X145400000Y-85400000D01*
X145399192Y-85404059D01*
X145393235Y-85455408D01*
X145385489Y-85472950D01*
X145380970Y-85495671D01*
X145364716Y-85519995D01*
X145355534Y-85540793D01*
X145341329Y-85554997D01*
X145326777Y-85576777D01*
X145304997Y-85591329D01*
X145290793Y-85605534D01*
X145269995Y-85614716D01*
X145245671Y-85630970D01*
X145222950Y-85635489D01*
X145205408Y-85643235D01*
X145154061Y-85649192D01*
X145150000Y-85650000D01*
X144125000Y-85650000D01*
X144120941Y-85649192D01*
X144069591Y-85643235D01*
X144052048Y-85635489D01*
X144029329Y-85630970D01*
X144005006Y-85614718D01*
X143984206Y-85605534D01*
X143969999Y-85591327D01*
X143948223Y-85576777D01*
X143933672Y-85555000D01*
X143919465Y-85540793D01*
X143910280Y-85519991D01*
X143894030Y-85495671D01*
X143889511Y-85472954D01*
X143881764Y-85455408D01*
X143875805Y-85404049D01*
X143875000Y-85400000D01*
X143875000Y-85100000D01*
X143875804Y-85095953D01*
X143881764Y-85044591D01*
X143889511Y-85027043D01*
X143894030Y-85004329D01*
X143910278Y-84980010D01*
X143919465Y-84959206D01*
X143933674Y-84944996D01*
X143948223Y-84923223D01*
X143969996Y-84908674D01*
X143984206Y-84894465D01*
X144005010Y-84885278D01*
X144029329Y-84869030D01*
X144052043Y-84864511D01*
X144069591Y-84856764D01*
X144120952Y-84850805D01*
X144125000Y-84850000D01*
X145150000Y-84850000D01*
X145154047Y-84850805D01*
G37*
G36*
X130409046Y-84350804D02*
G01*
X130461553Y-84356896D01*
X130479494Y-84364818D01*
X130502584Y-84369411D01*
X130527304Y-84385928D01*
X130548619Y-84395340D01*
X130563176Y-84409897D01*
X130585312Y-84424688D01*
X130600102Y-84446823D01*
X130614659Y-84461380D01*
X130624069Y-84482693D01*
X130640589Y-84507416D01*
X130645182Y-84530507D01*
X130653103Y-84548446D01*
X130659192Y-84600942D01*
X130660000Y-84605000D01*
X130660000Y-85030000D01*
X130659192Y-85034058D01*
X130653103Y-85086553D01*
X130645182Y-85104490D01*
X130640589Y-85127584D01*
X130624068Y-85152308D01*
X130614659Y-85173619D01*
X130600104Y-85188173D01*
X130585312Y-85210312D01*
X130563173Y-85225104D01*
X130548619Y-85239659D01*
X130527308Y-85249068D01*
X130502584Y-85265589D01*
X130479490Y-85270182D01*
X130461553Y-85278103D01*
X130409058Y-85284192D01*
X130405000Y-85285000D01*
X130095000Y-85285000D01*
X130090942Y-85284192D01*
X130038446Y-85278103D01*
X130020507Y-85270182D01*
X129997416Y-85265589D01*
X129972693Y-85249069D01*
X129951380Y-85239659D01*
X129936823Y-85225102D01*
X129914688Y-85210312D01*
X129899897Y-85188176D01*
X129885340Y-85173619D01*
X129875928Y-85152304D01*
X129859411Y-85127584D01*
X129854818Y-85104494D01*
X129846896Y-85086553D01*
X129840804Y-85034046D01*
X129840000Y-85030000D01*
X129840000Y-84605000D01*
X129840804Y-84600954D01*
X129846896Y-84548446D01*
X129854818Y-84530503D01*
X129859411Y-84507416D01*
X129875927Y-84482697D01*
X129885340Y-84461380D01*
X129899899Y-84446820D01*
X129914688Y-84424688D01*
X129936820Y-84409899D01*
X129951380Y-84395340D01*
X129972697Y-84385927D01*
X129997416Y-84369411D01*
X130020503Y-84364818D01*
X130038446Y-84356896D01*
X130090954Y-84350804D01*
X130095000Y-84350000D01*
X130405000Y-84350000D01*
X130409046Y-84350804D01*
G37*
G36*
X131899046Y-84340804D02*
G01*
X131951553Y-84346896D01*
X131969494Y-84354818D01*
X131992584Y-84359411D01*
X132017304Y-84375928D01*
X132038619Y-84385340D01*
X132053176Y-84399897D01*
X132075312Y-84414688D01*
X132090102Y-84436823D01*
X132104659Y-84451380D01*
X132114069Y-84472693D01*
X132130589Y-84497416D01*
X132135182Y-84520507D01*
X132143103Y-84538446D01*
X132149192Y-84590942D01*
X132150000Y-84595000D01*
X132150000Y-84905000D01*
X132149192Y-84909058D01*
X132143103Y-84961553D01*
X132135182Y-84979490D01*
X132130589Y-85002584D01*
X132114068Y-85027308D01*
X132104659Y-85048619D01*
X132090104Y-85063173D01*
X132075312Y-85085312D01*
X132053173Y-85100104D01*
X132038619Y-85114659D01*
X132017308Y-85124068D01*
X131992584Y-85140589D01*
X131969490Y-85145182D01*
X131951553Y-85153103D01*
X131899058Y-85159192D01*
X131895000Y-85160000D01*
X131470000Y-85160000D01*
X131465942Y-85159192D01*
X131413446Y-85153103D01*
X131395507Y-85145182D01*
X131372416Y-85140589D01*
X131347693Y-85124069D01*
X131326380Y-85114659D01*
X131311823Y-85100102D01*
X131289688Y-85085312D01*
X131274897Y-85063176D01*
X131260340Y-85048619D01*
X131250928Y-85027304D01*
X131234411Y-85002584D01*
X131229818Y-84979494D01*
X131221896Y-84961553D01*
X131215804Y-84909046D01*
X131215000Y-84905000D01*
X131215000Y-84595000D01*
X131215804Y-84590954D01*
X131221896Y-84538446D01*
X131229818Y-84520503D01*
X131234411Y-84497416D01*
X131250927Y-84472697D01*
X131260340Y-84451380D01*
X131274899Y-84436820D01*
X131289688Y-84414688D01*
X131311820Y-84399899D01*
X131326380Y-84385340D01*
X131347697Y-84375927D01*
X131372416Y-84359411D01*
X131395503Y-84354818D01*
X131413446Y-84346896D01*
X131465954Y-84340804D01*
X131470000Y-84340000D01*
X131895000Y-84340000D01*
X131899046Y-84340804D01*
G37*
G36*
X133034046Y-84340804D02*
G01*
X133086553Y-84346896D01*
X133104494Y-84354818D01*
X133127584Y-84359411D01*
X133152304Y-84375928D01*
X133173619Y-84385340D01*
X133188176Y-84399897D01*
X133210312Y-84414688D01*
X133225102Y-84436823D01*
X133239659Y-84451380D01*
X133249069Y-84472693D01*
X133265589Y-84497416D01*
X133270182Y-84520507D01*
X133278103Y-84538446D01*
X133284192Y-84590942D01*
X133285000Y-84595000D01*
X133285000Y-84905000D01*
X133284192Y-84909058D01*
X133278103Y-84961553D01*
X133270182Y-84979490D01*
X133265589Y-85002584D01*
X133249068Y-85027308D01*
X133239659Y-85048619D01*
X133225104Y-85063173D01*
X133210312Y-85085312D01*
X133188173Y-85100104D01*
X133173619Y-85114659D01*
X133152308Y-85124068D01*
X133127584Y-85140589D01*
X133104490Y-85145182D01*
X133086553Y-85153103D01*
X133034058Y-85159192D01*
X133030000Y-85160000D01*
X132605000Y-85160000D01*
X132600942Y-85159192D01*
X132548446Y-85153103D01*
X132530507Y-85145182D01*
X132507416Y-85140589D01*
X132482693Y-85124069D01*
X132461380Y-85114659D01*
X132446823Y-85100102D01*
X132424688Y-85085312D01*
X132409897Y-85063176D01*
X132395340Y-85048619D01*
X132385928Y-85027304D01*
X132369411Y-85002584D01*
X132364818Y-84979494D01*
X132356896Y-84961553D01*
X132350804Y-84909046D01*
X132350000Y-84905000D01*
X132350000Y-84595000D01*
X132350804Y-84590954D01*
X132356896Y-84538446D01*
X132364818Y-84520503D01*
X132369411Y-84497416D01*
X132385927Y-84472697D01*
X132395340Y-84451380D01*
X132409899Y-84436820D01*
X132424688Y-84414688D01*
X132446820Y-84399899D01*
X132461380Y-84385340D01*
X132482697Y-84375927D01*
X132507416Y-84359411D01*
X132530503Y-84354818D01*
X132548446Y-84346896D01*
X132600954Y-84340804D01*
X132605000Y-84340000D01*
X133030000Y-84340000D01*
X133034046Y-84340804D01*
G37*
G36*
X140909046Y-83965804D02*
G01*
X140961553Y-83971896D01*
X140979494Y-83979818D01*
X141002584Y-83984411D01*
X141027304Y-84000928D01*
X141048619Y-84010340D01*
X141063176Y-84024897D01*
X141085312Y-84039688D01*
X141100102Y-84061823D01*
X141114659Y-84076380D01*
X141124069Y-84097693D01*
X141140589Y-84122416D01*
X141145182Y-84145507D01*
X141153103Y-84163446D01*
X141159192Y-84215942D01*
X141160000Y-84220000D01*
X141160000Y-84645000D01*
X141159192Y-84649058D01*
X141153103Y-84701553D01*
X141145182Y-84719490D01*
X141140589Y-84742584D01*
X141124068Y-84767308D01*
X141114659Y-84788619D01*
X141100104Y-84803173D01*
X141085312Y-84825312D01*
X141063173Y-84840104D01*
X141048619Y-84854659D01*
X141027308Y-84864068D01*
X141002584Y-84880589D01*
X140979490Y-84885182D01*
X140961553Y-84893103D01*
X140909058Y-84899192D01*
X140905000Y-84900000D01*
X140595000Y-84900000D01*
X140590942Y-84899192D01*
X140538446Y-84893103D01*
X140520507Y-84885182D01*
X140497416Y-84880589D01*
X140472693Y-84864069D01*
X140451380Y-84854659D01*
X140436823Y-84840102D01*
X140414688Y-84825312D01*
X140399897Y-84803176D01*
X140385340Y-84788619D01*
X140375928Y-84767304D01*
X140359411Y-84742584D01*
X140354818Y-84719494D01*
X140346896Y-84701553D01*
X140340804Y-84649046D01*
X140340000Y-84645000D01*
X140340000Y-84220000D01*
X140340804Y-84215954D01*
X140346896Y-84163446D01*
X140354818Y-84145503D01*
X140359411Y-84122416D01*
X140375927Y-84097697D01*
X140385340Y-84076380D01*
X140399899Y-84061820D01*
X140414688Y-84039688D01*
X140436820Y-84024899D01*
X140451380Y-84010340D01*
X140472697Y-84000927D01*
X140497416Y-83984411D01*
X140520503Y-83979818D01*
X140538446Y-83971896D01*
X140590954Y-83965804D01*
X140595000Y-83965000D01*
X140905000Y-83965000D01*
X140909046Y-83965804D01*
G37*
G36*
X142879047Y-83900805D02*
G01*
X142930408Y-83906764D01*
X142947954Y-83914511D01*
X142970671Y-83919030D01*
X142994991Y-83935280D01*
X143015793Y-83944465D01*
X143030000Y-83958672D01*
X143051777Y-83973223D01*
X143066327Y-83994999D01*
X143080534Y-84009206D01*
X143089718Y-84030006D01*
X143105970Y-84054329D01*
X143110489Y-84077048D01*
X143118235Y-84094591D01*
X143124192Y-84145940D01*
X143125000Y-84150000D01*
X143125000Y-84450000D01*
X143124192Y-84454059D01*
X143118235Y-84505408D01*
X143110489Y-84522950D01*
X143105970Y-84545671D01*
X143089716Y-84569995D01*
X143080534Y-84590793D01*
X143066329Y-84604997D01*
X143051777Y-84626777D01*
X143029997Y-84641329D01*
X143015793Y-84655534D01*
X142994995Y-84664716D01*
X142970671Y-84680970D01*
X142947950Y-84685489D01*
X142930408Y-84693235D01*
X142879061Y-84699192D01*
X142875000Y-84700000D01*
X141850000Y-84700000D01*
X141845941Y-84699192D01*
X141794591Y-84693235D01*
X141777048Y-84685489D01*
X141754329Y-84680970D01*
X141730006Y-84664718D01*
X141709206Y-84655534D01*
X141694999Y-84641327D01*
X141673223Y-84626777D01*
X141658672Y-84605000D01*
X141644465Y-84590793D01*
X141635280Y-84569991D01*
X141619030Y-84545671D01*
X141614511Y-84522954D01*
X141606764Y-84505408D01*
X141600805Y-84454049D01*
X141600000Y-84450000D01*
X141600000Y-84150000D01*
X141600804Y-84145953D01*
X141606764Y-84094591D01*
X141614511Y-84077043D01*
X141619030Y-84054329D01*
X141635278Y-84030010D01*
X141644465Y-84009206D01*
X141658674Y-83994996D01*
X141673223Y-83973223D01*
X141694996Y-83958674D01*
X141709206Y-83944465D01*
X141730010Y-83935278D01*
X141754329Y-83919030D01*
X141777043Y-83914511D01*
X141794591Y-83906764D01*
X141845952Y-83900805D01*
X141850000Y-83900000D01*
X142875000Y-83900000D01*
X142879047Y-83900805D01*
G37*
G36*
X145154047Y-83900805D02*
G01*
X145205408Y-83906764D01*
X145222954Y-83914511D01*
X145245671Y-83919030D01*
X145269991Y-83935280D01*
X145290793Y-83944465D01*
X145305000Y-83958672D01*
X145326777Y-83973223D01*
X145341327Y-83994999D01*
X145355534Y-84009206D01*
X145364718Y-84030006D01*
X145380970Y-84054329D01*
X145385489Y-84077048D01*
X145393235Y-84094591D01*
X145399192Y-84145940D01*
X145400000Y-84150000D01*
X145400000Y-84450000D01*
X145399192Y-84454059D01*
X145393235Y-84505408D01*
X145385489Y-84522950D01*
X145380970Y-84545671D01*
X145364716Y-84569995D01*
X145355534Y-84590793D01*
X145341329Y-84604997D01*
X145326777Y-84626777D01*
X145304997Y-84641329D01*
X145290793Y-84655534D01*
X145269995Y-84664716D01*
X145245671Y-84680970D01*
X145222950Y-84685489D01*
X145205408Y-84693235D01*
X145154061Y-84699192D01*
X145150000Y-84700000D01*
X144125000Y-84700000D01*
X144120941Y-84699192D01*
X144069591Y-84693235D01*
X144052048Y-84685489D01*
X144029329Y-84680970D01*
X144005006Y-84664718D01*
X143984206Y-84655534D01*
X143969999Y-84641327D01*
X143948223Y-84626777D01*
X143933672Y-84605000D01*
X143919465Y-84590793D01*
X143910280Y-84569991D01*
X143894030Y-84545671D01*
X143889511Y-84522954D01*
X143881764Y-84505408D01*
X143875805Y-84454049D01*
X143875000Y-84450000D01*
X143875000Y-84150000D01*
X143875804Y-84145953D01*
X143881764Y-84094591D01*
X143889511Y-84077043D01*
X143894030Y-84054329D01*
X143910278Y-84030010D01*
X143919465Y-84009206D01*
X143933674Y-83994996D01*
X143948223Y-83973223D01*
X143969996Y-83958674D01*
X143984206Y-83944465D01*
X144005010Y-83935278D01*
X144029329Y-83919030D01*
X144052043Y-83914511D01*
X144069591Y-83906764D01*
X144120952Y-83900805D01*
X144125000Y-83900000D01*
X145150000Y-83900000D01*
X145154047Y-83900805D01*
G37*
G36*
X146649046Y-83840804D02*
G01*
X146701553Y-83846896D01*
X146719494Y-83854818D01*
X146742584Y-83859411D01*
X146767304Y-83875928D01*
X146788619Y-83885340D01*
X146803176Y-83899897D01*
X146825312Y-83914688D01*
X146840102Y-83936823D01*
X146854659Y-83951380D01*
X146864069Y-83972693D01*
X146880589Y-83997416D01*
X146885182Y-84020507D01*
X146893103Y-84038446D01*
X146899192Y-84090942D01*
X146900000Y-84095000D01*
X146900000Y-84405000D01*
X146899192Y-84409058D01*
X146893103Y-84461553D01*
X146885182Y-84479490D01*
X146880589Y-84502584D01*
X146864068Y-84527308D01*
X146854659Y-84548619D01*
X146840104Y-84563173D01*
X146825312Y-84585312D01*
X146803173Y-84600104D01*
X146788619Y-84614659D01*
X146767308Y-84624068D01*
X146742584Y-84640589D01*
X146719490Y-84645182D01*
X146701553Y-84653103D01*
X146649058Y-84659192D01*
X146645000Y-84660000D01*
X146220000Y-84660000D01*
X146215942Y-84659192D01*
X146163446Y-84653103D01*
X146145507Y-84645182D01*
X146122416Y-84640589D01*
X146097693Y-84624069D01*
X146076380Y-84614659D01*
X146061823Y-84600102D01*
X146039688Y-84585312D01*
X146024897Y-84563176D01*
X146010340Y-84548619D01*
X146000928Y-84527304D01*
X145984411Y-84502584D01*
X145979818Y-84479494D01*
X145971896Y-84461553D01*
X145965804Y-84409046D01*
X145965000Y-84405000D01*
X145965000Y-84095000D01*
X145965804Y-84090954D01*
X145971896Y-84038446D01*
X145979818Y-84020503D01*
X145984411Y-83997416D01*
X146000927Y-83972697D01*
X146010340Y-83951380D01*
X146024899Y-83936820D01*
X146039688Y-83914688D01*
X146061820Y-83899899D01*
X146076380Y-83885340D01*
X146097697Y-83875927D01*
X146122416Y-83859411D01*
X146145503Y-83854818D01*
X146163446Y-83846896D01*
X146215954Y-83840804D01*
X146220000Y-83840000D01*
X146645000Y-83840000D01*
X146649046Y-83840804D01*
G37*
G36*
X147784046Y-83840804D02*
G01*
X147836553Y-83846896D01*
X147854494Y-83854818D01*
X147877584Y-83859411D01*
X147902304Y-83875928D01*
X147923619Y-83885340D01*
X147938176Y-83899897D01*
X147960312Y-83914688D01*
X147975102Y-83936823D01*
X147989659Y-83951380D01*
X147999069Y-83972693D01*
X148015589Y-83997416D01*
X148020182Y-84020507D01*
X148028103Y-84038446D01*
X148034192Y-84090942D01*
X148035000Y-84095000D01*
X148035000Y-84405000D01*
X148034192Y-84409058D01*
X148028103Y-84461553D01*
X148020182Y-84479490D01*
X148015589Y-84502584D01*
X147999068Y-84527308D01*
X147989659Y-84548619D01*
X147975104Y-84563173D01*
X147960312Y-84585312D01*
X147938173Y-84600104D01*
X147923619Y-84614659D01*
X147902308Y-84624068D01*
X147877584Y-84640589D01*
X147854490Y-84645182D01*
X147836553Y-84653103D01*
X147784058Y-84659192D01*
X147780000Y-84660000D01*
X147355000Y-84660000D01*
X147350942Y-84659192D01*
X147298446Y-84653103D01*
X147280507Y-84645182D01*
X147257416Y-84640589D01*
X147232693Y-84624069D01*
X147211380Y-84614659D01*
X147196823Y-84600102D01*
X147174688Y-84585312D01*
X147159897Y-84563176D01*
X147145340Y-84548619D01*
X147135928Y-84527304D01*
X147119411Y-84502584D01*
X147114818Y-84479494D01*
X147106896Y-84461553D01*
X147100804Y-84409046D01*
X147100000Y-84405000D01*
X147100000Y-84095000D01*
X147100804Y-84090954D01*
X147106896Y-84038446D01*
X147114818Y-84020503D01*
X147119411Y-83997416D01*
X147135927Y-83972697D01*
X147145340Y-83951380D01*
X147159899Y-83936820D01*
X147174688Y-83914688D01*
X147196820Y-83899899D01*
X147211380Y-83885340D01*
X147232697Y-83875927D01*
X147257416Y-83859411D01*
X147280503Y-83854818D01*
X147298446Y-83846896D01*
X147350954Y-83840804D01*
X147355000Y-83840000D01*
X147780000Y-83840000D01*
X147784046Y-83840804D01*
G37*
G36*
X130409046Y-83215804D02*
G01*
X130461553Y-83221896D01*
X130479494Y-83229818D01*
X130502584Y-83234411D01*
X130527304Y-83250928D01*
X130548619Y-83260340D01*
X130563176Y-83274897D01*
X130585312Y-83289688D01*
X130600102Y-83311823D01*
X130614659Y-83326380D01*
X130624069Y-83347693D01*
X130640589Y-83372416D01*
X130645182Y-83395507D01*
X130653103Y-83413446D01*
X130659192Y-83465942D01*
X130660000Y-83470000D01*
X130660000Y-83895000D01*
X130659192Y-83899058D01*
X130653103Y-83951553D01*
X130645182Y-83969490D01*
X130640589Y-83992584D01*
X130624068Y-84017308D01*
X130614659Y-84038619D01*
X130600104Y-84053173D01*
X130585312Y-84075312D01*
X130563173Y-84090104D01*
X130548619Y-84104659D01*
X130527308Y-84114068D01*
X130502584Y-84130589D01*
X130479490Y-84135182D01*
X130461553Y-84143103D01*
X130409058Y-84149192D01*
X130405000Y-84150000D01*
X130095000Y-84150000D01*
X130090942Y-84149192D01*
X130038446Y-84143103D01*
X130020507Y-84135182D01*
X129997416Y-84130589D01*
X129972693Y-84114069D01*
X129951380Y-84104659D01*
X129936823Y-84090102D01*
X129914688Y-84075312D01*
X129899897Y-84053176D01*
X129885340Y-84038619D01*
X129875928Y-84017304D01*
X129859411Y-83992584D01*
X129854818Y-83969494D01*
X129846896Y-83951553D01*
X129840804Y-83899046D01*
X129840000Y-83895000D01*
X129840000Y-83470000D01*
X129840804Y-83465954D01*
X129846896Y-83413446D01*
X129854818Y-83395503D01*
X129859411Y-83372416D01*
X129875927Y-83347697D01*
X129885340Y-83326380D01*
X129899899Y-83311820D01*
X129914688Y-83289688D01*
X129936820Y-83274899D01*
X129951380Y-83260340D01*
X129972697Y-83250927D01*
X129997416Y-83234411D01*
X130020503Y-83229818D01*
X130038446Y-83221896D01*
X130090954Y-83215804D01*
X130095000Y-83215000D01*
X130405000Y-83215000D01*
X130409046Y-83215804D01*
G37*
G36*
X132164034Y-81255764D02*
G01*
X132197125Y-81277875D01*
X132219236Y-81310966D01*
X132219725Y-81313428D01*
X132223275Y-81318740D01*
X132276725Y-81318740D01*
X132280274Y-81313428D01*
X132280764Y-81310966D01*
X132302875Y-81277875D01*
X132335966Y-81255764D01*
X132375000Y-81248000D01*
X132625000Y-81248000D01*
X132664034Y-81255764D01*
X132697125Y-81277875D01*
X132719236Y-81310966D01*
X132719725Y-81313428D01*
X132723275Y-81318740D01*
X132776725Y-81318740D01*
X132780274Y-81313428D01*
X132780764Y-81310966D01*
X132802875Y-81277875D01*
X132835966Y-81255764D01*
X132875000Y-81248000D01*
X133125000Y-81248000D01*
X133164034Y-81255764D01*
X133197125Y-81277875D01*
X133219236Y-81310966D01*
X133227000Y-81350000D01*
X133227000Y-81650218D01*
X133317195Y-81659102D01*
X133323000Y-81629918D01*
X133323000Y-81625000D01*
X133330764Y-81585966D01*
X133352875Y-81552875D01*
X133385966Y-81530764D01*
X133425000Y-81523000D01*
X133900000Y-81523000D01*
X133939034Y-81530764D01*
X133972125Y-81552875D01*
X133994236Y-81585966D01*
X134002000Y-81625000D01*
X134002000Y-81875000D01*
X133994236Y-81914034D01*
X133972125Y-81947125D01*
X133939034Y-81969236D01*
X133936568Y-81969726D01*
X133931259Y-81973274D01*
X133931259Y-82026726D01*
X133936568Y-82030273D01*
X133939034Y-82030764D01*
X133972125Y-82052875D01*
X133994236Y-82085966D01*
X134002000Y-82125000D01*
X134002000Y-82375000D01*
X133994236Y-82414034D01*
X133972125Y-82447125D01*
X133939034Y-82469236D01*
X133936568Y-82469726D01*
X133931259Y-82473274D01*
X133931259Y-82526726D01*
X133936568Y-82530273D01*
X133939034Y-82530764D01*
X133972125Y-82552875D01*
X133994236Y-82585966D01*
X134002000Y-82625000D01*
X134002000Y-82875000D01*
X133994236Y-82914034D01*
X133972125Y-82947125D01*
X133939034Y-82969236D01*
X133936568Y-82969726D01*
X133931259Y-82973274D01*
X133931259Y-83026726D01*
X133936568Y-83030273D01*
X133939034Y-83030764D01*
X133972125Y-83052875D01*
X133994236Y-83085966D01*
X134002000Y-83125000D01*
X134002000Y-83375000D01*
X133994236Y-83414034D01*
X133972125Y-83447125D01*
X133939034Y-83469236D01*
X133900000Y-83477000D01*
X133425000Y-83477000D01*
X133385966Y-83469236D01*
X133352875Y-83447125D01*
X133330764Y-83414034D01*
X133323000Y-83375000D01*
X133323000Y-83370074D01*
X133317196Y-83340892D01*
X133227000Y-83349774D01*
X133227000Y-83650000D01*
X133219236Y-83689034D01*
X133197125Y-83722125D01*
X133164034Y-83744236D01*
X133125000Y-83752000D01*
X132875000Y-83752000D01*
X132835966Y-83744236D01*
X132802875Y-83722125D01*
X132780764Y-83689034D01*
X132780273Y-83686568D01*
X132776726Y-83681259D01*
X132723274Y-83681259D01*
X132719726Y-83686568D01*
X132719236Y-83689034D01*
X132697125Y-83722125D01*
X132664034Y-83744236D01*
X132625000Y-83752000D01*
X132375000Y-83752000D01*
X132335966Y-83744236D01*
X132302875Y-83722125D01*
X132280764Y-83689034D01*
X132280273Y-83686568D01*
X132276726Y-83681259D01*
X132223274Y-83681259D01*
X132219726Y-83686568D01*
X132219236Y-83689034D01*
X132197125Y-83722125D01*
X132164034Y-83744236D01*
X132125000Y-83752000D01*
X131875000Y-83752000D01*
X131835966Y-83744236D01*
X131802875Y-83722125D01*
X131780764Y-83689034D01*
X131773000Y-83650000D01*
X131773000Y-83349780D01*
X131682803Y-83340897D01*
X131677000Y-83370072D01*
X131677000Y-83375000D01*
X131669236Y-83414034D01*
X131647125Y-83447125D01*
X131614034Y-83469236D01*
X131575000Y-83477000D01*
X131100000Y-83477000D01*
X131060966Y-83469236D01*
X131027875Y-83447125D01*
X131005764Y-83414034D01*
X130998000Y-83375000D01*
X130998000Y-83125000D01*
X131005764Y-83085966D01*
X131027875Y-83052875D01*
X131060966Y-83030764D01*
X131063428Y-83030274D01*
X131068740Y-83026725D01*
X131068740Y-82973275D01*
X131063428Y-82969725D01*
X131060966Y-82969236D01*
X131027875Y-82947125D01*
X131005764Y-82914034D01*
X130998000Y-82875000D01*
X130998000Y-82625000D01*
X131005764Y-82585966D01*
X131027875Y-82552875D01*
X131060966Y-82530764D01*
X131063428Y-82530274D01*
X131068740Y-82526725D01*
X131068740Y-82473275D01*
X131063428Y-82469725D01*
X131060966Y-82469236D01*
X131027875Y-82447125D01*
X131005764Y-82414034D01*
X130998000Y-82375000D01*
X130998000Y-82125000D01*
X131005764Y-82085966D01*
X131027875Y-82052875D01*
X131060966Y-82030764D01*
X131063428Y-82030274D01*
X131068740Y-82026725D01*
X131068740Y-81973275D01*
X131068739Y-81973274D01*
X131606259Y-81973274D01*
X131606259Y-82026726D01*
X131611568Y-82030273D01*
X131614034Y-82030764D01*
X131647125Y-82052875D01*
X131669236Y-82085966D01*
X131677000Y-82125000D01*
X131677000Y-82375000D01*
X131669236Y-82414034D01*
X131647125Y-82447125D01*
X131614034Y-82469236D01*
X131611568Y-82469726D01*
X131606259Y-82473274D01*
X131606259Y-82526726D01*
X131611568Y-82530273D01*
X131614034Y-82530764D01*
X131647125Y-82552875D01*
X131669236Y-82585966D01*
X131677000Y-82625000D01*
X131677000Y-82875000D01*
X131669236Y-82914034D01*
X131647125Y-82947125D01*
X131614034Y-82969236D01*
X131611568Y-82969726D01*
X131606259Y-82973274D01*
X131606259Y-83026726D01*
X131611568Y-83030273D01*
X131614034Y-83030764D01*
X131647125Y-83052875D01*
X131669236Y-83085966D01*
X131677000Y-83125000D01*
X131677000Y-83200220D01*
X131767195Y-83209104D01*
X131773000Y-83179919D01*
X131773000Y-83175000D01*
X131780764Y-83135966D01*
X131802875Y-83102875D01*
X131835966Y-83080764D01*
X131875000Y-83073000D01*
X132125000Y-83073000D01*
X132164034Y-83080764D01*
X132197125Y-83102875D01*
X132219236Y-83135966D01*
X132219725Y-83138428D01*
X132223275Y-83143740D01*
X132276725Y-83143740D01*
X132280274Y-83138428D01*
X132280764Y-83135966D01*
X132302875Y-83102875D01*
X132335966Y-83080764D01*
X132375000Y-83073000D01*
X132625000Y-83073000D01*
X132664034Y-83080764D01*
X132697125Y-83102875D01*
X132719236Y-83135966D01*
X132719725Y-83138428D01*
X132723275Y-83143740D01*
X132776725Y-83143740D01*
X132780274Y-83138428D01*
X132780764Y-83135966D01*
X132802875Y-83102875D01*
X132835966Y-83080764D01*
X132875000Y-83073000D01*
X133125000Y-83073000D01*
X133164034Y-83080764D01*
X133197125Y-83102875D01*
X133219236Y-83135966D01*
X133227000Y-83175000D01*
X133227000Y-83179934D01*
X133232802Y-83209105D01*
X133323000Y-83200222D01*
X133323000Y-83129922D01*
X133323000Y-83125000D01*
X133330764Y-83085966D01*
X133352875Y-83052875D01*
X133385966Y-83030764D01*
X133388428Y-83030274D01*
X133393740Y-83026725D01*
X133393740Y-82973275D01*
X133388428Y-82969725D01*
X133385966Y-82969236D01*
X133352875Y-82947125D01*
X133330764Y-82914034D01*
X133323000Y-82875000D01*
X133323000Y-82625000D01*
X133330764Y-82585966D01*
X133352875Y-82552875D01*
X133385966Y-82530764D01*
X133388428Y-82530274D01*
X133393740Y-82526725D01*
X133393740Y-82473275D01*
X133388428Y-82469725D01*
X133385966Y-82469236D01*
X133352875Y-82447125D01*
X133330764Y-82414034D01*
X133323000Y-82375000D01*
X133323000Y-82125000D01*
X133330764Y-82085966D01*
X133352875Y-82052875D01*
X133385966Y-82030764D01*
X133388428Y-82030274D01*
X133393740Y-82026725D01*
X133393740Y-81973275D01*
X133388428Y-81969725D01*
X133385966Y-81969236D01*
X133352875Y-81947125D01*
X133330764Y-81914034D01*
X133323000Y-81875000D01*
X133323000Y-81856259D01*
X133322998Y-81799777D01*
X133232802Y-81790896D01*
X133227000Y-81820065D01*
X133227000Y-81825000D01*
X133219236Y-81864034D01*
X133197125Y-81897125D01*
X133164034Y-81919236D01*
X133125000Y-81927000D01*
X132875000Y-81927000D01*
X132835966Y-81919236D01*
X132802875Y-81897125D01*
X132780764Y-81864034D01*
X132780273Y-81861568D01*
X132776726Y-81856259D01*
X132723274Y-81856259D01*
X132719726Y-81861568D01*
X132719236Y-81864034D01*
X132697125Y-81897125D01*
X132664034Y-81919236D01*
X132625000Y-81927000D01*
X132375000Y-81927000D01*
X132335966Y-81919236D01*
X132302875Y-81897125D01*
X132280764Y-81864034D01*
X132280273Y-81861568D01*
X132276726Y-81856259D01*
X132223274Y-81856259D01*
X132219726Y-81861568D01*
X132219236Y-81864034D01*
X132197125Y-81897125D01*
X132164034Y-81919236D01*
X132125000Y-81927000D01*
X131875000Y-81927000D01*
X131835966Y-81919236D01*
X131802875Y-81897125D01*
X131780764Y-81864034D01*
X131773000Y-81825000D01*
X131773000Y-81820075D01*
X131767196Y-81790893D01*
X131677000Y-81799777D01*
X131677000Y-81875000D01*
X131669236Y-81914034D01*
X131647125Y-81947125D01*
X131614034Y-81969236D01*
X131611568Y-81969726D01*
X131606259Y-81973274D01*
X131068739Y-81973274D01*
X131063428Y-81969725D01*
X131060966Y-81969236D01*
X131027875Y-81947125D01*
X131005764Y-81914034D01*
X130998000Y-81875000D01*
X130998000Y-81625000D01*
X131005764Y-81585966D01*
X131027875Y-81552875D01*
X131060966Y-81530764D01*
X131100000Y-81523000D01*
X131575000Y-81523000D01*
X131614034Y-81530764D01*
X131647125Y-81552875D01*
X131669236Y-81585966D01*
X131677000Y-81625000D01*
X131677000Y-81629934D01*
X131682802Y-81659106D01*
X131773000Y-81650224D01*
X131773000Y-81354922D01*
X131773000Y-81350000D01*
X131780764Y-81310966D01*
X131802875Y-81277875D01*
X131835966Y-81255764D01*
X131875000Y-81248000D01*
X132125000Y-81248000D01*
X132164034Y-81255764D01*
G37*
G36*
X145057640Y-81217351D02*
G01*
X145153724Y-81272825D01*
X145232175Y-81351276D01*
X145287649Y-81447360D01*
X145316364Y-81554526D01*
X145316364Y-81665474D01*
X145287649Y-81772640D01*
X145232175Y-81868724D01*
X145153724Y-81947175D01*
X145057640Y-82002649D01*
X144950474Y-82031364D01*
X144839526Y-82031364D01*
X144732360Y-82002649D01*
X144636276Y-81947175D01*
X144557825Y-81868724D01*
X144502351Y-81772640D01*
X144473636Y-81665474D01*
X144473636Y-81554526D01*
X144502351Y-81447360D01*
X144557825Y-81351276D01*
X144636276Y-81272825D01*
X144732360Y-81217351D01*
X144839526Y-81188636D01*
X144950474Y-81188636D01*
X145057640Y-81217351D01*
G37*
G36*
X144948686Y-79580241D02*
G01*
X145002577Y-79582889D01*
X145009210Y-79584208D01*
X145023316Y-79585133D01*
X145050562Y-79592433D01*
X145119099Y-79606066D01*
X145151448Y-79619465D01*
X145174610Y-79625672D01*
X145195377Y-79637662D01*
X145227722Y-79651060D01*
X145285816Y-79689877D01*
X145310257Y-79703988D01*
X145316946Y-79710677D01*
X145325481Y-79716380D01*
X145408619Y-79799518D01*
X145414321Y-79808052D01*
X145421012Y-79814743D01*
X145435124Y-79839186D01*
X145473939Y-79897277D01*
X145487335Y-79929618D01*
X145499328Y-79950390D01*
X145505535Y-79973555D01*
X145518933Y-80005900D01*
X145532565Y-80074433D01*
X145539867Y-80101684D01*
X145539867Y-80111141D01*
X145541870Y-80121211D01*
X145541870Y-80238788D01*
X145539867Y-80248857D01*
X145539867Y-80258316D01*
X145532564Y-80285569D01*
X145518933Y-80354099D01*
X145505535Y-80386441D01*
X145499328Y-80409610D01*
X145487334Y-80430383D01*
X145473939Y-80462722D01*
X145435128Y-80520805D01*
X145421012Y-80545257D01*
X145414319Y-80551949D01*
X145408619Y-80560481D01*
X145325481Y-80643619D01*
X145316949Y-80649319D01*
X145310257Y-80656012D01*
X145285805Y-80670128D01*
X145227722Y-80708939D01*
X145195383Y-80722334D01*
X145174610Y-80734328D01*
X145151441Y-80740535D01*
X145119099Y-80753933D01*
X145050576Y-80767562D01*
X145023316Y-80774867D01*
X145009203Y-80775791D01*
X145002577Y-80777110D01*
X144948691Y-80779758D01*
X144945000Y-80780000D01*
X144943768Y-80780000D01*
X143846232Y-80780000D01*
X143845000Y-80780000D01*
X143841308Y-80779758D01*
X143787422Y-80777110D01*
X143780795Y-80775791D01*
X143766684Y-80774867D01*
X143739426Y-80767563D01*
X143670900Y-80753933D01*
X143638555Y-80740535D01*
X143615390Y-80734328D01*
X143594618Y-80722335D01*
X143562277Y-80708939D01*
X143504186Y-80670124D01*
X143479743Y-80656012D01*
X143473052Y-80649321D01*
X143464518Y-80643619D01*
X143381380Y-80560481D01*
X143375677Y-80551946D01*
X143368988Y-80545257D01*
X143354877Y-80520816D01*
X143316060Y-80462722D01*
X143302662Y-80430377D01*
X143290672Y-80409610D01*
X143284465Y-80386448D01*
X143271066Y-80354099D01*
X143257433Y-80285563D01*
X143250133Y-80258316D01*
X143250133Y-80248858D01*
X143248130Y-80238788D01*
X143248130Y-80121211D01*
X143250133Y-80111140D01*
X143250133Y-80101684D01*
X143257433Y-80074439D01*
X143271066Y-80005900D01*
X143284466Y-79973548D01*
X143290672Y-79950390D01*
X143302660Y-79929624D01*
X143316060Y-79897277D01*
X143354881Y-79839175D01*
X143368988Y-79814743D01*
X143375675Y-79808055D01*
X143381380Y-79799518D01*
X143464518Y-79716380D01*
X143473055Y-79710675D01*
X143479743Y-79703988D01*
X143504175Y-79689881D01*
X143562277Y-79651060D01*
X143594624Y-79637660D01*
X143615390Y-79625672D01*
X143638548Y-79619466D01*
X143670900Y-79606066D01*
X143739440Y-79592432D01*
X143766684Y-79585133D01*
X143780787Y-79584208D01*
X143787422Y-79582889D01*
X143841313Y-79580241D01*
X143845000Y-79580000D01*
X144945000Y-79580000D01*
X144948686Y-79580241D01*
G37*
G36*
X148978686Y-79580241D02*
G01*
X149032577Y-79582889D01*
X149039210Y-79584208D01*
X149053316Y-79585133D01*
X149080562Y-79592433D01*
X149149099Y-79606066D01*
X149181448Y-79619465D01*
X149204610Y-79625672D01*
X149225377Y-79637662D01*
X149257722Y-79651060D01*
X149315816Y-79689877D01*
X149340257Y-79703988D01*
X149346946Y-79710677D01*
X149355481Y-79716380D01*
X149438619Y-79799518D01*
X149444321Y-79808052D01*
X149451012Y-79814743D01*
X149465124Y-79839186D01*
X149503939Y-79897277D01*
X149517335Y-79929618D01*
X149529328Y-79950390D01*
X149535535Y-79973555D01*
X149548933Y-80005900D01*
X149562565Y-80074433D01*
X149569867Y-80101684D01*
X149569867Y-80111141D01*
X149571870Y-80121211D01*
X149571870Y-80238788D01*
X149569867Y-80248857D01*
X149569867Y-80258316D01*
X149562564Y-80285569D01*
X149548933Y-80354099D01*
X149535535Y-80386441D01*
X149529328Y-80409610D01*
X149517334Y-80430383D01*
X149503939Y-80462722D01*
X149465128Y-80520805D01*
X149451012Y-80545257D01*
X149444319Y-80551949D01*
X149438619Y-80560481D01*
X149355481Y-80643619D01*
X149346949Y-80649319D01*
X149340257Y-80656012D01*
X149315805Y-80670128D01*
X149257722Y-80708939D01*
X149225383Y-80722334D01*
X149204610Y-80734328D01*
X149181441Y-80740535D01*
X149149099Y-80753933D01*
X149080576Y-80767562D01*
X149053316Y-80774867D01*
X149039203Y-80775791D01*
X149032577Y-80777110D01*
X148978691Y-80779758D01*
X148975000Y-80780000D01*
X148973768Y-80780000D01*
X148176232Y-80780000D01*
X148175000Y-80780000D01*
X148171308Y-80779758D01*
X148117422Y-80777110D01*
X148110795Y-80775791D01*
X148096684Y-80774867D01*
X148069426Y-80767563D01*
X148000900Y-80753933D01*
X147968555Y-80740535D01*
X147945390Y-80734328D01*
X147924618Y-80722335D01*
X147892277Y-80708939D01*
X147834186Y-80670124D01*
X147809743Y-80656012D01*
X147803052Y-80649321D01*
X147794518Y-80643619D01*
X147711380Y-80560481D01*
X147705677Y-80551946D01*
X147698988Y-80545257D01*
X147684877Y-80520816D01*
X147646060Y-80462722D01*
X147632662Y-80430377D01*
X147620672Y-80409610D01*
X147614465Y-80386448D01*
X147601066Y-80354099D01*
X147587433Y-80285563D01*
X147580133Y-80258316D01*
X147580133Y-80248858D01*
X147578130Y-80238788D01*
X147578130Y-80121211D01*
X147580133Y-80111140D01*
X147580133Y-80101684D01*
X147587433Y-80074439D01*
X147601066Y-80005900D01*
X147614466Y-79973548D01*
X147620672Y-79950390D01*
X147632660Y-79929624D01*
X147646060Y-79897277D01*
X147684881Y-79839175D01*
X147698988Y-79814743D01*
X147705675Y-79808055D01*
X147711380Y-79799518D01*
X147794518Y-79716380D01*
X147803055Y-79710675D01*
X147809743Y-79703988D01*
X147834175Y-79689881D01*
X147892277Y-79651060D01*
X147924624Y-79637660D01*
X147945390Y-79625672D01*
X147968548Y-79619466D01*
X148000900Y-79606066D01*
X148069440Y-79592432D01*
X148096684Y-79585133D01*
X148110787Y-79584208D01*
X148117422Y-79582889D01*
X148171313Y-79580241D01*
X148175000Y-79580000D01*
X148975000Y-79580000D01*
X148978686Y-79580241D01*
G37*
G36*
X118232228Y-76484448D02*
G01*
X118377117Y-76544463D01*
X118507515Y-76631592D01*
X118618408Y-76742485D01*
X118705537Y-76872883D01*
X118765552Y-77017772D01*
X118796148Y-77171586D01*
X118796148Y-77328414D01*
X118765552Y-77482228D01*
X118705537Y-77627117D01*
X118618408Y-77757515D01*
X118507515Y-77868408D01*
X118377117Y-77955537D01*
X118232228Y-78015552D01*
X118078414Y-78046148D01*
X117921586Y-78046148D01*
X117767772Y-78015552D01*
X117622883Y-77955537D01*
X117492485Y-77868408D01*
X117381592Y-77757515D01*
X117294463Y-77627117D01*
X117234448Y-77482228D01*
X117203852Y-77328414D01*
X117203852Y-77171586D01*
X117234448Y-77017772D01*
X117294463Y-76872883D01*
X117381592Y-76742485D01*
X117492485Y-76631592D01*
X117622883Y-76544463D01*
X117767772Y-76484448D01*
X117921586Y-76453852D01*
X118078414Y-76453852D01*
X118232228Y-76484448D01*
G37*
G36*
X140758858Y-75945133D02*
G01*
X140768316Y-75945133D01*
X140795563Y-75952433D01*
X140864099Y-75966066D01*
X140896448Y-75979465D01*
X140919610Y-75985672D01*
X140940377Y-75997662D01*
X140972722Y-76011060D01*
X141030816Y-76049877D01*
X141055257Y-76063988D01*
X141061946Y-76070677D01*
X141070481Y-76076380D01*
X141153619Y-76159518D01*
X141159321Y-76168052D01*
X141166012Y-76174743D01*
X141180124Y-76199186D01*
X141218939Y-76257277D01*
X141232335Y-76289618D01*
X141244328Y-76310390D01*
X141250535Y-76333555D01*
X141263933Y-76365900D01*
X141277565Y-76434433D01*
X141284867Y-76461684D01*
X141284867Y-76471141D01*
X141286870Y-76481211D01*
X141286870Y-76598788D01*
X141284867Y-76608857D01*
X141284867Y-76618316D01*
X141277564Y-76645569D01*
X141263933Y-76714099D01*
X141250535Y-76746441D01*
X141244328Y-76769610D01*
X141232334Y-76790383D01*
X141218939Y-76822722D01*
X141180128Y-76880805D01*
X141166012Y-76905257D01*
X141159319Y-76911949D01*
X141153619Y-76920481D01*
X141070481Y-77003619D01*
X141061949Y-77009319D01*
X141055257Y-77016012D01*
X141030805Y-77030128D01*
X140972722Y-77068939D01*
X140940383Y-77082334D01*
X140919610Y-77094328D01*
X140896441Y-77100535D01*
X140864099Y-77113933D01*
X140795569Y-77127564D01*
X140768316Y-77134867D01*
X140758858Y-77134867D01*
X140748788Y-77136870D01*
X140631212Y-77136870D01*
X140621142Y-77134867D01*
X140611684Y-77134867D01*
X140584432Y-77127564D01*
X140515900Y-77113933D01*
X140483555Y-77100535D01*
X140460390Y-77094328D01*
X140439618Y-77082335D01*
X140407277Y-77068939D01*
X140349186Y-77030124D01*
X140324743Y-77016012D01*
X140318052Y-77009321D01*
X140309518Y-77003619D01*
X140226380Y-76920481D01*
X140220677Y-76911946D01*
X140213988Y-76905257D01*
X140199877Y-76880816D01*
X140161060Y-76822722D01*
X140147662Y-76790377D01*
X140135672Y-76769610D01*
X140129465Y-76746448D01*
X140116066Y-76714099D01*
X140102433Y-76645563D01*
X140095133Y-76618316D01*
X140095133Y-76608858D01*
X140093130Y-76598788D01*
X140093130Y-76481211D01*
X140095133Y-76471140D01*
X140095133Y-76461684D01*
X140102433Y-76434439D01*
X140116066Y-76365900D01*
X140129466Y-76333548D01*
X140135672Y-76310390D01*
X140147660Y-76289624D01*
X140161060Y-76257277D01*
X140199881Y-76199175D01*
X140213988Y-76174743D01*
X140220675Y-76168055D01*
X140226380Y-76159518D01*
X140309518Y-76076380D01*
X140318055Y-76070675D01*
X140324743Y-76063988D01*
X140349175Y-76049881D01*
X140407277Y-76011060D01*
X140439624Y-75997660D01*
X140460390Y-75985672D01*
X140483548Y-75979466D01*
X140515900Y-75966066D01*
X140584437Y-75952433D01*
X140611684Y-75945133D01*
X140621142Y-75945133D01*
X140631212Y-75943130D01*
X140748788Y-75943130D01*
X140758858Y-75945133D01*
G37*
G36*
X148378858Y-75945133D02*
G01*
X148388316Y-75945133D01*
X148415563Y-75952433D01*
X148484099Y-75966066D01*
X148516448Y-75979465D01*
X148539610Y-75985672D01*
X148560377Y-75997662D01*
X148592722Y-76011060D01*
X148650816Y-76049877D01*
X148675257Y-76063988D01*
X148681946Y-76070677D01*
X148690481Y-76076380D01*
X148773619Y-76159518D01*
X148779321Y-76168052D01*
X148786012Y-76174743D01*
X148800124Y-76199186D01*
X148838939Y-76257277D01*
X148852335Y-76289618D01*
X148864328Y-76310390D01*
X148870535Y-76333555D01*
X148883933Y-76365900D01*
X148897565Y-76434433D01*
X148904867Y-76461684D01*
X148904867Y-76471141D01*
X148906870Y-76481211D01*
X148906870Y-76598788D01*
X148904867Y-76608857D01*
X148904867Y-76618316D01*
X148897564Y-76645569D01*
X148883933Y-76714099D01*
X148870535Y-76746441D01*
X148864328Y-76769610D01*
X148852334Y-76790383D01*
X148838939Y-76822722D01*
X148800128Y-76880805D01*
X148786012Y-76905257D01*
X148779319Y-76911949D01*
X148773619Y-76920481D01*
X148690481Y-77003619D01*
X148681949Y-77009319D01*
X148675257Y-77016012D01*
X148650805Y-77030128D01*
X148592722Y-77068939D01*
X148560383Y-77082334D01*
X148539610Y-77094328D01*
X148516441Y-77100535D01*
X148484099Y-77113933D01*
X148415569Y-77127564D01*
X148388316Y-77134867D01*
X148378858Y-77134867D01*
X148368788Y-77136870D01*
X148251212Y-77136870D01*
X148241142Y-77134867D01*
X148231684Y-77134867D01*
X148204432Y-77127564D01*
X148135900Y-77113933D01*
X148103555Y-77100535D01*
X148080390Y-77094328D01*
X148059618Y-77082335D01*
X148027277Y-77068939D01*
X147969186Y-77030124D01*
X147944743Y-77016012D01*
X147938052Y-77009321D01*
X147929518Y-77003619D01*
X147846380Y-76920481D01*
X147840677Y-76911946D01*
X147833988Y-76905257D01*
X147819877Y-76880816D01*
X147781060Y-76822722D01*
X147767662Y-76790377D01*
X147755672Y-76769610D01*
X147749465Y-76746448D01*
X147736066Y-76714099D01*
X147722433Y-76645563D01*
X147715133Y-76618316D01*
X147715133Y-76608858D01*
X147713130Y-76598788D01*
X147713130Y-76481211D01*
X147715133Y-76471140D01*
X147715133Y-76461684D01*
X147722433Y-76434439D01*
X147736066Y-76365900D01*
X147749466Y-76333548D01*
X147755672Y-76310390D01*
X147767660Y-76289624D01*
X147781060Y-76257277D01*
X147819881Y-76199175D01*
X147833988Y-76174743D01*
X147840675Y-76168055D01*
X147846380Y-76159518D01*
X147929518Y-76076380D01*
X147938055Y-76070675D01*
X147944743Y-76063988D01*
X147969175Y-76049881D01*
X148027277Y-76011060D01*
X148059624Y-75997660D01*
X148080390Y-75985672D01*
X148103548Y-75979466D01*
X148135900Y-75966066D01*
X148204437Y-75952433D01*
X148231684Y-75945133D01*
X148241142Y-75945133D01*
X148251212Y-75943130D01*
X148368788Y-75943130D01*
X148378858Y-75945133D01*
G37*
G36*
X118232228Y-73944448D02*
G01*
X118377117Y-74004463D01*
X118507515Y-74091592D01*
X118618408Y-74202485D01*
X118705537Y-74332883D01*
X118765552Y-74477772D01*
X118796148Y-74631586D01*
X118796148Y-74788414D01*
X118765552Y-74942228D01*
X118705537Y-75087117D01*
X118618408Y-75217515D01*
X118507515Y-75328408D01*
X118377117Y-75415537D01*
X118232228Y-75475552D01*
X118078414Y-75506148D01*
X117921586Y-75506148D01*
X117767772Y-75475552D01*
X117622883Y-75415537D01*
X117492485Y-75328408D01*
X117381592Y-75217515D01*
X117294463Y-75087117D01*
X117234448Y-74942228D01*
X117203852Y-74788414D01*
X117203852Y-74631586D01*
X117234448Y-74477772D01*
X117294463Y-74332883D01*
X117381592Y-74202485D01*
X117492485Y-74091592D01*
X117622883Y-74004463D01*
X117767772Y-73944448D01*
X117921586Y-73913852D01*
X118078414Y-73913852D01*
X118232228Y-73944448D01*
G37*
G36*
X140758858Y-73405133D02*
G01*
X140768316Y-73405133D01*
X140795563Y-73412433D01*
X140864099Y-73426066D01*
X140896448Y-73439465D01*
X140919610Y-73445672D01*
X140940377Y-73457662D01*
X140972722Y-73471060D01*
X141030816Y-73509877D01*
X141055257Y-73523988D01*
X141061946Y-73530677D01*
X141070481Y-73536380D01*
X141153619Y-73619518D01*
X141159321Y-73628052D01*
X141166012Y-73634743D01*
X141180124Y-73659186D01*
X141218939Y-73717277D01*
X141232335Y-73749618D01*
X141244328Y-73770390D01*
X141250535Y-73793555D01*
X141263933Y-73825900D01*
X141277565Y-73894433D01*
X141284867Y-73921684D01*
X141284867Y-73931141D01*
X141286870Y-73941211D01*
X141286870Y-74058788D01*
X141284867Y-74068857D01*
X141284867Y-74078316D01*
X141277564Y-74105569D01*
X141263933Y-74174099D01*
X141250535Y-74206441D01*
X141244328Y-74229610D01*
X141232334Y-74250383D01*
X141218939Y-74282722D01*
X141180128Y-74340805D01*
X141166012Y-74365257D01*
X141159319Y-74371949D01*
X141153619Y-74380481D01*
X141070481Y-74463619D01*
X141061949Y-74469319D01*
X141055257Y-74476012D01*
X141030805Y-74490128D01*
X140972722Y-74528939D01*
X140940383Y-74542334D01*
X140919610Y-74554328D01*
X140896441Y-74560535D01*
X140864099Y-74573933D01*
X140795569Y-74587564D01*
X140768316Y-74594867D01*
X140758858Y-74594867D01*
X140748788Y-74596870D01*
X140631212Y-74596870D01*
X140621142Y-74594867D01*
X140611684Y-74594867D01*
X140584432Y-74587564D01*
X140515900Y-74573933D01*
X140483555Y-74560535D01*
X140460390Y-74554328D01*
X140439618Y-74542335D01*
X140407277Y-74528939D01*
X140349186Y-74490124D01*
X140324743Y-74476012D01*
X140318052Y-74469321D01*
X140309518Y-74463619D01*
X140226380Y-74380481D01*
X140220677Y-74371946D01*
X140213988Y-74365257D01*
X140199877Y-74340816D01*
X140161060Y-74282722D01*
X140147662Y-74250377D01*
X140135672Y-74229610D01*
X140129465Y-74206448D01*
X140116066Y-74174099D01*
X140102433Y-74105563D01*
X140095133Y-74078316D01*
X140095133Y-74068858D01*
X140093130Y-74058788D01*
X140093130Y-73941211D01*
X140095133Y-73931140D01*
X140095133Y-73921684D01*
X140102433Y-73894439D01*
X140116066Y-73825900D01*
X140129466Y-73793548D01*
X140135672Y-73770390D01*
X140147660Y-73749624D01*
X140161060Y-73717277D01*
X140199881Y-73659175D01*
X140213988Y-73634743D01*
X140220675Y-73628055D01*
X140226380Y-73619518D01*
X140309518Y-73536380D01*
X140318055Y-73530675D01*
X140324743Y-73523988D01*
X140349175Y-73509881D01*
X140407277Y-73471060D01*
X140439624Y-73457660D01*
X140460390Y-73445672D01*
X140483548Y-73439466D01*
X140515900Y-73426066D01*
X140584437Y-73412433D01*
X140611684Y-73405133D01*
X140621142Y-73405133D01*
X140631212Y-73403130D01*
X140748788Y-73403130D01*
X140758858Y-73405133D01*
G37*
G36*
X148378858Y-73405133D02*
G01*
X148388316Y-73405133D01*
X148415563Y-73412433D01*
X148484099Y-73426066D01*
X148516448Y-73439465D01*
X148539610Y-73445672D01*
X148560377Y-73457662D01*
X148592722Y-73471060D01*
X148650816Y-73509877D01*
X148675257Y-73523988D01*
X148681946Y-73530677D01*
X148690481Y-73536380D01*
X148773619Y-73619518D01*
X148779321Y-73628052D01*
X148786012Y-73634743D01*
X148800124Y-73659186D01*
X148838939Y-73717277D01*
X148852335Y-73749618D01*
X148864328Y-73770390D01*
X148870535Y-73793555D01*
X148883933Y-73825900D01*
X148897565Y-73894433D01*
X148904867Y-73921684D01*
X148904867Y-73931141D01*
X148906870Y-73941211D01*
X148906870Y-74058788D01*
X148904867Y-74068857D01*
X148904867Y-74078316D01*
X148897564Y-74105569D01*
X148883933Y-74174099D01*
X148870535Y-74206441D01*
X148864328Y-74229610D01*
X148852334Y-74250383D01*
X148838939Y-74282722D01*
X148800128Y-74340805D01*
X148786012Y-74365257D01*
X148779319Y-74371949D01*
X148773619Y-74380481D01*
X148690481Y-74463619D01*
X148681949Y-74469319D01*
X148675257Y-74476012D01*
X148650805Y-74490128D01*
X148592722Y-74528939D01*
X148560383Y-74542334D01*
X148539610Y-74554328D01*
X148516441Y-74560535D01*
X148484099Y-74573933D01*
X148415569Y-74587564D01*
X148388316Y-74594867D01*
X148378858Y-74594867D01*
X148368788Y-74596870D01*
X148251212Y-74596870D01*
X148241142Y-74594867D01*
X148231684Y-74594867D01*
X148204432Y-74587564D01*
X148135900Y-74573933D01*
X148103555Y-74560535D01*
X148080390Y-74554328D01*
X148059618Y-74542335D01*
X148027277Y-74528939D01*
X147969186Y-74490124D01*
X147944743Y-74476012D01*
X147938052Y-74469321D01*
X147929518Y-74463619D01*
X147846380Y-74380481D01*
X147840677Y-74371946D01*
X147833988Y-74365257D01*
X147819877Y-74340816D01*
X147781060Y-74282722D01*
X147767662Y-74250377D01*
X147755672Y-74229610D01*
X147749465Y-74206448D01*
X147736066Y-74174099D01*
X147722433Y-74105563D01*
X147715133Y-74078316D01*
X147715133Y-74068858D01*
X147713130Y-74058788D01*
X147713130Y-73941211D01*
X147715133Y-73931140D01*
X147715133Y-73921684D01*
X147722433Y-73894439D01*
X147736066Y-73825900D01*
X147749466Y-73793548D01*
X147755672Y-73770390D01*
X147767660Y-73749624D01*
X147781060Y-73717277D01*
X147819881Y-73659175D01*
X147833988Y-73634743D01*
X147840675Y-73628055D01*
X147846380Y-73619518D01*
X147929518Y-73536380D01*
X147938055Y-73530675D01*
X147944743Y-73523988D01*
X147969175Y-73509881D01*
X148027277Y-73471060D01*
X148059624Y-73457660D01*
X148080390Y-73445672D01*
X148103548Y-73439466D01*
X148135900Y-73426066D01*
X148204437Y-73412433D01*
X148231684Y-73405133D01*
X148241142Y-73405133D01*
X148251212Y-73403130D01*
X148368788Y-73403130D01*
X148378858Y-73405133D01*
G37*
G36*
X140758858Y-70865133D02*
G01*
X140768316Y-70865133D01*
X140795563Y-70872433D01*
X140864099Y-70886066D01*
X140896448Y-70899465D01*
X140919610Y-70905672D01*
X140940377Y-70917662D01*
X140972722Y-70931060D01*
X141030816Y-70969877D01*
X141055257Y-70983988D01*
X141061946Y-70990677D01*
X141070481Y-70996380D01*
X141153619Y-71079518D01*
X141159321Y-71088052D01*
X141166012Y-71094743D01*
X141180124Y-71119186D01*
X141218939Y-71177277D01*
X141232335Y-71209618D01*
X141244328Y-71230390D01*
X141250535Y-71253555D01*
X141263933Y-71285900D01*
X141277565Y-71354433D01*
X141284867Y-71381684D01*
X141284867Y-71391141D01*
X141286870Y-71401211D01*
X141286870Y-71518788D01*
X141284867Y-71528857D01*
X141284867Y-71538316D01*
X141277564Y-71565569D01*
X141263933Y-71634099D01*
X141250535Y-71666441D01*
X141244328Y-71689610D01*
X141232334Y-71710383D01*
X141218939Y-71742722D01*
X141180128Y-71800805D01*
X141166012Y-71825257D01*
X141159319Y-71831949D01*
X141153619Y-71840481D01*
X141070481Y-71923619D01*
X141061949Y-71929319D01*
X141055257Y-71936012D01*
X141030805Y-71950128D01*
X140972722Y-71988939D01*
X140940383Y-72002334D01*
X140919610Y-72014328D01*
X140896441Y-72020535D01*
X140864099Y-72033933D01*
X140795569Y-72047564D01*
X140768316Y-72054867D01*
X140758858Y-72054867D01*
X140748788Y-72056870D01*
X140631212Y-72056870D01*
X140621142Y-72054867D01*
X140611684Y-72054867D01*
X140584432Y-72047564D01*
X140515900Y-72033933D01*
X140483555Y-72020535D01*
X140460390Y-72014328D01*
X140439618Y-72002335D01*
X140407277Y-71988939D01*
X140349186Y-71950124D01*
X140324743Y-71936012D01*
X140318052Y-71929321D01*
X140309518Y-71923619D01*
X140226380Y-71840481D01*
X140220677Y-71831946D01*
X140213988Y-71825257D01*
X140199877Y-71800816D01*
X140161060Y-71742722D01*
X140147662Y-71710377D01*
X140135672Y-71689610D01*
X140129465Y-71666448D01*
X140116066Y-71634099D01*
X140102433Y-71565563D01*
X140095133Y-71538316D01*
X140095133Y-71528858D01*
X140093130Y-71518788D01*
X140093130Y-71401211D01*
X140095133Y-71391140D01*
X140095133Y-71381684D01*
X140102433Y-71354439D01*
X140116066Y-71285900D01*
X140129466Y-71253548D01*
X140135672Y-71230390D01*
X140147660Y-71209624D01*
X140161060Y-71177277D01*
X140199881Y-71119175D01*
X140213988Y-71094743D01*
X140220675Y-71088055D01*
X140226380Y-71079518D01*
X140309518Y-70996380D01*
X140318055Y-70990675D01*
X140324743Y-70983988D01*
X140349175Y-70969881D01*
X140407277Y-70931060D01*
X140439624Y-70917660D01*
X140460390Y-70905672D01*
X140483548Y-70899466D01*
X140515900Y-70886066D01*
X140584437Y-70872433D01*
X140611684Y-70865133D01*
X140621142Y-70865133D01*
X140631212Y-70863130D01*
X140748788Y-70863130D01*
X140758858Y-70865133D01*
G37*
G36*
X148378858Y-70865133D02*
G01*
X148388316Y-70865133D01*
X148415563Y-70872433D01*
X148484099Y-70886066D01*
X148516448Y-70899465D01*
X148539610Y-70905672D01*
X148560377Y-70917662D01*
X148592722Y-70931060D01*
X148650816Y-70969877D01*
X148675257Y-70983988D01*
X148681946Y-70990677D01*
X148690481Y-70996380D01*
X148773619Y-71079518D01*
X148779321Y-71088052D01*
X148786012Y-71094743D01*
X148800124Y-71119186D01*
X148838939Y-71177277D01*
X148852335Y-71209618D01*
X148864328Y-71230390D01*
X148870535Y-71253555D01*
X148883933Y-71285900D01*
X148897565Y-71354433D01*
X148904867Y-71381684D01*
X148904867Y-71391141D01*
X148906870Y-71401211D01*
X148906870Y-71518788D01*
X148904867Y-71528857D01*
X148904867Y-71538316D01*
X148897564Y-71565569D01*
X148883933Y-71634099D01*
X148870535Y-71666441D01*
X148864328Y-71689610D01*
X148852334Y-71710383D01*
X148838939Y-71742722D01*
X148800128Y-71800805D01*
X148786012Y-71825257D01*
X148779319Y-71831949D01*
X148773619Y-71840481D01*
X148690481Y-71923619D01*
X148681949Y-71929319D01*
X148675257Y-71936012D01*
X148650805Y-71950128D01*
X148592722Y-71988939D01*
X148560383Y-72002334D01*
X148539610Y-72014328D01*
X148516441Y-72020535D01*
X148484099Y-72033933D01*
X148415569Y-72047564D01*
X148388316Y-72054867D01*
X148378858Y-72054867D01*
X148368788Y-72056870D01*
X148251212Y-72056870D01*
X148241142Y-72054867D01*
X148231684Y-72054867D01*
X148204432Y-72047564D01*
X148135900Y-72033933D01*
X148103555Y-72020535D01*
X148080390Y-72014328D01*
X148059618Y-72002335D01*
X148027277Y-71988939D01*
X147969186Y-71950124D01*
X147944743Y-71936012D01*
X147938052Y-71929321D01*
X147929518Y-71923619D01*
X147846380Y-71840481D01*
X147840677Y-71831946D01*
X147833988Y-71825257D01*
X147819877Y-71800816D01*
X147781060Y-71742722D01*
X147767662Y-71710377D01*
X147755672Y-71689610D01*
X147749465Y-71666448D01*
X147736066Y-71634099D01*
X147722433Y-71565563D01*
X147715133Y-71538316D01*
X147715133Y-71528858D01*
X147713130Y-71518788D01*
X147713130Y-71401211D01*
X147715133Y-71391140D01*
X147715133Y-71381684D01*
X147722433Y-71354439D01*
X147736066Y-71285900D01*
X147749466Y-71253548D01*
X147755672Y-71230390D01*
X147767660Y-71209624D01*
X147781060Y-71177277D01*
X147819881Y-71119175D01*
X147833988Y-71094743D01*
X147840675Y-71088055D01*
X147846380Y-71079518D01*
X147929518Y-70996380D01*
X147938055Y-70990675D01*
X147944743Y-70983988D01*
X147969175Y-70969881D01*
X148027277Y-70931060D01*
X148059624Y-70917660D01*
X148080390Y-70905672D01*
X148103548Y-70899466D01*
X148135900Y-70886066D01*
X148204437Y-70872433D01*
X148231684Y-70865133D01*
X148241142Y-70865133D01*
X148251212Y-70863130D01*
X148368788Y-70863130D01*
X148378858Y-70865133D01*
G37*
G36*
X118948708Y-66244194D02*
G01*
X119239311Y-66322061D01*
X119517264Y-66437193D01*
X119777812Y-66587620D01*
X120016495Y-66770768D01*
X120229232Y-66983505D01*
X120412380Y-67222188D01*
X120562807Y-67482736D01*
X120677939Y-67760689D01*
X120755806Y-68051292D01*
X120795076Y-68349573D01*
X120795076Y-68650427D01*
X120755806Y-68948708D01*
X120677939Y-69239311D01*
X120562807Y-69517264D01*
X120412380Y-69777812D01*
X120229232Y-70016495D01*
X120016495Y-70229232D01*
X119777812Y-70412380D01*
X119517264Y-70562807D01*
X119239311Y-70677939D01*
X118948708Y-70755806D01*
X118650427Y-70795076D01*
X118349573Y-70795076D01*
X118051292Y-70755806D01*
X117760689Y-70677939D01*
X117482736Y-70562807D01*
X117222188Y-70412380D01*
X116983505Y-70229232D01*
X116770768Y-70016495D01*
X116587620Y-69777812D01*
X116437193Y-69517264D01*
X116322061Y-69239311D01*
X116244194Y-68948708D01*
X116204924Y-68650427D01*
X116204924Y-68349573D01*
X116244194Y-68051292D01*
X116322061Y-67760689D01*
X116437193Y-67482736D01*
X116587620Y-67222188D01*
X116770768Y-66983505D01*
X116983505Y-66770768D01*
X117222188Y-66587620D01*
X117482736Y-66437193D01*
X117760689Y-66322061D01*
X118051292Y-66244194D01*
X118349573Y-66204924D01*
X118650427Y-66204924D01*
X118948708Y-66244194D01*
G37*
G36*
X146948708Y-66244194D02*
G01*
X147239311Y-66322061D01*
X147517264Y-66437193D01*
X147777812Y-66587620D01*
X148016495Y-66770768D01*
X148229232Y-66983505D01*
X148412380Y-67222188D01*
X148562807Y-67482736D01*
X148677939Y-67760689D01*
X148755806Y-68051292D01*
X148795076Y-68349573D01*
X148795076Y-68650427D01*
X148755806Y-68948708D01*
X148677939Y-69239311D01*
X148562807Y-69517264D01*
X148412380Y-69777812D01*
X148229232Y-70016495D01*
X148016495Y-70229232D01*
X147777812Y-70412380D01*
X147517264Y-70562807D01*
X147239311Y-70677939D01*
X146948708Y-70755806D01*
X146650427Y-70795076D01*
X146349573Y-70795076D01*
X146051292Y-70755806D01*
X145760689Y-70677939D01*
X145482736Y-70562807D01*
X145222188Y-70412380D01*
X144983505Y-70229232D01*
X144770768Y-70016495D01*
X144587620Y-69777812D01*
X144437193Y-69517264D01*
X144322061Y-69239311D01*
X144244194Y-68948708D01*
X144204924Y-68650427D01*
X144204924Y-68349573D01*
X144244194Y-68051292D01*
X144322061Y-67760689D01*
X144437193Y-67482736D01*
X144587620Y-67222188D01*
X144770768Y-66983505D01*
X144983505Y-66770768D01*
X145222188Y-66587620D01*
X145482736Y-66437193D01*
X145760689Y-66322061D01*
X146051292Y-66244194D01*
X146349573Y-66204924D01*
X146650427Y-66204924D01*
X146948708Y-66244194D01*
G37*
M02*
