%TF.GenerationSoftware,KiCad,Pcbnew,9.0.6*%
%TF.CreationDate,2025-12-31T10:36:15+05:30*%
%TF.ProjectId,WheelChair_Controller,57686565-6c43-4686-9169-725f436f6e74,rev?*%
%TF.SameCoordinates,Original*%
%TF.FileFunction,Copper,L4,Bot*%
%TF.FilePolarity,Positive*%
%FSLAX46Y46*%
G04 Gerber Fmt 4.6, Leading zero omitted, Abs format (unit mm)*
G04 Created by KiCad (PCBNEW 9.0.6) date 2025-12-31 10:36:15*
%MOMM*%
%LPD*%
G01*
G04 APERTURE LIST*
G04 Aperture macros list*
%AMRoundRect*
0 Rectangle with rounded corners*
0 $1 Rounding radius*
0 $2 $3 $4 $5 $6 $7 $8 $9 X,Y pos of 4 corners*
0 Add a 4 corners polygon primitive as box body*
4,1,4,$2,$3,$4,$5,$6,$7,$8,$9,$2,$3,0*
0 Add four circle primitives for the rounded corners*
1,1,$1+$1,$2,$3*
1,1,$1+$1,$4,$5*
1,1,$1+$1,$6,$7*
1,1,$1+$1,$8,$9*
0 Add four rect primitives between the rounded corners*
20,1,$1+$1,$2,$3,$4,$5,0*
20,1,$1+$1,$4,$5,$6,$7,0*
20,1,$1+$1,$6,$7,$8,$9,0*
20,1,$1+$1,$8,$9,$2,$3,0*%
G04 Aperture macros list end*
%TA.AperFunction,EtchedComponent*%
%ADD10C,0.000000*%
%TD*%
%TA.AperFunction,ComponentPad*%
%ADD11C,0.700000*%
%TD*%
%TA.AperFunction,ComponentPad*%
%ADD12C,4.400000*%
%TD*%
%TA.AperFunction,HeatsinkPad*%
%ADD13O,1.000000X2.100000*%
%TD*%
%TA.AperFunction,HeatsinkPad*%
%ADD14O,1.000000X1.800000*%
%TD*%
%TA.AperFunction,ComponentPad*%
%ADD15C,1.000000*%
%TD*%
%TA.AperFunction,HeatsinkPad*%
%ADD16O,2.100000X1.000000*%
%TD*%
%TA.AperFunction,HeatsinkPad*%
%ADD17O,1.800000X1.000000*%
%TD*%
%TA.AperFunction,ComponentPad*%
%ADD18C,1.400000*%
%TD*%
%TA.AperFunction,SMDPad,CuDef*%
%ADD19RoundRect,0.155000X-0.212500X-0.155000X0.212500X-0.155000X0.212500X0.155000X-0.212500X0.155000X0*%
%TD*%
%TA.AperFunction,SMDPad,CuDef*%
%ADD20R,0.475000X0.250000*%
%TD*%
%TA.AperFunction,SMDPad,CuDef*%
%ADD21R,0.250000X0.475000*%
%TD*%
%TA.AperFunction,SMDPad,CuDef*%
%ADD22RoundRect,0.155000X-0.155000X0.212500X-0.155000X-0.212500X0.155000X-0.212500X0.155000X0.212500X0*%
%TD*%
%TA.AperFunction,SMDPad,CuDef*%
%ADD23RoundRect,0.150000X0.512500X0.150000X-0.512500X0.150000X-0.512500X-0.150000X0.512500X-0.150000X0*%
%TD*%
%TA.AperFunction,SMDPad,CuDef*%
%ADD24C,0.500000*%
%TD*%
%TA.AperFunction,SMDPad,CuDef*%
%ADD25RoundRect,0.155000X0.212500X0.155000X-0.212500X0.155000X-0.212500X-0.155000X0.212500X-0.155000X0*%
%TD*%
%TA.AperFunction,ViaPad*%
%ADD26C,0.600000*%
%TD*%
%TA.AperFunction,Conductor*%
%ADD27C,0.200000*%
%TD*%
G04 APERTURE END LIST*
D10*
%TA.AperFunction,EtchedComponent*%
%TO.C,NT1*%
G36*
X146500000Y-86250000D02*
G01*
X146000000Y-86250000D01*
X146000000Y-85250000D01*
X146500000Y-85250000D01*
X146500000Y-86250000D01*
G37*
%TD.AperFunction*%
%TD*%
D11*
%TO.P,MH3,1,1*%
%TO.N,GND*%
X130850000Y-97000000D03*
X131333274Y-95833274D03*
X131333274Y-98166726D03*
X132500000Y-95350000D03*
D12*
X132500000Y-97000000D03*
D11*
X132500000Y-98650000D03*
X133666726Y-95833274D03*
X133666726Y-98166726D03*
X134150000Y-97000000D03*
%TD*%
D13*
%TO.P,CAN,S1,SHIELD*%
%TO.N,GND*%
X137830000Y-94145000D03*
D14*
X137830000Y-98325000D03*
D13*
X146470000Y-94145000D03*
D14*
X146470000Y-98325000D03*
%TD*%
D13*
%TO.P,IMU,S1,SHIELD*%
%TO.N,GND*%
X118930000Y-94145000D03*
D14*
X118930000Y-98325000D03*
D13*
X127570000Y-94145000D03*
D14*
X127570000Y-98325000D03*
%TD*%
D11*
%TO.P,MH1,1,1*%
%TO.N,GND*%
X116850000Y-68500000D03*
X117333274Y-67333274D03*
X117333274Y-69666726D03*
X118500000Y-66850000D03*
D12*
X118500000Y-68500000D03*
D11*
X118500000Y-70150000D03*
X119666726Y-67333274D03*
X119666726Y-69666726D03*
X120150000Y-68500000D03*
%TD*%
D15*
%TO.P,U4,1,L/R*%
%TO.N,/I2S_L{slash}R*%
X140690000Y-71460000D03*
%TO.P,U4,2,WS*%
%TO.N,/I2S_WS*%
X140690000Y-74000000D03*
%TO.P,U4,3,SCK*%
%TO.N,/I2S_SCL*%
X140690000Y-76540000D03*
%TO.P,U4,4,SD*%
%TO.N,/I2S_SD*%
X148310000Y-76540000D03*
%TO.P,U4,5,VDD*%
%TO.N,+3V3*%
X148310000Y-74000000D03*
%TO.P,U4,6,GND*%
%TO.N,GND*%
X148310000Y-71460000D03*
%TD*%
D11*
%TO.P,MH2,1,1*%
%TO.N,GND*%
X144850000Y-68500000D03*
X145333274Y-67333274D03*
X145333274Y-69666726D03*
X146500000Y-66850000D03*
D12*
X146500000Y-68500000D03*
D11*
X146500000Y-70150000D03*
X147666726Y-67333274D03*
X147666726Y-69666726D03*
X148150000Y-68500000D03*
%TD*%
D16*
%TO.P,USB,S1,SHIELD*%
%TO.N,GND*%
X144395000Y-88820000D03*
D17*
X148575000Y-88820000D03*
D16*
X144395000Y-80180000D03*
D17*
X148575000Y-80180000D03*
%TD*%
D18*
%TO.P,BOOT__SEL,1,A*%
%TO.N,GND*%
X118000000Y-77250000D03*
%TO.P,BOOT__SEL,2,B*%
%TO.N,/BOOT_SEL*%
X118000000Y-74710000D03*
%TD*%
D19*
%TO.P,C5,1*%
%TO.N,+VBUS*%
X146432500Y-84250000D03*
%TO.P,C5,2*%
%TO.N,GND*%
X147567500Y-84250000D03*
%TD*%
D20*
%TO.P,IMU1,1,SDO*%
%TO.N,GND*%
X133662500Y-81750000D03*
%TO.P,IMU1,2,ASDX*%
%TO.N,unconnected-(IMU1-ASDX-Pad2)*%
X133662500Y-82250000D03*
%TO.P,IMU1,3,ASCX*%
%TO.N,unconnected-(IMU1-ASCX-Pad3)*%
X133662500Y-82750000D03*
%TO.P,IMU1,4,INT1*%
%TO.N,/IMU1_INT1*%
X133662500Y-83250000D03*
D21*
%TO.P,IMU1,5,VDDIO*%
%TO.N,+3V3*%
X133000000Y-83412500D03*
%TO.P,IMU1,6,GNDIO*%
%TO.N,GND*%
X132500000Y-83412500D03*
%TO.P,IMU1,7,GND*%
X132000000Y-83412500D03*
D20*
%TO.P,IMU1,8,VDD*%
%TO.N,+3V3*%
X131337500Y-83250000D03*
%TO.P,IMU1,9,INT2*%
%TO.N,/IMU1_INT2*%
X131337500Y-82750000D03*
%TO.P,IMU1,10,OSCB*%
%TO.N,unconnected-(IMU1-OSCB-Pad10)*%
X131337500Y-82250000D03*
%TO.P,IMU1,11,OSDO*%
%TO.N,unconnected-(IMU1-OSDO-Pad11)*%
X131337500Y-81750000D03*
D21*
%TO.P,IMU1,12,CSB*%
%TO.N,+3V3*%
X132000000Y-81587500D03*
%TO.P,IMU1,13,SCX*%
%TO.N,/IMU1_SCL*%
X132500000Y-81587500D03*
%TO.P,IMU1,14,SDX*%
%TO.N,/IMU1_SDA*%
X133000000Y-81587500D03*
%TD*%
D22*
%TO.P,C6,1*%
%TO.N,+3V3*%
X140750000Y-84432500D03*
%TO.P,C6,2*%
%TO.N,GND*%
X140750000Y-85567500D03*
%TD*%
D23*
%TO.P,U1,1,IN*%
%TO.N,+VBUS*%
X144637500Y-84300000D03*
%TO.P,U1,2,GND*%
%TO.N,GND*%
X144637500Y-85250000D03*
%TO.P,U1,3,EN*%
%TO.N,/LDO_EN*%
X144637500Y-86200000D03*
%TO.P,U1,4,NC*%
%TO.N,unconnected-(U1-NC-Pad4)*%
X142362500Y-86200000D03*
%TO.P,U1,5,OUT*%
%TO.N,+3V3*%
X142362500Y-84300000D03*
%TD*%
D24*
%TO.P,NT1,1,1*%
%TO.N,+VBUS*%
X146250000Y-85250000D03*
%TO.P,NT1,2,2*%
%TO.N,/LDO_EN*%
X146250000Y-86250000D03*
%TD*%
D22*
%TO.P,C4,1*%
%TO.N,+3V3*%
X130250000Y-83682500D03*
%TO.P,C4,2*%
%TO.N,GND*%
X130250000Y-84817500D03*
%TD*%
D25*
%TO.P,C3,1*%
%TO.N,+3V3*%
X132817500Y-84750000D03*
%TO.P,C3,2*%
%TO.N,GND*%
X131682500Y-84750000D03*
%TD*%
D26*
%TO.N,+3V3*%
X120000000Y-84200000D03*
X142500000Y-97500000D03*
X141500000Y-95500000D03*
X137400000Y-92200000D03*
X143500000Y-96500000D03*
X143500000Y-97500000D03*
X131600000Y-80000000D03*
X122100000Y-85000000D03*
X140500000Y-97500000D03*
X139400000Y-92200000D03*
X141500000Y-97500000D03*
X118900000Y-83400000D03*
X142500000Y-96500000D03*
X135800000Y-89900000D03*
X142500000Y-95500000D03*
X135800000Y-88900000D03*
X120000000Y-83400000D03*
X135800000Y-90900000D03*
X144500000Y-97500000D03*
X144500000Y-96500000D03*
X124200000Y-85000000D03*
X140500000Y-96500000D03*
X143500000Y-95500000D03*
X124000000Y-89700000D03*
X141500000Y-96500000D03*
X140500000Y-95500000D03*
X121000000Y-85000000D03*
X125300000Y-65900000D03*
X120000000Y-85000000D03*
X138400000Y-92200000D03*
X123200000Y-85000000D03*
X144500000Y-95500000D03*
%TO.N,GND*%
X129000000Y-78300000D03*
X133750000Y-74000000D03*
X132000000Y-93750000D03*
X148000000Y-96250000D03*
X130000000Y-70500000D03*
X116250000Y-80500000D03*
X116250000Y-94750000D03*
X129000000Y-70500000D03*
X116250000Y-74500000D03*
X148000000Y-94250000D03*
X116250000Y-89750000D03*
X119000000Y-96500000D03*
X130000000Y-71500000D03*
X124500000Y-98500000D03*
X137500000Y-82500000D03*
X129250000Y-96000000D03*
X148500000Y-85750000D03*
X127000000Y-71500000D03*
X131750000Y-69250000D03*
X116250000Y-73500000D03*
X127250000Y-96500000D03*
X137500000Y-84300000D03*
X127500000Y-68500000D03*
X120000000Y-96500000D03*
X116250000Y-70500000D03*
X127000000Y-70500000D03*
X120600000Y-73500000D03*
X119250000Y-92000000D03*
X126250000Y-96500000D03*
X128500000Y-68500000D03*
X149000000Y-95250000D03*
X130000000Y-77500000D03*
X120600000Y-72500000D03*
X130000000Y-93750000D03*
X133750000Y-74900000D03*
X116250000Y-76500000D03*
X117250000Y-95750000D03*
X116250000Y-93750000D03*
X116250000Y-88750000D03*
X116250000Y-95750000D03*
X125250000Y-96500000D03*
X146000000Y-90250000D03*
X129250000Y-98000000D03*
X120600000Y-74500000D03*
X128000000Y-70500000D03*
X148000000Y-92250000D03*
X136000000Y-95000000D03*
X140600000Y-86800000D03*
X124500000Y-97500000D03*
X116250000Y-90750000D03*
X146700000Y-71500000D03*
X120600000Y-75500000D03*
X131750000Y-77250000D03*
X136000000Y-97000000D03*
X136000000Y-96000000D03*
X135400000Y-87000000D03*
X120600000Y-78500000D03*
X117250000Y-96750000D03*
X131750000Y-76250000D03*
X124250000Y-96500000D03*
X123500000Y-98500000D03*
X131750000Y-72250000D03*
X116250000Y-79500000D03*
X120600000Y-81500000D03*
X130000000Y-78300000D03*
X127000000Y-77500000D03*
X128000000Y-77500000D03*
X129250000Y-95000000D03*
X120600000Y-79500000D03*
X116250000Y-92750000D03*
X129000000Y-71500000D03*
X129250000Y-97000000D03*
X129000000Y-69500000D03*
X148500000Y-84750000D03*
X131000000Y-93750000D03*
X117250000Y-94750000D03*
X120600000Y-80500000D03*
X133750000Y-73000000D03*
X117250000Y-71500000D03*
X116250000Y-81500000D03*
X149000000Y-93250000D03*
X143800000Y-66000000D03*
X131750000Y-71250000D03*
X120750000Y-66000000D03*
X128000000Y-78300000D03*
X117250000Y-93750000D03*
X149000000Y-94250000D03*
X116250000Y-78500000D03*
X137500000Y-85200000D03*
X117500000Y-79500000D03*
X136000000Y-98000000D03*
X136100000Y-87000000D03*
X118250000Y-71500000D03*
X133750000Y-78500000D03*
X123500000Y-97500000D03*
X131750000Y-78250000D03*
X148000000Y-90250000D03*
X132750000Y-69250000D03*
X131750000Y-74250000D03*
X148000000Y-93250000D03*
X137500000Y-83400000D03*
X116250000Y-77500000D03*
X120600000Y-71500000D03*
X148000000Y-91250000D03*
X148500000Y-82750000D03*
X133750000Y-76650000D03*
X133750000Y-80400000D03*
X148500000Y-83750000D03*
X148000000Y-97250000D03*
X129000000Y-77500000D03*
X145000000Y-90250000D03*
X122000000Y-96500000D03*
X116250000Y-72500000D03*
X122500000Y-98500000D03*
X144000000Y-90250000D03*
X117250000Y-72500000D03*
X133750000Y-79500000D03*
X131750000Y-75250000D03*
X137500000Y-81600000D03*
X127000000Y-78300000D03*
X135000000Y-95000000D03*
X116250000Y-71500000D03*
X121500000Y-97500000D03*
X118500000Y-79500000D03*
X126500000Y-68500000D03*
X120250000Y-92000000D03*
X131750000Y-70250000D03*
X130000000Y-89650000D03*
X120600000Y-70500000D03*
X148000000Y-95250000D03*
X133750000Y-75750000D03*
X118250000Y-72500000D03*
X116250000Y-75500000D03*
X147000000Y-90250000D03*
X133750000Y-77600000D03*
X128000000Y-71500000D03*
X120600000Y-76500000D03*
X122500000Y-97500000D03*
X128000000Y-69500000D03*
X131750000Y-73250000D03*
X120600000Y-77500000D03*
X121000000Y-96500000D03*
X116250000Y-91750000D03*
X143800000Y-67000000D03*
X130000000Y-90750000D03*
X127000000Y-69500000D03*
X121750000Y-66000000D03*
X121500000Y-98500000D03*
X133000000Y-93750000D03*
X149000000Y-92250000D03*
X119500000Y-71500000D03*
%TO.N,+VBUS*%
X146500000Y-81000000D03*
X148100000Y-78600000D03*
X146500000Y-80200000D03*
X148900000Y-78600000D03*
X147300000Y-78600000D03*
X146500000Y-79400000D03*
X146500000Y-78600000D03*
X146500000Y-82600000D03*
X146500000Y-83400000D03*
X146500000Y-81800000D03*
X140000000Y-79100000D03*
%TO.N,/IMU1_INT1*%
X131900000Y-66200000D03*
%TO.N,/IMU1_SDA*%
X141500000Y-67100000D03*
%TO.N,/IMU1_INT2*%
X130400000Y-66200000D03*
%TO.N,/IMU1_SCL*%
X138400000Y-67100000D03*
%TO.N,/IMU2_INT2*%
X124900000Y-91900000D03*
X122300000Y-95400000D03*
%TO.N,/BOOT_SEL*%
X125500000Y-83600000D03*
%TD*%
D27*
%TO.N,/IMU1_INT1*%
X143000000Y-68500000D02*
X142200000Y-69300000D01*
X134250000Y-83250000D02*
X133662500Y-83250000D01*
X142100000Y-65800000D02*
X143000000Y-66700000D01*
X131900000Y-66200000D02*
X132300000Y-65800000D01*
X132300000Y-65800000D02*
X142100000Y-65800000D01*
X134500000Y-83000000D02*
X134250000Y-83250000D01*
X142200000Y-69300000D02*
X138100000Y-69300000D01*
X138100000Y-69300000D02*
X134500000Y-72900000D01*
X134500000Y-72900000D02*
X134500000Y-83000000D01*
X143000000Y-66700000D02*
X143000000Y-68500000D01*
%TO.N,/IMU1_SDA*%
X136900000Y-67800000D02*
X133000000Y-71700000D01*
X141500000Y-67100000D02*
X140800000Y-67800000D01*
X140800000Y-67800000D02*
X136900000Y-67800000D01*
X133000000Y-71700000D02*
X133000000Y-81587500D01*
%TO.N,/IMU1_INT2*%
X130100000Y-82500000D02*
X129800000Y-82200000D01*
X129800000Y-80400000D02*
X130700000Y-79500000D01*
X129800000Y-82200000D02*
X129800000Y-80400000D01*
X130400000Y-66200000D02*
X129900000Y-66200000D01*
X131337500Y-82750000D02*
X130350000Y-82750000D01*
X130700000Y-79500000D02*
X130700000Y-69400000D01*
X130350000Y-82750000D02*
X130100000Y-82500000D01*
X130700000Y-69400000D02*
X129500000Y-68200000D01*
X129500000Y-66600000D02*
X129900000Y-66200000D01*
X129500000Y-68200000D02*
X129500000Y-66600000D01*
%TO.N,/IMU1_SCL*%
X136700000Y-67100000D02*
X132500000Y-71300000D01*
X132500000Y-71300000D02*
X132500000Y-81587500D01*
X138400000Y-67100000D02*
X136700000Y-67100000D01*
%TO.N,/IMU2_INT2*%
X124200000Y-95400000D02*
X122300000Y-95400000D01*
X124900000Y-91900000D02*
X124500000Y-92300000D01*
X124500000Y-92300000D02*
X124500000Y-95100000D01*
X124500000Y-95100000D02*
X124200000Y-95400000D01*
%TO.N,/BOOT_SEL*%
X121400000Y-83600000D02*
X125500000Y-83600000D01*
X119610000Y-74710000D02*
X119800000Y-74900000D01*
X119800000Y-82000000D02*
X121400000Y-83600000D01*
X119800000Y-74900000D02*
X119800000Y-82000000D01*
X118000000Y-74710000D02*
X119610000Y-74710000D01*
%TO.N,/LDO_EN*%
X144637500Y-86200000D02*
X144687500Y-86250000D01*
X144687500Y-86250000D02*
X146250000Y-86250000D01*
%TD*%
%TA.AperFunction,Conductor*%
%TO.N,GND*%
G36*
X122856825Y-65469407D02*
G01*
X122892789Y-65518907D01*
X122897632Y-65548934D01*
X122992753Y-82194934D01*
X122974179Y-82253232D01*
X122924885Y-82289478D01*
X122893755Y-82294500D01*
X120963976Y-82294500D01*
X120916004Y-82300178D01*
X120876535Y-82309654D01*
X120871062Y-82310968D01*
X120864428Y-82312919D01*
X120851163Y-82316821D01*
X120773727Y-82365477D01*
X120773721Y-82365482D01*
X120752088Y-82387114D01*
X120697570Y-82414890D01*
X120637138Y-82405316D01*
X120612083Y-82387112D01*
X120129496Y-81904525D01*
X120101719Y-81850008D01*
X120100500Y-81834521D01*
X120100500Y-74860439D01*
X120100499Y-74860435D01*
X120092581Y-74830881D01*
X120092581Y-74830880D01*
X120080022Y-74784012D01*
X120080020Y-74784008D01*
X120040463Y-74715493D01*
X120040461Y-74715491D01*
X120040460Y-74715489D01*
X119794511Y-74469540D01*
X119794508Y-74469538D01*
X119725992Y-74429980D01*
X119725988Y-74429978D01*
X119649564Y-74409500D01*
X119649562Y-74409500D01*
X119466605Y-74409500D01*
X119423536Y-74399640D01*
X118487456Y-73947360D01*
X118483728Y-73945917D01*
X118483828Y-73945657D01*
X118460654Y-73934777D01*
X118426547Y-73911987D01*
X118426544Y-73911985D01*
X118426543Y-73911985D01*
X118262666Y-73844106D01*
X118088693Y-73809500D01*
X118088691Y-73809500D01*
X117911309Y-73809500D01*
X117911306Y-73809500D01*
X117737334Y-73844106D01*
X117737332Y-73844106D01*
X117573455Y-73911985D01*
X117573454Y-73911985D01*
X117425965Y-74010535D01*
X117300535Y-74135965D01*
X117201985Y-74283454D01*
X117201985Y-74283455D01*
X117134106Y-74447332D01*
X117134106Y-74447334D01*
X117099500Y-74621306D01*
X117099500Y-74798693D01*
X117134106Y-74972665D01*
X117134106Y-74972667D01*
X117201985Y-75136544D01*
X117201985Y-75136545D01*
X117300535Y-75284034D01*
X117300536Y-75284035D01*
X117425965Y-75409464D01*
X117573453Y-75508013D01*
X117737334Y-75575894D01*
X117911309Y-75610500D01*
X117911310Y-75610500D01*
X118088690Y-75610500D01*
X118088691Y-75610500D01*
X118262666Y-75575894D01*
X118426547Y-75508013D01*
X118460496Y-75485327D01*
X118483187Y-75475162D01*
X118482878Y-75474320D01*
X118487441Y-75472643D01*
X118487453Y-75472640D01*
X119357432Y-75052297D01*
X119418052Y-75044006D01*
X119471968Y-75072931D01*
X119498587Y-75128022D01*
X119499500Y-75141438D01*
X119499500Y-82039564D01*
X119519977Y-82115985D01*
X119519979Y-82115990D01*
X119537306Y-82146001D01*
X119550027Y-82205849D01*
X119525140Y-82261745D01*
X119472151Y-82292337D01*
X119451569Y-82294500D01*
X118841008Y-82294500D01*
X118830258Y-82294922D01*
X118824876Y-82295134D01*
X118811331Y-82296200D01*
X118809396Y-82296353D01*
X118809393Y-82296353D01*
X118809392Y-82296354D01*
X118732230Y-82318115D01*
X118732224Y-82318117D01*
X118677708Y-82345894D01*
X118625699Y-82383681D01*
X118383666Y-82625714D01*
X118372739Y-82637534D01*
X118362645Y-82649353D01*
X118362639Y-82649362D01*
X118323464Y-82719314D01*
X118304556Y-82777507D01*
X118294500Y-82841004D01*
X118294500Y-82841008D01*
X118294500Y-90758992D01*
X118294943Y-90770279D01*
X118295134Y-90775123D01*
X118296353Y-90790602D01*
X118296354Y-90790607D01*
X118318115Y-90867769D01*
X118318117Y-90867775D01*
X118345894Y-90922291D01*
X118383681Y-90974300D01*
X118383683Y-90974302D01*
X118383686Y-90974306D01*
X118825694Y-91416314D01*
X118825707Y-91416326D01*
X118825714Y-91416333D01*
X118837534Y-91427260D01*
X118837544Y-91427269D01*
X118849357Y-91437358D01*
X118919315Y-91476536D01*
X118977506Y-91495443D01*
X118990206Y-91497454D01*
X119041004Y-91505500D01*
X119041008Y-91505500D01*
X124378174Y-91505500D01*
X124387972Y-91508683D01*
X124398214Y-91507549D01*
X124416427Y-91517928D01*
X124436365Y-91524407D01*
X124442421Y-91532743D01*
X124451373Y-91537845D01*
X124460005Y-91556945D01*
X124472329Y-91573907D01*
X124472329Y-91584211D01*
X124476572Y-91593600D01*
X124472329Y-91610772D01*
X124472329Y-91635093D01*
X124464187Y-91653518D01*
X124462301Y-91656825D01*
X124455673Y-91666624D01*
X124452719Y-91673639D01*
X124449784Y-91678791D01*
X124449717Y-91678851D01*
X124449509Y-91679271D01*
X124433607Y-91706814D01*
X124433607Y-91706815D01*
X124426347Y-91733909D01*
X124421966Y-91746694D01*
X124279469Y-92085206D01*
X124262887Y-92109877D01*
X124263490Y-92110340D01*
X124259539Y-92115488D01*
X124219980Y-92184007D01*
X124219978Y-92184011D01*
X124199500Y-92260435D01*
X124199500Y-94934521D01*
X124197031Y-94942118D01*
X124198281Y-94950008D01*
X124187756Y-94970663D01*
X124180593Y-94992712D01*
X124170504Y-95004525D01*
X124104525Y-95070504D01*
X124050008Y-95098281D01*
X124034521Y-95099500D01*
X122961523Y-95099500D01*
X122927778Y-95093571D01*
X122682185Y-95004525D01*
X122512514Y-94943006D01*
X122496763Y-94935673D01*
X122493186Y-94933608D01*
X122493185Y-94933607D01*
X122493184Y-94933607D01*
X122493182Y-94933606D01*
X122472032Y-94927939D01*
X122463912Y-94925384D01*
X122441324Y-94917193D01*
X122426934Y-94912567D01*
X122425266Y-94912098D01*
X122421588Y-94911101D01*
X122421579Y-94911099D01*
X122418998Y-94911019D01*
X122396475Y-94907694D01*
X122365894Y-94899500D01*
X122365892Y-94899500D01*
X122234108Y-94899500D01*
X122168065Y-94917196D01*
X122106809Y-94933609D01*
X121992690Y-94999496D01*
X121899496Y-95092690D01*
X121833609Y-95206809D01*
X121814539Y-95277978D01*
X121799500Y-95334108D01*
X121799500Y-95465892D01*
X121829579Y-95578151D01*
X121833609Y-95593190D01*
X121899496Y-95707309D01*
X121899498Y-95707311D01*
X121899500Y-95707314D01*
X121992686Y-95800500D01*
X121992688Y-95800501D01*
X121992690Y-95800503D01*
X122106810Y-95866390D01*
X122106808Y-95866390D01*
X122106812Y-95866391D01*
X122106814Y-95866392D01*
X122234108Y-95900500D01*
X122234110Y-95900500D01*
X122365891Y-95900500D01*
X122365892Y-95900500D01*
X122419504Y-95886134D01*
X122441337Y-95882801D01*
X122467927Y-95873160D01*
X122493186Y-95866392D01*
X122496756Y-95864330D01*
X122512514Y-95856992D01*
X122925337Y-95707314D01*
X122927778Y-95706429D01*
X122961523Y-95700500D01*
X124239563Y-95700500D01*
X124239563Y-95700499D01*
X124315989Y-95680021D01*
X124384511Y-95640460D01*
X124412485Y-95612485D01*
X124440461Y-95584511D01*
X124632772Y-95392199D01*
X124740460Y-95284511D01*
X124773823Y-95226724D01*
X124780021Y-95215989D01*
X124800500Y-95139562D01*
X124800500Y-94569234D01*
X125564500Y-94569234D01*
X125564500Y-94720766D01*
X125599086Y-94849847D01*
X125603720Y-94867139D01*
X125679481Y-94998360D01*
X125679483Y-94998362D01*
X125679485Y-94998365D01*
X125786635Y-95105515D01*
X125786637Y-95105516D01*
X125786639Y-95105518D01*
X125917861Y-95181279D01*
X125917859Y-95181279D01*
X125917863Y-95181280D01*
X125917865Y-95181281D01*
X126064234Y-95220500D01*
X126064236Y-95220500D01*
X126215764Y-95220500D01*
X126215766Y-95220500D01*
X126362135Y-95181281D01*
X126362137Y-95181279D01*
X126362139Y-95181279D01*
X126493360Y-95105518D01*
X126493360Y-95105517D01*
X126493365Y-95105515D01*
X126600515Y-94998365D01*
X126603779Y-94992712D01*
X126676279Y-94867139D01*
X126676279Y-94867137D01*
X126676281Y-94867135D01*
X126715500Y-94720766D01*
X126715500Y-94569234D01*
X126676281Y-94422865D01*
X126676279Y-94422862D01*
X126676279Y-94422860D01*
X126600518Y-94291639D01*
X126600516Y-94291637D01*
X126600515Y-94291635D01*
X126493365Y-94184485D01*
X126493362Y-94184483D01*
X126493360Y-94184481D01*
X126362138Y-94108720D01*
X126362140Y-94108720D01*
X126305347Y-94093503D01*
X126215766Y-94069500D01*
X126064234Y-94069500D01*
X125974652Y-94093503D01*
X125917860Y-94108720D01*
X125786639Y-94184481D01*
X125679481Y-94291639D01*
X125603720Y-94422860D01*
X125603719Y-94422865D01*
X125564500Y-94569234D01*
X124800500Y-94569234D01*
X124800500Y-92541514D01*
X124809156Y-92514871D01*
X124816344Y-92487791D01*
X124818526Y-92486034D01*
X124819407Y-92483323D01*
X124863803Y-92449174D01*
X124864231Y-92449008D01*
X125021316Y-92390160D01*
X125031848Y-92384210D01*
X125038568Y-92381613D01*
X125040917Y-92381484D01*
X125048645Y-92378326D01*
X125093179Y-92366394D01*
X125093182Y-92366393D01*
X125093181Y-92366393D01*
X125093186Y-92366392D01*
X125207314Y-92300500D01*
X125300500Y-92207314D01*
X125313956Y-92184007D01*
X125366390Y-92093190D01*
X125366390Y-92093188D01*
X125366392Y-92093186D01*
X125400500Y-91965892D01*
X125400500Y-91834108D01*
X125366392Y-91706814D01*
X125345717Y-91671004D01*
X125335900Y-91654000D01*
X125323179Y-91594151D01*
X125348066Y-91538256D01*
X125401054Y-91507663D01*
X125421637Y-91505500D01*
X126773872Y-91505500D01*
X126832063Y-91524407D01*
X126843876Y-91534496D01*
X128225694Y-92916314D01*
X128237544Y-92927269D01*
X128249357Y-92937358D01*
X128319315Y-92976536D01*
X128377506Y-92995443D01*
X128390206Y-92997454D01*
X128441004Y-93005500D01*
X128441008Y-93005500D01*
X138273872Y-93005500D01*
X138332063Y-93024407D01*
X138343876Y-93034496D01*
X138565504Y-93256124D01*
X138593281Y-93310641D01*
X138594500Y-93326128D01*
X138594500Y-93458992D01*
X138594943Y-93470279D01*
X138595134Y-93475123D01*
X138596353Y-93490602D01*
X138596354Y-93490607D01*
X138618115Y-93567769D01*
X138618117Y-93567775D01*
X138645894Y-93622291D01*
X138683684Y-93674304D01*
X138997500Y-93988121D01*
X139025277Y-94042637D01*
X139015706Y-94103069D01*
X138976997Y-94143860D01*
X138906637Y-94184483D01*
X138799481Y-94291639D01*
X138723720Y-94422860D01*
X138723719Y-94422865D01*
X138684500Y-94569234D01*
X138684500Y-94720766D01*
X138719086Y-94849847D01*
X138723720Y-94867139D01*
X138799481Y-94998360D01*
X138799483Y-94998362D01*
X138799485Y-94998365D01*
X138906635Y-95105515D01*
X138906637Y-95105516D01*
X138906639Y-95105518D01*
X139037861Y-95181279D01*
X139037859Y-95181279D01*
X139037863Y-95181280D01*
X139037865Y-95181281D01*
X139184234Y-95220500D01*
X139184236Y-95220500D01*
X139335764Y-95220500D01*
X139335766Y-95220500D01*
X139469881Y-95184564D01*
X139530978Y-95187766D01*
X139578528Y-95226271D01*
X139594500Y-95280191D01*
X139594500Y-98258992D01*
X139594943Y-98270279D01*
X139595134Y-98275123D01*
X139596353Y-98290602D01*
X139596354Y-98290607D01*
X139618115Y-98367769D01*
X139618117Y-98367775D01*
X139645894Y-98422291D01*
X139683681Y-98474300D01*
X139683683Y-98474302D01*
X139683686Y-98474306D01*
X139825694Y-98616314D01*
X139825707Y-98616326D01*
X139825714Y-98616333D01*
X139837534Y-98627260D01*
X139837544Y-98627269D01*
X139849357Y-98637358D01*
X139919315Y-98676536D01*
X139977506Y-98695443D01*
X139990206Y-98697454D01*
X140041004Y-98705500D01*
X140041008Y-98705500D01*
X144758978Y-98705500D01*
X144758992Y-98705500D01*
X144775117Y-98704866D01*
X144790604Y-98703647D01*
X144867772Y-98681884D01*
X144922289Y-98654107D01*
X144974306Y-98616314D01*
X145116314Y-98474306D01*
X145127269Y-98462456D01*
X145137358Y-98450643D01*
X145176536Y-98380685D01*
X145195443Y-98322494D01*
X145200494Y-98290602D01*
X145205500Y-98258995D01*
X145205500Y-95306013D01*
X145205430Y-95300706D01*
X145205429Y-95300657D01*
X145205293Y-95295475D01*
X145204485Y-95291415D01*
X145211673Y-95230656D01*
X145253203Y-95185724D01*
X145260933Y-95181974D01*
X145262131Y-95181281D01*
X145262135Y-95181281D01*
X145393365Y-95105515D01*
X145500515Y-94998365D01*
X145503779Y-94992712D01*
X145576279Y-94867139D01*
X145576279Y-94867137D01*
X145576281Y-94867135D01*
X145615500Y-94720766D01*
X145615500Y-94569234D01*
X145576281Y-94422865D01*
X145576279Y-94422862D01*
X145576279Y-94422860D01*
X145500518Y-94291639D01*
X145500516Y-94291637D01*
X145500515Y-94291635D01*
X145393365Y-94184485D01*
X145393362Y-94184483D01*
X145393360Y-94184481D01*
X145256516Y-94105474D01*
X145257186Y-94104311D01*
X145216020Y-94069152D01*
X145201737Y-94009657D01*
X145202649Y-94001952D01*
X145205500Y-93983951D01*
X145205500Y-93641007D01*
X145204866Y-93624882D01*
X145203647Y-93609395D01*
X145181884Y-93532227D01*
X145154108Y-93477712D01*
X145116315Y-93425695D01*
X140034496Y-88343876D01*
X140006719Y-88289359D01*
X140005500Y-88273872D01*
X140005500Y-86016740D01*
X141499500Y-86016740D01*
X141499500Y-86383260D01*
X141506118Y-86428682D01*
X141509427Y-86451395D01*
X141536196Y-86506151D01*
X141560802Y-86556483D01*
X141643517Y-86639198D01*
X141697285Y-86665483D01*
X141748604Y-86690572D01*
X141748605Y-86690572D01*
X141748607Y-86690573D01*
X141816740Y-86700500D01*
X141816743Y-86700500D01*
X142908257Y-86700500D01*
X142908260Y-86700500D01*
X142976393Y-86690573D01*
X143081483Y-86639198D01*
X143164198Y-86556483D01*
X143215573Y-86451393D01*
X143225500Y-86383260D01*
X143225500Y-86016740D01*
X143215573Y-85948607D01*
X143209164Y-85935498D01*
X143164198Y-85843518D01*
X143164198Y-85843517D01*
X143081483Y-85760802D01*
X143081481Y-85760801D01*
X142976395Y-85709427D01*
X142949139Y-85705456D01*
X142908260Y-85699500D01*
X141816740Y-85699500D01*
X141782673Y-85704463D01*
X141748604Y-85709427D01*
X141643518Y-85760801D01*
X141560801Y-85843518D01*
X141509427Y-85948604D01*
X141504463Y-85982673D01*
X141499500Y-86016740D01*
X140005500Y-86016740D01*
X140005500Y-85226128D01*
X140007968Y-85218530D01*
X140006719Y-85210641D01*
X140017243Y-85189985D01*
X140024407Y-85167937D01*
X140034496Y-85156124D01*
X140156124Y-85034496D01*
X140210641Y-85006719D01*
X140226128Y-85005500D01*
X142658978Y-85005500D01*
X142658992Y-85005500D01*
X142675117Y-85004866D01*
X142690604Y-85003647D01*
X142767772Y-84981884D01*
X142822289Y-84954107D01*
X142874306Y-84916314D01*
X142931841Y-84858779D01*
X142961625Y-84828996D01*
X143016142Y-84801219D01*
X143031628Y-84800000D01*
X143633009Y-84800000D01*
X143685288Y-84816093D01*
X143685561Y-84815593D01*
X143688026Y-84816936D01*
X143688684Y-84817139D01*
X143689836Y-84817923D01*
X143788409Y-84871639D01*
X143788411Y-84871640D01*
X143846604Y-84890548D01*
X143846601Y-84890548D01*
X143941005Y-84905500D01*
X143941008Y-84905500D01*
X145432450Y-84905500D01*
X145440047Y-84907968D01*
X145447937Y-84906719D01*
X145468592Y-84917243D01*
X145490641Y-84924407D01*
X145502454Y-84934496D01*
X145565504Y-84997546D01*
X145593281Y-85052063D01*
X145594500Y-85067548D01*
X145594500Y-85258992D01*
X145595147Y-85275472D01*
X145595442Y-85282969D01*
X145596664Y-85298494D01*
X145597294Y-85305472D01*
X145629015Y-85413170D01*
X145656792Y-85467687D01*
X145680953Y-85500943D01*
X145683420Y-85508537D01*
X145689068Y-85514185D01*
X145692695Y-85537086D01*
X145699859Y-85559134D01*
X145697391Y-85566728D01*
X145698641Y-85574617D01*
X145688115Y-85595275D01*
X145680951Y-85617324D01*
X145670864Y-85629134D01*
X145628998Y-85671002D01*
X145574482Y-85698781D01*
X145558993Y-85700000D01*
X145193740Y-85700000D01*
X145186583Y-85699741D01*
X145183261Y-85699500D01*
X145183260Y-85699500D01*
X144091740Y-85699500D01*
X144057673Y-85704463D01*
X144023604Y-85709427D01*
X143918518Y-85760801D01*
X143835801Y-85843518D01*
X143784427Y-85948604D01*
X143779463Y-85982673D01*
X143774500Y-86016740D01*
X143774500Y-86383260D01*
X143784427Y-86451393D01*
X143789941Y-86462672D01*
X143800000Y-86506151D01*
X143800000Y-87800000D01*
X144000000Y-88000000D01*
X144000001Y-88000000D01*
X146499999Y-88000000D01*
X146500000Y-88000000D01*
X146700000Y-87800000D01*
X146700000Y-86319595D01*
X146700009Y-86318240D01*
X146700111Y-86310759D01*
X146700500Y-86309309D01*
X146700500Y-86282363D01*
X146700509Y-86281706D01*
X146700723Y-86281074D01*
X146702982Y-86261030D01*
X146705500Y-86250000D01*
X146705500Y-85667549D01*
X146724407Y-85609358D01*
X146734490Y-85597551D01*
X146787025Y-85545017D01*
X146803311Y-85527399D01*
X146813400Y-85515586D01*
X146817919Y-85510169D01*
X146818809Y-85508537D01*
X146871639Y-85411590D01*
X146871640Y-85411588D01*
X146890548Y-85353396D01*
X146905500Y-85258995D01*
X146905500Y-85067548D01*
X146924407Y-85009357D01*
X146934490Y-84997550D01*
X147087025Y-84845016D01*
X147103302Y-84827408D01*
X147112073Y-84817139D01*
X147113394Y-84815593D01*
X147117916Y-84810172D01*
X147117919Y-84810169D01*
X147141630Y-84766659D01*
X147171639Y-84711590D01*
X147171640Y-84711588D01*
X147190548Y-84653396D01*
X147205500Y-84558995D01*
X147205500Y-84469831D01*
X147205165Y-84455532D01*
X147205165Y-84455521D01*
X147205108Y-84454320D01*
X147205000Y-84449683D01*
X147205000Y-84050316D01*
X147205108Y-84045693D01*
X147205167Y-84044430D01*
X147205500Y-84030168D01*
X147205500Y-83667549D01*
X147224407Y-83609358D01*
X147234490Y-83597551D01*
X147687025Y-83145017D01*
X147703311Y-83127399D01*
X147713400Y-83115586D01*
X147717919Y-83110169D01*
X147725222Y-83096769D01*
X147771639Y-83011590D01*
X147771640Y-83011588D01*
X147777589Y-82993281D01*
X147785415Y-82969192D01*
X147790548Y-82953396D01*
X147805500Y-82858995D01*
X147805500Y-80640678D01*
X147797607Y-80587473D01*
X147792345Y-80552000D01*
X147775660Y-80496998D01*
X147774939Y-80495474D01*
X147735764Y-80412648D01*
X147735901Y-80412582D01*
X147733592Y-80407847D01*
X147702755Y-80333399D01*
X147702755Y-80333398D01*
X147697121Y-80314827D01*
X147681902Y-80238313D01*
X147680000Y-80219000D01*
X147680000Y-80140996D01*
X147681902Y-80121683D01*
X147697121Y-80045169D01*
X147702753Y-80026601D01*
X147733591Y-79952152D01*
X147735910Y-79947412D01*
X147735769Y-79947345D01*
X147741775Y-79934645D01*
X147775664Y-79862991D01*
X147792347Y-79807991D01*
X147795019Y-79789975D01*
X147822259Y-79735189D01*
X147876500Y-79706876D01*
X147892948Y-79705500D01*
X147983332Y-79705500D01*
X147983346Y-79705500D01*
X148013286Y-79704029D01*
X148032600Y-79702127D01*
X148032617Y-79702124D01*
X148032621Y-79702124D01*
X148036150Y-79701600D01*
X148062262Y-79697727D01*
X148108542Y-79688521D01*
X148116682Y-79686902D01*
X148135996Y-79685000D01*
X149014000Y-79685000D01*
X149033314Y-79686902D01*
X149087740Y-79697728D01*
X149117400Y-79702127D01*
X149136714Y-79704029D01*
X149166654Y-79705500D01*
X149166668Y-79705500D01*
X149450500Y-79705500D01*
X149508691Y-79724407D01*
X149544655Y-79773907D01*
X149549500Y-79804500D01*
X149549500Y-94997834D01*
X149549406Y-95002152D01*
X149532376Y-95392199D01*
X149531623Y-95400803D01*
X149480946Y-95785730D01*
X149479446Y-95794235D01*
X149395416Y-96173271D01*
X149393181Y-96181614D01*
X149276431Y-96551898D01*
X149273477Y-96560014D01*
X149124900Y-96918710D01*
X149121250Y-96926537D01*
X148941981Y-97270910D01*
X148937663Y-97278390D01*
X148729050Y-97605846D01*
X148724096Y-97612920D01*
X148487747Y-97920936D01*
X148482197Y-97927550D01*
X148219895Y-98213802D01*
X148213802Y-98219895D01*
X147936185Y-98474285D01*
X147927552Y-98482196D01*
X147920936Y-98487747D01*
X147612920Y-98724096D01*
X147605846Y-98729050D01*
X147278390Y-98937663D01*
X147270910Y-98941981D01*
X146926537Y-99121250D01*
X146918710Y-99124900D01*
X146560014Y-99273477D01*
X146551898Y-99276431D01*
X146181614Y-99393181D01*
X146173271Y-99395416D01*
X145794235Y-99479446D01*
X145785730Y-99480946D01*
X145400803Y-99531623D01*
X145392199Y-99532376D01*
X145002153Y-99549406D01*
X144997835Y-99549500D01*
X120002165Y-99549500D01*
X119997847Y-99549406D01*
X119607800Y-99532376D01*
X119599196Y-99531623D01*
X119214269Y-99480946D01*
X119205764Y-99479446D01*
X118826728Y-99395416D01*
X118818385Y-99393181D01*
X118448101Y-99276431D01*
X118439985Y-99273477D01*
X118081289Y-99124900D01*
X118073462Y-99121250D01*
X117729089Y-98941981D01*
X117721609Y-98937663D01*
X117394153Y-98729050D01*
X117387079Y-98724096D01*
X117079063Y-98487747D01*
X117072460Y-98482207D01*
X116786185Y-98219884D01*
X116780115Y-98213814D01*
X116517791Y-97927537D01*
X116512252Y-97920936D01*
X116275903Y-97612920D01*
X116270949Y-97605846D01*
X116062336Y-97278390D01*
X116058018Y-97270910D01*
X115878749Y-96926537D01*
X115875099Y-96918710D01*
X115726522Y-96560014D01*
X115723568Y-96551898D01*
X115606818Y-96181614D01*
X115604583Y-96173271D01*
X115541240Y-95887548D01*
X115520552Y-95794230D01*
X115519053Y-95785730D01*
X115468374Y-95400791D01*
X115467624Y-95392211D01*
X115450594Y-95002152D01*
X115450500Y-94997834D01*
X115450500Y-94569234D01*
X119784500Y-94569234D01*
X119784500Y-94720766D01*
X119819086Y-94849847D01*
X119823720Y-94867139D01*
X119899481Y-94998360D01*
X119899483Y-94998362D01*
X119899485Y-94998365D01*
X120006635Y-95105515D01*
X120006637Y-95105516D01*
X120006639Y-95105518D01*
X120137861Y-95181279D01*
X120137859Y-95181279D01*
X120137863Y-95181280D01*
X120137865Y-95181281D01*
X120284234Y-95220500D01*
X120284236Y-95220500D01*
X120435764Y-95220500D01*
X120435766Y-95220500D01*
X120582135Y-95181281D01*
X120582137Y-95181279D01*
X120582139Y-95181279D01*
X120713360Y-95105518D01*
X120713360Y-95105517D01*
X120713365Y-95105515D01*
X120820515Y-94998365D01*
X120823779Y-94992712D01*
X120896279Y-94867139D01*
X120896279Y-94867137D01*
X120896281Y-94867135D01*
X120935500Y-94720766D01*
X120935500Y-94569234D01*
X120896281Y-94422865D01*
X120896279Y-94422862D01*
X120896279Y-94422860D01*
X120820518Y-94291639D01*
X120820516Y-94291637D01*
X120820515Y-94291635D01*
X120713365Y-94184485D01*
X120713362Y-94184483D01*
X120713360Y-94184481D01*
X120582138Y-94108720D01*
X120582140Y-94108720D01*
X120525347Y-94093503D01*
X120435766Y-94069500D01*
X120284234Y-94069500D01*
X120194652Y-94093503D01*
X120137860Y-94108720D01*
X120006639Y-94184481D01*
X119899481Y-94291639D01*
X119823720Y-94422860D01*
X119823719Y-94422865D01*
X119784500Y-94569234D01*
X115450500Y-94569234D01*
X115450500Y-70002165D01*
X115450594Y-69997847D01*
X115453089Y-69940691D01*
X115467624Y-69607786D01*
X115468374Y-69599210D01*
X115519054Y-69214260D01*
X115520553Y-69205764D01*
X115552971Y-69059538D01*
X115604584Y-68826720D01*
X115606818Y-68818385D01*
X115636272Y-68724971D01*
X115723570Y-68448094D01*
X115726522Y-68439985D01*
X115741210Y-68404525D01*
X115875106Y-68081272D01*
X115878741Y-68073478D01*
X116058023Y-67729079D01*
X116062330Y-67721618D01*
X116270956Y-67394142D01*
X116275894Y-67387090D01*
X116512262Y-67079050D01*
X116517781Y-67072473D01*
X116780126Y-66786173D01*
X116786173Y-66780126D01*
X117072473Y-66517781D01*
X117079050Y-66512262D01*
X117387090Y-66275894D01*
X117394142Y-66270956D01*
X117721618Y-66062330D01*
X117729079Y-66058023D01*
X118073478Y-65878741D01*
X118081272Y-65875106D01*
X118439992Y-65726519D01*
X118448094Y-65723570D01*
X118818393Y-65606815D01*
X118826720Y-65604584D01*
X119205773Y-65520551D01*
X119214260Y-65519054D01*
X119599210Y-65468374D01*
X119607786Y-65467624D01*
X119997847Y-65450593D01*
X120002165Y-65450500D01*
X120059309Y-65450500D01*
X122798634Y-65450500D01*
X122856825Y-65469407D01*
G37*
%TD.AperFunction*%
%TA.AperFunction,Conductor*%
G36*
X129900000Y-88400000D02*
G01*
X129810826Y-88489173D01*
X129821769Y-88477336D01*
X129831858Y-88465523D01*
X129871036Y-88395565D01*
X129889943Y-88337374D01*
X129893965Y-88311973D01*
X129900000Y-88273875D01*
X129900000Y-88400000D01*
G37*
%TD.AperFunction*%
%TA.AperFunction,Conductor*%
G36*
X135451426Y-86708373D02*
G01*
X135480311Y-86716112D01*
X135501277Y-86721729D01*
X135525154Y-86731619D01*
X135597750Y-86773533D01*
X135636994Y-86791006D01*
X135676146Y-86803728D01*
X135690935Y-86807929D01*
X135782381Y-86809296D01*
X135842229Y-86796574D01*
X135902251Y-86773532D01*
X135974841Y-86731619D01*
X135998712Y-86721732D01*
X136048578Y-86708371D01*
X136074194Y-86705000D01*
X136125805Y-86705000D01*
X136151427Y-86708373D01*
X136201279Y-86721730D01*
X136225152Y-86731618D01*
X136269847Y-86757423D01*
X136290339Y-86773147D01*
X136326852Y-86809659D01*
X136342578Y-86830156D01*
X136368377Y-86874841D01*
X136378267Y-86898717D01*
X136391626Y-86948572D01*
X136395000Y-86974196D01*
X136395000Y-87025802D01*
X136391626Y-87051426D01*
X136378268Y-87101277D01*
X136368378Y-87125154D01*
X136342574Y-87169847D01*
X136326842Y-87190350D01*
X136290348Y-87226844D01*
X136269845Y-87242576D01*
X136241119Y-87259161D01*
X136225158Y-87268377D01*
X136225156Y-87268378D01*
X136201279Y-87278268D01*
X136151429Y-87291626D01*
X136125805Y-87295000D01*
X136074197Y-87295000D01*
X136048573Y-87291626D01*
X135998722Y-87278268D01*
X135974847Y-87268379D01*
X135924816Y-87239495D01*
X135902248Y-87226465D01*
X135902244Y-87226463D01*
X135902242Y-87226462D01*
X135902240Y-87226461D01*
X135863004Y-87208991D01*
X135863000Y-87208989D01*
X135823871Y-87196275D01*
X135821431Y-87195582D01*
X135809068Y-87192071D01*
X135809065Y-87192070D01*
X135719031Y-87190724D01*
X135717622Y-87190703D01*
X135717621Y-87190703D01*
X135657772Y-87203424D01*
X135597752Y-87226464D01*
X135597749Y-87226465D01*
X135597748Y-87226466D01*
X135569847Y-87242575D01*
X135525153Y-87268379D01*
X135501277Y-87278268D01*
X135451426Y-87291626D01*
X135425802Y-87295000D01*
X135374200Y-87295000D01*
X135348577Y-87291627D01*
X135298721Y-87278268D01*
X135274843Y-87268377D01*
X135230154Y-87242575D01*
X135209651Y-87226843D01*
X135173149Y-87190341D01*
X135157417Y-87169837D01*
X135131623Y-87125161D01*
X135121732Y-87101283D01*
X135108373Y-87051424D01*
X135105000Y-87025802D01*
X135105000Y-86974194D01*
X135108373Y-86948572D01*
X135121731Y-86898716D01*
X135131617Y-86874846D01*
X135157422Y-86830151D01*
X135173146Y-86809658D01*
X135209658Y-86773146D01*
X135230149Y-86757423D01*
X135274846Y-86731617D01*
X135298717Y-86721731D01*
X135348574Y-86708373D01*
X135374195Y-86705000D01*
X135425805Y-86705000D01*
X135451426Y-86708373D01*
G37*
%TD.AperFunction*%
%TA.AperFunction,Conductor*%
G36*
X132544431Y-83207164D02*
G01*
X132567329Y-83210792D01*
X132572975Y-83216438D01*
X132580572Y-83218907D01*
X132594199Y-83237664D01*
X132610592Y-83254057D01*
X132611841Y-83261945D01*
X132616536Y-83268407D01*
X132619934Y-83311602D01*
X132620305Y-83311632D01*
X132620121Y-83313969D01*
X132620161Y-83314486D01*
X132620000Y-83315508D01*
X132620000Y-83315512D01*
X132620000Y-83639758D01*
X132618097Y-83659074D01*
X132614353Y-83677894D01*
X132612393Y-83685963D01*
X132605993Y-83708195D01*
X132604419Y-83715832D01*
X132603350Y-83719355D01*
X132603350Y-83719356D01*
X132594500Y-83779015D01*
X132594500Y-83973870D01*
X132575593Y-84032061D01*
X132565504Y-84043873D01*
X132283680Y-84325697D01*
X132272721Y-84337553D01*
X132262638Y-84349359D01*
X132262633Y-84349367D01*
X132223466Y-84419310D01*
X132223464Y-84419313D01*
X132204555Y-84477509D01*
X132194500Y-84541003D01*
X132194500Y-85373872D01*
X132175593Y-85432063D01*
X132165504Y-85443876D01*
X131943876Y-85665504D01*
X131889359Y-85693281D01*
X131873872Y-85694500D01*
X130804500Y-85694500D01*
X130772356Y-85697030D01*
X130741706Y-85701883D01*
X130737218Y-85702646D01*
X130737213Y-85702647D01*
X130653117Y-85738591D01*
X130603618Y-85774555D01*
X130575872Y-85798797D01*
X130528964Y-85877307D01*
X130528962Y-85877310D01*
X130510056Y-85935499D01*
X130500000Y-85998996D01*
X130500000Y-85200000D01*
X130600000Y-85100000D01*
X130600000Y-84500000D01*
X130500000Y-84400000D01*
X130000000Y-84400000D01*
X129900000Y-84500000D01*
X129900000Y-85735507D01*
X129899366Y-85719382D01*
X129898147Y-85703895D01*
X129876384Y-85626727D01*
X129848608Y-85572212D01*
X129835880Y-85554694D01*
X129810816Y-85520196D01*
X129734496Y-85443875D01*
X129706719Y-85389358D01*
X129705500Y-85373872D01*
X129705500Y-84304500D01*
X129710345Y-84289588D01*
X129710345Y-84273907D01*
X129719561Y-84261221D01*
X129724407Y-84246309D01*
X129737092Y-84237092D01*
X129746309Y-84224407D01*
X129761221Y-84219561D01*
X129773907Y-84210345D01*
X129804500Y-84205500D01*
X129897801Y-84205500D01*
X129941282Y-84215560D01*
X129992153Y-84240430D01*
X129992154Y-84240430D01*
X129992160Y-84240433D01*
X130061258Y-84250500D01*
X130061261Y-84250500D01*
X130438738Y-84250500D01*
X130438742Y-84250500D01*
X130507840Y-84240433D01*
X130566320Y-84211842D01*
X130586043Y-84205403D01*
X130585921Y-84204968D01*
X130608095Y-84198714D01*
X130667771Y-84181884D01*
X130722288Y-84154107D01*
X130763165Y-84124407D01*
X130821355Y-84105500D01*
X131458978Y-84105500D01*
X131458992Y-84105500D01*
X131475117Y-84104866D01*
X131490604Y-84103647D01*
X131567772Y-84081884D01*
X131622289Y-84054107D01*
X131674306Y-84016314D01*
X131716314Y-83974306D01*
X131727269Y-83962456D01*
X131737358Y-83950643D01*
X131776536Y-83880685D01*
X131795443Y-83822494D01*
X131802329Y-83779015D01*
X131805500Y-83758995D01*
X131805500Y-83299000D01*
X131824407Y-83240809D01*
X131873907Y-83204845D01*
X131904500Y-83200000D01*
X132522381Y-83200000D01*
X132544431Y-83207164D01*
G37*
%TD.AperFunction*%
%TA.AperFunction,Conductor*%
G36*
X137551427Y-81308373D02*
G01*
X137601279Y-81321730D01*
X137625152Y-81331618D01*
X137669847Y-81357423D01*
X137690339Y-81373147D01*
X137726852Y-81409659D01*
X137742578Y-81430156D01*
X137768377Y-81474841D01*
X137778267Y-81498717D01*
X137791626Y-81548572D01*
X137795000Y-81574196D01*
X137795000Y-81625804D01*
X137791626Y-81651428D01*
X137778268Y-81701278D01*
X137768378Y-81725153D01*
X137755476Y-81747500D01*
X137742575Y-81769846D01*
X137726844Y-81790347D01*
X137682507Y-81834685D01*
X137682501Y-81834691D01*
X137661558Y-81859213D01*
X137643333Y-81884299D01*
X137640689Y-81888025D01*
X137606639Y-81972915D01*
X137599067Y-82020724D01*
X137585148Y-82048040D01*
X137586922Y-82049814D01*
X137594713Y-82070574D01*
X137616935Y-82158779D01*
X137644712Y-82213295D01*
X137682502Y-82265308D01*
X137726847Y-82309654D01*
X137742577Y-82330153D01*
X137768377Y-82374839D01*
X137778266Y-82398714D01*
X137791626Y-82448571D01*
X137795000Y-82474196D01*
X137795000Y-82525802D01*
X137791626Y-82551426D01*
X137778268Y-82601277D01*
X137768378Y-82625154D01*
X137742574Y-82669847D01*
X137726843Y-82690348D01*
X137682500Y-82734692D01*
X137682498Y-82734694D01*
X137661558Y-82759214D01*
X137643333Y-82784299D01*
X137640689Y-82788025D01*
X137625659Y-82825496D01*
X137612224Y-82858992D01*
X137606639Y-82872915D01*
X137599067Y-82920724D01*
X137585148Y-82948040D01*
X137586922Y-82949814D01*
X137594713Y-82970574D01*
X137616935Y-83058779D01*
X137644712Y-83113295D01*
X137682502Y-83165308D01*
X137726847Y-83209654D01*
X137742577Y-83230153D01*
X137768377Y-83274839D01*
X137778266Y-83298714D01*
X137791626Y-83348571D01*
X137795000Y-83374196D01*
X137795000Y-83425802D01*
X137791626Y-83451426D01*
X137778268Y-83501277D01*
X137768378Y-83525154D01*
X137742574Y-83569847D01*
X137726843Y-83590348D01*
X137682500Y-83634692D01*
X137682498Y-83634694D01*
X137663069Y-83657443D01*
X137661678Y-83659074D01*
X137661558Y-83659214D01*
X137643333Y-83684299D01*
X137640689Y-83688025D01*
X137628122Y-83719356D01*
X137612224Y-83758992D01*
X137606639Y-83772915D01*
X137599067Y-83820724D01*
X137585148Y-83848040D01*
X137586922Y-83849814D01*
X137594713Y-83870574D01*
X137616935Y-83958779D01*
X137644712Y-84013295D01*
X137682502Y-84065308D01*
X137726847Y-84109654D01*
X137742577Y-84130153D01*
X137756407Y-84154107D01*
X137768377Y-84174839D01*
X137778266Y-84198714D01*
X137791626Y-84248571D01*
X137795000Y-84274196D01*
X137795000Y-84325802D01*
X137791626Y-84351426D01*
X137778268Y-84401277D01*
X137768378Y-84425154D01*
X137742574Y-84469847D01*
X137726843Y-84490348D01*
X137682500Y-84534692D01*
X137682498Y-84534694D01*
X137668878Y-84550643D01*
X137661557Y-84559215D01*
X137656207Y-84566577D01*
X137643333Y-84584299D01*
X137640689Y-84588025D01*
X137619353Y-84641218D01*
X137614469Y-84653395D01*
X137606639Y-84672915D01*
X137599067Y-84720724D01*
X137585148Y-84748040D01*
X137586922Y-84749814D01*
X137594713Y-84770574D01*
X137616935Y-84858779D01*
X137644712Y-84913295D01*
X137682502Y-84965308D01*
X137726847Y-85009654D01*
X137742577Y-85030153D01*
X137768377Y-85074839D01*
X137778266Y-85098714D01*
X137791626Y-85148571D01*
X137795000Y-85174196D01*
X137795000Y-85225802D01*
X137791626Y-85251426D01*
X137778268Y-85301277D01*
X137768378Y-85325154D01*
X137742574Y-85369847D01*
X137726842Y-85390350D01*
X137690348Y-85426844D01*
X137669845Y-85442576D01*
X137641119Y-85459161D01*
X137625158Y-85468377D01*
X137625156Y-85468378D01*
X137601279Y-85478268D01*
X137551429Y-85491626D01*
X137525805Y-85495000D01*
X137474200Y-85495000D01*
X137448577Y-85491627D01*
X137398721Y-85478268D01*
X137374843Y-85468377D01*
X137330154Y-85442575D01*
X137309651Y-85426843D01*
X137273149Y-85390341D01*
X137257417Y-85369837D01*
X137231623Y-85325161D01*
X137221732Y-85301283D01*
X137208373Y-85251424D01*
X137205000Y-85225802D01*
X137205000Y-85174194D01*
X137208373Y-85148573D01*
X137221730Y-85098720D01*
X137231620Y-85074842D01*
X137244771Y-85052063D01*
X137257421Y-85030151D01*
X137273152Y-85009652D01*
X137317496Y-84965309D01*
X137338436Y-84940792D01*
X137356640Y-84915737D01*
X137359311Y-84911973D01*
X137393359Y-84827091D01*
X137393359Y-84827086D01*
X137393361Y-84827083D01*
X137400932Y-84779276D01*
X137414850Y-84751956D01*
X137413076Y-84750182D01*
X137405289Y-84729432D01*
X137383063Y-84641220D01*
X137355287Y-84586705D01*
X137335314Y-84559214D01*
X137317496Y-84534690D01*
X137273151Y-84490344D01*
X137257418Y-84469840D01*
X137249157Y-84455532D01*
X137231621Y-84425158D01*
X137221732Y-84401282D01*
X137208373Y-84351424D01*
X137205000Y-84325802D01*
X137205000Y-84274194D01*
X137208373Y-84248573D01*
X137218615Y-84210345D01*
X137221732Y-84198714D01*
X137231620Y-84174842D01*
X137243591Y-84154107D01*
X137257421Y-84130151D01*
X137273152Y-84109652D01*
X137317496Y-84065309D01*
X137338436Y-84040792D01*
X137356640Y-84015737D01*
X137359311Y-84011973D01*
X137393359Y-83927091D01*
X137393359Y-83927086D01*
X137393361Y-83927083D01*
X137400932Y-83879276D01*
X137406069Y-83869192D01*
X137406831Y-83857901D01*
X137413184Y-83850290D01*
X137413076Y-83850182D01*
X137405289Y-83829432D01*
X137383063Y-83741220D01*
X137355287Y-83686705D01*
X137349664Y-83678965D01*
X137317496Y-83634690D01*
X137273151Y-83590344D01*
X137257418Y-83569840D01*
X137253255Y-83562630D01*
X137231621Y-83525158D01*
X137221732Y-83501282D01*
X137208373Y-83451424D01*
X137205000Y-83425802D01*
X137205000Y-83374194D01*
X137208373Y-83348573D01*
X137221730Y-83298720D01*
X137231620Y-83274842D01*
X137251212Y-83240907D01*
X137257421Y-83230151D01*
X137273152Y-83209652D01*
X137317496Y-83165309D01*
X137338436Y-83140792D01*
X137356640Y-83115737D01*
X137359311Y-83111973D01*
X137393359Y-83027091D01*
X137393359Y-83027086D01*
X137393361Y-83027083D01*
X137400932Y-82979276D01*
X137406069Y-82969192D01*
X137406831Y-82957901D01*
X137413184Y-82950290D01*
X137413076Y-82950182D01*
X137405289Y-82929432D01*
X137383063Y-82841220D01*
X137355287Y-82786705D01*
X137317495Y-82734689D01*
X137302120Y-82719314D01*
X137273151Y-82690344D01*
X137257418Y-82669840D01*
X137245592Y-82649357D01*
X137231621Y-82625158D01*
X137221732Y-82601282D01*
X137208373Y-82551424D01*
X137205000Y-82525802D01*
X137205000Y-82474194D01*
X137208373Y-82448573D01*
X137219044Y-82408745D01*
X137221732Y-82398714D01*
X137231620Y-82374842D01*
X137248333Y-82345894D01*
X137257421Y-82330151D01*
X137273152Y-82309652D01*
X137317496Y-82265309D01*
X137338436Y-82240792D01*
X137356640Y-82215737D01*
X137359311Y-82211973D01*
X137393359Y-82127091D01*
X137393359Y-82127086D01*
X137393361Y-82127083D01*
X137400932Y-82079276D01*
X137406069Y-82069192D01*
X137406831Y-82057901D01*
X137413184Y-82050290D01*
X137413076Y-82050182D01*
X137405289Y-82029432D01*
X137383063Y-81941220D01*
X137355287Y-81886705D01*
X137328625Y-81850008D01*
X137317496Y-81834690D01*
X137273151Y-81790344D01*
X137257418Y-81769840D01*
X137231622Y-81725159D01*
X137221732Y-81701282D01*
X137208373Y-81651424D01*
X137205000Y-81625802D01*
X137205000Y-81574194D01*
X137208373Y-81548572D01*
X137221731Y-81498716D01*
X137231617Y-81474846D01*
X137257422Y-81430151D01*
X137273146Y-81409658D01*
X137309658Y-81373146D01*
X137330149Y-81357423D01*
X137374846Y-81331617D01*
X137398717Y-81321731D01*
X137448574Y-81308373D01*
X137474195Y-81305000D01*
X137525805Y-81305000D01*
X137551427Y-81308373D01*
G37*
%TD.AperFunction*%
%TA.AperFunction,Conductor*%
G36*
X141992712Y-66119407D02*
G01*
X142004525Y-66129496D01*
X142670504Y-66795475D01*
X142698281Y-66849992D01*
X142699500Y-66865479D01*
X142699500Y-68334521D01*
X142680593Y-68392712D01*
X142670504Y-68404525D01*
X142104525Y-68970504D01*
X142050008Y-68998281D01*
X142034521Y-68999500D01*
X138060435Y-68999500D01*
X137984011Y-69019978D01*
X137984007Y-69019980D01*
X137915491Y-69059538D01*
X134315489Y-72659540D01*
X134315488Y-72659539D01*
X134259539Y-72715489D01*
X134219980Y-72784007D01*
X134219978Y-72784011D01*
X134199500Y-72860435D01*
X134199500Y-81801000D01*
X134180593Y-81859191D01*
X134131093Y-81895155D01*
X134100500Y-81900000D01*
X133424500Y-81900000D01*
X133366309Y-81881093D01*
X133330345Y-81831593D01*
X133325500Y-81801000D01*
X133325500Y-81330253D01*
X133325498Y-81330241D01*
X133320477Y-81305000D01*
X133313867Y-81271769D01*
X133313863Y-81271764D01*
X133310134Y-81262757D01*
X133312630Y-81261723D01*
X133300500Y-81221732D01*
X133300500Y-71865479D01*
X133319407Y-71807288D01*
X133329496Y-71795475D01*
X136995475Y-68129496D01*
X137049992Y-68101719D01*
X137065479Y-68100500D01*
X140839563Y-68100500D01*
X140839563Y-68100499D01*
X140915989Y-68080021D01*
X140984511Y-68040460D01*
X141040460Y-67984511D01*
X141244720Y-67780249D01*
X141272768Y-67760583D01*
X141680768Y-67569719D01*
X141693186Y-67566392D01*
X141715841Y-67553312D01*
X141741450Y-67541332D01*
X141755088Y-67534321D01*
X141756598Y-67533472D01*
X141759699Y-67531693D01*
X141761580Y-67529926D01*
X141779853Y-67516353D01*
X141807314Y-67500500D01*
X141900500Y-67407314D01*
X141966392Y-67293186D01*
X142000500Y-67165892D01*
X142000500Y-67034108D01*
X141966392Y-66906814D01*
X141966390Y-66906811D01*
X141966390Y-66906809D01*
X141900503Y-66792690D01*
X141900501Y-66792688D01*
X141900500Y-66792686D01*
X141807314Y-66699500D01*
X141807311Y-66699498D01*
X141807309Y-66699496D01*
X141693189Y-66633609D01*
X141693191Y-66633609D01*
X141631942Y-66617198D01*
X141565892Y-66599500D01*
X141434108Y-66599500D01*
X141431449Y-66599500D01*
X141423821Y-66600000D01*
X138476179Y-66600000D01*
X138468551Y-66599500D01*
X138465892Y-66599500D01*
X138334108Y-66599500D01*
X138334103Y-66599500D01*
X138285775Y-66612448D01*
X138285776Y-66612449D01*
X138280494Y-66613864D01*
X138258664Y-66617198D01*
X138232071Y-66626838D01*
X138227946Y-66627944D01*
X138227944Y-66627943D01*
X138206821Y-66633605D01*
X138206805Y-66633611D01*
X138203233Y-66635674D01*
X138187487Y-66643004D01*
X137772220Y-66793571D01*
X137738474Y-66799500D01*
X136660435Y-66799500D01*
X136584011Y-66819978D01*
X136584007Y-66819980D01*
X136566424Y-66830131D01*
X136566425Y-66830132D01*
X136515490Y-66859539D01*
X132315489Y-71059540D01*
X132315488Y-71059539D01*
X132259539Y-71115489D01*
X132219980Y-71184007D01*
X132219978Y-71184011D01*
X132199500Y-71260435D01*
X132199500Y-79001000D01*
X132180593Y-79059191D01*
X132131093Y-79095155D01*
X132100500Y-79100000D01*
X131099500Y-79100000D01*
X131041309Y-79081093D01*
X131005345Y-79031593D01*
X131000500Y-79001000D01*
X131000500Y-69360437D01*
X131000499Y-69360435D01*
X130980021Y-69284011D01*
X130980019Y-69284007D01*
X130940460Y-69215489D01*
X130884511Y-69159539D01*
X130884511Y-69159540D01*
X129829496Y-68104525D01*
X129801719Y-68050008D01*
X129800500Y-68034521D01*
X129800500Y-66899000D01*
X129819407Y-66840809D01*
X129868907Y-66804845D01*
X129899500Y-66800000D01*
X132499999Y-66800000D01*
X132500000Y-66800000D01*
X132500000Y-66199500D01*
X132518907Y-66141309D01*
X132568407Y-66105345D01*
X132599000Y-66100500D01*
X141934521Y-66100500D01*
X141992712Y-66119407D01*
G37*
%TD.AperFunction*%
%TA.AperFunction,Conductor*%
G36*
X145003313Y-79686902D02*
G01*
X145041570Y-79694511D01*
X145079829Y-79702121D01*
X145098395Y-79707754D01*
X145170460Y-79737603D01*
X145187577Y-79746752D01*
X145252265Y-79789976D01*
X145252432Y-79790087D01*
X145267434Y-79802398D01*
X145322598Y-79857562D01*
X145334909Y-79872564D01*
X145378246Y-79937422D01*
X145387395Y-79954539D01*
X145417243Y-80026599D01*
X145422876Y-80045169D01*
X145438097Y-80121685D01*
X145440000Y-80141000D01*
X145440000Y-80218998D01*
X145438098Y-80238313D01*
X145422878Y-80314825D01*
X145417244Y-80333396D01*
X145387393Y-80405462D01*
X145378245Y-80422577D01*
X145334909Y-80487434D01*
X145322597Y-80502437D01*
X145267437Y-80557597D01*
X145252435Y-80569908D01*
X145187577Y-80613245D01*
X145170461Y-80622394D01*
X145086288Y-80657259D01*
X145040167Y-80681141D01*
X145040156Y-80681147D01*
X145011838Y-80699017D01*
X145011803Y-80699040D01*
X144983320Y-80719384D01*
X144911622Y-80803070D01*
X144859403Y-80834958D01*
X144798414Y-80830063D01*
X144764525Y-80806695D01*
X144722791Y-80762581D01*
X144722788Y-80762579D01*
X144624211Y-80708860D01*
X144624209Y-80708859D01*
X144566016Y-80689951D01*
X144566019Y-80689951D01*
X144471616Y-80675000D01*
X144471613Y-80675000D01*
X143806001Y-80675000D01*
X143786687Y-80673098D01*
X143710175Y-80657879D01*
X143691603Y-80652245D01*
X143636548Y-80629440D01*
X143636543Y-80629438D01*
X143636539Y-80629436D01*
X143619534Y-80622393D01*
X143602416Y-80613243D01*
X143537565Y-80569910D01*
X143522563Y-80557599D01*
X143467399Y-80502435D01*
X143455088Y-80487433D01*
X143411753Y-80422578D01*
X143402604Y-80405461D01*
X143372755Y-80333398D01*
X143367121Y-80314826D01*
X143351902Y-80238313D01*
X143350000Y-80219000D01*
X143350000Y-80140997D01*
X143351902Y-80121684D01*
X143367121Y-80045170D01*
X143367122Y-80045169D01*
X143367122Y-80045166D01*
X143372755Y-80026599D01*
X143402606Y-79954531D01*
X143411750Y-79937422D01*
X143455091Y-79872559D01*
X143467392Y-79857569D01*
X143522565Y-79802396D01*
X143537555Y-79790095D01*
X143602429Y-79746746D01*
X143619530Y-79737606D01*
X143691605Y-79707752D01*
X143710166Y-79702122D01*
X143760444Y-79692121D01*
X143786685Y-79686902D01*
X143805998Y-79685000D01*
X144984000Y-79685000D01*
X145003313Y-79686902D01*
G37*
%TD.AperFunction*%
%TA.AperFunction,Conductor*%
G36*
X129159191Y-65469407D02*
G01*
X129195155Y-65518907D01*
X129200000Y-65549500D01*
X129200000Y-66550151D01*
X129199500Y-66557779D01*
X129199500Y-68239564D01*
X129219978Y-68315987D01*
X129219979Y-68315989D01*
X129259252Y-68384012D01*
X129259540Y-68384511D01*
X130370505Y-69495476D01*
X130398281Y-69549991D01*
X130399500Y-69565478D01*
X130399500Y-79334521D01*
X130380593Y-79392712D01*
X130370504Y-79404525D01*
X129615489Y-80159540D01*
X129615488Y-80159539D01*
X129559540Y-80215488D01*
X129559536Y-80215493D01*
X129531945Y-80263283D01*
X129516212Y-80283786D01*
X129466601Y-80333399D01*
X129428997Y-80371003D01*
X129374481Y-80398781D01*
X129358993Y-80400000D01*
X129001510Y-80400000D01*
X128986023Y-80398781D01*
X128958994Y-80394500D01*
X128958992Y-80394500D01*
X126126128Y-80394500D01*
X126118530Y-80392031D01*
X126110641Y-80393281D01*
X126089985Y-80382756D01*
X126067937Y-80375593D01*
X126056124Y-80365504D01*
X126034496Y-80343876D01*
X126006719Y-80289359D01*
X126005500Y-80273872D01*
X126005500Y-65549500D01*
X126024407Y-65491309D01*
X126073907Y-65455345D01*
X126104500Y-65450500D01*
X129101000Y-65450500D01*
X129159191Y-65469407D01*
G37*
%TD.AperFunction*%
%TA.AperFunction,Conductor*%
G36*
X145002152Y-65450593D02*
G01*
X145392211Y-65467624D01*
X145400791Y-65468374D01*
X145785735Y-65519054D01*
X145794230Y-65520552D01*
X146173273Y-65604583D01*
X146181614Y-65606818D01*
X146551898Y-65723568D01*
X146560014Y-65726522D01*
X146918718Y-65875103D01*
X146926530Y-65878745D01*
X147270910Y-66058018D01*
X147278390Y-66062336D01*
X147605846Y-66270949D01*
X147612920Y-66275903D01*
X147920936Y-66512252D01*
X147927537Y-66517791D01*
X148213814Y-66780115D01*
X148219884Y-66786185D01*
X148482207Y-67072460D01*
X148487747Y-67079063D01*
X148724096Y-67387079D01*
X148729050Y-67394153D01*
X148937663Y-67721609D01*
X148941981Y-67729089D01*
X149121250Y-68073462D01*
X149124900Y-68081289D01*
X149273477Y-68439985D01*
X149276431Y-68448101D01*
X149393181Y-68818385D01*
X149395416Y-68826728D01*
X149479446Y-69205764D01*
X149480946Y-69214269D01*
X149531623Y-69599196D01*
X149532376Y-69607800D01*
X149549406Y-69997847D01*
X149549500Y-70002165D01*
X149549500Y-72895500D01*
X149530593Y-72953691D01*
X149481093Y-72989655D01*
X149450500Y-72994500D01*
X147426128Y-72994500D01*
X147367937Y-72975593D01*
X147356124Y-72965504D01*
X145651055Y-71260435D01*
X143874306Y-69483686D01*
X143874292Y-69483673D01*
X143874286Y-69483667D01*
X143862465Y-69472739D01*
X143862456Y-69472731D01*
X143850643Y-69462642D01*
X143780685Y-69423464D01*
X143722494Y-69404557D01*
X143722491Y-69404556D01*
X143722492Y-69404556D01*
X143658995Y-69394500D01*
X143658992Y-69394500D01*
X143399000Y-69394500D01*
X143340809Y-69375593D01*
X143304845Y-69326093D01*
X143300000Y-69295500D01*
X143300000Y-68549849D01*
X143300500Y-68542224D01*
X143300500Y-66657779D01*
X143300000Y-66650151D01*
X143300000Y-65549500D01*
X143318907Y-65491309D01*
X143368407Y-65455345D01*
X143399000Y-65450500D01*
X144940691Y-65450500D01*
X144997835Y-65450500D01*
X145002152Y-65450593D01*
G37*
%TD.AperFunction*%
%TD*%
%TA.AperFunction,Conductor*%
%TO.N,/IMU1_INT1*%
G36*
X132327634Y-65713080D02*
G01*
X132328550Y-65717619D01*
X132328550Y-65897880D01*
X132327806Y-65901985D01*
X132197721Y-66249223D01*
X132191610Y-66255768D01*
X132184490Y-66256595D01*
X131903776Y-66200946D01*
X131896327Y-66195975D01*
X131896305Y-66195942D01*
X131741148Y-65962332D01*
X131739425Y-65953545D01*
X131744421Y-65946113D01*
X131746349Y-65945078D01*
X132312312Y-65706834D01*
X132321265Y-65706784D01*
X132327634Y-65713080D01*
G37*
%TD.AperFunction*%
%TD*%
%TA.AperFunction,Conductor*%
%TO.N,+3V3*%
G36*
X125759191Y-65469407D02*
G01*
X125795155Y-65518907D01*
X125800000Y-65549500D01*
X125800000Y-80400000D01*
X126000000Y-80600000D01*
X128958992Y-80600000D01*
X129017183Y-80618907D01*
X129028996Y-80628996D01*
X129171004Y-80771004D01*
X129198781Y-80825521D01*
X129200000Y-80841008D01*
X129200000Y-83000000D01*
X129400000Y-83200000D01*
X130900000Y-83200000D01*
X130935502Y-83164497D01*
X130971005Y-83128996D01*
X131025522Y-83101219D01*
X131041008Y-83100000D01*
X131458992Y-83100000D01*
X131466589Y-83102468D01*
X131474479Y-83101219D01*
X131495134Y-83111743D01*
X131517183Y-83118907D01*
X131528996Y-83128996D01*
X131571004Y-83171004D01*
X131598781Y-83225521D01*
X131600000Y-83241008D01*
X131600000Y-83758992D01*
X131581093Y-83817183D01*
X131571004Y-83828996D01*
X131528996Y-83871004D01*
X131474479Y-83898781D01*
X131458992Y-83900000D01*
X130699999Y-83900000D01*
X130628995Y-83971004D01*
X130574478Y-83998781D01*
X130558992Y-84000000D01*
X129600000Y-84000000D01*
X129500000Y-84100000D01*
X129500000Y-85500000D01*
X129665505Y-85665505D01*
X129693281Y-85720020D01*
X129694500Y-85735507D01*
X129694500Y-88273872D01*
X129675593Y-88332063D01*
X129665504Y-88343876D01*
X129354693Y-88654686D01*
X129314851Y-88710836D01*
X129294500Y-88800001D01*
X129294500Y-91499999D01*
X129306031Y-91567870D01*
X129354687Y-91645307D01*
X129354691Y-91645311D01*
X129554683Y-91845304D01*
X129554686Y-91845306D01*
X129554690Y-91845310D01*
X129610837Y-91885149D01*
X129700000Y-91905500D01*
X129700001Y-91905500D01*
X130299999Y-91905500D01*
X130300000Y-91905500D01*
X130367872Y-91893968D01*
X130445310Y-91845310D01*
X130645310Y-91645310D01*
X130685149Y-91589163D01*
X130705500Y-91500000D01*
X130705500Y-86934108D01*
X134899500Y-86934108D01*
X134899500Y-87065892D01*
X134910599Y-87107314D01*
X134933609Y-87193190D01*
X134999496Y-87307309D01*
X134999498Y-87307311D01*
X134999500Y-87307314D01*
X135092686Y-87400500D01*
X135092688Y-87400501D01*
X135092690Y-87400503D01*
X135206810Y-87466390D01*
X135206808Y-87466390D01*
X135206812Y-87466391D01*
X135206814Y-87466392D01*
X135334108Y-87500500D01*
X135334110Y-87500500D01*
X135465890Y-87500500D01*
X135465892Y-87500500D01*
X135593186Y-87466392D01*
X135700500Y-87404433D01*
X135760348Y-87391712D01*
X135799498Y-87404433D01*
X135906814Y-87466392D01*
X136034108Y-87500500D01*
X136034110Y-87500500D01*
X136165890Y-87500500D01*
X136165892Y-87500500D01*
X136293186Y-87466392D01*
X136293188Y-87466390D01*
X136293190Y-87466390D01*
X136407309Y-87400503D01*
X136407309Y-87400502D01*
X136407314Y-87400500D01*
X136500500Y-87307314D01*
X136504434Y-87300500D01*
X136566390Y-87193190D01*
X136566390Y-87193188D01*
X136566392Y-87193186D01*
X136600500Y-87065892D01*
X136600500Y-86934108D01*
X136566392Y-86806814D01*
X136566390Y-86806811D01*
X136566390Y-86806809D01*
X136500503Y-86692690D01*
X136500501Y-86692688D01*
X136500500Y-86692686D01*
X136407314Y-86599500D01*
X136407311Y-86599498D01*
X136407309Y-86599496D01*
X136293189Y-86533609D01*
X136293191Y-86533609D01*
X136243799Y-86520375D01*
X136165892Y-86499500D01*
X136034108Y-86499500D01*
X135956200Y-86520375D01*
X135906809Y-86533609D01*
X135799500Y-86595565D01*
X135739652Y-86608287D01*
X135700500Y-86595565D01*
X135593189Y-86533609D01*
X135593191Y-86533609D01*
X135543799Y-86520375D01*
X135465892Y-86499500D01*
X135334108Y-86499500D01*
X135256200Y-86520375D01*
X135206809Y-86533609D01*
X135092690Y-86599496D01*
X134999496Y-86692690D01*
X134933609Y-86806809D01*
X134933608Y-86806814D01*
X134899500Y-86934108D01*
X130705500Y-86934108D01*
X130705500Y-85999000D01*
X130724407Y-85940809D01*
X130773907Y-85904845D01*
X130804500Y-85900000D01*
X131999999Y-85900000D01*
X132000000Y-85900000D01*
X132400000Y-85500000D01*
X132400000Y-84541007D01*
X132418907Y-84482816D01*
X132428990Y-84471009D01*
X132800000Y-84100000D01*
X132800000Y-83779015D01*
X132812390Y-83738176D01*
X132810134Y-83737242D01*
X132813862Y-83728237D01*
X132813867Y-83728231D01*
X132825500Y-83669748D01*
X132825500Y-83315508D01*
X132827968Y-83307910D01*
X132826719Y-83300021D01*
X132837243Y-83279365D01*
X132844407Y-83257317D01*
X132854496Y-83245504D01*
X132871004Y-83228996D01*
X132925521Y-83201219D01*
X132941008Y-83200000D01*
X133058992Y-83200000D01*
X133117183Y-83218907D01*
X133128996Y-83228996D01*
X133171004Y-83271004D01*
X133198781Y-83325521D01*
X133200000Y-83341008D01*
X133200000Y-84100000D01*
X133400000Y-84300000D01*
X134499999Y-84300000D01*
X134500000Y-84300000D01*
X134900000Y-83900000D01*
X134900000Y-81534108D01*
X136999500Y-81534108D01*
X136999500Y-81665892D01*
X137029579Y-81778151D01*
X137033609Y-81793190D01*
X137099496Y-81907309D01*
X137099498Y-81907311D01*
X137099500Y-81907314D01*
X137172184Y-81979998D01*
X137199960Y-82034513D01*
X137190389Y-82094945D01*
X137172185Y-82120000D01*
X137107675Y-82184511D01*
X137099497Y-82192689D01*
X137099496Y-82192690D01*
X137033609Y-82306809D01*
X137022170Y-82349500D01*
X136999500Y-82434108D01*
X136999500Y-82565892D01*
X137012521Y-82614487D01*
X137033609Y-82693190D01*
X137099496Y-82807309D01*
X137099498Y-82807311D01*
X137099500Y-82807314D01*
X137172184Y-82879998D01*
X137199960Y-82934513D01*
X137190389Y-82994945D01*
X137172185Y-83020000D01*
X137134872Y-83057314D01*
X137099497Y-83092689D01*
X137099496Y-83092690D01*
X137033609Y-83206809D01*
X137014539Y-83277978D01*
X136999500Y-83334108D01*
X136999500Y-83465892D01*
X137023862Y-83556814D01*
X137033609Y-83593190D01*
X137099496Y-83707309D01*
X137099498Y-83707311D01*
X137099500Y-83707314D01*
X137172184Y-83779998D01*
X137199960Y-83834513D01*
X137190389Y-83894945D01*
X137172185Y-83920000D01*
X137121182Y-83971004D01*
X137099497Y-83992689D01*
X137099496Y-83992690D01*
X137033609Y-84106809D01*
X137033608Y-84106814D01*
X136999500Y-84234108D01*
X136999500Y-84365892D01*
X137016409Y-84428996D01*
X137033609Y-84493190D01*
X137099496Y-84607309D01*
X137099498Y-84607311D01*
X137099500Y-84607314D01*
X137172184Y-84679998D01*
X137199960Y-84734513D01*
X137190389Y-84794945D01*
X137172185Y-84820000D01*
X137120545Y-84871641D01*
X137099497Y-84892689D01*
X137099496Y-84892690D01*
X137033609Y-85006809D01*
X137033608Y-85006814D01*
X136999500Y-85134108D01*
X136999500Y-85265892D01*
X137022946Y-85353395D01*
X137033609Y-85393190D01*
X137099496Y-85507309D01*
X137099498Y-85507311D01*
X137099500Y-85507314D01*
X137192686Y-85600500D01*
X137192688Y-85600501D01*
X137192690Y-85600503D01*
X137306810Y-85666390D01*
X137306808Y-85666390D01*
X137306812Y-85666391D01*
X137306814Y-85666392D01*
X137434108Y-85700500D01*
X137434110Y-85700500D01*
X137565890Y-85700500D01*
X137565892Y-85700500D01*
X137693186Y-85666392D01*
X137693188Y-85666390D01*
X137693190Y-85666390D01*
X137807309Y-85600503D01*
X137807309Y-85600502D01*
X137807314Y-85600500D01*
X137900500Y-85507314D01*
X137900503Y-85507309D01*
X137966390Y-85393190D01*
X137966390Y-85393188D01*
X137966392Y-85393186D01*
X138000500Y-85265892D01*
X138000500Y-85134108D01*
X137966392Y-85006814D01*
X137966390Y-85006811D01*
X137966390Y-85006809D01*
X137900503Y-84892690D01*
X137900501Y-84892688D01*
X137900500Y-84892686D01*
X137827815Y-84820001D01*
X137800040Y-84765487D01*
X137809611Y-84705055D01*
X137827814Y-84679999D01*
X137900500Y-84607314D01*
X137929656Y-84556814D01*
X137966390Y-84493190D01*
X137966390Y-84493188D01*
X137966392Y-84493186D01*
X138000500Y-84365892D01*
X138000500Y-84234108D01*
X137966392Y-84106814D01*
X137966390Y-84106811D01*
X137966390Y-84106809D01*
X137900503Y-83992690D01*
X137900501Y-83992688D01*
X137900500Y-83992686D01*
X137827815Y-83920001D01*
X137800040Y-83865487D01*
X137809611Y-83805055D01*
X137827814Y-83779999D01*
X137900500Y-83707314D01*
X137947134Y-83626542D01*
X137966390Y-83593190D01*
X137966390Y-83593188D01*
X137966392Y-83593186D01*
X138000500Y-83465892D01*
X138000500Y-83334108D01*
X137966392Y-83206814D01*
X137966390Y-83206811D01*
X137966390Y-83206809D01*
X137900503Y-83092690D01*
X137900501Y-83092688D01*
X137900500Y-83092686D01*
X137827815Y-83020001D01*
X137800040Y-82965487D01*
X137809611Y-82905055D01*
X137827814Y-82879999D01*
X137900500Y-82807314D01*
X137914559Y-82782964D01*
X137966390Y-82693190D01*
X137966390Y-82693188D01*
X137966392Y-82693186D01*
X138000500Y-82565892D01*
X138000500Y-82434108D01*
X137966392Y-82306814D01*
X137966390Y-82306811D01*
X137966390Y-82306809D01*
X137900503Y-82192690D01*
X137900501Y-82192688D01*
X137900500Y-82192686D01*
X137827815Y-82120001D01*
X137800040Y-82065487D01*
X137809611Y-82005055D01*
X137827814Y-81979999D01*
X137900500Y-81907314D01*
X137966392Y-81793186D01*
X138000500Y-81665892D01*
X138000500Y-81534108D01*
X137966392Y-81406814D01*
X137966390Y-81406811D01*
X137966390Y-81406809D01*
X137900503Y-81292690D01*
X137900501Y-81292688D01*
X137900500Y-81292686D01*
X137807314Y-81199500D01*
X137807311Y-81199498D01*
X137807309Y-81199496D01*
X137693189Y-81133609D01*
X137693191Y-81133609D01*
X137643799Y-81120375D01*
X137565892Y-81099500D01*
X137434108Y-81099500D01*
X137356200Y-81120375D01*
X137306809Y-81133609D01*
X137192690Y-81199496D01*
X137099496Y-81292690D01*
X137033609Y-81406809D01*
X137025752Y-81436133D01*
X136999500Y-81534108D01*
X134900000Y-81534108D01*
X134900000Y-73931004D01*
X139989500Y-73931004D01*
X139989500Y-74068995D01*
X140016420Y-74204327D01*
X140016420Y-74204329D01*
X140069222Y-74331806D01*
X140069228Y-74331817D01*
X140145885Y-74446541D01*
X140243458Y-74544114D01*
X140358182Y-74620771D01*
X140358193Y-74620777D01*
X140405283Y-74640282D01*
X140485672Y-74673580D01*
X140621007Y-74700500D01*
X140621008Y-74700500D01*
X140758992Y-74700500D01*
X140758993Y-74700500D01*
X140894328Y-74673580D01*
X141021811Y-74620775D01*
X141136542Y-74544114D01*
X141234114Y-74446542D01*
X141310775Y-74331811D01*
X141363580Y-74204328D01*
X141390500Y-74068993D01*
X141390500Y-73931007D01*
X141363580Y-73795672D01*
X141310775Y-73668189D01*
X141310774Y-73668187D01*
X141310771Y-73668182D01*
X141234114Y-73553458D01*
X141136541Y-73455885D01*
X141021817Y-73379228D01*
X141021806Y-73379222D01*
X140894328Y-73326420D01*
X140758995Y-73299500D01*
X140758993Y-73299500D01*
X140621007Y-73299500D01*
X140621004Y-73299500D01*
X140485672Y-73326420D01*
X140485670Y-73326420D01*
X140358193Y-73379222D01*
X140358182Y-73379228D01*
X140243458Y-73455885D01*
X140145885Y-73553458D01*
X140069228Y-73668182D01*
X140069222Y-73668193D01*
X140016420Y-73795670D01*
X140016420Y-73795672D01*
X139989500Y-73931004D01*
X134900000Y-73931004D01*
X134900000Y-73041008D01*
X134918907Y-72982817D01*
X134928996Y-72971004D01*
X136508996Y-71391004D01*
X139989500Y-71391004D01*
X139989500Y-71528995D01*
X139997211Y-71567758D01*
X140013669Y-71650500D01*
X140016420Y-71664327D01*
X140016420Y-71664329D01*
X140069222Y-71791806D01*
X140069228Y-71791817D01*
X140145885Y-71906541D01*
X140243458Y-72004114D01*
X140358182Y-72080771D01*
X140358193Y-72080777D01*
X140403395Y-72099500D01*
X140485672Y-72133580D01*
X140621007Y-72160500D01*
X140621008Y-72160500D01*
X140758992Y-72160500D01*
X140758993Y-72160500D01*
X140894328Y-72133580D01*
X141021811Y-72080775D01*
X141136542Y-72004114D01*
X141234114Y-71906542D01*
X141310775Y-71791811D01*
X141363580Y-71664328D01*
X141390500Y-71528993D01*
X141390500Y-71391007D01*
X141363580Y-71255672D01*
X141345978Y-71213177D01*
X141310777Y-71128193D01*
X141310771Y-71128182D01*
X141234114Y-71013458D01*
X141136541Y-70915885D01*
X141021817Y-70839228D01*
X141021806Y-70839222D01*
X140894328Y-70786420D01*
X140758995Y-70759500D01*
X140758993Y-70759500D01*
X140621007Y-70759500D01*
X140621004Y-70759500D01*
X140485672Y-70786420D01*
X140485670Y-70786420D01*
X140358193Y-70839222D01*
X140358182Y-70839228D01*
X140243458Y-70915885D01*
X140145885Y-71013458D01*
X140069228Y-71128182D01*
X140069222Y-71128193D01*
X140016420Y-71255670D01*
X140016420Y-71255672D01*
X139989500Y-71391004D01*
X136508996Y-71391004D01*
X138270504Y-69629496D01*
X138325021Y-69601719D01*
X138340508Y-69600500D01*
X142242221Y-69600500D01*
X142249849Y-69600000D01*
X143658992Y-69600000D01*
X143717183Y-69618907D01*
X143728996Y-69628996D01*
X147300000Y-73200000D01*
X149450500Y-73200000D01*
X149508691Y-73218907D01*
X149544655Y-73268407D01*
X149549500Y-73299000D01*
X149549500Y-75501000D01*
X149530593Y-75559191D01*
X149481093Y-75595155D01*
X149450500Y-75600000D01*
X146300000Y-75600000D01*
X140000000Y-75600000D01*
X138900000Y-76700000D01*
X138900000Y-83400000D01*
X139100000Y-83600000D01*
X142667000Y-83600000D01*
X142725191Y-83618907D01*
X142726400Y-83619800D01*
X143060400Y-83870300D01*
X143095608Y-83920340D01*
X143100000Y-83949500D01*
X143100000Y-84358992D01*
X143081093Y-84417183D01*
X143071004Y-84428996D01*
X142728996Y-84771004D01*
X142674479Y-84798781D01*
X142658992Y-84800000D01*
X140100000Y-84800000D01*
X139800000Y-85100000D01*
X139800000Y-88400000D01*
X144971005Y-93571005D01*
X144998781Y-93625520D01*
X145000000Y-93641007D01*
X145000000Y-93983951D01*
X144981093Y-94042142D01*
X144931593Y-94078106D01*
X144926632Y-94079575D01*
X144877489Y-94092742D01*
X144817860Y-94108720D01*
X144686639Y-94184481D01*
X144579481Y-94291639D01*
X144503720Y-94422860D01*
X144503719Y-94422865D01*
X144464500Y-94569234D01*
X144464500Y-94720766D01*
X144487556Y-94806814D01*
X144503720Y-94867139D01*
X144579481Y-94998360D01*
X144579483Y-94998362D01*
X144579485Y-94998365D01*
X144686635Y-95105515D01*
X144686637Y-95105516D01*
X144686639Y-95105518D01*
X144817861Y-95181279D01*
X144817862Y-95181279D01*
X144817865Y-95181281D01*
X144926624Y-95210422D01*
X144977937Y-95243745D01*
X144999864Y-95300866D01*
X145000000Y-95306048D01*
X145000000Y-98258992D01*
X144981093Y-98317183D01*
X144971004Y-98328996D01*
X144828996Y-98471004D01*
X144774479Y-98498781D01*
X144758992Y-98500000D01*
X140041008Y-98500000D01*
X139982817Y-98481093D01*
X139971004Y-98471004D01*
X139828996Y-98328996D01*
X139801219Y-98274479D01*
X139800000Y-98258992D01*
X139800000Y-94866289D01*
X139803373Y-94840666D01*
X139807272Y-94826114D01*
X139835500Y-94720766D01*
X139835500Y-94569234D01*
X139796281Y-94422865D01*
X139796279Y-94422862D01*
X139796279Y-94422860D01*
X139720518Y-94291639D01*
X139720516Y-94291637D01*
X139720515Y-94291635D01*
X139613365Y-94184485D01*
X139613362Y-94184483D01*
X139613360Y-94184481D01*
X139482138Y-94108720D01*
X139482139Y-94108720D01*
X139407471Y-94088713D01*
X139363090Y-94063090D01*
X138828996Y-93528996D01*
X138801219Y-93474479D01*
X138800000Y-93458992D01*
X138800000Y-93200001D01*
X138800000Y-93200000D01*
X138400000Y-92800000D01*
X138399999Y-92800000D01*
X128441008Y-92800000D01*
X128382817Y-92781093D01*
X128371004Y-92771004D01*
X126900000Y-91300000D01*
X126899999Y-91300000D01*
X119041008Y-91300000D01*
X118982817Y-91281093D01*
X118971004Y-91271004D01*
X118528996Y-90828996D01*
X118501219Y-90774479D01*
X118500000Y-90758992D01*
X118500000Y-82841008D01*
X118518907Y-82782817D01*
X118528996Y-82771004D01*
X118771004Y-82528996D01*
X118825521Y-82501219D01*
X118841008Y-82500000D01*
X119834021Y-82500000D01*
X119892212Y-82518907D01*
X119904025Y-82528996D01*
X121215489Y-83840460D01*
X121215491Y-83840461D01*
X121215492Y-83840462D01*
X121215493Y-83840463D01*
X121284008Y-83880020D01*
X121284006Y-83880020D01*
X121284010Y-83880021D01*
X121284012Y-83880022D01*
X121360438Y-83900500D01*
X121439562Y-83900500D01*
X124838476Y-83900500D01*
X124872221Y-83906429D01*
X125287485Y-84056994D01*
X125287486Y-84056994D01*
X125295688Y-84059968D01*
X125306814Y-84066392D01*
X125332065Y-84073158D01*
X125358661Y-84082801D01*
X125373085Y-84087437D01*
X125373096Y-84087440D01*
X125374741Y-84087903D01*
X125378407Y-84088897D01*
X125378408Y-84088897D01*
X125378415Y-84088899D01*
X125380984Y-84088979D01*
X125403519Y-84092303D01*
X125434108Y-84100500D01*
X125565890Y-84100500D01*
X125565892Y-84100500D01*
X125693186Y-84066392D01*
X125693188Y-84066390D01*
X125693190Y-84066390D01*
X125807309Y-84000503D01*
X125807309Y-84000502D01*
X125807314Y-84000500D01*
X125900500Y-83907314D01*
X125904723Y-83900000D01*
X125966390Y-83793190D01*
X125966390Y-83793188D01*
X125966392Y-83793186D01*
X126000500Y-83665892D01*
X126000500Y-83534108D01*
X125966392Y-83406814D01*
X125966390Y-83406811D01*
X125966390Y-83406809D01*
X125900503Y-83292690D01*
X125900501Y-83292688D01*
X125900500Y-83292686D01*
X125807314Y-83199500D01*
X125807311Y-83199498D01*
X125807309Y-83199496D01*
X125693189Y-83133609D01*
X125693191Y-83133609D01*
X125643799Y-83120375D01*
X125565892Y-83099500D01*
X125434108Y-83099500D01*
X125434103Y-83099500D01*
X125385775Y-83112448D01*
X125385776Y-83112449D01*
X125380494Y-83113864D01*
X125358664Y-83117198D01*
X125332071Y-83126838D01*
X125327946Y-83127944D01*
X125327944Y-83127943D01*
X125306821Y-83133605D01*
X125306805Y-83133611D01*
X125303233Y-83135674D01*
X125287487Y-83143004D01*
X124872220Y-83293571D01*
X124838474Y-83299500D01*
X121565479Y-83299500D01*
X121507288Y-83280593D01*
X121495475Y-83270504D01*
X120893975Y-82669004D01*
X120866198Y-82614487D01*
X120875769Y-82554055D01*
X120919034Y-82510790D01*
X120963979Y-82500000D01*
X123200000Y-82500000D01*
X123200000Y-82499999D01*
X123155431Y-74700499D01*
X123103143Y-65550065D01*
X123121717Y-65491768D01*
X123171011Y-65455522D01*
X123202141Y-65450500D01*
X125701000Y-65450500D01*
X125759191Y-65469407D01*
G37*
%TD.AperFunction*%
%TD*%
%TA.AperFunction,Conductor*%
%TO.N,+VBUS*%
G36*
X149508691Y-77718907D02*
G01*
X149544655Y-77768407D01*
X149549500Y-77799000D01*
X149549500Y-79301000D01*
X149530593Y-79359191D01*
X149481093Y-79395155D01*
X149450500Y-79400000D01*
X149166654Y-79400000D01*
X149147340Y-79398098D01*
X149053844Y-79379500D01*
X149053842Y-79379500D01*
X148096158Y-79379500D01*
X148096155Y-79379500D01*
X148002660Y-79398098D01*
X147983346Y-79400000D01*
X147700000Y-79400000D01*
X147500000Y-79600000D01*
X147500000Y-79600001D01*
X147500000Y-79719314D01*
X147483317Y-79774314D01*
X147465604Y-79800824D01*
X147405263Y-79946501D01*
X147405263Y-79946503D01*
X147374500Y-80101155D01*
X147374500Y-80258844D01*
X147405263Y-80413496D01*
X147405263Y-80413498D01*
X147465604Y-80559176D01*
X147465604Y-80559177D01*
X147483315Y-80585682D01*
X147500000Y-80640684D01*
X147500000Y-82858992D01*
X147481093Y-82917183D01*
X147471004Y-82928996D01*
X146900000Y-83500000D01*
X146900000Y-84030168D01*
X146899568Y-84039410D01*
X146899500Y-84040135D01*
X146899500Y-84459868D01*
X146899566Y-84460571D01*
X146900000Y-84469828D01*
X146900000Y-84558992D01*
X146881093Y-84617183D01*
X146871004Y-84628995D01*
X146600000Y-84899999D01*
X146600000Y-85258992D01*
X146581093Y-85317183D01*
X146571004Y-85328996D01*
X146428996Y-85471004D01*
X146374479Y-85498781D01*
X146358992Y-85500000D01*
X146141008Y-85500000D01*
X146082817Y-85481093D01*
X146071004Y-85471004D01*
X145928996Y-85328996D01*
X145901219Y-85274479D01*
X145900000Y-85258992D01*
X145900000Y-84900001D01*
X145900000Y-84900000D01*
X145600000Y-84600000D01*
X145599999Y-84600000D01*
X143941008Y-84600000D01*
X143882817Y-84581093D01*
X143871004Y-84571004D01*
X143728996Y-84428996D01*
X143701219Y-84374479D01*
X143700000Y-84358992D01*
X143700000Y-83300001D01*
X143700000Y-83300000D01*
X143500000Y-83100000D01*
X143499999Y-83100000D01*
X139741008Y-83100000D01*
X139682817Y-83081093D01*
X139671004Y-83071004D01*
X139428996Y-82828996D01*
X139401219Y-82774479D01*
X139400000Y-82758992D01*
X139400000Y-80101155D01*
X143044500Y-80101155D01*
X143044500Y-80258844D01*
X143075263Y-80413496D01*
X143075263Y-80413498D01*
X143135603Y-80559174D01*
X143135609Y-80559185D01*
X143188312Y-80638059D01*
X143223211Y-80690289D01*
X143334711Y-80801789D01*
X143412876Y-80854017D01*
X143465814Y-80889390D01*
X143465825Y-80889396D01*
X143519638Y-80911685D01*
X143611503Y-80949737D01*
X143766158Y-80980500D01*
X143766159Y-80980500D01*
X144471613Y-80980500D01*
X144529804Y-80999407D01*
X144565768Y-81048907D01*
X144565768Y-81110093D01*
X144541618Y-81149501D01*
X144434485Y-81256635D01*
X144434482Y-81256638D01*
X144434481Y-81256639D01*
X144358720Y-81387860D01*
X144358719Y-81387865D01*
X144319500Y-81534234D01*
X144319500Y-81685766D01*
X144354086Y-81814847D01*
X144358720Y-81832139D01*
X144434481Y-81963360D01*
X144434483Y-81963362D01*
X144434485Y-81963365D01*
X144541635Y-82070515D01*
X144541637Y-82070516D01*
X144541639Y-82070518D01*
X144672861Y-82146279D01*
X144672859Y-82146279D01*
X144672863Y-82146280D01*
X144672865Y-82146281D01*
X144819234Y-82185500D01*
X144819236Y-82185500D01*
X144970764Y-82185500D01*
X144970766Y-82185500D01*
X145117135Y-82146281D01*
X145117137Y-82146279D01*
X145117139Y-82146279D01*
X145248360Y-82070518D01*
X145248360Y-82070517D01*
X145248365Y-82070515D01*
X145355515Y-81963365D01*
X145431281Y-81832135D01*
X145470500Y-81685766D01*
X145470500Y-81534234D01*
X145431281Y-81387865D01*
X145431279Y-81387862D01*
X145431279Y-81387860D01*
X145355518Y-81256639D01*
X145355516Y-81256637D01*
X145355515Y-81256635D01*
X145248365Y-81149485D01*
X145248362Y-81149483D01*
X145191586Y-81116703D01*
X145150646Y-81071233D01*
X145144251Y-81010383D01*
X145174844Y-80957395D01*
X145203193Y-80939507D01*
X145324179Y-80889394D01*
X145455289Y-80801789D01*
X145566789Y-80690289D01*
X145654394Y-80559179D01*
X145714737Y-80413497D01*
X145745500Y-80258842D01*
X145745500Y-80101158D01*
X145714737Y-79946503D01*
X145654394Y-79800821D01*
X145654393Y-79800819D01*
X145654390Y-79800814D01*
X145619017Y-79747876D01*
X145566789Y-79669711D01*
X145455289Y-79558211D01*
X145403059Y-79523312D01*
X145324185Y-79470609D01*
X145324174Y-79470603D01*
X145178497Y-79410263D01*
X145023844Y-79379500D01*
X145023842Y-79379500D01*
X143766158Y-79379500D01*
X143766155Y-79379500D01*
X143611503Y-79410263D01*
X143611501Y-79410263D01*
X143465825Y-79470603D01*
X143465814Y-79470609D01*
X143334711Y-79558211D01*
X143334707Y-79558214D01*
X143223214Y-79669707D01*
X143223211Y-79669711D01*
X143135609Y-79800814D01*
X143135603Y-79800825D01*
X143075263Y-79946501D01*
X143075263Y-79946503D01*
X143044500Y-80101155D01*
X139400000Y-80101155D01*
X139400000Y-78341008D01*
X139418907Y-78282817D01*
X139428996Y-78271004D01*
X139971004Y-77728996D01*
X140025521Y-77701219D01*
X140041008Y-77700000D01*
X149450500Y-77700000D01*
X149508691Y-77718907D01*
G37*
%TD.AperFunction*%
%TD*%
%TA.AperFunction,Conductor*%
%TO.N,/BOOT_SEL*%
G36*
X118398051Y-74132393D02*
G01*
X118619794Y-74239531D01*
X119379940Y-74606806D01*
X119385898Y-74613491D01*
X119386550Y-74617341D01*
X119386550Y-74802658D01*
X119383123Y-74810931D01*
X119379940Y-74813193D01*
X118398051Y-75287606D01*
X118389111Y-75288119D01*
X118383241Y-75283583D01*
X118003361Y-74716511D01*
X118001604Y-74707731D01*
X118003362Y-74703488D01*
X118383242Y-74136415D01*
X118390692Y-74131450D01*
X118398051Y-74132393D01*
G37*
%TD.AperFunction*%
%TD*%
%TA.AperFunction,Conductor*%
%TO.N,/BOOT_SEL*%
G36*
X125437655Y-83310792D02*
G01*
X125443696Y-83317402D01*
X125444165Y-83319070D01*
X125500530Y-83597680D01*
X125500530Y-83602320D01*
X125444165Y-83880929D01*
X125439165Y-83888358D01*
X125430377Y-83890077D01*
X125428709Y-83889608D01*
X124913476Y-83702796D01*
X124906866Y-83696755D01*
X124905764Y-83691797D01*
X124905764Y-83508202D01*
X124909191Y-83499929D01*
X124913473Y-83497204D01*
X125428711Y-83310391D01*
X125437655Y-83310792D01*
G37*
%TD.AperFunction*%
%TD*%
%TA.AperFunction,Conductor*%
%TO.N,GND*%
G36*
X130600000Y-84500000D02*
G01*
X130600000Y-85100000D01*
X130500000Y-85200000D01*
X130500000Y-91500000D01*
X130300000Y-91700000D01*
X129700000Y-91700000D01*
X129500000Y-91500000D01*
X129500000Y-88800000D01*
X129900000Y-88400000D01*
X129900000Y-84500000D01*
X130000000Y-84400000D01*
X130500000Y-84400000D01*
X130600000Y-84500000D01*
G37*
%TD.AperFunction*%
%TD*%
%TA.AperFunction,Conductor*%
%TO.N,/IMU1_SDA*%
G36*
X141260362Y-66939986D02*
G01*
X141261872Y-66940835D01*
X141498734Y-67097984D01*
X141502015Y-67101265D01*
X141659164Y-67338127D01*
X141660883Y-67346915D01*
X141655883Y-67354344D01*
X141654373Y-67355193D01*
X141157953Y-67587422D01*
X141149007Y-67587823D01*
X141144722Y-67585097D01*
X141014902Y-67455277D01*
X141011475Y-67447004D01*
X141012575Y-67442051D01*
X141244806Y-66945625D01*
X141251416Y-66939585D01*
X141260362Y-66939986D01*
G37*
%TD.AperFunction*%
%TD*%
%TA.AperFunction,Conductor*%
%TO.N,/IMU2_INT2*%
G36*
X124660398Y-91740110D02*
G01*
X124662329Y-91741146D01*
X124795480Y-91829581D01*
X124895942Y-91896305D01*
X124900938Y-91903737D01*
X124900946Y-91903776D01*
X124956595Y-92184490D01*
X124954842Y-92193271D01*
X124949223Y-92197721D01*
X124601986Y-92327806D01*
X124597881Y-92328550D01*
X124417620Y-92328550D01*
X124409347Y-92325123D01*
X124405920Y-92316850D01*
X124406836Y-92312311D01*
X124578809Y-91903776D01*
X124645076Y-91746353D01*
X124651444Y-91740059D01*
X124660398Y-91740110D01*
G37*
%TD.AperFunction*%
%TD*%
%TA.AperFunction,Conductor*%
%TO.N,/IMU2_INT2*%
G36*
X122371282Y-95110389D02*
G01*
X122886525Y-95297204D01*
X122893134Y-95303244D01*
X122894236Y-95308202D01*
X122894236Y-95491797D01*
X122890809Y-95500070D01*
X122886524Y-95502796D01*
X122371290Y-95689608D01*
X122362344Y-95689207D01*
X122356303Y-95682597D01*
X122355837Y-95680939D01*
X122299469Y-95402318D01*
X122299469Y-95397680D01*
X122355835Y-95119067D01*
X122360834Y-95111641D01*
X122369622Y-95109922D01*
X122371282Y-95110389D01*
G37*
%TD.AperFunction*%
%TD*%
%TA.AperFunction,Conductor*%
%TO.N,/IMU1_SCL*%
G36*
X138337655Y-66810792D02*
G01*
X138343696Y-66817402D01*
X138344165Y-66819070D01*
X138400530Y-67097680D01*
X138400530Y-67102320D01*
X138344165Y-67380929D01*
X138339165Y-67388358D01*
X138330377Y-67390077D01*
X138328709Y-67389608D01*
X137813476Y-67202796D01*
X137806866Y-67196755D01*
X137805764Y-67191797D01*
X137805764Y-67008202D01*
X137809191Y-66999929D01*
X137813473Y-66997204D01*
X138328711Y-66810391D01*
X138337655Y-66810792D01*
G37*
%TD.AperFunction*%
%TD*%
%TA.AperFunction,Conductor*%
%TO.N,/IMU1_INT2*%
G36*
X130239169Y-65959237D02*
G01*
X130397981Y-66195243D01*
X130399757Y-66204020D01*
X130399745Y-66204079D01*
X130344140Y-66480952D01*
X130339151Y-66488388D01*
X130330365Y-66490119D01*
X130328719Y-66489661D01*
X129906543Y-66338230D01*
X129902220Y-66335490D01*
X129773931Y-66207201D01*
X129770504Y-66198928D01*
X129773931Y-66190655D01*
X129776791Y-66188555D01*
X130224054Y-65955393D01*
X130232974Y-65954608D01*
X130239169Y-65959237D01*
G37*
%TD.AperFunction*%
%TD*%
%TA.AperFunction,Conductor*%
%TO.N,+3V3*%
G36*
X132017183Y-79618907D02*
G01*
X132028996Y-79628996D01*
X132170504Y-79770504D01*
X132198281Y-79825021D01*
X132199500Y-79840508D01*
X132199500Y-81221732D01*
X132187369Y-81261723D01*
X132189866Y-81262757D01*
X132186132Y-81271772D01*
X132174501Y-81330241D01*
X132174500Y-81330253D01*
X132174500Y-81584492D01*
X132172031Y-81592089D01*
X132173281Y-81599979D01*
X132162756Y-81620634D01*
X132155593Y-81642683D01*
X132145504Y-81654496D01*
X132128996Y-81671004D01*
X132074479Y-81698781D01*
X132058992Y-81700000D01*
X131941008Y-81700000D01*
X131882817Y-81681093D01*
X131871004Y-81671004D01*
X131828996Y-81628996D01*
X131801219Y-81574479D01*
X131800000Y-81558992D01*
X131800000Y-80800000D01*
X131228996Y-80228996D01*
X131201219Y-80174479D01*
X131200000Y-80158992D01*
X131200000Y-79841008D01*
X131218907Y-79782817D01*
X131228996Y-79771004D01*
X131371004Y-79628996D01*
X131425521Y-79601219D01*
X131441008Y-79600000D01*
X131958992Y-79600000D01*
X132017183Y-79618907D01*
G37*
%TD.AperFunction*%
%TD*%
M02*
