%TF.GenerationSoftware,KiCad,Pcbnew,9.0.6*%
%TF.CreationDate,2025-12-31T10:36:15+05:30*%
%TF.ProjectId,WheelChair_Controller,57686565-6c43-4686-9169-725f436f6e74,rev?*%
%TF.SameCoordinates,Original*%
%TF.FileFunction,Paste,Top*%
%TF.FilePolarity,Positive*%
%FSLAX46Y46*%
G04 Gerber Fmt 4.6, Leading zero omitted, Abs format (unit mm)*
G04 Created by KiCad (PCBNEW 9.0.6) date 2025-12-31 10:36:15*
%MOMM*%
%LPD*%
G01*
G04 APERTURE LIST*
G04 Aperture macros list*
%AMRoundRect*
0 Rectangle with rounded corners*
0 $1 Rounding radius*
0 $2 $3 $4 $5 $6 $7 $8 $9 X,Y pos of 4 corners*
0 Add a 4 corners polygon primitive as box body*
4,1,4,$2,$3,$4,$5,$6,$7,$8,$9,$2,$3,0*
0 Add four circle primitives for the rounded corners*
1,1,$1+$1,$2,$3*
1,1,$1+$1,$4,$5*
1,1,$1+$1,$6,$7*
1,1,$1+$1,$8,$9*
0 Add four rect primitives between the rounded corners*
20,1,$1+$1,$2,$3,$4,$5,0*
20,1,$1+$1,$4,$5,$6,$7,0*
20,1,$1+$1,$6,$7,$8,$9,0*
20,1,$1+$1,$8,$9,$2,$3,0*%
%AMOutline5P*
0 Free polygon, 5 corners , with rotation*
0 The origin of the aperture is its center*
0 number of corners: always 5*
0 $1 to $10 corner X, Y*
0 $11 Rotation angle, in degrees counterclockwise*
0 create outline with 5 corners*
4,1,5,$1,$2,$3,$4,$5,$6,$7,$8,$9,$10,$1,$2,$11*%
%AMOutline6P*
0 Free polygon, 6 corners , with rotation*
0 The origin of the aperture is its center*
0 number of corners: always 6*
0 $1 to $12 corner X, Y*
0 $13 Rotation angle, in degrees counterclockwise*
0 create outline with 6 corners*
4,1,6,$1,$2,$3,$4,$5,$6,$7,$8,$9,$10,$11,$12,$1,$2,$13*%
%AMOutline7P*
0 Free polygon, 7 corners , with rotation*
0 The origin of the aperture is its center*
0 number of corners: always 7*
0 $1 to $14 corner X, Y*
0 $15 Rotation angle, in degrees counterclockwise*
0 create outline with 7 corners*
4,1,7,$1,$2,$3,$4,$5,$6,$7,$8,$9,$10,$11,$12,$13,$14,$1,$2,$15*%
%AMOutline8P*
0 Free polygon, 8 corners , with rotation*
0 The origin of the aperture is its center*
0 number of corners: always 8*
0 $1 to $16 corner X, Y*
0 $17 Rotation angle, in degrees counterclockwise*
0 create outline with 8 corners*
4,1,8,$1,$2,$3,$4,$5,$6,$7,$8,$9,$10,$11,$12,$13,$14,$15,$16,$1,$2,$17*%
G04 Aperture macros list end*
%ADD10RoundRect,0.125000X0.125000X-0.125000X0.125000X0.125000X-0.125000X0.125000X-0.125000X-0.125000X0*%
%ADD11RoundRect,0.155000X0.155000X-0.212500X0.155000X0.212500X-0.155000X0.212500X-0.155000X-0.212500X0*%
%ADD12RoundRect,0.150000X-0.150000X-0.350000X0.150000X-0.350000X0.150000X0.350000X-0.150000X0.350000X0*%
%ADD13RoundRect,0.075000X-0.075000X-0.500000X0.075000X-0.500000X0.075000X0.500000X-0.075000X0.500000X0*%
%ADD14O,1.000000X2.100000*%
%ADD15O,1.000000X1.800000*%
%ADD16R,0.400000X0.800000*%
%ADD17R,0.800000X0.400000*%
%ADD18Outline5P,-0.600000X0.204000X-0.204000X0.600000X0.600000X0.600000X0.600000X-0.600000X-0.600000X-0.600000X90.000000*%
%ADD19R,1.200000X1.200000*%
%ADD20R,0.800000X0.800000*%
%ADD21RoundRect,0.150000X0.150000X-0.512500X0.150000X0.512500X-0.150000X0.512500X-0.150000X-0.512500X0*%
%ADD22RoundRect,0.160000X0.160000X-0.222500X0.160000X0.222500X-0.160000X0.222500X-0.160000X-0.222500X0*%
%ADD23RoundRect,0.160000X0.160000X-0.197500X0.160000X0.197500X-0.160000X0.197500X-0.160000X-0.197500X0*%
%ADD24RoundRect,0.155000X0.212500X0.155000X-0.212500X0.155000X-0.212500X-0.155000X0.212500X-0.155000X0*%
%ADD25RoundRect,0.160000X-0.197500X-0.160000X0.197500X-0.160000X0.197500X0.160000X-0.197500X0.160000X0*%
%ADD26RoundRect,0.155000X-0.155000X0.212500X-0.155000X-0.212500X0.155000X-0.212500X0.155000X0.212500X0*%
%ADD27RoundRect,0.160000X0.197500X0.160000X-0.197500X0.160000X-0.197500X-0.160000X0.197500X-0.160000X0*%
%ADD28RoundRect,0.150000X0.350000X-0.150000X0.350000X0.150000X-0.350000X0.150000X-0.350000X-0.150000X0*%
%ADD29RoundRect,0.075000X0.500000X-0.075000X0.500000X0.075000X-0.500000X0.075000X-0.500000X-0.075000X0*%
%ADD30O,2.100000X1.000000*%
%ADD31O,1.800000X1.000000*%
%ADD32RoundRect,0.160000X-0.160000X0.197500X-0.160000X-0.197500X0.160000X-0.197500X0.160000X0.197500X0*%
%ADD33RoundRect,0.150000X-0.825000X-0.150000X0.825000X-0.150000X0.825000X0.150000X-0.825000X0.150000X0*%
G04 APERTURE END LIST*
D10*
%TO.C,STATUS*%
X117100000Y-86847500D03*
X118000000Y-86847500D03*
X118000000Y-85947500D03*
X117100000Y-85947500D03*
%TD*%
D11*
%TO.C,C1*%
X143750000Y-78067500D03*
X143750000Y-76932500D03*
%TD*%
D12*
%TO.C,CAN*%
X138950000Y-93495000D03*
X139750000Y-93495000D03*
D13*
X140900000Y-93570000D03*
X141900000Y-93570000D03*
X142400000Y-93570000D03*
X143400000Y-93570000D03*
D12*
X144550000Y-93495000D03*
X145350000Y-93495000D03*
X145350000Y-93495000D03*
X144550000Y-93495000D03*
D13*
X143900000Y-93570000D03*
X142900000Y-93570000D03*
X141400000Y-93570000D03*
X140400000Y-93570000D03*
D12*
X139750000Y-93495000D03*
X138950000Y-93495000D03*
D14*
X137830000Y-94145000D03*
D15*
X137830000Y-98325000D03*
D14*
X146470000Y-94145000D03*
D15*
X146470000Y-98325000D03*
%TD*%
D16*
%TO.C,ESP32*%
X123050000Y-81500000D03*
X123900000Y-81500000D03*
X124750000Y-81500000D03*
X125600000Y-81500000D03*
X126450000Y-81500000D03*
X127300000Y-81500000D03*
X128150000Y-81500000D03*
X129000000Y-81500000D03*
X129850000Y-81500000D03*
X130700000Y-81500000D03*
X131550000Y-81500000D03*
X132400000Y-81500000D03*
X133250000Y-81500000D03*
X134100000Y-81500000D03*
X134950000Y-81500000D03*
D17*
X136000000Y-80450000D03*
X136000000Y-79600000D03*
X136000000Y-78750000D03*
X136000000Y-77900000D03*
X136000000Y-77050000D03*
X136000000Y-76200000D03*
X136000000Y-75350000D03*
X136000000Y-74500000D03*
X136000000Y-73650000D03*
X136000000Y-72800000D03*
X136000000Y-71950000D03*
X136000000Y-71100000D03*
X136000000Y-70250000D03*
X136000000Y-69400000D03*
X136000000Y-68550000D03*
D16*
X134950000Y-67500000D03*
X134100000Y-67500000D03*
X133250000Y-67500000D03*
X132400000Y-67500000D03*
X131550000Y-67500000D03*
X130700000Y-67500000D03*
X129850000Y-67500000D03*
X129000000Y-67500000D03*
X128150000Y-67500000D03*
X127300000Y-67500000D03*
X126450000Y-67500000D03*
X125600000Y-67500000D03*
X124750000Y-67500000D03*
X123900000Y-67500000D03*
X123050000Y-67500000D03*
D17*
X122000000Y-68550000D03*
X122000000Y-69400000D03*
X122000000Y-70250000D03*
X122000000Y-71100000D03*
X122000000Y-71950000D03*
X122000000Y-72800000D03*
X122000000Y-73650000D03*
X122000000Y-74500000D03*
X122000000Y-75350000D03*
X122000000Y-76200000D03*
X122000000Y-77050000D03*
X122000000Y-77900000D03*
X122000000Y-78750000D03*
X122000000Y-79600000D03*
X122000000Y-80450000D03*
D18*
X127350000Y-76150000D03*
D19*
X129000000Y-76150000D03*
X130650000Y-76150000D03*
X127350000Y-74500000D03*
X129000000Y-74500000D03*
X130650000Y-74500000D03*
X127350000Y-72850000D03*
X129000000Y-72850000D03*
X130650000Y-72850000D03*
D20*
X122000000Y-81500000D03*
X136000000Y-81500000D03*
X136000000Y-67500000D03*
X122000000Y-67500000D03*
%TD*%
D21*
%TO.C,U2*%
X139050000Y-82637500D03*
X140000000Y-82637500D03*
X140950000Y-82637500D03*
X140950000Y-80362500D03*
X140000000Y-80362500D03*
X139050000Y-80362500D03*
%TD*%
D22*
%TO.C,3V3*%
X118100000Y-84572500D03*
X118100000Y-83427500D03*
%TD*%
D12*
%TO.C,IMU*%
X120050000Y-93495000D03*
X120850000Y-93495000D03*
D13*
X122000000Y-93570000D03*
X123000000Y-93570000D03*
X123500000Y-93570000D03*
X124500000Y-93570000D03*
D12*
X125650000Y-93495000D03*
X126450000Y-93495000D03*
X126450000Y-93495000D03*
X125650000Y-93495000D03*
D13*
X125000000Y-93570000D03*
X124000000Y-93570000D03*
X122500000Y-93570000D03*
X121500000Y-93570000D03*
D12*
X120850000Y-93495000D03*
X120050000Y-93495000D03*
D14*
X118930000Y-94145000D03*
D15*
X118930000Y-98325000D03*
D14*
X127570000Y-94145000D03*
D15*
X127570000Y-98325000D03*
%TD*%
D23*
%TO.C,R6*%
X140400000Y-89597500D03*
X140400000Y-88402500D03*
%TD*%
D24*
%TO.C,C7*%
X124567500Y-83000000D03*
X123432500Y-83000000D03*
%TD*%
D11*
%TO.C,C9*%
X147000000Y-73567500D03*
X147000000Y-72432500D03*
%TD*%
D25*
%TO.C,R7*%
X122802500Y-90750000D03*
X123997500Y-90750000D03*
%TD*%
D11*
%TO.C,C2*%
X145000000Y-78067500D03*
X145000000Y-76932500D03*
%TD*%
D24*
%TO.C,C8*%
X124567500Y-84000000D03*
X123432500Y-84000000D03*
%TD*%
D11*
%TO.C,C10*%
X146000000Y-73567500D03*
X146000000Y-72432500D03*
%TD*%
D26*
%TO.C,C11*%
X136150000Y-92432500D03*
X136150000Y-93567500D03*
%TD*%
D27*
%TO.C,R5*%
X124297500Y-65900000D03*
X123102500Y-65900000D03*
%TD*%
D11*
%TO.C,C13*%
X131600000Y-89567500D03*
X131600000Y-88432500D03*
%TD*%
D26*
%TO.C,C12*%
X134900000Y-92432500D03*
X134900000Y-93567500D03*
%TD*%
D28*
%TO.C,USB*%
X143745000Y-87700000D03*
X143745000Y-86900000D03*
D29*
X143820000Y-85750000D03*
X143820000Y-84750000D03*
X143820000Y-84250000D03*
X143820000Y-83250000D03*
D28*
X143745000Y-82100000D03*
X143745000Y-81300000D03*
X143745000Y-81300000D03*
X143745000Y-82100000D03*
D29*
X143820000Y-82750000D03*
X143820000Y-83750000D03*
X143820000Y-85250000D03*
X143820000Y-86250000D03*
D28*
X143745000Y-86900000D03*
X143745000Y-87700000D03*
D30*
X144395000Y-88820000D03*
D31*
X148575000Y-88820000D03*
D30*
X144395000Y-80180000D03*
D31*
X148575000Y-80180000D03*
%TD*%
D32*
%TO.C,R2*%
X116000000Y-83402500D03*
X116000000Y-84597500D03*
%TD*%
D23*
%TO.C,R1*%
X117100000Y-84597500D03*
X117100000Y-83402500D03*
%TD*%
D32*
%TO.C,R4*%
X142200000Y-86502500D03*
X142200000Y-87697500D03*
%TD*%
D23*
%TO.C,R10*%
X140500000Y-68297500D03*
X140500000Y-67102500D03*
%TD*%
%TO.C,R9*%
X139400000Y-68297500D03*
X139400000Y-67102500D03*
%TD*%
%TO.C,R3*%
X142250000Y-82347500D03*
X142250000Y-81152500D03*
%TD*%
D33*
%TO.C,U3*%
X133425000Y-87095000D03*
X133425000Y-88365000D03*
X133425000Y-89635000D03*
X133425000Y-90905000D03*
X138375000Y-90905000D03*
X138375000Y-89635000D03*
X138375000Y-88365000D03*
X138375000Y-87095000D03*
%TD*%
D27*
%TO.C,R8*%
X122797500Y-89750000D03*
X121602500Y-89750000D03*
%TD*%
M02*
