%TF.GenerationSoftware,KiCad,Pcbnew,9.0.6*%
%TF.CreationDate,2025-12-31T10:36:15+05:30*%
%TF.ProjectId,WheelChair_Controller,57686565-6c43-4686-9169-725f436f6e74,rev?*%
%TF.SameCoordinates,Original*%
%TF.FileFunction,Legend,Top*%
%TF.FilePolarity,Positive*%
%FSLAX46Y46*%
G04 Gerber Fmt 4.6, Leading zero omitted, Abs format (unit mm)*
G04 Created by KiCad (PCBNEW 9.0.6) date 2025-12-31 10:36:15*
%MOMM*%
%LPD*%
G01*
G04 APERTURE LIST*
%ADD10C,0.150000*%
%ADD11C,0.100000*%
%ADD12C,0.120000*%
G04 APERTURE END LIST*
D10*
X118207200Y-92676190D02*
X118254819Y-92533333D01*
X118254819Y-92533333D02*
X118254819Y-92295238D01*
X118254819Y-92295238D02*
X118207200Y-92200000D01*
X118207200Y-92200000D02*
X118159580Y-92152381D01*
X118159580Y-92152381D02*
X118064342Y-92104762D01*
X118064342Y-92104762D02*
X117969104Y-92104762D01*
X117969104Y-92104762D02*
X117873866Y-92152381D01*
X117873866Y-92152381D02*
X117826247Y-92200000D01*
X117826247Y-92200000D02*
X117778628Y-92295238D01*
X117778628Y-92295238D02*
X117731009Y-92485714D01*
X117731009Y-92485714D02*
X117683390Y-92580952D01*
X117683390Y-92580952D02*
X117635771Y-92628571D01*
X117635771Y-92628571D02*
X117540533Y-92676190D01*
X117540533Y-92676190D02*
X117445295Y-92676190D01*
X117445295Y-92676190D02*
X117350057Y-92628571D01*
X117350057Y-92628571D02*
X117302438Y-92580952D01*
X117302438Y-92580952D02*
X117254819Y-92485714D01*
X117254819Y-92485714D02*
X117254819Y-92247619D01*
X117254819Y-92247619D02*
X117302438Y-92104762D01*
X117254819Y-91819047D02*
X117254819Y-91247619D01*
X118254819Y-91533333D02*
X117254819Y-91533333D01*
X117969104Y-90961904D02*
X117969104Y-90485714D01*
X118254819Y-91057142D02*
X117254819Y-90723809D01*
X117254819Y-90723809D02*
X118254819Y-90390476D01*
X117254819Y-90199999D02*
X117254819Y-89628571D01*
X118254819Y-89914285D02*
X117254819Y-89914285D01*
X117254819Y-89295237D02*
X118064342Y-89295237D01*
X118064342Y-89295237D02*
X118159580Y-89247618D01*
X118159580Y-89247618D02*
X118207200Y-89199999D01*
X118207200Y-89199999D02*
X118254819Y-89104761D01*
X118254819Y-89104761D02*
X118254819Y-88914285D01*
X118254819Y-88914285D02*
X118207200Y-88819047D01*
X118207200Y-88819047D02*
X118159580Y-88771428D01*
X118159580Y-88771428D02*
X118064342Y-88723809D01*
X118064342Y-88723809D02*
X117254819Y-88723809D01*
X118207200Y-88295237D02*
X118254819Y-88152380D01*
X118254819Y-88152380D02*
X118254819Y-87914285D01*
X118254819Y-87914285D02*
X118207200Y-87819047D01*
X118207200Y-87819047D02*
X118159580Y-87771428D01*
X118159580Y-87771428D02*
X118064342Y-87723809D01*
X118064342Y-87723809D02*
X117969104Y-87723809D01*
X117969104Y-87723809D02*
X117873866Y-87771428D01*
X117873866Y-87771428D02*
X117826247Y-87819047D01*
X117826247Y-87819047D02*
X117778628Y-87914285D01*
X117778628Y-87914285D02*
X117731009Y-88104761D01*
X117731009Y-88104761D02*
X117683390Y-88199999D01*
X117683390Y-88199999D02*
X117635771Y-88247618D01*
X117635771Y-88247618D02*
X117540533Y-88295237D01*
X117540533Y-88295237D02*
X117445295Y-88295237D01*
X117445295Y-88295237D02*
X117350057Y-88247618D01*
X117350057Y-88247618D02*
X117302438Y-88199999D01*
X117302438Y-88199999D02*
X117254819Y-88104761D01*
X117254819Y-88104761D02*
X117254819Y-87866666D01*
X117254819Y-87866666D02*
X117302438Y-87723809D01*
X144157142Y-92059580D02*
X144109523Y-92107200D01*
X144109523Y-92107200D02*
X143966666Y-92154819D01*
X143966666Y-92154819D02*
X143871428Y-92154819D01*
X143871428Y-92154819D02*
X143728571Y-92107200D01*
X143728571Y-92107200D02*
X143633333Y-92011961D01*
X143633333Y-92011961D02*
X143585714Y-91916723D01*
X143585714Y-91916723D02*
X143538095Y-91726247D01*
X143538095Y-91726247D02*
X143538095Y-91583390D01*
X143538095Y-91583390D02*
X143585714Y-91392914D01*
X143585714Y-91392914D02*
X143633333Y-91297676D01*
X143633333Y-91297676D02*
X143728571Y-91202438D01*
X143728571Y-91202438D02*
X143871428Y-91154819D01*
X143871428Y-91154819D02*
X143966666Y-91154819D01*
X143966666Y-91154819D02*
X144109523Y-91202438D01*
X144109523Y-91202438D02*
X144157142Y-91250057D01*
X144538095Y-91869104D02*
X145014285Y-91869104D01*
X144442857Y-92154819D02*
X144776190Y-91154819D01*
X144776190Y-91154819D02*
X145109523Y-92154819D01*
X145442857Y-92154819D02*
X145442857Y-91154819D01*
X145442857Y-91154819D02*
X146014285Y-92154819D01*
X146014285Y-92154819D02*
X146014285Y-91154819D01*
X137631009Y-78742856D02*
X137631009Y-78409523D01*
X138154819Y-78266666D02*
X138154819Y-78742856D01*
X138154819Y-78742856D02*
X137154819Y-78742856D01*
X137154819Y-78742856D02*
X137154819Y-78266666D01*
X138107200Y-77885713D02*
X138154819Y-77742856D01*
X138154819Y-77742856D02*
X138154819Y-77504761D01*
X138154819Y-77504761D02*
X138107200Y-77409523D01*
X138107200Y-77409523D02*
X138059580Y-77361904D01*
X138059580Y-77361904D02*
X137964342Y-77314285D01*
X137964342Y-77314285D02*
X137869104Y-77314285D01*
X137869104Y-77314285D02*
X137773866Y-77361904D01*
X137773866Y-77361904D02*
X137726247Y-77409523D01*
X137726247Y-77409523D02*
X137678628Y-77504761D01*
X137678628Y-77504761D02*
X137631009Y-77695237D01*
X137631009Y-77695237D02*
X137583390Y-77790475D01*
X137583390Y-77790475D02*
X137535771Y-77838094D01*
X137535771Y-77838094D02*
X137440533Y-77885713D01*
X137440533Y-77885713D02*
X137345295Y-77885713D01*
X137345295Y-77885713D02*
X137250057Y-77838094D01*
X137250057Y-77838094D02*
X137202438Y-77790475D01*
X137202438Y-77790475D02*
X137154819Y-77695237D01*
X137154819Y-77695237D02*
X137154819Y-77457142D01*
X137154819Y-77457142D02*
X137202438Y-77314285D01*
X138154819Y-76885713D02*
X137154819Y-76885713D01*
X137154819Y-76885713D02*
X137154819Y-76504761D01*
X137154819Y-76504761D02*
X137202438Y-76409523D01*
X137202438Y-76409523D02*
X137250057Y-76361904D01*
X137250057Y-76361904D02*
X137345295Y-76314285D01*
X137345295Y-76314285D02*
X137488152Y-76314285D01*
X137488152Y-76314285D02*
X137583390Y-76361904D01*
X137583390Y-76361904D02*
X137631009Y-76409523D01*
X137631009Y-76409523D02*
X137678628Y-76504761D01*
X137678628Y-76504761D02*
X137678628Y-76885713D01*
X137154819Y-75980951D02*
X137154819Y-75361904D01*
X137154819Y-75361904D02*
X137535771Y-75695237D01*
X137535771Y-75695237D02*
X137535771Y-75552380D01*
X137535771Y-75552380D02*
X137583390Y-75457142D01*
X137583390Y-75457142D02*
X137631009Y-75409523D01*
X137631009Y-75409523D02*
X137726247Y-75361904D01*
X137726247Y-75361904D02*
X137964342Y-75361904D01*
X137964342Y-75361904D02*
X138059580Y-75409523D01*
X138059580Y-75409523D02*
X138107200Y-75457142D01*
X138107200Y-75457142D02*
X138154819Y-75552380D01*
X138154819Y-75552380D02*
X138154819Y-75838094D01*
X138154819Y-75838094D02*
X138107200Y-75933332D01*
X138107200Y-75933332D02*
X138059580Y-75980951D01*
X137250057Y-74980951D02*
X137202438Y-74933332D01*
X137202438Y-74933332D02*
X137154819Y-74838094D01*
X137154819Y-74838094D02*
X137154819Y-74599999D01*
X137154819Y-74599999D02*
X137202438Y-74504761D01*
X137202438Y-74504761D02*
X137250057Y-74457142D01*
X137250057Y-74457142D02*
X137345295Y-74409523D01*
X137345295Y-74409523D02*
X137440533Y-74409523D01*
X137440533Y-74409523D02*
X137583390Y-74457142D01*
X137583390Y-74457142D02*
X138154819Y-75028570D01*
X138154819Y-75028570D02*
X138154819Y-74409523D01*
X117554819Y-82488094D02*
X117554819Y-81869047D01*
X117554819Y-81869047D02*
X117935771Y-82202380D01*
X117935771Y-82202380D02*
X117935771Y-82059523D01*
X117935771Y-82059523D02*
X117983390Y-81964285D01*
X117983390Y-81964285D02*
X118031009Y-81916666D01*
X118031009Y-81916666D02*
X118126247Y-81869047D01*
X118126247Y-81869047D02*
X118364342Y-81869047D01*
X118364342Y-81869047D02*
X118459580Y-81916666D01*
X118459580Y-81916666D02*
X118507200Y-81964285D01*
X118507200Y-81964285D02*
X118554819Y-82059523D01*
X118554819Y-82059523D02*
X118554819Y-82345237D01*
X118554819Y-82345237D02*
X118507200Y-82440475D01*
X118507200Y-82440475D02*
X118459580Y-82488094D01*
X117554819Y-81583332D02*
X118554819Y-81249999D01*
X118554819Y-81249999D02*
X117554819Y-80916666D01*
X117554819Y-80678570D02*
X117554819Y-80059523D01*
X117554819Y-80059523D02*
X117935771Y-80392856D01*
X117935771Y-80392856D02*
X117935771Y-80249999D01*
X117935771Y-80249999D02*
X117983390Y-80154761D01*
X117983390Y-80154761D02*
X118031009Y-80107142D01*
X118031009Y-80107142D02*
X118126247Y-80059523D01*
X118126247Y-80059523D02*
X118364342Y-80059523D01*
X118364342Y-80059523D02*
X118459580Y-80107142D01*
X118459580Y-80107142D02*
X118507200Y-80154761D01*
X118507200Y-80154761D02*
X118554819Y-80249999D01*
X118554819Y-80249999D02*
X118554819Y-80535713D01*
X118554819Y-80535713D02*
X118507200Y-80630951D01*
X118507200Y-80630951D02*
X118459580Y-80678570D01*
X125404762Y-92154819D02*
X125404762Y-91154819D01*
X125880952Y-92154819D02*
X125880952Y-91154819D01*
X125880952Y-91154819D02*
X126214285Y-91869104D01*
X126214285Y-91869104D02*
X126547618Y-91154819D01*
X126547618Y-91154819D02*
X126547618Y-92154819D01*
X127023809Y-91154819D02*
X127023809Y-91964342D01*
X127023809Y-91964342D02*
X127071428Y-92059580D01*
X127071428Y-92059580D02*
X127119047Y-92107200D01*
X127119047Y-92107200D02*
X127214285Y-92154819D01*
X127214285Y-92154819D02*
X127404761Y-92154819D01*
X127404761Y-92154819D02*
X127499999Y-92107200D01*
X127499999Y-92107200D02*
X127547618Y-92059580D01*
X127547618Y-92059580D02*
X127595237Y-91964342D01*
X127595237Y-91964342D02*
X127595237Y-91154819D01*
D11*
X144942580Y-72938095D02*
X144133057Y-72938095D01*
X144133057Y-72938095D02*
X144037819Y-72985714D01*
X144037819Y-72985714D02*
X143990200Y-73033333D01*
X143990200Y-73033333D02*
X143942580Y-73128571D01*
X143942580Y-73128571D02*
X143942580Y-73319047D01*
X143942580Y-73319047D02*
X143990200Y-73414285D01*
X143990200Y-73414285D02*
X144037819Y-73461904D01*
X144037819Y-73461904D02*
X144133057Y-73509523D01*
X144133057Y-73509523D02*
X144942580Y-73509523D01*
X144609247Y-74414285D02*
X143942580Y-74414285D01*
X144990200Y-74176190D02*
X144275914Y-73938095D01*
X144275914Y-73938095D02*
X144275914Y-74557142D01*
D10*
X141754819Y-85561904D02*
X142564342Y-85561904D01*
X142564342Y-85561904D02*
X142659580Y-85514285D01*
X142659580Y-85514285D02*
X142707200Y-85466666D01*
X142707200Y-85466666D02*
X142754819Y-85371428D01*
X142754819Y-85371428D02*
X142754819Y-85180952D01*
X142754819Y-85180952D02*
X142707200Y-85085714D01*
X142707200Y-85085714D02*
X142659580Y-85038095D01*
X142659580Y-85038095D02*
X142564342Y-84990476D01*
X142564342Y-84990476D02*
X141754819Y-84990476D01*
X142707200Y-84561904D02*
X142754819Y-84419047D01*
X142754819Y-84419047D02*
X142754819Y-84180952D01*
X142754819Y-84180952D02*
X142707200Y-84085714D01*
X142707200Y-84085714D02*
X142659580Y-84038095D01*
X142659580Y-84038095D02*
X142564342Y-83990476D01*
X142564342Y-83990476D02*
X142469104Y-83990476D01*
X142469104Y-83990476D02*
X142373866Y-84038095D01*
X142373866Y-84038095D02*
X142326247Y-84085714D01*
X142326247Y-84085714D02*
X142278628Y-84180952D01*
X142278628Y-84180952D02*
X142231009Y-84371428D01*
X142231009Y-84371428D02*
X142183390Y-84466666D01*
X142183390Y-84466666D02*
X142135771Y-84514285D01*
X142135771Y-84514285D02*
X142040533Y-84561904D01*
X142040533Y-84561904D02*
X141945295Y-84561904D01*
X141945295Y-84561904D02*
X141850057Y-84514285D01*
X141850057Y-84514285D02*
X141802438Y-84466666D01*
X141802438Y-84466666D02*
X141754819Y-84371428D01*
X141754819Y-84371428D02*
X141754819Y-84133333D01*
X141754819Y-84133333D02*
X141802438Y-83990476D01*
X142231009Y-83228571D02*
X142278628Y-83085714D01*
X142278628Y-83085714D02*
X142326247Y-83038095D01*
X142326247Y-83038095D02*
X142421485Y-82990476D01*
X142421485Y-82990476D02*
X142564342Y-82990476D01*
X142564342Y-82990476D02*
X142659580Y-83038095D01*
X142659580Y-83038095D02*
X142707200Y-83085714D01*
X142707200Y-83085714D02*
X142754819Y-83180952D01*
X142754819Y-83180952D02*
X142754819Y-83561904D01*
X142754819Y-83561904D02*
X141754819Y-83561904D01*
X141754819Y-83561904D02*
X141754819Y-83228571D01*
X141754819Y-83228571D02*
X141802438Y-83133333D01*
X141802438Y-83133333D02*
X141850057Y-83085714D01*
X141850057Y-83085714D02*
X141945295Y-83038095D01*
X141945295Y-83038095D02*
X142040533Y-83038095D01*
X142040533Y-83038095D02*
X142135771Y-83085714D01*
X142135771Y-83085714D02*
X142183390Y-83133333D01*
X142183390Y-83133333D02*
X142231009Y-83228571D01*
X142231009Y-83228571D02*
X142231009Y-83561904D01*
X119631009Y-79052381D02*
X119678628Y-78909524D01*
X119678628Y-78909524D02*
X119726247Y-78861905D01*
X119726247Y-78861905D02*
X119821485Y-78814286D01*
X119821485Y-78814286D02*
X119964342Y-78814286D01*
X119964342Y-78814286D02*
X120059580Y-78861905D01*
X120059580Y-78861905D02*
X120107200Y-78909524D01*
X120107200Y-78909524D02*
X120154819Y-79004762D01*
X120154819Y-79004762D02*
X120154819Y-79385714D01*
X120154819Y-79385714D02*
X119154819Y-79385714D01*
X119154819Y-79385714D02*
X119154819Y-79052381D01*
X119154819Y-79052381D02*
X119202438Y-78957143D01*
X119202438Y-78957143D02*
X119250057Y-78909524D01*
X119250057Y-78909524D02*
X119345295Y-78861905D01*
X119345295Y-78861905D02*
X119440533Y-78861905D01*
X119440533Y-78861905D02*
X119535771Y-78909524D01*
X119535771Y-78909524D02*
X119583390Y-78957143D01*
X119583390Y-78957143D02*
X119631009Y-79052381D01*
X119631009Y-79052381D02*
X119631009Y-79385714D01*
X119154819Y-78195238D02*
X119154819Y-78004762D01*
X119154819Y-78004762D02*
X119202438Y-77909524D01*
X119202438Y-77909524D02*
X119297676Y-77814286D01*
X119297676Y-77814286D02*
X119488152Y-77766667D01*
X119488152Y-77766667D02*
X119821485Y-77766667D01*
X119821485Y-77766667D02*
X120011961Y-77814286D01*
X120011961Y-77814286D02*
X120107200Y-77909524D01*
X120107200Y-77909524D02*
X120154819Y-78004762D01*
X120154819Y-78004762D02*
X120154819Y-78195238D01*
X120154819Y-78195238D02*
X120107200Y-78290476D01*
X120107200Y-78290476D02*
X120011961Y-78385714D01*
X120011961Y-78385714D02*
X119821485Y-78433333D01*
X119821485Y-78433333D02*
X119488152Y-78433333D01*
X119488152Y-78433333D02*
X119297676Y-78385714D01*
X119297676Y-78385714D02*
X119202438Y-78290476D01*
X119202438Y-78290476D02*
X119154819Y-78195238D01*
X119154819Y-77147619D02*
X119154819Y-76957143D01*
X119154819Y-76957143D02*
X119202438Y-76861905D01*
X119202438Y-76861905D02*
X119297676Y-76766667D01*
X119297676Y-76766667D02*
X119488152Y-76719048D01*
X119488152Y-76719048D02*
X119821485Y-76719048D01*
X119821485Y-76719048D02*
X120011961Y-76766667D01*
X120011961Y-76766667D02*
X120107200Y-76861905D01*
X120107200Y-76861905D02*
X120154819Y-76957143D01*
X120154819Y-76957143D02*
X120154819Y-77147619D01*
X120154819Y-77147619D02*
X120107200Y-77242857D01*
X120107200Y-77242857D02*
X120011961Y-77338095D01*
X120011961Y-77338095D02*
X119821485Y-77385714D01*
X119821485Y-77385714D02*
X119488152Y-77385714D01*
X119488152Y-77385714D02*
X119297676Y-77338095D01*
X119297676Y-77338095D02*
X119202438Y-77242857D01*
X119202438Y-77242857D02*
X119154819Y-77147619D01*
X119154819Y-76433333D02*
X119154819Y-75861905D01*
X120154819Y-76147619D02*
X119154819Y-76147619D01*
X120250057Y-75766667D02*
X120250057Y-75004762D01*
X120250057Y-75004762D02*
X120250057Y-74242857D01*
X120107200Y-74052380D02*
X120154819Y-73909523D01*
X120154819Y-73909523D02*
X120154819Y-73671428D01*
X120154819Y-73671428D02*
X120107200Y-73576190D01*
X120107200Y-73576190D02*
X120059580Y-73528571D01*
X120059580Y-73528571D02*
X119964342Y-73480952D01*
X119964342Y-73480952D02*
X119869104Y-73480952D01*
X119869104Y-73480952D02*
X119773866Y-73528571D01*
X119773866Y-73528571D02*
X119726247Y-73576190D01*
X119726247Y-73576190D02*
X119678628Y-73671428D01*
X119678628Y-73671428D02*
X119631009Y-73861904D01*
X119631009Y-73861904D02*
X119583390Y-73957142D01*
X119583390Y-73957142D02*
X119535771Y-74004761D01*
X119535771Y-74004761D02*
X119440533Y-74052380D01*
X119440533Y-74052380D02*
X119345295Y-74052380D01*
X119345295Y-74052380D02*
X119250057Y-74004761D01*
X119250057Y-74004761D02*
X119202438Y-73957142D01*
X119202438Y-73957142D02*
X119154819Y-73861904D01*
X119154819Y-73861904D02*
X119154819Y-73623809D01*
X119154819Y-73623809D02*
X119202438Y-73480952D01*
X119631009Y-73052380D02*
X119631009Y-72719047D01*
X120154819Y-72576190D02*
X120154819Y-73052380D01*
X120154819Y-73052380D02*
X119154819Y-73052380D01*
X119154819Y-73052380D02*
X119154819Y-72576190D01*
X120154819Y-71671428D02*
X120154819Y-72147618D01*
X120154819Y-72147618D02*
X119154819Y-72147618D01*
D12*
%TO.C,C1*%
X143390000Y-77615835D02*
X143390000Y-77384165D01*
X144110000Y-77615835D02*
X144110000Y-77384165D01*
%TO.C,CAN*%
X137480000Y-97150000D02*
X137480000Y-95450000D01*
X146820000Y-97150000D02*
X146820000Y-95450000D01*
%TO.C,ESP32*%
X121200000Y-66700000D02*
X136800000Y-66700000D01*
X121200000Y-82300000D02*
X121200000Y-66700000D01*
X136800000Y-66700000D02*
X136800000Y-82300000D01*
X136800000Y-82300000D02*
X121200000Y-82300000D01*
X123290000Y-82811000D02*
X122810000Y-82811000D01*
X123050000Y-82475000D01*
X123290000Y-82811000D01*
G36*
X123290000Y-82811000D02*
G01*
X122810000Y-82811000D01*
X123050000Y-82475000D01*
X123290000Y-82811000D01*
G37*
%TO.C,U2*%
X138440000Y-80590000D02*
X138490000Y-80590000D01*
X138440000Y-82410000D02*
X138440000Y-80590000D01*
X138490000Y-82410000D02*
X138440000Y-82410000D01*
X141510000Y-80590000D02*
X141560000Y-80590000D01*
X141560000Y-80590000D02*
X141560000Y-82410000D01*
X141560000Y-82410000D02*
X141510000Y-82410000D01*
X138490000Y-82950000D02*
X138160000Y-83190000D01*
X138160000Y-82710000D01*
X138490000Y-82950000D01*
G36*
X138490000Y-82950000D02*
G01*
X138160000Y-83190000D01*
X138160000Y-82710000D01*
X138490000Y-82950000D01*
G37*
D11*
%TO.C,3V3*%
X118150000Y-85265000D02*
G75*
G02*
X118050000Y-85265000I-50000J0D01*
G01*
X118050000Y-85265000D02*
G75*
G02*
X118150000Y-85265000I50000J0D01*
G01*
D12*
%TO.C,IMU*%
X118580000Y-97150000D02*
X118580000Y-95450000D01*
X127920000Y-97150000D02*
X127920000Y-95450000D01*
%TO.C,R6*%
X140020000Y-89167621D02*
X140020000Y-88832379D01*
X140780000Y-89167621D02*
X140780000Y-88832379D01*
%TO.C,C7*%
X124115835Y-82640000D02*
X123884165Y-82640000D01*
X124115835Y-83360000D02*
X123884165Y-83360000D01*
%TO.C,C9*%
X146640000Y-73115835D02*
X146640000Y-72884165D01*
X147360000Y-73115835D02*
X147360000Y-72884165D01*
%TO.C,R7*%
X123232379Y-90370000D02*
X123567621Y-90370000D01*
X123232379Y-91130000D02*
X123567621Y-91130000D01*
%TO.C,C2*%
X144640000Y-77615835D02*
X144640000Y-77384165D01*
X145360000Y-77615835D02*
X145360000Y-77384165D01*
%TO.C,C8*%
X124115835Y-83640000D02*
X123884165Y-83640000D01*
X124115835Y-84360000D02*
X123884165Y-84360000D01*
%TO.C,C10*%
X145640000Y-73115835D02*
X145640000Y-72884165D01*
X146360000Y-73115835D02*
X146360000Y-72884165D01*
%TO.C,C11*%
X135790000Y-92884165D02*
X135790000Y-93115835D01*
X136510000Y-92884165D02*
X136510000Y-93115835D01*
%TO.C,R5*%
X123867621Y-65520000D02*
X123532379Y-65520000D01*
X123867621Y-66280000D02*
X123532379Y-66280000D01*
D11*
%TO.C,U4*%
X139890000Y-71000000D02*
X139890000Y-77000000D01*
X140490000Y-77800000D02*
X148490000Y-77800000D01*
X143290000Y-70200000D02*
X140490000Y-70200000D01*
X149090000Y-77000000D02*
X149090000Y-71000000D01*
D12*
%TO.C,C13*%
X131240000Y-89115835D02*
X131240000Y-88884165D01*
X131960000Y-89115835D02*
X131960000Y-88884165D01*
%TO.C,C12*%
X134540000Y-92884165D02*
X134540000Y-93115835D01*
X135260000Y-92884165D02*
X135260000Y-93115835D01*
%TO.C,USB*%
X147400000Y-79830000D02*
X145700000Y-79830000D01*
X147400000Y-89170000D02*
X145700000Y-89170000D01*
%TO.C,R2*%
X115620000Y-83832379D02*
X115620000Y-84167621D01*
X116380000Y-83832379D02*
X116380000Y-84167621D01*
%TO.C,R1*%
X116720000Y-84167621D02*
X116720000Y-83832379D01*
X117480000Y-84167621D02*
X117480000Y-83832379D01*
D10*
%TO.C,BOOT__SEL*%
X117100000Y-74180000D02*
X117600000Y-73680000D01*
X117100000Y-77780000D02*
X117100000Y-74180000D01*
X117600000Y-73680000D02*
X118400000Y-73680000D01*
X117600000Y-78280000D02*
X117100000Y-77780000D01*
X118400000Y-73680000D02*
X118900000Y-74180000D01*
X118400000Y-78280000D02*
X117600000Y-78280000D01*
X118900000Y-74180000D02*
X118900000Y-77780000D01*
X118900000Y-77780000D02*
X118400000Y-78280000D01*
D12*
%TO.C,R4*%
X141820000Y-86932379D02*
X141820000Y-87267621D01*
X142580000Y-86932379D02*
X142580000Y-87267621D01*
%TO.C,R10*%
X140120000Y-67867621D02*
X140120000Y-67532379D01*
X140880000Y-67867621D02*
X140880000Y-67532379D01*
%TO.C,R9*%
X139020000Y-67867621D02*
X139020000Y-67532379D01*
X139780000Y-67867621D02*
X139780000Y-67532379D01*
%TO.C,R3*%
X141870000Y-81917621D02*
X141870000Y-81582379D01*
X142630000Y-81917621D02*
X142630000Y-81582379D01*
%TO.C,U3*%
X133840000Y-86440000D02*
X137960000Y-86440000D01*
X133840000Y-86535000D02*
X133840000Y-86440000D01*
X133840000Y-91560000D02*
X133840000Y-91465000D01*
X137960000Y-86440000D02*
X137960000Y-86535000D01*
X137960000Y-91465000D02*
X137960000Y-91560000D01*
X137960000Y-91560000D02*
X133840000Y-91560000D01*
X133300000Y-86530000D02*
X133060000Y-86200000D01*
X133540000Y-86200000D01*
X133300000Y-86530000D01*
G36*
X133300000Y-86530000D02*
G01*
X133060000Y-86200000D01*
X133540000Y-86200000D01*
X133300000Y-86530000D01*
G37*
%TO.C,R8*%
X122367621Y-89370000D02*
X122032379Y-89370000D01*
X122367621Y-90130000D02*
X122032379Y-90130000D01*
%TD*%
M02*
