%TF.GenerationSoftware,KiCad,Pcbnew,9.0.6*%
%TF.CreationDate,2025-12-31T10:36:15+05:30*%
%TF.ProjectId,WheelChair_Controller,57686565-6c43-4686-9169-725f436f6e74,rev?*%
%TF.SameCoordinates,Original*%
%TF.FileFunction,Legend,Bot*%
%TF.FilePolarity,Positive*%
%FSLAX46Y46*%
G04 Gerber Fmt 4.6, Leading zero omitted, Abs format (unit mm)*
G04 Created by KiCad (PCBNEW 9.0.6) date 2025-12-31 10:36:15*
%MOMM*%
%LPD*%
G01*
G04 APERTURE LIST*
%ADD10C,0.150000*%
%ADD11C,0.120000*%
%ADD12C,0.127000*%
G04 APERTURE END LIST*
D10*
X130471427Y-83054819D02*
X130471427Y-82054819D01*
X129995237Y-83054819D02*
X129995237Y-82054819D01*
X129995237Y-82054819D02*
X129661904Y-82769104D01*
X129661904Y-82769104D02*
X129328571Y-82054819D01*
X129328571Y-82054819D02*
X129328571Y-83054819D01*
X128852380Y-82054819D02*
X128852380Y-82864342D01*
X128852380Y-82864342D02*
X128804761Y-82959580D01*
X128804761Y-82959580D02*
X128757142Y-83007200D01*
X128757142Y-83007200D02*
X128661904Y-83054819D01*
X128661904Y-83054819D02*
X128471428Y-83054819D01*
X128471428Y-83054819D02*
X128376190Y-83007200D01*
X128376190Y-83007200D02*
X128328571Y-82959580D01*
X128328571Y-82959580D02*
X128280952Y-82864342D01*
X128280952Y-82864342D02*
X128280952Y-82054819D01*
X127280952Y-83054819D02*
X127852380Y-83054819D01*
X127566666Y-83054819D02*
X127566666Y-82054819D01*
X127566666Y-82054819D02*
X127661904Y-82197676D01*
X127661904Y-82197676D02*
X127757142Y-82292914D01*
X127757142Y-82292914D02*
X127852380Y-82340533D01*
X144261904Y-82304819D02*
X144261904Y-83114342D01*
X144261904Y-83114342D02*
X144214285Y-83209580D01*
X144214285Y-83209580D02*
X144166666Y-83257200D01*
X144166666Y-83257200D02*
X144071428Y-83304819D01*
X144071428Y-83304819D02*
X143880952Y-83304819D01*
X143880952Y-83304819D02*
X143785714Y-83257200D01*
X143785714Y-83257200D02*
X143738095Y-83209580D01*
X143738095Y-83209580D02*
X143690476Y-83114342D01*
X143690476Y-83114342D02*
X143690476Y-82304819D01*
X142690476Y-83304819D02*
X143261904Y-83304819D01*
X142976190Y-83304819D02*
X142976190Y-82304819D01*
X142976190Y-82304819D02*
X143071428Y-82447676D01*
X143071428Y-82447676D02*
X143166666Y-82542914D01*
X143166666Y-82542914D02*
X143261904Y-82590533D01*
D11*
%TO.C,C5*%
X146884165Y-83890000D02*
X147115835Y-83890000D01*
X146884165Y-84610000D02*
X147115835Y-84610000D01*
D12*
%TO.C,IMU1*%
X131000000Y-81250000D02*
X131000000Y-81305000D01*
X131000000Y-83695000D02*
X131000000Y-83750000D01*
X131555000Y-81250000D02*
X131000000Y-81250000D01*
X131555000Y-83750000D02*
X131000000Y-83750000D01*
X134000000Y-81250000D02*
X133445000Y-81250000D01*
X134000000Y-81250000D02*
X134000000Y-81305000D01*
X134000000Y-83695000D02*
X134000000Y-83750000D01*
X134000000Y-83750000D02*
X133445000Y-83750000D01*
D10*
X134575000Y-81600000D02*
G75*
G02*
X134425000Y-81600000I-75000J0D01*
G01*
X134425000Y-81600000D02*
G75*
G02*
X134575000Y-81600000I75000J0D01*
G01*
D11*
%TO.C,C6*%
X140390000Y-84884165D02*
X140390000Y-85115835D01*
X141110000Y-84884165D02*
X141110000Y-85115835D01*
%TO.C,U1*%
X142590000Y-83690000D02*
X142590000Y-83740000D01*
X142590000Y-84860000D02*
X142590000Y-85640000D01*
X142590000Y-86760000D02*
X142590000Y-86810000D01*
X142590000Y-86810000D02*
X144410000Y-86810000D01*
X144410000Y-83690000D02*
X142590000Y-83690000D01*
X144410000Y-83740000D02*
X144410000Y-83690000D01*
X144410000Y-86810000D02*
X144410000Y-86760000D01*
X144950000Y-83740000D02*
X144710000Y-83410000D01*
X145190000Y-83410000D01*
X144950000Y-83740000D01*
G36*
X144950000Y-83740000D02*
G01*
X144710000Y-83410000D01*
X145190000Y-83410000D01*
X144950000Y-83740000D01*
G37*
%TO.C,C4*%
X129890000Y-84134165D02*
X129890000Y-84365835D01*
X130610000Y-84134165D02*
X130610000Y-84365835D01*
%TO.C,C3*%
X132365835Y-84390000D02*
X132134165Y-84390000D01*
X132365835Y-85110000D02*
X132134165Y-85110000D01*
%TD*%
M02*
