%TF.GenerationSoftware,KiCad,Pcbnew,9.0.6*%
%TF.CreationDate,2025-12-31T10:36:15+05:30*%
%TF.ProjectId,WheelChair_Controller,57686565-6c43-4686-9169-725f436f6e74,rev?*%
%TF.SameCoordinates,Original*%
%TF.FileFunction,Copper,L2,Inr*%
%TF.FilePolarity,Positive*%
%FSLAX46Y46*%
G04 Gerber Fmt 4.6, Leading zero omitted, Abs format (unit mm)*
G04 Created by KiCad (PCBNEW 9.0.6) date 2025-12-31 10:36:15*
%MOMM*%
%LPD*%
G01*
G04 APERTURE LIST*
%TA.AperFunction,ComponentPad*%
%ADD10C,0.700000*%
%TD*%
%TA.AperFunction,ComponentPad*%
%ADD11C,4.400000*%
%TD*%
%TA.AperFunction,HeatsinkPad*%
%ADD12O,1.000000X2.100000*%
%TD*%
%TA.AperFunction,HeatsinkPad*%
%ADD13O,1.000000X1.800000*%
%TD*%
%TA.AperFunction,ComponentPad*%
%ADD14C,1.000000*%
%TD*%
%TA.AperFunction,HeatsinkPad*%
%ADD15O,2.100000X1.000000*%
%TD*%
%TA.AperFunction,HeatsinkPad*%
%ADD16O,1.800000X1.000000*%
%TD*%
%TA.AperFunction,ComponentPad*%
%ADD17C,1.400000*%
%TD*%
%TA.AperFunction,ViaPad*%
%ADD18C,0.600000*%
%TD*%
G04 APERTURE END LIST*
D10*
%TO.N,GND*%
%TO.C,MH3*%
X130850000Y-97000000D03*
X131333274Y-95833274D03*
X131333274Y-98166726D03*
X132500000Y-95350000D03*
D11*
X132500000Y-97000000D03*
D10*
X132500000Y-98650000D03*
X133666726Y-95833274D03*
X133666726Y-98166726D03*
X134150000Y-97000000D03*
%TD*%
D12*
%TO.N,GND*%
%TO.C,CAN*%
X137830000Y-94145000D03*
D13*
X137830000Y-98325000D03*
D12*
X146470000Y-94145000D03*
D13*
X146470000Y-98325000D03*
%TD*%
D12*
%TO.N,GND*%
%TO.C,IMU*%
X118930000Y-94145000D03*
D13*
X118930000Y-98325000D03*
D12*
X127570000Y-94145000D03*
D13*
X127570000Y-98325000D03*
%TD*%
D10*
%TO.N,GND*%
%TO.C,MH1*%
X116850000Y-68500000D03*
X117333274Y-67333274D03*
X117333274Y-69666726D03*
X118500000Y-66850000D03*
D11*
X118500000Y-68500000D03*
D10*
X118500000Y-70150000D03*
X119666726Y-67333274D03*
X119666726Y-69666726D03*
X120150000Y-68500000D03*
%TD*%
D14*
%TO.N,/I2S_L{slash}R*%
%TO.C,U4*%
X140690000Y-71460000D03*
%TO.N,/I2S_WS*%
X140690000Y-74000000D03*
%TO.N,/I2S_SCL*%
X140690000Y-76540000D03*
%TO.N,/I2S_SD*%
X148310000Y-76540000D03*
%TO.N,+3V3*%
X148310000Y-74000000D03*
%TO.N,GND*%
X148310000Y-71460000D03*
%TD*%
D10*
%TO.N,GND*%
%TO.C,MH2*%
X144850000Y-68500000D03*
X145333274Y-67333274D03*
X145333274Y-69666726D03*
X146500000Y-66850000D03*
D11*
X146500000Y-68500000D03*
D10*
X146500000Y-70150000D03*
X147666726Y-67333274D03*
X147666726Y-69666726D03*
X148150000Y-68500000D03*
%TD*%
D15*
%TO.N,GND*%
%TO.C,USB*%
X144395000Y-88820000D03*
D16*
X148575000Y-88820000D03*
D15*
X144395000Y-80180000D03*
D16*
X148575000Y-80180000D03*
%TD*%
D17*
%TO.N,GND*%
%TO.C,BOOT__SEL*%
X118000000Y-77250000D03*
%TO.N,/BOOT_SEL*%
X118000000Y-74710000D03*
%TD*%
D18*
%TO.N,+3V3*%
X120000000Y-84200000D03*
X142500000Y-97500000D03*
X141500000Y-95500000D03*
X137400000Y-92200000D03*
X143500000Y-96500000D03*
X143500000Y-97500000D03*
X131600000Y-80000000D03*
X122100000Y-85000000D03*
X140500000Y-97500000D03*
X139400000Y-92200000D03*
X141500000Y-97500000D03*
X118900000Y-83400000D03*
X142500000Y-96500000D03*
X135800000Y-89900000D03*
X142500000Y-95500000D03*
X135800000Y-88900000D03*
X120000000Y-83400000D03*
X135800000Y-90900000D03*
X144500000Y-97500000D03*
X144500000Y-96500000D03*
X124200000Y-85000000D03*
X140500000Y-96500000D03*
X143500000Y-95500000D03*
X124000000Y-89700000D03*
X141500000Y-96500000D03*
X140500000Y-95500000D03*
X121000000Y-85000000D03*
X125300000Y-65900000D03*
X120000000Y-85000000D03*
X138400000Y-92200000D03*
X123200000Y-85000000D03*
X144500000Y-95500000D03*
%TO.N,GND*%
X129000000Y-78300000D03*
X133750000Y-74000000D03*
X132000000Y-93750000D03*
X148000000Y-96250000D03*
X130000000Y-70500000D03*
X116250000Y-80500000D03*
X116250000Y-94750000D03*
X129000000Y-70500000D03*
X116250000Y-74500000D03*
X148000000Y-94250000D03*
X116250000Y-89750000D03*
X119000000Y-96500000D03*
X130000000Y-71500000D03*
X124500000Y-98500000D03*
X137500000Y-82500000D03*
X129250000Y-96000000D03*
X148500000Y-85750000D03*
X127000000Y-71500000D03*
X131750000Y-69250000D03*
X116250000Y-73500000D03*
X127250000Y-96500000D03*
X137500000Y-84300000D03*
X127500000Y-68500000D03*
X120000000Y-96500000D03*
X116250000Y-70500000D03*
X127000000Y-70500000D03*
X120600000Y-73500000D03*
X119250000Y-92000000D03*
X126250000Y-96500000D03*
X128500000Y-68500000D03*
X149000000Y-95250000D03*
X130000000Y-77500000D03*
X120600000Y-72500000D03*
X130000000Y-93750000D03*
X133750000Y-74900000D03*
X116250000Y-76500000D03*
X117250000Y-95750000D03*
X116250000Y-93750000D03*
X116250000Y-88750000D03*
X116250000Y-95750000D03*
X125250000Y-96500000D03*
X146000000Y-90250000D03*
X129250000Y-98000000D03*
X120600000Y-74500000D03*
X128000000Y-70500000D03*
X148000000Y-92250000D03*
X136000000Y-95000000D03*
X140600000Y-86800000D03*
X124500000Y-97500000D03*
X116250000Y-90750000D03*
X146700000Y-71500000D03*
X120600000Y-75500000D03*
X131750000Y-77250000D03*
X136000000Y-97000000D03*
X136000000Y-96000000D03*
X135400000Y-87000000D03*
X120600000Y-78500000D03*
X117250000Y-96750000D03*
X131750000Y-76250000D03*
X124250000Y-96500000D03*
X123500000Y-98500000D03*
X131750000Y-72250000D03*
X116250000Y-79500000D03*
X120600000Y-81500000D03*
X130000000Y-78300000D03*
X127000000Y-77500000D03*
X128000000Y-77500000D03*
X129250000Y-95000000D03*
X120600000Y-79500000D03*
X116250000Y-92750000D03*
X129000000Y-71500000D03*
X129250000Y-97000000D03*
X129000000Y-69500000D03*
X148500000Y-84750000D03*
X131000000Y-93750000D03*
X117250000Y-94750000D03*
X120600000Y-80500000D03*
X133750000Y-73000000D03*
X117250000Y-71500000D03*
X116250000Y-81500000D03*
X149000000Y-93250000D03*
X143800000Y-66000000D03*
X131750000Y-71250000D03*
X120750000Y-66000000D03*
X128000000Y-78300000D03*
X117250000Y-93750000D03*
X149000000Y-94250000D03*
X116250000Y-78500000D03*
X137500000Y-85200000D03*
X117500000Y-79500000D03*
X136000000Y-98000000D03*
X136100000Y-87000000D03*
X118250000Y-71500000D03*
X133750000Y-78500000D03*
X123500000Y-97500000D03*
X131750000Y-78250000D03*
X148000000Y-90250000D03*
X132750000Y-69250000D03*
X131750000Y-74250000D03*
X148000000Y-93250000D03*
X137500000Y-83400000D03*
X116250000Y-77500000D03*
X120600000Y-71500000D03*
X148000000Y-91250000D03*
X148500000Y-82750000D03*
X133750000Y-76650000D03*
X133750000Y-80400000D03*
X148500000Y-83750000D03*
X148000000Y-97250000D03*
X129000000Y-77500000D03*
X145000000Y-90250000D03*
X122000000Y-96500000D03*
X116250000Y-72500000D03*
X122500000Y-98500000D03*
X144000000Y-90250000D03*
X117250000Y-72500000D03*
X133750000Y-79500000D03*
X131750000Y-75250000D03*
X137500000Y-81600000D03*
X127000000Y-78300000D03*
X135000000Y-95000000D03*
X116250000Y-71500000D03*
X121500000Y-97500000D03*
X118500000Y-79500000D03*
X126500000Y-68500000D03*
X120250000Y-92000000D03*
X131750000Y-70250000D03*
X130000000Y-89650000D03*
X120600000Y-70500000D03*
X148000000Y-95250000D03*
X133750000Y-75750000D03*
X118250000Y-72500000D03*
X116250000Y-75500000D03*
X147000000Y-90250000D03*
X133750000Y-77600000D03*
X128000000Y-71500000D03*
X120600000Y-76500000D03*
X122500000Y-97500000D03*
X128000000Y-69500000D03*
X131750000Y-73250000D03*
X120600000Y-77500000D03*
X121000000Y-96500000D03*
X116250000Y-91750000D03*
X143800000Y-67000000D03*
X130000000Y-90750000D03*
X127000000Y-69500000D03*
X121750000Y-66000000D03*
X121500000Y-98500000D03*
X133000000Y-93750000D03*
X149000000Y-92250000D03*
X119500000Y-71500000D03*
%TO.N,+VBUS*%
X146500000Y-81000000D03*
X148100000Y-78600000D03*
X146500000Y-80200000D03*
X148900000Y-78600000D03*
X147300000Y-78600000D03*
X146500000Y-79400000D03*
X146500000Y-78600000D03*
X146500000Y-82600000D03*
X146500000Y-83400000D03*
X146500000Y-81800000D03*
X140000000Y-79100000D03*
%TO.N,/IMU1_INT1*%
X131900000Y-66200000D03*
%TO.N,/IMU1_SDA*%
X141500000Y-67100000D03*
%TO.N,/IMU1_INT2*%
X130400000Y-66200000D03*
%TO.N,/IMU1_SCL*%
X138400000Y-67100000D03*
%TO.N,/IMU2_INT2*%
X124900000Y-91900000D03*
X122300000Y-95400000D03*
%TO.N,/BOOT_SEL*%
X125500000Y-83600000D03*
%TD*%
%TA.AperFunction,Conductor*%
%TO.N,GND*%
G36*
X124868309Y-65469407D02*
G01*
X124904273Y-65518907D01*
X124904273Y-65580093D01*
X124895854Y-65599000D01*
X124833609Y-65706809D01*
X124826428Y-65733609D01*
X124799500Y-65834108D01*
X124799500Y-65965892D01*
X124825342Y-66062336D01*
X124833609Y-66093190D01*
X124899496Y-66207309D01*
X124899498Y-66207311D01*
X124899500Y-66207314D01*
X124992686Y-66300500D01*
X124992688Y-66300501D01*
X124992690Y-66300503D01*
X125106810Y-66366390D01*
X125106808Y-66366390D01*
X125106812Y-66366391D01*
X125106814Y-66366392D01*
X125234108Y-66400500D01*
X125234110Y-66400500D01*
X125365890Y-66400500D01*
X125365892Y-66400500D01*
X125493186Y-66366392D01*
X125493188Y-66366390D01*
X125493190Y-66366390D01*
X125607309Y-66300503D01*
X125607309Y-66300502D01*
X125607314Y-66300500D01*
X125700500Y-66207314D01*
X125742766Y-66134108D01*
X129899500Y-66134108D01*
X129899500Y-66265892D01*
X129908773Y-66300500D01*
X129933609Y-66393190D01*
X129999496Y-66507309D01*
X129999498Y-66507311D01*
X129999500Y-66507314D01*
X130092686Y-66600500D01*
X130092688Y-66600501D01*
X130092690Y-66600503D01*
X130206810Y-66666390D01*
X130206808Y-66666390D01*
X130206812Y-66666391D01*
X130206814Y-66666392D01*
X130334108Y-66700500D01*
X130334110Y-66700500D01*
X130465890Y-66700500D01*
X130465892Y-66700500D01*
X130593186Y-66666392D01*
X130593188Y-66666390D01*
X130593190Y-66666390D01*
X130707309Y-66600503D01*
X130707309Y-66600502D01*
X130707314Y-66600500D01*
X130800500Y-66507314D01*
X130819541Y-66474334D01*
X130866390Y-66393190D01*
X130866390Y-66393188D01*
X130866392Y-66393186D01*
X130900500Y-66265892D01*
X130900500Y-66134108D01*
X131399500Y-66134108D01*
X131399500Y-66265892D01*
X131408773Y-66300500D01*
X131433609Y-66393190D01*
X131499496Y-66507309D01*
X131499498Y-66507311D01*
X131499500Y-66507314D01*
X131592686Y-66600500D01*
X131592688Y-66600501D01*
X131592690Y-66600503D01*
X131706810Y-66666390D01*
X131706808Y-66666390D01*
X131706812Y-66666391D01*
X131706814Y-66666392D01*
X131834108Y-66700500D01*
X131834110Y-66700500D01*
X131965890Y-66700500D01*
X131965892Y-66700500D01*
X132093186Y-66666392D01*
X132093188Y-66666390D01*
X132093190Y-66666390D01*
X132207309Y-66600503D01*
X132207309Y-66600502D01*
X132207314Y-66600500D01*
X132300500Y-66507314D01*
X132319541Y-66474334D01*
X132366390Y-66393190D01*
X132366390Y-66393188D01*
X132366392Y-66393186D01*
X132400500Y-66265892D01*
X132400500Y-66134108D01*
X132366392Y-66006814D01*
X132366390Y-66006811D01*
X132366390Y-66006809D01*
X132300503Y-65892690D01*
X132300501Y-65892688D01*
X132300500Y-65892686D01*
X132207314Y-65799500D01*
X132207311Y-65799498D01*
X132207309Y-65799496D01*
X132093189Y-65733609D01*
X132093191Y-65733609D01*
X132043799Y-65720375D01*
X131965892Y-65699500D01*
X131834108Y-65699500D01*
X131756200Y-65720375D01*
X131706809Y-65733609D01*
X131592690Y-65799496D01*
X131499496Y-65892690D01*
X131433609Y-66006809D01*
X131433608Y-66006814D01*
X131399500Y-66134108D01*
X130900500Y-66134108D01*
X130866392Y-66006814D01*
X130866390Y-66006811D01*
X130866390Y-66006809D01*
X130800503Y-65892690D01*
X130800501Y-65892688D01*
X130800500Y-65892686D01*
X130707314Y-65799500D01*
X130707311Y-65799498D01*
X130707309Y-65799496D01*
X130593189Y-65733609D01*
X130593191Y-65733609D01*
X130543799Y-65720375D01*
X130465892Y-65699500D01*
X130334108Y-65699500D01*
X130256200Y-65720375D01*
X130206809Y-65733609D01*
X130092690Y-65799496D01*
X129999496Y-65892690D01*
X129933609Y-66006809D01*
X129933608Y-66006814D01*
X129899500Y-66134108D01*
X125742766Y-66134108D01*
X125766392Y-66093186D01*
X125800500Y-65965892D01*
X125800500Y-65834108D01*
X125766392Y-65706814D01*
X125766390Y-65706811D01*
X125766390Y-65706809D01*
X125704146Y-65599000D01*
X125691424Y-65539152D01*
X125716310Y-65483256D01*
X125769298Y-65452663D01*
X125789882Y-65450500D01*
X144940691Y-65450500D01*
X144997835Y-65450500D01*
X145002152Y-65450593D01*
X145392211Y-65467624D01*
X145400791Y-65468374D01*
X145785735Y-65519054D01*
X145794230Y-65520552D01*
X146173273Y-65604583D01*
X146181614Y-65606818D01*
X146551898Y-65723568D01*
X146560014Y-65726522D01*
X146918718Y-65875103D01*
X146926530Y-65878745D01*
X147093937Y-65965892D01*
X147270910Y-66058018D01*
X147278390Y-66062336D01*
X147605846Y-66270949D01*
X147612919Y-66275902D01*
X147914500Y-66507314D01*
X147920936Y-66512252D01*
X147927537Y-66517791D01*
X148213814Y-66780115D01*
X148219884Y-66786185D01*
X148482207Y-67072460D01*
X148487747Y-67079063D01*
X148724096Y-67387079D01*
X148729050Y-67394153D01*
X148937663Y-67721609D01*
X148941981Y-67729089D01*
X149121250Y-68073462D01*
X149124900Y-68081289D01*
X149273477Y-68439985D01*
X149276431Y-68448101D01*
X149393181Y-68818385D01*
X149395416Y-68826728D01*
X149479446Y-69205764D01*
X149480946Y-69214269D01*
X149531623Y-69599196D01*
X149532376Y-69607800D01*
X149549406Y-69997847D01*
X149549500Y-70002165D01*
X149549500Y-78354492D01*
X149530593Y-78412683D01*
X149481093Y-78448647D01*
X149419907Y-78448647D01*
X149370407Y-78412683D01*
X149364764Y-78403992D01*
X149300503Y-78292690D01*
X149300501Y-78292688D01*
X149300500Y-78292686D01*
X149207314Y-78199500D01*
X149207311Y-78199498D01*
X149207309Y-78199496D01*
X149093189Y-78133609D01*
X149093191Y-78133609D01*
X149043799Y-78120375D01*
X148965892Y-78099500D01*
X148834108Y-78099500D01*
X148756200Y-78120375D01*
X148706809Y-78133609D01*
X148592690Y-78199496D01*
X148592684Y-78199501D01*
X148570002Y-78222183D01*
X148515485Y-78249959D01*
X148455053Y-78240387D01*
X148429998Y-78222183D01*
X148407315Y-78199501D01*
X148407309Y-78199496D01*
X148293189Y-78133609D01*
X148293191Y-78133609D01*
X148243799Y-78120375D01*
X148165892Y-78099500D01*
X148034108Y-78099500D01*
X147956200Y-78120375D01*
X147906809Y-78133609D01*
X147792690Y-78199496D01*
X147792684Y-78199501D01*
X147770002Y-78222183D01*
X147715485Y-78249959D01*
X147655053Y-78240387D01*
X147629998Y-78222183D01*
X147607315Y-78199501D01*
X147607309Y-78199496D01*
X147493189Y-78133609D01*
X147493191Y-78133609D01*
X147443799Y-78120375D01*
X147365892Y-78099500D01*
X147234108Y-78099500D01*
X147156200Y-78120375D01*
X147106809Y-78133609D01*
X146992690Y-78199496D01*
X146992684Y-78199501D01*
X146970002Y-78222183D01*
X146915485Y-78249959D01*
X146855053Y-78240387D01*
X146829998Y-78222183D01*
X146807315Y-78199501D01*
X146807309Y-78199496D01*
X146693189Y-78133609D01*
X146693191Y-78133609D01*
X146643799Y-78120375D01*
X146565892Y-78099500D01*
X146434108Y-78099500D01*
X146356200Y-78120375D01*
X146306809Y-78133609D01*
X146192690Y-78199496D01*
X146099496Y-78292690D01*
X146033609Y-78406809D01*
X146033608Y-78406814D01*
X145999500Y-78534108D01*
X145999500Y-78665892D01*
X146021680Y-78748670D01*
X146033609Y-78793190D01*
X146099496Y-78907309D01*
X146099501Y-78907315D01*
X146122183Y-78929998D01*
X146149959Y-78984515D01*
X146140387Y-79044947D01*
X146122183Y-79070002D01*
X146099501Y-79092684D01*
X146099496Y-79092690D01*
X146033609Y-79206809D01*
X146033608Y-79206814D01*
X145999500Y-79334108D01*
X145999500Y-79465892D01*
X146008773Y-79500500D01*
X146033609Y-79593190D01*
X146099496Y-79707309D01*
X146099501Y-79707315D01*
X146122183Y-79729998D01*
X146149959Y-79784515D01*
X146140387Y-79844947D01*
X146122183Y-79870002D01*
X146099501Y-79892684D01*
X146099496Y-79892690D01*
X146033609Y-80006809D01*
X146033608Y-80006814D01*
X145999500Y-80134108D01*
X145999500Y-80265892D01*
X146010598Y-80307309D01*
X146033609Y-80393190D01*
X146099496Y-80507309D01*
X146099501Y-80507315D01*
X146122183Y-80529998D01*
X146149959Y-80584515D01*
X146140387Y-80644947D01*
X146122183Y-80670002D01*
X146099501Y-80692684D01*
X146099496Y-80692690D01*
X146033609Y-80806809D01*
X146033608Y-80806814D01*
X145999500Y-80934108D01*
X145999500Y-81065892D01*
X146029579Y-81178151D01*
X146033609Y-81193190D01*
X146099496Y-81307309D01*
X146099501Y-81307315D01*
X146122183Y-81329998D01*
X146149959Y-81384515D01*
X146140387Y-81444947D01*
X146122183Y-81470002D01*
X146099501Y-81492684D01*
X146099496Y-81492690D01*
X146033609Y-81606809D01*
X146033608Y-81606814D01*
X145999500Y-81734108D01*
X145999500Y-81865892D01*
X146025616Y-81963360D01*
X146033609Y-81993190D01*
X146099496Y-82107309D01*
X146099501Y-82107315D01*
X146122183Y-82129998D01*
X146149959Y-82184515D01*
X146140387Y-82244947D01*
X146122183Y-82270002D01*
X146099501Y-82292684D01*
X146099496Y-82292690D01*
X146033609Y-82406809D01*
X146033608Y-82406814D01*
X145999500Y-82534108D01*
X145999500Y-82665892D01*
X146029579Y-82778151D01*
X146033609Y-82793190D01*
X146099496Y-82907309D01*
X146099501Y-82907315D01*
X146122183Y-82929998D01*
X146149959Y-82984515D01*
X146140387Y-83044947D01*
X146122183Y-83070002D01*
X146099501Y-83092684D01*
X146099496Y-83092690D01*
X146033609Y-83206809D01*
X146023626Y-83244067D01*
X145999500Y-83334108D01*
X145999500Y-83465892D01*
X146023626Y-83555932D01*
X146033609Y-83593190D01*
X146099496Y-83707309D01*
X146099498Y-83707311D01*
X146099500Y-83707314D01*
X146192686Y-83800500D01*
X146192688Y-83800501D01*
X146192690Y-83800503D01*
X146306810Y-83866390D01*
X146306808Y-83866390D01*
X146306812Y-83866391D01*
X146306814Y-83866392D01*
X146434108Y-83900500D01*
X146434110Y-83900500D01*
X146565890Y-83900500D01*
X146565892Y-83900500D01*
X146693186Y-83866392D01*
X146693188Y-83866390D01*
X146693190Y-83866390D01*
X146807309Y-83800503D01*
X146807309Y-83800502D01*
X146807314Y-83800500D01*
X146900500Y-83707314D01*
X146924416Y-83665890D01*
X146966390Y-83593190D01*
X146966390Y-83593188D01*
X146966392Y-83593186D01*
X147000500Y-83465892D01*
X147000500Y-83334108D01*
X146966392Y-83206814D01*
X146966390Y-83206811D01*
X146966390Y-83206809D01*
X146900503Y-83092690D01*
X146900501Y-83092688D01*
X146900500Y-83092686D01*
X146877815Y-83070001D01*
X146850040Y-83015487D01*
X146859611Y-82955055D01*
X146877816Y-82929998D01*
X146900500Y-82907314D01*
X146900503Y-82907309D01*
X146966390Y-82793190D01*
X146966390Y-82793188D01*
X146966392Y-82793186D01*
X147000500Y-82665892D01*
X147000500Y-82534108D01*
X146966392Y-82406814D01*
X146966390Y-82406811D01*
X146966390Y-82406809D01*
X146900503Y-82292690D01*
X146900501Y-82292688D01*
X146900500Y-82292686D01*
X146877815Y-82270001D01*
X146850040Y-82215487D01*
X146859611Y-82155055D01*
X146877816Y-82129998D01*
X146900500Y-82107314D01*
X146966392Y-81993186D01*
X147000500Y-81865892D01*
X147000500Y-81734108D01*
X146966392Y-81606814D01*
X146966390Y-81606811D01*
X146966390Y-81606809D01*
X146900503Y-81492690D01*
X146900501Y-81492688D01*
X146900500Y-81492686D01*
X146877815Y-81470001D01*
X146850040Y-81415487D01*
X146859611Y-81355055D01*
X146877816Y-81329998D01*
X146900500Y-81307314D01*
X146900503Y-81307309D01*
X146966390Y-81193190D01*
X146966390Y-81193188D01*
X146966392Y-81193186D01*
X147000500Y-81065892D01*
X147000500Y-80934108D01*
X146966392Y-80806814D01*
X146966390Y-80806811D01*
X146966390Y-80806809D01*
X146900503Y-80692690D01*
X146900501Y-80692688D01*
X146900500Y-80692686D01*
X146877815Y-80670001D01*
X146850040Y-80615487D01*
X146859611Y-80555055D01*
X146877816Y-80529998D01*
X146900500Y-80507314D01*
X146904434Y-80500500D01*
X146966390Y-80393190D01*
X146966390Y-80393188D01*
X146966392Y-80393186D01*
X147000500Y-80265892D01*
X147000500Y-80134108D01*
X146966392Y-80006814D01*
X146966390Y-80006811D01*
X146966390Y-80006809D01*
X146900503Y-79892690D01*
X146900501Y-79892688D01*
X146900500Y-79892686D01*
X146877815Y-79870001D01*
X146850040Y-79815487D01*
X146859611Y-79755055D01*
X146877816Y-79729998D01*
X146900500Y-79707314D01*
X146908946Y-79692686D01*
X146966390Y-79593190D01*
X146966390Y-79593188D01*
X146966392Y-79593186D01*
X147000500Y-79465892D01*
X147000500Y-79334108D01*
X146966392Y-79206814D01*
X146959308Y-79194545D01*
X146946587Y-79134698D01*
X146971473Y-79078802D01*
X147024460Y-79048209D01*
X147085311Y-79054603D01*
X147094545Y-79059308D01*
X147106814Y-79066392D01*
X147234108Y-79100500D01*
X147234110Y-79100500D01*
X147365890Y-79100500D01*
X147365892Y-79100500D01*
X147493186Y-79066392D01*
X147493188Y-79066390D01*
X147493190Y-79066390D01*
X147607309Y-79000503D01*
X147607309Y-79000502D01*
X147607314Y-79000500D01*
X147629998Y-78977815D01*
X147684513Y-78950040D01*
X147744945Y-78959611D01*
X147770000Y-78977814D01*
X147792686Y-79000500D01*
X147792688Y-79000501D01*
X147792690Y-79000503D01*
X147906810Y-79066390D01*
X147906808Y-79066390D01*
X147906812Y-79066391D01*
X147906814Y-79066392D01*
X148034108Y-79100500D01*
X148034110Y-79100500D01*
X148165890Y-79100500D01*
X148165892Y-79100500D01*
X148293186Y-79066392D01*
X148293188Y-79066390D01*
X148293190Y-79066390D01*
X148407309Y-79000503D01*
X148407309Y-79000502D01*
X148407314Y-79000500D01*
X148429998Y-78977815D01*
X148484513Y-78950040D01*
X148544945Y-78959611D01*
X148570000Y-78977814D01*
X148592686Y-79000500D01*
X148592688Y-79000501D01*
X148592690Y-79000503D01*
X148706810Y-79066390D01*
X148706808Y-79066390D01*
X148706812Y-79066391D01*
X148706814Y-79066392D01*
X148834108Y-79100500D01*
X148834110Y-79100500D01*
X148965890Y-79100500D01*
X148965892Y-79100500D01*
X149093186Y-79066392D01*
X149093188Y-79066390D01*
X149093190Y-79066390D01*
X149207309Y-79000503D01*
X149207309Y-79000502D01*
X149207314Y-79000500D01*
X149300500Y-78907314D01*
X149300792Y-78906809D01*
X149364764Y-78796007D01*
X149410233Y-78755066D01*
X149471083Y-78748670D01*
X149524071Y-78779263D01*
X149548958Y-78835159D01*
X149549500Y-78845507D01*
X149549500Y-94997834D01*
X149549406Y-95002152D01*
X149532376Y-95392199D01*
X149531623Y-95400803D01*
X149480946Y-95785730D01*
X149479446Y-95794235D01*
X149395416Y-96173271D01*
X149393181Y-96181614D01*
X149276431Y-96551898D01*
X149273477Y-96560014D01*
X149124900Y-96918710D01*
X149121250Y-96926537D01*
X148941981Y-97270910D01*
X148937663Y-97278390D01*
X148729050Y-97605846D01*
X148724096Y-97612920D01*
X148487747Y-97920936D01*
X148482197Y-97927550D01*
X148219895Y-98213802D01*
X148213802Y-98219895D01*
X147927552Y-98482196D01*
X147920936Y-98487747D01*
X147612920Y-98724096D01*
X147605846Y-98729050D01*
X147278390Y-98937663D01*
X147270910Y-98941981D01*
X146926537Y-99121250D01*
X146918710Y-99124900D01*
X146560014Y-99273477D01*
X146551898Y-99276431D01*
X146181614Y-99393181D01*
X146173271Y-99395416D01*
X145794235Y-99479446D01*
X145785730Y-99480946D01*
X145400803Y-99531623D01*
X145392199Y-99532376D01*
X145002153Y-99549406D01*
X144997835Y-99549500D01*
X120002165Y-99549500D01*
X119997847Y-99549406D01*
X119607800Y-99532376D01*
X119599196Y-99531623D01*
X119214269Y-99480946D01*
X119205764Y-99479446D01*
X118826728Y-99395416D01*
X118818385Y-99393181D01*
X118448101Y-99276431D01*
X118439985Y-99273477D01*
X118081289Y-99124900D01*
X118073462Y-99121250D01*
X117729089Y-98941981D01*
X117721609Y-98937663D01*
X117394153Y-98729050D01*
X117387079Y-98724096D01*
X117079063Y-98487747D01*
X117072460Y-98482207D01*
X116786185Y-98219884D01*
X116780115Y-98213814D01*
X116517791Y-97927537D01*
X116512252Y-97920936D01*
X116406774Y-97783475D01*
X116275902Y-97612919D01*
X116270949Y-97605846D01*
X116062336Y-97278390D01*
X116058018Y-97270910D01*
X115961623Y-97085736D01*
X115878745Y-96926530D01*
X115875099Y-96918710D01*
X115873257Y-96914264D01*
X115726522Y-96560014D01*
X115723568Y-96551898D01*
X115606818Y-96181614D01*
X115604583Y-96173271D01*
X115592659Y-96119483D01*
X115520552Y-95794230D01*
X115519053Y-95785730D01*
X115512524Y-95736138D01*
X115468374Y-95400791D01*
X115467624Y-95392211D01*
X115465087Y-95334108D01*
X121799500Y-95334108D01*
X121799500Y-95465892D01*
X121826294Y-95565890D01*
X121833609Y-95593190D01*
X121899496Y-95707309D01*
X121899498Y-95707311D01*
X121899500Y-95707314D01*
X121992686Y-95800500D01*
X121992688Y-95800501D01*
X121992690Y-95800503D01*
X122106810Y-95866390D01*
X122106808Y-95866390D01*
X122106812Y-95866391D01*
X122106814Y-95866392D01*
X122234108Y-95900500D01*
X122234110Y-95900500D01*
X122365890Y-95900500D01*
X122365892Y-95900500D01*
X122493186Y-95866392D01*
X122493188Y-95866390D01*
X122493190Y-95866390D01*
X122607309Y-95800503D01*
X122607309Y-95800502D01*
X122607314Y-95800500D01*
X122700500Y-95707314D01*
X122708657Y-95693186D01*
X122766390Y-95593190D01*
X122766390Y-95593188D01*
X122766392Y-95593186D01*
X122800500Y-95465892D01*
X122800500Y-95434108D01*
X139999500Y-95434108D01*
X139999500Y-95565892D01*
X140028672Y-95674763D01*
X140033609Y-95693190D01*
X140099496Y-95807309D01*
X140099498Y-95807311D01*
X140099500Y-95807314D01*
X140192686Y-95900500D01*
X140192688Y-95900501D01*
X140216525Y-95914264D01*
X140257465Y-95959734D01*
X140263860Y-96020584D01*
X140233267Y-96073572D01*
X140216525Y-96085736D01*
X140192688Y-96099498D01*
X140099496Y-96192690D01*
X140033609Y-96306809D01*
X140033608Y-96306814D01*
X139999500Y-96434108D01*
X139999500Y-96565892D01*
X140029579Y-96678151D01*
X140033609Y-96693190D01*
X140099496Y-96807309D01*
X140099498Y-96807311D01*
X140099500Y-96807314D01*
X140192686Y-96900500D01*
X140192688Y-96900501D01*
X140216525Y-96914264D01*
X140257465Y-96959734D01*
X140263860Y-97020584D01*
X140233267Y-97073572D01*
X140216525Y-97085736D01*
X140192688Y-97099498D01*
X140099496Y-97192690D01*
X140033609Y-97306809D01*
X140033608Y-97306814D01*
X139999500Y-97434108D01*
X139999500Y-97565892D01*
X140010206Y-97605846D01*
X140033609Y-97693190D01*
X140099496Y-97807309D01*
X140099498Y-97807311D01*
X140099500Y-97807314D01*
X140192686Y-97900500D01*
X140192688Y-97900501D01*
X140192690Y-97900503D01*
X140306810Y-97966390D01*
X140306808Y-97966390D01*
X140306812Y-97966391D01*
X140306814Y-97966392D01*
X140434108Y-98000500D01*
X140434110Y-98000500D01*
X140565890Y-98000500D01*
X140565892Y-98000500D01*
X140693186Y-97966392D01*
X140693188Y-97966390D01*
X140693190Y-97966390D01*
X140807309Y-97900503D01*
X140807309Y-97900502D01*
X140807314Y-97900500D01*
X140900500Y-97807314D01*
X140914264Y-97783474D01*
X140959733Y-97742534D01*
X141020583Y-97736138D01*
X141073571Y-97766731D01*
X141085734Y-97783471D01*
X141099500Y-97807314D01*
X141192686Y-97900500D01*
X141192688Y-97900501D01*
X141192690Y-97900503D01*
X141306810Y-97966390D01*
X141306808Y-97966390D01*
X141306812Y-97966391D01*
X141306814Y-97966392D01*
X141434108Y-98000500D01*
X141434110Y-98000500D01*
X141565890Y-98000500D01*
X141565892Y-98000500D01*
X141693186Y-97966392D01*
X141693188Y-97966390D01*
X141693190Y-97966390D01*
X141807309Y-97900503D01*
X141807309Y-97900502D01*
X141807314Y-97900500D01*
X141900500Y-97807314D01*
X141914264Y-97783474D01*
X141959733Y-97742534D01*
X142020583Y-97736138D01*
X142073571Y-97766731D01*
X142085734Y-97783471D01*
X142099500Y-97807314D01*
X142192686Y-97900500D01*
X142192688Y-97900501D01*
X142192690Y-97900503D01*
X142306810Y-97966390D01*
X142306808Y-97966390D01*
X142306812Y-97966391D01*
X142306814Y-97966392D01*
X142434108Y-98000500D01*
X142434110Y-98000500D01*
X142565890Y-98000500D01*
X142565892Y-98000500D01*
X142693186Y-97966392D01*
X142693188Y-97966390D01*
X142693190Y-97966390D01*
X142807309Y-97900503D01*
X142807309Y-97900502D01*
X142807314Y-97900500D01*
X142900500Y-97807314D01*
X142914264Y-97783474D01*
X142959733Y-97742534D01*
X143020583Y-97736138D01*
X143073571Y-97766731D01*
X143085734Y-97783471D01*
X143099500Y-97807314D01*
X143192686Y-97900500D01*
X143192688Y-97900501D01*
X143192690Y-97900503D01*
X143306810Y-97966390D01*
X143306808Y-97966390D01*
X143306812Y-97966391D01*
X143306814Y-97966392D01*
X143434108Y-98000500D01*
X143434110Y-98000500D01*
X143565890Y-98000500D01*
X143565892Y-98000500D01*
X143693186Y-97966392D01*
X143693188Y-97966390D01*
X143693190Y-97966390D01*
X143807309Y-97900503D01*
X143807309Y-97900502D01*
X143807314Y-97900500D01*
X143900500Y-97807314D01*
X143914264Y-97783474D01*
X143959733Y-97742534D01*
X144020583Y-97736138D01*
X144073571Y-97766731D01*
X144085734Y-97783471D01*
X144099500Y-97807314D01*
X144192686Y-97900500D01*
X144192688Y-97900501D01*
X144192690Y-97900503D01*
X144306810Y-97966390D01*
X144306808Y-97966390D01*
X144306812Y-97966391D01*
X144306814Y-97966392D01*
X144434108Y-98000500D01*
X144434110Y-98000500D01*
X144565890Y-98000500D01*
X144565892Y-98000500D01*
X144693186Y-97966392D01*
X144693188Y-97966390D01*
X144693190Y-97966390D01*
X144807309Y-97900503D01*
X144807309Y-97900502D01*
X144807314Y-97900500D01*
X144900500Y-97807314D01*
X144909102Y-97792415D01*
X144966390Y-97693190D01*
X144966390Y-97693188D01*
X144966392Y-97693186D01*
X145000500Y-97565892D01*
X145000500Y-97434108D01*
X144966392Y-97306814D01*
X144966390Y-97306811D01*
X144966390Y-97306809D01*
X144900503Y-97192690D01*
X144900501Y-97192688D01*
X144900500Y-97192686D01*
X144807314Y-97099500D01*
X144783474Y-97085735D01*
X144742534Y-97040267D01*
X144736138Y-96979417D01*
X144766731Y-96926429D01*
X144783474Y-96914264D01*
X144807314Y-96900500D01*
X144900500Y-96807314D01*
X144900503Y-96807309D01*
X144966390Y-96693190D01*
X144966390Y-96693188D01*
X144966392Y-96693186D01*
X145000500Y-96565892D01*
X145000500Y-96434108D01*
X144966392Y-96306814D01*
X144966390Y-96306811D01*
X144966390Y-96306809D01*
X144900503Y-96192690D01*
X144900501Y-96192688D01*
X144900500Y-96192686D01*
X144807314Y-96099500D01*
X144783474Y-96085735D01*
X144742534Y-96040267D01*
X144736138Y-95979417D01*
X144766731Y-95926429D01*
X144783474Y-95914264D01*
X144807314Y-95900500D01*
X144900500Y-95807314D01*
X144912962Y-95785730D01*
X144966390Y-95693190D01*
X144966390Y-95693188D01*
X144966392Y-95693186D01*
X145000500Y-95565892D01*
X145000500Y-95434108D01*
X144976656Y-95345120D01*
X144979859Y-95284022D01*
X145018364Y-95236472D01*
X145072283Y-95220500D01*
X145115764Y-95220500D01*
X145115766Y-95220500D01*
X145262135Y-95181281D01*
X145262137Y-95181279D01*
X145262139Y-95181279D01*
X145393360Y-95105518D01*
X145393360Y-95105517D01*
X145393365Y-95105515D01*
X145500515Y-94998365D01*
X145537903Y-94933608D01*
X145576279Y-94867139D01*
X145576279Y-94867137D01*
X145576281Y-94867135D01*
X145615500Y-94720766D01*
X145615500Y-94569234D01*
X145576281Y-94422865D01*
X145576279Y-94422862D01*
X145576279Y-94422860D01*
X145500518Y-94291639D01*
X145500516Y-94291637D01*
X145500515Y-94291635D01*
X145393365Y-94184485D01*
X145393362Y-94184483D01*
X145393360Y-94184481D01*
X145262138Y-94108720D01*
X145262140Y-94108720D01*
X145205347Y-94093503D01*
X145115766Y-94069500D01*
X144964234Y-94069500D01*
X144874652Y-94093503D01*
X144817860Y-94108720D01*
X144686639Y-94184481D01*
X144579481Y-94291639D01*
X144503720Y-94422860D01*
X144503719Y-94422865D01*
X144464500Y-94569234D01*
X144464500Y-94720766D01*
X144503719Y-94867135D01*
X144503719Y-94867136D01*
X144505399Y-94873403D01*
X144503599Y-94873885D01*
X144507713Y-94926197D01*
X144475739Y-94978364D01*
X144437074Y-94998705D01*
X144383940Y-95012942D01*
X144306814Y-95033608D01*
X144306812Y-95033608D01*
X144306808Y-95033610D01*
X144192690Y-95099496D01*
X144099498Y-95192688D01*
X144085736Y-95216525D01*
X144040266Y-95257465D01*
X143979416Y-95263860D01*
X143926428Y-95233267D01*
X143914264Y-95216525D01*
X143900501Y-95192688D01*
X143900500Y-95192686D01*
X143807314Y-95099500D01*
X143807311Y-95099498D01*
X143807309Y-95099496D01*
X143693189Y-95033609D01*
X143693191Y-95033609D01*
X143643799Y-95020375D01*
X143565892Y-94999500D01*
X143434108Y-94999500D01*
X143356200Y-95020375D01*
X143306809Y-95033609D01*
X143192690Y-95099496D01*
X143099498Y-95192688D01*
X143085736Y-95216525D01*
X143040266Y-95257465D01*
X142979416Y-95263860D01*
X142926428Y-95233267D01*
X142914264Y-95216525D01*
X142900501Y-95192688D01*
X142900500Y-95192686D01*
X142807314Y-95099500D01*
X142807311Y-95099498D01*
X142807309Y-95099496D01*
X142693189Y-95033609D01*
X142693191Y-95033609D01*
X142643799Y-95020375D01*
X142565892Y-94999500D01*
X142434108Y-94999500D01*
X142356200Y-95020375D01*
X142306809Y-95033609D01*
X142192690Y-95099496D01*
X142099498Y-95192688D01*
X142085736Y-95216525D01*
X142040266Y-95257465D01*
X141979416Y-95263860D01*
X141926428Y-95233267D01*
X141914264Y-95216525D01*
X141900501Y-95192688D01*
X141900500Y-95192686D01*
X141807314Y-95099500D01*
X141807311Y-95099498D01*
X141807309Y-95099496D01*
X141693189Y-95033609D01*
X141693191Y-95033609D01*
X141643799Y-95020375D01*
X141565892Y-94999500D01*
X141434108Y-94999500D01*
X141356200Y-95020375D01*
X141306809Y-95033609D01*
X141192690Y-95099496D01*
X141099498Y-95192688D01*
X141085736Y-95216525D01*
X141040266Y-95257465D01*
X140979416Y-95263860D01*
X140926428Y-95233267D01*
X140914264Y-95216525D01*
X140900501Y-95192688D01*
X140900500Y-95192686D01*
X140807314Y-95099500D01*
X140807311Y-95099498D01*
X140807309Y-95099496D01*
X140693189Y-95033609D01*
X140693191Y-95033609D01*
X140643799Y-95020375D01*
X140565892Y-94999500D01*
X140434108Y-94999500D01*
X140356200Y-95020375D01*
X140306809Y-95033609D01*
X140192690Y-95099496D01*
X140099496Y-95192690D01*
X140033609Y-95306809D01*
X140026294Y-95334109D01*
X139999500Y-95434108D01*
X122800500Y-95434108D01*
X122800500Y-95334108D01*
X122766392Y-95206814D01*
X122766390Y-95206811D01*
X122766390Y-95206809D01*
X122700503Y-95092690D01*
X122700501Y-95092688D01*
X122700500Y-95092686D01*
X122607314Y-94999500D01*
X122607311Y-94999498D01*
X122607309Y-94999496D01*
X122493189Y-94933609D01*
X122493191Y-94933609D01*
X122443799Y-94920375D01*
X122365892Y-94899500D01*
X122234108Y-94899500D01*
X122156200Y-94920375D01*
X122106809Y-94933609D01*
X121992690Y-94999496D01*
X121899496Y-95092690D01*
X121833609Y-95206809D01*
X121833608Y-95206814D01*
X121799500Y-95334108D01*
X115465087Y-95334108D01*
X115451731Y-95028212D01*
X115450594Y-95002152D01*
X115450500Y-94997834D01*
X115450500Y-94569234D01*
X119784500Y-94569234D01*
X119784500Y-94720766D01*
X119819086Y-94849847D01*
X119823720Y-94867139D01*
X119899481Y-94998360D01*
X119899483Y-94998362D01*
X119899485Y-94998365D01*
X120006635Y-95105515D01*
X120006637Y-95105516D01*
X120006639Y-95105518D01*
X120137861Y-95181279D01*
X120137859Y-95181279D01*
X120137863Y-95181280D01*
X120137865Y-95181281D01*
X120284234Y-95220500D01*
X120284236Y-95220500D01*
X120435764Y-95220500D01*
X120435766Y-95220500D01*
X120582135Y-95181281D01*
X120582137Y-95181279D01*
X120582139Y-95181279D01*
X120713360Y-95105518D01*
X120713360Y-95105517D01*
X120713365Y-95105515D01*
X120820515Y-94998365D01*
X120857903Y-94933608D01*
X120896279Y-94867139D01*
X120896279Y-94867137D01*
X120896281Y-94867135D01*
X120935500Y-94720766D01*
X120935500Y-94569234D01*
X125564500Y-94569234D01*
X125564500Y-94720766D01*
X125599086Y-94849847D01*
X125603720Y-94867139D01*
X125679481Y-94998360D01*
X125679483Y-94998362D01*
X125679485Y-94998365D01*
X125786635Y-95105515D01*
X125786637Y-95105516D01*
X125786639Y-95105518D01*
X125917861Y-95181279D01*
X125917859Y-95181279D01*
X125917863Y-95181280D01*
X125917865Y-95181281D01*
X126064234Y-95220500D01*
X126064236Y-95220500D01*
X126215764Y-95220500D01*
X126215766Y-95220500D01*
X126362135Y-95181281D01*
X126362137Y-95181279D01*
X126362139Y-95181279D01*
X126493360Y-95105518D01*
X126493360Y-95105517D01*
X126493365Y-95105515D01*
X126600515Y-94998365D01*
X126637903Y-94933608D01*
X126676279Y-94867139D01*
X126676279Y-94867137D01*
X126676281Y-94867135D01*
X126715500Y-94720766D01*
X126715500Y-94569234D01*
X138684500Y-94569234D01*
X138684500Y-94720766D01*
X138719086Y-94849847D01*
X138723720Y-94867139D01*
X138799481Y-94998360D01*
X138799483Y-94998362D01*
X138799485Y-94998365D01*
X138906635Y-95105515D01*
X138906637Y-95105516D01*
X138906639Y-95105518D01*
X139037861Y-95181279D01*
X139037859Y-95181279D01*
X139037863Y-95181280D01*
X139037865Y-95181281D01*
X139184234Y-95220500D01*
X139184236Y-95220500D01*
X139335764Y-95220500D01*
X139335766Y-95220500D01*
X139482135Y-95181281D01*
X139482137Y-95181279D01*
X139482139Y-95181279D01*
X139613360Y-95105518D01*
X139613360Y-95105517D01*
X139613365Y-95105515D01*
X139720515Y-94998365D01*
X139757903Y-94933608D01*
X139796279Y-94867139D01*
X139796279Y-94867137D01*
X139796281Y-94867135D01*
X139835500Y-94720766D01*
X139835500Y-94569234D01*
X139796281Y-94422865D01*
X139796279Y-94422862D01*
X139796279Y-94422860D01*
X139720518Y-94291639D01*
X139720516Y-94291637D01*
X139720515Y-94291635D01*
X139613365Y-94184485D01*
X139613362Y-94184483D01*
X139613360Y-94184481D01*
X139482138Y-94108720D01*
X139482140Y-94108720D01*
X139425347Y-94093503D01*
X139335766Y-94069500D01*
X139184234Y-94069500D01*
X139094652Y-94093503D01*
X139037860Y-94108720D01*
X138906639Y-94184481D01*
X138799481Y-94291639D01*
X138723720Y-94422860D01*
X138723719Y-94422865D01*
X138684500Y-94569234D01*
X126715500Y-94569234D01*
X126676281Y-94422865D01*
X126676279Y-94422862D01*
X126676279Y-94422860D01*
X126600518Y-94291639D01*
X126600516Y-94291637D01*
X126600515Y-94291635D01*
X126493365Y-94184485D01*
X126493362Y-94184483D01*
X126493360Y-94184481D01*
X126362138Y-94108720D01*
X126362140Y-94108720D01*
X126305347Y-94093503D01*
X126215766Y-94069500D01*
X126064234Y-94069500D01*
X125974652Y-94093503D01*
X125917860Y-94108720D01*
X125786639Y-94184481D01*
X125679481Y-94291639D01*
X125603720Y-94422860D01*
X125603719Y-94422865D01*
X125564500Y-94569234D01*
X120935500Y-94569234D01*
X120896281Y-94422865D01*
X120896279Y-94422862D01*
X120896279Y-94422860D01*
X120820518Y-94291639D01*
X120820516Y-94291637D01*
X120820515Y-94291635D01*
X120713365Y-94184485D01*
X120713362Y-94184483D01*
X120713360Y-94184481D01*
X120582138Y-94108720D01*
X120582140Y-94108720D01*
X120525347Y-94093503D01*
X120435766Y-94069500D01*
X120284234Y-94069500D01*
X120194652Y-94093503D01*
X120137860Y-94108720D01*
X120006639Y-94184481D01*
X119899481Y-94291639D01*
X119823720Y-94422860D01*
X119823719Y-94422865D01*
X119784500Y-94569234D01*
X115450500Y-94569234D01*
X115450500Y-91834108D01*
X124399500Y-91834108D01*
X124399500Y-91965892D01*
X124410464Y-92006809D01*
X124433609Y-92093190D01*
X124499496Y-92207309D01*
X124499498Y-92207311D01*
X124499500Y-92207314D01*
X124592686Y-92300500D01*
X124592688Y-92300501D01*
X124592690Y-92300503D01*
X124706810Y-92366390D01*
X124706808Y-92366390D01*
X124706812Y-92366391D01*
X124706814Y-92366392D01*
X124834108Y-92400500D01*
X124834110Y-92400500D01*
X124965890Y-92400500D01*
X124965892Y-92400500D01*
X125093186Y-92366392D01*
X125093188Y-92366390D01*
X125093190Y-92366390D01*
X125207309Y-92300503D01*
X125207309Y-92300502D01*
X125207314Y-92300500D01*
X125300500Y-92207314D01*
X125342766Y-92134108D01*
X136899500Y-92134108D01*
X136899500Y-92265892D01*
X136908773Y-92300500D01*
X136933609Y-92393190D01*
X136999496Y-92507309D01*
X136999498Y-92507311D01*
X136999500Y-92507314D01*
X137092686Y-92600500D01*
X137092688Y-92600501D01*
X137092690Y-92600503D01*
X137206810Y-92666390D01*
X137206808Y-92666390D01*
X137206812Y-92666391D01*
X137206814Y-92666392D01*
X137334108Y-92700500D01*
X137334110Y-92700500D01*
X137465890Y-92700500D01*
X137465892Y-92700500D01*
X137593186Y-92666392D01*
X137593188Y-92666390D01*
X137593190Y-92666390D01*
X137707309Y-92600503D01*
X137707309Y-92600502D01*
X137707314Y-92600500D01*
X137800500Y-92507314D01*
X137814264Y-92483474D01*
X137859733Y-92442534D01*
X137920583Y-92436138D01*
X137973571Y-92466731D01*
X137985734Y-92483471D01*
X137999500Y-92507314D01*
X138092686Y-92600500D01*
X138092688Y-92600501D01*
X138092690Y-92600503D01*
X138206810Y-92666390D01*
X138206808Y-92666390D01*
X138206812Y-92666391D01*
X138206814Y-92666392D01*
X138334108Y-92700500D01*
X138334110Y-92700500D01*
X138465890Y-92700500D01*
X138465892Y-92700500D01*
X138593186Y-92666392D01*
X138593188Y-92666390D01*
X138593190Y-92666390D01*
X138707309Y-92600503D01*
X138707309Y-92600502D01*
X138707314Y-92600500D01*
X138800500Y-92507314D01*
X138814264Y-92483474D01*
X138859733Y-92442534D01*
X138920583Y-92436138D01*
X138973571Y-92466731D01*
X138985734Y-92483471D01*
X138999500Y-92507314D01*
X139092686Y-92600500D01*
X139092688Y-92600501D01*
X139092690Y-92600503D01*
X139206810Y-92666390D01*
X139206808Y-92666390D01*
X139206812Y-92666391D01*
X139206814Y-92666392D01*
X139334108Y-92700500D01*
X139334110Y-92700500D01*
X139465890Y-92700500D01*
X139465892Y-92700500D01*
X139593186Y-92666392D01*
X139593188Y-92666390D01*
X139593190Y-92666390D01*
X139707309Y-92600503D01*
X139707309Y-92600502D01*
X139707314Y-92600500D01*
X139800500Y-92507314D01*
X139800503Y-92507309D01*
X139866390Y-92393190D01*
X139866390Y-92393188D01*
X139866392Y-92393186D01*
X139900500Y-92265892D01*
X139900500Y-92134108D01*
X139866392Y-92006814D01*
X139866390Y-92006811D01*
X139866390Y-92006809D01*
X139800503Y-91892690D01*
X139800501Y-91892688D01*
X139800500Y-91892686D01*
X139707314Y-91799500D01*
X139707311Y-91799498D01*
X139707309Y-91799496D01*
X139593189Y-91733609D01*
X139593191Y-91733609D01*
X139543799Y-91720375D01*
X139465892Y-91699500D01*
X139334108Y-91699500D01*
X139256200Y-91720375D01*
X139206809Y-91733609D01*
X139092690Y-91799496D01*
X138999498Y-91892688D01*
X138985736Y-91916525D01*
X138940266Y-91957465D01*
X138879416Y-91963860D01*
X138826428Y-91933267D01*
X138814264Y-91916525D01*
X138800501Y-91892688D01*
X138800500Y-91892686D01*
X138707314Y-91799500D01*
X138707311Y-91799498D01*
X138707309Y-91799496D01*
X138593189Y-91733609D01*
X138593191Y-91733609D01*
X138543799Y-91720375D01*
X138465892Y-91699500D01*
X138334108Y-91699500D01*
X138256200Y-91720375D01*
X138206809Y-91733609D01*
X138092690Y-91799496D01*
X137999498Y-91892688D01*
X137985736Y-91916525D01*
X137940266Y-91957465D01*
X137879416Y-91963860D01*
X137826428Y-91933267D01*
X137814264Y-91916525D01*
X137800501Y-91892688D01*
X137800500Y-91892686D01*
X137707314Y-91799500D01*
X137707311Y-91799498D01*
X137707309Y-91799496D01*
X137593189Y-91733609D01*
X137593191Y-91733609D01*
X137543799Y-91720375D01*
X137465892Y-91699500D01*
X137334108Y-91699500D01*
X137256200Y-91720375D01*
X137206809Y-91733609D01*
X137092690Y-91799496D01*
X136999496Y-91892690D01*
X136933609Y-92006809D01*
X136933608Y-92006814D01*
X136899500Y-92134108D01*
X125342766Y-92134108D01*
X125366392Y-92093186D01*
X125400500Y-91965892D01*
X125400500Y-91834108D01*
X125366392Y-91706814D01*
X125366390Y-91706811D01*
X125366390Y-91706809D01*
X125300503Y-91592690D01*
X125300501Y-91592688D01*
X125300500Y-91592686D01*
X125207314Y-91499500D01*
X125207311Y-91499498D01*
X125207309Y-91499496D01*
X125093189Y-91433609D01*
X125093191Y-91433609D01*
X125043799Y-91420375D01*
X124965892Y-91399500D01*
X124834108Y-91399500D01*
X124756200Y-91420375D01*
X124706809Y-91433609D01*
X124592690Y-91499496D01*
X124499496Y-91592690D01*
X124433609Y-91706809D01*
X124426428Y-91733609D01*
X124399500Y-91834108D01*
X115450500Y-91834108D01*
X115450500Y-89634108D01*
X123499500Y-89634108D01*
X123499500Y-89765892D01*
X123517778Y-89834108D01*
X123533609Y-89893190D01*
X123599496Y-90007309D01*
X123599498Y-90007311D01*
X123599500Y-90007314D01*
X123692686Y-90100500D01*
X123692688Y-90100501D01*
X123692690Y-90100503D01*
X123806810Y-90166390D01*
X123806808Y-90166390D01*
X123806812Y-90166391D01*
X123806814Y-90166392D01*
X123934108Y-90200500D01*
X123934110Y-90200500D01*
X124065890Y-90200500D01*
X124065892Y-90200500D01*
X124193186Y-90166392D01*
X124193188Y-90166390D01*
X124193190Y-90166390D01*
X124307309Y-90100503D01*
X124307309Y-90100502D01*
X124307314Y-90100500D01*
X124400500Y-90007314D01*
X124466392Y-89893186D01*
X124500500Y-89765892D01*
X124500500Y-89634108D01*
X124466392Y-89506814D01*
X124466390Y-89506811D01*
X124466390Y-89506809D01*
X124400503Y-89392690D01*
X124400501Y-89392688D01*
X124400500Y-89392686D01*
X124307314Y-89299500D01*
X124307311Y-89299498D01*
X124307309Y-89299496D01*
X124193189Y-89233609D01*
X124193191Y-89233609D01*
X124143799Y-89220375D01*
X124065892Y-89199500D01*
X123934108Y-89199500D01*
X123856200Y-89220375D01*
X123806809Y-89233609D01*
X123692690Y-89299496D01*
X123599496Y-89392690D01*
X123533609Y-89506809D01*
X123533608Y-89506814D01*
X123499500Y-89634108D01*
X115450500Y-89634108D01*
X115450500Y-88834108D01*
X135299500Y-88834108D01*
X135299500Y-88965892D01*
X135329579Y-89078151D01*
X135333609Y-89093190D01*
X135399496Y-89207309D01*
X135399498Y-89207311D01*
X135399500Y-89207314D01*
X135492686Y-89300500D01*
X135492688Y-89300501D01*
X135516525Y-89314264D01*
X135557465Y-89359734D01*
X135563860Y-89420584D01*
X135533267Y-89473572D01*
X135516525Y-89485736D01*
X135492688Y-89499498D01*
X135399496Y-89592690D01*
X135333609Y-89706809D01*
X135333608Y-89706814D01*
X135299500Y-89834108D01*
X135299500Y-89965892D01*
X135310598Y-90007309D01*
X135333609Y-90093190D01*
X135399496Y-90207309D01*
X135399498Y-90207311D01*
X135399500Y-90207314D01*
X135492686Y-90300500D01*
X135492688Y-90300501D01*
X135516525Y-90314264D01*
X135557465Y-90359734D01*
X135563860Y-90420584D01*
X135533267Y-90473572D01*
X135516525Y-90485736D01*
X135492688Y-90499498D01*
X135399496Y-90592690D01*
X135333609Y-90706809D01*
X135333608Y-90706814D01*
X135299500Y-90834108D01*
X135299500Y-90965892D01*
X135329579Y-91078151D01*
X135333609Y-91093190D01*
X135399496Y-91207309D01*
X135399498Y-91207311D01*
X135399500Y-91207314D01*
X135492686Y-91300500D01*
X135492688Y-91300501D01*
X135492690Y-91300503D01*
X135606810Y-91366390D01*
X135606808Y-91366390D01*
X135606812Y-91366391D01*
X135606814Y-91366392D01*
X135734108Y-91400500D01*
X135734110Y-91400500D01*
X135865890Y-91400500D01*
X135865892Y-91400500D01*
X135993186Y-91366392D01*
X135993188Y-91366390D01*
X135993190Y-91366390D01*
X136107309Y-91300503D01*
X136107309Y-91300502D01*
X136107314Y-91300500D01*
X136200500Y-91207314D01*
X136266392Y-91093186D01*
X136300500Y-90965892D01*
X136300500Y-90834108D01*
X136266392Y-90706814D01*
X136266390Y-90706811D01*
X136266390Y-90706809D01*
X136200503Y-90592690D01*
X136200501Y-90592688D01*
X136200500Y-90592686D01*
X136107314Y-90499500D01*
X136083474Y-90485735D01*
X136042534Y-90440267D01*
X136036138Y-90379417D01*
X136066731Y-90326429D01*
X136083474Y-90314264D01*
X136107314Y-90300500D01*
X136200500Y-90207314D01*
X136204434Y-90200500D01*
X136266390Y-90093190D01*
X136266390Y-90093188D01*
X136266392Y-90093186D01*
X136300500Y-89965892D01*
X136300500Y-89834108D01*
X136266392Y-89706814D01*
X136266390Y-89706811D01*
X136266390Y-89706809D01*
X136200503Y-89592690D01*
X136200501Y-89592688D01*
X136200500Y-89592686D01*
X136107314Y-89499500D01*
X136083474Y-89485735D01*
X136042534Y-89440267D01*
X136036138Y-89379417D01*
X136066731Y-89326429D01*
X136083474Y-89314264D01*
X136107314Y-89300500D01*
X136200500Y-89207314D01*
X136200503Y-89207309D01*
X136266390Y-89093190D01*
X136266390Y-89093188D01*
X136266392Y-89093186D01*
X136300500Y-88965892D01*
X136300500Y-88834108D01*
X136266392Y-88706814D01*
X136266390Y-88706811D01*
X136266390Y-88706809D01*
X136200503Y-88592690D01*
X136200501Y-88592688D01*
X136200500Y-88592686D01*
X136107314Y-88499500D01*
X136107311Y-88499498D01*
X136107309Y-88499496D01*
X135993189Y-88433609D01*
X135993191Y-88433609D01*
X135943799Y-88420375D01*
X135865892Y-88399500D01*
X135734108Y-88399500D01*
X135656200Y-88420375D01*
X135606809Y-88433609D01*
X135492690Y-88499496D01*
X135399496Y-88592690D01*
X135333609Y-88706809D01*
X135333608Y-88706814D01*
X135299500Y-88834108D01*
X115450500Y-88834108D01*
X115450500Y-87314234D01*
X144319500Y-87314234D01*
X144319500Y-87465766D01*
X144354086Y-87594847D01*
X144358720Y-87612139D01*
X144434481Y-87743360D01*
X144434483Y-87743362D01*
X144434485Y-87743365D01*
X144541635Y-87850515D01*
X144541637Y-87850516D01*
X144541639Y-87850518D01*
X144672861Y-87926279D01*
X144672859Y-87926279D01*
X144672863Y-87926280D01*
X144672865Y-87926281D01*
X144819234Y-87965500D01*
X144819236Y-87965500D01*
X144970764Y-87965500D01*
X144970766Y-87965500D01*
X145117135Y-87926281D01*
X145117137Y-87926279D01*
X145117139Y-87926279D01*
X145248360Y-87850518D01*
X145248360Y-87850517D01*
X145248365Y-87850515D01*
X145355515Y-87743365D01*
X145431281Y-87612135D01*
X145470500Y-87465766D01*
X145470500Y-87314234D01*
X145431281Y-87167865D01*
X145431279Y-87167862D01*
X145431279Y-87167860D01*
X145355518Y-87036639D01*
X145355516Y-87036637D01*
X145355515Y-87036635D01*
X145248365Y-86929485D01*
X145248362Y-86929483D01*
X145248360Y-86929481D01*
X145117138Y-86853720D01*
X145117140Y-86853720D01*
X145060347Y-86838503D01*
X144970766Y-86814500D01*
X144819234Y-86814500D01*
X144729652Y-86838503D01*
X144672860Y-86853720D01*
X144541639Y-86929481D01*
X144434481Y-87036639D01*
X144358720Y-87167860D01*
X144358719Y-87167865D01*
X144319500Y-87314234D01*
X115450500Y-87314234D01*
X115450500Y-83334108D01*
X118399500Y-83334108D01*
X118399500Y-83465892D01*
X118423626Y-83555932D01*
X118433609Y-83593190D01*
X118499496Y-83707309D01*
X118499498Y-83707311D01*
X118499500Y-83707314D01*
X118592686Y-83800500D01*
X118592688Y-83800501D01*
X118592690Y-83800503D01*
X118706810Y-83866390D01*
X118706808Y-83866390D01*
X118706812Y-83866391D01*
X118706814Y-83866392D01*
X118834108Y-83900500D01*
X118834110Y-83900500D01*
X118965890Y-83900500D01*
X118965892Y-83900500D01*
X119093186Y-83866392D01*
X119093188Y-83866390D01*
X119093190Y-83866390D01*
X119207309Y-83800503D01*
X119207309Y-83800502D01*
X119207314Y-83800500D01*
X119300500Y-83707314D01*
X119324415Y-83665892D01*
X119364264Y-83596873D01*
X119369793Y-83591894D01*
X119372384Y-83584917D01*
X119392121Y-83571789D01*
X119409733Y-83555932D01*
X119417133Y-83555154D01*
X119423330Y-83551033D01*
X119447010Y-83552013D01*
X119470583Y-83549536D01*
X119477027Y-83553257D01*
X119484463Y-83553565D01*
X119499370Y-83566156D01*
X119523571Y-83580129D01*
X119532432Y-83591547D01*
X119534173Y-83594164D01*
X119599500Y-83707314D01*
X119629148Y-83736962D01*
X119634610Y-83745174D01*
X119640326Y-83765608D01*
X119649959Y-83784515D01*
X119648388Y-83794429D01*
X119651093Y-83804097D01*
X119643706Y-83823988D01*
X119640387Y-83844947D01*
X119631259Y-83857509D01*
X119629794Y-83861456D01*
X119627081Y-83863260D01*
X119622183Y-83870002D01*
X119599501Y-83892684D01*
X119599496Y-83892690D01*
X119533609Y-84006809D01*
X119533608Y-84006814D01*
X119499500Y-84134108D01*
X119499500Y-84265892D01*
X119529579Y-84378151D01*
X119533609Y-84393190D01*
X119599496Y-84507309D01*
X119599501Y-84507315D01*
X119622183Y-84529998D01*
X119649959Y-84584515D01*
X119640387Y-84644947D01*
X119622183Y-84670002D01*
X119599501Y-84692684D01*
X119599496Y-84692690D01*
X119533609Y-84806809D01*
X119523626Y-84844067D01*
X119499500Y-84934108D01*
X119499500Y-85065892D01*
X119521912Y-85149536D01*
X119533609Y-85193190D01*
X119599496Y-85307309D01*
X119599498Y-85307311D01*
X119599500Y-85307314D01*
X119692686Y-85400500D01*
X119692688Y-85400501D01*
X119692690Y-85400503D01*
X119806810Y-85466390D01*
X119806808Y-85466390D01*
X119806812Y-85466391D01*
X119806814Y-85466392D01*
X119934108Y-85500500D01*
X119934110Y-85500500D01*
X120065890Y-85500500D01*
X120065892Y-85500500D01*
X120193186Y-85466392D01*
X120193188Y-85466390D01*
X120193190Y-85466390D01*
X120307309Y-85400503D01*
X120307309Y-85400502D01*
X120307314Y-85400500D01*
X120400500Y-85307314D01*
X120414264Y-85283474D01*
X120459733Y-85242534D01*
X120520583Y-85236138D01*
X120573571Y-85266731D01*
X120585734Y-85283471D01*
X120599500Y-85307314D01*
X120692686Y-85400500D01*
X120692688Y-85400501D01*
X120692690Y-85400503D01*
X120806810Y-85466390D01*
X120806808Y-85466390D01*
X120806812Y-85466391D01*
X120806814Y-85466392D01*
X120934108Y-85500500D01*
X120934110Y-85500500D01*
X121065890Y-85500500D01*
X121065892Y-85500500D01*
X121193186Y-85466392D01*
X121193188Y-85466390D01*
X121193190Y-85466390D01*
X121307309Y-85400503D01*
X121307309Y-85400502D01*
X121307314Y-85400500D01*
X121400500Y-85307314D01*
X121400503Y-85307309D01*
X121464264Y-85196873D01*
X121509733Y-85155932D01*
X121570583Y-85149536D01*
X121623571Y-85180129D01*
X121635736Y-85196873D01*
X121699496Y-85307309D01*
X121699498Y-85307311D01*
X121699500Y-85307314D01*
X121792686Y-85400500D01*
X121792688Y-85400501D01*
X121792690Y-85400503D01*
X121906810Y-85466390D01*
X121906808Y-85466390D01*
X121906812Y-85466391D01*
X121906814Y-85466392D01*
X122034108Y-85500500D01*
X122034110Y-85500500D01*
X122165890Y-85500500D01*
X122165892Y-85500500D01*
X122293186Y-85466392D01*
X122293188Y-85466390D01*
X122293190Y-85466390D01*
X122407309Y-85400503D01*
X122407309Y-85400502D01*
X122407314Y-85400500D01*
X122500500Y-85307314D01*
X122500503Y-85307309D01*
X122564264Y-85196873D01*
X122609733Y-85155932D01*
X122670583Y-85149536D01*
X122723571Y-85180129D01*
X122735736Y-85196873D01*
X122799496Y-85307309D01*
X122799498Y-85307311D01*
X122799500Y-85307314D01*
X122892686Y-85400500D01*
X122892688Y-85400501D01*
X122892690Y-85400503D01*
X123006810Y-85466390D01*
X123006808Y-85466390D01*
X123006812Y-85466391D01*
X123006814Y-85466392D01*
X123134108Y-85500500D01*
X123134110Y-85500500D01*
X123265890Y-85500500D01*
X123265892Y-85500500D01*
X123393186Y-85466392D01*
X123393188Y-85466390D01*
X123393190Y-85466390D01*
X123507309Y-85400503D01*
X123507309Y-85400502D01*
X123507314Y-85400500D01*
X123600500Y-85307314D01*
X123614264Y-85283474D01*
X123659733Y-85242534D01*
X123720583Y-85236138D01*
X123773571Y-85266731D01*
X123785734Y-85283471D01*
X123799500Y-85307314D01*
X123892686Y-85400500D01*
X123892688Y-85400501D01*
X123892690Y-85400503D01*
X124006810Y-85466390D01*
X124006808Y-85466390D01*
X124006812Y-85466391D01*
X124006814Y-85466392D01*
X124134108Y-85500500D01*
X124134110Y-85500500D01*
X124265890Y-85500500D01*
X124265892Y-85500500D01*
X124393186Y-85466392D01*
X124393188Y-85466390D01*
X124393190Y-85466390D01*
X124507309Y-85400503D01*
X124507309Y-85400502D01*
X124507314Y-85400500D01*
X124600500Y-85307314D01*
X124600503Y-85307309D01*
X124666390Y-85193190D01*
X124666390Y-85193188D01*
X124666392Y-85193186D01*
X124700500Y-85065892D01*
X124700500Y-84934108D01*
X124666392Y-84806814D01*
X124666390Y-84806811D01*
X124666390Y-84806809D01*
X124600503Y-84692690D01*
X124600501Y-84692688D01*
X124600500Y-84692686D01*
X124507314Y-84599500D01*
X124507311Y-84599498D01*
X124507309Y-84599496D01*
X124393189Y-84533609D01*
X124393191Y-84533609D01*
X124343799Y-84520375D01*
X124265892Y-84499500D01*
X124134108Y-84499500D01*
X124056200Y-84520375D01*
X124006809Y-84533609D01*
X123892690Y-84599496D01*
X123799498Y-84692688D01*
X123785736Y-84716525D01*
X123740266Y-84757465D01*
X123679416Y-84763860D01*
X123626428Y-84733267D01*
X123614264Y-84716525D01*
X123600501Y-84692688D01*
X123600500Y-84692686D01*
X123507314Y-84599500D01*
X123507311Y-84599498D01*
X123507309Y-84599496D01*
X123393189Y-84533609D01*
X123393191Y-84533609D01*
X123343799Y-84520375D01*
X123265892Y-84499500D01*
X123134108Y-84499500D01*
X123056200Y-84520375D01*
X123006809Y-84533609D01*
X122892690Y-84599496D01*
X122799496Y-84692690D01*
X122735736Y-84803126D01*
X122690267Y-84844067D01*
X122629416Y-84850463D01*
X122576428Y-84819870D01*
X122564264Y-84803126D01*
X122500503Y-84692690D01*
X122500501Y-84692688D01*
X122500500Y-84692686D01*
X122407314Y-84599500D01*
X122407311Y-84599498D01*
X122407309Y-84599496D01*
X122293189Y-84533609D01*
X122293191Y-84533609D01*
X122243799Y-84520375D01*
X122165892Y-84499500D01*
X122034108Y-84499500D01*
X121956200Y-84520375D01*
X121906809Y-84533609D01*
X121792690Y-84599496D01*
X121699496Y-84692690D01*
X121635736Y-84803126D01*
X121590267Y-84844067D01*
X121529416Y-84850463D01*
X121476428Y-84819870D01*
X121464264Y-84803126D01*
X121400503Y-84692690D01*
X121400501Y-84692688D01*
X121400500Y-84692686D01*
X121307314Y-84599500D01*
X121307311Y-84599498D01*
X121307309Y-84599496D01*
X121193189Y-84533609D01*
X121193191Y-84533609D01*
X121143799Y-84520375D01*
X121065892Y-84499500D01*
X120934108Y-84499500D01*
X120856200Y-84520375D01*
X120806809Y-84533609D01*
X120692690Y-84599496D01*
X120599498Y-84692688D01*
X120585736Y-84716525D01*
X120583000Y-84718988D01*
X120581979Y-84722526D01*
X120560492Y-84739253D01*
X120540266Y-84757465D01*
X120536605Y-84757849D01*
X120533700Y-84760112D01*
X120506481Y-84761015D01*
X120479416Y-84763860D01*
X120476228Y-84762019D01*
X120472548Y-84762142D01*
X120461602Y-84753575D01*
X120426428Y-84733267D01*
X120421882Y-84727840D01*
X120417679Y-84722442D01*
X120400500Y-84692686D01*
X120373474Y-84665660D01*
X120369703Y-84660816D01*
X120361277Y-84637541D01*
X120350040Y-84615487D01*
X120351029Y-84609236D01*
X120348875Y-84603284D01*
X120355739Y-84579500D01*
X120359611Y-84555055D01*
X120364893Y-84547783D01*
X120365842Y-84544498D01*
X120369154Y-84541919D01*
X120377816Y-84529998D01*
X120400500Y-84507314D01*
X120400503Y-84507309D01*
X120466390Y-84393190D01*
X120466390Y-84393188D01*
X120466392Y-84393186D01*
X120500500Y-84265892D01*
X120500500Y-84134108D01*
X120466392Y-84006814D01*
X120466390Y-84006811D01*
X120466390Y-84006809D01*
X120400503Y-83892690D01*
X120400501Y-83892688D01*
X120400500Y-83892686D01*
X120377815Y-83870001D01*
X120350040Y-83815487D01*
X120359611Y-83755055D01*
X120377814Y-83729999D01*
X120400500Y-83707314D01*
X120424416Y-83665890D01*
X120466390Y-83593190D01*
X120466390Y-83593188D01*
X120466392Y-83593186D01*
X120482222Y-83534108D01*
X124999500Y-83534108D01*
X124999500Y-83665892D01*
X125023391Y-83755055D01*
X125033609Y-83793190D01*
X125099496Y-83907309D01*
X125099498Y-83907311D01*
X125099500Y-83907314D01*
X125192686Y-84000500D01*
X125192688Y-84000501D01*
X125192690Y-84000503D01*
X125306810Y-84066390D01*
X125306808Y-84066390D01*
X125306812Y-84066391D01*
X125306814Y-84066392D01*
X125434108Y-84100500D01*
X125434110Y-84100500D01*
X125565890Y-84100500D01*
X125565892Y-84100500D01*
X125693186Y-84066392D01*
X125693188Y-84066390D01*
X125693190Y-84066390D01*
X125807309Y-84000503D01*
X125807309Y-84000502D01*
X125807314Y-84000500D01*
X125900500Y-83907314D01*
X125922042Y-83870002D01*
X125966390Y-83793190D01*
X125966390Y-83793188D01*
X125966392Y-83793186D01*
X126000500Y-83665892D01*
X126000500Y-83534108D01*
X125966392Y-83406814D01*
X125966390Y-83406811D01*
X125966390Y-83406809D01*
X125900503Y-83292690D01*
X125900501Y-83292688D01*
X125900500Y-83292686D01*
X125807314Y-83199500D01*
X125807311Y-83199498D01*
X125807309Y-83199496D01*
X125693189Y-83133609D01*
X125693191Y-83133609D01*
X125643799Y-83120375D01*
X125565892Y-83099500D01*
X125434108Y-83099500D01*
X125356200Y-83120375D01*
X125306809Y-83133609D01*
X125192690Y-83199496D01*
X125099496Y-83292690D01*
X125033609Y-83406809D01*
X125017778Y-83465892D01*
X124999500Y-83534108D01*
X120482222Y-83534108D01*
X120500500Y-83465892D01*
X120500500Y-83334108D01*
X120466392Y-83206814D01*
X120466390Y-83206811D01*
X120466390Y-83206809D01*
X120400503Y-83092690D01*
X120400501Y-83092688D01*
X120400500Y-83092686D01*
X120307314Y-82999500D01*
X120307311Y-82999498D01*
X120307309Y-82999496D01*
X120193189Y-82933609D01*
X120193191Y-82933609D01*
X120143799Y-82920375D01*
X120065892Y-82899500D01*
X119934108Y-82899500D01*
X119856200Y-82920375D01*
X119806809Y-82933609D01*
X119692690Y-82999496D01*
X119599496Y-83092690D01*
X119535736Y-83203126D01*
X119490267Y-83244067D01*
X119429416Y-83250463D01*
X119376428Y-83219870D01*
X119364264Y-83203126D01*
X119300503Y-83092690D01*
X119300501Y-83092688D01*
X119300500Y-83092686D01*
X119207314Y-82999500D01*
X119207311Y-82999498D01*
X119207309Y-82999496D01*
X119093189Y-82933609D01*
X119093191Y-82933609D01*
X119043799Y-82920375D01*
X118965892Y-82899500D01*
X118834108Y-82899500D01*
X118756200Y-82920375D01*
X118706809Y-82933609D01*
X118592690Y-82999496D01*
X118499496Y-83092690D01*
X118433609Y-83206809D01*
X118423626Y-83244067D01*
X118399500Y-83334108D01*
X115450500Y-83334108D01*
X115450500Y-81534234D01*
X144319500Y-81534234D01*
X144319500Y-81685766D01*
X144354086Y-81814847D01*
X144358720Y-81832139D01*
X144434481Y-81963360D01*
X144434483Y-81963362D01*
X144434485Y-81963365D01*
X144541635Y-82070515D01*
X144541637Y-82070516D01*
X144541639Y-82070518D01*
X144672861Y-82146279D01*
X144672859Y-82146279D01*
X144672863Y-82146280D01*
X144672865Y-82146281D01*
X144819234Y-82185500D01*
X144819236Y-82185500D01*
X144970764Y-82185500D01*
X144970766Y-82185500D01*
X145117135Y-82146281D01*
X145117137Y-82146279D01*
X145117139Y-82146279D01*
X145248360Y-82070518D01*
X145248360Y-82070517D01*
X145248365Y-82070515D01*
X145355515Y-81963365D01*
X145355518Y-81963360D01*
X145431279Y-81832139D01*
X145431279Y-81832137D01*
X145431281Y-81832135D01*
X145470500Y-81685766D01*
X145470500Y-81534234D01*
X145431281Y-81387865D01*
X145431279Y-81387862D01*
X145431279Y-81387860D01*
X145355518Y-81256639D01*
X145355516Y-81256637D01*
X145355515Y-81256635D01*
X145248365Y-81149485D01*
X145248362Y-81149483D01*
X145248360Y-81149481D01*
X145117138Y-81073720D01*
X145117140Y-81073720D01*
X145060347Y-81058503D01*
X144970766Y-81034500D01*
X144819234Y-81034500D01*
X144729652Y-81058503D01*
X144672860Y-81073720D01*
X144541639Y-81149481D01*
X144434481Y-81256639D01*
X144358720Y-81387860D01*
X144358719Y-81387865D01*
X144319500Y-81534234D01*
X115450500Y-81534234D01*
X115450500Y-79934108D01*
X131099500Y-79934108D01*
X131099500Y-80065892D01*
X131117778Y-80134108D01*
X131133609Y-80193190D01*
X131199496Y-80307309D01*
X131199498Y-80307311D01*
X131199500Y-80307314D01*
X131292686Y-80400500D01*
X131292688Y-80400501D01*
X131292690Y-80400503D01*
X131406810Y-80466390D01*
X131406808Y-80466390D01*
X131406812Y-80466391D01*
X131406814Y-80466392D01*
X131534108Y-80500500D01*
X131534110Y-80500500D01*
X131665890Y-80500500D01*
X131665892Y-80500500D01*
X131793186Y-80466392D01*
X131793188Y-80466390D01*
X131793190Y-80466390D01*
X131907309Y-80400503D01*
X131907309Y-80400502D01*
X131907314Y-80400500D01*
X132000500Y-80307314D01*
X132066392Y-80193186D01*
X132100500Y-80065892D01*
X132100500Y-79934108D01*
X132066392Y-79806814D01*
X132066390Y-79806811D01*
X132066390Y-79806809D01*
X132000503Y-79692690D01*
X132000501Y-79692688D01*
X132000500Y-79692686D01*
X131907314Y-79599500D01*
X131907311Y-79599498D01*
X131907309Y-79599496D01*
X131793189Y-79533609D01*
X131793191Y-79533609D01*
X131743799Y-79520375D01*
X131665892Y-79499500D01*
X131534108Y-79499500D01*
X131456200Y-79520375D01*
X131406809Y-79533609D01*
X131292690Y-79599496D01*
X131199496Y-79692690D01*
X131133609Y-79806809D01*
X131133608Y-79806814D01*
X131099500Y-79934108D01*
X115450500Y-79934108D01*
X115450500Y-79034108D01*
X139499500Y-79034108D01*
X139499500Y-79165892D01*
X139507178Y-79194546D01*
X139533609Y-79293190D01*
X139599496Y-79407309D01*
X139599498Y-79407311D01*
X139599500Y-79407314D01*
X139692686Y-79500500D01*
X139692688Y-79500501D01*
X139692690Y-79500503D01*
X139806810Y-79566390D01*
X139806808Y-79566390D01*
X139806812Y-79566391D01*
X139806814Y-79566392D01*
X139934108Y-79600500D01*
X139934110Y-79600500D01*
X140065890Y-79600500D01*
X140065892Y-79600500D01*
X140193186Y-79566392D01*
X140193188Y-79566390D01*
X140193190Y-79566390D01*
X140307309Y-79500503D01*
X140307309Y-79500502D01*
X140307314Y-79500500D01*
X140400500Y-79407314D01*
X140466392Y-79293186D01*
X140500500Y-79165892D01*
X140500500Y-79034108D01*
X140466392Y-78906814D01*
X140466390Y-78906811D01*
X140466390Y-78906809D01*
X140400503Y-78792690D01*
X140400501Y-78792688D01*
X140400500Y-78792686D01*
X140307314Y-78699500D01*
X140307311Y-78699498D01*
X140307309Y-78699496D01*
X140193189Y-78633609D01*
X140193191Y-78633609D01*
X140143799Y-78620375D01*
X140065892Y-78599500D01*
X139934108Y-78599500D01*
X139856200Y-78620375D01*
X139806809Y-78633609D01*
X139692690Y-78699496D01*
X139599496Y-78792690D01*
X139533609Y-78906809D01*
X139533340Y-78907814D01*
X139499500Y-79034108D01*
X115450500Y-79034108D01*
X115450500Y-76471004D01*
X139989500Y-76471004D01*
X139989500Y-76608995D01*
X140016420Y-76744327D01*
X140016420Y-76744329D01*
X140069222Y-76871806D01*
X140069228Y-76871817D01*
X140145885Y-76986541D01*
X140243458Y-77084114D01*
X140358182Y-77160771D01*
X140358193Y-77160777D01*
X140405283Y-77180282D01*
X140485672Y-77213580D01*
X140621007Y-77240500D01*
X140621008Y-77240500D01*
X140758992Y-77240500D01*
X140758993Y-77240500D01*
X140894328Y-77213580D01*
X141021811Y-77160775D01*
X141136542Y-77084114D01*
X141234114Y-76986542D01*
X141310775Y-76871811D01*
X141363580Y-76744328D01*
X141390500Y-76608993D01*
X141390500Y-76471007D01*
X141390499Y-76471004D01*
X147609500Y-76471004D01*
X147609500Y-76608995D01*
X147636420Y-76744327D01*
X147636420Y-76744329D01*
X147689222Y-76871806D01*
X147689228Y-76871817D01*
X147765885Y-76986541D01*
X147863458Y-77084114D01*
X147978182Y-77160771D01*
X147978193Y-77160777D01*
X148025283Y-77180282D01*
X148105672Y-77213580D01*
X148241007Y-77240500D01*
X148241008Y-77240500D01*
X148378992Y-77240500D01*
X148378993Y-77240500D01*
X148514328Y-77213580D01*
X148641811Y-77160775D01*
X148756542Y-77084114D01*
X148854114Y-76986542D01*
X148930775Y-76871811D01*
X148983580Y-76744328D01*
X149010500Y-76608993D01*
X149010500Y-76471007D01*
X148983580Y-76335672D01*
X148930775Y-76208189D01*
X148930774Y-76208187D01*
X148930771Y-76208182D01*
X148854114Y-76093458D01*
X148756541Y-75995885D01*
X148641817Y-75919228D01*
X148641806Y-75919222D01*
X148514328Y-75866420D01*
X148378995Y-75839500D01*
X148378993Y-75839500D01*
X148241007Y-75839500D01*
X148241004Y-75839500D01*
X148105672Y-75866420D01*
X148105670Y-75866420D01*
X147978193Y-75919222D01*
X147978182Y-75919228D01*
X147863458Y-75995885D01*
X147765885Y-76093458D01*
X147689228Y-76208182D01*
X147689222Y-76208193D01*
X147636420Y-76335670D01*
X147636420Y-76335672D01*
X147609500Y-76471004D01*
X141390499Y-76471004D01*
X141363580Y-76335672D01*
X141310775Y-76208189D01*
X141310774Y-76208187D01*
X141310771Y-76208182D01*
X141234114Y-76093458D01*
X141136541Y-75995885D01*
X141021817Y-75919228D01*
X141021806Y-75919222D01*
X140894328Y-75866420D01*
X140758995Y-75839500D01*
X140758993Y-75839500D01*
X140621007Y-75839500D01*
X140621004Y-75839500D01*
X140485672Y-75866420D01*
X140485670Y-75866420D01*
X140358193Y-75919222D01*
X140358182Y-75919228D01*
X140243458Y-75995885D01*
X140145885Y-76093458D01*
X140069228Y-76208182D01*
X140069222Y-76208193D01*
X140016420Y-76335670D01*
X140016420Y-76335672D01*
X139989500Y-76471004D01*
X115450500Y-76471004D01*
X115450500Y-74621306D01*
X117099500Y-74621306D01*
X117099500Y-74798693D01*
X117134106Y-74972665D01*
X117134106Y-74972667D01*
X117201985Y-75136544D01*
X117201985Y-75136545D01*
X117300535Y-75284034D01*
X117300536Y-75284035D01*
X117425965Y-75409464D01*
X117573453Y-75508013D01*
X117737334Y-75575894D01*
X117911309Y-75610500D01*
X117911310Y-75610500D01*
X118088690Y-75610500D01*
X118088691Y-75610500D01*
X118262666Y-75575894D01*
X118426547Y-75508013D01*
X118574035Y-75409464D01*
X118699464Y-75284035D01*
X118798013Y-75136547D01*
X118865894Y-74972666D01*
X118900500Y-74798691D01*
X118900500Y-74621309D01*
X118865894Y-74447334D01*
X118798014Y-74283455D01*
X118798014Y-74283454D01*
X118699464Y-74135965D01*
X118574033Y-74010534D01*
X118570927Y-74008459D01*
X118570926Y-74008458D01*
X118570925Y-74008458D01*
X118455008Y-73931004D01*
X139989500Y-73931004D01*
X139989500Y-74068995D01*
X140016420Y-74204327D01*
X140016420Y-74204329D01*
X140069222Y-74331806D01*
X140069228Y-74331817D01*
X140145885Y-74446541D01*
X140243458Y-74544114D01*
X140358182Y-74620771D01*
X140358193Y-74620777D01*
X140405283Y-74640282D01*
X140485672Y-74673580D01*
X140621007Y-74700500D01*
X140621008Y-74700500D01*
X140758992Y-74700500D01*
X140758993Y-74700500D01*
X140894328Y-74673580D01*
X141021811Y-74620775D01*
X141136542Y-74544114D01*
X141234114Y-74446542D01*
X141310775Y-74331811D01*
X141363580Y-74204328D01*
X141390500Y-74068993D01*
X141390500Y-73931007D01*
X141390499Y-73931004D01*
X147609500Y-73931004D01*
X147609500Y-74068995D01*
X147636420Y-74204327D01*
X147636420Y-74204329D01*
X147689222Y-74331806D01*
X147689228Y-74331817D01*
X147765885Y-74446541D01*
X147863458Y-74544114D01*
X147978182Y-74620771D01*
X147978193Y-74620777D01*
X148025283Y-74640282D01*
X148105672Y-74673580D01*
X148241007Y-74700500D01*
X148241008Y-74700500D01*
X148378992Y-74700500D01*
X148378993Y-74700500D01*
X148514328Y-74673580D01*
X148641811Y-74620775D01*
X148756542Y-74544114D01*
X148854114Y-74446542D01*
X148930775Y-74331811D01*
X148983580Y-74204328D01*
X149010500Y-74068993D01*
X149010500Y-73931007D01*
X148983580Y-73795672D01*
X148930775Y-73668189D01*
X148930774Y-73668187D01*
X148930771Y-73668182D01*
X148854114Y-73553458D01*
X148756541Y-73455885D01*
X148641817Y-73379228D01*
X148641806Y-73379222D01*
X148514328Y-73326420D01*
X148378995Y-73299500D01*
X148378993Y-73299500D01*
X148241007Y-73299500D01*
X148241004Y-73299500D01*
X148105672Y-73326420D01*
X148105670Y-73326420D01*
X147978193Y-73379222D01*
X147978182Y-73379228D01*
X147863458Y-73455885D01*
X147765885Y-73553458D01*
X147689228Y-73668182D01*
X147689222Y-73668193D01*
X147636420Y-73795670D01*
X147636420Y-73795672D01*
X147609500Y-73931004D01*
X141390499Y-73931004D01*
X141363580Y-73795672D01*
X141310775Y-73668189D01*
X141310774Y-73668187D01*
X141310771Y-73668182D01*
X141234114Y-73553458D01*
X141136541Y-73455885D01*
X141021817Y-73379228D01*
X141021806Y-73379222D01*
X140894328Y-73326420D01*
X140758995Y-73299500D01*
X140758993Y-73299500D01*
X140621007Y-73299500D01*
X140621004Y-73299500D01*
X140485672Y-73326420D01*
X140485670Y-73326420D01*
X140358193Y-73379222D01*
X140358182Y-73379228D01*
X140243458Y-73455885D01*
X140145885Y-73553458D01*
X140069228Y-73668182D01*
X140069222Y-73668193D01*
X140016420Y-73795670D01*
X140016420Y-73795672D01*
X139989500Y-73931004D01*
X118455008Y-73931004D01*
X118426544Y-73911985D01*
X118262666Y-73844106D01*
X118088693Y-73809500D01*
X118088691Y-73809500D01*
X117911309Y-73809500D01*
X117911306Y-73809500D01*
X117737334Y-73844106D01*
X117737332Y-73844106D01*
X117573455Y-73911985D01*
X117573454Y-73911985D01*
X117425965Y-74010535D01*
X117300535Y-74135965D01*
X117201985Y-74283454D01*
X117201985Y-74283455D01*
X117134106Y-74447332D01*
X117134106Y-74447334D01*
X117099500Y-74621306D01*
X115450500Y-74621306D01*
X115450500Y-71391004D01*
X139989500Y-71391004D01*
X139989500Y-71528995D01*
X140016420Y-71664327D01*
X140016420Y-71664329D01*
X140069222Y-71791806D01*
X140069228Y-71791817D01*
X140145885Y-71906541D01*
X140243458Y-72004114D01*
X140358182Y-72080771D01*
X140358193Y-72080777D01*
X140405283Y-72100282D01*
X140485672Y-72133580D01*
X140621007Y-72160500D01*
X140621008Y-72160500D01*
X140758992Y-72160500D01*
X140758993Y-72160500D01*
X140894328Y-72133580D01*
X141021811Y-72080775D01*
X141136542Y-72004114D01*
X141234114Y-71906542D01*
X141310775Y-71791811D01*
X141363580Y-71664328D01*
X141390500Y-71528993D01*
X141390500Y-71391007D01*
X141363580Y-71255672D01*
X141310775Y-71128189D01*
X141310774Y-71128187D01*
X141310771Y-71128182D01*
X141234114Y-71013458D01*
X141136541Y-70915885D01*
X141021817Y-70839228D01*
X141021806Y-70839222D01*
X140894328Y-70786420D01*
X140758995Y-70759500D01*
X140758993Y-70759500D01*
X140621007Y-70759500D01*
X140621004Y-70759500D01*
X140485672Y-70786420D01*
X140485670Y-70786420D01*
X140358193Y-70839222D01*
X140358182Y-70839228D01*
X140243458Y-70915885D01*
X140145885Y-71013458D01*
X140069228Y-71128182D01*
X140069222Y-71128193D01*
X140016420Y-71255670D01*
X140016420Y-71255672D01*
X139989500Y-71391004D01*
X115450500Y-71391004D01*
X115450500Y-70002165D01*
X115450594Y-69997847D01*
X115453089Y-69940691D01*
X115467624Y-69607786D01*
X115468374Y-69599210D01*
X115519054Y-69214260D01*
X115520553Y-69205764D01*
X115592659Y-68880517D01*
X115604584Y-68826720D01*
X115606818Y-68818385D01*
X115723568Y-68448101D01*
X115726522Y-68439985D01*
X115875106Y-68081272D01*
X115878741Y-68073478D01*
X116058023Y-67729079D01*
X116062330Y-67721618D01*
X116270956Y-67394142D01*
X116275894Y-67387090D01*
X116512262Y-67079050D01*
X116517781Y-67072473D01*
X116552936Y-67034108D01*
X137899500Y-67034108D01*
X137899500Y-67165892D01*
X137929579Y-67278151D01*
X137933609Y-67293190D01*
X137999496Y-67407309D01*
X137999498Y-67407311D01*
X137999500Y-67407314D01*
X138092686Y-67500500D01*
X138092688Y-67500501D01*
X138092690Y-67500503D01*
X138206810Y-67566390D01*
X138206808Y-67566390D01*
X138206812Y-67566391D01*
X138206814Y-67566392D01*
X138334108Y-67600500D01*
X138334110Y-67600500D01*
X138465890Y-67600500D01*
X138465892Y-67600500D01*
X138593186Y-67566392D01*
X138593188Y-67566390D01*
X138593190Y-67566390D01*
X138707309Y-67500503D01*
X138707309Y-67500502D01*
X138707314Y-67500500D01*
X138800500Y-67407314D01*
X138866392Y-67293186D01*
X138900500Y-67165892D01*
X138900500Y-67034108D01*
X140999500Y-67034108D01*
X140999500Y-67165892D01*
X141029579Y-67278151D01*
X141033609Y-67293190D01*
X141099496Y-67407309D01*
X141099498Y-67407311D01*
X141099500Y-67407314D01*
X141192686Y-67500500D01*
X141192688Y-67500501D01*
X141192690Y-67500503D01*
X141306810Y-67566390D01*
X141306808Y-67566390D01*
X141306812Y-67566391D01*
X141306814Y-67566392D01*
X141434108Y-67600500D01*
X141434110Y-67600500D01*
X141565890Y-67600500D01*
X141565892Y-67600500D01*
X141693186Y-67566392D01*
X141693188Y-67566390D01*
X141693190Y-67566390D01*
X141807309Y-67500503D01*
X141807309Y-67500502D01*
X141807314Y-67500500D01*
X141900500Y-67407314D01*
X141966392Y-67293186D01*
X142000500Y-67165892D01*
X142000500Y-67034108D01*
X141966392Y-66906814D01*
X141966390Y-66906811D01*
X141966390Y-66906809D01*
X141900503Y-66792690D01*
X141900501Y-66792688D01*
X141900500Y-66792686D01*
X141807314Y-66699500D01*
X141807311Y-66699498D01*
X141807309Y-66699496D01*
X141693189Y-66633609D01*
X141693191Y-66633609D01*
X141643799Y-66620375D01*
X141565892Y-66599500D01*
X141434108Y-66599500D01*
X141356200Y-66620375D01*
X141306809Y-66633609D01*
X141192690Y-66699496D01*
X141099496Y-66792690D01*
X141033609Y-66906809D01*
X141033608Y-66906814D01*
X140999500Y-67034108D01*
X138900500Y-67034108D01*
X138866392Y-66906814D01*
X138866390Y-66906811D01*
X138866390Y-66906809D01*
X138800503Y-66792690D01*
X138800501Y-66792688D01*
X138800500Y-66792686D01*
X138707314Y-66699500D01*
X138707311Y-66699498D01*
X138707309Y-66699496D01*
X138593189Y-66633609D01*
X138593191Y-66633609D01*
X138543799Y-66620375D01*
X138465892Y-66599500D01*
X138334108Y-66599500D01*
X138256200Y-66620375D01*
X138206809Y-66633609D01*
X138092690Y-66699496D01*
X137999496Y-66792690D01*
X137933609Y-66906809D01*
X137933608Y-66906814D01*
X137899500Y-67034108D01*
X116552936Y-67034108D01*
X116780115Y-66786185D01*
X116786173Y-66780126D01*
X117072473Y-66517781D01*
X117079050Y-66512262D01*
X117387090Y-66275894D01*
X117394142Y-66270956D01*
X117721618Y-66062330D01*
X117729079Y-66058023D01*
X118073478Y-65878741D01*
X118081272Y-65875106D01*
X118439992Y-65726519D01*
X118448094Y-65723570D01*
X118818393Y-65606815D01*
X118826720Y-65604584D01*
X119205773Y-65520551D01*
X119214260Y-65519054D01*
X119599210Y-65468374D01*
X119607786Y-65467624D01*
X119997847Y-65450593D01*
X120002165Y-65450500D01*
X120059309Y-65450500D01*
X124810118Y-65450500D01*
X124868309Y-65469407D01*
G37*
%TD.AperFunction*%
%TD*%
M02*
